<svg width="36" height="26" viewBox="0 0 36 26" xmlns="http://www.w3.org/2000/svg"><title>BE-BRU</title><g fill="none" fill-rule="evenodd"><rect fill="#0014FF" width="36" height="26" rx="4"/><path d="M17.401 20.182c-.002.312-.124.56-.428.56-.323 0-.688-.627-1.592-1.058-.809-.385-1.6-.558-2.317-.56-.886-.001-2.38.428-3.796.446-1.334.018-2.542-.618-3.305-1.451-.57-.622-.966-1.608-.962-2.501.005-1.126.441-2.23 1.434-3.061.723-.605 1.558-.854 2.527-.857 1.452-.005 2.913.742 3.84 1.478 1.357 1.079 2.606 2.513 3.471 4.066.493.884 1.132 2.362 1.128 2.939zm1.198 0c.002.312.124.56.428.56.323 0 .688-.627 1.592-1.058.809-.385 1.6-.558 2.317-.56.886-.001 2.38.428 3.796.446 1.334.018 2.542-.618 3.305-1.451.57-.622.966-1.608.962-2.501-.005-1.126-.441-2.23-1.434-3.061-.723-.605-1.558-.854-2.527-.857-1.452-.005-2.913.742-3.84 1.478-1.357 1.079-2.606 2.513-3.471 4.066-.493.884-1.132 2.362-1.128 2.939z" fill="#FDDF00"/><path d="M20.532 5.001c1.174-.006 1.998.451 2.68 1.12.734.72 1.092 1.666 1.097 2.737a3.802 3.802 0 0 1-.755 2.33c-.658.91-1.414 1.496-2.19 2.208-1.254 1.153-2.033 2.18-2.686 3.463-.161.317-.3.789-.678.789-.378 0-.517-.472-.678-.789-.653-1.283-1.432-2.31-2.687-3.463-.775-.712-1.53-1.298-2.189-2.208a3.802 3.802 0 0 1-.756-2.33c.006-1.071.364-2.017 1.099-2.737.681-.669 1.505-1.126 2.68-1.12 1.211.007 1.98.426 2.53 1.128.55-.702 1.32-1.12 2.533-1.128z" fill="#FFF"/><path d="M18.949 6.602c.404-.298.924-.49 1.425-.481.723.011 1.401.245 1.89.717.541.524.905 1.222.883 2.09-.031 1.193-.677 1.828-1.575 2.746-.612.626-1.193.95-2.08 1.941-.349.388-1.048 1.38-1.492 2.309-.444-.93-1.143-1.92-1.491-2.309-.888-.99-1.469-1.315-2.081-1.941-.897-.918-1.543-1.553-1.574-2.746-.023-.868.34-1.566.883-2.09.488-.472 1.167-.706 1.889-.717.501-.008 1.021.183 1.425.48.41.302.696.684.949 1.19.253-.506.54-.888.949-1.19z" fill="#B9B9BC"/></g></svg>