<svg width="36" height="26" viewBox="0 0 36 26" xmlns="http://www.w3.org/2000/svg" xmlns:xlink="http://www.w3.org/1999/xlink"><title>BE-VWV</title><defs><rect id="a" width="36" height="26" rx="4"/></defs><g fill="none" fill-rule="evenodd"><mask id="b" fill="#fff"><use xlink:href="#a"/></mask><use fill="#FDDF00" xlink:href="#a"/><path d="M25.506 0L18 13 36 2.608V0H25.506zM10.494 0L18 13V0h-7.506zM0 13h18L0 2.608V13zm18 0l18 10.392V13H18zm0 13h7.506L18 13v13zM0 23.392V26h10.494L18 13 0 23.392z" fill="#0014FF" mask="url(#b)"/><path d="M18 17.899a3.753 3.753 0 0 1-3.753-3.753V8.1h7.506v6.045A3.753 3.753 0 0 1 18 17.899" fill="#F00" mask="url(#b)"/></g></svg>