<svg width="36" height="26" viewBox="0 0 36 26" xmlns="http://www.w3.org/2000/svg" xmlns:xlink="http://www.w3.org/1999/xlink"><title>BE-VLI</title><defs><rect id="a" width="36" height="26" rx="4"/><path d="M6.643 0H8v4.615c0 2.44-1.687 4.5-4 5.162-2.313-.662-4-2.722-4-5.162V0h6.643z" id="c"/></defs><g fill="none" fill-rule="evenodd"><mask id="b" fill="#fff"><use xlink:href="#a"/></mask><use fill="#F3F3F3" xlink:href="#a"/><g mask="url(#b)"><path d="M16.568 6.293c-.988-.044-2.462.24-2.662-.338.006-.6-.874-1.104-.816-.348.39 1.248 2.188.744 3.49.854l-.012-.168z" fill="#FDDF00"/><path d="M17.096 4.572c-.128-.528-.908-.572-.908-.572-.168.376 0 .636 0 .636l.908-.064zm3.834 3.804c-.302.646.022 1.222.528 1.778-.72-.03-1.194-.38-1.522-.92-.696.79-2.088 2.466.306 2.588-.622.326-1.248.626-1.988-.366.104.458.13.904-.096 1.302.008-.306.022-.61-.352-1.032.04.834-.016 1.598-.514 2.048.022-.486.29-.954-.432-1.492-.314-.288-.626-.578-.704-1.16.122.878-.07 1.184-.306 1.414-.022-.528-.068-1.048-.448-1.428.112.968-.088 1.642-.642 1.984.036-.584.018-1.164-.336-1.746.206 1.262-.302 1.502-.736 1.84.13-.572.4-1.142.016-1.714-.278-.514-.638-1.052-.128-1.364-1.168-.274-1.83.306-2.244 1.316-.374-.996-.11-1.726 1.026-2.094.126-.394.542-.5 1.09-.478-.624-.75.286-1.848.992-1.11-1.008.108-.48 1.318.428.718.5-.44.96-.312 1.246-.146.53.492 1.238-.178 1.02-.652l-.714-.404c-.046.12-.042.246-.318.336-.094.036-.144.142-.146.326-.294-.254-.232-.508-.272-.762l-.228-.248.284-.158.046-.28.146.258.738.124c.028-.492.234-1.054-.884-1.1l-.114.326-.136-.282c-.708-.12-.942-.448-.816-.93-.51-.178-.172-.492.362-.406l.782-.454c.01-.382.32-.546.782-.51L18 3.488c1.5.52 3.248 2.78 2.962 2.73.54.568.634 1.26-.032 2.158zm-9.708-1.158l.66 1.058c.282.55.104.738-.038.954.038.024.066.022.1.034.08-.038.158-.076.248-.11.14-.298.44-.47.888-.512-.09-.26-.078-.546.042-.802.072-.154.18-.276.302-.372a5.089 5.089 0 0 0-.434-.352c-.654-.762-2.148-1.302-1.45-2.418.372-.274 1.198-.366.502-1.066-.512-.52-.9-.102-1.272.44-.046-.394.252-1.096-.628-.752-.93.7-.342.886-.096 1.188-.31.058-.908-.402-.626.732.074.656.318.8.774.306l.412.664c-.372-.05-.75-.108-.342.796.288.688.598.996.958.212zm2.456 4.984c-.056-.05-.116-.096-.172-.146.054-.01.106-.022.16-.026a.954.954 0 0 0-.154-.454l-.076-.138c-.194-.354-.442-.806-.288-1.176-.04-.002-.078-.006-.116-.006l-.006.002c-.52.35-1.024.784-1.46 1.544-.696.724-1.08 2.254-2.274 1.684-.314-.336-.494-1.14-1.122-.382-.468.56-.008.898.576 1.206-.392.088-1.126-.132-.69.7.802.842.926.242 1.204-.032.09.3-.308.938.8.54.652-.144.768-.398.226-.794l.624-.476c-.012.37-.03.748.832.254.662-.358.94-.694.112-.968l.994-.764c.374-.238.584-.224.76-.156.036-.14.064-.278.07-.412zm11.55 6.186c.492.12.876-.296 1.218-.922-.29.26-.572.376-.834.158-.378-.34-.704-.39-.992-.252.33-.204.57-.49.48-1.08-.212-1.004.824-.374.898-.032-.248-1.326-1.39-1.18-1.41-.158-.076.454-.364.556-.802.412-.566-.178-1.074-.25-1.282.222-.442-1.766-1.294-3.264-2.348-4.626-.248.124-.534.242-.84.242-.268 0-.524-.092-.768-.276-.002.258-.054.53-.2.79a.216.216 0 0 1-.188.106.21.21 0 0 1-.184-.1c-.002.016-.012.032-.014.048 1.464 1.136 1.766 2.32 1.498 3.532-.454 1.012-.096 1.766.512 2.442.28.406.34.826.064 1.27-.286.376-.292 1.214.802 1.112-.628-.2-.478-.904.128-1.08.414-.194.59-.48.448-.888.83.322 1.29-.166 1.7-.762.06.37.324.742.64 1.112.67 1.45-.464 1.976-1.122 1.27-.274-.87-.838-.7-.864-.222l.48.728c-1.632-.328-.832.342-.866.668.452.948.972.464 1.508-.348-.506.68-.36.978.288.982.934.124.972-.242.672-.792l.64-.128c.192.352.404.648.93.128.636-.326.158-.604-.096-.89 1.134-.916.472-1.792-.096-2.666zm-8.516-5.944c-.116-.11-.24-.22-.352-.354a1.234 1.234 0 0 1-.358.602.217.217 0 0 1-.232.046.215.215 0 0 1-.138-.192 6.564 6.564 0 0 0-.028-.412c-.036.194-.114.348-.19.504.43.166.958.242 1.638.184a1.072 1.072 0 0 0-.34-.378zm2.97-.922c-.18-.214-.362-.426-.55-.634a.542.542 0 0 0 .014.302c.064.152.254.26.536.332zm-1.644 5.304l1.26-.764a2.76 2.76 0 0 0-.174-1.404c-.398.162-.84.204-1.326.12-1.082-.038-2.144-.022-2.804 1.142-.462.222-.714.65-1.732.318-2.276-.696-1.728 1.896-.384 1.382-.364.106-.972-.264-.464-.81.258-.238.622.048.96.206l.512.35c-.332 1.408 1.08 1.336 1.684 1.302l-.994 1.238c-.614.45-1.258 1.22-1.794.76.296-.814-.2-1.432-.656-.84l-.322.682c-.358-.09-.512.064-.464.46-.37 1.206.244.83.736.652-.04.234-.6.394.29.762 1.174.53.928-.25 1.264-.492-.032.528.066.872.69.476.834.032.756-.322.4-.794l1.796-1.016c-.14.616.414.842.736.476-.716.092-.476-.732-.112-1.046.348.4.646.902 1.362.57-.976-.286-.84-1.08-.4-1.492 1.382-1.174.97-2.382-.064-2.238zm8.748-7.894c-.296-.02-.618-.078-.912-.02-.33.064-.532.23-.538.288.262.014.424.238.562.43.258.356.176.656.176.656-.478-.396-1.31-.092-1.828.04-.354.09-.832.052-1.17-.134-.228.404-.076.81.266 1.12.808.734 1.194 1.828.964 2.72-.178.686-.698 1.176-1.426 1.346-.196.046-.38.064-.556.07-.14-.368-.294-.718-.462-1.058.23.058.492.076.788.008.368-.086.596-.296.68-.62.138-.53-.134-1.24-.666-1.722-.834-.758-.812-1.672-.514-2.274.098-.2.236-.364.386-.508-.07-.79.506-1.61.438-2.062.376-.036.876.536.884.882.246-.404.63-.888.474-1.688.644.962 1.962.626 2.26-.242.498.998.202 1.494-.386 1.642-.156.038-.374.076-.418.244.394.022.886.534.998.882z" fill="#F00"/><path d="M20.264 4.392l1.166.944.338-1.014 1.48.556-2.156 1.47-1.749-1.415-1.748-1.416.99-2.415.851 1.332-.92.542 1.165.944.338-1.014 1.212-.305-.046 1.25-.92.54zM9.805 3.74c-.042-.018-.106-.076-.106-.098a1.25 1.25 0 0 0-.102-.292.564.564 0 0 0-.3-.274.474.474 0 0 0-.184-.032c-.068-.002-.146 0-.174.006-.03.006-.054.01-.056.006-.008-.006.096-.106.156-.15a.78.78 0 0 1 .966.024c.108.09.232.246.256.32.014.048.02.148.008.2-.022.104-.1.2-.208.26a.266.266 0 0 1-.146.038c-.05.004-.09 0-.11-.008zm2.068.14a.623.623 0 0 1-.17-.07c-.084-.058-.14-.152-.14-.236 0-.064.018-.1.074-.144.076-.06.176-.168.222-.242.128-.206.116-.422-.036-.644a.358.358 0 0 1-.04-.066.82.82 0 0 1 .566.446.633.633 0 0 1 .058.332.984.984 0 0 1-.142.454.401.401 0 0 1-.392.17zM8.7 5.77a.735.735 0 0 1-.078-.306c-.02-.41.224-.7.684-.814a.312.312 0 0 1 .146-.01.41.41 0 0 1 .304.23c.06.134.04.29-.046.37-.048.048-.094.06-.16.048a1.232 1.232 0 0 0-.178-.01.647.647 0 0 0-.338.07.608.608 0 0 0-.286.4.342.342 0 0 1-.02.064c-.002.002-.016-.018-.028-.042zm1.136 1.642a.771.771 0 0 1-.576-.462.64.64 0 0 1-.054-.194.447.447 0 0 1 .078.052c.294.214.592.172.888-.126.06-.06.088-.074.146-.074.126 0 .25.116.292.272a.383.383 0 0 1-.21.438 1.016 1.016 0 0 1-.564.094zm-1.752 6.032c-.072-.028-.1-.064-.124-.156a1.082 1.082 0 0 0-.148-.326.554.554 0 0 0-.236-.178.714.714 0 0 0-.378-.026l-.042.006.048-.054a.814.814 0 0 1 .536-.254c.286-.018.536.118.75.41.044.06.068.148.062.232a.4.4 0 0 1-.296.35.231.231 0 0 1-.172-.006v.002zm3.254 1.888c.278-.244.3-.532.066-.876-.048-.07-.056-.088-.056-.126 0-.166.218-.3.424-.262a.391.391 0 0 1 .234.144c.052.062.054.068.076.17.028.136.032.328.006.43a.705.705 0 0 1-.236.386.787.787 0 0 1-.476.19l-.108.004.07-.062v.002zm-3.972.124a.855.855 0 0 1-.046-.488c.076-.334.336-.546.74-.608a.384.384 0 0 1 .442.386c0 .08-.004.098-.026.146a.224.224 0 0 1-.124.122c-.04.016-.046.016-.12-.002a1.355 1.355 0 0 0-.388-.016c-.214.04-.372.196-.448.438l-.014.052-.016-.03zm2.522.872a.746.746 0 0 1-.576-.552c-.038-.152-.028-.414.02-.512a.42.42 0 0 1 .178-.176.442.442 0 0 1 .3-.024c.108.036.19.112.212.192.012.054.008.078-.032.146-.116.198-.158.37-.128.526.024.124.12.264.25.358.036.028.066.052.062.056-.012.014-.208.004-.286-.014zm2.014 4.002c-.048-.028-.052-.034-.104-.142a.818.818 0 0 0-.174-.272.558.558 0 0 0-.204-.134.724.724 0 0 0-.382-.004c-.044.012-.082.024-.088.024-.014 0 .052-.094.11-.152a.826.826 0 0 1 .378-.22.843.843 0 0 1 .36-.006c.154.04.322.142.458.278.09.09.112.142.112.268a.305.305 0 0 1-.026.154.391.391 0 0 1-.316.23c-.066.004-.076.002-.124-.024zm10.04.758a.132.132 0 0 1-.09-.046c-.24-.242-.52-.312-.766-.194a.987.987 0 0 0-.194.136l-.024.026v-.024a.794.794 0 0 1 .408-.602.647.647 0 0 1 .362-.082c.15.002.244.02.394.078a.377.377 0 0 1 .236.292.418.418 0 0 1-.092.318c-.068.08-.146.112-.234.098zm-11.662.358c-.03-.22.092-.52.276-.668a.85.85 0 0 1 .282-.142c.17-.048.452-.036.556.022.12.066.194.18.204.31.014.186-.106.358-.248.358-.038 0-.068-.01-.144-.05-.184-.096-.352-.132-.496-.104-.138.026-.29.136-.394.284l-.03.04-.006-.05zm10.636 1.266a1.031 1.031 0 0 1-.076-.128c-.204-.432-.028-.86.444-1.076a.33.33 0 0 1 .224-.038.392.392 0 0 1 .336.368c.004.096-.012.144-.07.198-.038.038-.038.038-.184.052-.342.036-.542.186-.606.46a.572.572 0 0 0-.014.108c-.002.026-.004.06-.008.076l-.004.032-.042-.052zm4.468.046a.808.808 0 0 0 .122-.294.544.544 0 0 0-.1-.386 1.187 1.187 0 0 0-.21-.216.172.172 0 0 1-.076-.152c0-.178.238-.342.442-.302.07.014.144.05.194.09.062.052.142.21.188.37a.805.805 0 0 1 .004.396.796.796 0 0 1-.512.526c-.092.03-.096.028-.052-.032zm-13.326.336a.833.833 0 0 1-.38-.514.875.875 0 0 1-.002-.28c.03-.154.132-.336.27-.48a.405.405 0 0 1 .362-.102c.212.054.356.274.282.432-.024.05-.03.054-.114.094-.188.086-.326.212-.39.354a.324.324 0 0 0-.04.166.673.673 0 0 0 .042.282.369.369 0 0 1 .02.07c-.004.002-.026-.008-.05-.022zm1.848.09l-.032-.008.068-.048c.288-.206.35-.462.198-.796a1.272 1.272 0 0 0-.056-.11c-.028-.042-.026-.112.004-.166.084-.16.352-.208.53-.094a.527.527 0 0 1 .146.17c.018.042.022.058.022.23 0 .2-.006.236-.054.36-.106.27-.376.452-.694.466a.788.788 0 0 1-.132-.004zm9.434.322a.776.776 0 0 1-.606-.562c-.042-.17-.004-.478.076-.61a.447.447 0 0 1 .204-.154.334.334 0 0 1 .152-.016.355.355 0 0 1 .222.08.235.235 0 0 1 .108.196c0 .056-.002.06-.056.13-.142.176-.206.32-.206.472-.002.142.056.268.176.4l.074.08-.036-.002c-.02-.002-.068-.006-.108-.014z" fill="#FDDF00"/></g><g transform="translate(14 9)" mask="url(#b)"><mask id="d" fill="#fff"><use xlink:href="#c"/></mask><use fill="#FDDF00" xlink:href="#c"/><path d="M-3 1H9.8v1H-3V1zm0 2H9.8v1H-3V3zm0 2H9.8v1H-3V5zm0 2H9.8v1H-3V7zm0 2H9.8v1H-3V9z" fill="#F00" mask="url(#d)"/></g></g></svg>