<svg width="36" height="26" viewBox="0 0 36 26" xmlns="http://www.w3.org/2000/svg"><title>BE-VLG</title><g fill="none" fill-rule="evenodd"><path d="M32 26.167H4a4 4 0 0 1-4-4V4a4 4 0 0 1 4-4h28a4 4 0 0 1 4 4v18.167a4 4 0 0 1-4 4" fill="#FDDF00"/><path d="M27.161 5.921h-.013c-.08 0-.148.077-.174.152-.14.407-.56.7-1.022.7-.358 0-.673-.172-.886-.49a.199.199 0 0 0-.24-.07.2.2 0 0 0-.12.223c.102.517-.05.885-.231 1.199-.2-.33-.563-.63-.896-.63l-.054.002a.199.199 0 0 0-.137.076.192.192 0 0 0-.04.151c.023.153-.07.416-.17.693-.136.384-.29.815-.275 1.262a1.95 1.95 0 0 0-.362.497c-.33.666-.357 1.677.56 2.51.47.428.726 1.069.608 1.525-.066.251-.24.407-.535.477a1.58 1.58 0 0 1-.347.04c-.77 0-1.245-.617-1.265-.644a.704.704 0 0 0-.977-.152.703.703 0 0 0-.157.98c.078.107.794 1.048 2.043 1.201a2.83 2.83 0 0 0 1.023-.06c.803-.187 1.376-.73 1.573-1.49.25-.96-.16-2.132-1.021-2.916-.152-.137-.367-.396-.293-.707.199.074.428.113.663.113.156 0 .312-.018.449-.053l.209-.056c.295-.082.63-.173.935-.173.22 0 .386.048.51.15a.198.198 0 0 0 .316-.1c.011-.04.1-.404-.205-.825-.084-.116-.185-.256-.32-.36a1.117 1.117 0 0 1 .42-.068c.13 0 .263.07.393.083.075.007.149.076.22.076h.014c.06 0 .118-.086.157-.134a.265.265 0 0 0 .032-.212c-.09-.275-.386-.674-.736-.883.366-.098.598-.286.715-.541.161-.353.1-.843-.186-1.414-.034-.068-.102-.132-.178-.132" fill="#FDDF00"/><path d="M26.469 9.622c-.14-.191-.302-.416-.564-.429.008-.06.21-.225.538-.29.296-.056.617 0 .913.02-.112-.347-.604-.86-.999-.88.046-.169.262-.206.42-.245.586-.148.882-.643.385-1.642-.299.867-1.616 1.203-2.26.243.157.8-.228 1.284-.475 1.688-.006-.347-.507-.918-.883-.882.069.45-.508 1.272-.437 2.062a1.79 1.79 0 0 0-.387.507c-.299.602-.32 1.516.515 2.275.53.482.803 1.19.665 1.722-.084.324-.313.533-.68.619-1.096.254-1.779-.628-1.817-.676a.502.502 0 0 0-.701-.112.505.505 0 0 0-.113.704c.035.049.722.975 1.906 1.12.29.036.608.025.954-.056.729-.17 1.248-.66 1.426-1.346.231-.892-.156-1.985-.963-2.72-.341-.31-.494-.716-.266-1.12.338.187.816.224 1.17.134.518-.132 1.35-.435 1.829-.04 0 0 .081-.3-.176-.656" fill="#000"/><path d="M20.114 14.203a.218.218 0 0 0-.126.04 1.896 1.896 0 0 1-1.135.353c-.144 0-.294-.014-.449-.04a10.355 10.355 0 0 0-.498-.013c-.927 0-1.868.148-2.498 1.205-.083.043-.16.093-.238.142-.206.131-.384.244-.678.244-.17 0-.363-.036-.592-.11a2.68 2.68 0 0 0-.767-.13c-.591 0-.849.291-.95.466-.17.295-.157.683.033 1.012.19.33.52.526.885.526.14 0 .282-.028.425-.083a.218.218 0 0 0-.14-.412.293.293 0 0 1-.073.009c-.125 0-.257-.069-.295-.155-.044-.102.059-.235.125-.306a.113.113 0 0 1 .074-.022c.11 0 .27.086.427.17.07.038.139.074.207.107l.364.25c-.066.398-.003.723.189.966.24.303.657.456 1.271.469l-.68.848c-.123.091-.247.195-.372.298-.323.268-.657.546-.91.546a.275.275 0 0 1-.104-.019c.093-.367.055-.723-.11-.957a.525.525 0 0 0-.433-.241c-.135 0-.34.055-.543.32l-.275.574a.782.782 0 0 0-.051-.002.485.485 0 0 0-.38.157c-.108.12-.15.293-.129.525-.141.475-.145.754-.016.928.054.073.157.16.34.16a.804.804 0 0 0 .206-.03c0 .026.004.051.01.078.047.188.234.337.624.5.292.132.53.197.72.197a.577.577 0 0 0 .502-.248.427.427 0 0 0 .385.222c.14 0 .297-.054.491-.17h.042c.143 0 .578 0 .725-.294.103-.205.017-.437-.112-.646l1.262-.714a.675.675 0 0 0 .128.271.6.6 0 0 0 .468.225c.196 0 .38-.089.523-.25a.217.217 0 1 0-.164-.361h-.027a.652.652 0 0 1-.076.006c-.112 0-.125-.036-.132-.051-.034-.093.018-.285.122-.449.23.275.5.56.933.56.164 0 .336-.041.521-.128a.218.218 0 0 0-.03-.407c-.224-.066-.504-.2-.565-.461-.05-.208.052-.475.253-.662.913-.775 1.059-1.551.888-2.016a.898.898 0 0 0-.466-.512l1.048-.636a.22.22 0 0 0 .105-.196l-.064-1.445a.219.219 0 0 0-.218-.208" fill="#FDDF00"/><path d="M20.114 14.421c-.497.35-1.08.464-1.747.35-1.08-.038-2.143-.023-2.804 1.142-.46.221-.713.65-1.73.318-2.276-.696-1.728 1.895-.385 1.381-.364.107-.973-.264-.464-.81.258-.238.622.047.96.207l.513.349c-.333 1.41 1.079 1.337 1.683 1.302l-.993 1.238c-.616.45-1.26 1.221-1.795.761.296-.815-.2-1.432-.657-.84l-.32.682c-.358-.09-.513.063-.466.46-.37 1.206.246.829.738.651-.04.234-.6.394.288.763 1.175.53.93-.25 1.266-.493-.032.528.065.872.69.476.833.033.754-.322.4-.793l1.794-1.016c-.139.615.415.842.738.476-.717.09-.477-.733-.113-1.048.348.402.645.903 1.363.572-.976-.288-.84-1.081-.402-1.492 1.383-1.174.97-2.382-.064-2.238l1.57-.953-.063-1.445z" fill="#000"/><path d="M11.093 3.003a1.31 1.31 0 0 0-.46.107.216.216 0 0 0-.052.029c-.399.3-.581.545-.592.793a.523.523 0 0 0 .085.31.398.398 0 0 0-.27.151c-.131.167-.14.434-.025.892.054.499.235.766.534.766.129 0 .262-.055.406-.171l.059.095a.398.398 0 0 0-.269.175c-.122.19-.085.47.125.937.166.395.385.804.733.804.182 0 .324-.113.433-.257l.468.75c.193.38.115.496-.004.671l-.032.049a.214.214 0 0 0-.03.166.216.216 0 0 0 .098.138.653.653 0 0 0 .318.106.22.22 0 0 0 .05.204c.63.679 1.211.822 1.588.822.391 0 .753-.157.992-.43a.989.989 0 0 0 .253-.773.213.213 0 0 0-.02-.065c-.387-.814-.766-1.608-1.794-2.341-.156-.191-.415-.396-.664-.594-.686-.54-1.092-.906-.749-1.495.07-.046.154-.086.238-.127.249-.122.532-.259.581-.55.048-.28-.163-.53-.327-.694-.196-.2-.403-.302-.614-.302-.221 0-.414.109-.587.275a.517.517 0 0 0-.126-.304.453.453 0 0 0-.346-.137" fill="#FDDF00"/><path d="M15.284 9.365c-.368-.771-.723-1.543-1.724-2.257-.653-.761-2.148-1.302-1.45-2.418.371-.274 1.198-.365.503-1.066-.513-.52-.901-.102-1.273.441-.046-.395.252-1.096-.628-.752-.93.7-.342.885-.095 1.187-.311.058-.909-.403-.626.732.073.657.317.8.773.306l.412.665c-.373-.05-.75-.108-.343.795.29.688.598.997.96.212l.66 1.059c.28.549.103.738-.038.953.318.2.49-.05.685-.23.024.218.034.435-.27.578 1.29 1.393 2.555.563 2.454-.205z" fill="#000"/><path d="M14.38 9.622a.896.896 0 0 0-.211.025.27.27 0 0 0-.062.025c-.775.468-1.533.924-2.16 2.015-.175.173-.352.45-.525.716-.325.505-.63.982-1.069.982a.91.91 0 0 1-.359-.086c-.054-.064-.103-.142-.152-.22-.146-.23-.329-.516-.64-.516-.207 0-.407.125-.63.395-.198.235-.275.47-.231.696.037.193.159.353.325.492a.478.478 0 0 0-.334.221c-.134.232-.006.532.103.736a.215.215 0 0 0 .034.049c.33.346.584.5.825.5.138 0 .246-.05.336-.121a.418.418 0 0 0 .098.188c.084.09.204.136.358.136s.356-.045.618-.14c.256-.054.64-.172.705-.481.043-.201-.077-.38-.206-.51l.091-.068a.43.43 0 0 0 .1.172c.054.055.15.12.306.12.175 0 .405-.083.721-.265.376-.203.762-.46.731-.802-.015-.184-.144-.313-.302-.407l.701-.537c.161-.103.302-.158.414-.158.093 0 .17.04.266.09l.05.026a.218.218 0 0 0 .295-.098c.06-.123.08-.23.074-.326l.015.002a.221.221 0 0 0 .182-.072c.886-.995.677-1.78.545-2.072-.192-.43-.59-.707-1.012-.707" fill="#FDDF00"/><path d="M14.22 9.859c-.735.443-1.474.874-2.084 1.936-.695.724-1.08 2.254-2.274 1.683-.314-.336-.493-1.14-1.122-.38-.469.558-.008.897.577 1.205-.393.087-1.128-.133-.69.698.8.843.925.244 1.202-.03.091.3-.308.937.802.539.65-.143.768-.398.224-.794l.625-.476c-.013.371-.03.75.833.254.66-.358.938-.694.112-.968l.993-.763c.522-.333.73-.18.962-.063.166-.335-.103-.478-.304-.65.217-.047.433-.08.608.206 1.263-1.42.296-2.577-.464-2.397z" fill="#000"/><path d="M22.482 19.62c.486 0 .836-.269 1.127-.62.134.276.334.536.53.768.196.44.226.821.08 1.05a.416.416 0 0 1-.363.195.683.683 0 0 1-.462-.21c-.22-.646-.58-.718-.727-.718-.297 0-.528.252-.548.6a.214.214 0 0 0 .037.132l.207.317a2.26 2.26 0 0 0-.23-.013c-.162 0-.388.02-.505.196l-.015.027a.197.197 0 0 0 .011-.052.218.218 0 0 0-.15-.231c-.095-.03-.254-.106-.252-.272.002-.136.12-.317.374-.39.49-.23.636-.535.651-.8.08.015.158.022.235.022m-3.029-9.238a.215.215 0 0 0-.026.002l-5.031.604a.219.219 0 0 0-.172.122.219.219 0 0 0 .014.21c.532.841 1.244 1.739 2.94 1.739.327 0 .686-.033 1.07-.1 1.367.995 1.866 2.09 1.569 3.436-.54 1.196.062 2.08.564 2.638.233.34.252.667.04 1.009-.167.218-.284.631-.11.981.087.176.323.471.923.471.06 0 .126-.003.193-.01a.218.218 0 0 0 .168-.105c-.07.17.01.355.074.505a.774.774 0 0 1 .067.188.293.293 0 0 0 .02.115c.206.435.453.646.752.646.162 0 .32-.063.49-.197v.001c.115.206.36.306.748.31.106.015.223.023.324.023.337 0 .554-.09.665-.278.109-.182.074-.4 0-.598l.215-.043c.11.178.28.383.551.383.194 0 .392-.102.62-.322.241-.13.373-.28.4-.455.037-.249-.142-.436-.31-.6.898-.866.45-1.737-.018-2.47.471-.128.8-.632 1.014-1.024a.218.218 0 0 0-.336-.268c-.162.144-.295.218-.396.218-.033 0-.085-.006-.152-.064a1.487 1.487 0 0 0-.566-.336c.119-.204.186-.48.129-.862-.05-.237-.012-.3-.012-.3.164.007.456.246.48.346a.22.22 0 0 0 .258.166.216.216 0 0 0 .17-.252c-.157-.839-.64-1.136-1.008-1.136-.404 0-.82.348-.834 1.013-.045.26-.178.26-.258.26a.843.843 0 0 1-.257-.05c-.324-.101-.558-.147-.76-.147a.898.898 0 0 0-.487.126c-.737-2.533-2.281-4.435-3.566-5.824a.215.215 0 0 0-.159-.071" fill="#FDDF00"/><path d="M14.422 11.205c.672 1.06 1.522 1.964 3.877 1.524 1.679 1.19 2.013 2.439 1.73 3.714-.452 1.013-.094 1.768.514 2.444.278.405.34.825.064 1.27-.287.375-.292 1.213.801 1.112-.628-.201-.477-.905.128-1.08.414-.195.59-.482.449-.888.83.321 1.289-.166 1.699-.763.06.371.325.742.64 1.112.67 1.45-.463 1.976-1.121 1.27-.274-.87-.839-.7-.865-.222l.48.73c-1.631-.33-.832.34-.865.667.45.947.97.464 1.506-.35-.505.681-.36.98.289.984.934.124.971-.243.672-.793l.64-.128c.192.353.404.648.93.128.637-.327.158-.603-.096-.89 1.134-.916.471-1.79-.096-2.666.493.12.877-.296 1.218-.92-.29.259-.572.375-.833.157-.38-.34-.704-.39-.994-.253.332-.203.57-.49.48-1.08-.21-1.003.824-.373.898-.032-.247-1.325-1.389-1.179-1.41-.158-.075.453-.364.556-.801.412-.566-.179-1.073-.25-1.281.223-.611-2.436-1.993-4.364-3.622-6.128l-5.031.604z" fill="#000"/><path d="M16.682 8.064a.214.214 0 0 0 .06-.148c.003-.106.024-.137.024-.137a.572.572 0 0 0 .327-.22l.43.243a.357.357 0 0 1-.061.237.462.462 0 0 1-.37.22.383.383 0 0 1-.26-.113 1.873 1.873 0 0 0-.15-.082zm-.311-1.817a.214.214 0 0 0 .076-.104l.059-.168c.24.025.403.083.478.17.084.095.077.258.058.447l-.401-.067-.096-.168a.22.22 0 0 0-.174-.11zm4.189-3.212c-.191 0-.459.104-.861.335l-2.468-.108h-.009a.186.186 0 0 0-.055.008 1.465 1.465 0 0 0-.07-.003c-.487 0-.803.222-.869.602l-.62.361a1.137 1.137 0 0 0-.135-.008c-.357 0-.61.146-.65.372-.013.08-.01.255.223.393a.804.804 0 0 0 .117.538c.146.226.406.376.795.46l.088.181a.216.216 0 0 0 .18.123.215.215 0 0 0-.086.14l-.029.177-.19.106a.214.214 0 0 0-.11.155.215.215 0 0 0 .055.183l.179.195.008.087c.012.178.026.393.195.606-.033-.002-.065-.004-.098-.004-.3 0-.59.12-.857.353a.667.667 0 0 1-.339.113c-.17 0-.267-.108-.273-.21-.007-.124.128-.215.353-.24a.217.217 0 0 0 .134-.367c-.247-.257-.497-.31-.664-.311-.333 0-.652.22-.811.56a1.06 1.06 0 0 0-.042.802c-.45.041-.748.214-.889.513-.546.196-.916.489-1.1.871-.193.401-.18.898.036 1.476a.22.22 0 0 0 .201.141h.003a.218.218 0 0 0 .202-.136c.348-.852.824-1.25 1.497-1.25.039 0 .078.002.117.005-.154.37.094.823.289 1.177l.075.137c.272.407.166.799.042 1.253a10.6 10.6 0 0 0-.08.31.22.22 0 0 0 .214.266.216.216 0 0 0 .133-.046l.116-.088c.227-.17.47-.351.616-.675.006.155 0 .315-.01.483a.22.22 0 0 0 .218.231.21.21 0 0 0 .114-.033c.39-.239.633-.622.728-1.143.016.132.023.27.03.412a.216.216 0 0 0 .218.208.21.21 0 0 0 .151-.062c.163-.158.29-.338.357-.602.113.134.237.245.354.353.49.367.45.637.397 1.01-.016.103-.03.207-.035.312a.215.215 0 0 0 .125.206.216.216 0 0 0 .239-.035c.306-.277.463-.653.537-1.064a.215.215 0 0 0 .185.1.213.213 0 0 0 .186-.106 1.6 1.6 0 0 0 .202-.79c.244.185.498.276.768.276.384 0 .74-.187 1.025-.337a.219.219 0 0 0 .112-.24.217.217 0 0 0-.202-.17c-.624-.032-1.006-.175-1.107-.414-.173-.413.407-1.172.772-1.601.382.493.897.756 1.532.782a.219.219 0 0 0 .208-.125.22.22 0 0 0-.037-.238c-.562-.617-.71-1.078-.493-1.539.553-.74.643-1.439.259-2.061.232-.083.418-.285.56-.611a.217.217 0 0 0-.151-.3 2.704 2.704 0 0 0-.273-.043c-.342-.041-.496-.072-.573-.384-.152-.425-.341-.835-.71-1.112.122-.308.19-.574.07-.758a.362.362 0 0 0-.32-.158z" fill="#FDDF00"/><path d="M17.216 3.49c-.463-.035-.771.128-.782.51l-.782.455c-.535-.086-.873.227-.362.404-.125.483.108.812.815.932l.136.28.114-.325c1.12.046.912.608.884 1.1l-.737-.123-.147-.259-.045.281-.283.157.226.248c.04.254-.02.508.272.762.003-.183.053-.29.147-.325.276-.091.272-.217.318-.337l.714.405c.217.473-.49 1.143-1.02.65-.286-.164-.746-.293-1.246.147-.908.6-1.436-.61-.428-.718-.706-.737-1.617.36-.992 1.111-.549-.023-.964.083-1.09.476-1.136.368-1.4 1.099-1.026 2.096.413-1.01 1.077-1.592 2.244-1.318-.51.313-.15.85.128 1.365.383.572.114 1.143-.017 1.715.436-.34.943-.578.738-1.842.352.583.371 1.164.336 1.747.553-.34.752-1.016.64-1.984.38.381.426.9.45 1.428.235-.229.427-.535.304-1.413.079.58.39.871.706 1.159.721.539.453 1.006.432 1.493.497-.45.553-1.214.513-2.048.373.422.361.726.352 1.03.227-.397.2-.842.096-1.3.74.99 1.365.692 1.988.365-2.393-.122-1.002-1.799-.305-2.588.328.54.802.89 1.521.921-.506-.556-.83-1.133-.528-1.778.666-.898.573-1.59.032-2.159.285.05.56.004.785-.508-.388-.087-.862.01-1.01-.587-.158-.44-.356-.85-.768-1.08.265-.625.42-1.15-.785-.444l-2.532-.11-.006.009z" fill="#000"/><path d="M13.57 5.131c-.1.11-.144.273-.127.486.29.944 1.179 1.065 2.012 1.065.203 0 .41-.007.62-.015.203-.006.406-.013.603-.013.156 0 .307.005.453.017h.019a.22.22 0 0 0 .217-.232l-.012-.168a.218.218 0 0 0-.207-.204 6.097 6.097 0 0 0-.25-.005c-.212 0-.437.01-.662.019-.22.01-.44.018-.645.018-.521 0-.823-.066-.898-.198a1 1 0 0 0-.3-.647c-.232-.235-.597-.366-.822-.123" fill="#FDDF00"/><path d="M17.138 6.285c-.988-.044-2.462.241-2.662-.337.006-.601-.875-1.104-.816-.348.39 1.247 2.187.743 3.49.853l-.012-.168zm-6.762-2.553c-.042-.017-.105-.076-.105-.098 0-.038-.066-.221-.104-.292a.561.561 0 0 0-.3-.274.464.464 0 0 0-.184-.03 1.092 1.092 0 0 0-.23.011.726.726 0 0 1 .157-.151.78.78 0 0 1 .966.025c.107.09.232.246.255.32.016.047.02.148.009.199a.407.407 0 0 1-.208.26.268.268 0 0 1-.146.04.297.297 0 0 1-.11-.01zm2.068.14a.61.61 0 0 1-.17-.07c-.083-.057-.14-.152-.14-.235 0-.064.018-.1.073-.144.077-.06.177-.17.222-.242.128-.206.116-.422-.036-.646a.5.5 0 0 1-.04-.064.809.809 0 0 1 .566.444.631.631 0 0 1 .058.334.992.992 0 0 1-.141.452.404.404 0 0 1-.392.172zm-3.175 1.89a.749.749 0 0 1-.077-.306c-.02-.41.224-.7.684-.813a.294.294 0 0 1 .146-.01.41.41 0 0 1 .304.229c.06.135.04.29-.046.371a.162.162 0 0 1-.16.048 1.487 1.487 0 0 0-.179-.011.645.645 0 0 0-.338.07.616.616 0 0 0-.286.4.427.427 0 0 1-.019.065c-.002.002-.015-.018-.029-.043zm1.137 1.643a.775.775 0 0 1-.576-.462.678.678 0 0 1-.054-.195.517.517 0 0 1 .078.053c.293.214.591.172.889-.126.06-.061.086-.074.144-.074.126 0 .251.116.292.271a.382.382 0 0 1-.209.438 1.031 1.031 0 0 1-.564.095zm-1.752 6.03c-.072-.027-.1-.064-.124-.155a1.063 1.063 0 0 0-.15-.326.556.556 0 0 0-.234-.178.726.726 0 0 0-.378-.026l-.042.006.048-.053a.807.807 0 0 1 .536-.254c.286-.02.535.117.75.408a.367.367 0 0 1 .061.233.397.397 0 0 1-.296.35.229.229 0 0 1-.171-.006v.002zm3.254 1.89c.278-.244.3-.533.066-.876-.049-.07-.056-.088-.056-.126 0-.166.218-.3.424-.262a.39.39 0 0 1 .233.143c.052.062.054.068.076.17.03.137.032.33.007.43a.716.716 0 0 1-.235.387.798.798 0 0 1-.478.189l-.108.005.07-.062v.001zm-3.973.124a.862.862 0 0 1-.045-.49c.076-.332.335-.545.74-.606a.384.384 0 0 1 .414.23.308.308 0 0 1 .027.156c0 .08-.003.098-.025.144a.223.223 0 0 1-.125.123c-.04.017-.046.017-.12-.001a1.34 1.34 0 0 0-.388-.017c-.214.041-.372.196-.447.44l-.015.051-.016-.03zm2.524.871a.745.745 0 0 1-.577-.551c-.038-.153-.028-.415.02-.513a.415.415 0 0 1 .177-.175.446.446 0 0 1 .301-.024c.108.035.19.11.211.192.013.053.008.078-.032.146-.115.197-.157.37-.127.525.023.125.12.264.249.358.037.028.066.053.063.057-.012.013-.208.003-.285-.015zm2.013 4.002c-.048-.027-.053-.034-.104-.142a.83.83 0 0 0-.174-.272.528.528 0 0 0-.205-.133.705.705 0 0 0-.38-.004c-.045.012-.084.023-.09.023-.014 0 .053-.094.11-.151a.832.832 0 0 1 .38-.221.827.827 0 0 1 .36-.005c.153.04.321.142.457.278.09.09.112.142.112.268 0 .082-.004.1-.027.153a.389.389 0 0 1-.315.23c-.066.005-.077.003-.124-.024zm10.04.759a.133.133 0 0 1-.09-.047c-.24-.242-.52-.313-.766-.193a.917.917 0 0 0-.193.136l-.026.026v-.025a.792.792 0 0 1 .409-.601.635.635 0 0 1 .363-.082c.149 0 .243.02.392.078a.376.376 0 0 1 .237.29.417.417 0 0 1-.092.32c-.069.079-.146.11-.235.098zm-11.663.358c-.03-.221.093-.52.276-.668a.863.863 0 0 1 .283-.142c.17-.048.452-.037.556.02.12.067.194.18.204.312.014.185-.106.358-.248.358-.038 0-.068-.01-.145-.05-.182-.097-.352-.132-.496-.104-.137.025-.29.134-.394.283l-.029.04-.007-.05zm10.637 1.265a.835.835 0 0 1-.076-.128c-.205-.431-.028-.86.443-1.075.096-.045.138-.051.225-.038a.39.39 0 0 1 .3.219.3.3 0 0 1 .035.148c.006.096-.01.144-.068.199-.04.036-.04.036-.185.052-.343.035-.542.186-.606.459a.749.749 0 0 0-.015.108.653.653 0 0 1-.007.077l-.005.031-.041-.052zm4.467.046a.803.803 0 0 0 .122-.293.54.54 0 0 0-.1-.387 1.204 1.204 0 0 0-.21-.216.17.17 0 0 1-.076-.151c0-.178.239-.342.443-.302a.465.465 0 0 1 .194.09c.062.052.142.21.188.369a.818.818 0 0 1 .004.397.797.797 0 0 1-.513.525c-.092.03-.095.028-.052-.032zm-13.325.336a.834.834 0 0 1-.381-.514.94.94 0 0 1-.001-.279 1.04 1.04 0 0 1 .27-.48.404.404 0 0 1 .36-.102c.214.054.357.273.283.43-.023.05-.029.056-.113.095-.188.087-.327.213-.391.354a.35.35 0 0 0-.04.167.67.67 0 0 0 .042.281.274.274 0 0 1 .02.07.17.17 0 0 1-.05-.022h.001zm1.848.09l-.033-.008.07-.048c.286-.205.349-.462.196-.796a1.333 1.333 0 0 0-.056-.11c-.026-.042-.025-.111.004-.166.086-.16.352-.207.53-.093.05.03.118.11.146.169.02.042.022.057.022.231.001.2-.005.235-.054.36-.105.27-.376.451-.693.465a.733.733 0 0 1-.132-.004zm9.434.322a.777.777 0 0 1-.607-.562c-.042-.17-.003-.477.077-.61a.433.433 0 0 1 .204-.153.333.333 0 0 1 .152-.017.366.366 0 0 1 .222.08c.072.053.109.119.109.196 0 .057-.003.06-.058.13-.141.175-.204.32-.204.473-.003.141.055.267.174.399l.074.08-.035-.002a.986.986 0 0 1-.108-.014z" fill="#FC0000"/><path d="M16.759 3.992s.78.045.907.572l-.907.064s-.17-.26 0-.636" fill="#FDDF00"/></g></svg>