<svg width="36" height="26" viewBox="0 0 36 26" xmlns="http://www.w3.org/2000/svg" xmlns:xlink="http://www.w3.org/1999/xlink"><title>BE-VAN</title><defs><rect id="a" width="36" height="26" rx="4"/></defs><g fill="none" fill-rule="evenodd"><mask id="b" fill="#fff"><use xlink:href="#a"/></mask><use fill="#D8D8D8" xlink:href="#a"/><path fill="#F00" mask="url(#b)" d="M0 0h6v7H0z"/><path fill="#FDDF00" mask="url(#b)" d="M0 7h6v6H0z"/><path fill="#F3F3F3" mask="url(#b)" d="M6 0h6v7H6z"/><path fill="#F00" mask="url(#b)" d="M6 7h6v6H6zm6-7h6v7h-6z"/><path fill="#F3F3F3" mask="url(#b)" d="M12 7h6v6h-6z"/><path fill="#FDDF00" mask="url(#b)" d="M18 0h6v7h-6z"/><path fill="#F00" mask="url(#b)" d="M18 7h6v6h-6z"/><path fill="#0014FF" mask="url(#b)" d="M24 0h6v7h-6z"/><path fill="#FDDF00" mask="url(#b)" d="M24 7h6v6h-6z"/><path fill="#F3F3F3" mask="url(#b)" d="M30 0h6v7h-6z"/><path fill="#0014FF" mask="url(#b)" d="M30 7h6v6h-6zM0 13h6v6H0z"/><path fill="#FDDF00" mask="url(#b)" d="M6 13h6v6H6z"/><path fill="#F00" mask="url(#b)" d="M12 13h6v6h-6z"/><path fill="#F3F3F3" mask="url(#b)" d="M18 13h6v6h-6z"/><path fill="#F00" mask="url(#b)" d="M24 13h6v6h-6z"/><path fill="#FDDF00" mask="url(#b)" d="M30 13h6v6h-6z"/><path fill="#F3F3F3" mask="url(#b)" d="M0 19h6v7H0z"/><path fill="#0014FF" mask="url(#b)" d="M6 19h6v7H6z"/><path fill="#FDDF00" mask="url(#b)" d="M12 19h6v7h-6z"/><path fill="#F00" mask="url(#b)" d="M18 19h6v7h-6z"/><path fill="#F3F3F3" mask="url(#b)" d="M24 19h6v7h-6z"/><path fill="#F00" mask="url(#b)" d="M30 19h6v7h-6z"/></g></svg>