<svg width="36" height="26" viewBox="0 0 36 26" xmlns="http://www.w3.org/2000/svg"><title>BE-WHT</title><g fill="none" fill-rule="evenodd"><rect fill="#FDDF00" width="36" height="26" rx="4"/><path d="M8.784 3.146c-.494-.022-1.231.12-1.331-.169.003-.3-.437-.552-.408-.174.195.624 1.094.372 1.745.427l-.006-.084z" fill="#F00"/><path d="M9.048 2.286C8.984 2.022 8.594 2 8.594 2c-.084.188 0 .318 0 .318l.454-.032zm1.933.823c.27.284.317.63-.016 1.079-.151.323.01.61.264.889-.36-.015-.597-.19-.761-.46-.348.395-1.044 1.233.153 1.294-.311.163-.624.313-.994-.183.052.229.065.452-.048.65.004-.152.01-.304-.176-.515.02.417-.008.799-.257 1.024.01-.243.145-.477-.216-.746-.157-.144-.313-.29-.352-.58.06.439-.035.592-.153.707-.011-.264-.034-.524-.224-.714.056.484-.044.82-.321.992.018-.292.009-.582-.168-.873.103.63-.151.75-.368.92.065-.286.2-.571.008-.857-.14-.257-.32-.526-.064-.682-.584-.137-.915.153-1.122.658-.187-.498-.055-.863.513-1.047.063-.197.27-.25.545-.24-.312-.374.143-.923.496-.554-.504.054-.24.659.214.359.25-.22.48-.156.623-.073.265.246.619-.09.51-.326l-.357-.202c-.023.06-.021.123-.16.168-.046.018-.071.07-.072.163-.147-.127-.116-.254-.136-.381l-.114-.124.142-.08.023-.14.073.13.369.062c.014-.246.117-.527-.442-.55l-.057.163-.068-.141c-.354-.06-.471-.224-.408-.465-.255-.09-.086-.246.18-.203l.392-.227c.005-.191.16-.273.39-.255l.004-.005 1.266.055c.602-.352.525-.09.392.222.206.116.305.32.385.54.073.299.31.25.504.294-.112.256-.25.279-.392.254zm-4.87.5l.33.529c.14.275.052.369-.02.477.02.012.034.01.05.017.04-.02.08-.038.125-.055.07-.15.22-.235.444-.256a.515.515 0 0 1 .172-.587 2.544 2.544 0 0 0-.217-.176c-.327-.381-1.074-.651-.725-1.21.186-.136.599-.182.25-.532-.255-.26-.45-.051-.635.22-.023-.197.126-.548-.314-.376-.465.35-.171.443-.048.594-.155.029-.454-.201-.313.366.037.328.159.4.387.153l.206.332c-.186-.025-.375-.054-.171.398.144.344.299.498.479.106zM7.339 6.1l-.086-.073c.027-.005.053-.011.08-.013a.477.477 0 0 0-.077-.227l-.038-.07c-.097-.176-.221-.402-.144-.587l-.058-.003h-.003c-.26.176-.512.393-.73.773-.348.362-.54 1.127-1.137.842-.157-.168-.247-.57-.561-.191-.234.28-.004.449.288.603-.196.044-.563-.066-.345.35.4.42.463.12.602-.016.045.15-.154.469.4.27.326-.072.384-.2.113-.397l.312-.238c-.006.185-.015.374.416.127.33-.18.47-.347.056-.484l.497-.382c.187-.12.292-.112.38-.078.018-.07.032-.14.035-.206zm5.775 3.093c.246.06.438-.148.609-.461-.145.13-.286.188-.417.079-.19-.17-.352-.195-.496-.126.165-.102.285-.245.24-.54-.106-.502.412-.187.449-.016-.124-.663-.695-.59-.705-.08-.038.228-.182.279-.401.207-.283-.09-.537-.125-.641.11-.221-.882-.647-1.631-1.174-2.312a.954.954 0 0 1-.42.12.629.629 0 0 1-.384-.137.808.808 0 0 1-.1.395.108.108 0 0 1-.094.053.105.105 0 0 1-.092-.05c-.001.008-.006.016-.007.024.732.568.883 1.16.749 1.766-.227.506-.048.883.256 1.22.14.204.17.414.032.636-.143.188-.146.607.4.556-.313-.1-.238-.452.065-.54.207-.097.295-.24.224-.444.415.16.645-.083.85-.381.03.185.162.37.32.556.335.725-.232.988-.561.635-.137-.435-.42-.35-.432-.111l.24.364c-.816-.164-.416.17-.433.334.226.474.486.232.754-.174-.253.34-.18.489.144.49.467.063.486-.12.336-.395l.32-.064c.096.176.202.324.465.064.318-.163.079-.302-.048-.445.567-.458.236-.896-.048-1.333zM8.856 6.222c-.058-.055-.12-.11-.176-.177a.617.617 0 0 1-.18.3.108.108 0 0 1-.115.024.108.108 0 0 1-.07-.096 3.282 3.282 0 0 0-.013-.206c-.018.097-.057.174-.095.252.215.083.479.12.819.092a.536.536 0 0 0-.17-.19zm1.485-.461c-.09-.107-.181-.213-.275-.317a.271.271 0 0 0 .007.15c.032.077.127.13.268.167zm-.822 2.652l.63-.382a1.38 1.38 0 0 0-.087-.702 1.19 1.19 0 0 1-.663.06c-.541-.02-1.072-.011-1.402.57-.231.112-.357.326-.866.16-1.138-.348-.864.948-.192.69-.182.054-.486-.131-.232-.404.129-.12.31.024.48.103l.256.175c-.166.704.54.668.842.65l-.497.62c-.307.225-.63.61-.897.38.148-.407-.1-.716-.328-.42l-.161.34c-.18-.044-.256.033-.232.23-.185.604.122.416.368.327-.02.117-.3.197.145.38.587.266.464-.124.632-.245-.016.264.033.436.345.238.417.016.378-.161.2-.397l.898-.508c-.07.308.207.42.368.238-.358.046-.238-.366-.056-.523.174.2.323.45.68.285-.487-.143-.42-.54-.2-.746.692-.587.486-1.191-.031-1.12zm4.374-3.947c-.148-.01-.31-.04-.456-.01-.165.032-.266.115-.27.144.132.007.213.119.282.215.129.178.088.328.088.328-.24-.198-.655-.046-.914.02a.863.863 0 0 1-.585-.067c-.114.202-.038.405.133.56.404.367.597.914.482 1.36-.09.343-.35.588-.713.673a1.41 1.41 0 0 1-.278.035 6.029 6.029 0 0 0-.231-.53.826.826 0 0 0 .394.005c.184-.043.298-.148.34-.31.069-.265-.067-.62-.333-.861-.417-.38-.406-.836-.257-1.137a.908.908 0 0 1 .193-.254c-.035-.395.253-.805.219-1.031.188-.018.438.268.442.44.123-.201.315-.443.237-.843.322.48.98.313 1.13-.121.249.499.1.747-.193.82-.078.02-.187.039-.21.123.198.01.444.267.5.44z" fill="#000"/><path d="M5.403 1.87c-.021-.009-.053-.038-.053-.049a.625.625 0 0 0-.051-.146.282.282 0 0 0-.15-.137.237.237 0 0 0-.092-.016.524.524 0 0 0-.115.006.37.37 0 0 1 .078-.075.39.39 0 0 1 .483.012.502.502 0 0 1 .128.16c.007.024.01.074.004.1a.204.204 0 0 1-.104.13.133.133 0 0 1-.073.019.14.14 0 0 1-.055-.004zm1.034.07a.312.312 0 0 1-.085-.035c-.042-.029-.07-.076-.07-.118 0-.032.009-.05.037-.072a.572.572 0 0 0 .11-.121c.065-.103.059-.211-.017-.322a.179.179 0 0 1-.02-.033.41.41 0 0 1 .283.223.316.316 0 0 1 .029.166.492.492 0 0 1-.071.227.2.2 0 0 1-.196.085zm-1.587.945a.368.368 0 0 1-.04-.153c-.01-.205.113-.35.343-.407a.156.156 0 0 1 .073-.005c.065.01.126.056.152.115.03.067.02.145-.023.185-.024.024-.047.03-.08.024a.616.616 0 0 0-.09-.005.323.323 0 0 0-.168.035.304.304 0 0 0-.143.2.171.171 0 0 1-.01.032c-.001.001-.008-.009-.014-.021zm.568.821a.386.386 0 0 1-.288-.231.32.32 0 0 1-.027-.097.224.224 0 0 1 .039.026c.147.107.296.086.444-.063.03-.03.044-.037.073-.037.063 0 .125.058.146.136a.191.191 0 0 1-.105.219.508.508 0 0 1-.282.047zm-.876 3.016c-.036-.014-.05-.032-.062-.078a.541.541 0 0 0-.074-.163.277.277 0 0 0-.118-.089.357.357 0 0 0-.19-.013l-.02.003.024-.027a.407.407 0 0 1 .268-.127c.143-.009.268.059.375.205.022.03.034.074.03.116a.2.2 0 0 1-.147.175.116.116 0 0 1-.086-.003v.001zm1.627.944c.139-.122.15-.266.033-.438-.024-.035-.028-.044-.028-.063 0-.083.109-.15.212-.131a.195.195 0 0 1 .117.072c.026.031.027.034.038.085a.579.579 0 0 1 .003.215.353.353 0 0 1-.118.193.393.393 0 0 1-.238.095l-.054.002.035-.031v.001zm-1.986.062a.427.427 0 0 1-.023-.244c.038-.167.168-.273.37-.304a.192.192 0 0 1 .22.193c0 .04-.001.049-.012.073a.112.112 0 0 1-.062.061c-.02.008-.023.008-.06-.001a.678.678 0 0 0-.194-.008c-.107.02-.186.098-.224.219l-.007.026-.008-.015zm1.26.436a.373.373 0 0 1-.287-.276.503.503 0 0 1 .01-.256.21.21 0 0 1 .089-.088.221.221 0 0 1 .15-.012c.054.018.095.056.106.096.006.027.004.039-.016.073-.058.099-.08.185-.064.263.012.062.06.132.125.179.018.014.033.026.03.028a.464.464 0 0 1-.142-.007zm1.008 2.001c-.024-.014-.026-.017-.052-.071a.409.409 0 0 0-.087-.136.279.279 0 0 0-.102-.067.362.362 0 0 0-.191-.002l-.044.012c-.007 0 .026-.047.055-.076a.413.413 0 0 1 .189-.11.422.422 0 0 1 .18-.003.53.53 0 0 1 .229.139c.045.045.056.071.056.134a.153.153 0 0 1-.013.077.196.196 0 0 1-.158.115c-.033.002-.038.001-.062-.012zm5.02.379a.066.066 0 0 1-.045-.023c-.12-.121-.26-.156-.383-.097a.494.494 0 0 0-.097.068l-.012.013v-.012a.397.397 0 0 1 .204-.301.324.324 0 0 1 .18-.041c.076.001.123.01.198.039a.188.188 0 0 1 .118.146.209.209 0 0 1-.046.159c-.034.04-.073.056-.117.049zm-5.831.179a.408.408 0 0 1 .138-.334.425.425 0 0 1 .14-.071.483.483 0 0 1 .279.011c.06.033.097.09.102.155.007.093-.053.179-.124.179-.02 0-.034-.005-.072-.025a.386.386 0 0 0-.248-.052.34.34 0 0 0-.197.142l-.015.02-.003-.025zm5.318.633a.516.516 0 0 1-.038-.064c-.102-.216-.014-.43.222-.538a.165.165 0 0 1 .112-.019.196.196 0 0 1 .168.184c.002.048-.006.072-.035.099-.02.019-.02.019-.092.026-.171.018-.271.093-.303.23a.286.286 0 0 0-.007.054c-.001.013-.002.03-.004.038l-.002.016-.021-.026zm2.234.023a.404.404 0 0 0 .06-.147.272.272 0 0 0-.05-.193.594.594 0 0 0-.104-.108.086.086 0 0 1-.038-.076c0-.089.119-.171.22-.151a.241.241 0 0 1 .098.045.449.449 0 0 1 .096.383.398.398 0 0 1-.256.263c-.046.015-.048.014-.026-.016zm-6.663.168a.417.417 0 0 1-.19-.257.438.438 0 0 1-.001-.14.518.518 0 0 1 .135-.24.203.203 0 0 1 .18-.051c.107.027.179.137.142.216-.012.025-.015.027-.057.047a.38.38 0 0 0-.195.177.162.162 0 0 0-.02.083.336.336 0 0 0 .02.141.185.185 0 0 1 .01.035.075.075 0 0 1-.024-.011zm.924.045l-.016-.004.034-.024c.144-.103.175-.231.099-.398a.636.636 0 0 0-.028-.055c-.014-.021-.013-.056.002-.083.042-.08.176-.104.265-.047a.264.264 0 0 1 .073.085c.009.021.01.029.01.115 0 .1-.002.118-.026.18a.383.383 0 0 1-.347.233.394.394 0 0 1-.066-.002zm4.717.161a.388.388 0 0 1-.303-.281.512.512 0 0 1 .038-.305.224.224 0 0 1 .102-.077.167.167 0 0 1 .076-.008.177.177 0 0 1 .11.04.117.117 0 0 1 .055.098c0 .028-.001.03-.028.065-.071.088-.103.16-.103.236-.001.071.028.134.088.2l.037.04-.018-.001c-.01-.001-.034-.003-.054-.007zm14.614 4.393c-.494-.022-1.231.12-1.331-.169.003-.3-.437-.552-.408-.174.195.624 1.094.372 1.745.427l-.006-.084z" fill="#F00"/><path d="M27.048 15.286c-.064-.264-.454-.286-.454-.286-.084.188 0 .318 0 .318l.454-.032zm1.933.823c.27.284.317.63-.016 1.079-.151.323.01.61.264.889-.36-.015-.597-.19-.761-.46-.348.395-1.044 1.233.153 1.294-.311.163-.624.313-.994-.183.052.229.065.452-.048.65.004-.152.01-.304-.176-.515.02.417-.008.799-.257 1.024.01-.243.145-.477-.216-.746-.157-.144-.313-.29-.352-.58.06.439-.035.592-.153.707-.011-.264-.034-.524-.224-.714.056.484-.044.82-.321.992.018-.292.009-.582-.168-.873.103.63-.151.75-.368.92.065-.286.2-.571.008-.857-.14-.257-.32-.526-.064-.682-.584-.137-.915.153-1.122.658-.187-.498-.055-.863.513-1.047.063-.197.27-.25.545-.24-.312-.374.143-.923.496-.554-.504.054-.24.659.214.359.25-.22.48-.156.623-.073.265.246.619-.09.51-.326l-.357-.202c-.023.06-.021.123-.16.168-.046.018-.071.07-.072.163-.147-.127-.116-.254-.136-.381l-.114-.124.142-.08.023-.14.073.13.369.062c.014-.246.117-.527-.442-.55l-.057.163-.068-.141c-.354-.06-.471-.224-.408-.465-.255-.09-.086-.246.18-.203l.392-.227c.005-.191.16-.273.39-.255l.004-.005 1.266.055c.602-.352.525-.09.392.222.206.116.305.32.385.54.073.299.31.25.504.294-.112.256-.25.279-.392.254zm-4.87.5l.33.529c.14.275.052.369-.02.477.02.012.034.01.05.017.04-.02.08-.038.125-.055.07-.15.22-.235.444-.256a.515.515 0 0 1 .172-.587 2.544 2.544 0 0 0-.217-.176c-.327-.381-1.074-.651-.725-1.21.186-.136.599-.182.25-.532-.255-.26-.45-.051-.635.22-.023-.197.126-.548-.314-.376-.465.35-.171.443-.048.594-.155.029-.454-.201-.313.366.037.328.159.4.387.153l.206.332c-.186-.025-.375-.054-.171.398.144.344.299.498.479.106zm1.228 2.492l-.086-.073c.027-.005.053-.011.08-.013a.477.477 0 0 0-.077-.227l-.038-.07c-.097-.176-.221-.402-.144-.587l-.058-.003h-.003c-.26.176-.512.393-.73.773-.348.362-.54 1.127-1.137.842-.157-.168-.247-.57-.561-.191-.234.28-.004.449.288.603-.196.044-.563-.066-.345.35.4.42.463.12.602-.016.045.15-.154.469.4.27.326-.072.384-.2.113-.397l.312-.238c-.006.185-.015.374.416.127.33-.18.47-.347.056-.484l.497-.382c.187-.12.292-.112.38-.078.018-.07.032-.14.035-.206zm5.775 3.093c.246.06.438-.148.609-.461-.145.13-.286.188-.417.079-.19-.17-.352-.195-.496-.126.165-.102.285-.245.24-.54-.106-.502.412-.187.449-.016-.124-.663-.695-.59-.705-.08-.038.228-.182.279-.401.207-.283-.09-.537-.125-.641.11-.221-.882-.647-1.631-1.174-2.312a.954.954 0 0 1-.42.12.629.629 0 0 1-.384-.137.808.808 0 0 1-.1.395.108.108 0 0 1-.094.053.105.105 0 0 1-.092-.05c-.001.008-.006.016-.007.024.732.568.883 1.16.749 1.766-.227.506-.048.883.256 1.22.14.204.17.414.032.636-.143.188-.146.607.4.556-.313-.1-.238-.452.065-.54.207-.097.295-.24.224-.444.415.16.645-.083.85-.381.03.185.162.37.32.556.335.725-.232.988-.561.635-.137-.435-.42-.35-.432-.111l.24.364c-.816-.164-.416.17-.433.334.226.474.486.232.754-.174-.253.34-.18.489.144.49.467.063.486-.12.336-.395l.32-.064c.096.176.202.324.465.064.318-.163.079-.302-.048-.445.567-.458.236-.896-.048-1.333zm-4.258-2.972c-.058-.055-.12-.11-.176-.177a.617.617 0 0 1-.18.3.108.108 0 0 1-.115.024.108.108 0 0 1-.07-.096 3.282 3.282 0 0 0-.013-.206c-.018.097-.057.174-.095.252.215.083.479.12.819.092a.536.536 0 0 0-.17-.19zm1.485-.461c-.09-.107-.181-.213-.275-.317a.271.271 0 0 0 .007.15c.032.077.127.13.268.167zm-.822 2.652l.63-.382a1.38 1.38 0 0 0-.087-.702 1.19 1.19 0 0 1-.663.06c-.541-.02-1.072-.011-1.402.57-.231.112-.357.326-.866.16-1.138-.348-.864.948-.192.69-.182.054-.486-.131-.232-.404.129-.12.31.024.48.103l.256.175c-.166.704.54.668.842.65l-.497.62c-.307.225-.63.61-.897.38.148-.407-.1-.716-.328-.42l-.161.34c-.18-.044-.256.033-.232.23-.185.604.122.416.368.327-.02.117-.3.197.145.38.587.266.464-.124.632-.245-.016.264.033.436.345.238.417.016.378-.161.2-.397l.898-.508c-.07.308.207.42.368.238-.358.046-.238-.366-.056-.523.174.2.323.45.68.285-.487-.143-.42-.54-.2-.746.692-.587.486-1.191-.031-1.12zm4.374-3.947c-.148-.01-.31-.04-.456-.01-.165.032-.266.115-.27.144.132.007.213.119.282.215.129.178.088.328.088.328-.24-.198-.655-.046-.914.02a.863.863 0 0 1-.585-.067c-.114.202-.038.405.133.56.404.367.597.914.482 1.36-.09.343-.35.588-.713.673a1.41 1.41 0 0 1-.278.035 6.029 6.029 0 0 0-.231-.53.826.826 0 0 0 .394.005c.184-.043.298-.148.34-.31.069-.265-.067-.62-.333-.861-.417-.38-.406-.836-.257-1.137a.908.908 0 0 1 .193-.254c-.035-.395.253-.805.219-1.031.188-.018.438.268.442.44.123-.201.315-.443.237-.843.322.48.98.313 1.13-.121.249.499.1.747-.193.82-.078.02-.187.039-.21.123.198.01.444.267.5.44z" fill="#000"/><path d="M23.403 14.87c-.021-.009-.052-.038-.052-.049a.634.634 0 0 0-.052-.146.282.282 0 0 0-.15-.137.237.237 0 0 0-.092-.016.524.524 0 0 0-.115.006.37.37 0 0 1 .078-.075.39.39 0 0 1 .483.012.502.502 0 0 1 .128.16c.007.024.01.074.004.1a.204.204 0 0 1-.104.13.133.133 0 0 1-.073.019.14.14 0 0 1-.055-.004zm1.034.07a.312.312 0 0 1-.085-.035c-.042-.029-.07-.076-.07-.118 0-.032.009-.05.037-.072a.572.572 0 0 0 .11-.121c.065-.103.059-.211-.017-.322a.179.179 0 0 1-.02-.033.41.41 0 0 1 .283.223.316.316 0 0 1 .029.166.492.492 0 0 1-.071.227.2.2 0 0 1-.196.085zm-1.587.945a.368.368 0 0 1-.04-.153c-.01-.205.113-.35.343-.407a.156.156 0 0 1 .073-.005c.065.01.126.056.152.115.03.067.02.145-.023.185-.024.024-.047.03-.08.024a.616.616 0 0 0-.09-.005.323.323 0 0 0-.168.035.304.304 0 0 0-.143.2.171.171 0 0 1-.01.032c-.001.001-.008-.009-.014-.021zm.568.821a.386.386 0 0 1-.288-.231.32.32 0 0 1-.027-.097.224.224 0 0 1 .039.026c.147.107.296.086.444-.063.03-.03.044-.037.073-.037.063 0 .125.058.146.136a.191.191 0 0 1-.105.219.508.508 0 0 1-.282.047zm-.876 3.016c-.036-.014-.05-.032-.062-.078a.541.541 0 0 0-.074-.163.277.277 0 0 0-.118-.089.357.357 0 0 0-.19-.013l-.02.003.024-.027a.407.407 0 0 1 .268-.127c.143-.009.268.059.375.205.022.03.034.074.03.116a.2.2 0 0 1-.147.175.116.116 0 0 1-.086-.003v.001zm1.627.944c.139-.122.15-.266.033-.438-.024-.035-.028-.044-.028-.063 0-.083.109-.15.212-.131a.195.195 0 0 1 .117.072c.026.031.027.034.038.085a.579.579 0 0 1 .003.215.353.353 0 0 1-.118.193.393.393 0 0 1-.238.095l-.054.002.035-.031v.001zm-1.986.062a.427.427 0 0 1-.023-.244c.038-.167.168-.273.37-.304a.192.192 0 0 1 .22.193c0 .04-.001.049-.012.073a.112.112 0 0 1-.062.061c-.02.008-.023.008-.06-.001a.678.678 0 0 0-.194-.008c-.107.02-.186.098-.224.219l-.007.026-.008-.015zm1.26.436a.373.373 0 0 1-.287-.276.503.503 0 0 1 .01-.256.21.21 0 0 1 .089-.088.221.221 0 0 1 .15-.012c.054.018.095.056.106.096.006.027.004.039-.016.073-.058.099-.08.185-.064.263.012.062.06.132.125.179.018.014.033.026.03.028a.464.464 0 0 1-.142-.007zm1.008 2.001c-.024-.014-.026-.017-.052-.071a.409.409 0 0 0-.087-.136.27.27 0 0 0-.102-.067.362.362 0 0 0-.191-.002l-.044.012c-.007 0 .026-.047.055-.076a.413.413 0 0 1 .189-.11.422.422 0 0 1 .18-.003.53.53 0 0 1 .229.139c.045.045.056.071.056.134a.153.153 0 0 1-.013.077.196.196 0 0 1-.158.115c-.033.002-.038.001-.062-.012zm5.02.379a.066.066 0 0 1-.045-.023c-.12-.121-.26-.156-.383-.097a.494.494 0 0 0-.097.068l-.012.013v-.012a.397.397 0 0 1 .204-.301.324.324 0 0 1 .18-.041c.076.001.123.01.198.039a.188.188 0 0 1 .118.146.209.209 0 0 1-.046.159c-.034.04-.073.056-.117.049zm-5.831.179a.408.408 0 0 1 .138-.334.425.425 0 0 1 .14-.071.483.483 0 0 1 .279.011c.06.033.097.09.102.155.007.093-.053.179-.124.179-.02 0-.034-.005-.072-.025a.386.386 0 0 0-.248-.052.34.34 0 0 0-.197.142l-.015.02-.003-.025zm5.318.633a.516.516 0 0 1-.038-.064c-.102-.216-.014-.43.222-.538a.165.165 0 0 1 .112-.019.196.196 0 0 1 .168.184c.002.048-.006.072-.035.099-.02.019-.02.019-.092.026-.171.018-.271.093-.303.23a.286.286 0 0 0-.007.054c-.001.013-.002.03-.004.038l-.002.016-.021-.026zm2.234.023a.404.404 0 0 0 .06-.147.272.272 0 0 0-.05-.193.594.594 0 0 0-.104-.108.086.086 0 0 1-.038-.076c0-.089.119-.171.22-.151a.241.241 0 0 1 .098.045.449.449 0 0 1 .096.383.398.398 0 0 1-.256.263c-.046.015-.048.014-.026-.016zm-6.663.168a.417.417 0 0 1-.19-.257.438.438 0 0 1-.001-.14.518.518 0 0 1 .135-.24.203.203 0 0 1 .18-.051c.107.027.179.137.142.216-.012.025-.015.027-.057.047a.38.38 0 0 0-.195.177.162.162 0 0 0-.02.083.336.336 0 0 0 .02.141.185.185 0 0 1 .01.035.075.075 0 0 1-.024-.011zm.924.045l-.016-.004.034-.024c.144-.103.175-.231.099-.398a.636.636 0 0 0-.028-.055c-.014-.021-.013-.056.002-.083.042-.08.176-.104.265-.047a.264.264 0 0 1 .073.085c.009.021.01.029.01.115 0 .1-.002.118-.026.18a.383.383 0 0 1-.347.233.394.394 0 0 1-.066-.002zm4.717.161a.388.388 0 0 1-.303-.281.512.512 0 0 1 .038-.305.224.224 0 0 1 .102-.077.167.167 0 0 1 .076-.008.177.177 0 0 1 .11.04.117.117 0 0 1 .055.098c0 .028-.001.03-.028.065-.071.088-.103.16-.103.236-.001.071.028.134.088.2l.037.04-.018-.001c-.01-.001-.034-.003-.054-.007z" fill="#F00"/><path d="M26.784 3.146c-.494-.022-1.231.12-1.331-.169.003-.3-.437-.552-.408-.174.195.624 1.094.372 1.745.427l-.006-.084z" fill="#0014FF"/><path d="M27.048 2.286c-.064-.264-.454-.286-.454-.286-.084.188 0 .318 0 .318l.454-.032zm1.933.823c.27.284.317.63-.016 1.079-.151.323.01.61.264.889-.36-.015-.597-.19-.761-.46-.348.395-1.044 1.233.153 1.294-.311.163-.624.313-.994-.183.052.229.065.452-.048.65.004-.152.01-.304-.176-.515.02.417-.008.799-.257 1.024.01-.243.145-.477-.216-.746-.157-.144-.313-.29-.352-.58.06.439-.035.592-.153.707-.011-.264-.034-.524-.224-.714.056.484-.044.82-.321.992.018-.292.009-.582-.168-.873.103.63-.151.75-.368.92.065-.286.2-.571.008-.857-.14-.257-.32-.526-.064-.682-.584-.137-.915.153-1.122.658-.187-.498-.055-.863.513-1.047.063-.197.27-.25.545-.24-.312-.374.143-.923.496-.554-.504.054-.24.659.214.359.25-.22.48-.156.623-.073.265.246.619-.09.51-.326l-.357-.202c-.023.06-.021.123-.16.168-.046.018-.071.07-.072.163-.147-.127-.116-.254-.136-.381l-.114-.124.142-.08.023-.14.073.13.369.062c.014-.246.117-.527-.442-.55l-.057.163-.068-.141c-.354-.06-.471-.224-.408-.465-.255-.09-.086-.246.18-.203l.392-.227c.005-.191.16-.273.39-.255l.004-.005 1.266.055c.602-.352.525-.09.392.222.206.116.305.32.385.54.073.299.31.25.504.294-.112.256-.25.279-.392.254zm-4.87.5l.33.529c.14.275.052.369-.02.477.02.012.034.01.05.017.04-.02.08-.038.125-.055.07-.15.22-.235.444-.256a.515.515 0 0 1 .172-.587 2.544 2.544 0 0 0-.217-.176c-.327-.381-1.074-.651-.725-1.21.186-.136.599-.182.25-.532-.255-.26-.45-.051-.635.22-.023-.197.126-.548-.314-.376-.465.35-.171.443-.048.594-.155.029-.454-.201-.313.366.037.328.159.4.387.153l.206.332c-.186-.025-.375-.054-.171.398.144.344.299.498.479.106zM25.339 6.1l-.086-.073c.027-.005.053-.011.08-.013a.477.477 0 0 0-.077-.227l-.038-.07c-.097-.176-.221-.402-.144-.587l-.058-.003h-.003c-.26.176-.512.393-.73.773-.348.362-.54 1.127-1.137.842-.157-.168-.247-.57-.561-.191-.234.28-.004.449.288.603-.196.044-.563-.066-.345.35.4.42.463.12.602-.016.045.15-.154.469.4.27.326-.072.384-.2.113-.397l.312-.238c-.006.185-.015.374.416.127.33-.18.47-.347.056-.484l.497-.382c.187-.12.292-.112.38-.078.018-.07.032-.14.035-.206zm5.775 3.093c.246.06.438-.148.609-.461-.145.13-.286.188-.417.079-.19-.17-.352-.195-.496-.126.165-.102.285-.245.24-.54-.106-.502.412-.187.449-.016-.124-.663-.695-.59-.705-.08-.038.228-.182.279-.401.207-.283-.09-.537-.125-.641.11-.221-.882-.647-1.631-1.174-2.312a.954.954 0 0 1-.42.12.629.629 0 0 1-.384-.137.808.808 0 0 1-.1.395.108.108 0 0 1-.094.053.105.105 0 0 1-.092-.05c-.001.008-.006.016-.007.024.732.568.883 1.16.749 1.766-.227.506-.048.883.256 1.22.14.204.17.414.032.636-.143.188-.146.607.4.556-.313-.1-.238-.452.065-.54.207-.097.295-.24.224-.444.415.16.645-.083.85-.381.03.185.162.37.32.556.335.725-.232.988-.561.635-.137-.435-.42-.35-.432-.111l.24.364c-.816-.164-.416.17-.433.334.226.474.486.232.754-.174-.253.34-.18.489.144.49.467.063.486-.12.336-.395l.32-.064c.096.176.202.324.465.064.318-.163.079-.302-.048-.445.567-.458.236-.896-.048-1.333zm-4.258-2.972c-.058-.055-.12-.11-.176-.177a.617.617 0 0 1-.18.3.108.108 0 0 1-.115.024.108.108 0 0 1-.07-.096 3.282 3.282 0 0 0-.013-.206c-.018.097-.057.174-.095.252.215.083.479.12.819.092a.536.536 0 0 0-.17-.19zm1.485-.461c-.09-.107-.181-.213-.275-.317a.271.271 0 0 0 .007.15c.032.077.127.13.268.167zm-.822 2.652l.63-.382a1.38 1.38 0 0 0-.087-.702 1.19 1.19 0 0 1-.663.06c-.541-.02-1.072-.011-1.402.57-.231.112-.357.326-.866.16-1.138-.348-.864.948-.192.69-.182.054-.486-.131-.232-.404.129-.12.31.024.48.103l.256.175c-.166.704.54.668.842.65l-.497.62c-.307.225-.63.61-.897.38.148-.407-.1-.716-.328-.42l-.161.34c-.18-.044-.256.033-.232.23-.185.604.122.416.368.327-.02.117-.3.197.145.38.587.266.464-.124.632-.245-.016.264.033.436.345.238.417.016.378-.161.2-.397l.898-.508c-.07.308.207.42.368.238-.358.046-.238-.366-.056-.523.174.2.323.45.68.285-.487-.143-.42-.54-.2-.746.692-.587.486-1.191-.031-1.12zm4.374-3.947c-.148-.01-.31-.04-.456-.01-.165.032-.266.115-.27.144.132.007.213.119.282.215.129.178.088.328.088.328-.24-.198-.655-.046-.914.02a.863.863 0 0 1-.585-.067c-.114.202-.038.405.133.56.404.367.597.914.482 1.36-.09.343-.35.588-.713.673a1.41 1.41 0 0 1-.278.035 6.029 6.029 0 0 0-.231-.53.826.826 0 0 0 .394.005c.184-.043.298-.148.34-.31.069-.265-.067-.62-.333-.861-.417-.38-.406-.836-.257-1.137a.908.908 0 0 1 .193-.254c-.035-.395.253-.805.219-1.031.188-.018.438.268.442.44.123-.201.315-.443.237-.843.322.48.98.313 1.13-.121.249.499.1.747-.193.82-.078.02-.187.039-.21.123.198.01.444.267.5.44z" fill="#F00"/><path d="M23.403 1.87c-.021-.009-.052-.038-.052-.049a.634.634 0 0 0-.052-.146.282.282 0 0 0-.15-.137.237.237 0 0 0-.092-.016.524.524 0 0 0-.115.006.37.37 0 0 1 .078-.075.39.39 0 0 1 .483.012.502.502 0 0 1 .128.16c.007.024.01.074.004.1a.204.204 0 0 1-.104.13.133.133 0 0 1-.073.019.14.14 0 0 1-.055-.004zm1.034.07a.312.312 0 0 1-.085-.035c-.042-.029-.07-.076-.07-.118 0-.032.009-.05.037-.072a.572.572 0 0 0 .11-.121c.065-.103.059-.211-.017-.322a.179.179 0 0 1-.02-.033.41.41 0 0 1 .283.223.316.316 0 0 1 .029.166.492.492 0 0 1-.071.227.2.2 0 0 1-.196.085zm-1.587.945a.368.368 0 0 1-.04-.153c-.01-.205.113-.35.343-.407a.156.156 0 0 1 .073-.005c.065.01.126.056.152.115.03.067.02.145-.023.185-.024.024-.047.03-.08.024a.616.616 0 0 0-.09-.005.323.323 0 0 0-.168.035.304.304 0 0 0-.143.2.171.171 0 0 1-.01.032c-.001.001-.008-.009-.014-.021zm.568.821a.386.386 0 0 1-.288-.231.32.32 0 0 1-.027-.097.224.224 0 0 1 .039.026c.147.107.296.086.444-.063.03-.03.044-.037.073-.037.063 0 .125.058.146.136a.191.191 0 0 1-.105.219.508.508 0 0 1-.282.047zm-.876 3.016c-.036-.014-.05-.032-.062-.078a.541.541 0 0 0-.074-.163.277.277 0 0 0-.118-.089.357.357 0 0 0-.19-.013l-.02.003.024-.027a.407.407 0 0 1 .268-.127c.143-.009.268.059.375.205.022.03.034.074.03.116a.2.2 0 0 1-.147.175.116.116 0 0 1-.086-.003v.001zm1.627.944c.139-.122.15-.266.033-.438-.024-.035-.028-.044-.028-.063 0-.083.109-.15.212-.131a.195.195 0 0 1 .117.072c.026.031.027.034.038.085a.579.579 0 0 1 .003.215.353.353 0 0 1-.118.193.393.393 0 0 1-.238.095l-.054.002.035-.031v.001zm-1.986.062a.427.427 0 0 1-.023-.244c.038-.167.168-.273.37-.304a.192.192 0 0 1 .22.193c0 .04-.001.049-.012.073a.112.112 0 0 1-.062.061c-.02.008-.023.008-.06-.001a.678.678 0 0 0-.194-.008c-.107.02-.186.098-.224.219l-.007.026-.008-.015zm1.26.436a.373.373 0 0 1-.287-.276.503.503 0 0 1 .01-.256.21.21 0 0 1 .089-.088.221.221 0 0 1 .15-.012c.054.018.095.056.106.096.006.027.004.039-.016.073-.058.099-.08.185-.064.263.012.062.06.132.125.179.018.014.033.026.03.028a.464.464 0 0 1-.142-.007zm1.008 2.001c-.024-.014-.026-.017-.052-.071a.409.409 0 0 0-.087-.136.27.27 0 0 0-.102-.067.362.362 0 0 0-.191-.002l-.044.012c-.007 0 .026-.047.055-.076a.413.413 0 0 1 .189-.11.422.422 0 0 1 .18-.003.53.53 0 0 1 .229.139c.045.045.056.071.056.134a.153.153 0 0 1-.013.077.196.196 0 0 1-.158.115c-.033.002-.038.001-.062-.012zm5.02.379a.066.066 0 0 1-.045-.023c-.12-.121-.26-.156-.383-.097a.494.494 0 0 0-.097.068l-.012.013v-.012a.397.397 0 0 1 .204-.301.324.324 0 0 1 .18-.041c.076.001.123.01.198.039a.188.188 0 0 1 .118.146.209.209 0 0 1-.046.159c-.034.04-.073.056-.117.049zm-5.831.179a.408.408 0 0 1 .138-.334.425.425 0 0 1 .14-.071.483.483 0 0 1 .279.011c.06.033.097.09.102.155.007.093-.053.179-.124.179-.02 0-.034-.005-.072-.025a.386.386 0 0 0-.248-.052.34.34 0 0 0-.197.142l-.015.02-.003-.025zm5.318.633a.516.516 0 0 1-.038-.064c-.102-.216-.014-.43.222-.538a.165.165 0 0 1 .112-.019.196.196 0 0 1 .168.184c.002.048-.006.072-.035.099-.02.019-.02.019-.092.026-.171.018-.271.093-.303.23a.286.286 0 0 0-.007.054c-.001.013-.002.03-.004.038l-.002.016-.021-.026zm2.234.023a.404.404 0 0 0 .06-.147.272.272 0 0 0-.05-.193.594.594 0 0 0-.104-.108.086.086 0 0 1-.038-.076c0-.089.119-.171.22-.151a.241.241 0 0 1 .098.045.449.449 0 0 1 .096.383.398.398 0 0 1-.256.263c-.046.015-.048.014-.026-.016zm-6.663.168a.417.417 0 0 1-.19-.257.438.438 0 0 1-.001-.14.518.518 0 0 1 .135-.24.203.203 0 0 1 .18-.051c.107.027.179.137.142.216-.012.025-.015.027-.057.047a.38.38 0 0 0-.195.177.162.162 0 0 0-.02.083.336.336 0 0 0 .02.141.185.185 0 0 1 .01.035.075.075 0 0 1-.024-.011zm.924.045l-.016-.004.034-.024c.144-.103.175-.231.099-.398a.636.636 0 0 0-.028-.055c-.014-.021-.013-.056.002-.083.042-.08.176-.104.265-.047a.264.264 0 0 1 .073.085c.009.021.01.029.01.115 0 .1-.002.118-.026.18a.383.383 0 0 1-.347.233.394.394 0 0 1-.066-.002zm4.717.161a.388.388 0 0 1-.303-.281.512.512 0 0 1 .038-.305.224.224 0 0 1 .102-.077.167.167 0 0 1 .076-.008.177.177 0 0 1 .11.04.117.117 0 0 1 .055.098c0 .028-.001.03-.028.065-.071.088-.103.16-.103.236-.001.071.028.134.088.2l.037.04-.018-.001c-.01-.001-.034-.003-.054-.007zM8.784 16.146c-.494-.022-1.231.12-1.331-.169.003-.3-.437-.552-.408-.174.195.624 1.094.372 1.745.427l-.006-.084z" fill="#0014FF"/><path d="M9.048 15.286c-.064-.264-.454-.286-.454-.286-.084.188 0 .318 0 .318l.454-.032zm1.933.823c.27.284.317.63-.016 1.079-.151.323.01.61.264.889-.36-.015-.597-.19-.761-.46-.348.395-1.044 1.233.153 1.294-.311.163-.624.313-.994-.183.052.229.065.452-.048.65.004-.152.01-.304-.176-.515.02.417-.008.799-.257 1.024.01-.243.145-.477-.216-.746-.157-.144-.313-.29-.352-.58.06.439-.035.592-.153.707-.011-.264-.034-.524-.224-.714.056.484-.044.82-.321.992.018-.292.009-.582-.168-.873.103.63-.151.75-.368.92.065-.286.2-.571.008-.857-.14-.257-.32-.526-.064-.682-.584-.137-.915.153-1.122.658-.187-.498-.055-.863.513-1.047.063-.197.27-.25.545-.24-.312-.374.143-.923.496-.554-.504.054-.24.659.214.359.25-.22.48-.156.623-.073.265.246.619-.09.51-.326l-.357-.202c-.023.06-.021.123-.16.168-.046.018-.071.07-.072.163-.147-.127-.116-.254-.136-.381l-.114-.124.142-.08.023-.14.073.13.369.062c.014-.246.117-.527-.442-.55l-.057.163-.068-.141c-.354-.06-.471-.224-.408-.465-.255-.09-.086-.246.18-.203l.392-.227c.005-.191.16-.273.39-.255l.004-.005 1.266.055c.602-.352.525-.09.392.222.206.116.305.32.385.54.073.299.31.25.504.294-.112.256-.25.279-.392.254zm-4.87.5l.33.529c.14.275.052.369-.02.477.02.012.034.01.05.017.04-.02.08-.038.125-.055.07-.15.22-.235.444-.256a.515.515 0 0 1 .172-.587 2.544 2.544 0 0 0-.217-.176c-.327-.381-1.074-.651-.725-1.21.186-.136.599-.182.25-.532-.255-.26-.45-.051-.635.22-.023-.197.126-.548-.314-.376-.465.35-.171.443-.048.594-.155.029-.454-.201-.313.366.037.328.159.4.387.153l.206.332c-.186-.025-.375-.054-.171.398.144.344.299.498.479.106zM7.339 19.1l-.086-.073c.027-.005.053-.011.08-.013a.477.477 0 0 0-.077-.227l-.038-.07c-.097-.176-.221-.402-.144-.587l-.058-.003h-.003c-.26.176-.512.393-.73.773-.348.362-.54 1.127-1.137.842-.157-.168-.247-.57-.561-.191-.234.28-.004.449.288.603-.196.044-.563-.066-.345.35.4.42.463.12.602-.016.045.15-.154.469.4.27.326-.072.384-.2.113-.397l.312-.238c-.006.185-.015.374.416.127.33-.18.47-.347.056-.484l.497-.382c.187-.12.292-.112.38-.078.018-.07.032-.14.035-.206zm5.775 3.093c.246.06.438-.148.609-.461-.145.13-.286.188-.417.079-.19-.17-.352-.195-.496-.126.165-.102.285-.245.24-.54-.106-.502.412-.187.449-.016-.124-.663-.695-.59-.705-.08-.038.228-.182.279-.401.207-.283-.09-.537-.125-.641.11-.221-.882-.647-1.631-1.174-2.312a.954.954 0 0 1-.42.12.629.629 0 0 1-.384-.137.808.808 0 0 1-.1.395.108.108 0 0 1-.094.053.105.105 0 0 1-.092-.05c-.001.008-.006.016-.007.024.732.568.883 1.16.749 1.766-.227.506-.048.883.256 1.22.14.204.17.414.032.636-.143.188-.146.607.4.556-.313-.1-.238-.452.065-.54.207-.097.295-.24.224-.444.415.16.645-.083.85-.381.03.185.162.37.32.556.335.725-.232.988-.561.635-.137-.435-.42-.35-.432-.111l.24.364c-.816-.164-.416.17-.433.334.226.474.486.232.754-.174-.253.34-.18.489.144.49.467.063.486-.12.336-.395l.32-.064c.096.176.202.324.465.064.318-.163.079-.302-.048-.445.567-.458.236-.896-.048-1.333zm-4.258-2.972c-.058-.055-.12-.11-.176-.177a.617.617 0 0 1-.18.3.108.108 0 0 1-.115.024.108.108 0 0 1-.07-.096 3.282 3.282 0 0 0-.013-.206c-.018.097-.057.174-.095.252.215.083.479.12.819.092a.536.536 0 0 0-.17-.19zm1.485-.461c-.09-.107-.181-.213-.275-.317a.271.271 0 0 0 .007.15c.032.077.127.13.268.167zm-.822 2.652l.63-.382a1.38 1.38 0 0 0-.087-.702 1.19 1.19 0 0 1-.663.06c-.541-.02-1.072-.011-1.402.57-.231.112-.357.326-.866.16-1.138-.348-.864.948-.192.69-.182.054-.486-.131-.232-.404.129-.12.31.024.48.103l.256.175c-.166.704.54.668.842.65l-.497.62c-.307.225-.63.61-.897.38.148-.407-.1-.716-.328-.42l-.161.34c-.18-.044-.256.033-.232.23-.185.604.122.416.368.327-.02.117-.3.197.145.38.587.266.464-.124.632-.245-.016.264.033.436.345.238.417.016.378-.161.2-.397l.898-.508c-.07.308.207.42.368.238-.358.046-.238-.366-.056-.523.174.2.323.45.68.285-.487-.143-.42-.54-.2-.746.692-.587.486-1.191-.031-1.12zm4.374-3.947c-.148-.01-.31-.04-.456-.01-.165.032-.266.115-.27.144.132.007.213.119.282.215.129.178.088.328.088.328-.24-.198-.655-.046-.914.02a.863.863 0 0 1-.585-.067c-.114.202-.038.405.133.56.404.367.597.914.482 1.36-.09.343-.35.588-.713.673a1.41 1.41 0 0 1-.278.035 6.029 6.029 0 0 0-.231-.53.826.826 0 0 0 .394.005c.184-.043.298-.148.34-.31.069-.265-.067-.62-.333-.861-.417-.38-.406-.836-.257-1.137a.908.908 0 0 1 .193-.254c-.035-.395.253-.805.219-1.031.188-.018.438.268.442.44.123-.201.315-.443.237-.843.322.48.98.313 1.13-.121.249.499.1.747-.193.82-.078.02-.187.039-.21.123.198.01.444.267.5.44z" fill="#F00"/><path d="M5.403 14.87c-.021-.009-.053-.038-.053-.049a.625.625 0 0 0-.051-.146.282.282 0 0 0-.15-.137.237.237 0 0 0-.092-.016.524.524 0 0 0-.115.006.37.37 0 0 1 .078-.075.39.39 0 0 1 .483.012.502.502 0 0 1 .128.16c.007.024.01.074.004.1a.204.204 0 0 1-.104.13.133.133 0 0 1-.073.019.14.14 0 0 1-.055-.004zm1.034.07a.312.312 0 0 1-.085-.035c-.042-.029-.07-.076-.07-.118 0-.032.009-.05.037-.072a.572.572 0 0 0 .11-.121c.065-.103.059-.211-.017-.322a.179.179 0 0 1-.02-.033.41.41 0 0 1 .283.223.316.316 0 0 1 .029.166.492.492 0 0 1-.071.227.2.2 0 0 1-.196.085zm-1.587.945a.368.368 0 0 1-.04-.153c-.01-.205.113-.35.343-.407a.156.156 0 0 1 .073-.005c.065.01.126.056.152.115.03.067.02.145-.023.185-.024.024-.047.03-.08.024a.616.616 0 0 0-.09-.005.323.323 0 0 0-.168.035.304.304 0 0 0-.143.2.171.171 0 0 1-.01.032c-.001.001-.008-.009-.014-.021zm.568.821a.386.386 0 0 1-.288-.231.32.32 0 0 1-.027-.097.224.224 0 0 1 .039.026c.147.107.296.086.444-.063.03-.03.044-.037.073-.037.063 0 .125.058.146.136a.191.191 0 0 1-.105.219.508.508 0 0 1-.282.047zm-.876 3.016c-.036-.014-.05-.032-.062-.078a.541.541 0 0 0-.074-.163.277.277 0 0 0-.118-.089.357.357 0 0 0-.19-.013l-.02.003.024-.027a.407.407 0 0 1 .268-.127c.143-.009.268.059.375.205.022.03.034.074.03.116a.2.2 0 0 1-.147.175.116.116 0 0 1-.086-.003v.001zm1.627.944c.139-.122.15-.266.033-.438-.024-.035-.028-.044-.028-.063 0-.083.109-.15.212-.131a.195.195 0 0 1 .117.072c.026.031.027.034.038.085a.579.579 0 0 1 .003.215.353.353 0 0 1-.118.193.393.393 0 0 1-.238.095l-.054.002.035-.031v.001zm-1.986.062a.427.427 0 0 1-.023-.244c.038-.167.168-.273.37-.304a.192.192 0 0 1 .22.193c0 .04-.001.049-.012.073a.112.112 0 0 1-.062.061c-.02.008-.023.008-.06-.001a.678.678 0 0 0-.194-.008c-.107.02-.186.098-.224.219l-.007.026-.008-.015zm1.26.436a.373.373 0 0 1-.287-.276.503.503 0 0 1 .01-.256.21.21 0 0 1 .089-.088.221.221 0 0 1 .15-.012c.054.018.095.056.106.096.006.027.004.039-.016.073-.058.099-.08.185-.064.263.012.062.06.132.125.179.018.014.033.026.03.028a.464.464 0 0 1-.142-.007zm1.008 2.001c-.024-.014-.026-.017-.052-.071a.409.409 0 0 0-.087-.136.279.279 0 0 0-.102-.067.362.362 0 0 0-.191-.002l-.044.012c-.007 0 .026-.047.055-.076a.413.413 0 0 1 .189-.11.422.422 0 0 1 .18-.003.53.53 0 0 1 .229.139c.045.045.056.071.056.134a.153.153 0 0 1-.013.077.196.196 0 0 1-.158.115c-.033.002-.038.001-.062-.012zm5.02.379a.066.066 0 0 1-.045-.023c-.12-.121-.26-.156-.383-.097a.494.494 0 0 0-.097.068l-.012.013v-.012a.397.397 0 0 1 .204-.301.324.324 0 0 1 .18-.041c.076.001.123.01.198.039a.188.188 0 0 1 .118.146.209.209 0 0 1-.046.159c-.034.04-.073.056-.117.049zm-5.831.179a.408.408 0 0 1 .138-.334.425.425 0 0 1 .14-.071.483.483 0 0 1 .279.011c.06.033.097.09.102.155.007.093-.053.179-.124.179-.02 0-.034-.005-.072-.025a.386.386 0 0 0-.248-.052.34.34 0 0 0-.197.142l-.015.02-.003-.025zm5.318.633a.516.516 0 0 1-.038-.064c-.102-.216-.014-.43.222-.538a.165.165 0 0 1 .112-.019.196.196 0 0 1 .168.184c.002.048-.006.072-.035.099-.02.019-.02.019-.092.026-.171.018-.271.093-.303.23a.286.286 0 0 0-.007.054c-.001.013-.002.03-.004.038l-.002.016-.021-.026zm2.234.023a.404.404 0 0 0 .06-.147.272.272 0 0 0-.05-.193.594.594 0 0 0-.104-.108.086.086 0 0 1-.038-.076c0-.089.119-.171.22-.151a.241.241 0 0 1 .098.045.449.449 0 0 1 .096.383.398.398 0 0 1-.256.263c-.046.015-.048.014-.026-.016zm-6.663.168a.417.417 0 0 1-.19-.257.438.438 0 0 1-.001-.14.518.518 0 0 1 .135-.24.203.203 0 0 1 .18-.051c.107.027.179.137.142.216-.012.025-.015.027-.057.047a.38.38 0 0 0-.195.177.162.162 0 0 0-.02.083.336.336 0 0 0 .02.141.185.185 0 0 1 .01.035.075.075 0 0 1-.024-.011zm.924.045l-.016-.004.034-.024c.144-.103.175-.231.099-.398a.636.636 0 0 0-.028-.055c-.014-.021-.013-.056.002-.083.042-.08.176-.104.265-.047a.264.264 0 0 1 .073.085c.009.021.01.029.01.115 0 .1-.002.118-.026.18a.383.383 0 0 1-.347.233.394.394 0 0 1-.066-.002zm4.717.161a.388.388 0 0 1-.303-.281.512.512 0 0 1 .038-.305.224.224 0 0 1 .102-.077.167.167 0 0 1 .076-.008.177.177 0 0 1 .11.04.117.117 0 0 1 .055.098c0 .028-.001.03-.028.065-.071.088-.103.16-.103.236-.001.071.028.134.088.2l.037.04-.018-.001c-.01-.001-.034-.003-.054-.007z" fill="#0014FF"/><path d="M18 0v26M0 13h36" stroke="#231F1F" stroke-width=".5"/></g></svg>