<svg width="36" height="26" viewBox="0 0 36 26" xmlns="http://www.w3.org/2000/svg"><title>BE-WAL</title><g fill="none" fill-rule="evenodd"><path d="M32 26.167H4a4 4 0 0 1-4-4V4a4 4 0 0 1 4-4h28a4 4 0 0 1 4 4v18.167a4 4 0 0 1-4 4" fill="#FDDF00"/><path d="M16.788 2.05a.959.959 0 0 0-.739.345l-.019-.1a.247.247 0 0 0-.24-.2.245.245 0 0 0-.05.005c-.308.064-.52.226-.664.42a.245.245 0 0 0-.286-.078 1.08 1.08 0 0 0-.655.719.232.232 0 0 0-.056-.007.244.244 0 0 0-.164.064c-.39.355-.562.818-.493 1.34.05.38.213.66.22.671a.245.245 0 0 0 .227.12l2.298-.163a.244.244 0 0 0 .112-.036c.542-.338.885-.759 1.017-1.25.135-.502.05-1.077-.252-1.71a.245.245 0 0 0-.21-.14h-.046" fill="#FDDF00"/><path d="M13.852 5.102s-.576-.97.227-1.7l.274.397s-.2-.83.529-1.128l.173.724s-.032-.893.735-1.053l.154.817s.167-.892.88-.862c.561 1.178.292 2.042-.674 2.642l-2.298.163z" fill="#F00"/><path d="M15.732 14.96a.26.26 0 0 0-.09.017l-1.591.634a1.004 1.004 0 0 0-.632 1.018c.026.316.117.618.271.9a1.679 1.679 0 0 0 1.937.803l1.86-.536a.25.25 0 0 0 .131-.383l-1.688-2.35a.244.244 0 0 0-.198-.103" fill="#FDDF00"/><path d="M15.732 15.207l-1.591.634a.763.763 0 0 0-.477.768c.022.277.1.543.24.8.325.589 1.013.87 1.655.685l1.86-.535-1.687-2.352z" fill="#F00"/><path d="M15.118 3.998c-.573 0-1.09.33-1.315.842-.218.494-.127 1.06.246 1.586-1.092.65-1.925 1.412-2.48 2.265-.53.816-.794 1.69-.785 2.598.008.796.232 1.583.646 2.275.387.646.926 1.176 1.519 1.493l2.49 1.332a.243.243 0 0 0 .234-.003.247.247 0 0 0 .125-.201l.323-5.548a.249.249 0 0 0-.003-.052c-.1-.664.131-1.133.4-1.677.391-.793.835-1.691.323-3.341-.304-.983-.948-1.57-1.723-1.57" fill="#FDDF00"/><path d="M15.876 10.622c-.268-1.762 1.564-2.297.732-4.981-.832-2.684-3.84-.992-2.189.855-5.034 2.826-3.554 7.167-1.356 8.342l2.49 1.333.323-5.549z" fill="#F00"/><path d="M15.372 14.606a.248.248 0 0 0-.245.245c-.008.958.22 1.8.68 2.502.49.75 1.26 1.366 2.288 1.83.13.058.267.088.408.088.478 0 .892-.344.985-.817l.49-2.512a.247.247 0 0 0-.185-.288l-4.364-1.041a.243.243 0 0 0-.057-.007" fill="#FDDF00"/><path d="M15.372 14.853c-.015 1.754.779 3.181 2.823 4.104a.757.757 0 0 0 1.052-.55l.49-2.513-4.365-1.04z" fill="#F00"/><path d="M26.581 4.99l-.016.001a.242.242 0 0 0-.166.082.246.246 0 0 0-.008.01c-.783.955-2.151 1.156-3.6 1.368-1.005.147-2.043.299-2.864.734-.954.505-1.487 1.326-1.63 2.51-.038.328-.048 1.815.11 2.548.008.036.023.07.046.099l1.415 1.85a.244.244 0 0 0 .44-.148 1.23 1.23 0 0 1 1.216-1.21c.537 0 1.017.364 1.167.886a1.238 1.238 0 0 1-.662 1.456.248.248 0 0 0 .091.472l.086.002c.472 0 .915-.175 1.256-.476a3.458 3.458 0 0 1-.798 1.757.249.249 0 0 0-.055.211l.038.194a.247.247 0 0 0 .24.199.241.241 0 0 0 .052-.006c.883-.19 1.645-.613 2.204-1.225.364-.398.637-.866.807-1.38.29.734.406 1.516.349 2.33-.066.935-.358 1.91-.869 2.901a.249.249 0 0 0 .061.305l.163.135a.243.243 0 0 0 .319-.006c.92-.823 1.549-1.751 1.922-2.837a7.33 7.33 0 0 0 .371-1.874c.083.404.119.789.158 1.2.012.134.025.272.04.412a.247.247 0 0 0 .13.193l.218.114a.242.242 0 0 0 .327-.099 6.43 6.43 0 0 0 .799-2.593 6.063 6.063 0 0 0-.328-2.555 5.986 5.986 0 0 0-1.345-2.17 6.349 6.349 0 0 0-2.191-1.469 4.277 4.277 0 0 0-1.043-1.109c1.324-.779 1.636-1.436 1.791-2.52a.246.246 0 0 0-.241-.291z" fill="#FDDF00"/><path d="M25.91 9.112a3.987 3.987 0 0 0-1.353-1.327c1.528-.818 1.863-1.415 2.024-2.547-2.008 2.457-7.534.275-8.04 4.486-.035.297-.047 1.761.106 2.467l1.415 1.85a1.47 1.47 0 0 1 1.266-1.44 1.46 1.46 0 0 1 1.598 1.05 1.478 1.478 0 0 1-.795 1.75 1.66 1.66 0 0 0 1.6-1.011 3.692 3.692 0 0 1-.882 2.704l.039.194c1.759-.379 2.78-1.658 2.985-3.105 1.11 2.023.753 4.187-.225 6.086l.162.135c1.814-1.622 2.398-3.649 2.194-6.053.59 1.242.596 2.088.703 3.113l.218.113c1.774-3.197.467-7.094-3.014-8.465" fill="#F00"/><path d="M15.248 10.237c-.07 0-.14.002-.208.006a.245.245 0 0 0-.191.11.25.25 0 0 0-.026.221c.049.136.06.241.033.288-.06.1-.37.143-.62.178-.327.045-.697.096-.988.281-.356.227-.455.97-.235 1.766.25.902.862 1.73 1.723 2.328 1.074.747 2.516 1.159 4.29 1.225-.053.296-.201.609-.443.934a.25.25 0 0 0-.012.28.245.245 0 0 0 .256.11 2.03 2.03 0 0 0 1.052-.623c.085.557.286 1.235.751 1.706a.244.244 0 0 0 .418-.195c-.073-.879-.017-1.652.17-2.359.432-.12.616-.268.638-.287a.248.248 0 0 0-.064-.416c-.62-.262-1.096-1.141-1.515-1.916-.162-.3-.316-.585-.471-.821a6.47 6.47 0 0 0-2.012-2.024c-.824-.518-1.704-.792-2.546-.792" fill="#FDDF00"/><path d="M21.021 16.288c.492-.113.676-.27.676-.27-.956-.404-1.537-1.978-2.095-2.829-1.042-1.657-2.85-2.792-4.549-2.7.37 1.023-.99.606-1.675 1.041-.646.411-.357 4.758 5.915 4.87 0 .404-.157.842-.514 1.322.473-.096 1.172-.55 1.287-1.329h.001c-.008.173-.059 1.674.737 2.48-.074-.887-.027-1.753.217-2.585m-10.016.538l.326.095a51.88 51.88 0 0 0 2.021.532l.509.122.508.117a.424.424 0 0 0 .513-.356.427.427 0 0 0-.359-.483h-.002l-.51-.074-.51-.078a54.561 54.561 0 0 1-2.033-.358l-.506-.103-.252-.056a7.92 7.92 0 0 1-.25-.06l-.028-.007a.156.156 0 0 0-.089.004 3.675 3.675 0 0 1-.45.116l-.153.03-.153.027-.155.024a1.356 1.356 0 0 1-.156.02 2.11 2.11 0 0 1-.16.006l-.164-.002c-.055 0-.11-.001-.166.002a1.063 1.063 0 0 0-.33.062c-.055.02-.11.046-.164.077a.607.607 0 0 0-.157.137.61.61 0 0 0-.126.254.372.372 0 0 0-.008.096.262.262 0 0 0 .025.097.14.14 0 0 0 .141.077.121.121 0 0 1-.015-.073.117.117 0 0 1 .033-.061.39.39 0 0 1 .124-.078 1.67 1.67 0 0 1 .29-.086c.2-.042.403-.07.607-.093.195-.023.391-.042.588-.06l-.062.07-.29.316c-.048.055-.1.106-.156.152-.014.012-.026.021-.046.042a.525.525 0 0 0-.129.193.53.53 0 0 0 .1.508.407.407 0 0 0 .155.113l.005.004h.003l.005.002.008.003.016.005.03.01.055.016a.969.969 0 0 0 .11.024s-.02-.034-.057-.09a54.87 54.87 0 0 0-.048-.073l-.01-.013-.005-.007-.002-.004-.001-.001v-.001l.002.002c-.032-.044-.037-.075-.048-.119a.278.278 0 0 1 .057-.236.21.21 0 0 1 .042-.037l.01-.008.012-.007.035-.027c.029-.021.055-.046.083-.07.027-.024.055-.048.08-.073.108-.1.213-.201.31-.297.05-.048.095-.096.14-.14.043-.046.085-.088.123-.127l.072-.076.085.082.218.216.246.25c.043.043.082.088.117.135l.022.03a.126.126 0 0 1 .01.022l.016.04c.01.027.017.054.024.085a.26.26 0 0 1 0 .094c-.01.033-.009.054-.035.092l.003-.002-.002.002-.002.003-.003.006-.008.012-.014.022-.024.041c-.028.05-.04.083-.04.083l.082-.027.043-.015.023-.009.013-.005.006-.002.004-.001h.001l.001-.001.003-.002a.355.355 0 0 0 .122-.085.47.47 0 0 0 .039-.575l-.03-.043c-.016-.025-.036-.047-.054-.071l-.057-.07-.197-.228zm6.126 5.083l.065-.118.253-.46a52.89 52.89 0 0 0 .97-1.867l.233-.472.228-.473a.428.428 0 0 0-.228-.585.422.422 0 0 0-.548.244v.001l-.187.486-.19.484a55.65 55.65 0 0 1-.805 1.917l-.213.474-.11.235a8.075 8.075 0 0 1-.115.233l.183-.136a4.046 4.046 0 0 1-.275.08l-.14.035a5.278 5.278 0 0 1-.139.035l-.281.068a1.11 1.11 0 0 1-.071.018.895.895 0 0 1-.073.015c-.048.01-.098.017-.148.024a5.11 5.11 0 0 0-.155.021 1.502 1.502 0 0 0-.158.03.824.824 0 0 0-.443.264.531.531 0 0 0-.1.187.471.471 0 0 0-.01.246.31.31 0 0 0 .168.213.378.378 0 0 1 .12-.237.897.897 0 0 1 .218-.152c.159-.082.332-.136.506-.18.217-.053.438-.09.66-.114a3.582 3.582 0 0 1-.084.134l-.232.362a1.483 1.483 0 0 1-.128.177c-.012.014-.023.025-.04.049a.528.528 0 0 0-.095.213.528.528 0 0 0 .184.483c.056.045.134.08.173.084l.005.003h.003l.005.001.008.002.017.002.032.005.057.006a.98.98 0 0 0 .111.005l-.07-.08a20.895 20.895 0 0 1-.038-.04l-.022-.022-.012-.012-.006-.006-.003-.003-.001-.002h-.001l.003.001c-.038-.037-.049-.068-.067-.109a.278.278 0 0 1 .016-.242.21.21 0 0 1 .036-.044l.009-.01.01-.008.03-.032c.025-.026.047-.056.07-.084l.068-.086c.088-.117.176-.234.255-.346.041-.055.078-.11.114-.162l.1-.145c.062-.09.11-.17.145-.223l.003-.004.105.015c.088.013.192.028.302.046l.345.057a1.242 1.242 0 0 1 .208.052.118.118 0 0 1 .02.01c.014.008.025.017.037.025a.647.647 0 0 1 .069.053c.012.01.02.023.03.036.01.013.017.026.024.04.012.033.025.05.025.096 0-.001 0 .005.002-.003v.014l.001.014.001.027.005.047a.803.803 0 0 0 .015.09s.02-.024.05-.07a.296.296 0 0 0 .027-.037l.014-.021.007-.012.004-.005.002-.003.001-.002c.002-.007.001-.002.002-.004a.36.36 0 0 0 .05-.14.467.467 0 0 0-.302-.489l-.05-.018c-.028-.01-.057-.017-.085-.025a1637.024 1637.024 0 0 0-.427-.103c-.054-.014-.107-.023-.157-.034a493.268 493.268 0 0 0-.195-.038z" fill="#F00"/><path d="M13.607 4.952a.243.243 0 0 0-.063.008c-.392.105-1.101.487-.976 1.178a.247.247 0 0 0 .24.203.243.243 0 0 0 .109-.026l.068-.034c.086.04.185.06.294.06.255 0 .519-.112.597-.17a.247.247 0 0 0 .098-.164 1.47 1.47 0 0 0-.152-.926.245.245 0 0 0-.215-.129" fill="#FDDF00"/><path d="M13.731 5.971a1.22 1.22 0 0 0-.124-.772s-.916.245-.798.895L13 5.998c.22.212.675.014.73-.027" fill="#F00"/></g></svg>