<svg width="36" height="26" viewBox="0 0 36 26" xmlns="http://www.w3.org/2000/svg" xmlns:xlink="http://www.w3.org/1999/xlink"><title>BE-WLG</title><defs><rect id="a" width="36" height="26" rx="4"/><path d="M0 0c0 7.18 8.059 13 18 13V0H0z" id="c"/></defs><g fill="none" fill-rule="evenodd"><mask id="b" fill="#fff"><use xlink:href="#a"/></mask><use fill="#D8D8D8" xlink:href="#a"/><g mask="url(#b)"><path fill="#FDDF00" d="M0 13h36v13H0z"/><path fill="#F00" d="M0 0h18v13H0z"/><path fill="#F3F3F3" d="M18 0h18v13H18z"/><path fill="#F00" d="M18 0h18v4H18zM18 9h18v4H18z"/><path d="M9.56 2.83L10 9l2 1v1H6v-1l2-1 .44-6.17a.999.999 0 1 1 1.12 0z" fill="#FDDF00"/><path d="M7.476 6.34h-1.17V4.06H5.83v2.688h1.646v-.41zm5.329-1.43c-.022-.467-.366-.902-1.04-.902-.697 0-1.126.465-1.126 1.215v.348c0 .725.352 1.231 1.116 1.231.788 0 1.056-.545 1.056-.945v-.542h-1.05v.37h.595v.196c0 .291-.238.516-.597.516-.443 0-.642-.331-.642-.826v-.346c0-.565.28-.812.642-.812.298 0 .542.168.581.497h.465z" fill="#FDDF00"/><path d="M18 13c0 7.18-8.059 13-18 13V13h18z" fill="#F3F3F3"/><g transform="translate(18 13)"><mask id="d" fill="#fff"><use xlink:href="#c"/></mask><use fill="#FDDF00" xlink:href="#c"/><path d="M0 1.3h18v1.3H0V1.3zm0 2.6h18v1.3H0V3.9zm0 2.6h18v1.3H0V6.5zm0 2.6h18v1.3H0V9.1zm0 2.6h18V13H0v-1.3z" fill="#F00" mask="url(#d)"/></g><g transform="translate(4 15)" fill="#7ED321"><circle cx="3.5" cy="5.5" r="1.5"/><circle cx="5.5" cy="1.5" r="1.5"/><circle cx="1.5" cy="1.5" r="1.5"/></g><g fill="#F00"><path d="M14 23l-1 1s.75 1 2 1 2-1 2-1c-2.25.5-3-1-3-1zM20 23l-1 1s.75 1 2 1 2-1 2-1c-2.25.5-3-1-3-1zM17 20l-1 1s.75 1 2 1 2-1 2-1c-2.25.5-3-1-3-1z"/></g></g></g></svg>