<svg width="36" height="26" viewBox="0 0 36 26" xmlns="http://www.w3.org/2000/svg" xmlns:xlink="http://www.w3.org/1999/xlink"><title>BE-WLX</title><defs><rect id="a" width="36" height="26" rx="4"/><path d="M0 0v6.796C0 7.461.539 8 1.204 8h1.3c.318 0 .622.126.847.351L4 9l.649-.649c.225-.225.529-.351.847-.351h1.3C7.461 8 8 7.461 8 6.796V0H0z" id="c"/></defs><g fill="none" fill-rule="evenodd"><mask id="b" fill="#fff"><use xlink:href="#a"/></mask><use fill="#F3F3F3" xlink:href="#a"/><path fill="#E3001B" mask="url(#b)" d="M0 0h36v9H0z"/><path fill="#005EA8" mask="url(#b)" d="M0 17h36v9H0z"/><g mask="url(#b)"><g transform="translate(14 11)"><mask id="d" fill="#fff"><use xlink:href="#c"/></mask><use fill="#F2F2F2" xlink:href="#c"/><path d="M0 1h8v1H0V1zm0 2h8v1H0V3zm0 2h8v1H0V5zm0 2h8v2H0V7z" fill="#0036B6" mask="url(#d)"/></g><path d="M18.029 11.818c-.039-.168-.273-.182-.273-.182-.05.12 0 .203 0 .203l.273-.02zm1.16.524c.162.18.19.4-.01.687-.09.205.007.388.158.565a.526.526 0 0 1-.456-.292c-.21.251-.627.784.092.823-.187.104-.375.2-.597-.116.031.145.04.287-.029.414.003-.097.007-.194-.105-.328.012.265-.005.508-.154.651.006-.154.087-.303-.13-.475-.094-.091-.188-.183-.211-.369.036.28-.021.377-.092.45-.007-.168-.02-.333-.134-.454.033.308-.027.522-.193.631.01-.186.005-.37-.1-.555.06.401-.091.478-.222.585.04-.182.12-.363.005-.545-.083-.164-.191-.335-.038-.434-.35-.087-.55.097-.673.418-.113-.316-.033-.549.307-.666.038-.125.163-.159.327-.152-.187-.239.086-.588.298-.353-.302.034-.144.42.128.228.15-.14.288-.099.374-.046.16.156.372-.057.306-.208l-.214-.128c-.014.038-.013.078-.095.107-.029.011-.044.045-.044.104-.088-.081-.07-.162-.082-.243l-.068-.079.085-.05.014-.09.044.083.22.04c.01-.157.071-.336-.264-.35l-.034.103-.041-.09c-.213-.038-.283-.142-.245-.296-.153-.056-.052-.156.109-.129l.234-.144c.003-.122.096-.174.235-.162l.002-.004.76.035c.36-.224.314-.057.234.142.124.073.183.203.231.343.044.19.187.16.303.187-.067.163-.15.178-.235.162zm-2.922.318l.198.337c.084.175.03.235-.012.303.012.008.02.007.03.011.024-.012.048-.024.075-.035.042-.095.132-.15.266-.163a.357.357 0 0 1 .013-.255.324.324 0 0 1 .09-.118 1.548 1.548 0 0 0-.13-.112c-.196-.243-.644-.415-.435-.77.112-.087.36-.116.15-.339-.153-.165-.27-.032-.381.14-.014-.125.076-.349-.188-.24-.28.224-.103.283-.03.379-.092.018-.272-.128-.187.233.022.209.095.254.232.097l.124.211c-.112-.015-.225-.034-.103.254.087.219.18.317.288.067zm.736 1.586c-.016-.016-.034-.03-.051-.046l.048-.01a.316.316 0 0 0-.046-.144l-.023-.044c-.058-.113-.133-.257-.087-.374l-.034-.002h-.002c-.156.112-.307.25-.438.492-.21.23-.324.717-.682.536-.095-.107-.149-.363-.337-.122-.14.178-.002.286.173.384-.118.028-.338-.042-.207.222.24.268.278.077.36-.01.028.096-.091.299.24.172.197-.046.231-.127.069-.253l.187-.151c-.004.118-.01.238.25.08.198-.113.282-.22.033-.307l.298-.243c.113-.076.176-.072.228-.05a.686.686 0 0 0 .021-.131zm3.465 1.968c.148.038.263-.094.366-.293-.087.083-.172.12-.25.05-.114-.108-.212-.124-.298-.08.099-.065.17-.156.144-.344-.064-.32.247-.119.27-.01-.075-.422-.418-.375-.424-.05-.022.144-.109.177-.24.131-.17-.057-.322-.08-.385.07-.132-.561-.388-1.038-.704-1.471a.548.548 0 0 1-.252.077.364.364 0 0 1-.23-.088.539.539 0 0 1-.06.251.064.064 0 0 1-.112.002c0 .005-.004.01-.004.015.439.362.53.739.449 1.124-.136.322-.029.562.154.777.084.13.102.263.019.404-.086.12-.088.387.24.354-.188-.063-.143-.287.039-.343.124-.062.177-.153.134-.283.25.102.387-.053.51-.242.018.117.097.236.192.353.201.462-.14.63-.336.404-.083-.276-.252-.222-.26-.07l.144.231c-.49-.104-.25.11-.26.213.136.302.292.148.453-.11-.152.216-.108.31.086.312.28.04.292-.077.202-.252l.192-.041c.058.112.121.206.279.04.19-.103.047-.191-.029-.282.34-.292.142-.57-.029-.849zm-2.554-1.891c-.035-.035-.072-.07-.106-.113a.398.398 0 0 1-.107.192.063.063 0 0 1-.046.02.065.065 0 0 1-.024-.005.068.068 0 0 1-.041-.062 2.213 2.213 0 0 0-.009-.13c-.01.061-.034.11-.057.16.13.053.288.077.492.058a.336.336 0 0 0-.102-.12zm.89-.293a7.384 7.384 0 0 0-.164-.202.182.182 0 0 0 .004.096c.019.048.076.083.16.106zm-.493 1.687l.378-.243a.927.927 0 0 0-.052-.447.676.676 0 0 1-.398.039c-.324-.012-.643-.007-.84.363-.14.07-.215.207-.52.101-.683-.221-.519.603-.116.44-.109.034-.291-.084-.139-.258.078-.076.187.015.288.066l.154.111c-.1.448.324.425.505.414l-.298.394c-.184.143-.378.388-.538.242.088-.259-.06-.456-.197-.267l-.097.217c-.107-.029-.153.02-.14.146-.11.384.074.264.222.208-.012.074-.18.125.087.242.352.169.278-.08.379-.156-.01.168.02.277.207.151.25.01.227-.102.12-.253l.539-.323c-.042.196.124.268.22.152-.214.029-.142-.233-.033-.333.104.127.194.287.409.181-.293-.09-.252-.344-.12-.475.414-.373.29-.758-.02-.712zm2.625-2.511c-.09-.007-.186-.025-.274-.007-.099.02-.16.073-.161.092.078.004.127.076.168.137.078.113.053.208.053.208-.143-.126-.393-.029-.548.013a.491.491 0 0 1-.351-.043c-.069.129-.023.258.08.357.242.233.358.581.289.865a.568.568 0 0 1-.428.429.8.8 0 0 1-.167.022 3.96 3.96 0 0 0-.138-.337.468.468 0 0 0 .236.003.257.257 0 0 0 .204-.198c.041-.168-.04-.394-.2-.547a.62.62 0 0 1-.154-.724.576.576 0 0 1 .116-.162c-.021-.251.152-.512.131-.656.113-.011.263.17.265.28.074-.128.19-.282.143-.536.193.306.588.199.678-.077.149.317.06.475-.116.522-.047.012-.112.024-.126.078.119.007.266.17.3.28z" fill="#F00"/><path d="M15.842 11.554c-.013-.006-.032-.025-.032-.032a.42.42 0 0 0-.03-.092.173.173 0 0 0-.09-.088.135.135 0 0 0-.056-.01c-.02 0-.044 0-.052.002-.01.002-.016.003-.017.002a.23.23 0 0 1 .047-.048.223.223 0 0 1 .29.008c.032.029.07.078.076.102a.174.174 0 0 1 .003.063.129.129 0 0 1-.063.083.076.076 0 0 1-.043.012.079.079 0 0 1-.033-.002zm.62.044a.181.181 0 0 1-.051-.022.1.1 0 0 1-.042-.075c0-.02.005-.032.022-.046a.357.357 0 0 0 .067-.077c.038-.066.035-.134-.011-.205a.116.116 0 0 1-.012-.02.253.253 0 0 1 .17.142c.015.037.019.06.017.105a.327.327 0 0 1-.042.144.118.118 0 0 1-.118.054zm-.952.602a.245.245 0 0 1-.024-.098c-.006-.13.068-.223.206-.259a.088.088 0 0 1 .043-.003.124.124 0 0 1 .092.073c.018.043.012.092-.014.118-.015.015-.028.019-.048.015a.349.349 0 0 0-.054-.003.185.185 0 0 0-.101.022.193.193 0 0 0-.086.128.114.114 0 0 1-.006.02s-.005-.006-.008-.013zm.34.522a.234.234 0 0 1-.172-.147.213.213 0 0 1-.016-.062l.023.017c.088.068.178.055.266-.04.018-.02.027-.024.044-.024.038 0 .075.037.088.087a.124.124 0 0 1-.063.14.29.29 0 0 1-.17.029zm-.525 1.92c-.022-.01-.03-.021-.037-.05a.355.355 0 0 0-.045-.104.167.167 0 0 0-.07-.057.203.203 0 0 0-.114-.008l-.012.002.014-.017a.239.239 0 0 1 .16-.081c.087-.006.162.037.226.13a.125.125 0 0 1-.07.185.066.066 0 0 1-.052-.001zm.976.6c.084-.078.09-.17.02-.279-.014-.022-.017-.028-.017-.04 0-.053.066-.095.127-.083.028.006.05.02.07.046.016.02.017.021.023.054a.39.39 0 0 1 .002.137.227.227 0 0 1-.07.122.229.229 0 0 1-.143.06l-.033.002.021-.02v.001zm-1.191.04a.287.287 0 0 1-.014-.156c.023-.106.1-.174.222-.193a.114.114 0 0 1 .124.074.101.101 0 0 1 .008.049c0 .025 0 .03-.007.046a.07.07 0 0 1-.038.039c-.012.005-.013.005-.036 0a.384.384 0 0 0-.116-.006c-.064.013-.112.062-.134.14l-.005.016-.004-.01zm.756.277a.23.23 0 0 1-.173-.176.338.338 0 0 1 .006-.163.13.13 0 0 1 .054-.056.126.126 0 0 1 .09-.007c.032.011.057.035.063.06.004.018.003.026-.01.047a.253.253 0 0 0-.038.168.2.2 0 0 0 .075.114c.011.008.02.016.019.017a.263.263 0 0 1-.086-.004zm.604 1.273c-.014-.009-.015-.01-.03-.045a.262.262 0 0 0-.053-.086.162.162 0 0 0-.061-.043.205.205 0 0 0-.115-.001l-.026.007a.245.245 0 0 1 .146-.118.239.239 0 0 1 .108-.002.316.316 0 0 1 .138.088c.027.03.033.046.033.086a.102.102 0 0 1-.008.049.118.118 0 0 1-.094.073c-.02.001-.023 0-.038-.008zm3.012.241a.039.039 0 0 1-.027-.014c-.072-.077-.156-.1-.23-.062a.297.297 0 0 0-.058.043l-.007.009v-.008a.25.25 0 0 1 .122-.192.185.185 0 0 1 .11-.026.294.294 0 0 1 .117.025c.039.017.064.05.071.093a.139.139 0 0 1-.027.101c-.02.026-.044.036-.07.031zm-3.498.114a.267.267 0 0 1 .083-.212.25.25 0 0 1 .251-.038.123.123 0 0 1 .061.098c.004.06-.032.114-.074.114-.012 0-.02-.003-.043-.016-.056-.03-.106-.042-.15-.033a.205.205 0 0 0-.117.09l-.01.013-.001-.016zm3.19.403a.333.333 0 0 1-.022-.04c-.061-.138-.009-.274.133-.343.029-.014.041-.016.067-.012a.118.118 0 0 1 .09.07c.008.017.01.025.011.047.001.03-.004.046-.021.063-.011.012-.011.012-.055.017-.103.011-.163.059-.182.146a.192.192 0 0 0-.004.034c0 .009-.001.02-.003.025v.01l-.013-.017zm1.341.015a.266.266 0 0 0 .037-.094.181.181 0 0 0-.03-.123.369.369 0 0 0-.063-.068.056.056 0 0 1-.023-.049c0-.056.071-.108.132-.096a.141.141 0 0 1 .059.029.292.292 0 0 1 .057.244.247.247 0 0 1-.153.167c-.028.01-.03.009-.016-.01zm-3.998.107a.264.264 0 0 1-.114-.164.295.295 0 0 1 0-.089.336.336 0 0 1 .08-.153.117.117 0 0 1 .11-.032c.063.017.106.087.084.137-.007.016-.01.018-.034.03a.234.234 0 0 0-.117.113.108.108 0 0 0-.012.053.226.226 0 0 0 .012.09.123.123 0 0 1 .006.022l-.015-.007zm.555.028l-.01-.002.02-.015c.087-.066.105-.147.06-.254a.415.415 0 0 0-.017-.035c-.008-.013-.008-.035.001-.053.025-.05.106-.066.16-.03a.16.16 0 0 1 .043.055c.005.013.007.018.007.073a.251.251 0 0 1-.017.114.23.23 0 0 1-.247.147zm2.83.103a.239.239 0 0 1-.182-.179.344.344 0 0 1 .023-.194.135.135 0 0 1 .061-.05.095.095 0 0 1 .046-.004.103.103 0 0 1 .066.025.076.076 0 0 1 .033.063c0 .017-.001.019-.017.041-.043.056-.062.102-.062.15a.19.19 0 0 0 .053.127l.022.026h-.01l-.033-.005z" fill="#0014FF"/><path d="M21.444 10.502a2.05 2.05 0 0 0 .556-1.4C22 7.94 21.023 7 19.818 7A2.2 2.2 0 0 0 18 7.94 2.203 2.203 0 0 0 16.182 7C14.977 7 14 7.94 14 9.101c0 .538.21 1.03.556 1.401h6.888z" fill="#9B0A1B"/><path d="M17.2 9.802H14v.7h8v-.7h-3.2V7h-1.6v2.802z" fill="#F8E81C"/></g></g></svg>