<svg width="36" height="26" viewBox="0 0 36 26" xmlns="http://www.w3.org/2000/svg" xmlns:xlink="http://www.w3.org/1999/xlink"><title>BE-WBR</title><defs><rect id="a" width="36" height="26" rx="4"/></defs><g fill="none" fill-rule="evenodd"><mask id="b" fill="#fff"><use xlink:href="#a"/></mask><use fill="#FDDF00" xlink:href="#a"/><path fill="#000" mask="url(#b)" d="M0 26L18 0l18 26z"/><g mask="url(#b)"><path d="M28.994 1.022a.436.436 0 0 0-.335.158l-.009-.046a.112.112 0 0 0-.11-.09l-.022.001a.487.487 0 0 0-.302.192.111.111 0 0 0-.13-.036.49.49 0 0 0-.297.327.106.106 0 0 0-.026-.003.11.11 0 0 0-.074.029.675.675 0 0 0-.225.609c.023.173.097.3.1.305a.111.111 0 0 0 .104.054l1.044-.074a.11.11 0 0 0 .051-.016c.247-.154.402-.345.463-.569.06-.227.022-.489-.115-.777a.111.111 0 0 0-.096-.063.51.51 0 0 0-.02 0" fill="#FDDF00"/><path d="M27.66 2.41s-.262-.441.103-.773l.125.18s-.091-.377.24-.512l.079.33s-.015-.407.334-.48l.07.372s.076-.406.4-.392c.255.535.133.928-.306 1.201l-1.045.074z" fill="#F00"/><path d="M28.515 6.89a.11.11 0 0 0-.041.009l-.724.288a.456.456 0 0 0-.287.463c.012.143.053.28.123.408a.763.763 0 0 0 .88.366l.846-.244a.113.113 0 0 0 .06-.174l-.767-1.069a.111.111 0 0 0-.09-.046" fill="#FDDF00"/><path d="M28.515 7.003l-.724.288a.347.347 0 0 0-.217.35c.01.125.046.246.11.363.147.268.46.396.752.312l.846-.244-.767-1.069z" fill="#F00"/><path d="M28.235 1.908a.65.65 0 0 0-.597.383c-.1.224-.058.481.111.72-.496.297-.875.643-1.127 1.03a2.11 2.11 0 0 0-.356 1.181c.003.362.105.72.293 1.035.176.293.421.534.69.678l1.132.605a.11.11 0 0 0 .107 0 .112.112 0 0 0 .056-.092l.147-2.522v-.024c-.047-.302.059-.515.18-.762.179-.36.38-.769.148-1.519-.139-.446-.431-.713-.784-.713" fill="#FDDF00"/><path d="M28.58 4.92c-.122-.802.71-1.045.333-2.265-.379-1.22-1.746-.45-.995.389-2.289 1.284-1.616 3.257-.616 3.792l1.131.605.147-2.522z" fill="#F00"/><path d="M28.351 6.73a.113.113 0 0 0-.111.111c-.004.436.1.818.309 1.138.222.34.572.62 1.04.831a.458.458 0 0 0 .633-.331l.222-1.142a.112.112 0 0 0-.083-.13l-1.984-.474a.11.11 0 0 0-.026-.003" fill="#FDDF00"/><path d="M28.351 6.842c-.007.798.354 1.446 1.283 1.866a.344.344 0 0 0 .478-.25l.223-1.142-1.984-.474z" fill="#F00"/><path d="M33.446 2.36a.11.11 0 0 0-.083.037.112.112 0 0 0-.004.004c-.355.435-.977.526-1.636.622-.456.067-.928.136-1.301.334-.434.23-.676.602-.741 1.14-.018.15-.023.826.05 1.159.003.016.01.032.02.045l.644.84a.111.111 0 0 0 .2-.067.56.56 0 0 1 .552-.55c.244 0 .463.166.53.403a.563.563 0 0 1-.3.662.113.113 0 0 0 .041.215h.04a.86.86 0 0 0 .57-.216 1.572 1.572 0 0 1-.362.799.113.113 0 0 0-.026.096l.018.088a.112.112 0 0 0 .11.09 1.876 1.876 0 0 0 1.025-.56c.165-.18.289-.393.366-.626.132.333.185.688.159 1.06a3.42 3.42 0 0 1-.395 1.317.113.113 0 0 0 .028.139l.074.061a.11.11 0 0 0 .144-.002c.419-.375.704-.796.874-1.29.091-.266.147-.548.169-.852.037.184.054.359.071.546l.019.187c.004.037.026.07.06.088l.098.051a.11.11 0 0 0 .149-.044c.206-.372.328-.769.363-1.18a2.756 2.756 0 0 0-.76-2.147 2.886 2.886 0 0 0-.997-.668 1.944 1.944 0 0 0-.474-.504c.602-.354.744-.652.815-1.145a.112.112 0 0 0-.11-.132z" fill="#FDDF00"/><path d="M33.141 4.233a1.812 1.812 0 0 0-.615-.604c.695-.371.847-.642.92-1.157-.913 1.117-3.424.125-3.655 2.039-.016.135-.021.8.048 1.121l.644.84a.664.664 0 0 1 1.302-.177.672.672 0 0 1-.362.796.754.754 0 0 0 .727-.46c.036.448-.108.891-.4 1.23l.017.088c.8-.172 1.264-.753 1.357-1.411.504.919.342 1.903-.102 2.766l.073.062c.825-.738 1.09-1.66.998-2.752.268.565.27.95.32 1.415l.098.052c.807-1.454.213-3.225-1.37-3.848" fill="#F00"/><path d="M28.295 4.744c-.032 0-.064.001-.095.003a.111.111 0 0 0-.087.05.113.113 0 0 0-.012.1c.023.062.028.11.015.131-.027.046-.168.065-.282.08-.148.021-.316.045-.449.129-.162.103-.206.44-.106.802.113.41.391.787.783 1.059.488.34 1.144.526 1.95.557a1.03 1.03 0 0 1-.202.424.113.113 0 0 0-.005.127.111.111 0 0 0 .116.05.923.923 0 0 0 .478-.283c.04.253.13.561.342.776a.11.11 0 0 0 .19-.09 3.133 3.133 0 0 1 .077-1.071.786.786 0 0 0 .29-.13.113.113 0 0 0-.029-.19c-.282-.12-.498-.519-.688-.87a5.225 5.225 0 0 0-.215-.374 2.941 2.941 0 0 0-.914-.92 2.193 2.193 0 0 0-1.157-.36" fill="#FDDF00"/><path d="M30.919 7.495c.223-.052.307-.123.307-.123-.434-.184-.699-.9-.953-1.286-.473-.753-1.295-1.27-2.067-1.227.168.465-.45.275-.761.473-.294.187-.163 2.162 2.688 2.213 0 .184-.071.383-.234.602.215-.044.533-.25.585-.605h.001c-.004.079-.027.761.335 1.127a3.203 3.203 0 0 1 .099-1.174m-4.553.244l.148.043a23.582 23.582 0 0 0 .919.242l.231.055.231.054.016.003a.193.193 0 0 0 .217-.165.194.194 0 0 0-.163-.22l-.233-.033-.232-.036a24.8 24.8 0 0 1-.924-.163l-.23-.046-.114-.026a3.6 3.6 0 0 1-.114-.027l-.012-.003a.071.071 0 0 0-.04.002 1.421 1.421 0 0 1-.206.052l-.069.014c-.023.004-.046.009-.07.012l-.07.011a.616.616 0 0 1-.071.009.96.96 0 0 1-.073.003h-.074a1.042 1.042 0 0 0-.151.008.463.463 0 0 0-.15.055.276.276 0 0 0-.07.063.277.277 0 0 0-.058.115.17.17 0 0 0-.004.043.121.121 0 0 0 .012.045c.015.027.04.037.064.035a.055.055 0 0 1-.007-.033.053.053 0 0 1 .015-.028.177.177 0 0 1 .056-.036.759.759 0 0 1 .132-.039 3 3 0 0 1 .276-.042c.089-.01.178-.02.267-.027l-.028.031-.131.144a.671.671 0 0 1-.071.07l-.022.018a.239.239 0 0 0-.059.088.241.241 0 0 0 .046.23.185.185 0 0 0 .071.052l.002.002h.002l.002.001.003.001.008.003.013.004.025.007a.44.44 0 0 0 .05.011l-.026-.04a24.981 24.981 0 0 0-.021-.034l-.005-.006-.002-.003-.001-.001v-.001c.002.001 0 0 0 0-.014-.02-.016-.034-.022-.054a.127.127 0 0 1 .026-.107.096.096 0 0 1 .02-.017l.004-.003.005-.004c.002 0 .01-.007.016-.012a.379.379 0 0 0 .038-.032l.037-.033c.048-.045.097-.091.14-.135L26 7.795l.056-.057.033-.035.038.038.1.098.111.114c.02.019.038.04.054.06l.01.015a.057.057 0 0 1 .004.01l.007.018a.299.299 0 0 1 .011.038.095.095 0 0 1 .002.021c0 .007 0 .015-.002.022-.004.015-.004.024-.016.042l.002-.001h-.001l-.001.002-.002.003-.003.005-.007.01-.01.019c-.013.023-.019.037-.019.037s.014-.003.037-.012l.02-.006.01-.005.006-.002h.003l.002-.001h.001l.001-.002a.161.161 0 0 0 .056-.038.213.213 0 0 0 .018-.261l-.014-.02-.025-.032-.026-.032-.089-.104zm2.784 2.311l.03-.054.115-.21a24.04 24.04 0 0 0 .441-.848l.106-.214.103-.216a.195.195 0 0 0-.104-.266.192.192 0 0 0-.248.112l-.085.221-.087.22a25.295 25.295 0 0 1-.365.871l-.097.216-.05.107a3.67 3.67 0 0 1-.053.106l.084-.062a1.839 1.839 0 0 1-.126.036l-.063.016-.063.016-.128.031a.505.505 0 0 1-.065.015l-.068.01a2.323 2.323 0 0 0-.142.024.375.375 0 0 0-.201.12.241.241 0 0 0-.046.085.214.214 0 0 0-.004.112c.01.039.033.077.076.097a.172.172 0 0 1 .055-.108.408.408 0 0 1 .099-.07 1.12 1.12 0 0 1 .23-.081c.098-.024.199-.04.3-.052l-.038.061-.106.165a.674.674 0 0 1-.058.08l-.018.022a.24.24 0 0 0-.043.097.24.24 0 0 0 .084.22c.025.02.06.036.078.038l.002.001h.004l.003.001.008.002.014.002a18.273 18.273 0 0 1 .064.005h.013s-.011-.014-.032-.036a9.504 9.504 0 0 1-.027-.029l-.006-.005-.002-.003-.002-.001v-.001c.002.001 0 0 0 0-.017-.017-.021-.03-.03-.05a.126.126 0 0 1 .008-.11.096.096 0 0 1 .016-.02l.004-.004.004-.004.014-.014c.012-.012.021-.025.032-.038l.03-.04c.041-.052.08-.106.117-.156.019-.025.035-.05.051-.074l.046-.066c.028-.041.05-.077.066-.101l.001-.002.048.006.137.021.157.026c.027.004.053.01.079.018.006.002.014.004.016.006a.054.054 0 0 1 .01.005l.016.01.031.025c.005.005.01.01.013.016a.088.088 0 0 1 .011.019c.006.015.012.022.012.043v-.001.006l.001.006v.012l.003.021a.365.365 0 0 0 .007.042l.023-.032.012-.017.006-.01.004-.005.001-.003h.001v-.002l.001-.001a.164.164 0 0 0 .023-.064.212.212 0 0 0-.137-.222l-.023-.008c-.012-.005-.026-.008-.039-.012-.013-.004-.026-.008-.039-.01l-.155-.037-.071-.015a224.215 224.215 0 0 0-.089-.018z" fill="#F00"/><path d="M27.549 2.342a.11.11 0 0 0-.029.004c-.178.047-.5.22-.444.535a.112.112 0 0 0 .11.092.11.11 0 0 0 .049-.011l.031-.016a.32.32 0 0 0 .134.027.552.552 0 0 0 .27-.077.112.112 0 0 0 .045-.075.668.668 0 0 0-.069-.42.111.111 0 0 0-.097-.06" fill="#FDDF00"/></g><g mask="url(#b)"><path d="M7.006 1.022c.147 0 .257.068.335.158l.009-.046a.112.112 0 0 1 .11-.09l.022.001c.14.03.236.103.302.192a.111.111 0 0 1 .13-.036.49.49 0 0 1 .297.327.106.106 0 0 1 .026-.003.11.11 0 0 1 .074.029.675.675 0 0 1 .225.609.875.875 0 0 1-.1.305.111.111 0 0 1-.104.054l-1.044-.074a.11.11 0 0 1-.051-.016c-.247-.154-.402-.345-.463-.569-.06-.227-.022-.489.115-.777a.111.111 0 0 1 .096-.063.51.51 0 0 1 .02 0" fill="#FDDF00"/><path d="M8.34 2.41s.262-.441-.103-.773l-.125.18s.091-.377-.24-.512l-.079.33s.015-.407-.334-.48l-.07.372s-.076-.406-.4-.392c-.255.535-.133.928.306 1.201l1.045.074z" fill="#F00"/><path d="M7.485 6.89a.11.11 0 0 1 .041.009l.724.288c.187.075.303.26.287.463a1.01 1.01 0 0 1-.123.408.763.763 0 0 1-.88.366l-.846-.244a.113.113 0 0 1-.06-.174l.767-1.069a.111.111 0 0 1 .09-.046" fill="#FDDF00"/><path d="M7.485 7.003l.724.288c.14.056.229.198.217.35a.892.892 0 0 1-.11.363.652.652 0 0 1-.752.312l-.846-.244.767-1.069z" fill="#F00"/><path d="M7.765 1.908c.26 0 .495.15.597.383.1.224.058.481-.111.72.496.297.875.643 1.127 1.03.24.371.36.768.356 1.181-.003.362-.105.72-.293 1.035a1.85 1.85 0 0 1-.69.678l-1.132.605a.11.11 0 0 1-.107 0 .112.112 0 0 1-.056-.092l-.147-2.522v-.024c.047-.302-.059-.515-.18-.762-.179-.36-.38-.769-.148-1.519.139-.446.431-.713.784-.713" fill="#FDDF00"/><path d="M7.42 4.92c.122-.802-.71-1.045-.333-2.265.379-1.22 1.746-.45.995.389 2.289 1.284 1.616 3.257.616 3.792l-1.131.605L7.42 4.92z" fill="#F00"/><path d="M7.649 6.73a.113.113 0 0 1 .111.111c.004.436-.1.818-.309 1.138-.222.34-.572.62-1.04.831a.458.458 0 0 1-.633-.331l-.222-1.142a.112.112 0 0 1 .083-.13l1.984-.474a.11.11 0 0 1 .026-.003" fill="#FDDF00"/><path d="M7.649 6.842c.007.798-.354 1.446-1.283 1.866a.344.344 0 0 1-.478-.25l-.223-1.142 1.984-.474z" fill="#F00"/><path d="M2.554 2.36a.11.11 0 0 1 .083.037.112.112 0 0 1 .004.004c.355.435.977.526 1.636.622.456.067.928.136 1.301.334.434.23.676.602.741 1.14.018.15.023.826-.05 1.159a.113.113 0 0 1-.02.045l-.644.84a.111.111 0 0 1-.2-.067.56.56 0 0 0-.552-.55.556.556 0 0 0-.53.403.563.563 0 0 0 .3.662.113.113 0 0 1-.041.215h-.04a.86.86 0 0 1-.57-.216c.043.294.168.573.362.799a.113.113 0 0 1 .026.096l-.018.088a.112.112 0 0 1-.11.09 1.876 1.876 0 0 1-1.025-.56 1.739 1.739 0 0 1-.366-.626 2.404 2.404 0 0 0-.159 1.06c.03.423.163.867.395 1.317a.113.113 0 0 1-.028.139l-.074.061a.11.11 0 0 1-.144-.002 3.016 3.016 0 0 1-.874-1.29 3.317 3.317 0 0 1-.169-.852 4.996 4.996 0 0 0-.071.546l-.019.187a.112.112 0 0 1-.06.088l-.098.051a.11.11 0 0 1-.149-.044 2.923 2.923 0 0 1-.363-1.18 2.756 2.756 0 0 1 .76-2.147c.278-.287.613-.511.997-.668.128-.196.29-.368.474-.504-.602-.354-.744-.652-.815-1.145a.112.112 0 0 1 .11-.132z" fill="#FDDF00"/><path d="M2.859 4.233c.16-.256.374-.462.615-.604-.695-.371-.847-.642-.92-1.157.913 1.117 3.424.125 3.655 2.039.016.135.021.8-.048 1.121l-.644.84a.664.664 0 0 0-1.302-.177.672.672 0 0 0 .362.796.754.754 0 0 1-.727-.46c-.036.448.108.891.4 1.23l-.017.088c-.8-.172-1.264-.753-1.357-1.411-.504.919-.342 1.903.102 2.766l-.073.062c-.825-.738-1.09-1.66-.998-2.752-.268.565-.27.95-.32 1.415l-.098.052c-.807-1.454-.213-3.225 1.37-3.848" fill="#F00"/><path d="M7.705 4.744c.032 0 .064.001.095.003a.11.11 0 0 1 .087.05c.02.03.024.067.012.1-.023.062-.028.11-.015.131.027.046.168.065.282.08.148.021.316.045.449.129.162.103.206.44.106.802-.113.41-.391.787-.783 1.059-.488.34-1.144.526-1.95.557.024.134.092.276.202.424.027.037.03.088.005.127a.111.111 0 0 1-.116.05.923.923 0 0 1-.478-.283c-.04.253-.13.561-.342.776a.11.11 0 0 1-.19-.09c.033-.399.008-.75-.077-1.071a.786.786 0 0 1-.29-.13.113.113 0 0 1 .029-.19c.282-.12.498-.519.688-.87.074-.137.144-.266.215-.374a2.94 2.94 0 0 1 .914-.92c.375-.235.775-.36 1.157-.36" fill="#FDDF00"/><path d="M5.081 7.495c-.223-.052-.307-.123-.307-.123.434-.184.699-.9.953-1.286.473-.753 1.295-1.27 2.067-1.227-.168.465.45.275.761.473.294.187.163 2.162-2.688 2.213 0 .184.071.383.234.602-.215-.044-.533-.25-.585-.605h-.001c.004.079.027.761-.335 1.127a3.203 3.203 0 0 0-.099-1.174m4.553.244l-.148.043a23.582 23.582 0 0 1-.919.242l-.231.055-.231.054a.193.193 0 0 1-.233-.162.194.194 0 0 1 .163-.22l.233-.033.232-.036a24.8 24.8 0 0 0 .924-.163l.23-.046.114-.026a3.6 3.6 0 0 0 .114-.027l.012-.003a.071.071 0 0 1 .04.002 1.421 1.421 0 0 0 .206.052l.069.014c.023.004.046.009.07.012l.07.011a.616.616 0 0 0 .071.009.96.96 0 0 0 .073.003h.074a1.042 1.042 0 0 1 .151.008.463.463 0 0 1 .15.055.276.276 0 0 1 .07.063.277.277 0 0 1 .058.115.17.17 0 0 1 .004.043.121.121 0 0 1-.012.045.064.064 0 0 1-.064.035.055.055 0 0 0 .007-.033.053.053 0 0 0-.015-.028.177.177 0 0 0-.056-.036.759.759 0 0 0-.132-.039 3 3 0 0 0-.276-.042c-.089-.01-.178-.02-.267-.027l.028.031.131.144a.671.671 0 0 0 .071.07l.022.018a.239.239 0 0 1 .059.088.241.241 0 0 1-.046.23.185.185 0 0 1-.071.052l-.002.002h-.002l-.002.001-.003.001-.008.003-.013.004-.025.007a.44.44 0 0 1-.037.009l-.013.002.026-.04a24.981 24.981 0 0 1 .021-.034l.005-.006.002-.003.001-.001v-.001c-.002.001 0 0 0 0 .014-.02.016-.034.022-.054a.127.127 0 0 0-.026-.107.096.096 0 0 0-.02-.017l-.004-.003-.005-.004c-.002 0-.01-.007-.016-.012a.379.379 0 0 1-.038-.032l-.037-.033a7.147 7.147 0 0 1-.14-.135L10 7.795l-.056-.057a1.763 1.763 0 0 1-.033-.035 2.871 2.871 0 0 0-.038.038l-.1.098-.111.114a.552.552 0 0 0-.054.06l-.01.015a.057.057 0 0 0-.004.01l-.007.018a.299.299 0 0 0-.011.038.095.095 0 0 0-.002.021c0 .007 0 .015.002.022.004.015.004.024.016.042l-.002-.001h.001l.001.002.002.003.003.005.007.01.01.019c.013.023.019.037.019.037s-.014-.003-.037-.012l-.02-.006a2.647 2.647 0 0 1-.01-.005L9.56 8.23h-.003l-.002-.001h-.001l-.001-.002a.161.161 0 0 1-.056-.038.213.213 0 0 1-.018-.261l.014-.02.025-.032.026-.032.089-.104zM6.85 10.05l-.03-.054-.115-.21a24.04 24.04 0 0 1-.441-.848l-.106-.214-.103-.216a.195.195 0 0 1 .104-.266.192.192 0 0 1 .248.112l.085.221.087.22a25.295 25.295 0 0 0 .365.871l.097.216.05.107.053.106-.084-.062c.042.014.084.025.126.036l.063.016.063.016.128.031a.505.505 0 0 0 .065.015l.068.01a2.323 2.323 0 0 1 .142.024.375.375 0 0 1 .201.12c.02.023.035.051.046.085.01.033.013.073.004.112a.141.141 0 0 1-.076.097.172.172 0 0 0-.055-.108.408.408 0 0 0-.099-.07 1.062 1.062 0 0 0-.23-.081 2.393 2.393 0 0 0-.3-.052l.038.061.106.165a.674.674 0 0 0 .058.08l.018.022a.24.24 0 0 1 .043.097.24.24 0 0 1-.084.22.184.184 0 0 1-.078.038l-.002.001H7.3l-.003.001-.008.002-.014.002a18.273 18.273 0 0 0-.064.005H7.2s.011-.014.032-.036a9.504 9.504 0 0 0 .027-.029l.006-.005.002-.003.002-.001v-.001c-.002.001 0 0 0 0 .017-.017.021-.03.03-.05a.126.126 0 0 0-.008-.11.096.096 0 0 0-.016-.02l-.004-.004-.004-.004-.014-.014c-.012-.012-.021-.025-.032-.038l-.03-.04a7.108 7.108 0 0 1-.117-.156c-.019-.025-.035-.05-.051-.074a79.21 79.21 0 0 1-.046-.066c-.028-.041-.05-.077-.066-.101l-.001-.002-.048.006-.137.021-.157.026a.542.542 0 0 0-.079.018c-.006.002-.014.004-.016.006a.054.054 0 0 0-.01.005l-.016.01a.294.294 0 0 0-.031.025.094.094 0 0 0-.013.016.088.088 0 0 0-.011.019c-.006.015-.012.022-.012.043v-.001.006l-.001.006v.012l-.003.021c-.003.026-.007.042-.007.042l-.023-.032-.012-.017a3.113 3.113 0 0 0-.006-.01l-.004-.005-.001-.003H6.32v-.002l-.001-.001a.164.164 0 0 1-.023-.064.212.212 0 0 1 .137-.222l.023-.008c.012-.005.026-.008.039-.012.013-.004.026-.008.039-.01l.155-.037.071-.015a224.215 224.215 0 0 1 .089-.018z" fill="#F00"/><path d="M8.451 2.342c.01 0 .02.001.029.004.178.047.5.22.444.535a.112.112 0 0 1-.11.092.11.11 0 0 1-.049-.011l-.031-.016a.317.317 0 0 1-.134.027.552.552 0 0 1-.27-.077.112.112 0 0 1-.045-.075.668.668 0 0 1 .069-.42.111.111 0 0 1 .097-.06" fill="#FDDF00"/></g><g mask="url(#b)"><path d="M25.102 12.021h-.01c-.053 0-.1.052-.118.104a.74.74 0 0 1-.698.478.715.715 0 0 1-.606-.334.136.136 0 0 0-.164-.048.137.137 0 0 0-.081.152c.069.353-.034.604-.16.819-.135-.225-.383-.43-.61-.43h-.038a.136.136 0 0 0-.093.053.131.131 0 0 0-.028.104c.016.104-.048.284-.116.473-.093.262-.199.557-.188.862a1.33 1.33 0 0 0-.247.34c-.226.455-.244 1.145.382 1.715.322.292.496.73.416 1.042-.045.172-.164.278-.366.326a1.058 1.058 0 0 1-.237.027c-.527 0-.85-.422-.864-.44a.48.48 0 0 0-.775.566c.053.073.542.716 1.396.821a1.933 1.933 0 0 0 .699-.04c.548-.13.94-.5 1.075-1.019.17-.657-.11-1.458-.698-1.993-.104-.094-.25-.27-.2-.483a1.312 1.312 0 0 0 .76.041l.142-.038c.202-.056.432-.119.64-.119.15 0 .264.033.347.103a.135.135 0 0 0 .217-.069c.008-.027.068-.276-.14-.563-.058-.08-.126-.175-.219-.246a.703.703 0 0 1 .117-.032.9.9 0 0 1 .17-.015c.09 0 .18.049.269.057.05.004.102.052.15.052h.01c.041 0 .08-.059.107-.091a.181.181 0 0 0 .022-.145 1.264 1.264 0 0 0-.503-.604c.25-.067.408-.195.488-.37.11-.24.068-.575-.126-.966-.024-.046-.07-.09-.122-.09" fill="#000"/><path d="M24.629 14.55c-.095-.13-.206-.284-.385-.293.005-.04.142-.154.367-.198.202-.038.422 0 .624.014-.077-.238-.413-.588-.683-.602.031-.115.18-.14.287-.167.4-.101.603-.44.263-1.123-.204.593-1.104.823-1.544.167.107.546-.156.877-.324 1.153-.005-.237-.347-.627-.604-.603.047.308-.347.87-.299 1.41-.103.098-.197.21-.264.346-.204.411-.218 1.036.352 1.555.362.329.549.813.455 1.176-.058.222-.214.364-.466.423-.748.174-1.215-.429-1.24-.462a.343.343 0 0 0-.48-.076.345.345 0 0 0-.077.48c.024.034.493.667 1.303.767.197.024.415.016.651-.039.498-.116.853-.452.975-.92.157-.61-.107-1.356-.658-1.859-.234-.212-.338-.489-.182-.765.23.128.557.153.799.092.354-.09.923-.298 1.25-.028 0 0 .056-.205-.12-.448" fill="#FDDF00"/><path d="M20.286 17.68a.15.15 0 0 0-.086.028c-.229.162-.483.24-.776.24-.098 0-.2-.008-.306-.027a7.076 7.076 0 0 0-.34-.009c-.634 0-1.277.102-1.708.824-.056.03-.11.064-.162.097-.14.09-.262.167-.463.167a1.33 1.33 0 0 1-.405-.076 1.831 1.831 0 0 0-.524-.089c-.404 0-.58.2-.649.32a.696.696 0 0 0 .022.69c.13.226.356.36.605.36a.808.808 0 0 0 .29-.056.15.15 0 0 0-.095-.282.2.2 0 0 1-.05.006c-.085 0-.176-.047-.202-.106-.03-.07.04-.16.086-.209a.077.077 0 0 1 .05-.015c.075 0 .185.059.292.116.047.026.095.05.142.074l.248.17c-.045.272-.002.494.13.66.163.207.448.312.868.32l-.465.58c-.084.063-.169.134-.254.204-.22.183-.449.373-.622.373a.188.188 0 0 1-.07-.013c.063-.25.036-.494-.075-.654a.359.359 0 0 0-.297-.165c-.092 0-.232.038-.371.219l-.188.392a.534.534 0 0 0-.035-.001.331.331 0 0 0-.26.107c-.073.082-.102.2-.087.359-.097.325-.1.515-.012.634.037.05.108.11.233.11a.55.55 0 0 0 .14-.02.328.328 0 0 0 .008.052c.032.129.16.23.426.342.2.09.362.135.492.135a.394.394 0 0 0 .343-.17.292.292 0 0 0 .263.152.677.677 0 0 0 .336-.116h.028c.098 0 .395 0 .496-.201.07-.14.011-.299-.077-.442l.862-.487a.46.46 0 0 0 .088.185.41.41 0 0 0 .32.154c.134 0 .26-.062.357-.172a.148.148 0 1 0-.112-.247l-.018.001a.445.445 0 0 1-.053.004c-.076 0-.085-.024-.09-.035-.023-.063.013-.195.084-.307.158.188.341.383.637.383a.84.84 0 0 0 .357-.087.149.149 0 0 0-.02-.278c-.154-.046-.345-.137-.387-.316-.034-.142.035-.324.172-.452.624-.53.724-1.06.608-1.378a.614.614 0 0 0-.319-.35l.716-.434a.15.15 0 0 0 .072-.134l-.044-.987a.15.15 0 0 0-.149-.142" fill="#000"/><path d="M20.286 17.83c-.34.239-.738.317-1.193.238-.739-.026-1.465-.015-1.916.781-.315.151-.488.443-1.183.217-1.555-.475-1.18 1.295-.263.944-.248.073-.665-.18-.317-.554.177-.162.425.033.656.142l.35.238c-.227.963.738.914 1.15.89l-.678.846c-.42.307-.86.834-1.227.52.203-.557-.136-.979-.448-.575l-.22.467c-.244-.062-.35.043-.317.314-.253.824.167.567.503.445-.027.16-.41.27.198.521.802.363.635-.17.864-.336-.022.36.045.595.472.325.57.023.516-.22.273-.542l1.227-.694c-.096.42.283.575.503.325-.489.062-.325-.5-.077-.716.238.274.441.617.932.39-.667-.196-.574-.738-.275-1.019.945-.802.664-1.628-.043-1.53l1.073-.65-.044-.988z" fill="#FDDF00"/><path d="M14.122 10.027a.895.895 0 0 0-.314.073.147.147 0 0 0-.036.02c-.273.205-.397.372-.405.542a.357.357 0 0 0 .058.212.272.272 0 0 0-.185.103c-.089.114-.094.296-.016.61.037.34.16.523.365.523a.448.448 0 0 0 .278-.117l.04.065a.272.272 0 0 0-.184.12c-.084.13-.058.32.085.64.114.27.263.55.501.55.125 0 .221-.078.296-.177l.32.513c.132.26.078.339-.003.459l-.022.033a.146.146 0 0 0-.02.113c.008.04.033.074.067.095.072.045.145.07.217.072a.15.15 0 0 0 .035.14c.43.464.827.561 1.084.561a.896.896 0 0 0 .678-.293.676.676 0 0 0 .173-.529.146.146 0 0 0-.014-.044c-.264-.556-.523-1.1-1.226-1.6-.106-.13-.283-.27-.453-.405-.469-.37-.747-.62-.512-1.022.048-.032.105-.06.163-.087.17-.083.363-.177.397-.376.032-.19-.112-.362-.224-.474-.134-.137-.275-.207-.42-.207-.15 0-.282.075-.4.188a.353.353 0 0 0-.087-.207.31.31 0 0 0-.236-.094" fill="#000"/><path d="M16.986 14.374c-.252-.527-.494-1.054-1.178-1.542-.447-.52-1.468-.89-.99-1.652.252-.188.817-.25.342-.728-.35-.356-.615-.07-.869.301-.032-.27.172-.75-.43-.514-.635.478-.233.605-.065.81-.212.04-.62-.274-.427.502.05.448.217.546.528.208l.281.455c-.254-.035-.512-.074-.234.543.198.47.409.68.656.145l.45.723c.193.376.072.505-.025.652.218.136.335-.034.468-.158.017.15.024.298-.185.395.882.953 1.747.385 1.678-.14z" fill="#FDDF00"/><path d="M16.368 14.55a.613.613 0 0 0-.144.017.185.185 0 0 0-.043.017c-.529.32-1.047.632-1.475 1.377-.12.119-.241.307-.36.49-.221.345-.43.67-.73.67a.621.621 0 0 1-.245-.058c-.037-.044-.07-.097-.104-.151-.1-.157-.224-.352-.437-.352-.142 0-.278.085-.43.27-.136.16-.189.32-.159.475a.598.598 0 0 0 .222.336.327.327 0 0 0-.228.152c-.091.158-.004.363.07.503a.147.147 0 0 0 .024.033c.225.236.399.342.563.342a.36.36 0 0 0 .23-.083c.011.046.032.09.067.128.057.062.14.093.245.093.105 0 .243-.03.422-.095.175-.037.438-.118.482-.33.03-.137-.053-.258-.14-.348l.061-.046a.294.294 0 0 0 .068.117.282.282 0 0 0 .21.083c.12 0 .277-.058.493-.181.256-.14.52-.315.499-.549-.01-.125-.098-.214-.206-.278l.479-.367a.569.569 0 0 1 .283-.108c.063 0 .115.027.181.061l.035.019a.15.15 0 0 0 .2-.068.43.43 0 0 0 .051-.222l.01.001h.014a.151.151 0 0 0 .111-.05c.605-.679.463-1.216.373-1.415-.132-.293-.404-.483-.692-.483" fill="#000"/><path d="M16.258 14.712c-.502.303-1.006.597-1.423 1.323-.475.495-.738 1.54-1.555 1.15-.214-.23-.336-.78-.766-.26-.32.382-.006.613.394.824-.268.06-.77-.091-.471.477.547.576.632.166.821-.021.062.205-.21.64.548.368.445-.097.525-.271.153-.542l.427-.325c-.008.253-.02.512.57.173.451-.244.64-.474.076-.661l.679-.521c.356-.229.498-.124.657-.043.113-.23-.07-.327-.208-.445.148-.032.296-.055.416.14.863-.969.202-1.76-.318-1.637z" fill="#FDDF00"/><path d="M21.904 21.383c.333 0 .572-.185.77-.424.092.188.229.365.362.524.135.3.155.561.055.718a.284.284 0 0 1-.248.133.467.467 0 0 1-.316-.143c-.15-.442-.396-.491-.496-.491-.203 0-.36.172-.375.41a.146.146 0 0 0 .025.09l.142.216a1.544 1.544 0 0 0-.157-.009c-.11 0-.266.015-.345.135l-.01.018a.135.135 0 0 0 .007-.036.149.149 0 0 0-.103-.157c-.065-.02-.173-.073-.172-.186.002-.093.083-.217.256-.267.335-.157.435-.365.445-.546.054.01.108.015.16.015m-2.07-6.313c-.005 0-.011 0-.017.002l-3.438.412a.15.15 0 0 0-.117.084.15.15 0 0 0 .009.143c.364.575.85 1.188 2.009 1.188.223 0 .469-.022.73-.068.935.68 1.276 1.428 1.073 2.348-.368.817.043 1.421.385 1.802.16.233.173.457.028.69-.114.149-.194.431-.075.67.06.12.22.322.63.322.042 0 .087-.002.133-.006a.15.15 0 0 0 .114-.072c-.047.116.007.242.051.345.017.04.046.106.045.128a.2.2 0 0 0 .014.079c.141.297.31.441.514.441.11 0 .22-.043.335-.134.078.14.245.21.511.212.073.01.153.016.222.016.23 0 .378-.062.454-.19.074-.124.05-.274 0-.408l.147-.03c.074.122.192.261.377.261.132 0 .267-.069.423-.22.165-.088.255-.19.273-.31.026-.17-.097-.298-.212-.41.614-.592.309-1.187-.012-1.688.322-.087.546-.432.693-.7a.149.149 0 0 0-.23-.183c-.11.098-.201.149-.27.149-.023 0-.058-.005-.104-.044a1.016 1.016 0 0 0-.387-.23c.082-.14.128-.327.088-.589-.034-.161-.008-.204-.008-.204.113.004.312.167.329.236a.15.15 0 0 0 .176.114.147.147 0 0 0 .115-.173c-.106-.573-.437-.776-.688-.776-.276 0-.561.238-.57.692-.031.178-.122.178-.176.178a.576.576 0 0 1-.176-.034c-.221-.07-.381-.1-.52-.1a.614.614 0 0 0-.332.086c-.504-1.731-1.559-3.031-2.436-3.98a.147.147 0 0 0-.11-.049" fill="#000"/><path d="M16.396 15.631c.46.725 1.04 1.343 2.65 1.042 1.147.813 1.375 1.667 1.183 2.538-.31.692-.065 1.208.35 1.67.19.277.233.564.044.868-.196.256-.2.829.547.76-.429-.138-.326-.619.088-.738.283-.134.403-.33.307-.607.567.22.88-.114 1.16-.521.042.253.223.506.438.76.458.99-.317 1.35-.766.867-.187-.594-.573-.478-.591-.152l.328.499c-1.115-.224-.569.232-.591.456.308.647.663.317 1.03-.239-.346.466-.247.67.196.673.639.084.664-.167.46-.543l.438-.087c.13.241.275.443.635.087.435-.223.108-.411-.066-.607.775-.627.322-1.224-.066-1.822.337.082.6-.203.833-.63-.199.178-.392.257-.57.108-.259-.232-.48-.266-.679-.172.227-.14.39-.336.329-.738-.145-.686.562-.256.613-.022-.17-.906-.95-.806-.964-.108-.051.31-.248.38-.547.281-.387-.122-.734-.17-.876.152-.417-1.664-1.361-2.982-2.475-4.187l-3.438.412z" fill="#FDDF00"/><path d="M17.94 13.486a.146.146 0 0 0 .042-.102c.002-.072.016-.093.016-.093a.391.391 0 0 0 .224-.15l.293.166a.244.244 0 0 1-.041.161.316.316 0 0 1-.252.151.262.262 0 0 1-.179-.078 1.28 1.28 0 0 0-.102-.055zm-.212-1.242a.146.146 0 0 0 .053-.071l.04-.115c.164.017.275.057.327.116.057.065.052.176.039.305l-.274-.046-.066-.114a.15.15 0 0 0-.119-.075zm2.863-2.195c-.13 0-.313.071-.588.229l-1.687-.074h-.006a.127.127 0 0 0-.038.005 1 1 0 0 0-.047-.001c-.333 0-.55.151-.594.41l-.424.247a.777.777 0 0 0-.092-.005c-.244 0-.417.1-.444.254-.009.054-.007.174.152.269a.55.55 0 0 0 .08.368c.1.154.277.256.543.313l.06.125a.15.15 0 0 0 .124.084.147.147 0 0 0-.06.095l-.019.121-.13.073a.147.147 0 0 0-.075.106.147.147 0 0 0 .037.124l.123.134.005.06c.008.121.018.268.134.413-.023-.001-.045-.003-.068-.003a.88.88 0 0 0-.585.242.456.456 0 0 1-.232.077c-.116 0-.183-.074-.186-.144-.005-.084.087-.147.24-.163a.148.148 0 0 0 .091-.25.623.623 0 0 0-.452-.214c-.227 0-.446.15-.555.383a.724.724 0 0 0-.028.548c-.308.028-.512.146-.607.35-.374.134-.627.334-.752.596-.132.274-.124.613.024 1.008a.15.15 0 0 0 .138.097h.002c.06 0 .115-.037.137-.093.238-.582.564-.854 1.024-.854l.08.003c-.106.253.064.562.197.804l.051.094c.186.278.114.546.029.856-.019.07-.038.141-.054.212a.15.15 0 0 0 .145.182c.033 0 .065-.01.092-.032l.08-.06c.154-.116.32-.24.42-.461.004.106 0 .215-.007.33a.15.15 0 0 0 .149.158.144.144 0 0 0 .078-.023c.266-.163.432-.425.497-.78.01.089.016.183.02.28a.148.148 0 0 0 .15.143.146.146 0 0 0 .103-.042.838.838 0 0 0 .244-.412c.077.091.162.168.242.242.335.25.308.435.27.69-.01.07-.02.141-.023.213a.147.147 0 0 0 .086.14.148.148 0 0 0 .163-.024c.209-.189.316-.445.367-.726a.147.147 0 0 0 .126.068.145.145 0 0 0 .128-.073c.1-.177.136-.362.137-.54.167.127.34.189.525.189.263 0 .506-.128.7-.23a.15.15 0 0 0 .077-.164.148.148 0 0 0-.138-.117c-.426-.022-.687-.119-.756-.282-.119-.283.278-.801.527-1.095a1.34 1.34 0 0 0 1.047.535l.007.001a.15.15 0 0 0 .135-.086.15.15 0 0 0-.025-.163c-.384-.422-.485-.737-.337-1.052.378-.506.44-.983.177-1.408.158-.057.285-.195.383-.418a.148.148 0 0 0-.103-.205 1.847 1.847 0 0 0-.187-.029c-.234-.028-.34-.049-.391-.262-.105-.29-.234-.571-.486-.76.084-.21.13-.393.047-.518a.247.247 0 0 0-.217-.108z" fill="#000"/><path d="M18.306 10.36c-.316-.024-.527.087-.535.349l-.534.31c-.365-.059-.596.155-.247.277-.086.33.074.554.557.636l.093.192.078-.223c.765.032.623.416.604.753l-.504-.085-.1-.177-.031.192-.194.107.155.17c.027.173-.014.347.186.52.002-.125.036-.198.1-.221.189-.063.186-.15.217-.23l.488.276c.149.323-.334.78-.697.445-.195-.113-.509-.201-.851.1-.62.41-.981-.417-.292-.49-.483-.505-1.105.245-.679.758-.374-.016-.658.057-.744.326-.777.251-.957.75-.701 1.432.282-.69.735-1.088 1.533-.9-.349.213-.102.58.088.932.262.39.077.781-.012 1.171.298-.231.644-.395.504-1.258.24.398.254.796.23 1.194.378-.233.514-.695.438-1.356.26.26.29.615.306.976.161-.157.293-.366.209-.966.053.397.266.596.482.792.493.368.31.688.295 1.02.34-.307.378-.829.35-1.4.256.29.247.497.241.705.155-.271.136-.576.066-.888.506.676.933.472 1.358.249-1.635-.083-.684-1.23-.209-1.768.225.368.549.608 1.04.629-.345-.38-.567-.774-.36-1.215.454-.614.39-1.086.021-1.475.195.034.383.003.537-.348-.266-.059-.59.007-.69-.4-.109-.302-.244-.581-.526-.739.182-.427.287-.785-.536-.303l-1.73-.076-.004.007z" fill="#FDDF00"/><path d="M15.815 11.481c-.07.075-.099.187-.087.333.197.645.805.727 1.375.727.138 0 .28-.005.423-.01.139-.004.278-.009.412-.009.107 0 .21.003.31.011l.013.001a.15.15 0 0 0 .148-.16l-.008-.114a.149.149 0 0 0-.142-.139 4.166 4.166 0 0 0-.17-.004c-.146 0-.299.007-.453.013-.15.007-.3.013-.44.013-.357 0-.563-.045-.614-.135a.683.683 0 0 0-.205-.443c-.159-.16-.408-.25-.562-.084" fill="#000"/><path d="M18.253 12.27c-.675-.03-1.683.165-1.82-.23.005-.411-.597-.755-.557-.238.267.852 1.495.507 2.384.583l-.007-.115zm-4.621-1.745c-.029-.012-.072-.052-.072-.067a.856.856 0 0 0-.071-.2.384.384 0 0 0-.205-.186.317.317 0 0 0-.126-.022.746.746 0 0 0-.156.009.468.468 0 0 1 .106-.104.533.533 0 0 1 .66.018.679.679 0 0 1 .175.218c.01.032.013.101.006.136a.278.278 0 0 1-.142.177.183.183 0 0 1-.1.028.203.203 0 0 1-.075-.007zm1.413.096a.417.417 0 0 1-.116-.048c-.057-.04-.096-.104-.096-.16 0-.045.012-.069.05-.099a.776.776 0 0 0 .152-.165c.088-.14.08-.289-.025-.441a.341.341 0 0 1-.027-.044.553.553 0 0 1 .387.304c.035.08.044.13.04.227a.678.678 0 0 1-.097.31.274.274 0 0 1-.268.116zm-2.17 1.291a.511.511 0 0 1-.052-.21c-.014-.279.153-.477.467-.554a.2.2 0 0 1 .1-.007c.09.013.172.076.208.156.04.093.027.199-.032.254a.111.111 0 0 1-.109.033 1.016 1.016 0 0 0-.122-.008.44.44 0 0 0-.231.048.42.42 0 0 0-.196.274.292.292 0 0 1-.013.044.116.116 0 0 1-.02-.03zm.777 1.123a.53.53 0 0 1-.43-.45c.001 0 .025.016.053.037.2.147.404.118.607-.086.041-.042.06-.05.1-.05.086 0 .17.079.199.185a.26.26 0 0 1-.143.3.705.705 0 0 1-.386.064zm-1.197 4.12c-.05-.018-.069-.043-.085-.106a.727.727 0 0 0-.102-.222.38.38 0 0 0-.16-.122.496.496 0 0 0-.258-.017l-.029.003.033-.036a.552.552 0 0 1 .366-.174c.196-.012.366.08.512.28a.25.25 0 0 1 .043.159.271.271 0 0 1-.203.239.156.156 0 0 1-.117-.004zm2.224 1.292c.19-.166.205-.364.045-.598-.033-.049-.039-.06-.039-.087 0-.113.15-.205.29-.179a.266.266 0 0 1 .16.098c.035.042.037.047.052.116.02.094.022.225.004.295a.489.489 0 0 1-.16.263.545.545 0 0 1-.327.13l-.074.003.049-.042zm-2.715.085a.589.589 0 0 1-.03-.335c.051-.227.228-.373.504-.414a.263.263 0 0 1 .284.158.21.21 0 0 1 .019.105c0 .056-.003.068-.018.1a.152.152 0 0 1-.085.083c-.027.011-.032.011-.082 0a.915.915 0 0 0-.266-.012c-.145.028-.253.134-.305.3l-.01.035-.01-.02zm1.724.595a.509.509 0 0 1-.394-.377.685.685 0 0 1 .014-.35.284.284 0 0 1 .121-.12.305.305 0 0 1 .206-.016c.074.024.13.075.144.131.01.037.005.053-.022.1-.078.134-.107.253-.087.359.016.085.083.18.17.244.026.02.045.037.043.039a.655.655 0 0 1-.195-.01zm1.376 2.735c-.033-.019-.036-.023-.07-.097a.567.567 0 0 0-.12-.186.361.361 0 0 0-.14-.09.482.482 0 0 0-.26-.004l-.06.016c-.01 0 .035-.064.074-.104a.569.569 0 0 1 .26-.15.565.565 0 0 1 .245-.004c.105.028.22.097.313.19.061.061.076.097.076.184 0 .055-.002.068-.018.104a.266.266 0 0 1-.215.158c-.045.003-.053.001-.085-.017zm6.86.518a.086.086 0 0 1-.06-.032c-.165-.165-.356-.213-.524-.132a.627.627 0 0 0-.132.093l-.018.018v-.017a.541.541 0 0 1 .28-.41.434.434 0 0 1 .248-.057c.102 0 .166.014.268.054a.255.255 0 0 1 .161.198.285.285 0 0 1-.062.218c-.047.054-.1.076-.16.067zm-7.969.245a.556.556 0 0 1 .189-.456.59.59 0 0 1 .193-.098c.116-.032.309-.025.38.015a.263.263 0 0 1 .14.213c.009.126-.073.244-.17.244-.026 0-.046-.007-.1-.035a.526.526 0 0 0-.338-.07.463.463 0 0 0-.27.193l-.019.028-.005-.034zm7.269.865a.57.57 0 0 1-.052-.088c-.14-.295-.02-.588.302-.735.066-.03.095-.035.154-.026a.267.267 0 0 1 .205.15.205.205 0 0 1 .024.101c.004.066-.007.098-.047.136-.026.025-.026.025-.126.036-.234.024-.37.126-.414.313a.512.512 0 0 0-.01.074.446.446 0 0 1-.005.053l-.003.021-.028-.035zm3.052.03a.549.549 0 0 0 .083-.2.37.37 0 0 0-.067-.264.823.823 0 0 0-.144-.147.116.116 0 0 1-.052-.104c0-.121.163-.233.303-.206.047.01.098.033.132.061a.61.61 0 0 1 .131.524.545.545 0 0 1-.35.358c-.063.022-.065.02-.036-.021zm-9.105.23a.57.57 0 0 1-.26-.351.643.643 0 0 1-.001-.19.71.71 0 0 1 .184-.329.276.276 0 0 1 .247-.07c.146.038.243.187.192.295-.015.034-.02.038-.077.064a.528.528 0 0 0-.267.243.24.24 0 0 0-.027.114.458.458 0 0 0 .029.192.16.16 0 0 1 .013.047c-.001.002-.016-.005-.034-.015h.001zm1.263.062l-.023-.005.048-.033c.195-.14.238-.316.134-.544a.91.91 0 0 0-.038-.076c-.019-.028-.018-.075.003-.113.058-.11.24-.141.361-.063a.33.33 0 0 1 .1.115c.014.029.015.04.015.158 0 .137-.003.16-.037.246a.52.52 0 0 1-.473.317.501.501 0 0 1-.09-.002zm6.446.22a.53.53 0 0 1-.415-.384.697.697 0 0 1 .053-.417.296.296 0 0 1 .14-.105.228.228 0 0 1 .103-.011.25.25 0 0 1 .152.054c.05.037.074.082.074.135 0 .038-.001.04-.04.088-.096.12-.139.22-.139.323-.001.097.038.183.12.273l.05.055-.024-.001a.674.674 0 0 1-.074-.01z" fill="#FDDF00"/></g></g></svg>