<?xml version="1.0" encoding="UTF-8" standalone="no"?>
<svg width="36px" height="26px" viewBox="0 0 36 26" version="1.1" xmlns="http://www.w3.org/2000/svg" xmlns:xlink="http://www.w3.org/1999/xlink">
    <!-- Generator: Sketch 3.8.1 (29687) - http://www.bohemiancoding.com/sketch -->
    <title>DE-BE</title>
    <desc>Created with Sketch.</desc>
    <defs>
        <rect id="path-1" x="0" y="0" width="36" height="26" rx="4"></rect>
    </defs>
    <g id="DE" stroke="none" stroke-width="1" fill="none" fill-rule="evenodd">
        <g id="DE-BE">
            <mask id="mask-2" fill="white">
                <use xlink:href="#path-1"></use>
            </mask>
            <use id="Flag-Shape" fill="#F3F3F3" xlink:href="#path-1"></use>
            <g id="Bear" mask="url(#mask-2)">
                <g transform="translate(7.736667, 5.590000)">
                    <path d="M6.67814767,13.5265997 C6.43205767,13.4944897 6.228781,13.644293 6.16811433,13.8190563 C6.23588767,13.7655397 6.449911,13.733473 6.58896767,13.776243 C6.39639433,13.7655397 6.20377767,13.922493 6.164561,14.0651463 C6.24303767,14.0009697 6.492681,13.9831163 6.58541433,14.022333 C6.410651,14.029483 6.24303767,14.161433 6.19311767,14.307683 C6.27514767,14.2541663 6.50338433,14.2327597 6.631781,14.2648697 C6.442761,14.293383 6.30721433,14.4289297 6.26444433,14.553773 C6.378541,14.4788497 6.52834433,14.4859997 6.713811,14.496703 C6.52123767,14.5680297 6.45701767,14.6500597 6.392841,14.7784563 C6.499831,14.710683 6.688851,14.7071297 6.87431767,14.7213863 M1.71708767,12.3532197 C1.52806767,12.2390797 1.267721,12.2782963 1.14647433,12.4352497 C1.28197767,12.4102897 1.481701,12.4851697 1.56017767,12.5493897 C1.431781,12.4673597 1.16428433,12.5172797 1.06084767,12.659933 C1.18213767,12.627823 1.37826433,12.709853 1.481701,12.7704763 C1.34619767,12.7241097 1.135771,12.734813 1.00377767,12.8953197 C1.11436433,12.8703597 1.29623433,12.930983 1.413971,12.9987563 C1.24631433,12.9595397 1.08225433,13.0237163 0.985967667,13.1378563 C1.13217433,13.1057463 1.29623433,13.1913297 1.39611767,13.2376963 C1.20709767,13.234143 1.09295767,13.309023 1.02518433,13.3874997 C1.14647433,13.3625397 1.331941,13.4267163 1.46744433,13.4980863 M1.14647433,5.37351967 C1.103661,5.17734967 0.932451,4.97047633 0.739877667,4.99547967 C0.829057667,5.056103 0.896787667,5.28433967 0.921747667,5.43058967 C0.861124333,5.26652967 0.711364333,5.09176633 0.533004333,5.113173 C0.629334333,5.19875633 0.686361,5.409183 0.722024333,5.566093 C0.625737667,5.384223 0.508044333,5.24867633 0.333281,5.270083 C0.450974333,5.384223 0.493787667,5.58394633 0.522301,5.737303 C0.465274333,5.60890633 0.333281,5.45199633 0.154964333,5.46980633 C0.265507667,5.56968967 0.311874333,5.787223 0.351134333,5.94772967 C0.279807667,5.851443 0.172817667,5.71589633 0.005161,5.730153 C0.115747667,5.837143 0.165667667,6.04756967 0.212034333,6.20807633 M1.413971,1.60013967 C1.41752433,1.350453 1.24631433,1.18998967 1.096511,1.17568967 C1.185691,1.27912633 1.20354433,1.42892967 1.217801,1.57517967 C1.18924433,1.36830633 1.03588767,1.23275967 0.903937667,1.225653 C0.975264333,1.300533 1.014481,1.45388967 1.021631,1.603693 C1.00022433,1.489553 0.893234333,1.31838633 0.714917667,1.300533 C0.796947667,1.38611633 0.821907667,1.546623 0.839717667,1.692873 C0.814757667,1.56802967 0.686361,1.42537633 0.543707667,1.414673 C0.604331,1.464593 0.654294333,1.64650633 0.664997667,1.785563 C0.647144333,1.72853633 0.547304333,1.58943633 0.390351,1.571583 C0.472381,1.64650633 0.508044333,1.82837633 0.522301,1.97102967 M5.950581,1.91755633 C5.75085767,1.82126967 5.39062767,1.87829633 5.05895433,1.824823 C4.392011,1.717833 4.309981,1.528813 4.309981,1.389713 C4.30642767,1.243463 4.17443433,1.23635633 4.17443433,1.39326633 C4.178031,2.32055633 5.572541,1.84622967 5.968391,2.08516967" id="Fill-3" fill="#E2382A"></path>
                    <path d="M5.52616133,2.34552933 L5.52616133,2.245646 C5.52616133,2.12795267 5.81506467,2.13510267 5.81506467,2.24209267 L5.81506467,2.32056933 M5.24085467,2.372266 L5.24085467,2.259946 C5.24085467,2.14225267 5.490498,2.14935933 5.49405133,2.259946 L5.49405133,2.34908267 M4.99476467,2.391896 C4.98406133,2.29201267 4.99476467,2.20642933 5.073198,2.14935933 C5.112458,2.220686 5.155228,2.28845933 5.20519133,2.34908267 L5.20519133,2.37404267 M5.39776467,1.44675267 C5.49405133,1.47530933 5.58678467,1.507376 5.66881467,1.56089267 C5.65100467,1.603706 5.61889467,1.646476 5.55467467,1.646476 C5.497648,1.646476 5.433428,1.64292267 5.39776467,1.57514933 C5.37995467,1.539486 5.38706133,1.489566 5.39776467,1.44675267 M5.35495133,1.43604933 C5.35495133,1.482416 5.344248,1.52878267 5.32999133,1.55018933 C5.294328,1.60725933 5.162378,1.603706 5.13386467,1.52522933 C5.12316133,1.49311933 5.12316133,1.43604933 5.137418,1.382576 C5.20874467,1.400386 5.28362467,1.414686 5.35495133,1.43604933 M4.784338,1.24702933 C4.83781133,1.27913933 4.91273467,1.318356 5.023278,1.350466 C4.96265467,1.400386 4.90558467,1.47171267 4.88773133,1.55018933 C4.79144467,1.482416 4.752228,1.357616 4.784338,1.24702933 M7.55195133,0.630006 C7.63753467,0.515909333 7.769528,0.405322667 7.91218133,0.358956 C8.122608,0.287629333 8.20819133,0.458839333 8.040578,0.515909333 C7.901478,0.576532667 7.78378467,0.662116 7.68390133,0.761999333 M6.531928,1.111526 C6.47841133,1.111526 6.38212467,1.08296933 6.35361133,1.04375267 C6.04330133,0.569382667 5.96482467,0.740592667 5.918458,0.904652667 C5.87924133,1.05085933 5.70807467,1.054456 5.75799467,0.858286 C5.88279467,0.376809333 6.221618,0.444582667 6.64247133,1.111526 M4.374188,3.704376 C3.99970133,4.164446 3.78927467,4.39627933 3.80353133,5.51258933 C0.269091333,3.49394933 1.30337133,3.205046 0.529438,1.999556 C0.408191333,1.810536 1.19638133,1.37187267 1.446068,1.55733933 C1.94895133,1.92822933 1.76348467,2.62728267 2.18074133,2.94469933 C2.594488,3.25856267 3.332758,3.39766267 4.374188,3.704376 M5.401318,0.433879333 L4.531098,0.465989333 C4.48828467,0.469542667 4.456218,0.490949333 4.456218,0.540869333 C4.45977133,0.854732667 4.52039467,1.05800933 4.745078,1.22206933 C4.71656467,1.39683267 4.73437467,1.48601267 4.916288,1.63221933 C4.934098,1.489566 4.991168,1.425346 5.080348,1.36472267 C5.087498,1.36831933 5.09460467,1.36831933 5.098158,1.37187267 C5.087498,1.43604933 5.087498,1.50382267 5.10175467,1.54303933 C5.137418,1.64292267 5.31218133,1.646476 5.358548,1.57514933 C5.401318,1.678586 5.490498,1.68213933 5.56182467,1.68213933 C5.63670467,1.68213933 5.672368,1.628666 5.69737133,1.578746 C5.74014133,1.61440933 5.78295467,1.653626 5.82217133,1.703546 C5.94701467,1.874756 5.96842133,2.095886 5.96842133,2.30631267 L5.850728,2.317016 L5.850728,2.23138933 C5.84713133,2.11014267 5.565378,2.088736 5.50120133,2.19217267 C5.42987467,2.113696 5.20874467,2.12795267 5.20874467,2.252796 L5.20874467,2.29201267 C5.15882467,2.227836 5.11956467,2.16006267 5.087498,2.09228933 C4.998318,2.14935933 4.94480133,2.19217267 4.95910133,2.39544933 C4.91984133,2.399046 4.88062467,2.40259933 4.84496133,2.40615267 C4.84851467,2.64153933 4.95195133,2.70575933 5.793658,2.687906 C5.81506467,2.92329267 5.579678,3.055286 5.40491467,3.16582933 C4.948398,3.426176 4.46692133,3.711526 4.20653133,4.189406 C3.988998,4.56748933 3.93548133,5.016856 3.96044133,5.451966 L4.210128,5.34142267 L4.23864133,5.476926 C3.78927467,5.69094933 2.96897467,6.12605933 2.430428,6.37570267 C2.29843467,6.436326 1.956058,6.52195267 1.88473133,6.40066267 C1.63864133,5.976256 1.44247133,5.655286 1.15716467,5.33071933 C1.01091467,5.163106 0.0408546667,5.96555267 0.219171333,6.23660267 C0.625768,6.853626 1.28911467,7.73810267 2.39476467,7.74525267 C3.539588,7.75240267 4.53465133,7.33154933 4.752228,7.26732933 L4.79859467,7.41357933 C4.65234467,7.477756 4.523948,7.52412267 4.37059133,7.57404267 C4.57031467,8.35867933 4.802148,8.665436 5.34069467,9.143316 L5.23015133,9.225346 C5.13386467,9.16831933 4.96976133,8.986406 4.88062467,8.90082267 C3.735758,9.44292267 3.307798,9.98502267 3.03315133,10.544976 C2.72999133,11.2190693 2.78706133,11.9858527 2.915458,12.6956093 C2.940418,12.8133027 2.81202133,12.8703727 2.71573467,12.8347093 C2.45179133,12.7740427 2.30558467,12.5101427 2.05234467,12.413856 C1.938248,12.3638927 1.78844467,12.306866 1.66360133,12.3282293 C1.46032467,12.3638927 1.242748,13.391066 1.44962133,13.4909493 C1.83481133,13.6799693 2.25566467,13.719186 2.68362467,13.940316 C2.965378,14.054456 3.236428,14.2399227 3.55744133,14.1899593 C3.73931133,14.1721493 3.92122467,14.047306 3.93903467,13.8547327 C4.09954133,13.1628293 4.32422467,12.4281127 4.852068,11.9287827 C5.105308,11.6791393 5.433428,11.479416 5.75799467,11.3260593 C5.629598,10.8338793 5.53331133,10.3416993 5.54401467,9.82811267 L5.70092467,9.82096267 C5.81506467,11.775426 6.335758,12.185576 7.25234467,13.095056 C7.345078,13.1877893 7.33797133,13.3625527 7.20242467,13.416026 C7.024108,13.505206 6.81368133,13.5087593 6.61040467,13.5194627 C6.392828,13.530166 6.556888,14.735656 6.877858,14.7249527 C7.441408,14.7070993 8.026278,14.268436 8.36510133,13.8368793 C8.507798,13.6585627 8.67896467,13.480246 8.81451133,13.3054827 C8.98212467,13.087906 8.80025467,12.8347093 8.75029133,12.634986 C8.61119133,12.0643293 8.54701467,10.4237293 8.53986467,10.1954493 L8.739588,10.199046 L8.76814467,9.78529933 C8.172528,9.04702933 8.26881467,7.89150267 8.02272467,7.14608267 C7.926438,6.84292267 7.819448,6.52905933 7.819448,6.20808933 C7.819448,5.77297933 8.311628,4.95623267 8.30092467,4.228666 C8.29737133,3.92195267 8.12616133,3.52246267 8.12971467,3.34059267 C8.13331133,2.81274933 8.436428,2.92688933 8.42932133,1.82838933 C8.425768,1.52522933 8.39010467,1.300546 8.311628,0.990236 C8.84302467,0.430282667 8.11190467,-0.129627333 7.69105133,0.219899333 C7.352228,0.130719333 7.30941467,0.0415393333 6.646068,0.0415393333 C6.07896467,0.0415393333 5.754398,0.194896 5.401318,0.430282667" id="Fill-5" fill="#000000"></path>
                </g>
            </g>
            <path d="M0,0 L36,0 L36,5 L0,5 L0,0 Z M0,21 L36,21 L36,26 L0,26 L0,21 Z" id="Stripes" fill="#E2382A" mask="url(#mask-2)"></path>
        </g>
    </g>
</svg>