<?xml version="1.0" encoding="UTF-8" standalone="no"?>
<svg width="36px" height="26px" viewBox="0 0 36 26" version="1.1" xmlns="http://www.w3.org/2000/svg" xmlns:xlink="http://www.w3.org/1999/xlink">
    <!-- Generator: Sketch 3.8.1 (29687) - http://www.bohemiancoding.com/sketch -->
    <title>DE-BY</title>
    <desc>Created with Sketch.</desc>
    <defs>
        <rect id="path-1" x="0" y="0" width="36" height="26" rx="4"></rect>
    </defs>
    <g id="DE" stroke="none" stroke-width="1" fill="none" fill-rule="evenodd">
        <g id="DE-BY">
            <mask id="mask-2" fill="white">
                <use xlink:href="#path-1"></use>
            </mask>
            <use id="Flag-Shape" fill="#F3F3F3" xlink:href="#path-1"></use>
            <path d="M26.7254963,-1.3e-05 L28.8000683,5.52503033 L35.9999963,7.73503033 L35.9999963,3.49378033 L34.6882643,-1.3e-05 L26.7254963,-1.3e-05 Z M10.7999963,-1.3e-05 L19.8000323,2.76253033 L18.7627283,-1.3e-05 L10.7999963,-1.3e-05 Z M2.83722826,-1.3e-05 L5.39999626,6.824987 L14.3999963,9.587487 L10.7999963,-1.3e-05 L2.83722826,-1.3e-05 Z M23.4000683,12.3500303 L32.4000323,15.1125303 L28.8000683,5.52503033 L19.8000323,2.76253033 L23.4000683,12.3500303 Z M-3.73968254e-06,13.649987 L8.99999626,16.412487 L5.39999626,6.824987 L-3.73968254e-06,5.167487 L-3.73968254e-06,13.649987 Z M18.0000323,19.1750303 L27.0001043,21.9375303 L23.4000683,12.3500303 L14.3999963,9.587487 L18.0000323,19.1750303 Z M-3.73968254e-06,22.132487 L3.59996026,23.237487 L-3.73968254e-06,13.649987 L-3.73968254e-06,22.132487 Z M35.9999963,24.7000303 L35.9999963,16.2175303 L32.4000323,15.1125303 L35.9999963,24.7000303 Z M12.5999963,25.999987 L20.5627643,25.999987 L18.0000323,19.1750303 L8.99999626,16.412487 L12.5999963,25.999987 Z M28.5254963,25.999987 L35.9999963,25.999987 L35.9999963,24.7000303 L27.0001043,21.9375303 L28.5254963,25.999987 Z M4.63726426,25.999987 L12.5999963,25.999987 L3.59996026,23.237487 L4.63726426,25.999987 Z" id="Fill-2" fill="#0098D4" mask="url(#mask-2)"></path>
        </g>
    </g>
</svg>