<?xml version="1.0" encoding="UTF-8" standalone="no"?>
<svg width="36px" height="26px" viewBox="0 0 36 26" version="1.1" xmlns="http://www.w3.org/2000/svg" xmlns:xlink="http://www.w3.org/1999/xlink">
    <!-- Generator: Sketch 3.8.1 (29687) - http://www.bohemiancoding.com/sketch -->
    <title>DE-BB</title>
    <desc>Created with Sketch.</desc>
    <defs>
        <rect id="path-1" x="0" y="0" width="36" height="26" rx="4"></rect>
        <rect id="path-3" x="1" y="0" width="14" height="16"></rect>
        <mask id="mask-4" maskContentUnits="userSpaceOnUse" maskUnits="objectBoundingBox" x="-0.5" y="-0.5" width="15" height="17">
            <rect x="0.5" y="-0.5" width="15" height="17" fill="white"></rect>
            <use xlink:href="#path-3" fill="black"></use>
        </mask>
    </defs>
    <g id="DE" stroke="none" stroke-width="1" fill="none" fill-rule="evenodd">
        <g id="DE-BB">
            <mask id="mask-2" fill="white">
                <use xlink:href="#path-1"></use>
            </mask>
            <use id="Flag-Shape" fill="#F3F3F3" xlink:href="#path-1"></use>
            <rect id="Rectangle-21" fill="#E60000" mask="url(#mask-2)" x="0" y="0" width="36" height="13"></rect>
            <g id="Group-4" mask="url(#mask-2)">
                <g transform="translate(10.000000, 6.000000)">
                    <g id="Rectangle-8">
                        <use fill="#F2F2F2" fill-rule="evenodd" xlink:href="#path-3"></use>
                        <use stroke="#000000" mask="url(#mask-4)" stroke-width="1" stroke-linecap="round" stroke-linejoin="round" xlink:href="#path-3"></use>
                    </g>
                    <g id="Group-3" stroke-width="1" fill-rule="evenodd" transform="translate(0.531646, 0.558659)">
                        <path d="M5.15194519,5.27951276 C5.15279223,5.28008571 5.15363949,5.28065836 5.15448696,5.2812307 L5.47539446,7.56460622 C5.96438578,7.48817848 6.30345061,7.0366885 6.23494854,6.54927098 L6.12478174,5.76539341 C6.54630988,5.91024555 6.9982352,5.98882682 7.46835443,5.98882682 L7.46835443,4.81564246 C6.13691254,4.81564246 5.00794645,3.94113007 4.61510504,2.73043904 C4.97978234,2.6514825 5.25316456,2.32442789 5.25316456,1.93296089 C5.25316456,1.49067163 4.90419082,1.1306051 4.46885439,1.1176778 L4.46892557,1.11700055 L1.42870991,0.797461008 C1.38456971,1.29041674 1.7406213,1.7286352 2.23013259,1.78008491 L3.3050815,1.89306659 L0.998798627,2.64262255 C1.15897771,3.11091346 1.66248653,3.36642671 2.13060383,3.21432619 L3.41274946,2.79773182 L0.997348579,5.05012957 C1.34042841,5.40685066 1.90474695,5.42563229 2.26472484,5.08994748 L3.75634542,3.69898879 L1.94900817,7.57483598 C2.40073633,7.77706204 2.93099909,7.58307862 3.13901503,7.136987 L4.32583006,4.59185398 L3.89803231,8.66207754 C4.39116374,8.70454608 4.83859161,8.26087283 4.90137629,7.66351646 L5.15194519,5.27951276 Z" id="Combined-Shape" fill="#DF3C29"></path>
                        <path d="M11.6007991,5.28792363 C11.6016462,5.28849658 11.6024934,5.28906923 11.6033409,5.28964157 L11.9242484,7.57301709 C12.4132397,7.49658935 12.7523046,7.04509937 12.6838025,6.55768185 L12.5736357,5.77380429 C12.9951638,5.91865642 13.4470891,5.99723769 13.9172084,5.99723769 L13.9172084,4.82405333 C12.5857665,4.82405333 11.4568004,3.94954094 11.063959,2.73884992 C11.4286363,2.65989337 11.7020185,2.33283877 11.7020185,1.94137177 C11.7020185,1.49908251 11.3530448,1.13901597 10.9177083,1.12608867 L10.9177795,1.12541142 L7.87756386,0.805871881 C7.83342366,1.29882761 8.18947525,1.73704608 8.67898654,1.78849579 L9.75393545,1.90147747 L7.44765258,2.65103343 C7.60783166,3.11932433 8.11134049,3.37483759 8.57945778,3.22273706 L9.86160341,2.80614269 L7.44620253,5.05854045 C7.78928237,5.41526154 8.3536009,5.43404317 8.71357879,5.09835835 L10.2051994,3.70739966 L8.39786212,7.58324685 C8.84959028,7.78547292 9.37985304,7.5914895 9.58786898,7.14539787 L10.774684,4.60026485 L10.3468863,8.67048841 C10.8400177,8.71295695 11.2874456,8.2692837 11.3502302,7.67192733 L11.6007991,5.28792363 Z" id="Combined-Shape-Copy-6" fill="#DF3C29" transform="translate(10.681705, 4.739586) scale(-1, 1) translate(-10.681705, -4.739586) "></path>
                        <path d="M6.2553639,4.97426004 C6.19123072,4.54726511 6.48641627,4.20111732 6.91436177,4.20111732 L8.02234709,4.20111732 C8.45043475,4.20111732 8.74547063,4.54731508 8.68134496,4.97426004 L7.91139241,10.1005587 L7.02531646,10.1005587 L6.2553639,4.97426004 L6.2553639,4.97426004 Z M7.02531646,10.1005587 L7.91139241,10.1005587 L7.57911392,13.5642458 L7.35759494,13.5642458 L7.02531646,10.1005587 L7.02531646,10.1005587 Z" id="Combined-Shape" fill="#DF3C29"></path>
                        <g id="Group-2" transform="translate(2.262658, 6.569832)">
                            <path d="M2.11280328,3.57186609 L3.92272696,1.89405051 C3.99929703,1.82306936 4.0043285,1.70291054 3.93396507,1.62566827 C3.86360164,1.548426 3.74448851,1.54335035 3.66791844,1.61433149 L1.74594225,3.39602077 L1.20261146,2.95741422 C1.17802434,2.93756613 1.14889518,2.92425571 1.1178899,2.91870113 L0.395006446,2.7891968 C0.29261817,2.77085397 0.19487568,2.83971494 0.176692483,2.94300207 C0.158509286,3.04628921 0.22677099,3.14488977 0.329159265,3.1632326 L1.05204272,3.29273693 L0.967321152,3.25402384 L1.20686048,3.44739319 L0.536074006,3.45483812 C0.46976443,3.45557407 0.408727407,3.49144299 0.37538538,3.54926812 L0.0255618909,4.1559676 C-0.0267237456,4.24664667 0.00376055894,4.36291457 0.0936504908,4.41565921 C0.183540423,4.46840386 0.298796493,4.43765194 0.35108213,4.34697287 L0.700905619,3.74027339 L0.540216993,3.83470339 L1.28159487,3.82647499 L0.522478541,4.53018267 C0.504430653,4.54691323 0.489794543,4.56703755 0.479391619,4.58942622 L0.290595409,4.99574434 C0.246459908,5.09073064 0.287012517,5.20382524 0.381172196,5.24834821 C0.475331875,5.29287117 0.58744227,5.25196255 0.631577771,5.15697625 L0.820373981,4.75065814 L0.777287059,4.80990169 L1.75433416,3.9041702 L2.40225915,3.99707995 C2.50521452,4.01184333 2.60054026,3.93961688 2.61517515,3.83575768 C2.62981005,3.73189847 2.55821216,3.63573588 2.45525679,3.6209725 L2.11280328,3.57186609 L2.11280328,3.57186609 Z" id="Combined-Shape" fill="#FDE44A"></path>
                            <path d="M4.00486946,0.422460439 C4.02066134,0.153142239 4.23464496,0.0359072884 4.46716873,0.152746725 L4.46716873,0.152746725 C4.70669769,0.273106154 4.90087428,0.597939203 4.90087428,0.857634138 L4.90087429,1.73711311 C4.90087429,2.00605225 4.6895951,2.20456149 4.4144227,2.17915273 L4.39107497,2.17699685 C4.12241518,2.15218945 3.91744807,1.91336412 3.93321711,1.64443534 L4.00486946,0.422460439 Z" id="Rectangle-4" fill="#DF3C29" transform="translate(4.416620, 1.144492) rotate(44.000000) translate(-4.416620, -1.144492) "></path>
                        </g>
                        <g id="Group-2" transform="translate(9.740506, 9.569832) scale(-1, 1) translate(-9.740506, -9.569832) translate(6.740506, 6.569832)">
                            <path d="M2.11280328,3.57186609 L3.92272696,1.89405051 C3.99929703,1.82306936 4.0043285,1.70291054 3.93396507,1.62566827 C3.86360164,1.548426 3.74448851,1.54335035 3.66791844,1.61433149 L1.74594225,3.39602077 L1.20261146,2.95741422 C1.17802434,2.93756613 1.14889518,2.92425571 1.1178899,2.91870113 L0.395006446,2.7891968 C0.29261817,2.77085397 0.19487568,2.83971494 0.176692483,2.94300207 C0.158509286,3.04628921 0.22677099,3.14488977 0.329159265,3.1632326 L1.05204272,3.29273693 L0.967321152,3.25402384 L1.20686048,3.44739319 L0.536074006,3.45483812 C0.46976443,3.45557407 0.408727407,3.49144299 0.37538538,3.54926812 L0.0255618909,4.1559676 C-0.0267237456,4.24664667 0.00376055894,4.36291457 0.0936504908,4.41565921 C0.183540423,4.46840386 0.298796493,4.43765194 0.35108213,4.34697287 L0.700905619,3.74027339 L0.540216993,3.83470339 L1.28159487,3.82647499 L0.522478541,4.53018267 C0.504430653,4.54691323 0.489794543,4.56703755 0.479391619,4.58942622 L0.290595409,4.99574434 C0.246459908,5.09073064 0.287012517,5.20382524 0.381172196,5.24834821 C0.475331875,5.29287117 0.58744227,5.25196255 0.631577771,5.15697625 L0.820373981,4.75065814 L0.777287059,4.80990169 L1.75433416,3.9041702 L2.40225915,3.99707995 C2.50521452,4.01184333 2.60054026,3.93961688 2.61517515,3.83575768 C2.62981005,3.73189847 2.55821216,3.63573588 2.45525679,3.6209725 L2.11280328,3.57186609 L2.11280328,3.57186609 Z" id="Combined-Shape" fill="#FDE44A"></path>
                            <path d="M4.00486946,0.422460439 C4.02066134,0.153142239 4.23464496,0.0359072884 4.46716873,0.152746725 L4.46716873,0.152746725 C4.70669769,0.273106154 4.90087428,0.597939203 4.90087428,0.857634138 L4.90087429,1.73711311 C4.90087429,2.00605225 4.6895951,2.20456149 4.4144227,2.17915273 L4.39107497,2.17699685 C4.12241518,2.15218945 3.91744807,1.91336412 3.93321711,1.64443534 L4.00486946,0.422460439 Z" id="Rectangle-4" fill="#DF3C29" transform="translate(4.416620, 1.144492) rotate(44.000000) translate(-4.416620, -1.144492) "></path>
                        </g>
                        <g id="Group" transform="translate(3.303797, 8.648045)" fill="#DF3C29">
                            <path d="M3.43696484,2.8255635 C3.08686332,3.10840847 2.58082075,3.29608939 1.84968354,3.29608939 C0.431962025,3.29608939 0.53164557,4.43575419 0.974683544,4.75977654 C0.299050633,4.75977654 0.0110759494,4.24581006 0.0110759494,3.8547486 C0.0110759494,3.46368715 0.265822785,2.60335196 1.7943038,2.37988827 C2.97107618,2.20784433 3.42568015,1.63180944 3.70400175,1.09538557 C3.63707466,1.16559283 3.55535195,1.22682873 3.4556962,1.27374302 C2.79113924,1.58659218 2.52531646,1.22905028 1.88291139,1.51955307 C1.88291139,1.01675978 2.28729652,0.558659218 2.73575949,0.558659218 C3.18422246,0.558659218 3.67721519,0.402234637 3.67721519,0 C3.98734177,0 3.98734177,0.0111731844 3.98734177,0.0111731844 C3.98734177,0.0111731844 4.02997698,0.315823775 3.94621518,0.636871508 L4.21993671,0.636871508 C4.21993671,1.05457448 4.1958167,1.70478091 3.90105587,2.25768396 C4.04139914,2.38129491 4.07790481,2.71726473 4.14128078,2.70608984 C4.23208229,3.22105076 4.11335907,3.90214697 2.73640789,4.14494061 C1.876653,4.29653859 1.96053289,4.95691923 2.26385423,5.1060431 C1.8541273,5.17828902 1.62453078,4.89739548 1.5827143,4.66024242 C1.54089781,4.42308937 1.60338876,3.87411238 2.50641686,3.57515477 C3.0517262,3.39462398 3.30103261,3.11087936 3.43696484,2.8255635 Z" id="Combined-Shape"></path>
                            <path d="M7.557218,2.8255635 C7.20711648,3.10840847 6.70107392,3.29608939 5.96993671,3.29608939 C4.55221519,3.29608939 4.65189873,4.43575419 5.09493671,4.75977654 C4.4193038,4.75977654 4.13132911,4.24581006 4.13132911,3.8547486 C4.13132911,3.46368715 4.38607595,2.60335196 5.91455696,2.37988827 C7.09132934,2.20784433 7.54593332,1.63180944 7.82425491,1.09538557 C7.75732782,1.16559283 7.67560511,1.22682873 7.57594937,1.27374302 C6.91139241,1.58659218 6.64556962,1.22905028 6.00316456,1.51955307 C6.00316456,1.01675978 6.40754969,0.558659218 6.85601266,0.558659218 C7.30447563,0.558659218 7.79746835,0.402234637 7.79746835,0 C8.10759494,0 8.10759494,0.0111731844 8.10759494,0.0111731844 C8.10759494,0.0111731844 8.15023014,0.315823775 8.06646835,0.636871508 L8.34018987,0.636871508 C8.34018987,1.05457448 8.31606986,1.70478091 8.02130904,2.25768396 C8.1616523,2.38129491 8.19815798,2.71726473 8.26153395,2.70608984 C8.35233545,3.22105076 8.23361223,3.90214697 6.85666105,4.14494061 C5.99690617,4.29653859 6.08078605,4.95691923 6.3841074,5.1060431 C5.97438046,5.17828902 5.74478394,4.89739548 5.70296746,4.66024242 C5.66115098,4.42308937 5.72364192,3.87411238 6.62667002,3.57515477 C7.17197937,3.39462398 7.42128577,3.11087936 7.557218,2.8255635 Z" id="Combined-Shape" transform="translate(6.235759, 2.558797) scale(-1, 1) translate(-6.235759, -2.558797) "></path>
                        </g>
                        <polygon id="Rectangle-4" fill="#DF3C29" transform="translate(7.473347, 13.234087) rotate(45.000000) translate(-7.473347, -13.234087) " points="6.46557106 12.2174635 8.48112374 12.6915016 8.48112374 14.2507106 6.93548379 14.2507106"></polygon>
                        <path d="M8.18260715,4.67344212 C8.18260715,3.68894991 9.20989624,2.9635346 9.20989624,1.87541163 C9.20989624,0.787288662 8.67634993,0.17877095 7.85451866,0.17877095 C7.03268739,0.17877095 6.69303797,0.528211764 6.69303797,0.748427127 C7.18100029,0.9427348 7.28006329,1.04075003 7.28006329,1.59776536 C7.28006329,2.15478069 6.95886076,2.21221157 6.95886076,2.21221157 C6.95886076,2.21221157 7.33689793,2.21221157 7.56803797,2.21221157 C7.33689793,2.43242693 6.69303797,3.14488843 6.69303797,4.67344212 C6.69303797,6.20199581 8.18260715,5.65793433 8.18260715,4.67344212 Z" id="Path-23" fill="#DF3C29"></path>
                        <path d="M6.65462264,1.33298222 C6.73543417,1.17733025 6.89705986,1.07113055 7.0832655,1.07113055 C7.35034878,1.07113055 7.56686256,1.2896203 7.56686256,1.55914107 C7.56686256,1.82866184 7.35034878,2.04715159 7.0832655,2.04715159 L6.22597979,2.04715159 C6.14129268,2.04715159 6.06168985,2.02518451 5.99246154,1.98658886 C6.12957575,2.14396507 6.3319535,2.24283998 6.55769296,2.24283998 L7.38510464,2.24283998 C7.79014103,2.24283998 8.13291139,1.90900859 8.13291139,1.4972067 C8.13291139,1.08253381 7.79810691,0.751573431 7.38510464,0.751573431 L6.55769296,0.751573431 C6.23871061,0.751573431 5.95834684,0.958622085 5.85361329,1.24774479 C5.94231814,1.13984739 6.0761967,1.07113055 6.22597979,1.07113055 C6.41218542,1.07113055 6.57381111,1.17733025 6.65462264,1.33298222 Z" id="Combined-Shape" fill="#FDE44A"></path>
                        <path d="M7.9556962,0.17877095 C8.81962025,0.17877095 9.24050633,0 9.24050633,0 C9.24050633,0 9.12974684,0.536312849 8.27689873,0.726256983 C7.42405063,0.916201117 7.09177215,0.17877095 7.9556962,0.17877095 Z" id="Path-24" fill="#DF3C29"></path>
                        <path d="M7.47943038,1.53743147 C7.47943038,1.53743147 6.37183544,1.16292846 5.64082278,1.94817674 C5.99525316,1.79112707 6.51582278,1.57367368 7.39082278,1.83945005 C7.47943038,1.63407741 7.47943038,1.53743147 7.47943038,1.53743147 Z" id="Path-25" fill="#DF3C29"></path>
                    </g>
                </g>
            </g>
        </g>
    </g>
</svg>