<?xml version="1.0" encoding="UTF-8" standalone="no"?>
<svg width="36px" height="26px" viewBox="0 0 36 26" version="1.1" xmlns="http://www.w3.org/2000/svg" xmlns:xlink="http://www.w3.org/1999/xlink">
    <!-- Generator: Sketch 3.8.1 (29687) - http://www.bohemiancoding.com/sketch -->
    <title>DE-HH</title>
    <desc>Created with Sketch.</desc>
    <defs></defs>
    <g id="DE" stroke="none" stroke-width="1" fill="none" fill-rule="evenodd">
        <g id="DE-HH">
            <rect id="Flag-Shape" fill="#DA121A" x="0" y="0" width="36" height="26" rx="4"></rect>
            <path d="M23.7815684,12.0853218 L24.6075068,12.0853218 C24.6075068,12.0853218 24.7694015,16.0730113 25.020476,17.4539211 C25.320027,19.101452 26.2593835,21.1706437 26.2593835,21.1706437 L26.2593835,21.996582 L9.74061651,21.996582 L9.74061651,21.1706437 C9.74061651,21.1706437 10.7357937,18.7944379 10.979524,17.4539211 C11.2864193,15.7659973 11.3924932,12.0853218 11.3924932,12.0853218 L12.2184316,12.0853218 L12.2184316,5.27112882 L15.522185,5.27112882 L15.522185,12.0853218 L16.3481233,12.0853218 L16.3481233,6.3037534 C16.3481233,5.39144709 17.0876937,4.6518767 18,4.6518767 C18.9123063,4.6518767 19.6518767,5.39144709 19.6518767,6.3037534 L19.6518767,12.0853218 L20.477815,12.0853218 L20.477815,5.27112882 L23.7815684,5.27112882 L23.7815684,12.0853218 Z M13.8703083,4.6518767 C14.3264614,4.6518767 14.6962466,4.2820915 14.6962466,3.82593835 C14.6962466,3.36978519 14.3264614,3 13.8703083,3 C13.4141551,3 13.0443699,3.36978519 13.0443699,3.82593835 C13.0443699,4.2820915 13.4141551,4.6518767 13.8703083,4.6518767 Z M22.1296917,4.6518767 C22.5858449,4.6518767 22.9556301,4.2820915 22.9556301,3.82593835 C22.9556301,3.36978519 22.5858449,3 22.1296917,3 C21.6735386,3 21.3037534,3.36978519 21.3037534,3.82593835 C21.3037534,4.2820915 21.6735386,4.6518767 22.1296917,4.6518767 Z" id="Combined-Shape" fill="#F3F3F3"></path>
            <rect id="Rectangle-46" fill="#ABABAB" x="15.7741699" y="15.3190918" width="4.45166016" height="6.67749023"></rect>
        </g>
    </g>
</svg>