<?xml version="1.0" encoding="UTF-8" standalone="no"?>
<svg width="36px" height="26px" viewBox="0 0 36 26" version="1.1" xmlns="http://www.w3.org/2000/svg" xmlns:xlink="http://www.w3.org/1999/xlink">
    <!-- Generator: Sketch 3.8.1 (29687) - http://www.bohemiancoding.com/sketch -->
    <title>DE-HB</title>
    <desc>Created with Sketch.</desc>
    <defs>
        <rect id="path-1" x="0" y="0" width="36" height="26" rx="4"></rect>
    </defs>
    <g id="DE" stroke="none" stroke-width="1" fill="none" fill-rule="evenodd">
        <g id="DE-HB">
            <mask id="mask-2" fill="white">
                <use xlink:href="#path-1"></use>
            </mask>
            <use id="Flag-Shape" fill="#F3F3F3" xlink:href="#path-1"></use>
            <path d="M0,0 L3,0 L3,4 L0,4 L0,0 Z M6,0 L36,0 L36,4 L6,4 L6,0 Z M6,7 L36,7 L36,10 L6,10 L6,7 Z M6,13 L36,13 L36,16 L6,16 L6,13 Z M6,19 L36,19 L36,22 L6,22 L6,19 Z M0,7 L3,7 L3,10 L0,10 L0,7 Z M3,4 L6,4 L6,7 L3,7 L3,4 Z M3,10 L6,10 L6,13 L3,13 L3,10 Z M0,13 L3,13 L3,16 L0,16 L0,13 Z M3,16 L6,16 L6,19 L3,19 L3,16 Z M0,19 L3,19 L3,22 L0,22 L0,19 Z M3,22 L6,22 L6,26 L3,26 L3,22 Z" id="Combined-Shape" fill="#DD0000" mask="url(#mask-2)"></path>
        </g>
    </g>
</svg>