<?xml version="1.0" encoding="UTF-8" standalone="no"?>
<svg width="36px" height="26px" viewBox="0 0 36 26" version="1.1" xmlns="http://www.w3.org/2000/svg" xmlns:xlink="http://www.w3.org/1999/xlink">
    <!-- Generator: Sketch 3.8.1 (29687) - http://www.bohemiancoding.com/sketch -->
    <title>DE-NI</title>
    <desc>Created with Sketch.</desc>
    <defs>
        <rect id="path-1" x="0" y="0" width="36" height="26" rx="4"></rect>
        <rect id="path-3" x="11" y="6" width="14" height="16"></rect>
        <mask id="mask-4" maskContentUnits="userSpaceOnUse" maskUnits="objectBoundingBox" x="-0.5" y="-0.5" width="15" height="17">
            <rect x="10.5" y="5.5" width="15" height="17" fill="white"></rect>
            <use xlink:href="#path-3" fill="black"></use>
        </mask>
    </defs>
    <g id="DE" stroke="none" stroke-width="1" fill="none" fill-rule="evenodd">
        <g id="DE-NI">
            <mask id="mask-2" fill="white">
                <use xlink:href="#path-1"></use>
            </mask>
            <use id="Flag-Shape" fill="#F3F3F3" xlink:href="#path-1"></use>
            <rect id="Rectangle-51" fill="#000000" mask="url(#mask-2)" x="0" y="0" width="36" height="8"></rect>
            <rect id="Rectangle-51-Copy" fill="#DD0000" mask="url(#mask-2)" x="0" y="8" width="36" height="9"></rect>
            <rect id="Rectangle-51-Copy-2" fill="#FFCE00" mask="url(#mask-2)" x="0" y="17" width="36" height="9"></rect>
            <g id="Rectangle-8" mask="url(#mask-2)">
                <use fill="#DD0000" fill-rule="evenodd" xlink:href="#path-3"></use>
                <use stroke="#000000" mask="url(#mask-4)" stroke-width="1" stroke-linecap="round" stroke-linejoin="round" xlink:href="#path-3"></use>
            </g>
            <path d="M21.774842,10.6410266 C21.245351,11.4066058 21.2871111,11.8074698 21.7694282,12.3321492 C22.209634,12.8103916 22.4791892,13.1042014 21.9040785,13.7432727 C21.6762043,13.9961435 21.6563845,13.8100274 21.6563845,13.8100274 C21.5088931,13.0189154 20.9995589,12.860129 20.5180283,12.8403285 C19.9684796,12.817784 19.4184409,12.962847 18.7411751,12.447805 C18.2016536,12.0374363 18.3743537,11.3752048 18.300464,10.808038 C18.2706583,10.5771554 18.2354209,10.3394084 18.1923504,10.1009711 C18.3689169,10.1642507 18.5987463,10.1645376 18.8565608,10.0092767 C18.4961606,9.97704796 18.3473466,9.89392282 18.3604594,9.84260063 C18.5011537,9.84397124 18.6927271,9.66975263 18.7812626,9.60696607 C18.3829309,9.61261026 18.5032101,9.53079438 18.2151116,9.54359988 C18.0932544,9.53924543 18.4056949,9.42409394 18.6071811,9.24540833 C18.2150241,9.20469171 18.3211508,9.02131673 17.9822669,9.04264957 C18.058921,9.01457511 18.3609587,8.91603809 18.5276579,8.71582633 C18.1414005,8.77942448 18.1920384,8.56573268 17.8231644,8.59278162 C17.9080246,8.56775245 18.3229032,8.4349261 18.4813027,8.24327097 C18.0917913,8.29241793 17.9767333,8.09628246 17.6342312,8.11915403 C17.6962911,8.10256445 18.0573217,7.94978285 18.2844399,7.56715998 C17.7495162,7.75279745 17.6968763,7.71913258 17.3884724,7.72260184 C17.4765078,7.70238047 17.6968327,7.31648853 17.8302482,7.18044998 C17.3653358,7.44238333 17.0669807,7.57027031 16.8380362,7.45059297 C16.8531395,7.41488772 16.865268,7.37868808 16.8743473,7.34152308 C16.8688089,7.16328346 16.8947889,7.0133641 16.9476541,6.8442194 C17.0074852,6.67638526 17.0400508,6.61377419 16.858266,6.73092085 C16.7588011,6.79785261 16.6415565,6.90187916 16.5526553,7.02941815 C16.5623766,6.88352259 16.567165,6.73696004 16.5127058,6.57902226 C16.482552,6.44958171 16.4340174,6.49975568 16.3685191,6.58303281 C16.3102339,6.66613296 16.2451539,6.79472656 16.2079097,6.92229045 C16.1842259,7.00135804 16.1721427,7.08051925 16.1657851,7.15925628 C16.0978884,7.15118229 16.0295529,7.15862725 15.9628116,7.18223471 C15.9106924,7.20062923 15.704162,7.35356012 15.5299077,7.30488086 C15.6050101,7.4011305 15.6897182,7.47268442 15.6897182,7.47268442 C15.5255654,7.50303181 15.4528834,7.54399532 15.2341426,7.51008755 C15.291774,7.6148982 15.4649416,7.6719571 15.5959555,7.69755246 C15.5408469,7.73669789 15.4883679,7.78025473 15.441246,7.83020491 C15.1205598,8.1706794 14.6255449,8.30654366 14.4131585,8.60234385 C14.3760519,8.65456996 14.3903741,8.69623561 14.3063474,8.75396279 C14.2119136,8.81913203 14.0476276,8.93398963 14.0922675,9.08479249 C14.1205317,9.25412153 14.2047075,9.35279629 14.3141012,9.3668497 C14.4244368,9.38075392 14.5594449,9.30964041 14.7096104,9.26412804 C14.9075588,9.20332201 14.917179,9.31284096 14.7586963,9.33022032 C14.6623613,9.35899831 14.4914239,9.40442145 14.4094856,9.47533607 C14.3385981,9.53677551 14.3343012,9.62242806 14.4909308,9.66955395 C14.5812872,9.68227779 14.7225138,9.65652755 14.8446665,9.60483099 C14.9668938,9.55360541 15.0695761,9.47650809 15.1917288,9.42481152 C15.350624,9.33687877 15.4738706,9.34390991 15.5904116,9.37566018 C15.9403826,9.5249289 16.1965401,9.42931427 16.4318029,9.23224291 L16.4170301,9.28527642 C16.4616171,9.79239031 16.3366971,10.2259332 16.1421137,10.6371981 C15.8781757,10.8421913 15.6998482,11.0360375 15.5792998,11.2289388 C15.4793275,11.1158685 15.3748932,11.0020565 15.2716244,10.8895083 C15.1267666,10.5783601 14.7136888,10.0702323 14.3964118,10.2310499 C13.9902687,10.4373257 13.3558802,10.5344349 12.8590766,10.6102332 C12.6091026,10.6778318 12.5631624,10.8144979 12.4768644,10.8914138 C12.3900955,10.9684044 12.2626471,10.9866614 12.1763492,11.0635773 C12.0895803,11.1405679 12.044111,11.2771594 11.9664695,11.4178814 C11.8888281,11.5586035 11.77956,11.7038525 11.7611163,11.8038158 C11.7426726,11.9037791 11.8155242,11.9583821 11.9109496,11.9451977 C12.0992104,11.8415091 12.3859941,11.8264978 12.5346708,11.6740408 C12.5576409,11.6057078 12.5253519,11.4688807 12.5713667,11.3326856 C12.616836,11.1960941 12.853627,11.0330591 12.98115,11.0152731 C13.1081275,10.9970908 13.1263824,11.1245538 13.1671364,11.1837583 C13.2078905,11.2429629 13.2716147,11.2338344 13.3308125,11.1930756 C13.3900102,11.1523169 13.444607,11.0794569 13.5630025,10.9979394 C13.8287584,10.8105217 14.1215911,10.7453072 14.4224001,10.8767752 C14.7166951,11.0189309 14.7224235,11.3873616 14.7935244,11.6686728 C14.8375997,11.8311522 14.9239354,12.1964704 15.0569689,12.506112 C15.0399366,12.4991541 15.0217153,12.4938329 15.0014377,12.4907686 C14.7995801,12.4628768 14.6074262,12.4078598 14.4150018,12.3572307 C14.3368617,12.3362955 14.1485352,12.302398 13.9505474,12.2806523 C13.317446,12.2182354 13.4319141,13.0995502 13.1994533,13.6099945 C13.0994983,13.9999937 12.8889666,13.8716061 12.6513902,14.1028396 C12.4802129,14.2168576 12.2791361,14.4225149 12.1994384,14.5654938 C12.1198152,14.7089438 12.1615711,14.7897154 12.3451503,14.8485047 C12.5288041,14.9077649 12.7992443,14.9267242 12.9302759,14.8335492 C13.0326877,14.7608399 13.0163546,14.6089328 13.0183115,14.5024079 C13.0186435,14.4709736 13.020887,14.4455129 13.0269257,14.4257274 C13.1755,14.2665275 13.2366238,14.3659569 13.3639595,14.3713747 C13.434673,14.3606563 13.5159063,14.3188211 13.5452603,14.2267855 C13.5746888,14.1352208 13.5526344,13.9929102 13.6114169,13.80931 C13.6701994,13.6257097 13.8102152,13.4002742 13.9080042,13.0941416 C14.1991975,12.8143431 14.7824741,13.3394452 15.1085054,13.5509242 C15.2842543,13.666958 15.4641714,13.7910219 15.632656,13.9038612 C15.6932314,13.9449594 15.7726921,13.9285102 15.8696152,13.8851553 C15.9158244,13.9483237 15.9635444,14.0088388 16.0127005,14.0662296 C16.437749,14.518871 16.7561343,14.7064558 17.2261886,14.7787676 C17.5587618,14.8303709 17.8864941,14.7630078 18.2425873,14.7558468 C17.804311,15.8261047 18.4318622,15.9449223 18.6963995,16.4234718 C18.8207368,16.8976757 18.4589615,17.3079049 18.1388779,17.6125571 C17.9347153,17.7926322 17.6714618,17.8739215 17.4972834,18.0878706 C17.3881323,18.2186172 17.330745,18.3653041 17.2981487,18.5191683 C17.2645637,18.6789826 17.2567348,18.8429246 17.2464021,19.0062976 C17.2980604,19.26848 17.7770129,18.8208605 17.8760172,18.7235857 C17.9802396,18.6013445 17.9201966,18.5331255 17.926149,18.4365892 C17.9321761,18.3405239 18.0046695,18.2160667 18.0707395,18.1882205 C18.136735,18.1599032 18.196778,18.2281222 18.2611033,18.231934 C18.3255032,18.2362167 18.3937143,18.1761668 18.4313958,18.0818465 C18.4801105,17.7859014 18.5860075,17.6407036 18.8246501,17.4619258 C19.0270679,17.3135087 19.363767,17.0771955 19.536597,16.8943588 C19.7090306,16.7120677 19.7167278,16.5838733 19.6566848,16.5156543 C19.4594883,16.3861201 19.37422,16.3354151 19.3667175,16.041133 C19.3746385,15.9143516 19.5232818,15.4842928 19.624866,15.1838354 C19.636,15.193176 19.6466631,15.2025912 19.6569299,15.212552 C19.7435773,15.2963514 19.6330059,15.6711345 20.0028653,16.2020404 C20.5156974,16.9376954 20.8172612,16.936758 21.6181922,16.8823077 C21.7985452,16.9329177 21.9732952,17.0853193 22.1506615,17.3700751 C22.3284988,17.6547564 22.5089524,18.0717918 22.4920691,18.3766957 C22.4751111,18.6811287 22.2607417,18.8729594 22.1254161,19.1097218 C22.1011693,19.1517034 22.07965,19.1956669 22.0605599,19.2397284 C21.9726121,19.4433979 21.9398183,19.6508836 21.9675297,19.7527089 C22.1291172,19.9042988 22.5550626,19.6919894 22.6694011,19.6275296 C22.7458287,19.5401073 22.7117115,19.4161225 22.7090952,19.2837683 C22.7064042,19.1509432 22.7343469,19.0103688 22.8190683,18.95398 C22.9037151,18.8971202 23.0443479,18.925537 23.0809807,18.8154506 C23.1176882,18.7058351 23.0503211,18.4572454 22.9598961,18.2490005 C22.6236582,17.738357 22.7254108,17.1158487 22.565463,16.557003 C22.4749634,16.3482871 22.288933,16.3989978 22.1479039,16.3711265 C21.853192,16.2903518 21.7861466,16.0407455 21.7843318,15.770185 C21.7560927,15.238273 21.8252563,14.6812762 21.696062,14.1581139 C21.8803009,14.1448622 21.9850702,14.1297148 22.1822185,14.1583526 C22.7599233,14.2276133 23.1507527,13.7722271 23.287791,13.1774423 C23.3736504,12.8051253 23.0770639,12.2766138 22.7887491,12.0441938 C21.972705,11.3874672 22.6781558,10.2454376 23.318247,9.6844247 C22.7342212,9.71851772 22.1823206,10.0652011 21.774842,10.6410266 L21.774842,10.6410266 Z" id="Path" fill="#F2F2F2" mask="url(#mask-2)"></path>
        </g>
    </g>
</svg>