<svg width="36" height="26" viewBox="0 0 36 26" xmlns="http://www.w3.org/2000/svg" xmlns:xlink="http://www.w3.org/1999/xlink"><title>NL-AW</title><defs><path id="a" d="M0 26h36V0H0z"/></defs><g fill="none" fill-rule="evenodd"><path d="M6.276 6.276l-.943 3.057-.943-3.057-3.057-.943L4.39 4.39l.943-3.057.943 3.057 3.057.943-3.057.943zM32 0H4a4 4 0 0 0-4 4v13.055h36V4a4 4 0 0 0-4-4zM4 26h28a3.991 3.991 0 0 0 3.867-3.028H.133A3.991 3.991 0 0 0 4 26" fill="#4189DD"/><mask id="b" fill="#fff"><use xlink:href="#a"/></mask><path fill="#4189DD" mask="url(#b)" d="M0 21h36v-1.972H0z"/><path d="M6.06 6.06l-.726 2.355-.727-2.355-2.355-.726 2.355-.727.727-2.355.726 2.355 2.355.727-2.355.726zm-.726-4.726L4.39 4.39l-3.057.943 3.057.942.943 3.058.942-3.058 3.058-.942-3.058-.943-.942-3.057z" fill="#FFF" mask="url(#b)"/><path fill="#D21034" mask="url(#b)" d="M5.333 2.252l-.726 2.355-2.355.726 2.355.727.726 2.355.726-2.355 2.356-.727-2.356-.726z"/><path fill="#F9D616" mask="url(#b)" d="M0 19.028h36v-1.972H0zM0 22c0 .337.054.659.133.972h35.734A3.95 3.95 0 0 0 36 22v-1H0v1z"/></g></svg>