<svg width="36" height="26" viewBox="0 0 36 26" xmlns="http://www.w3.org/2000/svg" xmlns:xlink="http://www.w3.org/1999/xlink"><title>NL-BQ1</title><defs><path d="M4 0a4 4 0 0 0-4 4v18a4 4 0 0 0 4 4h28a4 4 0 0 0 4-4V4a4 4 0 0 0-4-4H4z" id="a"/></defs><g fill="none" fill-rule="evenodd"><mask id="b" fill="#fff"><use xlink:href="#a"/></mask><path fill="#EEEDED" mask="url(#b)" d="M0 26h36V0H0z"/><path fill="#012A87" mask="url(#b)" d="M36 26H0L36 0z"/><path fill="#F9D90F" mask="url(#b)" d="M0 0v10.833L13.25 0z"/><path d="M11 15.048a4.847 4.847 0 0 1-4.842-4.842A4.848 4.848 0 0 1 11 5.363a4.848 4.848 0 0 1 4.842 4.843A4.847 4.847 0 0 1 11 15.048m5.513-4.154l1.193-.688-1.193-.689a5.566 5.566 0 0 0-4.825-4.825L11 3.5l-.688 1.192a5.566 5.566 0 0 0-4.825 4.825l-1.193.69 1.193.687a5.566 5.566 0 0 0 4.825 4.825L11 16.911l.688-1.192a5.566 5.566 0 0 0 4.825-4.825" fill="#000" mask="url(#b)"/><path fill="#DC171D" mask="url(#b)" d="M12.914 10.206l.957-1.658h-1.914L11 6.89l-.957 1.657H8.129l.957 1.658-.957 1.658h1.914L11 13.52l.957-1.657h1.914z"/></g></svg>