<svg width="36" height="26" viewBox="0 0 36 26" xmlns="http://www.w3.org/2000/svg" xmlns:xlink="http://www.w3.org/1999/xlink"><title>NL-BQ3</title><defs><path id="a" d="M0 26h36V0H0z"/><path id="c" d="M24 8L12 .938 0 8l12 7.062z"/></defs><g fill="none" fill-rule="evenodd"><path d="M32 26H4c-2.2 0-4-1.8-4-4V4c0-2.2 1.8-4 4-4h28c2.2 0 4 1.8 4 4v18c0 2.2-1.8 4-4 4z" fill="#ED1C24"/><path d="M4 25c-1.654 0-3-1.346-3-3V4c0-1.654 1.346-3 3-3h28c1.654 0 3 1.346 3 3v18c0 1.654-1.346 3-3 3H4z" fill="#2E3192"/><mask id="b" fill="#fff"><use xlink:href="#a"/></mask><path fill="#ED1C24" mask="url(#b)" d="M17.5 26h1V0h-1z"/><path fill="#ED1C24" mask="url(#b)" d="M0 13.5v-1h36v1z"/><path d="M18 21.063a1 1 0 0 1-.507-.139l-12-7.063a.997.997 0 0 1 0-1.723l12-7.063a1 1 0 0 1 1.014 0l12 7.064a.997.997 0 0 1 0 1.723l-12 7.062a1 1 0 0 1-.507.139" fill="#ED1C24" mask="url(#b)"/><g transform="translate(6 5)"><mask id="d" fill="#fff"><use xlink:href="#c"/></mask><use fill="#FFF" xlink:href="#c"/><path d="M2 13h21l-3.415-5.976a.63.63 0 0 0-1.112.031L18 8l-.486-.971a.631.631 0 0 0-1.106-.043L14 11H8L5.572 8.572a.631.631 0 0 0-.988.121L2 13z" fill="#3E721D" mask="url(#d)"/><path fill="#FFCC4D" mask="url(#d)" d="M12 2.382l.449 1.382h1.453l-1.175.854L13.176 6 12 5.146 10.824 6l.449-1.382-1.175-.854h1.453z"/></g></g></svg>