<svg width="36" height="26" viewBox="0 0 36 26" xmlns="http://www.w3.org/2000/svg" xmlns:xlink="http://www.w3.org/1999/xlink"><title>NL-BQ2</title><defs><path d="M32 26H4a4 4 0 0 1-4-4V4a4 4 0 0 1 4-4h28a4 4 0 0 1 4 4v18a4 4 0 0 1-4 4" id="a"/></defs><g fill="none" fill-rule="evenodd"><mask id="b" fill="#fff"><use xlink:href="#a"/></mask><use fill="#F6F9FA" xlink:href="#a"/><g mask="url(#b)"><path fill="#BE1931" d="M0 13L18 0H0z"/><path fill="#269" d="M36 13L18 26h18zM0 13l18 13H0z"/><path fill="#BE1931" d="M36 13L18 0h18z"/></g><path fill="#FFCC4D" mask="url(#b)" d="M18 5.429L19.81 11h5.858l-4.739 3.197 1.81 5.449L18 16.141l-4.739 3.412 1.81-5.34L10.332 11h5.858z"/></g></svg>