<svg width="36" height="26" viewBox="0 0 36 26" xmlns="http://www.w3.org/2000/svg" xmlns:xlink="http://www.w3.org/1999/xlink"><title>NL-CW</title><defs><path id="a" d="M0 26h36V0H0z"/></defs><g fill="none" fill-rule="evenodd"><path d="M0 22a4 4 0 0 0 4 4h28a4 4 0 0 0 4-4v-2H0v2z" fill="#002B7F"/><mask id="b" fill="#fff"><use xlink:href="#a"/></mask><path fill="#F9E813" mask="url(#b)" d="M0 20h36v-4H0z"/><path d="M9.567 10.157L8 9.018l-1.568 1.14.6-1.844-1.569-1.138h1.938l.6-1.843.597 1.843h1.938L8.968 8.314l.6 1.843zM4 4.764l-1.176.854.45-1.382-1.177-.854h1.454L4.001 2l.448 1.382h1.453l-1.176.854.45 1.382L4 4.764zM32 0H4a4 4 0 0 0-4 4v12h36V4a4 4 0 0 0-4-4z" fill="#002B7F" mask="url(#b)"/><path fill="#FFF" mask="url(#b)" d="M8.599 7.176l-.6-1.843-.597 1.843H5.464l1.568 1.139-.6 1.842L8 9.019l1.568 1.138-.6-1.842 1.568-1.139zM5.902 3.382H4.45L4 2l-.449 1.382H2.098l1.175.854-.449 1.382L4 4.764l1.175.854-.449-1.382z"/></g></svg>