<svg width="36" height="26" viewBox="0 0 36 26" xmlns="http://www.w3.org/2000/svg" xmlns:xlink="http://www.w3.org/1999/xlink"><title>NL-DR</title><defs><path id="a" d="M0 26h36V0H0z"/></defs><g fill="none" fill-rule="evenodd"><path d="M36 22a4 4 0 0 1-4 4H4a4 4 0 0 1-4-4V4a4 4 0 0 1 4-4h28a4 4 0 0 1 4 4v18z" fill="#F6F9FA"/><mask id="b" fill="#fff"><use xlink:href="#a"/></mask><path fill="#DD0906" mask="url(#b)" d="M0 8h36V6H0zm0 12h36v-2H0z"/><path d="M17 16h2v-2h-2v2zm5-5V9h-2v2h-1V9h-2v2h-1V9h-2v2h1v5h-1v1h8v-1h-1v-5h1z" fill="#000" mask="url(#b)"/><path d="M32.054 12.624h-1.252l1.013.744-.387 1.198 1.013-.737 1.013.734-.387-1.195 1.013-.744h-1.252l-.387-1.19-.387 1.19zm-3.733 0h-1.252l1.013.744-.387 1.198 1.013-.737 1.013.734-.387-1.195 1.013-.744h-1.252l-.387-1.19-.387 1.19zm-3.346-1.19l.387 1.19h1.252l-1.013.744.387 1.195-1.013-.734-1.013.737.387-1.198-1.013-.744h1.252l.387-1.19zm-14.337 1.19H9.386l1.013.744-.387 1.198 1.013-.737 1.013.734-.387-1.195 1.013-.744h-1.252l-.387-1.19-.387 1.19zm-3.733 0H5.653l1.013.744-.387 1.198 1.013-.737 1.013.734-.387-1.195 1.013-.744H7.679l-.387-1.19-.387 1.19zm-3.345-1.19l.387 1.19h1.252l-1.013.744.387 1.195-1.013-.734-1.013.737.387-1.198-1.013-.744h1.252l.387-1.19z" fill="#DD0906" mask="url(#b)"/></g></svg>