<svg width="36" height="26" viewBox="0 0 36 26" xmlns="http://www.w3.org/2000/svg" xmlns:xlink="http://www.w3.org/1999/xlink"><title>NL-FR</title><defs><path id="a" d="M18 26h18V0H0v26z"/></defs><g fill="none" fill-rule="evenodd"><path d="M32 0h-6.143L36 7.429V4a4 4 0 0 0-4-4zM5.286 0L36 22v-7.143L15.571 0H5.286zM0 22a4 4 0 0 0 4 4h6.429L0 18.571V22zM0 4l31 22H20.714L0 11.143V4z" fill="#0053A7"/><mask id="b" fill="#fff"><use xlink:href="#a"/></mask><path d="M15.571 0l20.43 14.857V7.429L25.856 0H15.571zM.001 18.571L10.427 26h10.286L0 11.143v7.428zM5.284 0L36 22a4 4 0 0 1-4 4h-1L0 4a4 4 0 0 1 4-4h1.285z" fill="#F6F9FA" mask="url(#b)"/><path d="M32.877 7.298L32 8l.374-1.06c.183-.52.026-1.131-.44-1.427-1.485-.943-3.468 2.26-1.44 4.608 2.9 1.148 5.273-1.786 3.876-2.88-.435-.34-1.062-.288-1.493.057m-6.848-4.961l-.877.702.374-1.06c.183-.52.026-1.131-.44-1.427-1.485-.943-3.468 2.26-1.44 4.608 2.9 1.149 5.272-1.786 3.876-2.88-.435-.34-1.062-.288-1.493.057M12.095 21.915l-.876.703.373-1.06c.184-.521.026-1.132-.44-1.428-1.485-.943-3.467 2.26-1.44 4.608 2.9 1.149 5.273-1.786 3.877-2.88-.435-.34-1.063-.288-1.494.057m-6.848-4.961l-.877.703.374-1.06c.184-.521.026-1.131-.44-1.427-1.485-.944-3.467 2.259-1.44 4.608 2.9 1.148 5.273-1.787 3.876-2.88-.435-.34-1.062-.29-1.493.056m22.63 1.344L27 19l.374-1.06c.183-.52.026-1.131-.44-1.427-1.485-.943-3.468 2.26-1.44 4.608 2.9 1.148 5.273-1.786 3.876-2.88-.435-.34-1.062-.288-1.493.057m-9.315-6.672l-.877.703.374-1.06c.183-.521.026-1.132-.44-1.428-1.485-.943-3.467 2.26-1.44 4.608 2.9 1.149 5.273-1.786 3.876-2.88-.435-.34-1.062-.288-1.493.057M10.74 4.898c1.397 1.093-.975 4.028-3.876 2.88-2.027-2.35-.045-5.552 1.44-4.608.466.296.624.906.44 1.427l-.374 1.06.877-.703c.43-.345 1.058-.396 1.493-.056" fill="#F13C2B"/></g></svg>