<svg width="36" height="26" viewBox="0 0 36 26" xmlns="http://www.w3.org/2000/svg"><title>NL-FL</title><g fill="none" fill-rule="evenodd"><path d="M36 4a4 4 0 0 0-4-4H4a4 4 0 0 0-4 4v9h36V4z" fill="#0643B2"/><path d="M0 13v9a4 4 0 0 0 4 4h28a4 4 0 0 0 4-4v-9H0z" fill="#008A2A"/><path d="M19.938 11.378c-1.67-.835-3.678-.635-4.998.686-.52.518-1.36.455-1.88-.062-1.687-1.688-4.434-1.719-6.12-.032a1.331 1.331 0 0 1-1.88-.015 4.318 4.318 0 0 0-4.37-1.073c-.242.077-.466.135-.689.2v3.1c.561-.135 1.1-.29 1.597-.449.474-.15.99-.026 1.342.327a4.332 4.332 0 0 0 6.121 0 1.332 1.332 0 0 1 1.88 0A4.315 4.315 0 0 0 14 15.326a4.314 4.314 0 0 0 3.06-1.266c.407-.406 1.024-.255 1.535.001.925.463 2.034.94 3.388.94h14.016v-3H21.982c-.889 0-1.538-.37-2.044-.623" fill="#FDDF00"/><path d="M4 7v1l-.5.979c.793.794 2.21.79 3 0L6 8V7H4z" fill="#FFF"/><path d="M5 1.978c-1.452 1.089-1.717 2.196-.798 3.285-.547-.314-1.241-.292-1.812.068-.822.519-1.068 1.68-.549 2.503 0 0 .253-1.334 3.159-1.334 2.305 0 3.348 1.035 3.159 1.334.519-.822.273-1.984-.549-2.503-.571-.36-1.265-.382-1.812-.068.919-1.09.654-2.196-.798-3.285" fill="#FFF"/></g></svg>