<svg width="36" height="26" viewBox="0 0 36 26" xmlns="http://www.w3.org/2000/svg" xmlns:xlink="http://www.w3.org/1999/xlink"><title>NL-LI</title><defs><path id="a" d="M0 26.167h36V0H0z"/></defs><g fill="none" fill-rule="evenodd"><path d="M36 4a4 4 0 0 0-4-4H4a4 4 0 0 0-4 4v9.042h36V4z" fill="#F6F9FA"/><path d="M0 13.042v9.125a4 4 0 0 0 4 4h28a4 4 0 0 0 4-4v-9.125H0z" fill="#F8C600"/><mask id="b" fill="#fff"><use xlink:href="#a"/></mask><path fill="#2B5490" mask="url(#b)" d="M0 16h36v-6H0z"/><path d="M16.307 15.707c-.103 0-.202-.007-.298-.019-1.086-.132-1.718-.956-1.786-1.049a.547.547 0 0 1 .44-.867c.174 0 .339.084.442.225.018.024.47.617 1.215.617.11 0 .222-.013.335-.04.3-.07.482-.232.549-.495.118-.45-.12-1.054-.576-1.469-.792-.72-.77-1.59-.486-2.164a1.69 1.69 0 0 1 .37-.484c-.066-.342.08-.754.21-1.117.094-.263.183-.511.158-.67-.003-.025.003-.085.018-.105.015-.019.038-.07.062-.07h.003c.344 0 .707.38.84.697.208-.329.419-.689.306-1.266-.008-.042.014-.074.054-.091.01-.004.022-.002.034-.002.029 0 .058.016.075.042.21.313.52.487.876.487.456 0 .87-.342 1.009-.746.01-.034.043-.121.079-.121h.006c.034 0 .065.08.08.111.246.491.3.92.168 1.212-.098.212-.297.377-.576.446a1.044 1.044 0 0 0-.236.083c.368.117.732.544.825.833a.095.095 0 0 1-.013.085.093.093 0 0 1-.072.035l-.202-.016a3.727 3.727 0 0 0-.365-.024c-.082 0-.163.006-.242.021a.966.966 0 0 0-.327.124c.183.077.308.251.406.385.256.353.176.658.173.67a.093.093 0 0 1-.06.062.095.095 0 0 1-.085-.016c-.127-.106-.297-.157-.517-.157-.288 0-.612.089-.872.161l-.186.049a1.57 1.57 0 0 1-.383.046 1.62 1.62 0 0 1-.656-.132c-.155.368.09.672.26.826.755.687 1.116 1.711.898 2.549-.17.653-.664 1.121-1.357 1.284-.2.047-.401.07-.596.07" fill="#E43F09" mask="url(#b)"/><path d="M20.241 7h-.012c-.072 0-.134.069-.158.137-.126.368-.506.633-.924.633a.947.947 0 0 1-.802-.442.18.18 0 0 0-.217-.063.181.181 0 0 0-.108.201c.092.467-.045.8-.21 1.084-.18-.298-.509-.57-.81-.57l-.049.002a.18.18 0 0 0-.124.069.174.174 0 0 0-.036.137c.021.138-.064.376-.154.627-.123.347-.263.737-.249 1.141a1.758 1.758 0 0 0-.327.45c-.299.603-.323 1.517.506 2.271.426.387.657.967.55 1.38-.059.227-.217.368-.484.431a1.4 1.4 0 0 1-.314.036c-.697 0-1.126-.558-1.144-.582a.637.637 0 0 0-.884-.138.636.636 0 0 0-.142.887c.07.097.718.948 1.848 1.087a2.56 2.56 0 0 0 .926-.054c.726-.17 1.245-.661 1.423-1.348.226-.87-.145-1.93-.924-2.639-.137-.124-.332-.358-.265-.64.18.067.387.103.6.103.141 0 .282-.017.406-.048l.19-.051c.266-.074.57-.157.845-.157.2 0 .35.044.461.136a.18.18 0 0 0 .287-.091c.01-.036.09-.365-.186-.746-.076-.105-.167-.231-.289-.325a.931.931 0 0 1 .155-.043c.073-.014.148-.019.225-.019.118 0 .238.064.355.075.068.006.135.069.2.069h.012c.055 0 .107-.078.142-.121a.24.24 0 0 0 .03-.192c-.082-.249-.35-.61-.667-.799.331-.089.541-.259.647-.49.146-.319.09-.762-.168-1.279-.03-.061-.093-.119-.16-.119m0 .212c.45.904.182 1.352-.35 1.486-.14.035-.338.069-.379.221.358.02.802.483.905.797-.184-.012-.378-.04-.567-.04-.088 0-.175.006-.259.022-.298.058-.48.208-.488.262.238.012.385.215.51.388.234.322.16.593.16.593-.159-.131-.36-.177-.576-.177-.372 0-.783.138-1.08.214a1.48 1.48 0 0 1-.36.042 1.47 1.47 0 0 1-.697-.163c-.206.365-.069.732.24 1.013.731.665 1.081 1.654.872 2.461-.162.62-.632 1.064-1.29 1.218a2.55 2.55 0 0 1-.864.051c-1.07-.132-1.692-.97-1.725-1.014a.457.457 0 0 1 .37-.724c.14 0 .278.065.367.188.03.039.506.654 1.288.654.113 0 .231-.013.356-.042.332-.078.54-.266.616-.56.125-.481-.123-1.122-.603-1.558-.755-.687-.735-1.514-.466-2.058.09-.181.213-.329.35-.459-.064-.715.46-1.458.396-1.866L17 8.16c.336 0 .762.494.767.799.224-.365.572-.803.43-1.527.246.368.602.525.95.525.476 0 .938-.293 1.094-.745" fill="#F6F9FA" mask="url(#b)"/><path d="M7.946 22.148c-.157 0-.36-.057-.616-.173-.318-.132-.47-.246-.504-.383a.255.255 0 0 1 .035-.195.981.981 0 0 1-.326.077.27.27 0 0 1-.23-.105c-.097-.133-.084-.377.043-.79-.028-.162 0-.307.083-.4a.344.344 0 0 1 .27-.109.68.68 0 0 1 .106.01l.256-.549c.172-.226.325-.27.425-.27.122 0 .232.064.312.177.144.204.166.53.063.86a.372.372 0 0 0 .21.066c.266 0 .582-.264.888-.518.117-.097.235-.195.352-.28l.744-.933c-.044.002-.09.002-.135.002-.565 0-.94-.126-1.146-.386-.165-.209-.212-.497-.14-.858l-.408-.279c-.047-.02-.11-.054-.171-.086-.152-.082-.31-.166-.431-.166a.201.201 0 0 0-.145.057c-.088.094-.186.241-.126.378.049.114.203.2.358.2a.132.132 0 0 1 .037-.005c.052 0 .117.022.13.061.018.05.039.1-.011.118a.978.978 0 0 1-.35.068c-.517 0-.838-.455-.838-.877 0-.34.227-.739.869-.739.194 0 .417.037.66.111.22.071.405.106.569.106.295 0 .476-.115.666-.236.084-.054.168-.106.26-.15.503-.92 1.34-1.054 2.163-1.054.139 0 .28.004.42.01.159.025.3.038.437.038a1.84 1.84 0 0 0 1.083-.336.093.093 0 0 1 .057-.019.09.09 0 0 1 .043.01.102.102 0 0 1 .056.085l.058 1.307a.1.1 0 0 1-.048.088l-1.132.687a.732.732 0 0 1 .564.47c.143.39.013 1.046-.782 1.721-.206.193-.307.465-.254.69.053.225.254.394.58.49a.1.1 0 0 1 .07.088.1.1 0 0 1-.056.097 1.032 1.032 0 0 1-.431.106c-.377 0-.601-.27-.818-.53l-.031-.038c-.156.181-.252.454-.197.6.01.028.04.111.21.11h.016c.043 0 .108.017.125.05.019.036.055.077.028.108a.535.535 0 0 1-.4.192.44.44 0 0 1-.346-.167.552.552 0 0 1-.113-.34l-1.361.77c.13.187.238.402.153.573-.071.144-.257.213-.568.213-.22.098-.365.154-.483.154a.293.293 0 0 1-.217-.09.474.474 0 0 1-.108-.267c-.07.165-.17.38-.477.38" fill="#E43F09" mask="url(#b)"/><path d="M13.865 14.493c-.04 0-.08.012-.114.036a1.715 1.715 0 0 1-1.027.32c-.13 0-.266-.013-.406-.037a9.369 9.369 0 0 0-.451-.012c-.838 0-1.69.134-2.26 1.091-.075.04-.145.084-.215.128-.186.12-.347.221-.613.221-.154 0-.33-.033-.536-.1a2.424 2.424 0 0 0-.694-.118c-.535 0-.768.264-.86.422-.153.267-.142.618.03.916a.922.922 0 0 0 .8.476c.127 0 .256-.025.386-.075a.198.198 0 0 0-.127-.373.265.265 0 0 1-.066.008c-.113 0-.233-.062-.267-.14-.04-.092.053-.213.113-.277a.103.103 0 0 1 .067-.02c.099 0 .245.078.386.154.063.034.126.067.188.097l.329.226c-.06.36-.003.654.17.874.218.274.595.413 1.15.424l-.615.768c-.111.082-.223.176-.336.27-.292.242-.594.493-.823.493a.249.249 0 0 1-.094-.017c.084-.332.049-.654-.1-.866a.475.475 0 0 0-.392-.218c-.122 0-.307.05-.491.29l-.25.52a.708.708 0 0 0-.045-.003.439.439 0 0 0-.344.142c-.097.11-.135.265-.116.475-.128.43-.132.682-.015.84a.364.364 0 0 0 .308.145c.06 0 .122-.01.186-.027a.347.347 0 0 0 .01.07c.042.17.21.305.564.452.264.12.479.18.65.18a.522.522 0 0 0 .455-.226.386.386 0 0 0 .348.201c.127 0 .269-.049.445-.153h.038c.129 0 .523 0 .656-.267.093-.185.015-.395-.101-.584l1.14-.646a.61.61 0 0 0 .117.245.542.542 0 0 0 .424.204.63.63 0 0 0 .473-.227.196.196 0 1 0-.148-.327l-.025.001a.59.59 0 0 1-.07.005c-.1 0-.112-.032-.118-.046-.031-.084.016-.258.11-.406.209.25.452.507.844.507.149 0 .304-.038.472-.116a.197.197 0 0 0-.027-.368c-.203-.06-.456-.18-.512-.418-.045-.188.047-.429.229-.599.826-.7.958-1.403.804-1.824a.813.813 0 0 0-.422-.463l.948-.575a.199.199 0 0 0 .095-.178l-.058-1.307a.198.198 0 0 0-.197-.188m0 .197l.058 1.307-1.421.862c.05-.007.1-.01.148-.01.824 0 1.093 1.032-.09 2.035-.397.372-.52 1.09.363 1.35a.941.941 0 0 1-.39.098c-.384 0-.6-.335-.843-.615-.312.271-.524.954.008.954.029 0 .06-.002.094-.006a.437.437 0 0 1-.325.16c-.228 0-.427-.216-.342-.59l-1.624.918c.308.41.385.72-.27.72-.03 0-.06 0-.092-.002-.17.108-.297.155-.391.155-.216 0-.253-.252-.233-.586-.23.166-.16.61-.57.61-.132 0-.315-.047-.575-.164-.804-.334-.297-.478-.261-.69-.2.072-.42.18-.574.18-.19 0-.278-.165-.093-.769-.035-.292.05-.439.26-.439.047 0 .1.008.16.023l.29-.618c.115-.148.232-.212.336-.212.272 0 .453.44.259.974a.493.493 0 0 0 .327.127c.408 0 .86-.497 1.297-.817l.899-1.12a5.709 5.709 0 0 1-.35.012c-.602 0-1.42-.143-1.173-1.19l-.464-.316c-.222-.105-.457-.269-.658-.269a.299.299 0 0 0-.211.082c-.407.437-.023.75.298.75a.439.439 0 0 0 .122-.017.866.866 0 0 1-.314.062c-.843 0-1.133-1.42.029-1.42.177 0 .387.033.633.108.24.08.435.11.597.11.456 0 .66-.249.969-.397.513-.903 1.29-1.043 2.119-1.043.138 0 .278.004.418.01.15.025.297.038.439.038.424 0 .804-.117 1.14-.355" fill="#F6F9FA" mask="url(#b)"/><path d="M8.565 11.08c-.321 0-.82-.124-1.363-.712a.097.097 0 0 1 .03-.156c.12-.056.17-.122.19-.206-.105.09-.201.146-.321.146a.474.474 0 0 1-.254-.081.097.097 0 0 1-.03-.137c.14-.21.238-.355.029-.765l-.501-.803c-.124.216-.251.318-.394.318-.202 0-.38-.208-.574-.672-.171-.381-.208-.613-.12-.751.082-.126.239-.126.29-.126h.04l-.2-.324c-.146.14-.275.208-.39.208-.318 0-.372-.475-.39-.631-.091-.364-.09-.587.006-.71.054-.068.134-.102.24-.102.047 0 .099.006.152.016-.108-.103-.211-.221-.203-.387.009-.19.167-.395.497-.643.179-.074.304-.104.404-.104.103 0 .184.032.24.093.104.11.1.285.089.46.185-.23.39-.403.629-.403.163 0 .327.083.487.245.209.21.294.384.268.543-.037.212-.258.32-.473.425-.093.045-.187.09-.26.144-.385.628.12 1.028.705 1.49.222.175.452.357.622.556.892.63 1.229 1.339 1.555 2.024a.771.771 0 0 1-.177.69 1.088 1.088 0 0 1-.823.355" fill="#E43F09" mask="url(#b)"/><path d="M5.703 4.36a1.18 1.18 0 0 0-.416.096.166.166 0 0 0-.047.026c-.36.271-.526.493-.536.718a.473.473 0 0 0 .077.281.36.36 0 0 0-.245.136c-.118.151-.125.392-.022.807.05.451.213.693.483.693.117 0 .237-.05.368-.155l.053.086a.36.36 0 0 0-.243.158c-.11.172-.077.425.113.848.15.358.348.728.663.728.165 0 .293-.103.392-.233l.423.68c.175.342.104.447-.003.606l-.029.044a.193.193 0 0 0-.027.15.195.195 0 0 0 .088.125.59.59 0 0 0 .288.096.196.196 0 0 0 .046.184c.57.615 1.095.744 1.436.744.354 0 .681-.142.897-.388a.894.894 0 0 0 .23-.7.193.193 0 0 0-.019-.059c-.35-.736-.693-1.455-1.623-2.118-.14-.173-.375-.358-.6-.537-.62-.489-.989-.82-.678-1.353.063-.042.14-.078.215-.115.225-.11.481-.234.526-.497.043-.253-.148-.48-.296-.628-.178-.182-.365-.274-.556-.274-.2 0-.374.1-.53.25a.468.468 0 0 0-.115-.276.41.41 0 0 0-.313-.124m0 .197c.362 0 .19.473.224.764.228-.333.463-.614.734-.614.13 0 .267.064.417.216.63.633-.119.715-.454.963-.632 1.011.72 1.5 1.311 2.19.906.644 1.228 1.343 1.56 2.04.056.423-.345.866-.93.866-.378 0-.833-.185-1.29-.68.275-.13.266-.325.244-.523-.13.12-.249.275-.418.275a.38.38 0 0 1-.202-.066c.128-.196.288-.367.034-.863l-.597-.959c-.136.295-.263.42-.385.42-.17 0-.33-.247-.483-.612-.28-.623-.148-.74.08-.74.07 0 .15.011.23.022l-.373-.603c-.166.181-.3.268-.408.268-.157 0-.25-.189-.29-.544-.148-.589-.032-.703.146-.703.112 0 .25.046.362.046.02 0 .04-.002.057-.005-.223-.273-.755-.442.086-1.074a.993.993 0 0 1 .345-.084" fill="#F6F9FA" mask="url(#b)"/><path d="M4.793 15.889c-.112 0-.197-.03-.253-.091-.082-.09-.083-.217-.075-.336-.095.124-.21.244-.39.244-.187 0-.4-.134-.675-.421-.153-.286-.183-.467-.11-.594.088-.153.284-.17.482-.18-.233-.146-.42-.317-.462-.534-.034-.173.028-.358.188-.548.181-.22.338-.321.494-.321.229 0 .364.214.497.42.054.088.11.176.171.242.114.047.25.08.373.08.45 0 .742-.452 1.051-.932.154-.237.312-.483.493-.672.54-.946 1.216-1.353 1.867-1.746a.581.581 0 0 1 .232-.052c.345 0 .67.228.828.58.11.247.285.913-.477 1.769a.1.1 0 0 1-.074.033l-.01-.001a.1.1 0 0 1-.075-.046c-.078-.127-.159-.16-.23-.166.155.147.25.312.127.56a.102.102 0 0 1-.056.05.119.119 0 0 1-.032.005.098.098 0 0 1-.044-.01c-.14-.073-.222-.115-.331-.115-.121 0-.265.054-.441.167l-.752.576c.231.1.346.218.36.36.016.199-.174.394-.615.633-.269.154-.46.227-.601.227a.277.277 0 0 1-.207-.08c-.065-.067-.087-.161-.093-.264l-.304.232c.192.162.272.309.245.448-.037.17-.224.287-.588.367a1.625 1.625 0 0 1-.513.116" fill="#E43F09" mask="url(#b)"/><path d="M8.677 10.348a.811.811 0 0 0-.19.022.245.245 0 0 0-.057.023c-.7.423-1.387.836-1.954 1.823-.159.157-.319.407-.475.648-.294.457-.57.888-.967.888a.823.823 0 0 1-.325-.077c-.049-.058-.093-.129-.138-.2-.132-.208-.297-.466-.578-.466-.188 0-.369.113-.57.357-.18.213-.25.425-.21.63.034.174.144.32.294.445a.433.433 0 0 0-.302.2c-.12.21-.005.481.093.666a.194.194 0 0 0 .031.044c.298.313.528.453.746.453a.477.477 0 0 0 .304-.11.378.378 0 0 0 .09.17.421.421 0 0 0 .323.123c.14 0 .322-.04.56-.126.231-.049.58-.156.637-.436.04-.182-.07-.343-.186-.46l.082-.063a.39.39 0 0 0 .09.156c.05.05.136.11.277.11.16 0 .367-.077.653-.24.34-.185.69-.418.661-.727-.014-.166-.13-.284-.273-.368l.634-.486c.146-.093.273-.143.375-.143.084 0 .153.036.24.081l.046.024a.197.197 0 0 0 .266-.089.569.569 0 0 0 .067-.295l.014.002.017.001a.2.2 0 0 0 .148-.066c.801-.9.612-1.61.493-1.875-.174-.388-.534-.639-.916-.639m0 .197c.654 0 1.34.991.275 2.186-.103-.169-.222-.215-.347-.215a.971.971 0 0 0-.204.028c.183.156.426.286.276.59-.115-.059-.223-.127-.375-.127-.126 0-.282.047-.495.183l-.899.69c.748.247.497.552-.1.876-.269.153-.443.214-.556.214-.216 0-.206-.223-.199-.444l-.566.431c.493.358.387.59-.203.718-.227.081-.384.115-.492.115-.37 0-.169-.393-.232-.603-.155.153-.258.42-.485.42-.14 0-.327-.1-.603-.392-.396-.752.27-.553.624-.632-.529-.279-.946-.585-.522-1.09.172-.209.307-.287.42-.287.258 0 .396.42.595.631.164.078.311.112.445.112.748 0 1.08-1.079 1.613-1.635.552-.96 1.22-1.35 1.885-1.752a.646.646 0 0 1 .145-.017" fill="#F6F9FA" mask="url(#b)"/><path d="M17.444 22.327c-.088 0-.189-.007-.305-.022-.3 0-.494-.077-.578-.228a.327.327 0 0 1-.04-.126c-.176.172-.334.251-.49.251-.229 0-.422-.172-.59-.527a.747.747 0 0 0-.078-.27c-.06-.139-.128-.297-.046-.42.08-.12.251-.135.374-.135.104 0 .238.012.411.04l-.308-.466c0-.322.166-.51.381-.51.114 0 .4.06.578.626a.744.744 0 0 0 .497.213.477.477 0 0 0 .411-.222c.091-.14.201-.468-.076-1.069-.203-.233-.423-.519-.532-.82-.269.357-.588.654-1.046.654-.1 0-.205-.015-.313-.043.03.25-.06.537-.5.745-.293.086-.423.294-.425.453-.003.155.105.28.297.341a.099.099 0 0 1-.021.192 1.999 1.999 0 0 1-.167.008c-.466 0-.663-.202-.747-.37-.138-.28-.044-.612.101-.802.21-.338.191-.669-.06-1.033-.465-.515-.946-1.253-.473-2.308.277-1.264-.209-2.299-1.533-3.24a3.58 3.58 0 0 1-.958.121c-1.484 0-2.108-.788-2.577-1.528a.097.097 0 0 1-.005-.095.097.097 0 0 1 .077-.055l4.552-.545c1.26 1.305 2.684 3.06 3.328 5.404.118-.124.284-.187.493-.187.174 0 .376.04.657.13.101.032.19.05.265.05.128 0 .281-.04.333-.348.01-.523.337-.805.655-.805.294 0 .685.25.814.948a.098.098 0 0 1-.077.115l-.019.002a.1.1 0 0 1-.097-.078c-.03-.14-.34-.386-.528-.386-.099.056-.14.138-.09.373.06.403-.038.66-.187.838.201.021.41.126.62.316a.305.305 0 0 0 .198.078c.118 0 .257-.072.424-.222a.095.095 0 0 1 .065-.025c.022 0 .043.007.062.021a.1.1 0 0 1 .025.124c-.206.377-.53.874-.995.903.461.708.947 1.502.037 2.304l.052.051c.148.145.301.294.273.48-.019.131-.13.248-.337.354-.168.173-.336.266-.487.266-.225 0-.362-.203-.45-.359l-.382.076c.117.25.134.431.054.564-.08.137-.25.203-.517.203" fill="#E43F09" mask="url(#b)"/><path d="M16.007 19.395c.44 0 .757-.244 1.02-.561.121.249.302.484.48.694.177.398.204.743.071.95a.376.376 0 0 1-.328.177.618.618 0 0 1-.418-.19c-.199-.585-.525-.65-.657-.65-.269 0-.478.228-.496.543a.194.194 0 0 0 .033.119l.188.287a2.045 2.045 0 0 0-.209-.012c-.146 0-.35.019-.456.178a.298.298 0 0 0-.014.024.179.179 0 0 0 .01-.047.197.197 0 0 0-.136-.21c-.086-.026-.23-.095-.228-.245.002-.123.11-.287.34-.353.442-.208.574-.484.588-.723.072.013.143.019.212.019m-2.74-8.358a.194.194 0 0 0-.024.002l-4.552.546a.198.198 0 0 0-.155.11.198.198 0 0 0 .012.19c.482.762 1.126 1.574 2.66 1.574.296 0 .621-.03.968-.091 1.237.9 1.69 1.89 1.42 3.109-.488 1.082.056 1.882.51 2.387.211.308.228.604.037.913-.152.197-.257.57-.1.888.08.159.292.426.835.426a1.8 1.8 0 0 0 .175-.01.197.197 0 0 0 .152-.094c-.063.154.008.32.067.457a.7.7 0 0 1 .06.17.265.265 0 0 0 .018.104c.187.393.41.584.681.584.146 0 .29-.057.443-.178h.001c.103.187.324.278.676.28.096.015.202.022.293.022.305 0 .501-.082.602-.251.098-.165.067-.363 0-.541l.194-.04c.1.162.254.347.5.347.174 0 .353-.092.56-.291.218-.118.337-.253.361-.412.034-.225-.128-.394-.28-.543.813-.783.408-1.571-.016-2.234.426-.116.723-.572.917-.927a.197.197 0 0 0-.304-.242c-.146.13-.267.197-.358.197-.03 0-.077-.006-.138-.058a1.345 1.345 0 0 0-.512-.304c.108-.185.17-.434.117-.78-.045-.214-.01-.271-.01-.272.148.007.412.223.434.314a.2.2 0 0 0 .233.15.195.195 0 0 0 .153-.228c-.14-.76-.579-1.028-.91-1.028-.367 0-.744.315-.756.917-.04.235-.16.235-.233.235a.763.763 0 0 1-.233-.045c-.293-.092-.505-.133-.688-.133a.813.813 0 0 0-.44.114c-.667-2.292-2.064-4.013-3.226-5.27a.195.195 0 0 0-.144-.064m0 .198c1.474 1.595 2.724 3.339 3.276 5.543.106-.24.296-.324.534-.324.186 0 .401.052.626.123a.958.958 0 0 0 .295.055c.23 0 .38-.131.43-.428.01-.461.271-.724.558-.724.29 0 .605.266.718.868-.04-.185-.39-.463-.625-.463-.158 0-.264.126-.187.49.08.534-.136.794-.435.978a.629.629 0 0 1 .274-.064c.19 0 .396.088.625.294a.404.404 0 0 0 .264.103c.158 0 .322-.097.49-.247-.274.5-.577.852-.95.852a.613.613 0 0 1-.152-.02c.512.794 1.112 1.584.087 2.414.23.259.662.509.087.804-.186.184-.328.255-.443.255-.18 0-.293-.175-.398-.37l-.58.115c.235.433.24.74-.317.74-.084 0-.18-.007-.292-.022-.525-.003-.685-.22-.385-.708.041-.058.082-.12.124-.182a2.373 2.373 0 0 0-.124.182c-.253.356-.5.605-.736.605-.175 0-.344-.137-.503-.471.025-.24-.446-.684.163-.684.142 0 .342.024.62.08l-.435-.66c.012-.212.141-.357.3-.357.162 0 .357.157.483.558a.82.82 0 0 0 .591.282c.47 0 .85-.51.424-1.431-.285-.335-.525-.67-.58-1.005-.289.42-.605.782-1.087.782-.136 0-.285-.03-.45-.093.128.369-.03.627-.406.804-.548.158-.683.795-.116.977a1.738 1.738 0 0 1-.157.008c-.83 0-.812-.694-.568-1.013.25-.404.195-.784-.058-1.15-.55-.611-.873-1.295-.463-2.211.254-1.154-.048-2.284-1.566-3.361a5.527 5.527 0 0 1-1.015.103c-1.385 0-1.993-.692-2.494-1.482l4.553-.545" fill="#F6F9FA" mask="url(#b)"/><path d="M11.828 14.196a.09.09 0 0 1-.042-.01.098.098 0 0 1-.057-.093c.004-.09.017-.182.031-.272.05-.343.093-.639-.383-.995a2.534 2.534 0 0 1-.453-.497c-.033.346-.158.55-.332.72a.1.1 0 0 1-.105.02.1.1 0 0 1-.062-.087c-.016-.36-.044-.687-.184-.96.022.744-.197 1.262-.652 1.542a.1.1 0 0 1-.15-.09c.022-.364.015-.69-.068-1.003-.03.638-.349.876-.637 1.092l-.107.081a.105.105 0 0 1-.06.021.1.1 0 0 1-.053-.016.098.098 0 0 1-.044-.105c.021-.092.046-.184.071-.276.113-.416.22-.809-.043-1.198l-.072-.133c-.197-.357-.434-.79-.18-1.099a1.86 1.86 0 0 0-.273-.02c-.655 0-1.114.378-1.447 1.191a.099.099 0 0 1-.09.062h-.003a.098.098 0 0 1-.09-.064c-.187-.498-.199-.92-.036-1.258.165-.342.51-.6 1.025-.767.043-.264.334-.426.83-.437a.857.857 0 0 1-.017-.775c.128-.273.381-.449.645-.449.188 0 .371.086.53.25a.1.1 0 1 1-.061.167c-.312.033-.415.187-.408.32.007.137.131.283.345.283a.71.71 0 0 0 .383-.134c.213-.188.452-.288.7-.288.177 0 .356.051.531.152.111.1.213.143.322.143a.514.514 0 0 0 .416-.246c.078-.122.095-.253.047-.359l-.503-.267c-.049.114-.123.196-.31.258-.054.02-.065.136-.066.203a.097.097 0 0 1-.058.088.097.097 0 0 1-.105-.015c-.237-.206-.25-.419-.265-.606a1.403 1.403 0 0 0-.014-.144l-.18-.172a.098.098 0 0 1-.024-.082.101.101 0 0 1 .05-.07l.255-.143-.008-.183a.098.098 0 0 1 .08-.082h.017c.035 0 .068.017.085.05l.133.232.492.052.005-.062c.021-.207.04-.402-.07-.53-.095-.108-.289-.173-.576-.192l-.079.224a.1.1 0 0 1-.087.067h-.006a.1.1 0 0 1-.089-.056l-.122-.254c-.307-.01-.553-.138-.682-.337a.66.66 0 0 1-.08-.489c-.208-.095-.224-.216-.212-.283.026-.152.222-.254.49-.254.056 0 .116.004.178.014l.642-.399c-.039-.275.215-.48.65-.48l.078.003a.17.17 0 0 1 .038-.008l2.291.101c.317-.204.565-.305.725-.305.117 0 .177.053.206.098.086.13.031.345-.102.667.355.233.53.61.666.984.091.37.318.397.605.432.08.01.16.02.237.036a.1.1 0 0 1 .07.136c-.147.332-.332.501-.58.53.41.555.353 1.194-.172 1.902-.205.443-.067.892.472 1.484a.1.1 0 0 1 .017.108.098.098 0 0 1-.089.057h-.005c-.593-.026-1.048-.278-1.385-.769-.34.391-.988 1.183-.794 1.645.108.257.474.403 1.086.434a.1.1 0 0 1 .092.078.1.1 0 0 1-.05.108c-.306.161-.583.294-.882.294-.285 0-.55-.124-.805-.378.03.285.008.6-.159.893a.096.096 0 0 1-.112.046.098.098 0 0 1-.072-.098c.006-.199.012-.386-.112-.612.007.626-.08 1.225-.506 1.608a.102.102 0 0 1-.066.025" fill="#E43F09" mask="url(#b)"/><path d="M10.76 8.939a.193.193 0 0 0 .055-.134c.002-.096.02-.124.02-.124a.518.518 0 0 0 .296-.2l.39.22a.323.323 0 0 1-.056.215.416.416 0 0 1-.333.2.347.347 0 0 1-.236-.103 1.694 1.694 0 0 0-.137-.074zm-.281-1.644a.193.193 0 0 0 .069-.094l.053-.152c.216.022.364.075.432.153.077.087.07.234.053.405l-.364-.061-.086-.152a.199.199 0 0 0-.157-.1zm3.79-2.906c-.174 0-.415.094-.78.303l-2.232-.098h-.008a.168.168 0 0 0-.05.007 1.325 1.325 0 0 0-.063-.002c-.441 0-.727.2-.786.544l-.563.327a1.029 1.029 0 0 0-.12-.007c-.323 0-.553.132-.588.336-.013.072-.01.23.2.356a.727.727 0 0 0 .107.487c.132.204.367.34.719.415l.08.165a.197.197 0 0 0 .162.11.194.194 0 0 0-.077.128l-.027.16-.171.096a.194.194 0 0 0-.1.14c-.01.06.008.12.05.165l.162.177.007.079c.01.16.023.355.176.548-.03-.002-.059-.004-.089-.004-.271 0-.533.108-.774.32a.603.603 0 0 1-.307.102c-.154 0-.242-.098-.247-.191-.006-.111.116-.194.319-.216a.196.196 0 0 0 .121-.332c-.224-.233-.45-.281-.6-.282-.301 0-.59.199-.734.507a.959.959 0 0 0-.038.726c-.408.037-.678.193-.805.464-.494.177-.829.442-.995.788-.175.363-.163.812.032 1.335a.2.2 0 0 0 .183.128h.003c.08 0 .152-.05.181-.123.316-.771.747-1.131 1.356-1.131.035 0 .07.002.106.004-.14.335.085.745.26 1.065l.069.124c.245.368.15.723.037 1.134a9.59 9.59 0 0 0-.072.28.199.199 0 0 0 .194.24.196.196 0 0 0 .12-.041l.106-.08c.205-.153.424-.317.557-.61.005.14 0 .285-.01.437a.2.2 0 0 0 .197.209.19.19 0 0 0 .103-.03c.353-.216.573-.563.66-1.034.013.119.02.244.026.373a.196.196 0 0 0 .197.188c.05 0 .1-.02.138-.056a1.11 1.11 0 0 0 .322-.545c.102.12.214.222.32.32.444.332.408.576.36.913a2.69 2.69 0 0 0-.031.283.194.194 0 0 0 .113.186.2.2 0 0 0 .216-.031c.277-.251.418-.591.486-.963a.195.195 0 0 0 .167.09.192.192 0 0 0 .168-.096c.133-.234.18-.48.182-.714.221.167.451.249.695.249.348 0 .67-.17.928-.305a.198.198 0 0 0 .101-.217.196.196 0 0 0-.183-.154c-.564-.03-.91-.158-1-.374-.158-.374.367-1.061.697-1.45.347.447.813.685 1.386.709h.01a.198.198 0 0 0 .178-.113.2.2 0 0 0-.033-.216c-.508-.558-.642-.975-.446-1.392.5-.67.582-1.302.234-1.865.21-.075.378-.257.507-.553a.198.198 0 0 0-.003-.168.199.199 0 0 0-.133-.103 2.446 2.446 0 0 0-.247-.04c-.31-.036-.45-.064-.518-.346-.139-.385-.31-.756-.644-1.006.111-.28.173-.52.063-.686a.328.328 0 0 0-.287-.143zm0 .197c.254 0 .139.334-.02.708.373.209.553.578.696.977.133.54.563.452.913.53-.165.376-.359.475-.564.475a.913.913 0 0 1-.146-.014c.49.515.574 1.14-.028 1.953-.275.584.019 1.105.478 1.609-.653-.03-1.08-.346-1.378-.834-.63.715-1.89 2.232.275 2.342-.273.144-.548.282-.835.282-.303 0-.619-.153-.963-.613.095.415.12.817-.086 1.178.008-.276.02-.552-.319-.934.037.755-.014 1.447-.463 1.853.018-.44.261-.862-.393-1.35-.283-.258-.563-.52-.636-1.038 0-.003 0-.007-.002-.01.002.003.002.007.002.01.108.786-.066 1.062-.277 1.268-.021-.478-.063-.948-.405-1.293.1.877-.08 1.488-.58 1.796.031-.527.014-1.054-.305-1.58.185 1.143-.273 1.358-.667 1.666.118-.517.361-1.034.014-1.551-.25-.466-.578-.952-.116-1.236a2.174 2.174 0 0 0-.492-.061c-.757 0-1.226.492-1.537 1.253-.338-.901-.1-1.562.928-1.895.103-.326.426-.434.86-.434.04 0 .082 0 .125.003-.433-.521-.049-1.226.441-1.226.15 0 .31.065.459.22-.733.079-.57.8-.051.8a.794.794 0 0 0 .437-.151c.23-.201.45-.27.644-.27.19 0 .356.065.483.138a.534.534 0 0 0 .37.156c.376 0 .701-.423.553-.745l-.645-.365c-.041.108-.038.222-.287.304-.086.032-.132.128-.135.295-.264-.23-.21-.46-.246-.691l-.205-.223.258-.142.04-.254.133.233.667.112c.025-.445.213-.954-.8-.995l-.103.294-.123-.254c-.64-.11-.85-.405-.737-.842-.409-.143-.218-.38.165-.38.051 0 .105.005.162.014l.708-.411c.008-.316.242-.467.6-.467.035 0 .07.002.107.005l.005-.01 2.29.1c.371-.216.6-.305.73-.305z" fill="#F6F9FA" mask="url(#b)"/><path d="M9.65 7.59c-.754 0-1.484-.104-1.72-.852-.015-.185.015-.308.087-.386a.272.272 0 0 1 .205-.086c.127 0 .272.072.397.2a.797.797 0 0 1 .243.56c.059.151.342.233.912.233.187 0 .387-.008.586-.017.203-.008.406-.016.596-.016l.22.004a.098.098 0 0 1 .095.092l.01.152a.096.096 0 0 1-.03.077.099.099 0 0 1-.068.03c-.003 0-.005 0-.008-.002a5.18 5.18 0 0 0-.42-.015c-.18 0-.364.006-.55.012a14.88 14.88 0 0 1-.555.013" fill="#E43F09" mask="url(#b)"/><path d="M8.222 6.167v.197-.197a.374.374 0 0 0-.277.118c-.092.1-.131.247-.116.44.263.853 1.067.963 1.82.963.184 0 .373-.007.56-.013.185-.006.369-.013.548-.013a4.957 4.957 0 0 1 .426.016.197.197 0 0 0 .197-.21l-.01-.153a.197.197 0 0 0-.188-.183 4.182 4.182 0 0 0-.227-.005c-.191 0-.395.008-.6.017-.197.008-.395.017-.581.017-.472 0-.746-.06-.814-.18a.908.908 0 0 0-.27-.585c-.144-.146-.314-.229-.468-.229m0 .197c.22 0 .546.312.542.66.095.275.509.334 1.01.334.377 0 .804-.034 1.18-.034.076 0 .149.002.219.005l.01.152a4.914 4.914 0 0 0-.426-.016c-.362 0-.745.026-1.107.026-.751 0-1.414-.11-1.624-.782-.02-.246.072-.345.196-.345" fill="#F6F9FA" mask="url(#b)"/><path d="M11.263 4.075a.124.124 0 0 1-.001.083.309.309 0 0 0 .149-.105c-.02 0-.074.053-.097.053-.003 0-.005 0-.007-.002a.062.062 0 0 1-.022-.044l-.022.015m2.086.131a.198.198 0 0 0 .068.04c-.005-.019.002-.049.015-.078l-.04-.03c-.01.03-.025.057-.047.065l.004.003m.082.85a5.798 5.798 0 0 0-.646-.067s-.5-.038-.56-.038l-.63-.002c-.152 0-.225.001-.317.007l-.113-.089.013.098c-.143-.006-.181-.028-.203-.063.005-.015.036-.173.048-.184l-.06-.075c-.016-.008-.066-.118-.075-.135-.036-.058-.013-.117.002-.148-.011-.007-.045-.057-.084-.114l-.108-.159c-.132-.114-.121-.215-.06-.273-.035-.03-.086-.125-.192-.262-.03-.039-.074-.159-.04-.194.008-.007.027-.01.05-.01.063 0 .16.02.185.026l.132.042c-.01-.049.035-.069.078-.069.044 0 .116.058.129.1a.252.252 0 0 1 .01.064.15.15 0 0 1 .069-.019c.043 0 .12.07.132.112l-.082.1.022.007.02-.05c.104.042.23.094.244.205a.155.155 0 0 1 .049-.013c.034 0 .069.01.11.026.012-.004.084-.034.097-.034.026 0 .1.037.118.055.028.026.083.08.056.148a.103.103 0 0 1-.093.062.403.403 0 0 0 .156.076l.068.002c.072 0 .116-.01.143-.026l-.014.001a.24.24 0 0 1-.103-.036.157.157 0 0 1-.047-.095l.008-.004a.212.212 0 0 1-.07-.033.353.353 0 0 1-.073-.16.189.189 0 0 1 .028-.104.233.233 0 0 1 .057-.06.296.296 0 0 1-.002-.06c0-.024.015-.09.032-.107a.342.342 0 0 1 .094-.012.285.285 0 0 1-.012-.072c-.001-.027.008-.08.027-.1a.347.347 0 0 1 .105-.015c.022 0 .044.002.063.003a.468.468 0 0 1 .097-.123.157.157 0 0 1 .1-.037c.025 0 .047.007.06.022a.487.487 0 0 1 .11.158c.036.003.073.01.084.021.02.022.109.044.105.075a.539.539 0 0 1-.02.093c.037.005.08.015.093.032a.342.342 0 0 1 .016.16l-.001.002a.203.203 0 0 1 .073.154.38.38 0 0 1-.046.135.207.207 0 0 1-.11.061.129.129 0 0 1-.098.12c-.008 0-.067 0-.087-.004 0 .004 0 .008.002.011-.001-.003 0-.004.002-.004.009 0 .043.022.085.035l.094.105.042-.1a.417.417 0 0 0 .098-.033.309.309 0 0 0 .108-.098c-.027 0-.062.007-.09.007-.025 0-.045-.006-.047-.03-.004-.039.068-.127.103-.145.019 0 .185.011.2.022.003-.013.046-.022.08-.022a.34.34 0 0 1 .07.038.169.169 0 0 1 .018-.079c.03-.043.092-.079.184-.109a.22.22 0 0 1 .017-.079c.015-.037.09-.096.13-.096.027 0 .053.007.08.022 0-.037.009-.056.013-.067.015-.036.087-.087.127-.087.018.001.065.002.143.075l.074-.03c.138-.032.15-.032.159-.032.042 0 .079.026.092.066.013.034-.046.131-.071.158-.11.12-.171.213-.194.293.014 0 .024.032.022.081-.06.14-.113.17-.17.173l-.074.117c-.057.07-.104.131-.115.147.035.086 0 .135-.056.167l-.041.13c.01.012.007.09.01.106-.014.023-.083.138-.11.143l-.041.004-.081-.01" fill="#E43F09" mask="url(#b)"/><path d="M12.363 3.05a.173.173 0 0 0-.118.042l-.022.02a.665.665 0 0 0-.078.085 1.201 1.201 0 0 0-.04-.007l-.01-.001a.198.198 0 0 0-.143.062.256.256 0 0 0-.053.145.32.32 0 0 0-.031.019c-.049.035-.082.134-.085.193v.022a.272.272 0 0 0-.072.124.237.237 0 0 0-.06-.008.414.414 0 0 0-.092.017l-.02.007a.335.335 0 0 0-.08-.015.385.385 0 0 0-.165-.139l-.008-.042c-.027-.086-.105-.176-.22-.18h-.002c-.036-.074-.134-.145-.213-.145a.281.281 0 0 0-.145.043l-.035-.012c-.154-.048-.162-.049-.194-.049a.196.196 0 0 0-.194.167c-.014.086.023.135.085.215a.892.892 0 0 1 .139.224.29.29 0 0 0 .023.261.277.277 0 0 0 .126.103l.07.101c.018.029.037.057.053.08a.224.224 0 0 0 .023.176.278.278 0 0 0 .053.064c.005.013.008.029.013.048l.018.065a.228.228 0 0 0 .005.22.241.241 0 0 0 .184.109.491.491 0 0 0 .115-.001 4.17 4.17 0 0 1 .402-.016l.252.001.345.002h.002c.088 0 .128.002.226.01l.36.027c.36.026.533.044.634.065a.472.472 0 0 0 .1.013.407.407 0 0 0 .06-.006.23.23 0 0 0 .158-.099.231.231 0 0 0 .016-.211l.04-.111a.248.248 0 0 0 .1-.184.317.317 0 0 0-.005-.046l.061-.077.08-.097a.283.283 0 0 0 .14-.103.395.395 0 0 0 .046-.147.298.298 0 0 0-.01-.096.893.893 0 0 1 .158-.217l.057-.066a.196.196 0 0 0 .025-.209.195.195 0 0 0-.176-.113h-.004a.827.827 0 0 0-.178.035l-.042.009a.266.266 0 0 0-.146-.057h-.005a.28.28 0 0 0-.212.132h-.01a.24.24 0 0 0-.223.158.553.553 0 0 0-.014.043.389.389 0 0 0-.175.124h-.006a.368.368 0 0 0-.079.009.25.25 0 0 0-.123-.033.29.29 0 0 0-.043.006.312.312 0 0 0-.06-.13.278.278 0 0 0-.042-.189.202.202 0 0 0-.051-.049.195.195 0 0 0-.192-.228h-.005l-.022.001-.015.002a.595.595 0 0 0-.069-.088.258.258 0 0 0-.182-.078m.287.36h.005m-.276-.173l.023.025a.244.244 0 0 1 .073.137c.002.015.005.027.008.027l.085-.008.082-.008-.004.028a.241.241 0 0 1-.063.134.59.59 0 0 1-.09.08c-.01 0-.018.033-.01.041a.019.019 0 0 0 .014.005c.014 0 .028-.01.047-.03.03-.033.06-.045.15-.057a.564.564 0 0 1 .044-.005c.008 0 .01.052.004.077a.09.09 0 0 1-.044.057.082.082 0 0 0-.016.012c0 .001.01.003.021.004a.116.116 0 0 1 .107.113.085.085 0 0 1-.021.066.124.124 0 0 1-.091.034.194.194 0 0 1-.024-.002l-.018-.002c-.006 0-.008.001-.008.002l.005.029c.011.053.005.084-.02.089l-.016.001a.25.25 0 0 1-.12-.035.114.114 0 0 0-.04-.018l-.003.001c-.003.003.015.171.02.178a.29.29 0 0 0 .153.101.561.561 0 0 0 .183.008.404.404 0 0 0 .272-.176c.018-.028.02-.041.011-.06-.008-.025-.033-.038-.063-.038a.16.16 0 0 0-.05.009.132.132 0 0 1-.02.005h-.002c0-.006.037-.041.053-.05A.068.068 0 0 1 13.046 4c.017 0 .036.009.068.03l.033.021.021-.01a.24.24 0 0 1 .092-.016c.024.005.046.026.056.056a.143.143 0 0 1 .008.027h-.002a.056.056 0 0 1-.015-.01.138.138 0 0 0-.063-.029l-.002-.001c-.027 0-.051.025-.066.065l-.007.015.025.032a.504.504 0 0 0 .094.103.274.274 0 0 0 .174.068.374.374 0 0 0 .175-.051.673.673 0 0 0 .105-.068l-.046.007a.612.612 0 0 1-.097.009c-.05 0-.082-.01-.087-.028-.003-.016.007-.032.034-.052l.025-.021a.343.343 0 0 0-.039-.027.417.417 0 0 1-.117-.106c-.014-.025-.014-.053-.002-.072.02-.026.073-.054.148-.077.037-.011.04-.012.04-.022a.71.71 0 0 1 .024-.109c.01-.024.022-.035.04-.035.037 0 .091.048.168.146a.136.136 0 0 0 .02.022.41.41 0 0 0-.005-.053.518.518 0 0 1 0-.221.042.042 0 0 1 .037-.026c.015 0 .044.02.075.048l.027.026.136-.031.137-.03s-.021.027-.05.058c-.123.134-.19.238-.216.334-.008.027-.008.033-.004.04.018.026.022.036.021.064 0 .022-.002.031-.01.042a.09.09 0 0 1-.069.036l-.02.002-.123.151a2.249 2.249 0 0 0-.123.159c0 .005.006.022.012.038a.2.2 0 0 1 .01.042c0 .018-.015.037-.041.052l-.025.013-.014.041-.048.132-.034.091.014.016c.018.02.024.032.027.047.003.014-.008.023-.032.028l-.024.002a5.647 5.647 0 0 0-.719-.077 78.337 78.337 0 0 1-.357-.027 2.217 2.217 0 0 0-.217-.011h-.03l-.343-.002-.254-.001a4.485 4.485 0 0 0-.463.02l-.027-.002c-.034-.004-.05-.016-.044-.032a.133.133 0 0 1 .032-.046l.014-.013-.006-.024a5.45 5.45 0 0 1-.037-.135.525.525 0 0 0-.039-.116.193.193 0 0 1-.049-.043c-.008-.015-.005-.03.01-.064a.245.245 0 0 0 .014-.038c0-.004-.049-.079-.109-.166l-.109-.159-.021-.005c-.03-.007-.05-.019-.063-.038a.088.088 0 0 1 .012-.104c.01-.009.01-.011.007-.036-.015-.098-.072-.205-.19-.357a.79.79 0 0 1-.046-.064c.002 0 .063.018.133.041l.133.041.027-.022c.036-.028.062-.042.082-.042.015 0 .027.01.034.03a.535.535 0 0 1-.018.215.825.825 0 0 0-.01.056c.002 0 .012-.011.051-.052.052-.056.121-.104.15-.104.014.001.032.021.038.042a.423.423 0 0 1 .011.07l.005.05.046.018c.1.041.14.075.138.118-.002.039-.048.083-.136.133l-.044.024c-.002.001.007.01.02.02.03.026.038.042.031.061-.004.014-.018.019-.054.019h-.028a.416.416 0 0 1-.098-.015.634.634 0 0 0-.05-.012.972.972 0 0 0 .107.081c.065.04.126.06.184.06.089 0 .171-.047.256-.142.027-.032.03-.037.029-.048a.13.13 0 0 0-.037-.064.048.048 0 0 0-.029-.009.136.136 0 0 0-.064.022.055.055 0 0 1-.016.009.17.17 0 0 1 .025-.053.06.06 0 0 1 .051-.023c.02 0 .043.006.071.018l.035.015.025-.014a.289.289 0 0 1 .049-.022.078.078 0 0 1 .026-.006c.018 0 .031.009.05.028.02.018.038.041.033.041l-.026-.01a.14.14 0 0 0-.054-.011.11.11 0 0 0-.027.004.062.062 0 0 0-.034.045c-.003.015 0 .021.018.053a.394.394 0 0 0 .253.188.406.406 0 0 0 .104.013c.091 0 .18-.03.228-.084.014-.015.015-.018.027-.089a1.92 1.92 0 0 1 .017-.085c.002-.009 0-.011-.008-.011a.14.14 0 0 0-.037.014.272.272 0 0 1-.11.025h-.005c-.018 0-.023-.002-.034-.011-.006-.007-.011-.015-.011-.021 0-.02.002-.042.01-.063.01-.032.011-.031-.026-.031-.042 0-.065-.006-.087-.023-.028-.021-.034-.037-.032-.078 0-.029.003-.038.012-.051a.126.126 0 0 1 .097-.059l.026-.003-.02-.016c-.03-.026-.035-.043-.034-.092a.242.242 0 0 1 .005-.042l.002-.001a.93.93 0 0 1 .133.034.13.13 0 0 1 .064.051c.014.019.027.029.04.029h.002c.007 0 .016-.011.016-.022.001-.01-.004-.017-.036-.047-.073-.07-.107-.13-.11-.202a.117.117 0 0 1 0-.029l.16.029.005.001c.005 0 .006-.003.006-.012.002-.044.034-.097.088-.147l.024-.021M5.054 5.02c-.038-.016-.095-.07-.095-.09 0-.034-.059-.2-.094-.263a.508.508 0 0 0-.27-.248.42.42 0 0 0-.168-.028.988.988 0 0 0-.207.01.6.6 0 0 1 .141-.136.706.706 0 0 1 .874.022c.097.082.21.223.231.29a.453.453 0 0 1 .008.18.368.368 0 0 1-.188.235.243.243 0 0 1-.132.035.269.269 0 0 1-.1-.008zm1.871.127a.552.552 0 0 1-.153-.065c-.076-.051-.128-.138-.128-.212 0-.059.017-.09.067-.13.07-.056.16-.154.201-.22.116-.185.105-.381-.033-.583a.452.452 0 0 1-.036-.058.732.732 0 0 1 .512.402.571.571 0 0 1 .053.301.898.898 0 0 1-.128.41.361.361 0 0 1-.355.154zM4.053 6.854a.677.677 0 0 1-.07-.277c-.018-.37.203-.633.62-.736a.276.276 0 0 1 .131-.007.368.368 0 0 1 .275.207c.054.122.036.263-.042.336a.147.147 0 0 1-.144.042 1.346 1.346 0 0 0-.162-.01.583.583 0 0 0-.306.064.557.557 0 0 0-.259.362.386.386 0 0 1-.017.058c-.002.002-.014-.016-.026-.038zm1.028 1.487a.701.701 0 0 1-.52-.418.614.614 0 0 1-.05-.177.468.468 0 0 1 .071.048c.265.194.535.157.804-.114.054-.054.078-.067.131-.067.114 0 .227.106.264.247a.345.345 0 0 1-.189.396.933.933 0 0 1-.51.085zM3.496 13.8c-.065-.025-.09-.058-.112-.141a.962.962 0 0 0-.135-.295.503.503 0 0 0-.212-.162.657.657 0 0 0-.342-.023l-.038.005.043-.047a.73.73 0 0 1 .485-.23c.26-.018.484.105.678.37a.33.33 0 0 1 .056.21.36.36 0 0 1-.268.316.207.207 0 0 1-.155-.005v.002zm2.944 1.709c.252-.22.272-.482.06-.792-.044-.064-.05-.08-.05-.114 0-.15.197-.273.383-.238a.352.352 0 0 1 .211.13c.047.056.05.062.07.154.025.123.028.297.005.39a.648.648 0 0 1-.213.348.722.722 0 0 1-.432.171l-.098.005.064-.055zm-3.594.113a.78.78 0 0 1-.04-.444c.068-.3.302-.493.668-.548a.348.348 0 0 1 .375.209.279.279 0 0 1 .025.14c0 .072-.003.088-.023.13a.202.202 0 0 1-.113.111c-.036.016-.042.016-.108 0a1.212 1.212 0 0 0-.352-.015c-.193.037-.336.176-.404.396l-.014.048-.014-.028zm2.283.787a.674.674 0 0 1-.522-.499c-.034-.138-.025-.375.02-.464a.375.375 0 0 1 .16-.158.404.404 0 0 1 .271-.022c.098.032.172.1.191.175.012.048.007.07-.029.132-.104.178-.142.335-.115.475a.568.568 0 0 0 .225.323c.034.025.06.049.057.052a.914.914 0 0 1-.258-.014zm1.822 3.621c-.044-.024-.048-.03-.094-.128a.751.751 0 0 0-.158-.247.478.478 0 0 0-.185-.12.638.638 0 0 0-.345-.003c-.04.01-.075.02-.08.02-.013 0 .047-.084.1-.136a.753.753 0 0 1 .342-.2.748.748 0 0 1 .326-.005.958.958 0 0 1 .414.252c.081.08.101.128.101.242 0 .075-.003.091-.024.139a.352.352 0 0 1-.285.209c-.06.003-.07.002-.112-.023zm9.083.686a.112.112 0 0 1-.08-.041c-.218-.22-.472-.284-.694-.175a.83.83 0 0 0-.175.123l-.023.023v-.023a.714.714 0 0 1 .37-.544.574.574 0 0 1 .328-.073c.135 0 .22.018.355.07a.338.338 0 0 1 .214.264.378.378 0 0 1-.083.288c-.062.072-.132.1-.212.088zm-10.552.325a.737.737 0 0 1 .25-.604.78.78 0 0 1 .256-.13c.154-.043.41-.033.503.02.11.06.176.162.185.282.012.166-.096.323-.225.323-.034 0-.06-.01-.13-.046-.166-.087-.319-.119-.45-.094a.613.613 0 0 0-.356.256l-.026.037-.007-.044zm9.624 1.145a.756.756 0 0 1-.069-.116c-.185-.39-.025-.778.401-.973.087-.04.125-.047.204-.035.122.02.22.09.271.198a.271.271 0 0 1 .032.134c.005.087-.01.13-.062.18-.035.034-.035.034-.167.047-.31.032-.49.168-.548.415a.677.677 0 0 0-.014.099.591.591 0 0 1-.006.07l-.005.027-.037-.047zm4.042.04a.727.727 0 0 0 .11-.265.49.49 0 0 0-.09-.35 1.09 1.09 0 0 0-.19-.194.154.154 0 0 1-.069-.137c0-.162.216-.31.401-.273.062.011.13.043.175.08.056.048.13.19.17.335a.74.74 0 0 1 .004.358.721.721 0 0 1-.464.476c-.083.027-.086.026-.047-.03zm-12.056.304a.755.755 0 0 1-.345-.465.85.85 0 0 1 0-.252.94.94 0 0 1 .243-.434.365.365 0 0 1 .327-.093c.193.05.322.247.255.39-.02.046-.026.05-.102.085a.7.7 0 0 0-.354.321.317.317 0 0 0-.036.152.607.607 0 0 0 .038.253.26.26 0 0 1 .018.063c-.002.003-.022-.006-.045-.02h.001zm1.672.082l-.03-.006.063-.044c.26-.186.316-.419.178-.72a1.206 1.206 0 0 0-.05-.1c-.025-.038-.024-.1.003-.15.077-.146.318-.188.48-.085a.45.45 0 0 1 .131.154c.018.038.02.052.02.209.001.18-.004.212-.049.326a.69.69 0 0 1-.627.42.663.663 0 0 1-.119-.003zm8.535.291a.703.703 0 0 1-.549-.508c-.038-.153-.003-.431.07-.551a.392.392 0 0 1 .184-.14.301.301 0 0 1 .138-.014.331.331 0 0 1 .201.072.216.216 0 0 1 .098.178c0 .05-.002.053-.052.116-.128.16-.185.29-.185.428-.002.128.05.242.158.361l.067.073-.032-.002a.892.892 0 0 1-.098-.012zM10.83 5.254s.705.041.82.518l-.82.058s-.154-.236 0-.576" fill="#F6F9FA" mask="url(#b)"/></g></svg>