<svg width="36" height="26" viewBox="0 0 36 26" xmlns="http://www.w3.org/2000/svg" xmlns:xlink="http://www.w3.org/1999/xlink"><title>NL-NB</title><defs><path d="M4 0a4 4 0 0 0-4 4v18a4 4 0 0 0 4 4h28a4 4 0 0 0 4-4V4a4 4 0 0 0-4-4H4z" id="a"/></defs><g fill="none" fill-rule="evenodd"><mask id="b" fill="#fff"><use xlink:href="#a"/></mask><path fill="#F6F9FA" mask="url(#b)" d="M30 6.5h6V0h-6z"/><path fill="#DD0906" mask="url(#b)" d="M30 13h6V6.5h-6z"/><path fill="#F6F9FA" mask="url(#b)" d="M30 19.5h6V13h-6zM6 6.5h6V0H6zM0 13h6V6.5H0z"/><path fill="#DD0906" mask="url(#b)" d="M0 6.5h6V0H0zM6 13h6V6.5H6z"/><path fill="#F6F9FA" mask="url(#b)" d="M6 19.5h6V13H6zM0 26h6v-6.5H0z"/><path fill="#DD0906" mask="url(#b)" d="M0 19.5h6V13H0zM6 26h6v-6.5H6z"/><path fill="#F6F9FA" mask="url(#b)" d="M18 6.5h6V0h-6zM12 13h6V6.5h-6z"/><path fill="#DD0906" mask="url(#b)" d="M12 6.5h6V0h-6zm6 6.5h6V6.5h-6z"/><path fill="#F6F9FA" mask="url(#b)" d="M18 19.5h6V13h-6zM12 26h6v-6.5h-6z"/><path fill="#DD0906" mask="url(#b)" d="M12 19.5h6V13h-6zm6 6.5h6v-6.5h-6z"/><path fill="#F6F9FA" mask="url(#b)" d="M24 13h6V6.5h-6z"/><path fill="#DD0906" mask="url(#b)" d="M24 6.5h6V0h-6z"/><path fill="#F6F9FA" mask="url(#b)" d="M24 26h6v-6.5h-6z"/><path fill="#DD0906" mask="url(#b)" d="M24 19.5h6V13h-6zm6 6.5h6v-6.5h-6z"/></g></svg>