<svg width="36" height="26" viewBox="0 0 36 26" xmlns="http://www.w3.org/2000/svg" xmlns:xlink="http://www.w3.org/1999/xlink"><title>NL-OV</title><defs><path d="M4 0a4 4 0 0 0-4 4v18a4 4 0 0 0 4 4h28a4 4 0 0 0 4-4V4a4 4 0 0 0-4-4H4z" id="a"/></defs><g fill="none" fill-rule="evenodd"><mask id="b" fill="#fff"><use xlink:href="#a"/></mask><path fill="#FFD800" mask="url(#b)" d="M0 20.8h36V5.2H0z"/><path d="M0 26h36v-5.2H0V26zM0 5.2h36V0H0v5.2z" fill="#F11100" mask="url(#b)"/><path d="M36 11.42c-.767.012-1.542-.15-2.087-.496-2.258-1.437-5.669-1.438-7.93 0-1.049.667-2.964.668-4.019 0-2.257-1.437-5.668-1.438-7.929 0-1.052.668-2.967.668-4.018 0-2.261-1.437-5.67-1.438-7.93 0-.545.345-1.32.508-2.087.496v4.55c1.443.012 2.892-.342 4.043-1.074 1.051-.668 2.966-.668 4.018 0 2.261 1.437 5.67 1.437 7.93 0 1.052-.668 2.967-.668 4.018 0 2.26 1.437 5.672 1.437 7.93 0 1.054-.669 2.969-.667 4.018 0 1.151.732 2.6 1.086 4.043 1.073V11.42z" fill="#003F9F" mask="url(#b)"/></g></svg>