<svg width="36" height="26" viewBox="0 0 36 26" xmlns="http://www.w3.org/2000/svg" xmlns:xlink="http://www.w3.org/1999/xlink"><title>NL-SX</title><defs><path id="a" d="M0 26h36V0H0z"/></defs><g fill="none" fill-rule="evenodd"><path d="M36 22a4 4 0 0 1-4 4H4a4 4 0 0 1-4-4V4a4 4 0 0 1 4-4h28a4 4 0 0 1 4 4v18z" fill="#032A87"/><path d="M32 0H4a4 4 0 0 0-4 4v9h36V4a4 4 0 0 0-4-4" fill="#DC181E"/><path d="M1.313 24.945l15.718-11.88L1.33 1.04A3.973 3.973 0 0 0 0 4.001v18c0 1.17.512 2.213 1.313 2.944" fill="#EEE"/><path d="M8.625 9.74c0 .914-.962 1.656-2.148 1.656-1.187 0-2.149-.742-2.149-1.657s.962-1.656 2.149-1.656c1.186 0 2.148.741 2.148 1.656" fill="#FADA10"/><path d="M3.854 9.041c.46-.46 2.12-.437 2.622-.146-.56-.753.212-.396.817-.396.603 0 .77.186.375.228-.397.043-.73-.02-.625.105.103.125.707.02 1.248-.105.543-.123 1.168.335 1.21.418.04.084-.96-.124-1.313 0-.355.126-.918.104-.876.23.042.124-.589.207-.836.146-.247-.064-1.268-.043-1.1-.147a7.34 7.34 0 0 1 .457-.27c.085-.042-1.25-.083-1.979-.063" fill="#BD725F"/><path d="M10.156 9.563s-.939.476-1.89.25c-1.048-.25-1.813-.14-1.813.14 0-.28-.766-.39-1.813-.14-.95.226-1.89-.25-1.89-.25s.694 1.108.281 3.327c-.422 2.266-.297 3.297 1.49 3.364 1.51.057 1.932.511 1.932.511s.421-.454 1.932-.51c1.787-.067 1.912-1.098 1.49-3.364-.413-2.22.281-3.329.281-3.329" fill="#DC181E"/><path d="M9.469 13.578c-.531-1.828.03-3.328.03-3.328s-.827.25-1.75-.016c-.921-.265-1.296.188-1.296.188s-.375-.453-1.296-.188c-.922.266-1.75.016-1.75.016s.562 1.5.03 3.328c-.53 1.828.766 2.094 1.64 2.078.876-.015 1.376.485 1.376.485s.5-.5 1.375-.485c.875.016 2.172-.25 1.64-2.078" fill="#63B0E2"/><path fill="#FFF" d="M8.547 14.89v-.905h.203v-.36h-.22v-.968h.204l-1.671-1.11v-.453h.25l-.86-.578-.86.578h.25v.453l-1.671 1.11h.203v.968h-.22v.36h.205v.906h-.25v.453h4.687v-.453zm.163-3.773c0 .358-.072.492-.163.492-.091 0-.164-.134-.164-.492s.164-.648.164-.648.164.29.164.648"/><path d="M9.18 11.656H7.914c0-.172.284-.312.633-.312.35 0 .633.14.633.312" fill="#FFF"/><path d="M4.875 11.188s-.234.421-.281.671c-.047.25-.188-.155-.188-.155s-.25.25-.312.342c-.063.095-.078-.717 0-.827.078-.11-.188-.079-.281-.125-.094-.047.203-.343.203-.343s-.407-.188-.266-.236c.141-.046.656-.014.828.125.172.141.578-.094.734-.125.157-.03 0 .156-.125.266-.125.11-.062.39-.062.531 0 .142-.25-.124-.25-.124" fill="#018830"/><mask id="b" fill="#fff"><use xlink:href="#a"/></mask><path fill="#B6B6B6" mask="url(#b)" d="M5.578 13.734h1.844v-.531H5.578zm-.89-.234h.562v-.734h-.562zm0 1.234h.562V14h-.562zM7.704 13.5h.562v-.734h-.562zm0 1.234h.562V14h-.562zm-1.657-3.125h.844v-.391h-.844z"/><path d="M11.5 13.766l-.156-.891-.828.266.25 1.203.187.047s.016.969-.719 1.719c-.734.75-2.031.75-2.031.75s-.672.484-1.75.484c-1.078 0-1.75-.484-1.75-.484s-1.297 0-2.031-.75c-.735-.75-.719-1.72-.719-1.72l.188-.046.25-1.203-.829-.266-.156.89-.297.032s.016 1.75.625 2.672c.61.922 1.969 1.203 1.969 1.203s.016.11.047.219c.891.516 2.703.547 2.703.547s1.813-.031 2.703-.547c.031-.11.047-.22.047-.22s1.36-.28 1.969-1.202c.609-.922.625-2.672.625-2.672l-.297-.031z" fill="#FADA10" mask="url(#b)"/></g></svg>