<svg width="36" height="26" viewBox="0 0 36 26" xmlns="http://www.w3.org/2000/svg" xmlns:xlink="http://www.w3.org/1999/xlink"><title>NL-UT</title><defs><path id="a" d="M0 26h36V0H0z"/></defs><g fill="none" fill-rule="evenodd"><path d="M36 4a4 4 0 0 0-4-4H4a4 4 0 0 0-4 4v9h36V4z" fill="#F6F9FA"/><path d="M0 13v9a4 4 0 0 0 4 4h28a4 4 0 0 0 4-4v-9H0z" fill="#DD0906"/><mask id="b" fill="#fff"><use xlink:href="#a"/></mask><path fill="#DD0906" mask="url(#b)" d="M0 11h4.5V6.5H0zM4.5 0H4a4 4 0 0 0-4 4v.5h4.5V0zm2 4.5H11V0H6.5zm0 6.5H11V6.5H6.5z"/></g></svg>