<svg width="36" height="26" viewBox="0 0 36 26" xmlns="http://www.w3.org/2000/svg" xmlns:xlink="http://www.w3.org/1999/xlink"><title>NL-ZE</title><defs><path id="a" d="M0 .01v5.62h36V.01H0z"/><path id="c" d="M0 .376v5.62h36V.377H0z"/><path d="M.015.058v1.837C.015 4.685 2.21 6.946 5 6.946c2.79 0 4.985-2.261 4.985-5.051V.058H.015z" id="e"/></defs><g fill="none" fill-rule="evenodd"><path d="M32 26H4a4 4 0 0 1-4-4V4a4 4 0 0 1 4-4h28a4 4 0 0 1 4 4v18a4 4 0 0 1-4 4" fill="#F6F9FA"/><g transform="translate(0 6)"><mask id="b" fill="#fff"><use xlink:href="#a"/></mask><path d="M23.426.9c-3.244.974-7.605.974-10.852 0C8.766-.24 3.907-.28 0 .756v4.123c.19-.05.389-.09.574-.145 3.246-.973 7.607-.974 10.852 0 3.993 1.196 9.154 1.197 13.148 0 3.247-.973 7.606-.974 10.852 0 .185.056.384.095.574.146V.756C32.093-.281 27.235-.241 23.426.9" fill="#173485" mask="url(#b)"/></g><path d="M23.426 23.634c-3.246.973-7.607.973-10.852 0-3.721-1.115-8.443-1.178-12.302-.215A3.992 3.992 0 0 0 4 25.999h28a3.992 3.992 0 0 0 3.729-2.58c-3.86-.963-8.582-.9-12.303.215M.574 2.366c3.245-.973 7.606-.973 10.852 0 3.993 1.196 9.153 1.196 13.148 0 3.246-.973 7.605-.973 10.852 0 .081.024.17.041.253.064A4.001 4.001 0 0 0 32 0H4A4 4 0 0 0 .321 2.43c.083-.023.171-.04.253-.064" fill="#173485"/><g transform="translate(0 14)"><mask id="d" fill="#fff"><use xlink:href="#c"/></mask><path d="M23.426 1.268c-3.246.973-7.607.973-10.852 0C8.764.126 3.907.086 0 1.122v4.124c.19-.051.389-.09.574-.146 3.246-.973 7.607-.973 10.852 0 3.993 1.197 9.153 1.195 13.148 0 3.247-.973 7.606-.973 10.852 0 .185.056.384.095.574.146V1.122c-3.907-1.036-8.765-.996-12.574.146" fill="#173485" mask="url(#d)"/></g><path d="M22.985 9.318v7.577c0 2.79-2.195 5.052-4.985 5.052-2.79 0-4.985-2.262-4.985-5.052V9.318h9.97z" fill="#FDDF02"/><path d="M17.819 11.282c-.415-.019-1.035.101-1.119-.142.002-.252-.368-.464-.343-.146.164.524.919.312 1.467.36l-.005-.072z" fill="#269"/><path d="M16.68 13.884c-.01-.077-.086-.124-.149-.178a.277.277 0 0 1 .16.003.736.736 0 0 1-.012.175m5.052-1.5c.124-.024.26 0 .384.008-.047-.146-.254-.361-.42-.371.02-.07.11-.086.176-.102.247-.062.371-.271.162-.691-.125.365-.679.506-.95.103.066.336-.096.539-.2.709-.002-.146-.213-.386-.37-.37.028.189-.215.534-.185.867a.75.75 0 0 0-.162.213c-.126.253-.135.637.216.956.223.203.338.5.28.724-.035.137-.132.224-.286.26a.701.701 0 0 1-.455-.045 6.198 6.198 0 0 0-.65-.991l.092-.047c-.053-.002-.098-.008-.143-.014a9.52 9.52 0 0 0-.396-.46c.07-.215.272-.456.411-.614a.744.744 0 0 0 .64.387c-.213-.233-.35-.476-.222-.747.28-.378.241-.668.013-.908.12.02.236.002.33-.213-.163-.037-.362.004-.424-.247-.067-.185-.15-.357-.323-.454.111-.263.176-.484-.33-.187l-1.065-.047-.002.005c-.195-.015-.325.054-.329.215l-.329.19c-.225-.036-.367.096-.152.17-.053.204.045.34.343.392l.057.118.048-.137c.47.019.383.256.371.463l-.309-.052-.062-.11-.019.119-.119.066.095.104c.016.107-.009.214.114.32.001-.076.023-.121.062-.136.116-.038.114-.091.133-.141l.301.17c.091.198-.206.48-.429.273-.12-.07-.314-.123-.524.062a.347.347 0 0 1-.229.065 2.094 2.094 0 0 0-.162-.243c.027-.06.091-.111.211-.124-.123-.128-.258-.121-.359-.05a1.956 1.956 0 0 0-.25-.213c-.275-.32-.903-.547-.61-1.017.143-.106.441-.15.265-.382.014-.011.032-.02.04-.033a.421.421 0 0 0 .06-.191.272.272 0 0 0-.025-.14.341.341 0 0 0-.238-.186.17.17 0 0 0 .017.026c.064.094.07.185.015.272a.51.51 0 0 1-.08.09c-.143-.026-.262.113-.378.282-.018-.157.088-.424-.212-.332 0-.005 0-.011-.002-.014a.384.384 0 0 0-.192-.186.326.326 0 0 0-.32.04.263.263 0 0 0-.067.065.278.278 0 0 0 .023-.003c.012-.003.045-.004.074-.003a.194.194 0 0 1 .077.013.24.24 0 0 1 .126.115c.016.03.044.107.044.123 0 .006.01.015.02.025-.122.168.044.24.125.339-.097.019-.26-.082-.289.059h-.022c-.194.049-.296.17-.288.343a.34.34 0 0 0 .032.129c.006.01.012.019.013.018a.172.172 0 0 0 .007-.027c.018-.073.065-.067.121-.096.044-.023.08.042.142.042h.025c.033 0 .134.243.321.04l.173.244c-.136-.018-.274-.057-.194.19-.12.115-.242.122-.36.035-.019-.013-.034-.028-.034-.027a.325.325 0 0 0 .264.273.441.441 0 0 0 .238-.041l.004-.004c.104.19.215.237.342-.038l.277.445c.118.23.044.31-.016.4.134.084.206-.02.288-.096l.002.028a.244.244 0 0 0-.074.11c-.478.155-.589.462-.432.88.134-.324.33-.542.635-.575a.795.795 0 0 0 .115.06 1.89 1.89 0 0 0-.65.675c-.293.305-.455.948-.958.708-.107-.115-.179-.356-.345-.27-.088-.114-.19-.17-.307-.163a.338.338 0 0 0-.225.107l-.02.022.018-.002a.302.302 0 0 1 .16.01.246.246 0 0 1 .097.075.453.453 0 0 1 .063.137.1.1 0 0 0 .02.045c-.052.165.11.28.31.386-.076.017-.183.007-.258.026-.01 0-.02-.007-.03-.005-.17.026-.415.115-.447.255-.014.062-.115.152-.115.206v-.001l.141.013.074-.021c.032-.103.132-.168.222-.185a.566.566 0 0 1 .104-.002c.001.003.01.005.011.008.337.354.393.102.51-.014.02.067-.013.17.016.232a.315.315 0 0 0 .252.336.372.372 0 0 0 .12.006c.002-.001-.01-.012-.026-.024a.264.264 0 0 1-.105-.15.29.29 0 0 1 .026-.156l.058-.017c.274-.06.323-.167.094-.333l.263-.201c-.005.139-.009.279.245.16.05.113.031.212-.065.296l-.03.026.046-.003a.334.334 0 0 0 .2-.08.292.292 0 0 0 .1-.161.48.48 0 0 0-.012-.214c.17-.12.196-.23-.087-.324l.418-.32c.22-.141.307-.076.404-.027-.017.067-.036.134-.05.2.144-.112.304-.201.324-.495.037.039.076.076.118.109.016.116.015.232.008.347a.527.527 0 0 0 .192-.223c.212.102.492.144.871.098.058.14.007.275.002.412.116-.105.172-.254.198-.424.341.245.548.496.656.75a.957.957 0 0 1-.642.096c-.455-.016-.9-.01-1.179.48-.194.094-.3.273-.728.134-.956-.292-.726.797-.162.58-.152.046-.408-.11-.195-.34.11-.1.262.02.404.087l.216.147c-.14.592.453.562.707.547l-.417.52c-.259.19-.53.514-.755.32.113-.31-.048-.548-.222-.405a.437.437 0 0 0-.19-.116.34.34 0 0 0-.153.002.34.34 0 0 0-.205.156.4.4 0 0 0 .037-.01.288.288 0 0 1 .16.003.216.216 0 0 1 .086.055.34.34 0 0 1 .074.114c.02.042.024.048.04.057l-.038.079c-.097-.025-.155-.002-.18.059a.423.423 0 0 0-.226-.006.37.37 0 0 0-.119.06.342.342 0 0 0-.116.28l.003.022.012-.017a.287.287 0 0 1 .165-.12.332.332 0 0 1 .21.044l.021.01c-.063.33.16.2.345.135-.005.028-.028.055-.05.08l-.006.004a.444.444 0 0 0-.113.202.417.417 0 0 0 0 .117c.02.086.085.174.161.216.01.006.02.01.02.009a.126.126 0 0 0-.008-.03.295.295 0 0 1-.018-.117.157.157 0 0 1 .017-.07.289.289 0 0 1 .093-.103l.025.012c.494.223.391-.105.532-.207-.012.203.023.338.23.234.036.117.007.21-.099.287l-.029.02.014.003a.27.27 0 0 0 .055.002c.134-.006.212-.082.257-.195.021-.053-.012-.068-.012-.152v-.017c0-.045.12-.166.008-.315l.771-.427c-.058.259.184.354.32.2-.302.038-.197-.308-.044-.441.146.169.273.38.575.24-.41-.12-.352-.454-.167-.627.581-.493.408-1.001-.027-.941l.63-.382a1.469 1.469 0 0 1-.032.225c-.19.425-.039.743.216 1.027.117.17.143.347.027.534-.12.158-.122.51.337.467-.264-.084-.2-.38.054-.453.174-.083.248-.203.19-.374.348.135.541-.07.713-.321.025.156.137.312.27.468.28.609-.196.83-.473.534-.075-.241-.203-.29-.285-.24a.381.381 0 0 0-.132-.023.263.263 0 0 0-.153.034c-.08.042.046.12.023.21-.004.018.18.037.18.043v.01l-.177-.01c.017-.018-.036-.046-.012-.058.103-.05.174-.02.275.082.014.013-.002.017.014.019.011.002.01-.002.02-.003l.092.149c-.36-.072-.439-.03-.435.048-.175.095-.243.263-.162.435a.335.335 0 0 0 .032.054l.016.022.002-.013a.155.155 0 0 0 .003-.033c.001-.01.003-.031.007-.045.021-.09.087-.14.18-.167.186.366.4.168.62-.167-.142.19-.152.305-.068.364-.006.049.161.1.17.136.03.118-.578.212.422.237v.149c0 .004-.242.33-.234.33h-.012l-.045-.27c-.05-.055-.08-.226-.08-.285a.554.554 0 0 1 .034-.184c.328.026.337-.15.22-.368l.268-.068c.076.14.161.248.36.073.008.01.018.018.023.026a.22.22 0 0 1 .042.16.328.328 0 0 1-.05.123c-.019.026-.018.026.021.013a.338.338 0 0 0 .215-.221.362.362 0 0 0-.081-.322c-.006-.005-.016-.007-.023-.011-.032-.06-.106-.117-.158-.176.477-.386.198-.753-.04-1.121.207.05.368-.125.512-.387-.122.109-.24.158-.35.066-.16-.143-.297-.164-.418-.106.14-.086.24-.207.202-.454-.089-.422.346-.157.377-.014-.104-.557-.584-.495-.593-.066-.03.19-.152.234-.336.173-.239-.075-.452-.105-.539.094-.048-.19-.11-.37-.178-.546.104.007.215.003.335-.025a.777.777 0 0 0 .6-.567c.097-.374-.066-.834-.405-1.143-.144-.131-.208-.301-.112-.471a.72.72 0 0 0 .492.056c.218-.055.567-.183.77-.017 0 0 .033-.126-.075-.275-.059-.081-.127-.175-.237-.18.003-.026.088-.096.226-.122" fill="#DB2E3D"/><path d="M13.015 15.964v.931c0 2.79 2.195 5.051 4.985 5.051 2.79 0 4.985-2.262 4.985-5.05v-.932h-9.97z" fill="#FFF"/><g transform="translate(13 15)"><mask id="f" fill="#fff"><use xlink:href="#e"/></mask><path d="M.34 1.323c.868-.26 2.034-.26 2.902 0 1.068.32 2.448.32 3.517 0 .868-.26 2.034-.26 2.902 0 1.068.32 2.448.32 3.516 0L12.87.298c-.868.26-2.034.26-2.902 0-1.068-.32-2.448-.32-3.516 0-.87.26-2.035.26-2.903 0C2.48-.022 1.1-.022.033.298c-.868.26-2.034.26-2.902 0l-.307 1.025c.534.16 1.146.24 1.758.24.612 0 1.224-.08 1.758-.24m0 6.713c.868-.26 2.034-.26 2.902 0 1.068.32 2.448.319 3.517 0 .868-.26 2.034-.26 2.902 0 1.068.32 2.448.32 3.516 0L12.87 7.01c-.868.26-2.034.26-2.902 0-1.068-.32-2.448-.32-3.516 0-.87.26-2.035.26-2.903 0-1.068-.32-2.448-.32-3.516 0-.868.26-2.034.26-2.902 0l-.307 1.025c.534.16 1.146.24 1.758.24.612 0 1.224-.08 1.758-.24m0-4.476c.868-.26 2.034-.26 2.902 0 1.068.32 2.448.32 3.517 0 .868-.26 2.034-.26 2.902 0 1.068.32 2.448.32 3.516 0l-.307-1.024c-.868.26-2.034.26-2.902 0-1.068-.321-2.448-.32-3.516 0-.868.26-2.035.26-2.903 0-1.068-.321-2.448-.32-3.516 0-.868.26-2.034.26-2.902 0l-.307 1.025c.534.16 1.146.24 1.758.24.612 0 1.224-.08 1.758-.241m-1.758 2.478c-.612 0-1.224-.08-1.758-.24l.307-1.025c.868.26 2.034.26 2.902 0 1.068-.32 2.448-.32 3.516 0 .868.26 2.034.26 2.903 0 1.068-.32 2.448-.32 3.516 0 .868.26 2.034.26 2.902 0l.307 1.025c-1.068.32-2.448.32-3.516 0-.868-.26-2.034-.26-2.902 0-1.07.32-2.45.32-3.517 0-.868-.26-2.034-.26-2.902 0-.534.16-1.146.24-1.758.24" fill="#173485" mask="url(#f)"/></g><path d="M23.873 6.5a.409.409 0 0 0-.075.194 1.154 1.154 0 0 0-.058.008.404.404 0 0 0-.127-.162c-.3-.222-.772.122-.931.004.159.118-.034.67.265.892.06.044.125.067.193.075l.008.058a.398.398 0 0 0-.201.196l-.852-.601-.498.27a.285.285 0 0 1-.41-.33.435.435 0 0 0 .205-.235.392.392 0 0 0 .01-.206.868.868 0 0 0 .053-.026c.046.05.102.09.172.114.353.117.694-.36.882-.296-.188-.063-.178-.647-.532-.764a.403.403 0 0 0-.206-.011l-.026-.052a.403.403 0 0 0 .114-.172c.117-.354-.358-.695-.296-.882-.062.187-.647.178-.764.53a.407.407 0 0 0-.011.208.504.504 0 0 0-.052.026.403.403 0 0 0-.172-.114c-.353-.117-.694.358-.882.296.188.062.179.647.533.764a.4.4 0 0 0 .208.01c.008.018.019.036.029.053a.385.385 0 0 0-.11.172.395.395 0 0 0 .006.213l-.08.302a.286.286 0 0 1-.53.058l-.25-.486-.422.52a.285.285 0 0 1-.507-.18v-.46c0-.073.046-.156.046-.252 0-.075-.068-.14-.101-.2a.793.793 0 0 0 .04-.041.41.41 0 0 0 .2.055c.373 0 .547-.56.745-.56-.198 0-.372-.557-.744-.557a.41.41 0 0 0-.2.054.793.793 0 0 0-.041-.041.406.406 0 0 0 .055-.2c0-.371-.56-.546-.56-.744 0 .198-.557.373-.557.745 0 .074.02.139.055.199l-.042.04a.403.403 0 0 0-.2-.053c-.371 0-.546.558-.744.558.198 0 .373.559.745.559.074 0 .14-.022.199-.055.014.014.027.028.042.04-.034.06-.101.126-.101.2 0 .097.046.18.046.253v.46a.285.285 0 0 1-.507.18l-.424-.52-.25.486a.285.285 0 0 1-.53-.058l-.08-.302a.385.385 0 0 0 .006-.213.392.392 0 0 0-.108-.172l.029-.053a.4.4 0 0 0 .208-.01c.353-.117.344-.702.532-.764-.188.062-.528-.413-.881-.296a.397.397 0 0 0-.172.114c-.017-.01-.035-.018-.053-.026a.396.396 0 0 0-.01-.207c-.117-.353-.702-.344-.764-.531.062.187-.413.528-.296.882.023.07.063.126.114.172a.504.504 0 0 0-.026.052.407.407 0 0 0-.207.01c-.353.118-.344.702-.531.765.187-.063.528.413.882.296a.403.403 0 0 0 .172-.114.84.84 0 0 0 .052.026.403.403 0 0 0 .01.206.43.43 0 0 0 .206.235.286.286 0 0 1-.411.33l-.497-.27-.852.6a.395.395 0 0 0-.202-.196.54.54 0 0 0 .009-.057.392.392 0 0 0 .192-.075c.299-.221.107-.774.265-.892-.158.118-.631-.226-.93-.004-.06.044-.1.1-.127.162l-.06-.008a.397.397 0 0 0-.073-.193c-.222-.3-.775-.106-.892-.265l.005.01c.054.073 1.125 1.485 1.763 2.407h9.992c.637-.92 1.713-2.338 1.763-2.406a.11.11 0 0 1 .006-.011c-.118.159-.67-.034-.892.265" fill="#FDDF02"/><path d="M23.588 7.186a.372.372 0 1 1 .589.453.372.372 0 0 1-.589-.453m-2.61-.845a.373.373 0 1 1 .235-.708.373.373 0 0 1-.235.708M18 5.86a.371.371 0 1 1 0-.742.371.371 0 0 1 .001.743m-2.978.48" fill="#DB2E3D"/></g></svg>