<svg width="36" height="26" viewBox="0 0 36 26" xmlns="http://www.w3.org/2000/svg"><title>NL-ZH</title><g fill="none" fill-rule="evenodd"><path d="M32 26.167H4a4 4 0 0 1-4-4V4a4 4 0 0 1 4-4h28a4 4 0 0 1 4 4v18.167a4 4 0 0 1-4 4" fill="#FDDF00"/><path d="M20.241 7h-.012c-.072 0-.134.07-.158.137-.126.368-.506.633-.924.633a.947.947 0 0 1-.802-.442.18.18 0 0 0-.217-.063.181.181 0 0 0-.108.201c.092.467-.045.8-.21 1.084-.18-.298-.509-.57-.81-.57l-.049.002a.18.18 0 0 0-.124.07.174.174 0 0 0-.036.136c.021.138-.064.376-.154.627-.123.347-.263.737-.249 1.141a1.758 1.758 0 0 0-.327.45c-.299.603-.323 1.517.506 2.271.426.387.657.967.55 1.38-.059.227-.217.368-.484.431a1.4 1.4 0 0 1-.314.036c-.697 0-1.126-.558-1.144-.582a.637.637 0 0 0-.884-.138.636.636 0 0 0-.142.887c.07.097.718.948 1.848 1.087a2.56 2.56 0 0 0 .926-.054c.726-.17 1.245-.66 1.423-1.348.226-.87-.145-1.93-.924-2.639-.137-.124-.332-.358-.265-.64.18.067.387.103.6.103.141 0 .282-.017.406-.048l.19-.05c.266-.075.57-.158.845-.158.2 0 .35.044.461.136a.18.18 0 0 0 .287-.09c.01-.037.09-.366-.186-.747a1.542 1.542 0 0 0-.289-.325.931.931 0 0 1 .155-.043c.073-.014.148-.019.225-.019.118 0 .238.064.355.075.068.006.135.07.2.07h.012c.055 0 .107-.079.142-.122a.24.24 0 0 0 .03-.192c-.082-.249-.35-.61-.667-.799.331-.089.541-.259.647-.49.146-.319.09-.762-.168-1.279-.03-.06-.093-.119-.16-.119" fill="#000"/><path d="M19.615 10.348c-.126-.173-.273-.376-.51-.388.007-.054.189-.204.487-.262.267-.05.558 0 .826.018-.102-.314-.547-.778-.904-.797.04-.152.237-.186.379-.22.53-.135.799-.583.349-1.487-.27.785-1.462 1.09-2.045.22.142.724-.206 1.162-.43 1.527-.005-.314-.458-.83-.798-.798.062.408-.46 1.151-.396 1.866a1.62 1.62 0 0 0-.35.46c-.27.543-.29 1.37.466 2.057.48.436.727 1.077.602 1.558-.076.293-.283.482-.616.56-.991.23-1.61-.568-1.643-.612a.454.454 0 0 0-.635-.1.457.457 0 0 0-.102.636c.032.044.653.882 1.725 1.014.262.032.55.022.863-.05.659-.155 1.129-.599 1.29-1.219.209-.807-.141-1.796-.871-2.46-.31-.282-.447-.649-.241-1.014.306.17.738.202 1.058.121.469-.12 1.222-.394 1.655-.037 0 0 .074-.27-.16-.593" fill="#FC0000"/><path d="M13.865 14.493c-.04 0-.08.012-.114.036a1.715 1.715 0 0 1-1.027.32c-.13 0-.266-.013-.406-.037a9.369 9.369 0 0 0-.451-.012c-.838 0-1.69.134-2.26 1.091-.075.04-.145.084-.215.128-.186.12-.347.221-.613.221-.154 0-.33-.033-.536-.1a2.424 2.424 0 0 0-.694-.118c-.535 0-.768.264-.86.422-.153.267-.142.618.03.916a.922.922 0 0 0 .8.476c.127 0 .256-.025.386-.075a.198.198 0 0 0-.127-.373.265.265 0 0 1-.066.008c-.113 0-.233-.062-.267-.14-.04-.092.053-.213.113-.277a.103.103 0 0 1 .067-.02c.099 0 .245.078.386.154.063.034.126.067.188.097l.329.226c-.06.36-.003.654.17.874.218.274.595.413 1.15.424l-.615.768c-.111.082-.223.176-.336.27-.292.242-.594.493-.823.493a.249.249 0 0 1-.094-.017c.084-.332.049-.654-.1-.866a.475.475 0 0 0-.392-.218c-.122 0-.307.05-.491.29l-.25.52a.708.708 0 0 0-.045-.003.439.439 0 0 0-.344.142c-.097.11-.135.265-.116.475-.128.43-.132.682-.015.84a.364.364 0 0 0 .308.145c.06 0 .122-.01.186-.027a.347.347 0 0 0 .01.07c.042.17.21.305.564.452.264.12.479.18.65.18a.522.522 0 0 0 .455-.226.386.386 0 0 0 .348.201c.127 0 .269-.049.445-.153h.038c.129 0 .523 0 .656-.267.093-.185.015-.395-.101-.584l1.14-.646a.61.61 0 0 0 .117.245.542.542 0 0 0 .424.204.63.63 0 0 0 .473-.227.196.196 0 1 0-.148-.327l-.025.001a.59.59 0 0 1-.07.005c-.1 0-.112-.032-.118-.046-.031-.084.016-.258.11-.406.209.25.452.507.844.507.149 0 .304-.038.472-.116a.197.197 0 0 0-.027-.368c-.203-.06-.456-.18-.512-.418-.045-.188.047-.429.229-.599.826-.7.958-1.403.804-1.824a.813.813 0 0 0-.422-.463l.948-.575a.199.199 0 0 0 .095-.178l-.058-1.307a.198.198 0 0 0-.197-.188" fill="#000"/><path d="M13.865 14.69c-.45.318-.977.42-1.58.317-.978-.034-1.94-.02-2.537 1.034-.417.2-.645.587-1.566.287-2.06-.63-1.563 1.715-.348 1.25-.33.097-.88-.24-.42-.733.234-.215.563.043.869.187l.464.316c-.301 1.275.976 1.21 1.523 1.178l-.9 1.12c-.556.407-1.138 1.105-1.623.689.268-.738-.181-1.296-.594-.761l-.29.618c-.324-.082-.464.057-.421.416-.335 1.09.222.75.667.589-.036.212-.543.356.26.69 1.064.48.842-.226 1.146-.446-.03.478.059.789.624.43.754.03.683-.29.362-.717l1.624-.92c-.126.558.375.763.667.432-.648.082-.431-.663-.102-.948.315.363.584.817 1.233.517-.883-.26-.76-.978-.363-1.35 1.25-1.062.878-2.155-.058-2.025l1.42-.862-.057-1.307z" fill="#FC0000"/><path d="M5.703 4.36c-.113 0-.249.032-.416.097a.195.195 0 0 0-.047.026c-.36.27-.526.493-.536.718a.473.473 0 0 0 .077.28.36.36 0 0 0-.245.137c-.118.15-.125.392-.022.807.05.45.213.693.483.693.117 0 .237-.05.368-.155l.053.086a.36.36 0 0 0-.243.158c-.11.172-.077.425.113.848.15.358.348.728.663.728.165 0 .293-.103.392-.233l.423.679c.175.343.104.448-.003.607l-.029.044a.193.193 0 0 0-.027.15.195.195 0 0 0 .088.125.59.59 0 0 0 .288.096.199.199 0 0 0 .046.185c.57.614 1.095.743 1.436.743.354 0 .681-.142.897-.388a.894.894 0 0 0 .23-.7.193.193 0 0 0-.019-.06c-.35-.735-.693-1.454-1.623-2.117-.14-.173-.375-.358-.6-.537-.62-.49-.989-.82-.678-1.353.063-.042.14-.078.215-.115.225-.11.481-.234.526-.497.043-.253-.148-.48-.296-.628-.178-.182-.365-.274-.556-.274-.2 0-.374.099-.53.249a.468.468 0 0 0-.115-.275.41.41 0 0 0-.313-.124" fill="#000"/><path d="M9.495 10.116c-.333-.698-.654-1.396-1.56-2.042-.59-.689-1.943-1.178-1.31-2.188.334-.248 1.082-.33.453-.964-.464-.471-.815-.093-1.15.399-.043-.358.227-.992-.57-.681-.84.633-.309.801-.086 1.074-.28.053-.822-.364-.566.663.066.594.287.723.7.276l.372.602c-.337-.046-.678-.098-.31.719.262.623.541.902.868.192l.597.958c.254.497.094.668-.034.863.288.18.444-.045.62-.209.022.198.031.394-.245.523 1.167 1.261 2.312.51 2.221-.185z" fill="#FC0000"/><path d="M8.677 10.349a.811.811 0 0 0-.19.022.245.245 0 0 0-.057.023c-.7.423-1.387.836-1.954 1.823-.159.157-.319.407-.475.648-.294.457-.57.888-.967.888a.823.823 0 0 1-.325-.077c-.049-.058-.093-.13-.138-.2-.132-.208-.297-.466-.578-.466-.188 0-.369.113-.57.357-.18.213-.25.425-.21.63.034.174.144.319.294.445a.433.433 0 0 0-.302.2c-.12.21-.005.48.093.666a.194.194 0 0 0 .031.044c.298.313.528.453.746.453a.477.477 0 0 0 .304-.11.378.378 0 0 0 .09.17.421.421 0 0 0 .323.123c.14 0 .322-.041.56-.126.231-.05.58-.156.637-.436.04-.182-.07-.343-.186-.461l.082-.062a.39.39 0 0 0 .09.156c.05.05.136.109.277.109.16 0 .367-.076.653-.24.34-.184.69-.417.661-.726-.014-.166-.13-.283-.273-.368l.634-.486c.146-.093.273-.143.375-.143.084 0 .153.036.24.08l.046.025a.197.197 0 0 0 .266-.09.569.569 0 0 0 .067-.294l.014.002h.017a.2.2 0 0 0 .148-.065c.801-.9.612-1.611.493-1.875-.174-.388-.534-.64-.916-.64" fill="#000"/><path d="M8.532 10.563c-.665.4-1.333.79-1.885 1.752-.629.655-.977 2.039-2.058 1.523-.284-.304-.446-1.032-1.015-.345-.424.506-.007.812.522 1.09-.355.08-1.02-.12-.624.633.724.762.837.22 1.088-.028.082.272-.279.848.725.488.589-.13.695-.36.203-.718l.565-.431c-.011.336-.027.678.754.23.598-.324.849-.628.101-.876l.899-.69c.472-.302.66-.163.87-.057.15-.303-.093-.433-.275-.59.196-.041.392-.071.55.188 1.143-1.284.268-2.332-.42-2.17z" fill="#FC0000"/><path d="M16.007 19.395c.44 0 .757-.244 1.02-.561.121.249.302.484.48.694.177.398.204.743.071.951a.376.376 0 0 1-.328.176.618.618 0 0 1-.418-.19c-.199-.585-.525-.65-.657-.65-.269 0-.478.228-.496.543a.194.194 0 0 0 .033.119l.188.287a2.045 2.045 0 0 0-.209-.012c-.146 0-.35.019-.456.178a.298.298 0 0 0-.014.024.179.179 0 0 0 .01-.047.197.197 0 0 0-.136-.209c-.086-.027-.23-.096-.228-.246.002-.123.11-.287.34-.353.442-.208.574-.484.588-.723.072.013.143.019.212.019m-2.74-8.358l-.024.002-4.552.546a.198.198 0 0 0-.155.111.198.198 0 0 0 .012.19c.482.761 1.126 1.573 2.66 1.573.296 0 .621-.03.968-.091 1.237.901 1.69 1.891 1.42 3.109-.488 1.082.056 1.882.51 2.387.211.308.228.604.037.913-.152.197-.257.571-.1.888.08.159.292.426.835.426a1.8 1.8 0 0 0 .175-.009.197.197 0 0 0 .152-.095c-.063.154.008.321.067.457a.7.7 0 0 1 .06.17.265.265 0 0 0 .018.104c.187.393.41.584.681.584.146 0 .29-.057.443-.178v.001c.104.186.325.277.677.28.096.014.202.021.293.021.305 0 .501-.082.602-.251.098-.165.067-.363 0-.541l.194-.039c.1.161.254.346.5.346.174 0 .353-.092.56-.291.218-.118.337-.253.361-.412.034-.225-.128-.394-.28-.543.813-.783.408-1.571-.016-2.234.426-.116.723-.572.917-.927a.197.197 0 0 0-.304-.242c-.146.13-.267.197-.358.197-.03 0-.077-.006-.138-.058a1.345 1.345 0 0 0-.512-.304c.108-.185.17-.434.117-.78-.045-.214-.01-.271-.01-.271.148.006.412.222.434.313a.2.2 0 0 0 .233.15.195.195 0 0 0 .153-.228c-.14-.759-.579-1.028-.91-1.028-.367 0-.744.315-.756.917-.04.235-.16.235-.233.235a.763.763 0 0 1-.233-.045c-.293-.092-.505-.133-.688-.133a.813.813 0 0 0-.44.114c-.667-2.292-2.064-4.013-3.226-5.27a.195.195 0 0 0-.144-.064" fill="#000"/><path d="M8.715 11.78c.608.96 1.377 1.777 3.508 1.38 1.519 1.076 1.82 2.206 1.566 3.36-.41.916-.086 1.6.464 2.211.252.366.308.746.058 1.15-.26.338-.264 1.096.725 1.005-.568-.182-.432-.819.116-.977.374-.177.534-.436.406-.804.75.291 1.166-.15 1.537-.69.055.336.294.671.579 1.006.606 1.312-.42 1.788-1.014 1.15-.248-.788-.76-.634-.783-.202l.435.66c-1.476-.297-.753.308-.783.604.408.857.878.42 1.363-.316-.457.616-.326.886.26.89.846.112.88-.22.609-.718l.58-.115c.173.32.365.586.84.115.577-.295.144-.545-.086-.804 1.026-.83.426-1.62-.087-2.413.446.11.793-.268 1.102-.833-.263.235-.518.34-.754.143-.343-.308-.637-.353-.9-.229.3-.184.517-.444.436-.977-.191-.908.745-.338.812-.029-.224-1.199-1.257-1.067-1.276-.143-.068.41-.33.503-.725.373-.512-.162-.971-.226-1.16.201-.552-2.204-1.802-3.948-3.276-5.544l-4.552.546z" fill="#FC0000"/><path d="M10.76 8.939a.193.193 0 0 0 .055-.134c.002-.096.02-.124.02-.124a.518.518 0 0 0 .296-.199l.39.22a.323.323 0 0 1-.056.214.418.418 0 0 1-.333.2.347.347 0 0 1-.236-.103 1.694 1.694 0 0 0-.137-.074zm-.281-1.644a.193.193 0 0 0 .069-.094l.053-.152c.216.022.364.075.432.153.077.087.07.234.053.405l-.364-.061-.086-.152a.199.199 0 0 0-.157-.099zm3.79-2.906c-.174 0-.415.094-.78.303l-2.232-.098h-.008a.168.168 0 0 0-.05.007 1.325 1.325 0 0 0-.063-.002c-.441 0-.727.201-.786.544l-.563.327a1.029 1.029 0 0 0-.12-.007c-.323 0-.553.132-.588.336-.013.072-.01.231.2.356a.727.727 0 0 0 .107.487c.132.204.367.34.719.415l.08.165a.197.197 0 0 0 .162.111.194.194 0 0 0-.077.127l-.027.16-.171.096a.194.194 0 0 0-.1.14c-.01.06.008.121.05.165l.162.177.007.079c.01.161.023.355.176.548-.03-.002-.059-.004-.089-.004-.271 0-.533.108-.774.32a.603.603 0 0 1-.307.102c-.154 0-.242-.098-.247-.191-.006-.111.116-.194.319-.216a.196.196 0 0 0 .121-.332c-.224-.233-.45-.281-.6-.282-.301 0-.59.199-.734.507a.958.958 0 0 0-.038.726c-.408.037-.678.193-.805.464-.494.177-.829.442-.995.788-.175.363-.163.812.032 1.335a.2.2 0 0 0 .183.128h.003c.08 0 .152-.049.181-.123.316-.771.747-1.131 1.356-1.131.035 0 .07.002.106.004-.14.335.085.745.26 1.065l.069.124c.245.368.15.723.037 1.134a9.59 9.59 0 0 0-.072.28.199.199 0 0 0 .194.241.196.196 0 0 0 .12-.042l.106-.079c.205-.154.424-.318.557-.611.005.14 0 .285-.01.437a.2.2 0 0 0 .197.209.19.19 0 0 0 .103-.03c.353-.216.573-.563.66-1.034.013.119.02.244.026.373a.196.196 0 0 0 .197.188c.05 0 .1-.019.138-.056a1.11 1.11 0 0 0 .322-.545c.102.121.214.222.32.32.444.332.408.576.36.913a2.69 2.69 0 0 0-.031.283.194.194 0 0 0 .113.186.196.196 0 0 0 .216-.032c.277-.25.418-.59.486-.962a.195.195 0 0 0 .167.091.192.192 0 0 0 .168-.097c.133-.234.18-.48.182-.714.221.167.451.249.695.249.348 0 .67-.169.928-.305a.198.198 0 0 0 .101-.217.196.196 0 0 0-.183-.154c-.564-.029-.91-.158-1-.374-.158-.374.367-1.061.697-1.449.347.446.813.684 1.386.708l.01.001a.198.198 0 0 0 .178-.114.2.2 0 0 0-.033-.216c-.508-.558-.642-.975-.446-1.392.5-.67.582-1.302.234-1.865.21-.075.378-.258.507-.553a.196.196 0 0 0-.137-.271 2.446 2.446 0 0 0-.246-.039c-.31-.037-.45-.065-.518-.347-.139-.385-.31-.756-.644-1.006.111-.279.173-.52.063-.686a.328.328 0 0 0-.287-.143z" fill="#000"/><path d="M11.243 4.8c-.419-.031-.698.117-.708.463l-.707.41c-.484-.077-.79.205-.328.367-.113.436.098.734.738.843l.123.253.103-.295c1.013.042.825.55.8.997l-.667-.112-.133-.234-.04.253-.257.143.205.223c.036.23-.019.46.246.69.002-.165.048-.262.133-.293.25-.083.246-.197.287-.305l.646.366c.197.427-.443 1.033-.923.588-.258-.149-.674-.265-1.127.133-.82.544-1.299-.551-.387-.65-.639-.667-1.463.326-.898 1.005-.496-.02-.872.075-.986.431-1.028.333-1.267.994-.928 1.896.374-.913.974-1.44 2.03-1.191-.462.282-.135.768.116 1.234.347.518.103 1.034-.015 1.551.394-.307.853-.523.667-1.666.32.527.336 1.053.304 1.58.501-.308.681-.918.58-1.795.344.345.385.814.406 1.292.213-.207.387-.484.276-1.277.071.525.353.788.638 1.048.653.488.41.91.391 1.35.45-.407.501-1.098.464-1.853.338.383.327.658.32.934.204-.36.18-.764.086-1.178.67.897 1.235.627 1.798.33-2.165-.11-.906-1.627-.276-2.34.297.488.726.805 1.377.832-.458-.503-.752-1.024-.478-1.609.602-.812.518-1.438.03-1.953.257.046.505.005.71-.46-.352-.078-.78.01-.914-.53-.144-.399-.323-.768-.696-.978.24-.564.38-1.04-.71-.402l-2.29-.1-.006.01z" fill="#FC0000"/><path d="M7.945 6.285c-.092.1-.13.247-.116.44.262.854 1.067.963 1.821.963.183 0 .371-.006.56-.013.184-.006.368-.012.546-.012.141 0 .278.004.41.015l.017.001a.2.2 0 0 0 .197-.21l-.01-.153a.197.197 0 0 0-.189-.184 5.516 5.516 0 0 0-.226-.005c-.192 0-.395.01-.599.017-.199.01-.397.017-.583.017-.472 0-.745-.06-.813-.179a.905.905 0 0 0-.27-.586c-.21-.212-.54-.33-.745-.11" fill="#000"/><path d="M11.173 7.33c-.894-.04-2.228.218-2.41-.306.007-.543-.79-.998-.737-.314.353 1.128 1.979.671 3.157.771l-.01-.151z" fill="#FC0000"/><path d="M5.054 5.02c-.038-.016-.095-.07-.095-.09 0-.033-.059-.2-.094-.263a.508.508 0 0 0-.27-.248.42.42 0 0 0-.168-.028.988.988 0 0 0-.157.005c-.026.006-.048.008-.05.006a.62.62 0 0 1 .141-.137.706.706 0 0 1 .874.023c.097.08.21.222.231.289a.453.453 0 0 1 .008.18.368.368 0 0 1-.188.235.243.243 0 0 1-.132.036.269.269 0 0 1-.1-.008zm1.871.127a.552.552 0 0 1-.153-.064c-.076-.052-.128-.138-.128-.213 0-.058.017-.09.067-.13.07-.055.16-.153.201-.22.116-.185.105-.381-.033-.583a.452.452 0 0 1-.036-.058.732.732 0 0 1 .512.402.571.571 0 0 1 .053.302.898.898 0 0 1-.128.409c-.063.109-.222.178-.355.155zM4.053 6.856a.677.677 0 0 1-.07-.277c-.018-.37.203-.633.62-.735a.266.266 0 0 1 .131-.01.368.368 0 0 1 .275.208c.054.122.036.263-.042.336a.147.147 0 0 1-.144.043 1.346 1.346 0 0 0-.162-.01.583.583 0 0 0-.306.064.557.557 0 0 0-.259.362.386.386 0 0 1-.017.058c-.002.002-.014-.016-.026-.04zm1.028 1.487a.701.701 0 0 1-.52-.418.614.614 0 0 1-.05-.177.468.468 0 0 1 .071.048c.265.194.535.156.804-.114.054-.055.078-.067.131-.067.114 0 .227.105.264.246a.345.345 0 0 1-.189.396.933.933 0 0 1-.51.086zm-1.585 5.456c-.065-.025-.09-.058-.112-.141a.962.962 0 0 0-.135-.295.503.503 0 0 0-.212-.161.657.657 0 0 0-.342-.023l-.038.005.043-.048a.73.73 0 0 1 .485-.23c.26-.017.484.106.678.37a.33.33 0 0 1 .056.21.36.36 0 0 1-.268.317.207.207 0 0 1-.155-.005zm2.944 1.709c.252-.22.272-.482.06-.792-.044-.064-.05-.08-.05-.114 0-.15.197-.272.383-.237a.352.352 0 0 1 .211.129c.047.056.05.062.07.154.025.124.028.298.005.39a.648.648 0 0 1-.213.349.722.722 0 0 1-.432.17l-.098.006.064-.056zm-3.594.113a.78.78 0 0 1-.04-.443c.068-.301.302-.494.668-.55a.348.348 0 0 1 .375.21.279.279 0 0 1 .025.14c0 .073-.003.089-.023.13a.202.202 0 0 1-.113.112c-.036.015-.042.015-.108-.001a1.212 1.212 0 0 0-.352-.015c-.193.037-.336.177-.404.397l-.014.047-.014-.028zm2.283.788a.674.674 0 0 1-.522-.5c-.034-.137-.025-.374.02-.463a.375.375 0 0 1 .16-.158.404.404 0 0 1 .271-.022c.098.032.172.1.191.174.012.048.007.07-.029.132-.104.178-.142.335-.115.475a.568.568 0 0 0 .225.324c.034.025.06.048.057.05-.01.013-.188.004-.258-.012zm1.822 3.62c-.044-.024-.048-.03-.094-.128a.751.751 0 0 0-.158-.246.478.478 0 0 0-.185-.12.638.638 0 0 0-.345-.004c-.04.01-.075.02-.08.02-.013 0 .047-.084.1-.136a.753.753 0 0 1 .342-.2.748.748 0 0 1 .326-.004.958.958 0 0 1 .414.25c.081.082.101.13.101.244 0 .074-.003.09-.024.138a.352.352 0 0 1-.285.209c-.06.004-.07.002-.112-.022zm9.083.687a.114.114 0 0 1-.08-.042c-.218-.22-.472-.283-.694-.175a.83.83 0 0 0-.175.123l-.023.024v-.023a.716.716 0 0 1 .37-.544.574.574 0 0 1 .328-.074c.135 0 .22.018.355.07a.338.338 0 0 1 .214.264.378.378 0 0 1-.083.288c-.062.072-.132.1-.212.089zm-10.552.324a.737.737 0 0 1 .25-.604.78.78 0 0 1 .256-.13c.154-.042.41-.032.503.02.11.06.176.163.185.282.012.167-.096.324-.225.324-.034 0-.06-.01-.13-.046-.166-.087-.319-.12-.45-.094a.613.613 0 0 0-.356.256l-.026.037-.007-.045zm9.624 1.145a.756.756 0 0 1-.069-.116c-.185-.39-.025-.778.401-.973.087-.04.125-.046.204-.034.122.019.22.09.271.198a.271.271 0 0 1 .032.134c.005.087-.01.13-.062.18-.035.033-.035.033-.167.047-.31.032-.49.168-.548.415a.677.677 0 0 0-.014.098.591.591 0 0 1-.006.07l-.005.028-.037-.047zm4.042.04a.727.727 0 0 0 .11-.264.49.49 0 0 0-.09-.35 1.09 1.09 0 0 0-.19-.195.154.154 0 0 1-.069-.137c0-.161.216-.31.401-.273.062.012.13.044.175.08.056.048.13.19.17.335a.74.74 0 0 1 .004.359.721.721 0 0 1-.464.475c-.083.028-.086.026-.047-.03zm-12.056.305a.755.755 0 0 1-.345-.465.85.85 0 0 1 0-.252.94.94 0 0 1 .243-.435.365.365 0 0 1 .327-.092c.193.049.322.247.255.39-.02.045-.026.05-.102.085a.7.7 0 0 0-.354.32.317.317 0 0 0-.036.152.607.607 0 0 0 .038.254c.012.033.02.06.018.063-.002.002-.022-.007-.045-.02h.001zm1.672.082l-.03-.007.063-.044c.26-.185.316-.418.178-.72a1.206 1.206 0 0 0-.05-.1c-.025-.038-.024-.1.003-.15.077-.145.318-.187.48-.084.044.028.106.1.131.153.018.038.02.052.02.209.001.18-.004.213-.049.326a.69.69 0 0 1-.627.42.663.663 0 0 1-.119-.003zm8.535.29a.703.703 0 0 1-.549-.507c-.038-.154-.003-.432.07-.552a.392.392 0 0 1 .184-.14.301.301 0 0 1 .138-.014.331.331 0 0 1 .201.072.216.216 0 0 1 .098.178c0 .05-.002.054-.052.117-.128.159-.185.29-.185.428-.002.128.05.242.158.36l.067.074-.032-.002a.892.892 0 0 1-.098-.013zM10.83 5.255s.705.04.82.518l-.82.058s-.154-.237 0-.577" fill="#000"/></g></svg>