<svg width="36" height="26" viewBox="0 0 36 26" xmlns="http://www.w3.org/2000/svg"><title>US-AR</title><g fill="none" fill-rule="evenodd"><path d="M32 26H4a4 4 0 0 1-4-4V4a4 4 0 0 1 4-4h28a4 4 0 0 1 4 4v18a4 4 0 0 1-4 4" fill="#BF0930"/><path fill="#EEE" d="M18 22.4L4.4 13 18 3.6 31.6 13z"/><path d="M7.294 13L18 20.4 28.706 13 18 5.6 7.294 13zM18 23.858L2.29 13 18 2.141 33.71 13 18 23.858z" fill="#002868"/><path fill-opacity=".5" fill="#002868" d="M12 11h12v2H12z"/><path fill="#002868" d="M18 6.382l.4 1.23h1.292l-1.046.759.4 1.229L18 8.84l-1.046.76.4-1.23-1.046-.759h1.293zm3.2 7.188l.4 1.23h1.292l-1.046.76.4 1.229-1.046-.76-1.046.76.4-1.23-1.046-.759h1.293zm-6.4 0l-.4 1.23h-1.292l1.046.76-.4 1.229 1.046-.76 1.046.76-.4-1.23 1.046-.759h-1.293zm3.2 6.448l-.4-1.23h-1.292l1.046-.759-.4-1.229 1.046.76 1.046-.76-.4 1.23 1.046.759h-1.293z"/><path d="M5.2 13.002a.6.6 0 1 1-1.2-.004.6.6 0 0 1 1.2.004zm2.233-1.533a.6.6 0 1 1-1.2-.005.6.6 0 0 1 1.2.005zm2.234-1.533a.6.6 0 1 1-1.2-.005.6.6 0 0 1 1.2.005zM11.9 8.402a.6.6 0 1 1-1.2-.004.6.6 0 0 1 1.2.004zm2.233-1.533a.6.6 0 1 1-1.2-.005.6.6 0 0 1 1.2.005zm2.234-1.533a.6.6 0 1 1-1.2-.005.6.6 0 0 1 1.2.005zM30.8 13.002a.6.6 0 1 0 1.2-.004.6.6 0 0 0-1.2.004zm-2.233-1.533a.6.6 0 1 0 1.2-.005.6.6 0 0 0-1.2.005zm-2.234-1.533a.6.6 0 1 0 1.2-.005.6.6 0 0 0-1.2.005zM24.1 8.402a.6.6 0 1 0 1.2-.004.6.6 0 0 0-1.2.004zM21.867 6.87a.6.6 0 1 0 1.2-.005.6.6 0 0 0-1.2.005zm-2.234-1.533a.6.6 0 1 0 1.2-.005.6.6 0 0 0-1.2.005zM18.6 3.802a.6.6 0 1 1-1.2-.004.6.6 0 0 1 1.2.004zM7.433 14.531a.6.6 0 1 0-1.2.005.6.6 0 0 0 1.2-.005zm2.234 1.533a.6.6 0 1 0-1.2.005.6.6 0 0 0 1.2-.005zm2.233 1.534a.6.6 0 1 0-1.2.004.6.6 0 0 0 1.2-.004zm2.233 1.533a.6.6 0 1 0-1.2.005.6.6 0 0 0 1.2-.005zm2.234 1.533a.6.6 0 1 0-1.2.005.6.6 0 0 0 1.2-.005zm12.2-6.133a.6.6 0 1 1 1.2.005.6.6 0 0 1-1.2-.005zm-2.234 1.533a.6.6 0 1 1 1.2.005.6.6 0 0 1-1.2-.005zM24.1 17.598a.6.6 0 1 1 1.2.004.6.6 0 0 1-1.2-.004zm-2.233 1.533a.6.6 0 1 1 1.2.005.6.6 0 0 1-1.2-.005zm-2.234 1.533a.6.6 0 1 1 1.2.005.6.6 0 0 1-1.2-.005zM18.6 22.198a.6.6 0 1 0-1.2.004.6.6 0 0 0 1.2-.004z" fill="#EEE"/></g></svg>