<svg width="36" height="26" viewBox="0 0 36 26" xmlns="http://www.w3.org/2000/svg" xmlns:xlink="http://www.w3.org/1999/xlink"><title>US-AZ</title><defs><rect id="a" width="36" height="26" rx="4"/><mask id="b" x="0" y="0" width="36" height="26" fill="#fff"><use xlink:href="#a"/></mask></defs><g fill="none" fill-rule="evenodd"><mask id="c" fill="#fff"><use xlink:href="#a"/></mask><use mask="url(#b)" xlink:href="#a" stroke="#979797" stroke-width="2" fill="#D8D8D8"/><path fill="#F8E81C" mask="url(#c)" d="M0 0h36v13H0z"/><path d="M32.904 0L18 13l18-9.302V0h-3.096zm-9.895 0L18 13l9.114-13H23.01zm-6.615 0L18 13l1.6-13h-3.206zM8.886 0L18 13 12.99 0H8.887zM0 0v3.698L18 13 0 8.632V13h18L3.096 0H0zm18 13h18V8.632L18 13z" fill="#CF1B2B" mask="url(#c)"/><path fill="#00247D" mask="url(#c)" d="M0 13h36v13H0z"/><path fill="#FF7900" mask="url(#c)" d="M18 6.012l1.694 5.215h5.484l-4.436 3.222 1.694 5.215L18 16.441l-4.436 3.223 1.694-5.215-4.436-3.222h5.484z"/></g></svg>