<svg width="36" height="26" viewBox="0 0 36 26" xmlns="http://www.w3.org/2000/svg"><title>US-AK</title><g fill="none" fill-rule="evenodd"><path d="M32 26H4a4 4 0 0 1-4-4V4a4 4 0 0 1 4-4h28a4 4 0 0 1 4 4v18a4 4 0 0 1-4 4" fill="#00247D"/><path fill="#FFB200" d="M16.307 18.423l.336 1.034h1.088l-.88.64.336 1.034-.88-.64-.88.64.336-1.034-.88-.64h1.088zm5.771 2.154l.336 1.035h1.088l-.88.64.336 1.034-.88-.64-.88.64.336-1.035-.88-.64h1.088zM24.5 16.43l.336 1.034h1.088l-.88.64.336 1.034-.88-.639-.88.64.336-1.035-.88-.64h1.088zm-7.952-2.222l.336 1.035h1.088l-.88.64.336 1.034-.88-.64-.88.64.336-1.035-.88-.64h1.088zm-2.688-3.275l.336 1.035h1.088l-.88.64.336 1.034-.88-.64-.88.64.336-1.035-.88-.64h1.088zm-2.848-2.154l.336 1.034h1.088l-.88.64.336 1.034-.88-.64-.88.64.336-1.034-.88-.64h1.088zM5.606 7.216l.336 1.035H7.03l-.88.64.336 1.034-.88-.64-.88.64.336-1.035-.88-.64H5.27zM29 7.14l-1.763 1.287.679-2.075-1.77-1.28 2.184.006L29 3l.67 2.078 2.183-.005-1.769 1.28.68 2.074z"/></g></svg>