<svg width="36" height="26" viewBox="0 0 36 26" xmlns="http://www.w3.org/2000/svg" xmlns:xlink="http://www.w3.org/1999/xlink"><title>US-CA</title><defs><rect id="a" width="36" height="26" rx="4"/></defs><g fill="none" fill-rule="evenodd"><mask id="b" fill="#fff"><use xlink:href="#a"/></mask><use fill="#F1F1F2" xlink:href="#a"/><path fill="#CF1B2B" mask="url(#b)" d="M0 20h36v6H0zM6.006 2.1l.73 2.246h2.361l-1.91 1.388.73 2.246-1.91-1.388L4.095 7.98l.73-2.246-1.911-1.388h2.361z"/><path d="M30.34 17.713a.451.451 0 0 1-.325.113c-.258 0-.438-.194-.438-.5 0-.313.178-.502.448-.502.106 0 .19.028.284.094a.424.424 0 0 0 .203-.294.774.774 0 0 0-.497-.156c-.496 0-.845.356-.845.858s.319.85.83.85c.286 0 .447-.085.542-.162a.387.387 0 0 0-.203-.301zm-1.79-1.19v1.609a1.255 1.255 0 0 0 .374 0v-1.608a.986.986 0 0 0-.19-.016.874.874 0 0 0-.184.016zm-.88 1.272v-1.274a1.146 1.146 0 0 0-.19-.017 1.12 1.12 0 0 0-.185.017v1.61h1.036a.727.727 0 0 0 .018-.167.744.744 0 0 0-.018-.169h-.662zm-.998-.13c0-.126-.087-.2-.268-.2h-.21v.403c.062.005.125.008.195.008.198 0 .283-.07.283-.21zm-.479-.494h.19c.169 0 .232-.068.232-.193 0-.11-.08-.178-.246-.178-.053 0-.113.002-.176.007v.364zm.858.514c0 .299-.206.492-.7.492-.2 0-.386-.018-.532-.045v-1.583c.146-.03.334-.05.522-.05.46 0 .64.175.64.461 0 .19-.083.294-.208.349.168.06.278.18.278.376zm-1.912-1.161v.958c0 .218-.118.346-.322.346-.203 0-.323-.128-.323-.346v-.958a1.25 1.25 0 0 0-.377 0v.963c0 .454.276.69.698.69.404 0 .69-.254.69-.7v-.953a1.239 1.239 0 0 0-.188-.016c-.063 0-.12.006-.178.016zm-1.604.519c0-.15-.103-.246-.326-.246-.06 0-.118.003-.174.007v.51c.056.002.113.002.176.002.234 0 .324-.12.324-.273zm.384-.005c0 .386-.276.602-.708.602-.06 0-.118 0-.176-.002v.494a.92.92 0 0 1-.185.015c-.063 0-.123-.003-.19-.015v-1.598a2.59 2.59 0 0 1 .534-.056c.521 0 .725.224.725.56zm-2.246.76v-.324h.614a.729.729 0 0 0 0-.328h-.614v-.292h.69a.614.614 0 0 0 .02-.165.62.62 0 0 0-.02-.168h-1.064v1.61h1.088a.774.774 0 0 0 0-.333h-.714zm-1.05-.765c0-.138-.09-.223-.276-.223-.067 0-.13.002-.196.007v.45c.068.002.136.002.198.002.196 0 .274-.106.274-.236zm.095.461l.377.62a1.33 1.33 0 0 1-.316.03c-.033 0-.068 0-.096-.002l-.33-.565h-.018c-.058 0-.12 0-.184-.003v.558a.92.92 0 0 1-.185.015c-.063 0-.123-.003-.19-.015v-1.586a2.89 2.89 0 0 1 .541-.052c.487 0 .688.203.688.516a.515.515 0 0 1-.287.484zm-2.178.008l-.135-.371-.05-.156-.046.156-.135.371h.366zm.013-.98l.596 1.592a.873.873 0 0 1-.379.018l-.115-.32h-.597l-.115.32c-.055.007-.116.01-.17.01a.601.601 0 0 1-.199-.028l.602-1.593a.983.983 0 0 1 .193-.015c.066 0 .12.002.184.015zm-1.516.002v1.608a1.25 1.25 0 0 0 .374 0v-1.608a.987.987 0 0 0-.19-.016.872.872 0 0 0-.184.016zm-.706 0v.893l.01.127-.055-.097-.62-.936a.952.952 0 0 0-.358.025v1.596a1.202 1.202 0 0 0 .371 0v-.884l-.01-.115.053.095.622.916c.11.008.238.003.359-.02v-1.6a1.13 1.13 0 0 0-.372 0zm-1.7.509c0-.138-.09-.223-.275-.223-.068 0-.13.002-.196.007v.45c.068.002.136.002.199.002.195 0 .273-.106.273-.236zm.096.461l.376.62a1.31 1.31 0 0 1-.316.03c-.032 0-.067 0-.095-.002l-.33-.565h-.019c-.057 0-.12 0-.183-.003v.558a.92.92 0 0 1-.185.015 1.02 1.02 0 0 1-.19-.015v-1.586a2.91 2.91 0 0 1 .54-.052c.488 0 .688.203.688.516a.516.516 0 0 1-.286.484zm-1.594-.17c0-.309-.173-.502-.438-.502-.266 0-.44.193-.44.502 0 .3.174.499.44.499.265 0 .438-.198.438-.5zm.407 0c0 .499-.354.853-.845.853-.492 0-.846-.341-.846-.853 0-.504.354-.856.846-.856.491 0 .845.339.845.856zm-2.878-.803v1.61c.063.01.123.018.185.018.063 0 .126-.007.188-.017v-.567h.605a.751.751 0 0 0 .015-.166.747.747 0 0 0-.015-.165h-.605v-.374h.678a.796.796 0 0 0 0-.339h-1.051zm-.708.003v1.608a1.241 1.241 0 0 0 .374 0v-1.608a.99.99 0 0 0-.19-.016.866.866 0 0 0-.184.016zm-.881 1.271v-1.274a1.15 1.15 0 0 0-.188-.017 1.12 1.12 0 0 0-.186.017v1.61h1.036a.774.774 0 0 0 0-.336h-.662zm-1.155-.293l-.136-.371-.05-.156-.045.156-.135.371h.366zm.013-.98l.596 1.592a.868.868 0 0 1-.379.018l-.115-.32h-.597l-.115.32c-.055.007-.116.01-.17.01a.601.601 0 0 1-.199-.028l.602-1.593a.983.983 0 0 1 .193-.015c.066 0 .12.002.184.015zm-1.007 1.492c-.096.077-.256.163-.542.163-.512 0-.83-.349-.83-.85 0-.503.348-.859.845-.859.226 0 .389.068.496.156a.421.421 0 0 1-.203.294.462.462 0 0 0-.283-.094c-.27 0-.45.189-.45.502 0 .306.182.5.44.5a.451.451 0 0 0 .324-.113.387.387 0 0 1 .203.3z" fill="#594529" mask="url(#b)"/><g mask="url(#b)"><path d="M6.835 14.6c0-2.804 22.636-2.804 22.636 0H6.835z" fill="#008542"/><path d="M25.104 8.29c.465 1.633-.655 2.394-1.781 3.074.323.756.863 1.079 1.617.971l.324.324c-.54.054-.863.215-.97.485.044.536 1.986.374 1.94-.162v-.809c-.352-.744-.628-1.646-.808-2.75a6.685 6.685 0 0 0-.322-1.132m-8.576 2.749l1.456 1.457c-.487-.021-.824.121-.809.647h1.294l.81-.97-.486-1.457c-.857-.233-1.76-.817-1.76-.817s-.083.45-.505 1.14" fill="#3D2D1A"/><path d="M25.104 8.29c-.916-2.357-3.053-3.067-6.311-2.264-1.865-.91-3.473-.954-4.692.323-.6.062-1.159.304-1.617.971-.3-.478-.58-.551-.81.324-.43-.54-.646-.432-.646.323-.524.329-.897.677-.486 1.133l-.809.97.647.486.81-.486-.486.81.324.16c.646-.43 1.078-.43 1.294 0 .53-.647 1.213-1.054 2.103-1.132-.162.971-.647 1.942-1.456 2.912-.54.054-.863.216-.97.486.623.39 1.351.472 2.264 0a11.268 11.268 0 0 0 2.265-2.265c.422-.691.505-1.141.505-1.141s.903.584 1.76.817c0 0 .546.162 1.456.162 0 .546 0 1.092.162 1.618l-.162.323s-.708-.141-.97.324c0 .432 2.102.432 2.102 0 .502-.784 1.166-1.355 1.942-1.78 1.126-.68 2.246-1.44 1.78-3.073" fill="#594529"/></g></g></svg>