<svg width="36" height="26" viewBox="0 0 36 26" xmlns="http://www.w3.org/2000/svg" xmlns:xlink="http://www.w3.org/1999/xlink"><title>US-CT</title><defs><path id="a" d="M0 26h36V0H0z"/></defs><g fill="none" fill-rule="evenodd"><path d="M32 26H4a4 4 0 0 1-4-4V4a4 4 0 0 1 4-4h28a4 4 0 0 1 4 4v18a4 4 0 0 1-4 4z" fill="#00247D"/><path d="M17.887 17.29c-1.758-1.757-3.237-2.275-4.426-2.69a27.32 27.32 0 0 1-.532-.19c-.71-.267-1.607-.908-1.998-1.91-.327-.837-.247-1.748.239-2.709.987-1.957 1.358-3.111.597-3.835l-.148.149a.666.666 0 0 1-.477.207.745.745 0 0 1-.678-.477.628.628 0 0 1 .182-.709l2.7-2.7a.697.697 0 0 1 .499-.22c.266 0 .522.168.637.419a.665.665 0 0 1-.112.725c-.016.02-.064.068-.163.167.306.359.654.534 1.059.534.49 0 1.071-.263 1.727-.78l.043-.035h1.926l.044.034c.656.518 1.237.78 1.727.78.405 0 .753-.174 1.059-.533a4.692 4.692 0 0 1-.164-.167.663.663 0 0 1-.104-.724.72.72 0 0 1 .635-.424c.176 0 .343.073.481.212.549.548 1.008.999 1.376 1.36.782.77 1.214 1.192 1.412 1.48.239.347.167.563-.025.799a.885.885 0 0 1-.047.052.654.654 0 0 1-.467.213c-.285 0-.52-.212-.661-.358-.756.723-.385 1.877.601 3.831.485.96.565 1.872.239 2.708-.392 1.003-1.289 1.644-1.998 1.91-.17.064-.346.125-.532.19-1.189.416-2.668.934-4.426 2.69l-.113.113-.112-.113z" fill="#F1F2F2"/><path d="M24.271 5.02c-.55.303-.901.696-1.075 1.2-.377 1.089.216 2.413.97 3.906.386.764.456 1.472.21 2.103-.303.775-1.008 1.275-1.568 1.484-.16.061-.332.12-.512.184l-.003.001c-1.161.406-2.597.908-4.294 2.47-1.697-1.562-3.132-2.064-4.293-2.47l-.003-.001a22.103 22.103 0 0 1-.513-.184c-.56-.21-1.264-.71-1.567-1.484-.247-.631-.176-1.339.21-2.103.753-1.493 1.347-2.817.97-3.906-.221-.638-.737-1.108-1.591-1.435l-.205.206c.837.296 1.34.722 1.545 1.316.343.99-.23 2.261-.956 3.7-.421.834-.495 1.614-.22 2.318.334.856 1.108 1.407 1.72 1.637.166.062.339.123.522.187 1.184.414 2.646.925 4.381 2.582 1.736-1.657 3.197-2.168 4.381-2.582.184-.064.357-.125.522-.187.613-.23 1.386-.78 1.72-1.637.276-.704.202-1.484-.22-2.318-.725-1.439-1.298-2.71-.956-3.7.206-.594.71-1.02 1.546-1.316l-.207-.207c-.188.071-.36.15-.514.235" fill="#FFB200"/><path d="M13.025 2.973c.192.442.415.806.669 1.087.439.487.968.734 1.571.734.626 0 1.289-.266 2.025-.815h1.419c.736.549 1.399.815 2.025.815.605 0 1.135-.248 1.575-.738.252-.28.474-.644.665-1.083l-.202-.203c-.48 1.166-1.168 1.759-2.038 1.759-.585 0-1.22-.267-1.936-.815H17.2c-.717.548-1.35.815-1.936.815-.87 0-1.558-.593-2.038-1.759l-.202.203z" fill="#FFB200"/><path d="M25.513 16.816c-.27-.678 2.903-1.94 3.173-1.262l.985 2.127c-.27-.678-3.444.585-3.174 1.263l-.984-2.128z" fill="#F1F2F2"/><path d="M26.497 18.944c.208.48 1.232-.532 1.428 0l-.984-2.128c-.197-.532-1.22.48-1.428 0l.984 2.128zm1.097-2.471c-.15-.501 1.284-.386 1.092-.92l.985 2.128c.192.534-1.243.418-1.093.92l-.984-2.128z" fill="#B2B2B2"/><path d="M29.664 16.343c-1.324.604-1.874.427-2.07.13l.984 2.128c.197.296.747.474 2.07-.13.883-.403 1.87-.819 3.151-1.086l-1.765-.67.781-1.457c-1.282.267-2.269.682-3.15 1.085m-1.74 2.601l-.984-2.128c.04.354-.266.844-1.669 1.234-.934.26-1.958.579-3.11 1.2-.542.26-.738.668-.693.954l.692 2.637s.087-1.017.943-1.44c1.17-.637 2.207-.96 3.153-1.223 1.402-.39 1.709-.88 1.668-1.234" fill="#F1F2F2"/><path d="M21.469 20.204c.043.27.303.432.692.255.801-.364 1.627-.139 1.4.447l-.9 2.443c.185-.705-.387-.543-.5-.508l-.692-2.637z" fill="#B2B2B2"/><path d="M11.822 16.55c.271-.74-.99-.671-.99-.671-1.167 0-1.944-.299-2.945-.299-1 0-2.04.325-4.589-.38l.886 1.515-1.784.928c2.547.705 3.588.38 4.588.38 1.001 0 1.778.298 2.944.298 0 0 1.262-.068.99.672l.9-2.442z" fill="#F1F2F2"/><path d="M11.822 16.55c-.353.958-2.347-.319-2.6.365l-.898 2.442c.252-.683 2.246.593 2.599-.364l.899-2.442z" fill="#B2B2B2"/><path d="M8.324 19.358c0 .514.35 1.184 2.864 1.184s3.15.266 2.916.94l.9-2.442c.234-.674-.403-.94-2.918-.94-2.514 0-2.863-.67-2.863-1.185l-.9 2.443z" fill="#F1F2F2"/><path d="M15.003 19.04c-.326.673-1.916-.373-2.193.296l-.899 2.442c.277-.669 1.866.378 2.193-.296l.9-2.442z" fill="#B2B2B2"/><path d="M12.81 19.336c-.092.53.623.97 1.594.97 3.977 0 5.104.697 6.457 1.188 1.354.49 1.935.474 2.7-.587l-.899 2.442c-.765 1.061-1.346 1.078-2.7.588-1.354-.492-2.48-1.188-6.457-1.188-.971 0-1.686-.44-1.594-.97l.899-2.443z" fill="#F1F2F2"/><path d="M18 4.4c.933-.934.933-1.867 0-2.8-.933.933-.933 1.866 0 2.8" fill="#008542"/><path d="M18 4.4c-.045-1.32-.727-1.956-2.046-1.912C16 3.808 16.681 4.444 18 4.4m0 0c.045-1.32.727-1.956 2.046-1.912C20 3.808 19.319 4.444 18 4.4m-5.753 4.9c-.634-1.158-1.53-1.42-2.688-.785.635 1.157 1.53 1.419 2.688.784" fill="#008542"/><path d="M12.247 9.3c-1.279-.327-2.081.15-2.408 1.428 1.28.326 2.082-.15 2.408-1.429" fill="#008542"/><path d="M12.247 9.3c-1.254-.413-1.674-1.246-1.262-2.5 1.254.412 1.674 1.246 1.262 2.5m2.466 4.84c-1.267.369-1.716 1.186-1.348 2.454 1.267-.369 1.717-1.187 1.348-2.454" fill="#008542"/><path d="M14.713 14.14c-.595 1.177-.305 2.064.873 2.66.596-1.178.305-2.065-.873-2.66" fill="#008542"/><path d="M14.713 14.14c-.674 1.134-1.579 1.364-2.713.69.674-1.135 1.579-1.365 2.713-.69m9.04-4.84c.634-1.158 1.53-1.42 2.688-.785-.635 1.157-1.53 1.419-2.688.784" fill="#008542"/><path d="M23.753 9.3c1.279-.327 2.081.15 2.408 1.428-1.28.326-2.082-.15-2.408-1.429" fill="#008542"/><path d="M23.753 9.3c1.254-.413 1.674-1.246 1.262-2.5-1.254.412-1.674 1.246-1.262 2.5m-2.466 4.84c1.267.369 1.716 1.186 1.348 2.454-1.267-.369-1.717-1.187-1.348-2.454" fill="#008542"/><path d="M21.287 14.14c.595 1.177.305 2.064-.873 2.66-.596-1.178-.305-2.065.873-2.66m0 0c.674 1.134 1.579 1.364 2.713.69-.674-1.135-1.579-1.365-2.713-.69" fill="#008542"/><mask id="b" fill="#fff"><use xlink:href="#a"/></mask><path fill="#7C2525" mask="url(#b)" d="M16.8 14.1h2.4v-.5h-2.4z"/><path fill="#7C2525" mask="url(#b)" d="M18 13.657h.5V9.543H18z"/><path d="M18 13.47c-.778 0-1.185-.51-1.185-1.013 0-.504.407-1.013 1.185-1.013.6 0 .872-.364.872-.701 0-.338-.273-.7-.872-.7v-.314c.778 0 1.185.51 1.185 1.014 0 .503-.407 1.013-1.185 1.013-.6 0-.872.364-.872.701 0 .338.273.7.872.7v.314z" fill="#7C2525" mask="url(#b)"/><path d="M17.143 9.714a.515.515 0 1 0 1.029 0 .515.515 0 0 0-1.03 0m.001 3.429a.515.515 0 1 0 1.029 0 .515.515 0 0 0-1.03 0m.687-1.714a.515.515 0 1 0 1.029 0 .515.515 0 0 0-1.03 0" fill="#008542" mask="url(#b)"/><path fill="#7C2525" mask="url(#b)" d="M13.6 10.9H16v-.5h-2.4z"/><path fill="#7C2525" mask="url(#b)" d="M14.8 10.457h.5V6.343h-.5z"/><path d="M14.8 10.27c-.778 0-1.185-.51-1.185-1.013 0-.504.407-1.013 1.185-1.013.6 0 .872-.364.872-.701 0-.338-.273-.7-.872-.7v-.314c.778 0 1.185.51 1.185 1.014 0 .503-.407 1.013-1.185 1.013-.6 0-.872.364-.872.701 0 .338.273.7.872.7v.314z" fill="#7C2525" mask="url(#b)"/><path d="M13.943 6.514a.515.515 0 1 0 1.029 0 .515.515 0 0 0-1.03 0m.001 3.429a.515.515 0 1 0 1.029 0 .515.515 0 0 0-1.03 0m.687-1.714a.515.515 0 1 0 1.029 0 .515.515 0 0 0-1.03 0" fill="#38A138" mask="url(#b)"/><path fill="#7C2525" mask="url(#b)" d="M20 10.9h2.4v-.5H20z"/><path fill="#7C2525" mask="url(#b)" d="M21.2 10.457h.5V6.343h-.5z"/><path d="M21.2 10.27c-.778 0-1.185-.51-1.185-1.013 0-.504.407-1.013 1.185-1.013.6 0 .872-.364.872-.701 0-.338-.273-.7-.872-.7v-.314c.778 0 1.185.51 1.185 1.014 0 .503-.407 1.013-1.185 1.013-.6 0-.872.364-.872.701 0 .338.273.7.872.7v.314z" fill="#7C2525" mask="url(#b)"/><path d="M20.343 6.514a.515.515 0 1 0 1.029 0 .515.515 0 0 0-1.03 0m.001 3.429a.515.515 0 1 0 1.029 0 .515.515 0 0 0-1.03 0m.687-1.714a.515.515 0 1 0 1.029 0 .515.515 0 0 0-1.03 0" fill="#38A138" mask="url(#b)"/><path d="M26.606 19.329l-.217-.77c-1.028.29-2.863 1.04-2.94 1.07l.302.742c.019-.008 1.87-.764 2.855-1.042zm-5.614 3.12c-.661-.361-2.729-1.128-4.159-1.247a20.471 20.471 0 0 0-1.453-.048c-.902-.009-2.025-.02-2.329-.265l-.503.622c.52.42 1.588.431 2.824.443.481.005.978.01 1.395.045 1.266.105 3.207.806 3.841 1.152l.384-.702zm-9.111-2.54a8.062 8.062 0 0 0-1.28-.094c-.273-.001-.488-.002-.757-.093-.359-.12-.68-.356-.956-.7l.624-.501c.181.226.373.37.587.443.141.047.25.05.507.051.142.002.312.002.53.014.295.016.587.046.868.09l-.123.79z" fill="#B2B2B2" mask="url(#b)"/></g></svg>