<svg width="36" height="26" viewBox="0 0 36 26" xmlns="http://www.w3.org/2000/svg"><title>US-DE</title><g fill="none" fill-rule="evenodd"><path d="M32 26H4a4 4 0 0 1-4-4V4a4 4 0 0 1 4-4h28a4 4 0 0 1 4 4v18a4 4 0 0 1-4 4" fill="#0089EF"/><path fill="#FFB200" d="M32 13L18 4 4 13l14 9z"/><path d="M15.63 15.09c.456.702 1.045.796 1.477.796.245 0 .491-.033.73-.064l.152-.02.008.002.01-.002.154.02c.238.031.485.064.73.064.432 0 1.02-.094 1.477-.795H15.63z" fill="#008542"/><path d="M20.62 14.6l-.078-.032.09.007.001-.019.01-.09c.028-.254.07-.638-.48-.828a1.185 1.185 0 0 0-.103-.03 3.37 3.37 0 0 1 .024-.15l.018-.109-.154-.15a1.049 1.049 0 0 1-.187-.43h-3.524c-.05.246-.163.4-.187.43l-.154.15.018.108c.005.03.017.097.024.152a1.19 1.19 0 0 0-.107.03c-.547.19-.504.573-.476.828l.01.087.001.02.09-.006-.078.032c.077.19.162.352.252.49h4.737c.09-.138.175-.3.253-.49" fill="#FFF"/><path d="M19.949 11.785c.35-.247.509-.622.407-.967-.082-.277-.367-.574-.918-.574-.098 0-.2.01-.304.028-.49.08-.629.102-1.135.148a11.997 11.997 0 0 1-1.132-.148 1.763 1.763 0 0 0-.307-.028c-.551 0-.836.297-.918.574-.102.345.057.72.407.967.226.402.238.74.188.985h3.524c-.05-.246-.038-.584.188-.985" fill="#FFB200"/><path d="M18.53 13.318a2.534 2.534 0 0 0 1.556.128l.016-.097-.154-.15a1.142 1.142 0 0 1-.202-.82c-.26.042-.544.016-.772-.083a2.53 2.53 0 0 0-1.948 0 1.416 1.416 0 0 1-.774.082c.056.472-.166.776-.202.82l-.154.151.016.097c.514.12 1.081.078 1.557-.128a1.417 1.417 0 0 1 1.062 0" fill="#0089EF"/><path d="M20.424 14.558l.002-.037c-.577 1.418-1.532 1.18-2.426 1.07v-.001c-.895.11-1.85.35-2.428-1.07l.003.038c-.02-.286-.124-.566.325-.722.25-.081.294.016.221-.414l.084-.082s.598-.692.002-1.701c-.694-.45-.428-1.347.624-1.16.504.082.649.104 1.169.151.52-.047.665-.069 1.169-.152 1.052-.186 1.318.71.624 1.16-.596 1.01.002 1.702.002 1.702l.084.082c-.074.43-.028.333.22.414.45.156.346.436.326.722m.053-1.408c-.008-.05.027-.152.011-.203-.02-.069-.17-.099-.313.003l.084.081c-.102.036-.48-.484-.052-.633.19-.073.367-.049.036-.412.938-.928-.058-2.082-.583-2.009-.101.01-.195.048-.295.057-.079.006-.143-.003-.143-.003-.289-.074-.598-.59-1.223-.5-.626-.09-.934.426-1.223.5 0 0-.064.01-.143.003-.1-.01-.194-.047-.295-.057-.525-.073-1.521 1.081-.583 2.01-.331.362-.155.338.036.41.428.15.05.67-.052.634l.084-.081c-.144-.102-.293-.072-.313-.003-.016.051.018.153.011.203-.012.159-.575.458-.519 1.424.061.7.465 1.12 1.018 1.374 1.233.453 1.214-.213 1.485.661.127.42.38.535.494.467.114.068.367-.046.494-.467.27-.874.252-.208 1.485-.661.552-.254.957-.675 1.018-1.374.055-.966-.507-1.265-.52-1.424" fill="#FFF066"/><path fill="#FFF" d="M16.739 8.426h-.663l-.117.663h.663z"/><path fill="#006FFF" d="M17.394 8.426h-.663l-.117.663h.663z"/><path fill="#FFF" d="M18.062 8.426H17.4l-.117.663h.663z"/><path fill="#006FFF" d="M18.717 8.426h-.662l-.117.663h.663z"/><path fill="#FFF" d="M19.386 8.426h-.663l-.117.663h.663z"/><path fill="#006FFF" d="M20.04 8.426h-.662l-.117.663h.663z"/><path d="M23.251 14.412l.057-.37a.86.86 0 0 0 0-.266l-.226-1.467-1.131.204.471 1.307a.86.86 0 0 1 .05.344l-.016.295c.264.083.555.093.795-.047" fill="#306D30"/><path d="M23.698 16.404l-.623-.421a.116.116 0 0 1-.05-.113l.226-1.457c-.24.14-.531.13-.795.046l-.1 1.764a.246.246 0 0 0 .214.258l1.05.133a.115.115 0 0 0 .078-.21m-2.568-1.987a1.93 1.93 0 0 0 .028.713c.115.48.052.999.052.999l-.217.14-.008.145.375.233.458-.184-.09-.24.16-.946.048-.796a.803.803 0 0 1-.807-.064" fill="#594529"/><path d="M22.312 12.765l-1.261-.153.114 1.627s-.02.067-.036.178a.803.803 0 0 0 .806.064l.018-.302.359-1.414zm1.108-3.221c.225.096.145.779.017 1.343.164.141.392.868.568 1.126.144.213-.35.547-.495.334l-.642-1.114s-.187-.33-.063-.63.13-1.264.615-1.059" fill="#306D30"/><path d="M22.67 10.05l-.407-.289-.49.242-.776-.693c.033.188.077.288.106.477l.066.809c.066.424.045.857-.061 1.274l-.227.892c-.008.28 2.42.338 2.428.06l-.14-.938a3.184 3.184 0 0 1 .026-1.088l.225-1.142a.155.155 0 0 0 0-.059l-.75.454z" fill="#008542"/><path d="M20.992 9.275c.434-.151.761.789.326.94l-.372.317.453.538c.199.141-.137.612-.336.47 0 0-.739-.246-.96-.917.024-.563.912-.967.889-1.348" fill="#306D30"/><path d="M23.628 12.49a.307.307 0 1 1 .615 0 .307.307 0 0 1-.615 0m-2.474-.825a.298.298 0 0 1 .488-.34c.094.136.237.429.034.57-.136.094-.429-.095-.522-.23" fill="#FFE1C7"/><path d="M22.263 9.788l.408.304.75-.48a.182.182 0 0 0-.104-.136l-.563-.348-.46.373-.361-.45-.941.224.005.035.776.733.49-.255z" fill="#306D30"/><path d="M22.754 9.128l-.017-.183c.502-.25-.052-1.358-.554-1.107-.218.104-.372.24-.354.454a.17.17 0 0 1-.055.145l-.09.08a.055.055 0 0 0 .025.095l.09.018.03.118-.05.197.194.016-.04.09.36.45.46-.373z" fill="#FFE1C7"/><path d="M22.918 8.715c-.007-.31-.15-.517-.673-.517-.524 0-.911-.055-.911-.243s.364-.218.55-.218c.034-.2 1.103-.018 1.068.182l-.018.123c.702.347.57.55-.016.673" fill="#594529"/><path fill="#7A7A7A" d="M22.321 15.514l.024-.449.042-.094.153.058 1.75-3.282.104.045-1.72 3.479-.11.084z"/><path fill="#7A7A7A" d="M22.645 15.177l.282.158-.09.125-.1-.026-.471 1.258-.592-.226.563-1.006z"/><path d="M12.482 16.404l.623-.421a.116.116 0 0 0 .05-.113l-.226-1.457c.24.14.53.13.795.046l.1 1.764a.246.246 0 0 1-.214.258l-1.05.133a.115.115 0 0 1-.078-.21m2.568-1.987c.024.165.04.426-.028.713-.115.48-.052.999-.052.999l.217.14.008.145-.375.233-.458-.184.09-.24-.16-.946-.048-.796c.251.13.56.099.807-.064" fill="#9E7A1F"/><path d="M12.892 9.307s-.133.713-.23.92l-.057-.342c-.088-.472-.835-.334-.747.139 0 0 .293.941.355 1.108.062.166.198.343.927.112l-.248-1.937zm2.042-.152s.564.83.902 1.772c.026.256.121.635-.77 1.13l-.336-.771s.239-.14.43-.196c0 0-.404-.453-.556-1.233l.33-.702z" fill="#C4434A"/><path d="M13.239 11.615c-.384-.16-.503-.96-.347-2.308a.229.229 0 0 1 .165-.193c.628-.18 1.254-.132 1.878.041-.07.62-.054 1.385.058 2.246-.326.215-.877.305-1.754.214" fill="#7C2525"/><path d="M14.992 11.4s.192.513.18.975c-.01.463-.222 1.525-.222 1.525s.18.79.167 1.046a56.96 56.96 0 0 0-.027 1.05c.004.179-.819.193-.822.013 0 0 .026-.574-.06-.773-.086-.2.012-.666-.063-.96-.075-.295-.078-.786-.191-.977 0 0-.106.657-.267.834v.167s.252.782.28 1.71c-.338.036-.657.034-.87-.181 0 0 .014-.51-.31-1.497-.063-.26-.04-.506.084-.762s.276-1.22.243-1.577c-.032-.358.124-.378.124-.378l.701-.191 1.053-.023z" fill="#594529"/><path d="M13.483 8.977l.017-.184c-.502-.25.051-1.358.554-1.107.218.105.372.24.354.454a.171.171 0 0 0 .055.145l.09.08c.034.03.02.086-.026.095l-.09.018-.03.118.05.197-.194.016.041.09-.36.45-.461-.372z" fill="#FFE1C7"/><path d="M13.318 8.564c.007-.311.15-.518.674-.518.523 0 .91-.054.91-.242s-.363-.219-.55-.219c-.034-.2-1.102-.017-1.068.183l.018.123c-.701.346-.57.549.016.673" fill="#594529"/><path d="M12.493 8.2a.32.32 0 0 0-.238.199.32.32 0 0 0-.55.276l.09.473 1.162-.22-.09-.474a.32.32 0 0 0-.374-.254" fill="#7A7A7A"/><path fill="#7A7A7A" d="M13.827 16.162l-.191.037-1.47-7.75.19-.036z"/><path d="M12.328 9.221c-.132.156-.183.373-.192.62.09.093.212.133.385.091.248-.219.321-.409.24-.573-.099-.1-.247-.141-.433-.138" fill="#FFE1C7"/><path fill="#C4434A" d="M14.304 8.899l.366.19-.305.802-.378-.295-.314.241-.533-.707.385-.25.418.47z"/><path d="M22.425 16.035a7.315 7.315 0 0 1-8.85 0l-.77.122.355 2.244.324-.446.446.324-.187-1.184A8.08 8.08 0 0 0 18 18.305a8.079 8.079 0 0 0 4.257-1.21l-.187 1.184.446-.324.324.446.356-2.244-.77-.122z" fill="#FFF"/><path d="M16.105 7.027s1.208.556 2.242.582c1.032.025 1.292-.146 1.292-.146l-.296.571h-2.518l-.72-1.007z" fill="#B34B00"/><path fill="#FFF" d="M16.504 6.949l.633.455h2.345l-.32-1.55-2.025.096z"/><path d="M27.196 22.994a.491.491 0 0 1-.05.217l-.568 1.148c-.101-.01-.22-.058-.275-.126l.535-1.04h-.643a.793.793 0 0 1 0-.29h.986a.23.23 0 0 1 .015.09zm-1.954.238c0 .091.095.139.21.19.02.01.04.016.059.025.076-.06.117-.117.117-.2 0-.102-.087-.15-.195-.15-.12 0-.19.06-.19.135zm.414.702c0-.101-.102-.147-.253-.21-.026-.011-.05-.024-.074-.035a.325.325 0 0 0-.117.234c0 .113.1.165.223.165.137 0 .221-.045.221-.154zm.313-.039c0 .32-.267.436-.547.436s-.529-.102-.529-.38c0-.168.105-.296.213-.383-.104-.074-.171-.167-.173-.305-.002-.241.186-.41.498-.41.301 0 .498.152.498.377a.41.41 0 0 1-.177.331c.123.076.217.178.217.334zm-1.28-.901a.491.491 0 0 1-.05.217l-.568 1.148c-.102-.01-.22-.058-.275-.126l.535-1.04h-.644a.793.793 0 0 1 0-.29h.986a.23.23 0 0 1 .015.09zm-1.304-.115v1.415a1.061 1.061 0 0 1-.32 0v-1.051l-.27.11a.428.428 0 0 1-.114-.275l.446-.199a.61.61 0 0 1 .258 0zm-1.677 1.733a.67.67 0 0 0 .07-.327.534.534 0 0 0-.035-.206.394.394 0 0 1 .296-.012c.014.03.022.084.022.155a.661.661 0 0 1-.227.464.157.157 0 0 1-.126-.074zm-.038-1.618a.491.491 0 0 1-.05.217l-.568 1.148c-.101-.01-.22-.058-.275-.126l.535-1.04h-.643a.76.76 0 0 1 0-.29h.986a.23.23 0 0 1 .015.09zm-2.517.552c.058.003.117.003.17.003.17 0 .237-.092.237-.204 0-.12-.078-.193-.238-.193-.059 0-.113.002-.17.006v.388zm.815.733c-.072.02-.178.026-.273.026-.028 0-.059 0-.083-.003l-.286-.487h-.015c-.05 0-.104 0-.158-.002v.48a.792.792 0 0 1-.16.014.875.875 0 0 1-.165-.013v-1.37a2.5 2.5 0 0 1 .468-.045c.42 0 .593.175.593.446 0 .202-.097.34-.246.418l.325.536zm-1.445-.13a.64.64 0 0 1-.015.145h-.94v-1.391h.919a.556.556 0 0 1 .017.145.545.545 0 0 1-.017.143h-.597v.251h.53a.62.62 0 0 1 0 .284h-.53v.28h.618a.623.623 0 0 1 .015.143zm-1.579-.258c0-.108-.075-.173-.231-.173h-.183v.349c.055.004.109.006.17.006.17 0 .244-.06.244-.182zm-.414-.741v.314h.165c.145 0 .2-.059.2-.167 0-.095-.07-.154-.213-.154-.045 0-.097.002-.152.007zm.741.758c0 .258-.177.425-.604.425-.173 0-.334-.015-.46-.04v-1.366c.126-.026.289-.044.451-.044.397 0 .553.152.553.4 0 .164-.072.252-.18.3.145.052.24.156.24.325zm-1.435-1.001v1.387a.936.936 0 0 1-.3 0v-.672l.011-.203-.054.158-.238.6a.967.967 0 0 1-.27 0l-.252-.603-.05-.132.009.18v.672a.936.936 0 0 1-.3 0v-1.385a.64.64 0 0 1 .163-.017c.057 0 .115.004.176.013l.374.858.026.07.022-.07.347-.858a1.092 1.092 0 0 1 .336.002zm-1.75 1.242a.663.663 0 0 1-.015.145h-.94v-1.391h.918a.54.54 0 0 1 .017.145.529.529 0 0 1-.017.143h-.596v.251h.53a.62.62 0 0 1 0 .284h-.53v.28h.618c.01.047.015.095.015.143zm-2.398-.55c0-.434.3-.742.73-.742a.67.67 0 0 1 .429.134.362.362 0 0 1-.175.254.4.4 0 0 0-.245-.08c-.234 0-.388.162-.388.433 0 .265.156.431.38.431a.392.392 0 0 0 .279-.097.334.334 0 0 1 .175.26c-.082.067-.22.141-.468.141-.442 0-.717-.301-.717-.735zm-.205.55a.663.663 0 0 1-.015.145h-.94v-1.391h.918a.54.54 0 0 1 .017.145.53.53 0 0 1-.017.143h-.596v.251h.53a.643.643 0 0 1 0 .284h-.53v.28h.618c.01.047.015.095.015.143zm-1.612-.562c0-.249-.15-.41-.426-.41-.044 0-.09 0-.14.005v.832c.049.003.096.005.148.005.267 0 .418-.17.418-.432zm.356-.004c0 .457-.314.737-.79.737a3.09 3.09 0 0 1-.456-.029V22.91c.113-.02.25-.034.448-.034.514 0 .798.283.798.708z" fill="#F1F2F2"/></g></svg>