<svg width="36" height="26" viewBox="0 0 36 26" xmlns="http://www.w3.org/2000/svg" xmlns:xlink="http://www.w3.org/1999/xlink"><title>US-FL</title><defs><rect id="a" width="36" height="26" rx="4"/><path d="M.207.269a5.793 5.793 0 0 0 11.586 0V.2H.207v.07z" id="c"/><path d="M.206 5.8a5.793 5.793 0 1 0 11.587 0 5.794 5.794 0 0 0-11.587 0z" id="e"/></defs><g fill="none" fill-rule="evenodd"><mask id="b" fill="#fff"><use xlink:href="#a"/></mask><use fill="#F1F1F2" xlink:href="#a"/><path d="M13.09 13L0 4V0h4l14 9.625L32 0h4v4l-13.09 9L36 22v4h-4l-14-9.625L4 26H0v-4l13.09-9z" fill="#CF1B2B" mask="url(#b)"/><g mask="url(#b)"><path d="M10.1 13a7.9 7.9 0 1 1 15.8 0 7.9 7.9 0 1 1-15.8 0" fill="#FF7900"/><g transform="translate(12 7.2)"><path d="M.207 5.8a5.793 5.793 0 1 1 11.586 0 5.793 5.793 0 0 1-11.586 0z" fill="#66E2FF"/><g transform="translate(0 5.6)"><mask id="d" fill="#fff"><use xlink:href="#c"/></mask><path d="M6 5.993c3.2 0 5.793-2.593 5.793-5.793H.207C.207 3.4 2.8 5.993 6 5.993" fill="#008542" mask="url(#d)"/></g><mask id="f" fill="#fff"><use xlink:href="#e"/></mask><path fill="#7C2525" mask="url(#f)" d="M5.473 8.17H6V2.377h-.527z"/><path d="M3.893 2.64a1.843 1.843 0 1 1 3.687 0 1.843 1.843 0 0 1-3.687 0M6.79 7.643a2.897 2.897 0 1 1 5.794 0 2.897 2.897 0 0 1-5.794 0" fill="#78AD12" mask="url(#f)"/><path d="M2.007 6.15s-.768-.184-.645-.798c.123-.614.42-1.566 1.136-1.596h.491c.789.082 1.164 2.086.492 2.395H2.007z" fill="#D3A240" mask="url(#f)"/><path d="M4.034 10.357c0 .614-2.795.614-2.795 0 .111-1.656.263-3.242.768-4.206.447-.222.945-.188 1.474 0 .26.776.446 2.16.553 4.206" fill="#3D5BD5" mask="url(#f)"/><path d="M4.42 5.537a1.587 1.587 0 0 1-2.658 0H4.42z" fill="#B10021" mask="url(#f)"/><path d="M1.854 6.028a.307.307 0 1 1 .614 0 .307.307 0 0 1-.614 0m.536-2.286l.028-.15c-.378-.243.146-1.112.524-.868.165.102.276.224.245.4a.145.145 0 0 0 .033.123l.065.071c.025.028.008.073-.028.077l-.072.008-.033.095.024.166-.155-.002.025.077-.32.343-.336-.34z" fill="#FFE1C7" mask="url(#f)"/><path d="M2.007 3.05c-.276.015-.407-.102-.338-.4-.035-.282.456-.343.492-.06.726-.216 1.013.06 1.013.06l.092.185s-.256.02-.522.122c-.266.103-.43.43-.43.43-.184-.051-.287-.164-.307-.338" fill="#704219" mask="url(#f)"/></g></g></g></svg>