<svg width="36" height="26" viewBox="0 0 36 26" xmlns="http://www.w3.org/2000/svg" xmlns:xlink="http://www.w3.org/1999/xlink"><title>US-GA</title><defs><rect id="a" width="36" height="26" rx="4"/></defs><g fill="none" fill-rule="evenodd"><mask id="b" fill="#fff"><use xlink:href="#a"/></mask><use fill="#F1F1F2" xlink:href="#a"/><path fill="#CF1B2B" mask="url(#b)" d="M0 0h36v8H0zm0 18h36v8H0z"/><path fill="#00247D" mask="url(#b)" d="M0 0h18v18H0z"/><path d="M9.01 1.5l-.29.856h-.936l.758.529-.29.855.758-.529.757.53-.289-.857.757-.528H9.3L9.01 1.5zM12.02 3l-.83-.418.416.807-.67.628.926-.13.415.807.158-.887.926-.13-.829-.418.158-.887-.67.628zm-6.532.259l-.83.418.927.13.158.887.415-.807.926.13-.67-.629.415-.806L6 3l-.67-.628.158.887zm8.587 1.945l-.897.257.883.298-.023.9.568-.715.884.299-.532-.741.568-.715-.897.258-.532-.741-.022.9zM3.39 5.043l-.897-.257.568.715-.532.74.884-.298.568.715-.023-.9.883-.298-.897-.258-.022-.9-.532.742zm11.993 2.87l-.92-.174.639.66-.456.786.85-.38.637.66-.113-.894.849-.379-.919-.173-.113-.893-.454.787zM2.068 8.02l-.918.173.849.38-.113.893.637-.66.85.38-.456-.786.638-.66-.919.174-.454-.787-.114.893zm12.68 3.182l-.783.493.935.044.246.868.332-.841.936.043-.73-.563.332-.842-.784.494-.73-.564.246.868zm-11.96-.304l-.784-.494.333.841-.73.564.935-.043.332.841.245-.868.936-.044-.783-.493.245-.868-.73.564zm10.292 2.628l-.932.087.807.456-.202.879.7-.597.808.456-.374-.825.7-.597-.931.087-.375-.825-.201.879zm-8.716-.054l-.932-.087.701.597-.374.825.807-.456.701.597-.202-.88.807-.455-.932-.087-.202-.879-.374.825zm6.115 1.366l-.867-.34.494.765-.604.688.909-.216.494.765.068-.897.909-.216-.868-.34.069-.897-.604.688zm-3.474.21l-.867.339.91.216.067.897.494-.765.909.216-.604-.688.494-.764-.867.339-.604-.688.068.898z" fill="#FFF" mask="url(#b)"/><path d="M5.04 5.054v.582h.765v.49H.195v-.49H.96v-.582a2.895 2.895 0 0 1-.765.092v-.49c.304 0 .562-.041.765-.12v-1.84l-.51-.49h5.1l-.51.49v1.84c.203.079.46.12.765.12v.49c-.287 0-.542-.031-.765-.092zm-.51-.232v.814H3.255v-1.97a3.86 3.86 0 0 0 1.114-.253l-.189-.455c-.31.12-.618.192-.925.218v-.48H4.53v1.229l-.51-.012a.42.42 0 0 0 0 .008c-.141 0-.255.384-.255.857 0 .474.114.858.255.858.141 0 .255-.384.255-.858 0-.068-.002-.134-.007-.197a1.212 1.212 0 0 0 .262.241zm-3.06-.897v-1.23h1.275v.481a3.358 3.358 0 0 1-.926-.218l-.189.455c.37.142.742.226 1.115.253v1.97H1.47v-.814a1.3 1.3 0 0 0 .173-.144 1.09 1.09 0 0 0 .337-.765l-.51.012zM3 0C1.732 0 .705.987.705 2.205h.51c0-.947.8-1.715 1.785-1.715.986 0 1.785.768 1.785 1.715h.51C5.295.987 4.267 0 3 0zM0 7.207h6v-.72H0v.72z" transform="translate(6 5)" mask="url(#b)" fill="#FFF066"/></g></svg>