<svg width="36" height="26" viewBox="0 0 36 26" xmlns="http://www.w3.org/2000/svg" xmlns:xlink="http://www.w3.org/1999/xlink"><title>US-HI</title><defs><rect id="a" width="36" height="26" rx="4"/><path id="c" d="M0 0h20v14H0z"/></defs><g fill="none" fill-rule="evenodd"><mask id="b" fill="#fff"><use xlink:href="#a"/></mask><use fill="#D8D8D8" xlink:href="#a"/><g mask="url(#b)"><path fill="#F1F2F2" d="M0 26h36V0H0z"/><path fill="#CF1B2B" d="M0 7h36V4H0z"/><path fill="#00247D" d="M0 10h36V7H0z"/><path fill="#CF1B2B" d="M0 17h36v-3H0zm0 9h36v-3H0z"/><path fill="#00247D" d="M0 20h36v-3H0z"/></g><g mask="url(#b)"><mask id="d" fill="#fff"><use xlink:href="#c"/></mask><use fill="#00247D" xlink:href="#c"/><path fill="#F1F1F2" mask="url(#d)" d="M0 2.625V0h3.75L10 4.375 16.25 0H20v2.625L13.75 7 20 11.375V14h-3.75L10 9.625 3.75 14H0v-2.625L6.25 7z"/><path fill="#CF1B2B" mask="url(#d)" d="M0 0v1.75L7.5 7H10L0 14h2.5L10 8.75V7l10 7v-1.75L12.5 7H10l10-7h-2.5L10 5.25V7z"/><path d="M12 5V0H8v5H0v4h8v5h4V9h8V5h-8z" fill="#F1F1F2" mask="url(#d)"/><path d="M11 6V0H9v6H0v2h9v6h2V8h9V6h-9z" fill="#CF1B2B" mask="url(#d)"/></g></g></svg>