<svg width="36" height="26" viewBox="0 0 36 26" xmlns="http://www.w3.org/2000/svg" xmlns:xlink="http://www.w3.org/1999/xlink"><title>US-ID</title><defs><path d="M2.234 7.517a5.366 5.366 0 1 0 10.732 0 5.366 5.366 0 0 0-10.732 0z" id="a"/></defs><g fill="none" fill-rule="evenodd"><path d="M32 26H4a4 4 0 0 1-4-4V4a4 4 0 0 1 4-4h28a4 4 0 0 1 4 4v18a4 4 0 0 1-4 4" fill="#00247D"/><g transform="translate(10.4 2.8)"><path d="M14.917 7.517a7.317 7.317 0 1 0-14.634 0 7.317 7.317 0 0 0 14.634 0" fill="#FFF066"/><mask id="b" fill="#fff"><use xlink:href="#a"/></mask><path fill="#66E2FF" mask="url(#b)" d="M1.746 7.517h11.708V1.664H1.746z"/><path fill="#008542" mask="url(#b)" d="M1.746 13.37h11.708V7.518H1.746z"/><path d="M9.921 6.004l-.56-.706c-.52.63-.93.795-1.76.202-.83.593-1.241.429-1.761-.202l-.56.706c.145.183.32.379.32.707 0 .58-.38 1.98.16 2.724.56.77 1.43.328 1.84 1.009.41-.681 1.281-.238 1.841-1.01.54-.743.16-2.143.16-2.723 0-.328.175-.524.32-.707z" stroke="#231F1F" stroke-width=".5" mask="url(#b)"/><path d="M8.855 4.815c-.54 0-1.015-.313-1.431-.586-.757-.498-1.22-.746-1.924-.042l-.437-.437c1.095-1.095 1.985-.509 2.7-.038.691.455 1.191.783 1.937.038l.437.437c-.463.463-.89.628-1.282.628m-4.67 2.702c0-1.347-.218-2.44-.487-2.44-.27 0-.488 1.093-.488 2.44s.218 2.44.488 2.44c.269 0 .487-1.093.487-2.44" fill="#F1F2F2" mask="url(#b)"/><path d="M11.99 7.517c0-1.347-.218-2.44-.488-2.44-.269 0-.487 1.093-.487 2.44s.218 2.44.487 2.44c.27 0 .488-1.093.488-2.44" fill="#594529" mask="url(#b)"/><path d="M8.576 11.42a.976.976 0 1 0-1.952 0 .976.976 0 0 0 1.952 0m-2.439-.976a.976.976 0 1 0-1.952 0 .976.976 0 0 0 1.952 0m4.878 0a.976.976 0 1 0-1.952 0 .976.976 0 0 0 1.952 0" fill="#FF7900" mask="url(#b)"/></g><path d="M27.385 18.932a1.44 1.44 0 0 0-1.174-1.222 1.66 1.66 0 0 0-.29-.017 1.275 1.275 0 0 0-.274.046 1.108 1.108 0 0 0-.738.708 1.087 1.087 0 0 0-.05.47c.024.164.084.3.172.415a.843.843 0 0 0 .66.33.658.658 0 0 0 .663-.545c.011-.081.007-.125.007-.125s0 .044-.017.123a.617.617 0 0 1-.171.296.594.594 0 0 1-.477.165.725.725 0 0 1-.544-.33.71.71 0 0 1-.111-.338.885.885 0 0 1 .072-.383.85.85 0 0 1 .823-.513 1.037 1.037 0 0 1 .978.949 1.248 1.248 0 0 1-1.082 1.303c-.03.001-.049.006-.085.007l-.118.002-.177-.02c-.061-.014-.123-.02-.18-.04a1.556 1.556 0 0 1-.588-.32 1.485 1.485 0 0 1-.483-.835c-.015-.06-.016-.102-.02-.139l-.006-.053v-.068l-.002-.125-.942.048.012.124c.002.026.009.087.02.16a10.145 10.145 0 0 1-10.527 0c.012-.073.02-.134.021-.16l.012-.124-.942-.048-.002.125v.068l-.006.053c-.004.037-.005.08-.02.14a1.485 1.485 0 0 1-.483.834 1.556 1.556 0 0 1-.588.32c-.057.02-.119.026-.18.04l-.177.02-.118-.002c-.036 0-.056-.006-.085-.008a1.246 1.246 0 0 1-1.082-1.303 1.037 1.037 0 0 1 .978-.949.85.85 0 0 1 .823.513.91.91 0 0 1 .072.384.71.71 0 0 1-.11.339.725.725 0 0 1-.545.329.594.594 0 0 1-.477-.165.617.617 0 0 1-.17-.296c-.019-.079-.018-.123-.018-.123s-.004.044.007.125c.013.08.047.203.151.322.1.117.284.23.511.224a.842.842 0 0 0 .66-.331.863.863 0 0 0 .173-.415 1.087 1.087 0 0 0-.05-.47 1.109 1.109 0 0 0-.738-.708c-.09-.029-.2-.04-.273-.046a1.4 1.4 0 0 0-.83.23 1.44 1.44 0 0 0-.635 1.009c-.051.385.04.813.253 1.155a1.852 1.852 0 0 0 1.199.834c.05.01.109.02.152.025l.118.011c.21.008.373-.004.554-.038.048-.01.094-.024.142-.037l-.014.021a12.666 12.666 0 0 0 13.962 0l-.014-.02c.048.012.094.026.142.036.18.034.344.046.554.038l.118-.01c.043-.006.102-.017.152-.026a1.852 1.852 0 0 0 1.198-.834 1.79 1.79 0 0 0 .254-1.155" fill="#FFF066"/><path d="M18 22.371c-2.31 0-4.62-.664-6.635-1.993l.693-1.05a10.784 10.784 0 0 0 11.884 0l.692 1.05A12.041 12.041 0 0 1 18 22.371" fill="#CF1B2B"/></g></svg>