<svg width="36" height="26" viewBox="0 0 36 26" xmlns="http://www.w3.org/2000/svg" xmlns:xlink="http://www.w3.org/1999/xlink"><title>US-IL</title><defs><path id="a" d="M.123 2.863h5.196V.116H.123v2.747z"/><path id="c" d="M.202 1.263H2.04V.196H.202v1.067z"/></defs><g fill="none" fill-rule="evenodd"><path d="M32 26H4a4 4 0 0 1-4-4V4a4 4 0 0 1 4-4h28a4 4 0 0 1 4 4v18a4 4 0 0 1-4 4" fill="#F1F2F2"/><path d="M11.804 15.9a7.798 7.798 0 0 0 6.422 3.368 7.798 7.798 0 0 0 6.422-3.368H11.804z" fill="#008542"/><g transform="translate(20.4 11.2)"><mask id="b" fill="#fff"><use xlink:href="#a"/></mask><path fill="#FFB200" mask="url(#b)" d="M2.72.116l.762.76h1.076v1.077l.76.761-.76.761v1.076H3.482l-.761.761-.761-.76H.884V3.474l-.761-.761.76-.76V.876H1.96z"/></g><g transform="translate(22 12.8)"><mask id="d" fill="#fff"><use xlink:href="#c"/></mask><path d="M2.04 1.114a.918.918 0 1 0-1.838 0 .918.918 0 0 0 1.837 0" fill="#FFF066" mask="url(#d)"/></g><path d="M11.804 15.9h12.844a7.77 7.77 0 0 0 .94-1.837H10.864a7.78 7.78 0 0 0 .94 1.837" fill="#0089EF"/><path d="M19.585 17.926s-.127-.058-.357-.096a4.386 4.386 0 0 0-.978-.038 4.294 4.294 0 0 0-.69.096c-.253.047-.526.11-.81.14-.139.01-.282.02-.424.014-.143-.003-.281-.037-.42-.07-.276-.069-.538-.205-.807-.314-.26-.138-.525-.263-.764-.435a7.047 7.047 0 0 1-.691-.51c-.206-.192-.4-.38-.569-.574-.17-.19-.299-.405-.427-.583a5.277 5.277 0 0 1-.28-.542 3.84 3.84 0 0 1-.157-.439c-.065-.252-.087-.396-.087-.396l.263-.157s.124.078.313.216c.088.073.22.141.345.233.122.095.287.174.437.279.164.092.328.2.52.29.175.106.374.2.576.294.206.09.404.201.627.282l.662.264c.226.085.452.162.676.251.218.098.424.24.623.402l.586.493c.196.143.388.266.573.352.185.077.36.138.516.18.156.043.298.058.413.07.232.02.37-.005.37-.005l-.04.303z" fill="#008542"/><path d="M16.088 16.206c0-3.266 5.512-3.266 5.512 0 0 1.225-5.512 1.225-5.512 0" fill="#939698"/><path d="M14.717 17.882a.333.333 0 0 1-.13-.136 4.472 4.472 0 0 1 .436-4.778.334.334 0 0 1 .54.019 1.563 1.563 0 0 0 1.384.704.328.328 0 0 1 .31.181 1.574 1.574 0 0 0 1.296.854.33.33 0 0 1 .284.46 4.471 4.471 0 0 1-3.938 2.74.331.331 0 0 1-.182-.044" fill="#FFF066"/><path d="M14.703 14.214a4.155 4.155 0 0 0 .18 3.38 4.156 4.156 0 0 0 3.028-1.513l-3.208-1.867z" fill="#CF1B2B"/><path d="M17.7 14.805a1.899 1.899 0 0 1-.738-.782 1.903 1.903 0 0 1-1.676-.853 4.158 4.158 0 0 0-.583 1.044l3.208 1.867a4.112 4.112 0 0 0 .62-1.023c-.284-.02-.568-.1-.83-.253" fill="#00247D"/><path d="M17.17 5.472l.315-.871L16.81 3.6c-.887.597-1.922.982-3.076 1.144v.004l.04.28.127.91h.002v.003l.024.044c-1.15.005-2.406.448-3.115 2.067l1.105.484s1.623-.289 1.677.574c.054.863-2.784-.051-2.784-.051-.235.58-.091 1.127.405 1.542.331.276.775.466 1.245.666.618.263 1.492.69 1.844 1.203-.665.122-1.244-.24-1.48-.304-.666-.18-1.495-.405-2.236.093l.61 2.11.062-1.108c.266-.179.649-.093 1.248.07.374.1 1.482.234 1.942-.308.276-.312.687-.991.687-.991.205-.747-1.302-1.49-2.204-1.875-.142-.06-.335-.143-.515-.23.684-.057 1.336-.356 1.366-.817.03-.499-.614-.963-1.577-1.095.507-.717 1.27-.955 2.4-.766l.199-1.19-.202-.246a8.363 8.363 0 0 0 2.45-.943l.115.602z" fill="#CF1B2B"/><path d="M18.247 15.02l-.008-.001a.127.127 0 0 1-.12-.135c.022-.354.115-.575.282-.673l.089-.576a.128.128 0 0 1 .252.039l-.099.643a.128.128 0 0 1-.085.102c-.101.034-.166.205-.183.48a.127.127 0 0 1-.128.12" fill="#FFB200"/><path d="M19.056 14.764a.127.127 0 0 1-.116-.075c-.006-.013-.129-.274-.418-.263a.13.13 0 0 1-.064-.015c-.254-.133-.494-.072-.562.021a.128.128 0 0 1-.178.027.128.128 0 0 1-.028-.179c.143-.193.498-.283.856-.11.44.004.62.397.627.414a.128.128 0 0 1-.117.18m-2.487-.558a.128.128 0 0 1-.078-.17c.134-.327.292-.507.482-.547l.268-.517a.128.128 0 1 1 .227.117l-.3.578a.127.127 0 0 1-.113.07c-.107 0-.223.14-.328.396a.128.128 0 0 1-.158.073" fill="#FFB200"/><path d="M17.416 14.223a.129.129 0 0 1-.086-.109c-.001-.014-.034-.3-.312-.383a.124.124 0 0 1-.056-.034c-.198-.207-.444-.226-.538-.16a.128.128 0 0 1-.147-.209c.197-.138.562-.11.847.169.414.144.458.574.46.593a.128.128 0 0 1-.168.133" fill="#FFB200"/><path d="M17.693 13.465s.245-.396.214-.836l-.98-.645s.083.71-.087.932c.195.308.444.54.853.549M16.64 10.13c.333-.938.064-1.868-.483-2.793a.571.571 0 0 1 .509-.861c1.649.05 3.19 1.86 4.707 4.06.324.656.183.748-.63.024.153.515-.016.592-.694-.024.066.412-.178.364-.634 0-.014.285-.168.306-.52-.044-.1.233-.348.325-.681.335-.745-.153-1.567-.279-1.573-.698" fill="#3A2A17"/><path d="M14.838 10.182c.448.949 1.254 1.668 2.374 2.184.506.327.742.72.846 1.145.348.347.662.383.966.323.098-.397-.168-.864-.168-.864.616.506.921 1.071.921 1.071.274.274.361.274.283.029.264.286.416.326.404 0 .182.244.275.265.252-.009.191.179.378.348.346-.02.22.317.272.26.204-.07-.492-1.425-1.721-2.921-2.83-3.646-1.11-.724-3.002-.966-3.002-.966-.427.09-.635.356-.596.823" fill="#594529"/><path d="M17.1 10.294c.605-.6.616-1.268.24-1.977a.865.865 0 0 1 .305-1.138l.472-.295A3.148 3.148 0 0 1 20.54 6.5c1.274.313 2.405.808 3.405 1.468 1.056.721.5.727-.711.44.502.45.74.775-.81.254.207.264.188.404-.667.078.232.342.032.436-.764.19.202.29.106.406-.412.272.085.21-.064.257-.277.26.035.223-.075.324-.294.333.063.25.018.387-.16.382.005.202-.1.344-.276.45.043.248-.032.411-.261.462l-.383.322c-.865-.334-1.987-.629-1.829-1.117" fill="#594529"/><path d="M16.656 9.936c-.213.043-.383-.127-.596-.213.213-.127.383 0 .596-.042l-.1-.1c-.63-.158-1.122-.222-1.122-.222s.321.023.415-.152c-.395-.058-.606-.34-.83-.48-.225-.142-.417-.124-.534-.07 0 0-.546-.334-.837.18.306.014.374.043.469.292.094.248.422.204.452.503 0 0-.43-.034-.663-.313 0 0-.001.344.45.505.453.16.482.358.482.358.154.327.352.626.589.899a.6.6 0 0 0 .293.09.881.881 0 0 1-.256-.426c.17.212.384.255.639.298-.128-.17-.17-.383-.298-.554.213.043.383.213.638.17a.842.842 0 0 1-.468-.468c.213 0 .426.086.639.043a3.76 3.76 0 0 1-.639-.213c.213-.127.468 0 .681-.085" fill="#F1F2F2"/><path d="M14.106 8.365c-.184 0-.442.066-.62.38l-.148.264.302.014.082.004-.001.291c0 .02.004.478.573.68.315.113.364.229.364.23l.004.028.008.005c.158.336.366.653.617.942l.021.024.028.016a.773.773 0 0 0 .384.113h.448l-.137-.137.041.007.458.076-.279-.37a.742.742 0 0 1-.062-.102.695.695 0 0 0 .285.013l.655-.11-.617-.246a.633.633 0 0 1-.113-.059 1.035 1.035 0 0 0 .251-.012l.91-.182-.848-.17-.058-.195a.452.452 0 0 0 .038-.006l.34-.068-.245-.246-.1-.1-.037-.036-.05-.013a11.751 11.751 0 0 0-.574-.129l.112-.21-.262-.038c-.23-.034-.39-.165-.545-.292a2.077 2.077 0 0 0-.214-.162.825.825 0 0 0-.442-.138.647.647 0 0 0-.177.024.97.97 0 0 0-.392-.09zm0 .186c.204 0 .38.107.38.107a.439.439 0 0 1 .189-.041c.099 0 .216.03.343.11.224.14.436.422.831.48-.075.14-.294.153-.38.153h-.035s.492.062 1.121.22l.101.101a.503.503 0 0 1-.096.009c-.1 0-.19-.025-.286-.025a.4.4 0 0 0-.214.058c.19.076.346.22.528.22a.362.362 0 0 0 .068-.007.53.53 0 0 1-.199.032c-.072 0-.147-.007-.22-.007-.09 0-.18.01-.262.06.213.086.426.17.639.213a.66.66 0 0 1-.128.012c-.17 0-.34-.055-.51-.055a.842.842 0 0 0 .467.469.521.521 0 0 1-.081.007c-.212 0-.368-.14-.557-.178.127.17.17.384.298.554-.256-.043-.469-.086-.639-.298.043.17.128.298.256.425a.593.593 0 0 1-.293-.089 3.907 3.907 0 0 1-.589-.899s-.029-.197-.481-.358c-.452-.161-.45-.505-.45-.505.233.279.662.313.662.313-.03-.299-.358-.255-.452-.503-.095-.25-.163-.278-.469-.292.126-.223.3-.286.458-.286z" fill="#594529"/><path d="M22.877 20.784c-.338-.082-.379-.124-.379-.217 0-.088.094-.153.267-.153.209 0 .373.07.482.147.12-.07.194-.22.203-.355-.112-.089-.33-.194-.656-.194-.434 0-.722.232-.722.593.003.379.282.502.6.579.331.085.378.14.378.238 0 .102-.082.17-.294.17a.88.88 0 0 1-.54-.18.462.462 0 0 0-.203.35c.12.106.355.232.735.232.452 0 .737-.226.728-.634-.006-.338-.247-.488-.6-.576zm-1.57-.72v1.883a1.307 1.307 0 0 0 .438 0v-1.883a1.201 1.201 0 0 0-.223-.017c-.073 0-.144.003-.214.017zm-.764.938c0-.362-.203-.588-.514-.588s-.514.226-.514.588c0 .352.203.584.514.584s.514-.232.514-.584zm.476 0c0 .584-.415.998-.99.998-.576 0-.99-.4-.99-.998 0-.591.414-1.002.99-1.002.575 0 .99.396.99 1.002zm-2.7-.938v1.046l.011.15-.064-.115-.726-1.095a1.112 1.112 0 0 0-.42.03v1.867a1.427 1.427 0 0 0 .435 0v-1.033l-.012-.136.062.112.728 1.072c.13.009.28.003.42-.024v-1.874a1.329 1.329 0 0 0-.435 0zm-2.028 0v1.883a1.307 1.307 0 0 0 .438 0v-1.883a1.203 1.203 0 0 0-.223-.017c-.074 0-.144.003-.215.017zm-1.031 1.49v-1.492a1.417 1.417 0 0 0-.22-.021c-.074 0-.145.009-.218.02v1.886h1.213a.89.89 0 0 0 0-.393h-.775zm-1.47 0v-1.492a1.412 1.412 0 0 0-.22-.021 1.46 1.46 0 0 0-.218.02v1.886h1.214a.914.914 0 0 0 0-.393h-.776zm-1.052-1.507c.074 0 .144.003.223.017v1.883a1.306 1.306 0 0 1-.437 0v-1.883c.07-.014.14-.017.214-.017z" fill="#1A53AD"/></g></svg>