<svg width="36" height="26" viewBox="0 0 36 26" xmlns="http://www.w3.org/2000/svg" xmlns:xlink="http://www.w3.org/1999/xlink"><title>US-IA</title><defs><rect id="a" width="36" height="26" rx="4"/></defs><g fill="none" fill-rule="evenodd"><mask id="b" fill="#fff"><use xlink:href="#a"/></mask><use fill="#F1F1F2" xlink:href="#a"/><g mask="url(#b)"><path d="M19.873 10.25c.005 0 .008 0 0 0m-1.483-.888V9.36l-.177-.018c-1.726 2.513.034 4.437-2.333 5.463l-.11-.887-.74-.39-1.734.897c-.07-.332-.197-.61-.492-.842 1.195-.344 2.224-.528 3.012-1.282l-.277-.862-3.468-.567 1.974-1.575-.214-.317-3.198 1.791.192.89 3.102.535c-1.28.425-2.612.573-3.404 1.448l.58.807c1.154-.463 1.28.05 1.193.734l.739.523 1.814-.938.1.803.65.426c1.636-.503 2.388-1.296 2.39-3.037-.001-1.028-.21-2.097.272-3.249.793 2.754 4.04.421 5.962.44-.273.382-.436.806-.425 1.28-1.294-.434-2.635-.212-3.908.291l-.144.857c.706.637.715 1.233-.16 1.715l-.004.897c.914.492 2.895.876 4.847-.425.1.252.262.603.494.742-.168-.366.094-1.23.227-1.489l-.793-.41c-1.045.847-2.18 1.227-3.481.956.484-.56.579-1.316.064-2.128 1.265-.362 2.737-.316 3.616.62l.76-.677-.025-.028c-.674-.726-.588-1.497.174-2.029l.012-.836c-2.636-1.944-4.893 2.43-7.087-.128" fill="#00247D"/><path d="M17.267 7.845s-.473-1.95-.368-3.873c.031-.558-.15-1.1-.482-1.331-.895-.622-3.008-.86-7.217 4.286 0 0 6.535-.975 8.067.918m1.466 0s.473-1.95.368-3.873c-.031-.558.15-1.1.482-1.331.895-.622 3.008-.86 7.217 4.286 0 0-6.535-.975-8.067.918" fill="#594529"/><path d="M22 7.918c-2.75-1.45-.7-2.25-2.4-3.2a3.207 3.207 0 0 0-2.419-.313 2.267 2.267 0 0 0-.84.207l-.1.052-.059.096c-.33.544-.964 1.989.29 3.662.556.74 1.15 1.119 1.552 1.305.41.192.704.225.736.228l.189.019.134-.134c.343-.344.579-.823.501-1.348C20.91 8.618 22 7.918 22 7.918" fill="#3A2A17"/><path d="M18.428 6.802c-.733-.268-1.466-.206-2.199.279.101.353.28.722.564 1.101.952 1.27 2.007 1.375 2.007 1.375.413-.414.663-1.07-.05-1.788-.295-.296-.353-.65-.322-.967" fill="#F1F2F2"/><path d="M14.792 22.4h.5v-2.938h-.5zm1.584-2.55c-.152 0-.144.216-.144.216v1.73s-.008.217.144.217.144-.217.144-.217v-1.73s.008-.216-.144-.216m0 2.582c-.58 0-.576-.636-.576-.636v-1.73s-.004-.636.576-.636.575.636.575.636v1.73s.004.636-.575.636m1.714-.032h-.335l-.396-2.938h.4l.172 1.528.008.095h.032l.012-.095.184-1.528h.311l.184 1.528.012.095h.033l.007-.095.172-1.528h.4L18.89 22.4h-.335l-.2-1.391-.024-.172h-.016l-.024.172zm2.142-1.984l-.012-.076h-.024l-.012.076-.124.927h.296l-.124-.927zm-.732 1.982l.444-2.938h.528l.444 2.938h-.42l-.08-.6H20l-.08.6h-.42z" fill="#CF1B2B"/></g><path fill="#00247D" mask="url(#b)" d="M0 0h9v26H0z"/><path fill="#CF1B2B" mask="url(#b)" d="M27 0h9v26h-9z"/></g></svg>