<svg width="36" height="26" viewBox="0 0 36 26" xmlns="http://www.w3.org/2000/svg"><title>US-IN</title><g fill="none" fill-rule="evenodd"><path d="M32 26H4a4 4 0 0 1-4-4V4a4 4 0 0 1 4-4h28a4 4 0 0 1 4 4v18a4 4 0 0 1-4 4" fill="#00247D"/><path fill="#FFB200" d="M18 1.2l.36 1.106h1.162l-.94.683.358 1.105-.94-.683-.94.683.359-1.105-.94-.683h1.162zm3.037 14.837l1.035.527.822-.822-.181 1.149 1.035.527-1.148.182-.182 1.148-.527-1.035-1.149.181.822-.822zM22.294 13l1.106-.36v-1.162l.683.94 1.106-.358-.683.94.683.94-1.106-.359-.683.94V13.36zm-8.588 0l-1.106.36v1.162l-.683-.94-1.106.358.683-.94-.683-.94 1.106.359.683-.94v1.162zm1.257 3.037l-.527 1.035.822.822-1.149-.181-.527 1.035L13.4 17.6l-1.148-.182 1.035-.527-.181-1.149.822.822zM18 4.8l.458 1.411h1.484l-1.2.872.458 1.411-1.2-.872-1.2.872.458-1.41-1.2-.873h1.484zm-5.484-2.248l.832.812 1.03-.54-.516 1.042.832.812-1.15-.168-.515 1.042-.196-1.146-1.15-.168 1.029-.54zM8.289 6.297l1.114.332.66-.957.028 1.163 1.114.332-1.097.386.029 1.162-.706-.924-1.097.386.66-.957zm-2.003 5.281l1.14-.224.14-1.154.566 1.016 1.14-.223-.79.851.564 1.016-1.054-.49-.792.852.14-1.154zm.681 5.606l.906-.728-.412-1.086.972.636.907-.727-.306 1.121.973.637-1.161.057-.306 1.121-.412-1.087zm3.208 4.648l.465-1.065-.87-.771 1.156.112.465-1.066.25 1.135 1.157.113-1.002.589.251 1.135-.87-.77zm5.001 2.625l-.084-1.16-1.129-.277 1.077-.439-.084-1.16.75.89 1.076-.44-.614.989.75.888-1.129-.278zm5.648 0l-.613-.987-1.13.278.75-.888-.613-.988 1.077.438.75-.888-.085 1.16 1.077.438-1.129.278zm5.001-2.625l-1.002-.589-.87.771.25-1.135-1.001-.59 1.156-.112.251-1.135.465 1.066 1.157-.112-.87.77zm3.208-4.648l-1.161-.056-.412 1.087-.306-1.121-1.16-.057.972-.637-.306-1.121.907.727.972-.636-.412 1.086zm.681-5.606l-1.054.49.14 1.154-.792-.852-1.054.49.565-1.016-.792-.851 1.141.223.565-1.016.14 1.154zm-2.003-5.281l-.706.923.66.957-1.096-.386-.706.924.029-1.162-1.097-.386 1.114-.332.028-1.163.66.957zm-4.227-3.745l-.196 1.146 1.03.54-1.151.168-.196 1.146-.515-1.042-1.15.168.832-.812-.515-1.043 1.029.54zM20 12.4s-.149.175-.347.481c-.09.153-.207.34-.315.553-.105.213-.22.454-.318.716a8.67 8.67 0 0 0-.472 1.794A15.705 15.705 0 0 0 18.34 18c-.021.7-.017 1.4-.019 2.056l-.02.946-.047.848A10.4 10.4 0 0 1 18 23.6s-.182-.7-.253-1.75l-.048-.848-.019-.946c-.002-.656.002-1.356-.02-2.056-.025-.7-.096-1.4-.208-2.056a8.67 8.67 0 0 0-.472-1.794 7.604 7.604 0 0 0-.318-.716c-.108-.214-.226-.4-.315-.553A5.032 5.032 0 0 0 16 12.4h4z"/><path d="M18 16.4a.4.4 0 0 0-.38.276l-.27.83h-.872a.4.4 0 0 0-.235.723l.705.513-.269.829a.4.4 0 0 0 .616.447l.705-.512.705.512a.402.402 0 0 0 .47 0 .4.4 0 0 0 .146-.447l-.27-.83.695-.504a.399.399 0 0 0-.222-.731h-.874l-.27-.83A.4.4 0 0 0 18 16.4m1.522 1.506h.002M18 16.8l.36 1.106h1.162l-.94.683.358 1.105-.94-.683-.94.683.359-1.105-.94-.683h1.162L18 16.8" fill="#00247D"/><path fill="#FFB200" d="M18 16.8l.36 1.106h1.162l-.94.683.358 1.105-.94-.683-.94.683.359-1.105-.94-.683h1.162zm1.303-4.8c.853-.8.773-1.467.64-2.24l-.64.32v-.96l-.96.64-.32-.96-.64 1.28-.96-.96s-.667 2.187.32 2.88h2.56zm3.661-7.885l-.328-.23-2.8 4 .328.23 2.8-4zm3.52 3.266l-.168-.363-5.2 2.4.168.363 5.2-2.4zm1.537 4.42l-7.6-.8-.042.398 7.6.8.042-.398zM16.164 7.885l-2.8-4-.328.23 2.8 4 .328-.23zm-1.28 1.533l-5.2-2.4-.168.363 5.2 2.4.168-.363zm-6.863 2.78l-.042-.397 7.6-.8.042.398-7.6.8z"/></g></svg>