<svg width="36" height="26" viewBox="0 0 36 26" xmlns="http://www.w3.org/2000/svg" xmlns:xlink="http://www.w3.org/1999/xlink"><title>US-KS</title><defs><path d="M0 5.124a4.8 4.8 0 1 0 9.6 0 4.8 4.8 0 0 0-9.6 0z" id="a"/></defs><g fill="none" fill-rule="evenodd"><path d="M32 26H4a4 4 0 0 1-4-4V4a4 4 0 0 1 4-4h28a4 4 0 0 1 4 4v18a4 4 0 0 1-4 4" fill="#00247D"/><path d="M12.4 13.123a5.6 5.6 0 1 1 11.2 0 5.6 5.6 0 0 1-11.2 0" fill="#F1F2F2"/><g transform="translate(13.2 8)"><mask id="b" fill="#fff"><use xlink:href="#a"/></mask><path fill="#66E2FF" mask="url(#b)" d="M-1.2 5.523h12v-6.8h-12z"/><path d="M6 4.323a1.2 1.2 0 1 1 2.4 0 1.2 1.2 0 0 1-2.4 0" fill="#FFB200" mask="url(#b)"/><path fill="#008542" mask="url(#b)" d="M-1.2 11.523h12v-6h-12z"/><path fill="#7F50FF" mask="url(#b)" d="M-3.2 5.523h15.6l-4-2-1.2.8-2.4-1.6-2 1.6-1.2-.8z"/><path fill="#0089EF" mask="url(#b)" d="M3.6 5.523l6.8 2.4h.8v-2.4z"/><path d="M11.2 9.923c-4.267-3.2-8.533-3.2-12.8 0h12.8z" fill="#896A45" mask="url(#b)"/><path d="M1.605 2.723a3.99 3.99 0 0 1 6.39 0h.958A4.795 4.795 0 0 0 4.8.323a4.794 4.794 0 0 0-4.153 2.4h.958z" fill="#FF7900" mask="url(#b)"/></g><path fill="#FFB200" d="M16 7.123h-1.2l-.8-.8h1.2z"/><path fill="#0089EF" d="M17.2 7.123H16l-.8-.8h1.2z"/><path fill="#FFB200" d="M18.4 7.123h-1.2l-.8-.8h1.2z"/><path fill="#0089EF" d="M19.6 7.123h-1.2l-.8-.8h1.2z"/><path fill="#FFB200" d="M20.8 7.123h-1.2l-.8-.8H20z"/><path fill="#0089EF" d="M22 7.123h-1.2l-.8-.8h1.2z"/><path d="M21.6 5.923c0-1.066-.364-1.6-2.133-1.6 0 0-.234 1.6 2.133 1.6m-7.2 0c0-1.066.364-1.6 2.133-1.6 0 0 .234 1.6-2.133 1.6" fill="#78AD12"/><path fill="#FFB200" d="M20 4.917l-.458.076-.01.387-.465-.045-.154.365-.425-.161-.283.308-.344-.263-.384.221-.23-.337-.447.111-.092-.38-.467-.008.054-.384-.441-.128.195-.352-.372-.234.317-.285-.267-.318.408-.19L16 2.93l.458-.076.01-.387.465.045.154-.366.425.162.283-.308.344.262.384-.22.23.337.447-.111.092.38.467.008-.054.384.441.128-.195.352.372.234-.317.284.267.318-.408.19z"/><path d="M16.8 3.923c0-.442.537-.8 1.2-.8.663 0 1.2.358 1.2.8 0 .442-.537.8-1.2.8-.663 0-1.2-.358-1.2-.8" fill="#7C2525"/><path fill="#FFB200" d="M11.752 24h-.857L9.79 22.46h-.01V24h-.673v-3.264h.674v1.435h.009l1.068-1.435h.788l-1.242 1.55zm1.995-1.59a26.37 26.37 0 0 1-.372-1.275h-.009c-.11.422-.234.852-.367 1.274l-.068.216h.884l-.068-.216zm-1 .792l-.256.798h-.706l1.132-3.264h.908L14.957 24h-.706L14 23.202h-1.252zm4.356.798l-.632-1.325a25.258 25.258 0 0 1-.596-1.347h-.01c.023.472.037.944.037 1.416V24h-.646v-3.264h.958l.632 1.325c.207.435.413.894.596 1.347h.01a29.337 29.337 0 0 1-.037-1.416v-1.256h.646V24h-.958zm3.952-2.264h-.683c0-.34-.197-.537-.568-.537-.298 0-.5.147-.5.358 0 .252.197.335.71.463.615.151 1.147.311 1.147 1.022 0 .619-.514 1.032-1.275 1.032-.81 0-1.32-.404-1.32-1.147h.697c0 .395.215.601.632.601.344 0 .564-.16.564-.417 0-.289-.21-.344-.674-.463-.614-.156-1.173-.303-1.173-1.018 0-.573.49-.967 1.205-.967.816 0 1.238.371 1.238 1.073m2.174.674a26.377 26.377 0 0 1-.372-1.275h-.008c-.11.422-.234.852-.367 1.274l-.07.216h.886l-.07-.216zm-1 .792l-.256.798h-.706l1.132-3.264h.908L24.439 24h-.706l-.252-.798H22.23zm4.769-1.466h-.684c0-.34-.196-.537-.568-.537-.298 0-.5.147-.5.358 0 .252.198.335.71.463.616.151 1.147.311 1.147 1.022 0 .619-.514 1.032-1.274 1.032-.811 0-1.32-.404-1.32-1.147h.697c0 .395.215.601.632.601.344 0 .564-.16.564-.417 0-.289-.211-.344-.674-.463-.614-.156-1.173-.303-1.173-1.018 0-.573.49-.967 1.205-.967.816 0 1.238.371 1.238 1.073"/></g></svg>