<svg width="36" height="26" viewBox="0 0 36 26" xmlns="http://www.w3.org/2000/svg" xmlns:xlink="http://www.w3.org/1999/xlink"><title>US-KY</title><defs><path id="a" d="M19.972 7.806V0H0v7.806h19.972z"/></defs><g fill="none" fill-rule="evenodd"><path d="M32 26H4a4 4 0 0 1-4-4V4a4 4 0 0 1 4-4h28a4 4 0 0 1 4 4v18a4 4 0 0 1-4 4" fill="#00247D"/><path d="M14.559 20.688c-.948-.395-2.219-1.353-3.157-2.615-.809.243-1.49.956-1.719 1.759 1.172 1.547 2.984 2.74 3.864 3.206 1.013.536 2.296-.08 2.302-.431.007-.35-.066-1.41-1.29-1.919" fill="#008542" opacity=".5"/><path d="M11.402 18.073a7.302 7.302 0 0 1-.721-1.17c-.44-.91-.612-1.836-.818-2.808-.063-.296-.144-.572-.207-.85-.063-.276-.102-.69-.41-.737-.33-.05-.481.319-.817.25-.053-.137-.26-.171-.4-.137-.18.044-.194.146-.29.313-.397.691-.026 1.944.152 2.699.285 1.2.693 2.397 1.306 3.47.144.25.308.494.486.729.228-.803.91-1.516 1.72-1.76" fill="#FFB200" opacity=".5"/><path d="M21.441 20.688c.948-.395 2.219-1.353 3.157-2.615.809.243 1.49.956 1.719 1.759-1.172 1.547-2.984 2.74-3.864 3.206-1.013.536-2.296-.08-2.302-.431-.007-.35.066-1.41 1.29-1.919" fill="#008542" opacity=".5"/><path d="M24.598 18.073c.273-.368.522-.757.721-1.17.44-.91.612-1.836.818-2.808.063-.296.144-.572.207-.85.063-.276.102-.69.41-.737.33-.05.481.319.817.25.053-.137.26-.171.4-.137.18.044.194.146.29.313.397.691.026 1.944-.152 2.699-.285 1.2-.693 2.397-1.306 3.47-.144.25-.308.494-.486.729-.228-.803-.91-1.516-1.72-1.76" fill="#FFB200" opacity=".5"/><path d="M24.312 13.288a6.312 6.312 0 1 0-12.625 0 6.312 6.312 0 0 0 12.625 0" fill="#F1F2F2"/><path d="M18 7.218a6.076 6.076 0 0 0-6.07 6.07 6.076 6.076 0 0 0 6.07 6.07 6.076 6.076 0 0 0 6.07-6.07A6.076 6.076 0 0 0 18 7.218m0 12.625a6.562 6.562 0 0 1-6.555-6.555A6.563 6.563 0 0 1 18 6.733a6.563 6.563 0 0 1 6.555 6.555A6.562 6.562 0 0 1 18 19.843m8.8-6.999c.104.146.17.222.183.687h.728c.012-.454.079-.547.182-.688.23-.107.44.471.547.688.302-1.132-.562-1.564-1.088-1.032-.543-.55-1.471-.012-1.098 1.032.105-.22.32-.796.547-.687m.529 1.386c-.506-.802-1.792-.516-1.721.646.575-.887 1.257-.68 1.195.21l.718.127c.239-.852.942-.844 1.195.211.455-1.098-.641-1.765-1.388-1.194m-.309 1.606c-.361-.874-1.67-.83-1.802.337.73-.785 1.352-.44 1.14.415l.684.25c.38-.792 1.074-.674 1.141.414.632-.991-.329-1.853-1.163-1.416m-.578 1.533c-.2-.927-1.502-1.11-1.835.014.856-.646 1.408-.199 1.051.607l.63.364c.505-.703 1.177-.492 1.052.607.804-.878-.003-1.87-.898-1.592M8.107 12.843c.104.14.17.234.182.688h.728c.014-.465.08-.541.182-.687.228-.11.442.466.547.687.373-1.044-.555-1.582-1.098-1.032-.525-.532-1.39-.1-1.088 1.032.107-.217.318-.796.547-.688m.372 2.37l.717-.126c-.061-.891.62-1.098 1.195-.21.07-1.163-1.215-1.449-1.72-.647-.747-.571-1.843.096-1.388 1.194.254-1.055.956-1.063 1.196-.21m.479 1.623l.684-.249c-.212-.855.41-1.2 1.14-.415-.133-1.167-1.44-1.21-1.802-.337-.834-.437-1.795.425-1.163 1.417.067-1.089.76-1.206 1.14-.416m.601.532c-.895-.278-1.703.714-.898 1.592-.125-1.099.547-1.31 1.051-.607l.63-.364c-.356-.806.196-1.253 1.052-.607-.333-1.125-1.635-.941-1.835-.014" fill="#FFB200"/><path d="M25.64 18.726c-.025-.847-1.1-1.073-1.581-.037.231-.11.67-.359.868-.176.025.008.03.037.046.046.002.026.02.033.016.059.064.189-.154.468-.264.63l.558.468c.143-.14.368-.395.575-.37.026-.008.035.008.061.006.012.015.042.014.054.038.212.166.042.632-.023.886.938-.68.527-1.676-.31-1.55m-14.613-.166c.016-.01.021-.04.046-.047.198-.183.636.066.868.176-.482-1.036-1.556-.81-1.581.036-.837-.125-1.248.87-.31 1.55-.065-.253-.235-.719-.023-.886.012-.023.042-.022.054-.037.026.001.035-.014.06-.007.208-.024.433.23.576.37l.558-.467c-.11-.162-.328-.441-.264-.63-.003-.027.013-.033.016-.059" fill="#78AD12"/><path d="M24.57 19.979c.121-.847-.896-1.289-1.56-.343.262-.073.719-.226.892-.014.024.012.024.044.04.057 0 .027.016.037.01.064a.162.162 0 0 1-.004.067c.02.153-.258.41-.36.515l.468.558c.118-.08.42-.316.57-.266a.165.165 0 0 1 .067.009c.028-.002.036.016.062.02.01.018.041.024.05.05.016.02.03.046.04.078.114.184-.126.616-.21.799 1.045-.512.786-1.57-.066-1.594m-1.297 1.061c.29-.906-.732-1.724-1.598-.903 1.065-.13 1.32.533.607 1.052l.364.63c.868-.392 1.204.245.607 1.052 1.13-.356.939-1.628.02-1.832m-1.425.795c.437-.84-.432-1.815-1.418-1.163 1.081.057 1.196.759.415 1.141l.25.685c.794-.204 1.283.316.414 1.14 1.169-.154 1.213-1.446.34-1.803m-1.451.53c.453-.633-.237-1.463-1.204-.912.243.067.83.177.772.422-.12.128-.195.21-.644.303a6.18 6.18 0 0 1-2.642 0c-.449-.094-.525-.175-.644-.303-.059-.245.53-.355.772-.422-.967-.55-1.657.28-1.204.912-.615.427-.35 1.355.822 1.254-.206-.15-.721-.447-.582-.66.147-.079.258-.132.71-.065a7.342 7.342 0 0 0 2.894 0c.452-.067.563-.014.71.064.14.214-.376.51-.582.661 1.173.1 1.437-.827.822-1.254m-8.345-2.554a.156.156 0 0 1-.003-.067c-.007-.027.01-.037.01-.065.015-.012.015-.044.04-.056.172-.212.629-.058.892.014-.665-.946-1.682-.504-1.56.343-.852.025-1.111 1.082-.066 1.594-.084-.183-.324-.615-.21-.8a.215.215 0 0 1 .04-.077c.009-.026.04-.032.05-.05.026-.004.034-.022.062-.02a.165.165 0 0 1 .067-.009c.15-.05.452.185.57.266l.468-.558c-.102-.105-.38-.362-.36-.515m2.274.327c-.866-.82-1.889-.003-1.598.902-.918.204-1.109 1.476.02 1.832-.597-.807-.26-1.444.607-1.052l.364-.63c-.712-.52-.458-1.183.607-1.052m1.245.534c-.986-.652-1.855.324-1.418 1.163-.874.357-.83 1.65.338 1.803-.868-.824-.379-1.344.416-1.14l.249-.685c-.781-.382-.666-1.084.415-1.14" fill="#008542"/><path d="M17.164 16.426s.45.142.66.427c-.194.148-.792.072-1.382 0v-.427h.722z" fill="#49361F"/><path d="M17.206 12.532s.366 1.393.507 1.873c.141.481-.62 2.366-.62 2.366l-.465-.214.578-4.025z" fill="#49361F"/><path d="M18.573 10.812h1.015v1.138c0 .34-.017.639.059.97.068.296.155.604.111.91-.032.227-.254 3.073-.17 3.073h-.677c-.028 0-.294-3.39-.282-3.652.023-.502-.135-.998-.104-1.497.02-.311.048-.624.048-.942" fill="#231F1F"/><path d="M18.836 16.426s-.45.142-.66.427c.194.148.792.072 1.382 0v-.427h-.722z" fill="#231F1F"/><path d="M18.907 16.77s-.423.255-.62.59c.383.174.823.012 1.297-.348v-.422l-.677.18z" fill="#231F1F"/><path d="M17.427 10.812h-1.015v1.138c0 .34.017.639-.059.97-.068.296-.155.604-.111.91.032.227.254 3.073.17 3.073h.677c.028 0 .294-3.39.282-3.652-.023-.502.135-.998.104-1.497-.02-.311-.048-.624-.048-.942" fill="#594529"/><path d="M17.093 16.77s.423.255.62.59c-.383.174-.823.012-1.297-.348v-.422l.677.18z" fill="#594529"/><path d="M16.503 10.463l.016-.172c-.47-.235.049-1.273.52-1.038.204.098.348.224.331.426a.162.162 0 0 0 .052.136l.084.074a.052.052 0 0 1-.024.09l-.084.016-.028.11.046.186-.182.014.039.085-.339.422-.43-.35zm2.954 0l-.016-.172c.471-.235-.048-1.273-.518-1.038-.205.098-.35.224-.332.426a.162.162 0 0 1-.052.136l-.084.074a.052.052 0 0 0 .024.09l.084.016.028.11-.047.186.182.014-.038.085.338.422.431-.35z" fill="#FFE1C7"/><path d="M17.499 11.035l-.062 1.457-.266-.29 1.26.267a.338.338 0 1 1-.14.662l-1.26-.268-.194-.04-.072-.25-.406-1.4a.582.582 0 1 1 1.14-.138" fill="#594529"/><path d="M19.562 11.199l-.39.938-.115.278-.231-.046-1.595-.325a.293.293 0 1 1 .117-.575l1.595.325-.347.231-.011-1.015a.508.508 0 1 1 .977.189" fill="#231F1F"/><path d="M17.246 11.466c.11.131.152.315.16.524-.075.08-.176.112-.32.077-.205-.185-.265-.346-.199-.485.083-.084.205-.119.359-.116m1.388 1.026c.11.132.151.315.159.525-.074.078-.176.112-.319.076-.205-.185-.265-.345-.2-.484.084-.084.206-.12.36-.117" fill="#FFE1C7"/><path d="M16.629 9.175c.145-.024.952-.051.802.21-.142.246-.573-.06-.716.258a.575.575 0 0 0-.063.28c.011.12.12.24-.025.322-.11.06-.222.066-.286-.026-.1-.144-.103-.351-.109-.518-.008-.248.152-.484.397-.526" fill="#896A45"/><path d="M18.544 9.388c.032-.23.43-.283.592-.215.202.084.477.196.508.426.023.165.064.599-.198.424-.184-.124-.078-.414-.277-.512-.111-.055-.567.105-.582-.08-.105 0-.05.104-.071-.022-.017-.097.057-.17.155-.162" fill="#231F1F"/><path d="M20.705 9.467a5.023 5.023 0 0 0-5.41 0l-.524-.817a5.997 5.997 0 0 1 6.458 0l-.524.817zm0 7.642a5.023 5.023 0 0 1-5.41 0l-.524.817a5.997 5.997 0 0 0 6.458 0l-.524-.817z" fill="#231F1F"/><g opacity=".75" transform="translate(8 2)"><mask id="b" fill="#fff"><use xlink:href="#a"/></mask><path d="M3.271 6.42c1.66-2.32 4.296-3.636 7.053-3.52 2.97.125 5.655 1.89 7.065 4.642.045.087.082.176.124.264l2.459-1.287c-.055-.116-.105-.234-.164-.35C17.937 2.517 14.373.175 10.434.01 6.776-.144 3.278 1.601 1.076 4.681A11.92 11.92 0 0 0 0 6.517l2.464 1.289a8.88 8.88 0 0 1 .807-1.386" fill="#FFB200" mask="url(#b)"/></g></g></svg>