<svg width="36" height="26" viewBox="0 0 36 26" xmlns="http://www.w3.org/2000/svg"><title>US-LA</title><g fill="none" fill-rule="evenodd"><path d="M32 26H4a4 4 0 0 1-4-4V4a4 4 0 0 1 4-4h28a4 4 0 0 1 4 4v18a4 4 0 0 1-4 4" fill="#1A53AD"/><path d="M18 15.434c-2.13 0-3.855-.597-3.855-1.334 0-.736 1.726-1.333 3.855-1.333 2.13 0 3.855.597 3.855 1.333 0 .737-1.726 1.334-3.855 1.334" fill="#896A45"/><path d="M24.199 5.52c-.246-.888-1.455-1.019-1.895-.208l-2.754 5.07a8.292 8.292 0 0 0-.634-1.885c-.089-.224-.15-.698-.232-1.14a.315.315 0 0 1 .408-.353c2.06.65 1.514-3.676-1.14-3.405a1.83 1.83 0 0 0-.143.02c-2.99.607-.198 4.99-1.08 7.278l-3.033-5.585c-.44-.81-1.649-.68-1.895.209-.913 3.298-2.387 6.445-4.42 9.442l1.735-.11a2.51 2.51 0 0 0 1.723-.843l.706-.799.837-.055a2.452 2.452 0 0 0 1.907-1.132l.13-.204c.228 4.16 6.861 5.489 7.162 0l.13.204a2.452 2.452 0 0 0 1.907 1.132l.837.055.706.8c.44.497 1.06.8 1.723.842l1.736.11c-2.034-2.997-3.508-6.144-4.421-9.442" fill="#F1F2F2"/><path d="M18.351 6.091l1.437.894s.347 3.418.47 4.36c.121.943-.784 1.526-.954 1.526 0 0-.054-.364.292-.62l-1.245-6.16zm1.943.285c.283.208.64-.82.367-2.204-.055-.438.108-.711.108-.711l-.423.42-.25-.294-.219.457-.437-.31v.529l-.42-.055s.746 1.02.875 1.403c.128.383.05.51.399.765" fill="#FFB200"/><path d="M19.018 5.885a.291.291 0 1 1 .583 0 .291.291 0 0 1-.583 0m-4.599 5.935c0 5.597 7.162 5.597 7.162 0l-.738 1.792v-.62l-.729 1.076-.22-.675-.584.525-.581-.689-.729.802-.437-.638-.347.525-.856-1.047-.073.777-.802-1.075.146 1.345-1.212-2.098zm4.535-2.742s-2.171-2.203-.603-2.986l.603 2.986z" fill="#939698"/><path d="M18.364 6.084s.064.082.16.234a6.8 6.8 0 0 1 .358.65c.134.276.27.608.396.97.116.366.222.76.313 1.158.098.396.18.795.253 1.17.036.187.065.37.093.542a1.758 1.758 0 0 1-.175 1.217c-.086.158-.155.235-.155.235l-.023-.018s.062-.08.134-.24c.073-.158.153-.4.153-.696a1.8 1.8 0 0 0-.069-.472c-.04-.17-.08-.348-.124-.532a22.19 22.19 0 0 0-.312-1.145c-.116-.386-.253-.765-.376-1.122l-.324-.979c-.189-.574-.328-.958-.328-.958l.026-.014z" fill="#E89B00"/><path d="M15.87 15.002c-.075.087-.15.168-.211.244a.396.396 0 0 1-.395.135l-.025-.006a.394.394 0 0 1-.262-.49l.069-.228-.035.032a.151.151 0 0 1-.134.034.194.194 0 0 1-.058-.028.148.148 0 0 1-.056-.1.147.147 0 0 1 .03-.11l.528-.678a.222.222 0 0 1 .224-.08.222.222 0 0 1 .17.202l.003.045c.315-.12.57.178.494.48-.048.193-.195.379-.342.548" fill="#939698"/><path d="M16.237 13.182s.05-.092.113-.234c.03-.071.068-.153.103-.243l.106-.281c.064-.194.126-.388.163-.535.039-.148.055-.248.055-.248a.113.113 0 1 1 .22.051s-.028.098-.06.247-.062.35-.09.552l-.03.3c-.01.095-.011.185-.016.263-.006.154-.003.26-.003.26a.298.298 0 1 1-.56-.132" fill="#FFB200"/><path d="M16.877 13.964a.611.611 0 0 0-.18-.994.61.61 0 0 0-.82.76.293.293 0 0 1-.159.37.981.981 0 0 0-.597.851.988.988 0 0 0 1.947.278.98.98 0 0 0-.212-.863.292.292 0 0 1 .021-.402" fill="#F1F2F2"/><path d="M16.617 12.825a.723.723 0 0 0-.847.942.18.18 0 0 1-.096.229 1.097 1.097 0 0 0 .182 2.08 1.098 1.098 0 1 0 1.086-1.784.179.179 0 0 1 .015-.246.724.724 0 0 0-.34-1.22" fill="#939698"/><path d="M16.877 13.964a.611.611 0 0 0-.18-.994.61.61 0 0 0-.82.76.293.293 0 0 1-.159.37.981.981 0 0 0-.597.851.988.988 0 0 0 1.947.278.98.98 0 0 0-.212-.863.292.292 0 0 1 .021-.402" fill="#F1F2F2"/><path d="M14.889 14.606c.014.01.033.01.046-.002l.337-.302-.187.615a.28.28 0 0 0 .486.258l.032-.04.486-.598a.292.292 0 1 0-.454-.369l-.017.022-.014-.223-.001-.03a.107.107 0 0 0-.114-.101.107.107 0 0 0-.078.04l-.529.679a.036.036 0 0 0 .007.05" fill="#939698"/><path d="M15.342 14.968c.112.032.226.006.29-.059l.03-.03.454-.456a.198.198 0 0 0 .037-.055.292.292 0 0 0-.518-.2l-.017.022-.014-.224-.002-.03a.107.107 0 0 0-.191-.06l-.417.535.302-.214-.037.117.013-.012-.137.452c.01.093.09.18.207.214" fill="#F1F2F2"/><path d="M20.13 15.002c.075.087.15.168.211.244.095.117.25.17.395.135l.025-.006a.394.394 0 0 0 .262-.49l-.069-.228.035.032a.151.151 0 0 0 .134.034.194.194 0 0 0 .058-.028.148.148 0 0 0 .056-.1.147.147 0 0 0-.03-.11l-.528-.678a.222.222 0 0 0-.224-.08.222.222 0 0 0-.17.202l-.003.045c-.315-.12-.57.178-.494.48.048.193.195.379.342.548" fill="#939698"/><path d="M19.763 13.182s-.05-.092-.113-.234c-.03-.071-.068-.153-.103-.243l-.106-.281a7.951 7.951 0 0 1-.163-.535c-.039-.148-.055-.248-.055-.248a.113.113 0 1 0-.22.051s.028.098.06.247.062.35.09.552l.03.3c.01.095.011.185.016.263.006.154.003.26.003.26a.298.298 0 1 0 .56-.132" fill="#FFB200"/><path d="M19.123 13.964a.611.611 0 0 1 .18-.994.61.61 0 0 1 .82.76.293.293 0 0 0 .159.37.98.98 0 0 1 .597.851.988.988 0 0 1-1.947.278.98.98 0 0 1 .212-.863.292.292 0 0 0-.021-.402" fill="#F1F2F2"/><path d="M19.383 12.825a.724.724 0 0 0-.34 1.22.18.18 0 0 1 .015.247 1.098 1.098 0 0 0 1.219 1.744 1.1 1.1 0 0 0 .05-2.04.18.18 0 0 1-.097-.229.723.723 0 0 0-.846-.942" fill="#939698"/><path d="M19.123 13.964a.611.611 0 0 1 .18-.994.61.61 0 0 1 .82.76.293.293 0 0 0 .159.37.98.98 0 0 1 .597.851.988.988 0 0 1-1.947.278.98.98 0 0 1 .212-.863.292.292 0 0 0-.021-.402" fill="#F1F2F2"/><path d="M21.118 14.555l-.529-.678a.107.107 0 0 0-.192.06l-.001.03-.014.223-.017-.022a.292.292 0 1 0-.454.368l.486.6.032.04a.28.28 0 0 0 .485-.258l-.186-.616.337.302a.036.036 0 0 0 .046.002.036.036 0 0 0 .007-.051" fill="#939698"/><path d="M20.658 14.968c-.112.032-.226.006-.29-.059l-.03-.03-.454-.456a.198.198 0 0 1-.037-.055.292.292 0 0 1 .518-.2l.017.022.014-.224.002-.03a.107.107 0 0 1 .191-.06l.417.535-.302-.214.037.117-.013-.012.137.452c-.01.093-.09.18-.207.214" fill="#F1F2F2"/><path d="M18.735 15.456a.396.396 0 0 1-.354-.22l-.36-.74A.501.501 0 0 1 18 14.44a.464.464 0 0 1-.022.055l-.36.74a.396.396 0 0 1-.353.221h-.025a.394.394 0 0 1-.368-.418l.016-.237-.027.038a.15.15 0 0 1-.123.064.148.148 0 0 1-.14-.098.148.148 0 0 1 .004-.114l.36-.78a.222.222 0 0 1 .2-.129c.097 0 .184.065.212.157l.013.043a.407.407 0 0 1 .403-.029.404.404 0 0 1 .21.244.405.405 0 0 1 .613-.215l.013-.042a.223.223 0 0 1 .274-.149.22.22 0 0 1 .137.12l.36.78a.15.15 0 0 1-.072.198.199.199 0 0 1-.063.014.15.15 0 0 1-.123-.064l-.027-.038.015.237a.39.39 0 0 1-.367.418h-.025" fill="#939698"/><path d="M17.712 13.093s.028-.101.057-.253c.012-.077.031-.165.044-.26l.039-.299c.019-.202.036-.406.037-.558.004-.152-.002-.254-.002-.254a.114.114 0 1 1 .226 0s-.006.102-.003.254c.002.152.02.356.038.558l.04.298c.012.096.03.184.043.26.03.153.057.254.057.254a.299.299 0 1 1-.576 0" fill="#FFB200"/><path d="M18.513 13.709a.611.611 0 0 0-.403-.927.61.61 0 0 0-.624.926.292.292 0 0 1-.07.397.982.982 0 0 0-.388.965.987.987 0 0 0 1.96-.172.98.98 0 0 0-.404-.793.292.292 0 0 1-.07-.396" fill="#F1F2F2"/><path d="M18 12.66a.723.723 0 0 0-.61 1.11.18.18 0 0 1-.042.244A1.098 1.098 0 0 0 18 15.998c.607 0 1.1-.494 1.1-1.1a1.1 1.1 0 0 0-.449-.884.179.179 0 0 1-.042-.244.723.723 0 0 0-.609-1.11" fill="#939698"/><path d="M18.513 13.709a.611.611 0 0 0-.403-.927.61.61 0 0 0-.624.926.292.292 0 0 1-.07.397.982.982 0 0 0-.388.965.987.987 0 0 0 1.96-.172.98.98 0 0 0-.404-.793.292.292 0 0 1-.07-.396" fill="#F1F2F2"/><path d="M16.723 14.786a.037.037 0 0 0 .045-.012l.259-.37-.041.64a.28.28 0 0 0 .53.141l.023-.045.337-.694a.292.292 0 0 0-.526-.256l-.012.025-.064-.214-.008-.029a.108.108 0 0 0-.2-.014l-.36.78a.034.034 0 0 0 .017.048m2.554 0a.037.037 0 0 1-.045-.012l-.259-.37.041.64a.28.28 0 0 1-.53.141l-.023-.045-.337-.694a.292.292 0 0 1 .526-.256l.012.025.064-.214.008-.029a.108.108 0 0 1 .2-.014l.36.78c.01.018.001.04-.017.048" fill="#939698"/><path d="M18.868 13.9a.108.108 0 0 0-.134.072l-.008.029-.064.214-.012-.025a.292.292 0 0 0-.55.077.19.19 0 0 0 .024.062l.337.547.022.036a.3.3 0 0 0 .27.124c.122-.006.22-.073.25-.161l-.03-.472.01.014-.01-.121.245.277-.283-.615a.109.109 0 0 0-.067-.058m-1.621 1.136c.117.006.222-.046.27-.124l.022-.036.337-.547a.203.203 0 0 0 .024-.062.291.291 0 0 0-.55-.077l-.012.025-.064-.214-.009-.03a.107.107 0 0 0-.133-.071.108.108 0 0 0-.067.058l-.284.615.246-.277-.01.121.01-.014-.03.472c.03.088.128.155.25.16" fill="#F1F2F2"/><path d="M22.934 15.052c0-.66-.607-1.252-1.574-1.67a2.258 2.258 0 0 1-.017.056c.324.195.512.421.512.662 0 1.01-2.675 1.334-3.855 1.334-1.034 0-3.856-.306-3.856-1.334 0-.24.189-.467.513-.662l-.018-.056c-.966.418-1.573 1.01-1.573 1.67 0 .573.458 1.096 1.21 1.497.585.351 2.004.789 3.724.789 1.741 0 3.243-.477 3.67-.762.784-.404 1.264-.938 1.264-1.524" fill="#E89B00"/><path fill="#F1F2F2" d="M10.833 17.195H7.38l.4.9-.4.9h2.449z"/><path fill="#939698" d="M8.824 17.972l2.01-.776-1.006 2.033-2.039.455z"/><path fill="#F1F2F2" d="M25.167 17.195h3.453l-.4.9.4.9h-2.449z"/><path fill="#939698" d="M27.176 17.972l-2.01-.776 1.006 2.033 2.039.455z"/><path d="M18 22.54a19.71 19.71 0 0 1-10.21-2.856l1.034-1.712a17.689 17.689 0 0 0 18.352 0l1.034 1.712A19.713 19.713 0 0 1 18 22.539" fill="#FFF"/></g></svg>