<svg width="36" height="26" viewBox="0 0 36 26" xmlns="http://www.w3.org/2000/svg"><title>US-ME</title><g fill="none" fill-rule="evenodd"><path d="M32 26H4a4 4 0 0 1-4-4V4a4 4 0 0 1 4-4h28a4 4 0 0 1 4 4v18a4 4 0 0 1-4 4z" fill="#00247D"/><path d="M25.433 6.284c-.022.315-.789.519-1.713.455-.925-.063-1.656-.37-1.635-.685.022-.315.789-.519 1.713-.455.925.063 1.656.37 1.635.685" fill="#F1F2F2"/><path d="M24.621 5.56c-.001.018-.02.334-.03.351-.085.126-.42-.096-.828-.124-.405-.027-.762.12-.831-.016-.01-.02.01-.307.012-.327.011-.158.395-.26.858-.228.464.032.83.185.82.343" fill="#F1F2F2"/><path d="M21.487 15.15l.005-.057c-.875 2.15-2.322 1.787-3.677 1.62h-.003c-1.355.167-2.802.53-3.677-1.62l.004.057c-.03-.434-.188-.859.493-1.094.377-.124.445.024.335-.628l.126-.123s.906-1.05.004-2.579c-1.052-.682-.648-2.04.945-1.758.764.125.983.158 1.771.23a18.74 18.74 0 0 0 1.771-.23c1.594-.282 1.998 1.076.946 1.758-.903 1.53.003 2.579.003 2.579l.127.123c-.11.652-.042.504.335.628.68.235.524.66.492 1.094m.08-2.134c-.01-.075.042-.23.018-.307-.03-.105-.256-.15-.474.003l.126.124c-.154.054-.727-.734-.078-.96.29-.11.557-.073.054-.624 1.422-1.406-.087-3.155-.883-3.044-.153.015-.295.073-.447.087-.12.01-.216-.005-.216-.005-.438-.112-.906-.893-1.854-.757-.948-.136-1.415.645-1.853.757 0 0-.097.014-.217.005-.151-.014-.293-.072-.446-.087-.796-.11-2.305 1.638-.884 3.044-.502.55-.234.514.055.624.649.226.076 1.014-.079.96l.127-.124c-.218-.153-.444-.108-.475-.003-.024.077.03.232.018.307-.018.24-.87.694-.786 2.158.092 1.059.704 1.696 1.542 2.08 1.868.688 1.84-.322 2.25 1.003.192.637.575.81.748.707.173.103.557-.07.75-.707.409-1.325.38-.315 2.248-1.002.838-.385 1.45-1.022 1.543-2.081.084-1.464-.768-1.917-.786-2.158" fill="#FFF066"/><path d="M20.53 10.726c1.052-.682.648-2.04-.946-1.758-.763.125-.982.158-1.77.23a18.627 18.627 0 0 1-1.772-.23c-1.594-.282-1.998 1.076-.945 1.758.067.114.121.224.17.332h5.093a3.49 3.49 0 0 1 .17-.332" fill="#66E2FF"/><path d="M20.36 11.058h-5.094c.58 1.3-.118 2.182-.167 2.24h5.43c-.05-.058-.749-.94-.168-2.24" fill="#008542"/><path d="M20.995 14.056c-.377-.124-.446.024-.335-.628l-.127-.123-.005-.007h-5.43l-.004.007-.127.123c.11.652.042.504-.335.628-.68.235-.524.66-.493 1.094l-.004-.057c.074.181.152.338.234.485h6.89c.08-.147.16-.304.233-.485l-.005.057c.032-.434.188-.859-.492-1.094" fill="#78AD12"/><path d="M14.369 15.577c.885 1.6 2.202 1.29 3.443 1.136h.003c1.241.153 2.558.464 3.443-1.136h-6.89z" fill="#0089EF"/><path d="M24.503 17.55l-.73-.694a.154.154 0 0 1-.04-.16l.62-1.873.158-.476a1.18 1.18 0 0 0 .059-.351l.026-1.987-1.54.02.334 1.828c.028.155.025.313-.01.467l-.087.384-.522 2.306a.328.328 0 0 0 .226.387l1.355.408a.154.154 0 0 0 .151-.26" fill="#F1F2F2"/><path d="M23.915 16.952l-.206-1.266-.259-.933-.012-.262.274-1.933-1.7-.023.385 2.149s-.016.092-.022.242c.042.218.135.556.346.89.352.558.497 1.241.497 1.241l-.213.27.052.188.577.134.499-.432-.218-.265z" fill="#F1F2F2"/><path d="M24.647 8.012c-.31-.1.057 1.554.382 2.323-.288 0-.64.263-1.044.369-.333.089-.13.859.202.77l1.624-.56s.453-.327.32-.802c-.118-.419-.817-1.883-1.484-2.1" fill="#1A53AD"/><path d="M20.858 12.292a.398.398 0 1 1 .251.756c-.208.07-.638.142-.743-.172-.07-.21.283-.514.492-.584" fill="#FFE1C7"/><path d="M24.887 8.495v-.02l-.006.004a.224.224 0 0 0-.111-.155l-.637-.439-.52.47-.407-.568-1.063.284.006.044c.038.237.087.363.12.602l.074 1.022c.074.536.05 1.083-.07 1.61l-.255 1.127c-.009.352 2.735.427 2.743.075l-.158-1.185c-.06-.456-.05-.92.03-1.374l.253-1.442a.195.195 0 0 0 0-.054" fill="#F1F2F2"/><path d="M24.175 7.663l-.023-.245c0-.002.088-.056.096-.063a.434.434 0 0 0 .077-.086.534.534 0 0 0 .084-.222.84.84 0 0 0-.003-.253c-.006-.038-.003-.081-.019-.115-.017-.04-.055-.067-.074-.106-.032-.068-.081-.123-.124-.184a.698.698 0 0 0-.176-.178c-.03-.02-.071-.034-.105-.048-.047-.02-.097-.053-.145-.062-.08-.016-.174-.004-.257-.012-.098-.008-.194.01-.29.016-.201.01-.292.27-.278.439a.23.23 0 0 1-.074.195l-.12.105a.074.074 0 0 0 .034.128l.12.023.04.159-.066.264.26.02-.055.121c-.114.593.137.668.49 1.201.43-.471.61-.526.608-1.097" fill="#FFE1C7"/><path d="M10.431 17.398l.834-.564a.154.154 0 0 0 .067-.151l-.302-1.95c.321.187.71.174 1.064.062l.134 2.36a.328.328 0 0 1-.286.345l-1.405.179a.155.155 0 0 1-.106-.281m3.438-2.658c.031.22.052.57-.039.953-.153.642-.068 1.336-.068 1.336l.289.186.011.195-.502.313-.612-.246.12-.322-.215-1.265-.063-1.066c.335.174.748.133 1.079-.085" fill="#9E7A1F"/><path d="M11.444 10.99c-.514-.213-.672-1.285-.464-3.088a.307.307 0 0 1 .221-.258c.84-.24 1.677-.176 2.512.055-.094.828-.072 1.852.077 3.004-.435.288-1.172.408-2.346.287" fill="#F1F2F2"/><path d="M13.79 10.703s.257.686.242 1.304c-.015.619-.298 2.04-.298 2.04s.241 1.056.224 1.4a77.694 77.694 0 0 0-.036 1.404c.004.24-1.096.258-1.1.018 0 0 .034-.768-.081-1.034-.115-.267.016-.89-.084-1.285-.1-.395-.104-1.051-.256-1.306 0 0-.141.878-.357 1.115v.224s.337 1.046.375 2.286c-.453.05-.88.046-1.164-.24 0 0 .018-.684-.414-2.003a1.449 1.449 0 0 1 .111-1.02c.166-.343.37-1.632.326-2.11-.044-.479.166-.506.166-.506l.937-.256 1.41-.03z" fill="#594529"/><path d="M11.771 7.46l.023-.245c-.672-.336.069-1.818.74-1.482.293.14.498.32.475.608a.23.23 0 0 0 .073.195l.12.105a.074.074 0 0 1-.034.128l-.12.023-.04.159.067.264-.26.02.054.121-.482.602-.616-.498z" fill="#FFE1C7"/><path fill="#231F1F" d="M22.28 11.568l-.006-.566 2.33.018-.008.643z"/><path fill="#F1F2F2" d="M12.87 7.356l.489.254-.407 1.074-.506-.396-.42.323-.714-.946.516-.334.559.627z"/><path d="M18.885 4.054a.969.969 0 0 0-.352 1.083.097.097 0 0 1-.149.108.968.968 0 0 0-1.139 0 .097.097 0 0 1-.148-.108.969.969 0 0 0-.352-1.083.097.097 0 0 1 .056-.175c.42 0 .792-.27.922-.67a.097.097 0 0 1 .184 0c.13.4.502.67.921.67.094 0 .133.12.057.175m1.85-.833a2.936 2.936 0 0 1-2.792-2.028.135.135 0 0 0-.256 0 2.935 2.935 0 0 1-2.792 2.028.135.135 0 0 0-.08.244 2.935 2.935 0 0 1 1.067 3.282.135.135 0 0 0 .208.15 2.934 2.934 0 0 1 3.45 0 .135.135 0 0 0 .208-.15 2.934 2.934 0 0 1 1.066-3.282.135.135 0 0 0-.08-.244" fill="#FFF066"/><path fill="#FFF066" d="M17.815 3.38l.208.639h.672l-.544.395.208.64-.544-.396-.544.396.207-.64-.544-.395h.673z"/><path d="M15.36 7.717c-.365-.07-.542-.471-.384-.808a2.15 2.15 0 0 0 .19-1.033l.011.004c1.674.642 3.045-.618 5.093-.224.367.07.54.471.385.811a2.565 2.565 0 0 0-.209 1.023c-1.65-.632-3.044.617-5.085.227" fill="#CF1B2B"/><path d="M16.328 5.88c0-.17-.258-.309-.575-.309-.318 0-.576.139-.576.31 0 .17.258.308.576.308.317 0 .575-.138.575-.309m4.118 1.61c0-.17-.257-.309-.575-.309-.318 0-.576.139-.576.31 0 .17.258.308.576.308.318 0 .575-.138.575-.309" fill="#CF1B2B"/><path fill="#0089EF" d="M15.121 20.082h-3.642l-.576-2.013h4.218z"/><path fill="#66E2FF" d="M14.158 18.583l.963-.514v2.358h-.963z"/><path fill="#0089EF" d="M20.509 20.082h3.642l.575-2.013H20.51z"/><path fill="#66E2FF" d="M21.471 18.583l-.962-.514v2.358h.962z"/><path d="M17.815 20.098a5.155 5.155 0 0 1-3.657-1.515l-1.981 1.982a7.949 7.949 0 0 0 5.638 2.335 7.948 7.948 0 0 0 5.638-2.335l-1.982-1.982a5.155 5.155 0 0 1-3.656 1.515" fill="#66E2FF"/><path fill="#1A53AD" d="M21.825 7.906l-.354 2.618-.613 1.768.613.556.805-2.206.587-1.755z"/><path d="M22.69 11.598a13.59 13.59 0 0 0 .045-2.284l-.049-1.448a6.668 6.668 0 0 0-.016-.21l-.853.204.008.046c.044.252.102.385.141.638l.09 1.082a4.286 4.286 0 0 1-.083 1.706l-.304 1.194c-.003.128.386.221.894.274l.127-1.202zm2.377-3.31l-.007.004a.24.24 0 0 0-.132-.164l-.536-.332-.154 1.878c-.052.643-.058 1.3-.018 1.948l.073 1.191c.365-.037.623-.104.626-.208.141-1.71.2-3.153.147-4.238.004-.02.002-.038.001-.057v-.022" fill="#1A53AD"/><path d="M26.912 15.258l-.875.965c-.034.102.03.204.142.292l-.082.06c-.106.07-.22.132-.342.18-.061.029-.125.045-.188.068-.065.013-.13.035-.197.042-.067.01-.134.02-.202.02-.068.006-.137 0-.205-.003l-.06-.005.71-4.814.19.014c.088.008.173.008.254.01.08.002.158 0 .228-.003l.074-.005a.469.469 0 0 0 .898-.122.476.476 0 0 0-.402-.541.468.468 0 0 0-.422.163l-.07-.025a3.213 3.213 0 0 0-.217-.069c-.078-.022-.16-.046-.245-.064-.086-.019-.174-.042-.264-.058l-.274-.047-.276-.034c-.091-.011-.182-.014-.27-.021-.087-.008-.172-.008-.253-.009-.08-.003-.157 0-.228.003-.024 0-.043.002-.065.004a.469.469 0 0 0-.897.124.476.476 0 0 0 .402.541.468.468 0 0 0 .42-.162l.061.022c.068.023.14.048.218.069.078.022.16.047.246.064l.186.042-.71 4.814-.06-.012c-.066-.017-.133-.032-.197-.058a1.4 1.4 0 0 1-.187-.077c-.062-.026-.118-.066-.176-.097-.055-.04-.111-.074-.16-.119a1.807 1.807 0 0 1-.276-.272l-.034-.044c.196-.06.343-.166.329-.305l-.65-1.129a.096.096 0 0 0-.175.018l-.406 1.238c.018.173.268.245.538.237.023.068.052.133.081.206.033.068.067.14.107.208.08.138.172.275.278.4.052.064.11.117.168.178.06.05.12.112.185.157.064.05.13.101.198.142.068.047.139.083.21.121.07.042.15.061.222.11.037.03.069.045.096.117.013.034.026.072.04.1a.116.116 0 0 0 .022.035.038.038 0 0 0 .013.01l.006.003.004.001h.001l.01.003c.04.009.09-.059.138-.118.048-.061.087-.065.13-.085.081-.025.159-.02.239-.04a1.95 1.95 0 0 0 .235-.055c.078-.02.155-.05.231-.079.076-.025.15-.066.223-.097.073-.042.144-.076.212-.123a2.634 2.634 0 0 0 .544-.47c.05-.062.097-.117.14-.176l.014-.02c.305.11.658.124.722-.072l-.133-1.296a.097.097 0 0 0-.167-.055" fill="#939698"/><path d="M23.713 11.093a.412.412 0 1 1 .824 0 .412.412 0 0 1-.824 0" fill="#FFE1C7"/><path d="M24.175 7.663c.121-.317.559.344.559.344s-.01.417-.396.753l-.402-.165-.34.368-.396-.418-.338.139s-.401-.478-.332-.994c0 0 .272-.18.547-.131 0 0 .04.584.49 1.201 0 0 .38-.5.608-1.097" fill="#F1F2F2"/><path d="M23.068 6.19c.141.045.319-.003.464-.017a1.95 1.95 0 0 1 .265-.006c.11.004.19.084.25.17a.417.417 0 0 1 .051.33.67.67 0 0 0-.019.252c.015.083.102.244.172.29.025.015.134.033.162.012.022-.016.041-.106.05-.129.03-.082.03-.16.042-.245.01-.075.03-.151.033-.228.002-.07-.01-.14-.017-.21-.006-.052-.014-.107-.018-.16-.04-.002-.077-.029-.112-.042l-.162-.058c-.134-.047-.284-.055-.423-.076a5.009 5.009 0 0 0-.723-.039c-.044 0-.19-.013-.183.067.004.053.129.076.168.089m-11.011.125c-.017.042-.071.057-.11.062-.058.007-.104.023-.13.083-.037.082.022.1.09.117.07.019.087.06.101.126.02.096.069.198.158.248a.606.606 0 0 0 .556-.01.189.189 0 0 1 .102-.036c.036-.004.057-.025.092-.025.027.001.063.019.089.025-.003.038.055.094.07.135.013.039.037.08.045.121.018.1-.084.096-.159.1-.273.012-.543-.03-.816-.03-.165 0-.315.007-.464-.076-.133-.075-.168-.252-.173-.392a.804.804 0 0 1 .032-.308c.016-.039.02-.031.05-.05.044-.03.086-.065.128-.098.066-.052.143-.126.228-.14.1-.018.15.051.111.148" fill="#231F1F"/><path d="M11.55 6.908c.01-.416.202-.693.902-.693s1.218-.073 1.218-.324c0-.252-.486-.293-.736-.293-.045-.268-1.475-.023-1.429.244l.024.165c-.938.464-.762.735.022.9" fill="#896A45"/><path d="M11.092 7.732c-.473.078-1.162 0-1.529.335-.29.264-.464.82.004.96.333.101.777.191 1.13.229.22.023.44.006.625-.103.296-.173.332-.524.438-.819.051-.143.05-.404-.045-.534-.161-.22-.411-.103-.623-.068" fill="#F1F2F2"/><path d="M9.718 8.722c-.258.032-.308.128-.315.37-.01.33.248.465.47.67.283.259.603.489.855.765.226.248.198.46.27.768.08.339.386.226.532.018.376-.539-.11-.783-.421-1.132a3.292 3.292 0 0 1-.481-.71c-.189-.357-.42-.812-.91-.75" fill="#FFE1C7"/><path d="M13.999 10.662l-.18-.187c-.06-.071-.113-.1-.182-.163-.06-.062-.165-.114-.259-.183-.106-.053-.213-.128-.346-.17-.127-.055-.272-.087-.422-.125-.155-.02-.315-.054-.485-.057-.168-.015-.345-.003-.52.007a5.043 5.043 0 0 0-.53.07c-.177.02-.349.066-.518.097-.333.084-.647.172-.917.25l-.902.287.213-.153c.136-.099.335-.23.583-.375.248-.146.547-.3.883-.44.171-.063.343-.142.53-.196.184-.06.377-.105.573-.145.197-.034.397-.07.6-.077.2-.017.403-.008.6.008.195.032.386.062.563.123.18.045.338.131.487.197.14.088.27.153.378.249.106.086.218.171.265.226l.18.187-.594.57z" fill="#939698"/><path d="M14.269 8.744a4.744 4.744 0 0 0-.284-.807c-.048-.106-.141-.247-.271-.26-.531-.052-.181.687-.394.871-.074.064-.153.026-.255.04-.274.036-.618.342-.562.646.045.245.366.18.567.266.354.153.855.49 1.27.319.265-.109-.015-.85-.071-1.075" fill="#F1F2F2"/><path d="M13.09 8.784c-.05.258-.228.495-.468.723-.165.001-.303-.074-.399-.267.021-.418.154-.652.383-.725.178.002.338.098.483.269" fill="#FFE1C7"/><path d="M12.497 17.99a.268.268 0 0 1-.26-.329l1.703-7.254a.268.268 0 0 1 .521.122l-1.703 7.255a.268.268 0 0 1-.26.207m5.05-3.325h.534v-1.368h-.534z" fill="#7C2525"/><path d="M17.812 13.982c-1.404 0-1.995-.727-1.995-.727.285-2.323 1.997-3.85 1.997-3.85s1.711 1.527 1.996 3.85c0 0-.591.727-1.995.727" fill="#07512B"/><path d="M19.81 15.223s-.089-.914-1.594-.894c-1.003.02-1.281-.233-1.281-.233s-1.205.118-1.183.57c.023.452.953.073.953.073l-.377.487c.654.607 2.039.337 3.482-.003" fill="#594529"/></g></svg>