<svg width="36" height="26" viewBox="0 0 36 26" xmlns="http://www.w3.org/2000/svg" xmlns:xlink="http://www.w3.org/1999/xlink"><title>US-MD</title><defs><rect id="a" width="36" height="26" rx="4"/><path id="c" d="M0 0h9v6.5H0z"/><path id="e" d="M0 0h9v6.5H0z"/><path id="g" d="M0 0h9v6.5H0z"/><path id="i" d="M0 0h9v6.5H0z"/><path d="M6 0h3v13H6V0zm6 0h3v13h-3V0zM0 0h3v13H0V0z" id="k"/><path d="M0 0h3v13H0V0zm6 0h3v13H6V0zm6 0h3v13h-3V0z" id="m"/><path id="o" d="M0 0h9v6.5H0z"/><path id="q" d="M0 0h9v6.5H0z"/><path id="s" d="M0 0h9v6.5H0z"/><path id="u" d="M0 0h9v6.5H0z"/><path d="M6 0h3v13H6V0zm6 0h3v13h-3V0zM0 0h3v13H0V0z" id="w"/><path d="M0 0h3v13H0V0zm6 0h3v13H6V0zm6 0h3v13h-3V0z" id="y"/></defs><g fill="none" fill-rule="evenodd"><mask id="b" fill="#fff"><use xlink:href="#a"/></mask><use fill="#D8D8D8" xlink:href="#a"/><g mask="url(#b)"><g transform="rotate(-180 9 13)"><mask id="d" fill="#fff"><use xlink:href="#c"/></mask><use fill="#F1F1F2" xlink:href="#c"/><path d="M10.5 10V8H15a1 1 0 1 0 1.997-.083A1.493 1.493 0 0 0 18 6.5c0-.658-.419-1.211-1.004-1.416A1 1 0 1 0 15 5h-4.5V3a1 1 0 1 0-.081-1.997A1.497 1.497 0 0 0 9 0c-.661 0-1.216.42-1.418 1.003A1 1 0 1 0 7.5 3v2H3a1 1 0 1 0-1.997.083A1.493 1.493 0 0 0 0 6.5c0 .658.419 1.211 1.004 1.416A1 1 0 1 0 3 8h4.5v2a1 1 0 1 0 .081 1.997A1.497 1.497 0 0 0 9 13c.661 0 1.216-.42 1.418-1.003A1 1 0 1 0 10.5 10z" fill="#CF1B2B" mask="url(#d)"/></g><g transform="matrix(-1 0 0 1 18 13)"><mask id="f" fill="#fff"><use xlink:href="#e"/></mask><use fill="#CF1B2B" xlink:href="#e"/><path d="M10.5 10V8H15a1 1 0 1 0 1.997-.083A1.493 1.493 0 0 0 18 6.5c0-.658-.419-1.211-1.004-1.416A1 1 0 1 0 15 5h-4.5V3a1 1 0 1 0-.081-1.997A1.497 1.497 0 0 0 9 0c-.661 0-1.216.42-1.418 1.003A1 1 0 1 0 7.5 3v2H3a1 1 0 1 0-1.997.083A1.493 1.493 0 0 0 0 6.5c0 .658.419 1.211 1.004 1.416A1 1 0 1 0 3 8h4.5v2a1 1 0 1 0 .081 1.997A1.497 1.497 0 0 0 9 13c.661 0 1.216-.42 1.418-1.003A1 1 0 1 0 10.5 10z" fill="#F1F1F2" mask="url(#f)"/></g><g transform="matrix(1 0 0 -1 0 26)"><mask id="h" fill="#fff"><use xlink:href="#g"/></mask><use fill="#CF1B2B" xlink:href="#g"/><path d="M10.5 10V8H15a1 1 0 1 0 1.997-.083A1.493 1.493 0 0 0 18 6.5c0-.658-.419-1.211-1.004-1.416A1 1 0 1 0 15 5h-4.5V3a1 1 0 1 0-.081-1.997A1.497 1.497 0 0 0 9 0c-.661 0-1.216.42-1.418 1.003A1 1 0 1 0 7.5 3v2H3a1 1 0 1 0-1.997.083A1.493 1.493 0 0 0 0 6.5c0 .658.419 1.211 1.004 1.416A1 1 0 1 0 3 8h4.5v2a1 1 0 1 0 .081 1.997A1.497 1.497 0 0 0 9 13c.661 0 1.216-.42 1.418-1.003A1 1 0 1 0 10.5 10z" fill="#F1F1F2" mask="url(#h)"/></g><g transform="translate(0 13)"><mask id="j" fill="#fff"><use xlink:href="#i"/></mask><use fill="#F1F1F2" xlink:href="#i"/><path d="M10.5 10V8H15a1 1 0 1 0 1.997-.083A1.493 1.493 0 0 0 18 6.5c0-.658-.419-1.211-1.004-1.416A1 1 0 1 0 15 5h-4.5V3a1 1 0 1 0-.081-1.997A1.497 1.497 0 0 0 9 0c-.661 0-1.216.42-1.418 1.003A1 1 0 1 0 7.5 3v2H3a1 1 0 1 0-1.997.083A1.493 1.493 0 0 0 0 6.5c0 .658.419 1.211 1.004 1.416A1 1 0 1 0 3 8h4.5v2a1 1 0 1 0 .081 1.997A1.497 1.497 0 0 0 9 13c.661 0 1.216-.42 1.418-1.003A1 1 0 1 0 10.5 10z" fill="#CF1B2B" mask="url(#j)"/></g><g transform="translate(18 13)"><mask id="l" fill="#fff"><use xlink:href="#k"/></mask><use fill="#FFB200" xlink:href="#k"/><path fill="#000" mask="url(#l)" d="M3 0l15 11v2h-3L0 2V0z"/></g><g transform="translate(21 13)"><mask id="n" fill="#fff"><use xlink:href="#m"/></mask><use fill="#000" xlink:href="#m"/><path fill="#FFB200" mask="url(#n)" d="M0 0l15 11v2h-3L-3 2V0z"/></g><g transform="rotate(-180 18 6.5)"><mask id="p" fill="#fff"><use xlink:href="#o"/></mask><use fill="#F1F1F2" xlink:href="#o"/><path d="M10.5 10V8H15a1 1 0 1 0 1.997-.083A1.493 1.493 0 0 0 18 6.5c0-.658-.419-1.211-1.004-1.416A1 1 0 1 0 15 5h-4.5V3a1 1 0 1 0-.081-1.997A1.497 1.497 0 0 0 9 0c-.661 0-1.216.42-1.418 1.003A1 1 0 1 0 7.5 3v2H3a1 1 0 1 0-1.997.083A1.493 1.493 0 0 0 0 6.5c0 .658.419 1.211 1.004 1.416A1 1 0 1 0 3 8h4.5v2a1 1 0 1 0 .081 1.997A1.497 1.497 0 0 0 9 13c.661 0 1.216-.42 1.418-1.003A1 1 0 1 0 10.5 10z" fill="#CF1B2B" mask="url(#p)"/></g><g transform="matrix(-1 0 0 1 36 0)"><mask id="r" fill="#fff"><use xlink:href="#q"/></mask><use fill="#CF1B2B" xlink:href="#q"/><path d="M10.5 10V8H15a1 1 0 1 0 1.997-.083A1.493 1.493 0 0 0 18 6.5c0-.658-.419-1.211-1.004-1.416A1 1 0 1 0 15 5h-4.5V3a1 1 0 1 0-.081-1.997A1.497 1.497 0 0 0 9 0c-.661 0-1.216.42-1.418 1.003A1 1 0 1 0 7.5 3v2H3a1 1 0 1 0-1.997.083A1.493 1.493 0 0 0 0 6.5c0 .658.419 1.211 1.004 1.416A1 1 0 1 0 3 8h4.5v2a1 1 0 1 0 .081 1.997A1.497 1.497 0 0 0 9 13c.661 0 1.216-.42 1.418-1.003A1 1 0 1 0 10.5 10z" fill="#F1F1F2" mask="url(#r)"/></g><g transform="matrix(1 0 0 -1 18 13)"><mask id="t" fill="#fff"><use xlink:href="#s"/></mask><use fill="#CF1B2B" xlink:href="#s"/><path d="M10.5 10V8H15a1 1 0 1 0 1.997-.083A1.493 1.493 0 0 0 18 6.5c0-.658-.419-1.211-1.004-1.416A1 1 0 1 0 15 5h-4.5V3a1 1 0 1 0-.081-1.997A1.497 1.497 0 0 0 9 0c-.661 0-1.216.42-1.418 1.003A1 1 0 1 0 7.5 3v2H3a1 1 0 1 0-1.997.083A1.493 1.493 0 0 0 0 6.5c0 .658.419 1.211 1.004 1.416A1 1 0 1 0 3 8h4.5v2a1 1 0 1 0 .081 1.997A1.497 1.497 0 0 0 9 13c.661 0 1.216-.42 1.418-1.003A1 1 0 1 0 10.5 10z" fill="#F1F1F2" mask="url(#t)"/></g><g transform="translate(18)"><mask id="v" fill="#fff"><use xlink:href="#u"/></mask><use fill="#F1F1F2" xlink:href="#u"/><path d="M10.5 10V8H15a1 1 0 1 0 1.997-.083A1.493 1.493 0 0 0 18 6.5c0-.658-.419-1.211-1.004-1.416A1 1 0 1 0 15 5h-4.5V3a1 1 0 1 0-.081-1.997A1.497 1.497 0 0 0 9 0c-.661 0-1.216.42-1.418 1.003A1 1 0 1 0 7.5 3v2H3a1 1 0 1 0-1.997.083A1.493 1.493 0 0 0 0 6.5c0 .658.419 1.211 1.004 1.416A1 1 0 1 0 3 8h4.5v2a1 1 0 1 0 .081 1.997A1.497 1.497 0 0 0 9 13c.661 0 1.216-.42 1.418-1.003A1 1 0 1 0 10.5 10z" fill="#CF1B2B" mask="url(#v)"/></g><mask id="x" fill="#fff"><use xlink:href="#w"/></mask><use fill="#FFB200" xlink:href="#w"/><path fill="#000" mask="url(#x)" d="M3 0l15 11v2h-3L0 2V0z"/><g transform="translate(3)"><mask id="z" fill="#fff"><use xlink:href="#y"/></mask><use fill="#000" xlink:href="#y"/><path fill="#FFB200" mask="url(#z)" d="M0 0l15 11v2h-3L-3 2V0z"/></g></g></g></svg>