<svg width="36" height="26" viewBox="0 0 36 26" xmlns="http://www.w3.org/2000/svg" xmlns:xlink="http://www.w3.org/1999/xlink"><title>US-MA</title><defs><rect id="a" width="36" height="26" rx="4"/></defs><g fill="none" fill-rule="evenodd"><mask id="b" fill="#fff"><use xlink:href="#a"/></mask><use fill="#F3F3F3" xlink:href="#a"/><g mask="url(#b)"><path d="M12.5 7.974a14.148 14.148 0 0 0 5 13.04 14.149 14.149 0 0 0 5-13.04h-10z" fill="#0B3D8B"/><path d="M17.5 23.473a7.13 7.13 0 0 1-1.134-.09.472.472 0 0 1-.391-.47v-.48c-1.826-.405-3.337-1.55-4.388-3.33a.487.487 0 0 1 .202-.68l.468-.222a9.741 9.741 0 0 1-.392-.87l-.473.225a.445.445 0 0 1-.374.006.47.47 0 0 1-.255-.283c-.738-2.203-.779-4.74-.11-6.96.05-.19.08-.456-.082-.55-.155-.09-.399-.043-.47.034l-.669-.656c.376-.407 1.09-.5 1.593-.209.515.3.708.916.515 1.647a10.792 10.792 0 0 0-.058 5.88l.448-.212a.446.446 0 0 1 .374-.006.47.47 0 0 1 .255.282c.198.59.448 1.14.742 1.64a.49.49 0 0 1 .047.387.47.47 0 0 1-.25.293l-.435.207c.73 1.057 1.94 2.205 3.844 2.51a.473.473 0 0 1 .391.47v.456c.397.038.807.038 1.204 0v-.455c0-.235.166-.434.39-.47 1.904-.306 3.115-1.454 3.845-2.51l-.436-.208a.487.487 0 0 1-.201-.68 8.63 8.63 0 0 0 .74-1.64.472.472 0 0 1 .256-.282.446.446 0 0 1 .374.006l.448.212c.523-1.892.508-4-.053-5.863-.198-.748-.005-1.364.51-1.664.501-.291 1.217-.199 1.593.209l-.67.656c-.07-.077-.315-.124-.47-.034-.162.094-.131.36-.077.566.664 2.204.624 4.741-.113 6.944a.471.471 0 0 1-.256.283.449.449 0 0 1-.374-.006l-.473-.225a9.68 9.68 0 0 1-.392.87l.468.222a.487.487 0 0 1 .202.68c-1.051 1.78-2.562 2.925-4.388 3.33v.48a.472.472 0 0 1-.39.47c-.37.06-.75.09-1.135.09" fill="#0B3D8B"/><path d="M20.683 5.53a7.575 7.575 0 0 0-.382-.628 9.052 9.052 0 0 0-1.433-1.7 8.296 8.296 0 0 0-1.4-1.024c-.024-.32-.271-.575-.581-.575a.558.558 0 0 0-.337.125 4.891 4.891 0 0 0-.17-.069l-.25-.096-.007-.003a.241.241 0 0 0-.31.162.26.26 0 0 0 .154.327l.252.09c.025.008.06.022.088.033-.002.018-.01.034-.01.053l.002.013-1.342 1.588a.52.52 0 0 0 .118.774l.007.003.008.005 1.304.99.163.124c.061.045.093.074.179.132a.898.898 0 0 1 .21.177c.03.044.016.056 0 .05a.027.027 0 0 0-.02 0 .04.04 0 0 1-.007-.025l-.013.105 1.565.06-.006-.106a1.676 1.676 0 0 0-.143-.64 1.555 1.555 0 0 0-.485-.607 2.347 2.347 0 0 0-.468-.265c-.03-.012-.113-.055-.166-.08l-.182-.091-.919-.458.878-1.147a.571.571 0 0 0 .344-.194c.42.225.884.514 1.311.868a8.999 8.999 0 0 1 1.487 1.542c.182.234.318.442.418.584a.623.623 0 0 0 .214.188s.005-.123-.071-.285" fill="#E89B00"/><path d="M19.442 6.762a2.622 2.622 0 0 1-.37-.212l-.053-.785c.273-.229.525-.261.88-.096.667.311.213 1.398-.457 1.093" fill="#1A53AD"/><path d="M14.981 6.66c-.274.229-.525.26-.879.096-.668-.311-.214-1.398.457-1.093.11.05.233.121.368.211l.054.786" fill="#FFB200"/><path d="M16.048 6.658c-.32.269-.609.269-1.065 0l-.227-.891c.32-.269.609-.269 1.066 0l.226.891" fill="#1A53AD"/><path d="M17.113 6.658c-.32.269-.608.269-1.065 0l-.227-.891c.32-.269.61-.269 1.066 0l.226.891" fill="#FFB200"/><path d="M18.179 6.658c-.32.269-.61.269-1.066 0l-.226-.891c.32-.269.608-.269 1.065 0l.227.891" fill="#1A53AD"/><path d="M19.244 6.658c-.32.269-.61.269-1.066 0l-.226-.891c.32-.269.608-.269 1.065 0l.227.891m-1.99 3.852a.58.58 0 0 0 .578.582.58.58 0 0 0 .579-.582.573.573 0 0 0-.453-.557c.06-.253-.002-.572-.186-.96a2.327 2.327 0 0 0-.166.42 2.453 2.453 0 0 0-.301-.34c-.042.391-.006.734.175.987a.574.574 0 0 0-.226.45zm1.507 1.407l.05.224-.05-.224zm1.071 2.041l.084-.365-.404.254-.177.352-.052.032a6443.285 6443.285 0 0 1-.643-2.852.246.246 0 0 0-.12-.16.09.09 0 0 1-.001-.005l-.015-.002a.242.242 0 0 0-.133-.022 3.922 3.922 0 0 0-.527-.047c-.288 0-.674.07-.674.07v.002a.245.245 0 0 0-.23.158l-.488 1.3-.51-.172.03-.113c.04-.165.084-.315.125-.447.039-.133.073-.25.106-.344.063-.19.097-.3.097-.3s-.061.097-.163.27a16.9 16.9 0 0 1-.084.145l-.087.176-.1.202c-.033.071-.061.15-.095.23l-.043.109-.054-.019a.247.247 0 0 0-.156.468l.047.017c-.026.08-.05.163-.07.25a6.23 6.23 0 0 0-.076.313c-.037.215-.086.437-.102.667-.013.115-.024.23-.026.347-.004.117-.014.234-.012.35l.013.351c.005.117.02.232.03.347.005.057.009.114.017.171l.029.168c.02.11.035.22.06.327.048.214.098.419.162.608.031.095.056.19.09.277l.1.252c.058.163.132.306.192.433.058.13.118.235.168.322.1.174.16.273.16.273s-.032-.111-.093-.303a6.373 6.373 0 0 1-.105-.345c-.037-.133-.084-.28-.123-.446a9.866 9.866 0 0 1-.124-.533c-.045-.188-.071-.39-.109-.596-.019-.103-.026-.21-.04-.317a5.171 5.171 0 0 1-.031-.325c-.007-.11-.02-.22-.023-.33a5229.8 5229.8 0 0 1-.005-.335c-.003-.111.003-.222.005-.333 0-.112.008-.222.018-.331l.014-.164a1.72 1.72 0 0 1 .015-.161l.04-.317c.014-.104.037-.205.051-.305.012-.077.026-.152.042-.225l.687.232a.246.246 0 0 0 .308-.147l.152-.405a7.601 7.601 0 0 0-.025.596c0 .319.163.365.163.365l-.034.406c-.173.465-.19 1.594-.19 1.594h.155l-.009 2.086-.36.465a.18.18 0 0 0 .016.238c.07.07.183.07.252-.001l.475-.48a.184.184 0 0 0 .051-.108l.003-.025.242-2.175h.253l.241 2.175.003.025a.183.183 0 0 0 .052.107l.474.481a.177.177 0 0 0 .236.015.18.18 0 0 0 .032-.252l-.36-.465-.009-2.086h.155s-.007-.454-.056-.904l-.612.384.243.129-.78.134.464-.645.008.277.661-.414a2.717 2.717 0 0 0-.117-.555l-.034-.406s.029-.01.062-.042l.209.927-.12.076.065.105.087-.055a.245.245 0 0 0 .466-.146l-.03-.132.089-.056.392-.006.404-.255-.364-.084z" fill="#FFB200"/><path fill="#FFF" d="M14.324 8.32l.388 1.198h1.252l-1.013.741.387 1.198-1.014-.74-1.013.74.387-1.198-1.013-.74h1.252z"/></g></g></svg>