<svg width="36" height="26" viewBox="0 0 36 26" xmlns="http://www.w3.org/2000/svg" xmlns:xlink="http://www.w3.org/1999/xlink"><title>US-MS</title><defs><rect id="a" width="36" height="26" rx="4"/><mask id="c" x="0" y="0" width="36" height="26" fill="#fff"><use xlink:href="#a"/></mask><path id="e" d="M0 0h17v17H0z"/><path id="f" d="M1 1h15v15H1z"/><path d="M8.5 5.5L4 1H1v3l4.5 4.5L1 13v3h3l4.5-4.5L13 16h3v-3l-4.5-4.5L16 4V1h-3L8.5 5.5z" id="b"/><mask id="h" x="-1" y="-1" width="17" height="17"><path fill="#fff" d="M0 0h17v17H0z"/><use xlink:href="#b"/></mask></defs><g fill="none" fill-rule="evenodd"><mask id="d" fill="#fff"><use xlink:href="#a"/></mask><use mask="url(#c)" xlink:href="#a" stroke="#979797" stroke-width="2" fill="#D8D8D8"/><g mask="url(#d)"><path fill="#00247D" d="M0 0h36v9H0z"/><path fill="#F3F3F3" d="M0 9h36v8H0z"/><path fill="#CF1B2B" d="M0 17h36v9H0z"/></g><g mask="url(#d)"><use fill="#F3F3F3" xlink:href="#e"/><mask id="g" fill="#fff"><use xlink:href="#f"/></mask><use fill="#CF1B2B" xlink:href="#f"/><g mask="url(#g)"><use fill="#00247D" xlink:href="#b"/><use stroke="#F3F3F3" mask="url(#h)" stroke-width="2" xlink:href="#b"/></g><path d="M2 2h1v1H2V2zm2 2h1v1H4V4zm2 2h1v1H6V6zm2 2h1v1H8V8zm-2 2h1v1H6v-1zm-2 2h1v1H4v-1zm-2 2h1v1H2v-1zm8-8h1v1h-1V6zm2-2h1v1h-1V4zm2-2h1v1h-1V2zm-4 8h1v1h-1v-1zm2 2h1v1h-1v-1zm2 2h1v1h-1v-1z" fill="#FFF" opacity=".75" mask="url(#g)"/></g></g></svg>