<svg width="36" height="26" viewBox="0 0 36 26" xmlns="http://www.w3.org/2000/svg"><title>US-NM</title><g fill="none" fill-rule="evenodd"><path d="M32 26H4a4 4 0 0 1-4-4V4a4 4 0 0 1 4-4h28a4 4 0 0 1 4 4v18a4 4 0 0 1-4 4" fill="#FFB200"/><path d="M18 10.886c1.166 0 2.114.948 2.114 2.114A2.116 2.116 0 0 1 18 15.113c-2.793 0-2.794-4.227 0-4.227m7.61 2.31h-4.66c.013-.204.013-.19 0-.391h4.66a.39.39 0 0 0 0-.78c-.123 0-4.696-.015-4.81.025a2.882 2.882 0 0 0-.185-.432h3.824a.374.374 0 0 0 0-.748c-.113 0-4.201-.003-4.313.004.006-.111.004-4.203.004-4.313a.374.374 0 0 0-.748 0v3.824a3.038 3.038 0 0 0-.432-.186c.04-.114.026-4.686.026-4.809a.39.39 0 1 0-.78 0v4.66c-.204-.013-.188-.013-.391 0V5.39a.39.39 0 1 0-.78 0c0 .123-.015 4.695.025 4.809-.15.052-.295.112-.432.185V6.561a.373.373 0 1 0-.748 0c0 .11-.002 4.203.004 4.313-.11-.007-4.203-.004-4.313-.004a.373.373 0 1 0 0 .748h3.824a2.882 2.882 0 0 0-.185.432c-.115-.04-4.687-.026-4.81-.026a.39.39 0 1 0 0 .78h4.66c-.013.203-.013.188 0 .391h-4.66a.39.39 0 1 0 0 .78c.123 0 4.695.014 4.81-.026.05.15.112.295.185.433h-3.824a.373.373 0 1 0 0 .747c.111 0 4.203.003 4.313-.004-.006.113-.004 4.2-.004 4.314a.373.373 0 0 0 .748 0v-3.824c.137.073.282.133.432.185-.04.114-.026 4.686-.026 4.81a.39.39 0 1 0 .78 0v-4.66c.204.012.188.012.391 0v4.66a.39.39 0 1 0 .78 0c0-.124.015-4.696-.025-4.81a2.93 2.93 0 0 0 .432-.186v3.825a.373.373 0 0 0 .748 0c0-.113.002-4.201-.005-4.314.113.007 4.2.004 4.314.004a.373.373 0 1 0 0-.747h-3.824c.073-.138.134-.282.185-.433.114.04 4.686.027 4.81.027a.39.39 0 1 0 0-.78" fill="#CF1B2B"/></g></svg>