<svg width="36" height="26" viewBox="0 0 36 26" xmlns="http://www.w3.org/2000/svg" xmlns:xlink="http://www.w3.org/1999/xlink"><title>US-NC</title><defs><rect id="a" width="36" height="26" rx="4"/></defs><g fill="none" fill-rule="evenodd"><mask id="b" fill="#fff"><use xlink:href="#a"/></mask><use fill="#F1F1F2" xlink:href="#a"/><g mask="url(#b)"><path fill="#CF1B2B" d="M0 0h36v13H0z"/><path fill="#00247D" d="M0 0h13v26H0z"/></g><g mask="url(#b)"><path d="M12.541 7.116l-1.903-.975-.729 1.424 1.93.989-.37-1.063 1.072-.375zm-11.01.375l-.37 1.063 1.93-.989-.73-1.424-1.903.975 1.073.375z" fill="#E89B00"/><path d="M10.803 7.106a9.268 9.268 0 0 0-8.607 0l-.743-1.417a10.868 10.868 0 0 1 10.094 0l-.744 1.416z" fill="#FFB200"/><path d="M.459 18.884l1.903.975.729-1.424-1.93-.989.37 1.063-1.072.375zm11.01-.375l.37-1.063-1.93.989.73 1.424 1.903-.975-1.073-.375z" fill="#E89B00"/><path d="M2.196 18.895a9.268 9.268 0 0 0 8.607 0l.743 1.416a10.868 10.868 0 0 1-10.092 0l.742-1.416z" fill="#FFB200"/><path fill="#F1F2F2" d="M6.5 10.803l.493 1.518h1.596l-1.291.938.493 1.518L6.5 13.84l-1.291.938.493-1.518-1.291-.938h1.596z"/><path fill="#FFB200" d="M1.845 11.082h.471l.739 2.059h.009v-2.06h.49V14.5h-.461l-.749-2.055h-.009V14.5h-.49zm9.31 2.654a.784.784 0 0 1-.226.554.786.786 0 0 1-.247.173.71.71 0 0 1-.305.065c-.092 0-.187-.013-.283-.038a.7.7 0 0 1-.259-.132.719.719 0 0 1-.19-.248.895.895 0 0 1-.074-.388V11.84a.82.82 0 0 1 .058-.312.743.743 0 0 1 .415-.415.846.846 0 0 1 .324-.06c.112 0 .216.02.312.06a.74.74 0 0 1 .415.427c.04.1.06.21.06.329v.192h-.489v-.163a.4.4 0 0 0-.082-.25.267.267 0 0 0-.221-.106c-.122 0-.202.038-.242.113a.609.609 0 0 0-.06.286v1.747c0 .099.021.183.065.25.043.067.12.1.232.1a.357.357 0 0 0 .103-.016.287.287 0 0 0 .101-.056.263.263 0 0 0 .075-.105.433.433 0 0 0 .029-.168v-.168h.489v.21z"/></g></g></svg>