<svg width="36" height="26" viewBox="0 0 36 26" xmlns="http://www.w3.org/2000/svg" xmlns:xlink="http://www.w3.org/1999/xlink"><title>US-OH</title><defs><path d="M0 4.44v17.12a4 4 0 0 0 4.415 3.978L36 22l-7.6-9L36 4 4.415.46A4 4 0 0 0 0 4.44z" id="a"/></defs><g fill="none" fill-rule="evenodd"><mask id="b" fill="#fff"><use xlink:href="#a"/></mask><path fill="#F1F2F2" mask="url(#b)" d="M0 26h36V0H0z"/><path d="M0 26h36v-7.622l-36 4V26zM0 3.622l36 4V0H0v3.622zM0 14.8h36v-3.6H0v3.6z" fill="#CF1B2B" mask="url(#b)"/><path fill="#00247D" mask="url(#b)" d="M0 26l21.6-13L0 0z"/><path d="M11.53 13a4.329 4.329 0 1 0-8.658 0 4.329 4.329 0 0 0 8.657 0" fill="#F1F2F2" mask="url(#b)"/><path d="M10.2 13a3 3 0 1 0-6 0 3 3 0 0 0 6 0" fill="#CF1B2B" mask="url(#b)"/><path fill="#F1F2F2" mask="url(#b)" d="M.461 12.897l.621-.202v-.652l.383.528.621-.202-.384.528.384.528-.62-.202-.384.528V13.1zM.91 5.544l.558.338.494-.426-.15.636.559.338-.651.054-.15.636-.252-.602-.65.054.494-.426zm2.93-1.702l.408.51.61-.232-.358.545.41.51-.63-.172-.359.546-.03-.652-.63-.172.61-.23zM.91 20.456l.558-.338.494.426-.15-.636.559-.338-.651-.054-.15-.636-.252.602-.65-.054.494.426zm2.93 1.702l.408-.51.61.232-.358-.545.41-.51-.63.172-.359-.546-.03.652-.63.172.61.23zm10.1-9.261l-.622-.202v-.652l-.383.528-.62-.202.383.528-.384.528.621-.202.383.528V13.1zm2.367-1.503l-.62-.202v-.652l-.384.528-.62-.202.383.528-.384.528.621-.202.383.528v-.652zm0 3.006l-.62.202v.652l-.384-.528-.62.202.383-.528-.384-.528.621.202.383-.528v.652zm2.306-1.503l-.622-.202v-.652l-.383.528-.62-.202.384.528-.384.528.62-.202.383.528V13.1zM1.185 16.04l.456-.466-.302-.578.585.289.454-.467-.094.646.586.289-.643.11-.095.646-.304-.578zm2.103 2.448l.187-.625-.537-.371.652-.016.187-.625.216.615.653-.015-.52.396.218.615-.537-.37zm2.998 1.189l-.125-.64-.648-.078.57-.317L5.958 18l.478.445.57-.317-.275.591.478.445-.648-.079zm3.208-.34l-.409-.509-.61.233.358-.546-.409-.51.63.172.357-.546.032.651.63.172-.61.232zm.192-12.602l-.032.652.611.231-.63.172-.032.652-.357-.546-.63.171.409-.509-.358-.546.61.232zM6.49 6.298l.275.592.648-.08-.478.446.275.59-.57-.316-.478.445.125-.641-.57-.317.648-.08zM3.457 7.396l.519.396.537-.37-.217.615.519.396-.653-.015-.216.615-.187-.625-.652-.016.537-.371zM1.281 9.777l.643.11.304-.578.094.646.643.11-.585.29.094.645-.455-.467-.585.29.303-.579z"/></g></svg>