<svg width="36" height="26" viewBox="0 0 36 26" xmlns="http://www.w3.org/2000/svg" xmlns:xlink="http://www.w3.org/1999/xlink"><title>US-PA</title><defs><path d="M32 26H4a4 4 0 0 1-4-4V4a4 4 0 0 1 4-4h28a4 4 0 0 1 4 4v18a4 4 0 0 1-4 4" id="a"/></defs><g fill="none" fill-rule="evenodd"><mask id="b" fill="#fff"><use xlink:href="#a"/></mask><use fill="#00247D" xlink:href="#a"/><g mask="url(#b)"><path d="M26.31 20.432c-1.032-1.075-.802-2.063-.773-2.172l1.028.263c-.005.022-.103.534.511 1.174l-.765.735z" fill="#CF1B2B"/><path d="M30.18 16.95a.495.495 0 0 0-.569.409c-.01-.02.003.029-.029.084a1.112 1.112 0 0 1-.126.19 2.02 2.02 0 0 1-.395.376c-.297.207-.678.295-1.065.34-.391.04-.798.027-1.208-.012-.2-.02-.42-.047-.613-.078a6.493 6.493 0 0 1-.596-.127 6.216 6.216 0 0 1-1.146-.418c-.17-.082-.37-.198-.573-.288a4.751 4.751 0 0 0-.626-.237 2.597 2.597 0 0 0-.694-.121c-.239-.004-.565.052-.776.316a2.022 2.022 0 0 0-.113.2c-.024.072-.04.148-.056.223-.018.081-.008.114-.013.173l-.002.08-.001.02c0 .051.001.029.002.047l.005.052c.036.277.177.532.403.709a.251.251 0 0 0 .381-.308c-.09-.19-.169-.356-.16-.446a.16.16 0 0 1 .05-.104c.048-.043.083-.068.125-.077.079-.025.206.008.325.093.119.084.225.206.297.334.073.128.099.265.074.347-.007.017-.008.048-.015.046-.007.006.02.01-.034.053l-.054.051-.009.008-.011.007-.096.06c-.277.14-.639.198-1.01.195h-.01l.541.556c.254-.023.511-.078.764-.203l.158-.095.02-.012.01-.007.004-.002.036-.03.027-.024.055-.05a.787.787 0 0 0 .142-.184c.056-.082.07-.152.091-.23.065-.308-.032-.578-.155-.79a1.517 1.517 0 0 0-.28-.335c.132.047.262.098.39.157.183.082.35.183.56.286a7.73 7.73 0 0 0 1.872.627c.223.042.423.07.644.1.43.06.873.096 1.327.069a3.839 3.839 0 0 0 1.364-.337c.225-.1.427-.214.635-.362a1.75 1.75 0 0 0 .303-.277c.091-.115.21-.256.238-.486a.495.495 0 0 0-.409-.568" fill="#FFB200"/><path d="M9.689 20.432l-.765-.735c.619-.644.516-1.155.515-1.16l1.024-.277c.03.11.259 1.097-.774 2.172" fill="#CF1B2B"/><path d="M14.148 19.147c-.371.003-.733-.055-1.01-.195l-.096-.06-.011-.007-.01-.008-.053-.051c-.054-.043-.027-.047-.034-.054-.007.003-.008-.028-.015-.045-.025-.082.001-.22.074-.347.071-.128.178-.25.297-.334.12-.085.246-.118.325-.093.043.009.077.034.125.077.033.038.045.06.05.104.008.09-.07.257-.16.446a.251.251 0 0 0 .38.308 1.07 1.07 0 0 0 .404-.709l.005-.052c0-.018.002.004.002-.048v-.02l-.003-.079c-.005-.06.005-.092-.013-.173a1.923 1.923 0 0 0-.055-.223 2.099 2.099 0 0 0-.114-.2c-.21-.265-.537-.32-.776-.316a2.61 2.61 0 0 0-.694.12 4.78 4.78 0 0 0-.626.238c-.204.09-.402.206-.574.288a6.174 6.174 0 0 1-1.145.418 6.521 6.521 0 0 1-.595.127c-.194.03-.414.059-.614.078-.41.039-.817.052-1.208.011-.387-.044-.768-.132-1.065-.34a2.018 2.018 0 0 1-.395-.375 1.126 1.126 0 0 1-.126-.19c-.032-.055-.018-.105-.03-.085a.494.494 0 1 0-.976.16c.027.23.146.37.238.486.1.113.199.202.302.277a3.871 3.871 0 0 0 2 .699c.454.027.897-.009 1.327-.068.22-.032.42-.06.644-.101.217-.041.431-.093.643-.154.422-.123.833-.28 1.23-.473.21-.103.376-.204.56-.286a4.77 4.77 0 0 1 .388-.157 1.508 1.508 0 0 0-.279.336c-.123.211-.22.481-.155.79.022.076.035.147.09.229a.77.77 0 0 0 .143.183l.055.05.028.025.035.03.005.002.01.006.02.013.157.095c.288.143.581.194.868.211l.627-.577c-.067.003-.134.012-.2.013" fill="#FFB200"/><path d="M18 15.745c-.705 1.454-3.333-.298-2.717-1.654.6-.237-.15-1.742-.65-1.46-1.464-.986.023-4.576 1.757-3.559-.706-.567.898-1.76 1.61-1.134.713-.626 2.317.567 1.611 1.134 1.734-1.017 3.222 2.573 1.757 3.56-.5-.283-1.25 1.222-.65 1.459.617 1.356-2.011 3.108-2.717 1.654" fill="#FFF066"/><path d="M19.923 9.42a.597.597 0 0 0-.33.114.339.339 0 0 1-.191.06.38.38 0 0 1-.31-.174.445.445 0 0 1 .067-.563c.002-.011-.005-.08-.085-.188-.153-.207-.433-.368-.638-.368-.099 0-.147.036-.174.064a.366.366 0 0 1-.523 0c-.027-.028-.075-.064-.174-.064-.205 0-.486.161-.638.368-.08.108-.087.177-.066.21a.43.43 0 0 1 .058.551.372.372 0 0 1-.308.166c-.07 0-.14-.02-.202-.062a.595.595 0 0 0-.33-.115c-.366 0-.762.467-.975 1.139h5.793c-.213-.672-.61-1.139-.974-1.139" fill="#66E2FF"/><path d="M20.897 10.558h-5.793l-.014.041a2.81 2.81 0 0 0-.12.926h6.06a2.808 2.808 0 0 0-.119-.926l-.014-.04" fill="#0089EF"/><path d="M14.97 11.525c.016.288.086.553.236.737h.005c.526 0 .896.706.991 1.207.006.031.005.059.009.089h3.58c.003-.03.002-.058.008-.09.095-.5.465-1.206.991-1.206h.006c.15-.184.22-.45.234-.737h-6.06z" fill="#FFB200"/><path d="M19.79 13.558h-3.58c.05.37-.03.675-.234.855-.066.3.076.595.174.753.263.427.734.748 1.094.748.195 0 .32-.092.41-.3a.381.381 0 0 1 .347-.24.38.38 0 0 1 .347.24c.088.208.214.3.409.3.36 0 .83-.321 1.094-.748.098-.158.24-.453.174-.753-.203-.18-.284-.485-.235-.855" fill="#78AD12"/><path d="M29.678 10.562c-.489-.048-.992.167-1.405.59-.54.565-.557.903-.226 1.4.302.455.487.733-.074 1.187-.222.18-.214.023-.214.023-.018-.675-.42-.873-.816-.953-.452-.09-.927-.042-1.42-.558-.394-.41-.164-.937-.15-1.416.005-.196.007-.397.003-.6.138.075.328.106.562.01-.294-.073-.407-.162-.39-.202.117.02.299-.1.38-.14-.33-.048-.22-.1-.46-.127-.1-.02.173-.074.364-.196-.32-.085-.208-.223-.492-.25.068-.013.33-.055.495-.199-.328.002-.258-.168-.567-.194.073-.01.434-.066.59-.204-.328-.01-.398-.188-.685-.214.054-.005.373-.084.611-.372-.467.084-.506.05-.762.012.075-.006.308-.296.437-.392-.42.156-.684.223-.858.094a.6.6 0 0 0 .045-.086c.018-.148.06-.269.126-.402.071-.131.106-.179-.06-.106a1.01 1.01 0 0 0-.292.208.93.93 0 0 0 .026-.379c-.008-.111-.055-.076-.12-.015a.955.955 0 0 0-.244.45.374.374 0 0 0-.17-.007c-.046.008-.238.108-.376.045.05.09.11.16.11.16-.14.003-.205.028-.382-.03.034.095.17.165.276.204a.869.869 0 0 0-.146.09c-.31.24-.738.287-.953.504-.038.038-.031.075-.109.112-.086.041-.238.115-.22.246 0 .144.058.236.146.262.09.026.211-.015.342-.033.172-.024.165.068.032.061-.084.012-.232.027-.309.075-.067.041-.081.112.042.171.073.023.194.02.302-.007.108-.026.203-.077.31-.103a.411.411 0 0 1 .338.011c.27.17.495.124.716-.008l-.02.042c-.03.426-.19.769-.405 1.084a1.948 1.948 0 0 0-.544.416c-.068-.107-.14-.215-.21-.321-.08-.277-.355-.752-.639-.66-.363.117-.902.114-1.323.112-.216.023-.272.13-.354.182-.082.053-.19.051-.272.104-.082.052-.137.16-.22.266-.083.106-.192.212-.22.292-.03.08.024.136.105.137.17-.061.409-.036.552-.143.028-.053.02-.17.075-.278.056-.107.274-.21.382-.209.107.002.106.11.132.164.026.055.08.055.134.03.054-.027.11-.08.218-.132.245-.12.496-.136.728.013.225.156.182.462.204.704.015.14.038.455.108.729a.202.202 0 0 0-.044-.02c-.164-.05-.316-.12-.468-.188a3.2 3.2 0 0 0-.375-.124c-.517-.135-.537.61-.797 1.003-.134.31-.292.176-.519.336-.157.072-.35.216-.435.324-.085.108-.06.18.084.254.144.073.366.124.486.064.095-.047.101-.175.117-.263l.006.003-.006-.005a.228.228 0 0 1 .017-.06c.144-.113.182-.022.286-.001.06 0 .133-.024.17-.096.036-.072.036-.193.11-.337.072-.145.218-.313.339-.554.278-.193.692.318.935.536l.388.361c.044.042.112.04.198.016.03.058.062.115.095.169.293.43.532.628.912.75.269.086.55.073.845.114-.503.829.001 1.01.158 1.441.04.41-.313.702-.618.912-.193.122-.422.155-.594.31a.809.809 0 0 0-.222.33l-.015.004h.014c-.048.125-.076.26-.106.394.009.224.464-.084.559-.152.102-.088.062-.152.08-.231.017-.079.093-.173.152-.187.058-.015.099.05.152.061.052.012.117-.029.16-.102.08-.239.186-.345.408-.462.187-.096.497-.248.664-.377.167-.128.19-.233.15-.298-.147-.133-.211-.186-.179-.43.023-.105.203-.442.327-.677l.022.028c.061.08-.08.377.157.865.329.677.579.716 1.25.776.142.065.267.214.377.474.11.259.204.628.15.878-.054.25-.256.381-.4.56a.981.981 0 0 0-.07.099h-.012l.01.001c-.098.156-.152.324-.143.412.114.146.495.026.598-.012.075-.062.063-.17.078-.28.015-.11.057-.223.135-.258.077-.036.19.006.235-.08.045-.087.021-.302-.026-.486-.212-.467-.046-.97-.105-1.454-.048-.184-.208-.167-.322-.208-.233-.106-.256-.322-.222-.546.046-.444.177-.897.138-1.347.155.013.244.014.403.064.47.133.853-.193 1.045-.668.12-.297-.056-.774-.265-1.004-.59-.651.145-1.505.749-1.886M7.072 12.448c-.208.23-.385.707-.265 1.004.192.475.575.801 1.045.668.16-.05.248-.051.403-.064-.039.45.092.903.138 1.347.034.224.011.44-.222.546-.113.041-.274.024-.322.208-.06.484.107.987-.105 1.454-.047.184-.07.4-.026.485.045.087.158.045.236.08.077.036.119.149.134.26.015.11.003.217.078.279.103.038.484.158.598.012.01-.088-.045-.256-.144-.412l.011-.001H8.62a1.066 1.066 0 0 0-.071-.1c-.143-.178-.346-.309-.4-.559-.054-.25.04-.62.15-.878.11-.26.235-.409.378-.474.67-.06.92-.1 1.249-.776.237-.488.096-.784.157-.865a.498.498 0 0 1 .023-.028c.123.235.303.572.326.676.032.245-.032.298-.178.431-.04.065-.018.17.15.298.166.13.476.28.664.377.22.117.328.223.406.462.044.073.109.114.162.102.052-.011.093-.076.152-.061.058.014.134.108.152.187.018.079-.024.143.08.231.094.068.55.376.558.152-.03-.134-.058-.27-.106-.394h.014l-.015-.003a.809.809 0 0 0-.221-.331c-.173-.155-.402-.188-.594-.31-.306-.21-.66-.503-.618-.912.156-.431.66-.612.157-1.441.296-.041.576-.028.845-.115.38-.121.62-.318.912-.75.033-.053.065-.11.095-.168.086.023.154.026.199-.016.124-.115.257-.242.388-.36.242-.219.656-.73.934-.537.122.241.267.41.34.554.073.144.073.265.11.337a.181.181 0 0 0 .169.096c.105-.021.142-.112.286 0a.228.228 0 0 1 .017.061l-.006.005.006-.003c.016.088.022.216.117.263.12.06.342.009.487-.064.144-.073.168-.146.083-.254a1.373 1.373 0 0 0-.435-.324c-.227-.16-.385-.026-.519-.336-.26-.393-.28-1.138-.797-1.003-.16.044-.312.097-.375.124-.152.067-.304.138-.468.188a.193.193 0 0 0-.044.02c.07-.274.093-.588.109-.729.022-.242-.022-.548.203-.704.232-.149.483-.133.728-.013.109.052.164.105.218.131.055.026.109.026.135-.029.026-.054.024-.162.132-.164.108-.002.325.102.38.21.056.106.048.224.076.277.143.107.382.082.552.143.081-.001.134-.056.106-.137-.028-.08-.138-.186-.22-.292-.084-.107-.14-.214-.221-.266-.082-.053-.19-.051-.272-.104-.081-.052-.137-.16-.353-.182-.422.002-.96.005-1.324-.113-.284-.091-.56.384-.639.66-.07.107-.142.215-.21.322a1.948 1.948 0 0 0-.544-.416c-.215-.315-.376-.658-.405-1.084l-.02-.042c.221.132.446.178.716.008a.411.411 0 0 1 .337-.011c.108.026.203.077.311.103.108.027.229.03.302.007.124-.06.109-.13.042-.171-.077-.048-.225-.063-.308-.075-.134.007-.14-.085.032-.06.13.017.251.058.34.032.09-.026.146-.118.148-.262.017-.131-.134-.205-.221-.246-.077-.037-.071-.074-.109-.112-.214-.217-.642-.265-.953-.505a.869.869 0 0 0-.145-.09c.105-.038.24-.108.275-.202-.177.057-.243.032-.383.029 0 0 .061-.07.11-.16-.137.063-.328-.037-.374-.045a.374.374 0 0 0-.171.007.955.955 0 0 0-.244-.45c-.065-.06-.112-.096-.12.015a.918.918 0 0 0 .026.379 1.01 1.01 0 0 0-.292-.208c-.166-.073-.131-.025-.06.106.067.133.108.254.127.402a.64.64 0 0 0 .044.086c-.174.13-.438.062-.858-.094.129.096.362.386.438.392-.257.037-.296.072-.763-.012.238.288.557.367.61.372-.286.026-.355.204-.685.214.157.138.518.194.592.204-.31.026-.24.196-.568.194.164.144.428.186.495.2-.284.026-.172.164-.491.25.19.12.464.175.364.195-.24.027-.13.079-.461.127.081.04.263.16.38.14.017.04-.095.129-.39.203.234.095.425.064.563-.011-.005.203-.003.404.003.6.013.48.243 1.005-.15 1.416-.494.516-.97.468-1.421.558-.396.08-.798.278-.816.953 0 0 .008.157-.214-.023-.56-.454-.376-.732-.074-1.186.331-.498.313-.836-.226-1.4-.413-.424-.916-.64-1.404-.59.604.38 1.338 1.234.748 1.885" fill="#000"/><path d="M22.217 14.338l-.179-.75s-.468.53-.455 1.238c.013.708-.583 1.946-2.024 2.21-1.44.266-2.212.43-2.64.693-.238.103-.453.257-.693.516l.301.153s.093-.13.398-.29l.616-.244c.49-.15 1.205-.282 2.234-.326.79.294 3.059-.03 3.118-3.006l-.676-.194z" fill="#008542"/><path d="M13.784 14.338l.179-.75s.468.53.455 1.238c-.013.708.583 1.946 2.024 2.21 1.44.266 2.212.43 2.64.693.238.103.453.257.693.516l-.301.153s-.093-.13-.398-.29l-.616-.244c-.49-.15-1.205-.282-2.234-.326-.79.294-3.059-.03-3.118-3.006l.676-.194z" fill="#008542"/><path d="M12.633 21.316c-1.277 0-2.708-.825-3.201-3.18l1.039-.218c.334 1.6 1.194 2.443 2.358 2.328.912-.094 1.712-.805 1.713-1.52l1.06.002c0 1.267-1.196 2.422-2.664 2.573-.1.01-.202.015-.305.015m10.734 0c-.103 0-.205-.005-.305-.016-1.468-.15-2.664-1.305-2.665-2.572l1.061-.002c0 .715.801 1.425 1.713 1.52 1.171.118 2.024-.729 2.359-2.328l1.038.218c-.494 2.355-1.924 3.18-3.2 3.18" fill="#CF1B2B"/><path d="M18.63 19.774c.011.015.007.02 0 .012-.003-.003-.006-.013-.009-.018l.008.006m-1.259.012c-.007.008-.011.003 0-.012l.009-.006c-.003.005-.006.015-.009.018m3.343-.766a14.706 14.706 0 0 1-.582-.117c-.183-.036-.36-.093-.561-.146a3.753 3.753 0 0 0-.639-.124 1.494 1.494 0 0 0-.38.012 1.18 1.18 0 0 0-.208.063.625.625 0 0 0-.242.178.918.918 0 0 0-.101.157.895.895 0 0 0-.101-.157.62.62 0 0 0-.242-.178 1.18 1.18 0 0 0-.209-.063 1.496 1.496 0 0 0-.38-.012c-.232.022-.44.07-.638.124-.201.053-.378.11-.561.146a14.27 14.27 0 0 1-.582.117 6.65 6.65 0 0 1-.94.114l-.626.577c.15.009.299.012.442.007.42-.025.826-.09 1.222-.16.2-.037.392-.074.587-.104.209-.031.413-.086.598-.126.187-.04.369-.075.533-.078.08.002.155.008.212.024.02.01.013 0 .073.032l.017.008.008.004.004.002.002.001c-.002-.001-.002-.001 0 0-.002-.001-.002-.001 0 0l-.02-.01a.02.02 0 0 1-.013-.004c-.009-.009-.007-.001-.007-.001a.634.634 0 0 1 .012.436h-.003l-.004.001a.404.404 0 1 0 .216.776l.077-.027a.722.722 0 0 0 .207-.126.758.758 0 0 0 .116-.145.76.76 0 0 0 .116.145.716.716 0 0 0 .207.126l.077.028a.404.404 0 1 0 .214-.777h-.002l-.004-.001a.637.637 0 0 1 .013-.436s.002-.008-.007.001a.022.022 0 0 1-.012.004l-.021.01.002-.001.004-.002.008-.004.017-.008c.06-.032.053-.021.073-.032a.864.864 0 0 1 .212-.024c.164.003.346.037.533.078.184.04.39.095.598.126.195.03.388.067.587.104.396.07.801.135 1.222.16.176.006.36.003.546-.015l-.54-.557a6.302 6.302 0 0 1-1.13-.126" fill="#FFB200"/><path d="M18 22.164a3.484 3.484 0 0 1-3.536-3.419h1.06c0 .951.788 2.358 2.477 2.358 1.688 0 2.475-1.407 2.475-2.358h1.061a3.484 3.484 0 0 1-3.536 3.419" fill="#CF1B2B"/><path d="M16.521 10.272s.922.424 1.711.444c.789.02.986-.111.986-.111l-.225.437H17.07l-.549-.77z" fill="#231F1F"/><path fill="#FFF" d="M16.825 10.213l.484.347h1.789l-.243-1.183-1.546.074z"/><path d="M17.365 7.993l-.004-.002a.064.064 0 0 1-.035-.084c.068-.167.149-.259.245-.279l.137-.264a.064.064 0 0 1 .087-.027.065.065 0 0 1 .028.087l-.152.294a.065.065 0 0 1-.058.036c-.054 0-.114.072-.167.202a.065.065 0 0 1-.08.037" fill="#FFB200"/><path d="M17.938 7.615s.124-.201.109-.425l-.5-.328s.043.36-.043.474c.099.157.225.275.434.28m-.667-2.426c-.465-.2-.719-.622-.876-1.147a.29.29 0 0 0-.497-.108c-.552.634-.409 1.836-.112 3.163.133.348.217.327.227-.227.14.235.227.199.232-.268.13.168.197.06.218-.236.112.093.174.043.164-.21.122.044.242-.018.36-.138.201-.332.439-.682.284-.83" fill="#3A2A17"/><path d="M16.484 5.944c.228.484.638.85 1.209 1.112a.931.931 0 0 1 .43.583c.178.177.338.195.492.165.05-.202-.085-.44-.085-.44.314.257.469.545.469.545.139.14.183.14.144.014.134.146.212.167.205 0 .093.125.14.135.129-.004.097.091.192.177.175-.01.112.161.14.131.105-.036-.251-.725-.877-1.487-1.441-1.856-.566-.368-1.528-.491-1.528-.491-.218.045-.324.18-.304.418" fill="#594529"/><path d="M17.636 6.001c.308-.306.313-.645.122-1.006a.44.44 0 0 1 .155-.58l.24-.15a1.6 1.6 0 0 1 1.233-.195c.649.16 1.224.411 1.734.747.538.367.254.37-.362.225.255.229.376.394-.412.128.105.135.095.206-.34.04.118.174.016.222-.39.097.104.148.055.206-.209.138.044.107-.033.13-.14.132.017.114-.039.166-.15.17.032.128.01.197-.082.195.003.102-.05.175-.14.229.021.126-.017.21-.133.235l-.195.164c-.44-.17-1.012-.32-.93-.569" fill="#594529"/><path d="M17.108 6.182a.102.102 0 0 1-.083-.042.35.35 0 0 1-.056-.12.323.323 0 0 0-.022.037.101.101 0 0 1-.091.056h-.009a.102.102 0 0 1-.088-.073l-.023-.076a.101.101 0 0 1-.116-.054.402.402 0 0 1-.035-.204.1.1 0 0 1 .008-.034 1.18 1.18 0 0 1 .116-.202l.027-.04c.036-.054.054-.104.079-.172a.437.437 0 0 1 .062-.113.294.294 0 0 0 .026-.039.061.061 0 0 0 .008-.019c-.01.015-.02.016-.03.017a.46.46 0 0 1-.047.002c-.325-.012-.398-.24-.4-.249a.101.101 0 0 1 .06-.125c-.019-.02-.026-.02-.034-.02a.498.498 0 0 0-.102.02.102.102 0 0 1-.126-.12c.042-.194.182-.306.387-.306a.6.6 0 0 1 .065.004.368.368 0 0 1 .198-.055.49.49 0 0 1 .125.017c.041.011.084.028.129.047.077.03.156.063.246.063a.385.385 0 0 0 .075-.006.102.102 0 0 1 .1.122.215.215 0 0 1-.051.101.324.324 0 0 1 .076.067c.142.167.148.382.154.572l.004.08c.003.075.002.15 0 .224v.142a.672.672 0 0 1-.016.19.138.138 0 0 1-.002.047l-.023.069a.103.103 0 0 1-.12.066.101.101 0 0 1-.145.046.102.102 0 0 1-.174.022.427.427 0 0 1-.052-.086l.001.034a.102.102 0 0 1-.101.11" fill="#594529"/><path d="M17.638 5.656c0-.111.005-.222 0-.334-.01-.198.004-.429-.134-.591-.06-.071-.143-.083-.226-.116 0 0 .16-.038.18-.137-.202.032-.347-.073-.478-.108-.13-.034-.22.004-.27.048 0 0-.315-.08-.378.214.15-.04.188-.036.272.07.083.107.236.036.296.176 0 0-.214.05-.37-.05 0 0 .052.166.296.176.054.002.115-.02.16.022.038.038.03.086.005.13-.025.046-.058.076-.077.128-.028.075-.05.135-.093.202-.048.073-.1.144-.135.225a.306.306 0 0 0 .026.154.45.45 0 0 1 .136-.213c-.058.126-.03.232.008.359.05-.097.137-.164.186-.26.028.106-.011.222.066.33a.429.429 0 0 1 .108-.32c.048.097.057.213.124.301a1.949 1.949 0 0 1-.046-.34c.106.069.105.214.192.292-.068-.087-.028-.203-.037-.32.106.069.086.175.153.263l.024-.069-.006-.026c.025-.059.018-.149.018-.206" fill="#F1F2F2"/></g></g></svg>