<svg width="36" height="26" viewBox="0 0 36 26" xmlns="http://www.w3.org/2000/svg" xmlns:xlink="http://www.w3.org/1999/xlink"><title>US-RI</title><defs><path d="M4 0a4 4 0 0 0-4 4v18a4 4 0 0 0 4 4h28a4 4 0 0 0 4-4V4a4 4 0 0 0-4-4H4z" id="a"/></defs><g fill="none" fill-rule="evenodd"><mask id="b" fill="#fff"><use xlink:href="#a"/></mask><use fill="#E89B00" xlink:href="#a"/><path d="M32 25.2H3.2A3.2 3.2 0 0 1 0 22V4A3.2 3.2 0 0 1 3.2.8H32A3.2 3.2 0 0 1 35.2 4v18a3.2 3.2 0 0 1-3.2 3.2" fill="#F1F2F2" mask="url(#b)"/><path d="M22.148 4.193l-1.422-.747.712 1.44-1.15 1.123 1.59-.232.712 1.44.27-1.583 1.59-.233-1.422-.746.27-1.585-1.15 1.123zm3.695 2.956l-.913-1.323-.038 1.607-1.54.459 1.515.534-.039 1.606.977-1.277 1.515.534-.913-1.323.977-1.277-1.54.46zm1.898 4.334l-.194-1.595-.78 1.404-1.578-.31 1.095 1.178-.781 1.405 1.457-.678 1.095 1.177-.195-1.595 1.459-.677-1.578-.31zm-.334 4.72l.57-1.503-1.343.88-1.253-1.006.421 1.55-1.343.882 1.605.077.421 1.55.57-1.502 1.605.078-1.253-1.006zm-2.488 4.024l1.203-1.066-1.6.155-.641-1.473-.348 1.569-1.6.155 1.387.815-.348 1.569 1.203-1.066 1.386.815-.642-1.473zm-4.075 2.406l1.561-.384-1.489-.606.117-1.603-1.037 1.228-1.487-.606.848 1.365-1.037 1.229 1.56-.385.849 1.365.116-1.603zm-4.725.238l1.56.385-1.035-1.23.848-1.364-1.49.606-1.035-1.228.117 1.603-1.49.606 1.562.384.115 1.603.848-1.365zm-4.294-1.986l1.203 1.066-.348-1.57 1.386-.814-1.6-.155-.346-1.57-.643 1.474-1.598-.155 1.203 1.066-.643 1.473 1.386-.815zm-2.88-3.754l.57 1.503.421-1.551 1.605-.077-1.344-.881.423-1.551-1.253 1.007-1.345-.881.57 1.503-1.253 1.006 1.605-.078zm-.806-4.662l-.193 1.595 1.094-1.177 1.458.678-.781-1.405 1.093-1.177-1.577.309-.78-1.404-.194 1.595-1.578.309 1.458.677zm1.454-4.503L8.68 9.289l1.515-.534.976 1.277-.038-1.606 1.516-.534-1.54-.46-.04-1.606-.913 1.323-1.54-.46.976 1.277zm3.38-3.311l-1.425.746 1.591.233.27 1.584.713-1.441 1.59.232-1.15-1.122.713-1.441-1.424.747-1.15-1.123.271 1.585zM18 1.764l.497 1.529h1.607l-1.3.945.497 1.528L18 4.82l-1.3.945.497-1.528-1.3-.945h1.606L18 1.763zm-.622 7.697c0-.343.279-.623.622-.624a.625.625 0 0 1 0 1.248.625.625 0 0 1-.622-.624m5.217 5.487l-1.342.556c-.092.097-.056.252.036.412-.058.032-.116.064-.18.094a4.645 4.645 0 0 1-.65.255c-.115.042-.241.07-.366.105-.13.025-.256.06-.391.08-.134.021-.27.042-.41.054-.14.017-.281.023-.424.03-.154.004-.313.011-.47.017v-4.784c.066 0 .133 0 .199-.002.196-.002.39-.015.577-.02.188-.007.369-.02.54-.032.172-.01.335-.026.485-.04l.087-.01c.095.142.25.242.434.242a.531.531 0 0 0 0-1.062.52.52 0 0 0-.434.242l-.087-.01c-.15-.014-.313-.03-.484-.04-.172-.012-.353-.026-.541-.03-.187-.008-.381-.02-.577-.022l-.2-.003v-.339c.498-.169.863-.627.863-1.18 0-.694-.565-1.26-1.26-1.26a1.262 1.262 0 0 0-1.258 1.26c0 .553.363 1.01.86 1.18v.34l-.197.002c-.197.002-.391.014-.578.021-.188.005-.37.02-.541.031-.171.01-.334.026-.484.04l-.087.01a.52.52 0 0 0-.434-.242.53.53 0 1 0 0 1.062c.185 0 .339-.1.434-.242l.087.01c.15.014.313.03.484.04.172.011.353.025.54.031.188.006.382.02.579.021l.198.002v4.782l-.048-.002c-.141-.01-.278-.002-.422-.013-.143-.007-.285-.013-.423-.03a5.263 5.263 0 0 1-.41-.055c-.136-.019-.263-.054-.392-.079-.124-.036-.25-.063-.367-.105a4.645 4.645 0 0 1-.65-.255c-.063-.03-.121-.062-.18-.094.093-.16.129-.315.037-.412l-1.342-.556c-.086-.035-.174.048-.143.135l.484 1.37c.125.133.368.043.59-.125.08.063.162.13.254.19.205.138.436.275.692.394.127.063.263.112.4.17.14.047.282.104.43.144.147.044.297.09.45.124.155.041.31.07.47.1.157.035.326.042.49.084.085.03.156.04.233.114.037.035.075.075.113.105a.215.215 0 0 0 .057.034.098.098 0 0 0 .029.01l.014.001.007.001h.004l.02.001c.085.003.168-.079.248-.152.08-.075.16-.086.24-.115.162-.04.323-.048.48-.083.16-.03.317-.059.47-.1.154-.034.304-.08.45-.124.149-.04.29-.097.43-.144.138-.058.274-.107.4-.17.257-.119.489-.256.693-.394.092-.06.174-.127.253-.19.223.168.466.258.59.125l.485-1.37a.108.108 0 0 0-.143-.135" fill="#E89B00" mask="url(#b)"/><path d="M22.521 13.677l-.794-.54.538-.794-1.378.264v-.732c-1.997.87-3.928.942-5.774 0v.732l-1.378-.264.539.795-.795.539 2.335.448.105-.552c1.346.47 2.732.434 4.155-.032l.112.584 2.335-.448z" fill="#00247D" mask="url(#b)"/></g></svg>