<svg width="36" height="26" viewBox="0 0 36 26" xmlns="http://www.w3.org/2000/svg" xmlns:xlink="http://www.w3.org/1999/xlink"><title>US-SC</title><defs><rect id="a" width="36" height="26" rx="4"/></defs><g fill="none" fill-rule="evenodd"><mask id="b" fill="#fff"><use xlink:href="#a"/></mask><use fill="#00247D" xlink:href="#a"/><g mask="url(#b)" fill="#F1F2F2"><path d="M16.506 3.895l.794.987s.555-.337.58-.264c.023.072-.049.818-.049.818l.386.096-.314.988s.483-.265.458-.168c-.024.096-.144.94-.144.94l.193.12-.024.94s.194.336.194.264c0-.072.192-1.228.192-1.228l.265.216.094-.602.217-1.035.242.385.506-1.711.265.602.602-.698.41-.024.602-.169.121.362h.554s-.288.241-.264.312c.022.073.528.338.456.362-.072.024-1.3-.096-1.3-.096l-.698.698.433.145-.653.385.556.169-.506.385.433-.048-.699.53.7.145-.94.481.216.24-.938.555-.122.386.892-.699s.723-.482 1.084-.699c.361-.216.65-.626 1.254-.795.603-.168 1.758.025 1.758.025l-1.085.578.217.337-.698.217.096.41-1.157.168.024.433-.987.17-.12.409-.674.24.313.266s-.579.193-.506.217c.073.024.844.096.844.096s-.387.337-.315.337c.073 0 1.036.048 1.036.048l-.41.29.966.047-.436.338s.795.072.795.145c0 .071-.336.433-.336.433l.698.072s-.337.362-.266.386c.075.024.99.65.99.65l-1.086-.144s-.264.36-.29.288c-.022-.071-.287-.506-.287-.506l-.265.29-.289-.578s-.337.192-.314.12c.024-.072-.386-.53-.386-.53l-.096.217-.264-.65-.24.337-.46-.627-.168.265-.627-.554s-.023.362 0 .434c.025.072.46.386.46.386s-.29.12-.29.192c0 .072.579.53.579.53l-.266.193.626.53s-.578.12-.507.169c.075.048.362.433.362.433l-.24.578-.48-.747-.267.073-.049-.626-.263-.025.143-.698-.289.048-.024-.578-.12-.578-.241-.386s-.168.29-.145.361c.025.073.218.53.218.53s-.265.145-.218.217c.049.072.313.602.313.602s-.578.12-.506.12c.074 0 .266.338.266.338l-.314.12-.144.362s-.36-.41-.337-.337c.024.072-.217.747-.217.747l-.36-.41.36-1.422-.435-.12-.312.65s-.264-.312-.29-.24c-.024.072-.29.554-.29.554s-.31-.53-.286-.458c.023.072-.363.844-.363.844s-.338-.676-.338-.579c0 .096-.24.94-.24.94s-.384-.65-.361-.53c.025.12-.265.674-.265.674l-.073-.602-.529.313.602-.867 1.013-.94.771-.577-.508-.073s.734-.255.818-.265c.22-.024-.335-.217-.335-.217l1.348-.409s-.602-.314-.674-.241c-.072.072-.796.217-.796.217l-.096-.554-.746.313s-.12-.507-.145-.434c-.024.072-.603.385-.603.385l-.287-.313-.339.53-.386-.289-.696.217.336-.506-.386-.217.796-.506.168-.337 1.085.072s-.29-.385-.242-.313c.05.072 1.108.241 1.108.241l.315-.048 1.06.385-.868-.698-.747-.145.481-.385-1.132-.41.242-.385-1.496-.385.918-.242-.627-1.06 1.3.772.578-.193.29.747.53.313.095.554.266-.12.24.65.315-.097.167.458.46.024-.122-.602.192-.29-.53-.433.46-.217-.676-.554.578-.072-.82-.795.653.024-.653-.747.531-.12-.097-.963z"/><path d="M18.743 10.216l-.025.497-.044 1.31c-.03 1.084-.05 2.53-.038 3.975 0 .723.017 1.446.027 2.124.003.338.011.666.025.976.007.31.036.604.052.876.048.542.104.994.159 1.31.053.316.097.496.097.496h-1.992s.044-.18.098-.496c.054-.316.11-.768.158-1.31.016-.272.045-.565.052-.876.014-.31.022-.638.026-.976.01-.678.026-1.4.026-2.124a112.519 112.519 0 0 0-.082-5.285l-.025-.497h1.486zm.253 11.564s2.73.063 2.73 1.183l-.775-.265-.427.489-.51-.387-.61.55-.408-.611-.448.387-.786-.613-.686.633-.244-.58-.733.54-.836-.326-.162.448-.754-.448s1.317-1 2.657-1h1.992zM5.927 2.402c-.136 0-.268.01-.4.024a2.775 2.775 0 1 1-3.1 3.101 3.525 3.525 0 1 0 3.5-3.125"/></g></g></svg>