<svg width="36" height="26" viewBox="0 0 36 26" xmlns="http://www.w3.org/2000/svg" xmlns:xlink="http://www.w3.org/1999/xlink"><title>US-TN</title><defs><path d="M4 0a4 4 0 0 0-4 4v18a4 4 0 0 0 4 4h28a4 4 0 0 0 4-4V4a4 4 0 0 0-4-4H4z" id="a"/></defs><g fill="none" fill-rule="evenodd"><mask id="b" fill="#fff"><use xlink:href="#a"/></mask><use fill="#CF1B2B" xlink:href="#a"/><path fill="#00247D" mask="url(#b)" d="M33 26h3V0h-3z"/><path fill="#F1F2F2" mask="url(#b)" d="M32 26h1V0h-1z"/><path d="M23.2 13.2a7.2 7.2 0 1 0-14.401.001A7.2 7.2 0 0 0 23.2 13.2" fill="#F1F2F2"/><path d="M22.4 13.2A6.4 6.4 0 0 0 16 6.8a6.4 6.4 0 0 0-6.4 6.4 6.4 6.4 0 0 0 6.4 6.4 6.4 6.4 0 0 0 6.4-6.4" fill="#00247D"/><path d="M14.99 11.146l1.489-1.303-1.97.18-.78-1.82-.44 1.93-1.97.178 1.7 1.014-.44 1.93 1.49-1.304 1.7 1.014-.78-1.819zm3.302 2.244l.384 1.942.83-1.797 1.965.235-1.451-1.345.83-1.796-1.728.965-1.451-1.345.384 1.941-1.728.965 1.965.235zm-2.41.153l-.027 1.98 1.873.637-1.89.585-.028 1.98-1.141-1.619-1.89.585 1.185-1.584-1.14-1.618 1.873.638 1.186-1.584z" fill="#F1F2F2"/></g></svg>