<svg width="90" height="65" viewBox="0 0 90 65" xmlns="http://www.w3.org/2000/svg"><title>Alaska</title><g fill="none" fill-rule="evenodd"><path d="M80 65H10C4.477 65 0 60.523 0 55V10C0 4.477 4.477 0 10 0h70c5.523 0 10 4.477 10 10v45c0 5.523-4.477 10-10 10" fill="#00247D"/><path fill="#FFB200" d="M40.768 46.056l.84 2.587h2.72l-2.2 1.599.84 2.586-2.2-1.599-2.2 1.599.84-2.587-2.2-1.599h2.72zM55.194 51.444l.84 2.586h2.72l-2.2 1.599.84 2.586-2.2-1.598-2.2 1.598.84-2.586-2.2-1.6h2.72zM61.25 41.074l.84 2.586h2.72l-2.2 1.6.84 2.585-2.2-1.598-2.2 1.598.84-2.586-2.2-1.599h2.72zM41.371 35.52l.84 2.586h2.72l-2.2 1.6.84 2.585-2.2-1.598-2.2 1.598.84-2.586-2.2-1.599h2.72zM72.305 6.785l1.709 5.26h5.53l-4.474 3.251 1.71 5.26-4.475-3.251-4.475 3.251 1.71-5.26-4.475-3.251h5.53zM34.65 27.334l.84 2.586h2.72l-2.2 1.599.84 2.586-2.2-1.598-2.2 1.598.84-2.586-2.2-1.6h2.72zM27.53 21.946l.84 2.586h2.72l-2.2 1.6.84 2.585-2.2-1.598-2.2 1.598.84-2.586-2.2-1.599h2.72zM14.015 18.04l.84 2.587h2.72l-2.2 1.599.84 2.586-2.2-1.598-2.2 1.598.84-2.586-2.2-1.6h2.72z"/></g></svg>