<?xml version="1.0" encoding="UTF-8" standalone="no"?>
<svg width="90px" height="65px" viewBox="0 0 90 65" version="1.1" xmlns="http://www.w3.org/2000/svg" xmlns:xlink="http://www.w3.org/1999/xlink">
    <!-- Generator: Sketch 3.7.2 (28276) - http://www.bohemiancoding.com/sketch -->
    <title>Alaska</title>
    <desc>Created with Sketch.</desc>
    <defs></defs>
    <g id="Page-1" stroke="none" stroke-width="1" fill="none" fill-rule="evenodd">
        <g id="Alaska">
            <g id="Page-1">
                <path d="M80,65 L10,65 C4.477,65 0,60.523 0,55 L0,10 C0,4.477 4.477,0 10,0 L80,0 C85.523,0 90,4.477 90,10 L90,55 C90,60.523 85.523,65 80,65" id="Fill-1" fill="#00247D"></path>
                <polygon id="Fill-3" fill="#FFB200" points="40.7684 46.0565 41.6084 48.6425 44.3284 48.6425 42.1284 50.2415 42.9684 52.8275 40.7684 51.2295 38.5684 52.8275 39.4084 50.2415 37.2084 48.6425 39.9284 48.6425"></polygon>
                <polygon id="Fill-5" fill="#FFB200" points="55.1945 51.4437 56.0345 54.0297 58.7545 54.0297 56.5545 55.6287 57.3945 58.2147 55.1945 56.6167 52.9945 58.2147 53.8345 55.6287 51.6345 54.0297 54.3545 54.0297"></polygon>
                <polygon id="Fill-7" fill="#FFB200" points="61.2505 41.0744 62.0905 43.6604 64.8105 43.6604 62.6105 45.2594 63.4505 47.8454 61.2505 46.2474 59.0505 47.8454 59.8905 45.2594 57.6905 43.6604 60.4105 43.6604"></polygon>
                <polygon id="Fill-9" fill="#FFB200" points="41.371 35.5204 42.211 38.1064 44.931 38.1064 42.731 39.7054 43.571 42.2914 41.371 40.6934 39.171 42.2914 40.011 39.7054 37.811 38.1064 40.531 38.1064"></polygon>
                <polygon id="Fill-11" fill="#FFB200" points="72.3048 6.785 74.0138 12.045 79.5448 12.045 75.0698 15.296 76.7798 20.556 72.3048 17.305 67.8298 20.556 69.5398 15.296 65.0648 12.045 70.5958 12.045"></polygon>
                <polygon id="Fill-13" fill="#FFB200" points="34.6494 27.3337 35.4894 29.9197 38.2094 29.9197 36.0094 31.5187 36.8494 34.1047 34.6494 32.5067 32.4494 34.1047 33.2894 31.5187 31.0894 29.9197 33.8094 29.9197"></polygon>
                <polygon id="Fill-15" fill="#FFB200" points="27.5296 21.9464 28.3696 24.5324 31.0896 24.5324 28.8896 26.1314 29.7296 28.7174 27.5296 27.1194 25.3296 28.7174 26.1696 26.1314 23.9696 24.5324 26.6896 24.5324"></polygon>
                <polygon id="Fill-17" fill="#FFB200" points="14.0151 18.0408 14.8551 20.6268 17.5751 20.6268 15.3751 22.2258 16.2151 24.8118 14.0151 23.2138 11.8151 24.8118 12.6551 22.2258 10.4551 20.6268 13.1751 20.6268"></polygon>
            </g>
        </g>
    </g>
</svg>