<?xml version="1.0" encoding="UTF-8" standalone="no"?>
<svg width="90px" height="65px" viewBox="0 0 90 65" version="1.1" xmlns="http://www.w3.org/2000/svg" xmlns:xlink="http://www.w3.org/1999/xlink">
    <!-- Generator: Sketch 3.7.2 (28276) - http://www.bohemiancoding.com/sketch -->
    <title>Alabama</title>
    <desc>Created with Sketch.</desc>
    <defs>
        <path d="M10.928,0.947 C5.404,0.947 0.927,5.423 0.927,10.947 L0.927,55.947 C0.927,61.469 5.404,65.946 10.928,65.946 L80.927,65.946 C86.45,65.946 90.927,61.469 90.927,55.947 L90.927,10.947 C90.927,5.423 86.45,0.947 80.927,0.947 L10.928,0.947 L10.928,0.947 Z" id="path-1"></path>
        <path d="M10.928,0.947 C5.404,0.947 0.927,5.423 0.927,10.947 L0.927,55.947 C0.927,61.469 5.404,65.946 10.928,65.946 L80.927,65.946 C86.45,65.946 90.927,61.469 90.927,55.947 L90.927,10.947 C90.927,5.423 86.45,0.947 80.927,0.947 L10.928,0.947 L10.928,0.947 Z" id="path-3"></path>
    </defs>
    <g id="Page-1" stroke="none" stroke-width="1" fill="none" fill-rule="evenodd">
        <g id="Alabama">
            <g id="Page-1" transform="translate(-1.000000, -1.000000)">
                <polygon id="Fill-1" fill="#FFFFFF" points="0.927 66.0529 90.927 66.0529 90.927 1.0529 0.927 1.0529"></polygon>
                <path d="M80.9272,66.0532 L10.9272,66.0532 C5.4042,66.0532 0.9272,61.5762 0.9272,56.0532 L0.9272,11.0532 C0.9272,5.5302 5.4042,1.0532 10.9272,1.0532 L80.9272,1.0532 C86.4502,1.0532 90.9272,5.5302 90.9272,11.0532 L90.9272,56.0532 C90.9272,61.5762 86.4502,66.0532 80.9272,66.0532" id="Fill-2" fill="#F1F2F2"></path>
                <g id="Group-10" transform="translate(0.000000, 0.106900)">
                    <g id="Group-6">
                        <mask id="mask-2" fill="white">
                            <use xlink:href="#path-1"></use>
                        </mask>
                        <g id="Clip-5"></g>
                        <polygon id="Fill-4" fill="#CF1B2B" mask="url(#mask-2)" points="87.9995 70 -2.0005 5 3.8545 -3.107 93.8545 61.893"></polygon>
                    </g>
                    <g id="Group-9">
                        <mask id="mask-4" fill="white">
                            <use xlink:href="#path-3"></use>
                        </mask>
                        <g id="Clip-8"></g>
                        <polygon id="Fill-7" fill="#CF1B2B" mask="url(#mask-4)" points="3.8545 70 -1.9995 61.893 87.9995 -3.107 93.8545 5"></polygon>
                    </g>
                </g>
            </g>
        </g>
    </g>
</svg>