<svg width="90" height="65" viewBox="0 0 90 65" xmlns="http://www.w3.org/2000/svg" xmlns:xlink="http://www.w3.org/1999/xlink"><title>Alabama</title><defs><path d="M10.928.947C5.404.947.927 5.423.927 10.947v45c0 5.522 4.477 9.999 10.001 9.999h69.999c5.523 0 10-4.477 10-9.999v-45c0-5.524-4.477-10-10-10H10.928z" id="a"/><path d="M10.928.947C5.404.947.927 5.423.927 10.947v45c0 5.522 4.477 9.999 10.001 9.999h69.999c5.523 0 10-4.477 10-9.999v-45c0-5.524-4.477-10-10-10H10.928z" id="c"/></defs><g fill="none" fill-rule="evenodd"><path fill="#FFF" d="M-.073 65.053h90v-65h-90z"/><path d="M79.927 65.053h-70c-5.523 0-10-4.477-10-10v-45c0-5.523 4.477-10 10-10h70c5.523 0 10 4.477 10 10v45c0 5.523-4.477 10-10 10" fill="#F1F2F2"/><g transform="translate(-1 -.893)"><mask id="b" fill="#fff"><use xlink:href="#a"/></mask><path fill="#CF1B2B" mask="url(#b)" d="M88 70L-2 5l5.854-8.107 90 65z"/></g><g transform="translate(-1 -.893)"><mask id="d" fill="#fff"><use xlink:href="#c"/></mask><path fill="#CF1B2B" mask="url(#d)" d="M3.854 70L-2 61.893l90-65L93.855 5z"/></g></g></svg>