<?xml version="1.0" encoding="UTF-8" standalone="no"?>
<svg width="90px" height="65px" viewBox="0 0 90 65" version="1.1" xmlns="http://www.w3.org/2000/svg" xmlns:xlink="http://www.w3.org/1999/xlink">
    <!-- Generator: Sketch 3.7.2 (28276) - http://www.bohemiancoding.com/sketch -->
    <title>Arkansas</title>
    <desc>Created with Sketch.</desc>
    <defs></defs>
    <g id="Page-1" stroke="none" stroke-width="1" fill="none" fill-rule="evenodd">
        <g id="Arkansas">
            <g id="Page-1">
                <path d="M80,65 L10,65 C4.477,65 0,60.523 0,55 L0,10 C0,4.477 4.477,0 10,0 L80,0 C85.523,0 90,4.477 90,10 L90,55 C90,60.523 85.523,65 80,65" id="Fill-1" fill="#BF0930"></path>
                <polygon id="Fill-3" fill="#EEEEEE" points="45 56 11 32.5 45 9 79 32.5"></polygon>
                <path d="M16.2764,32.5 L45.0004,52.354 L73.7234,32.5 L45.0004,12.647 L16.2764,32.5 Z M45.0004,59.646 L5.7234,32.5 L45.0004,5.353 L84.2764,32.5 L45.0004,59.646 Z" id="Fill-5" fill="#002868"></path>
                <polygon id="Fill-7" fill-opacity="0.5" fill="#002868" points="30 32 60 32 60 27 30 27"></polygon>
                <polygon id="Fill-9" fill="#002868" points="45 15.9549 45.998 19.0279 49.23 19.0279 46.616 20.9269 47.614 23.9999 45 22.1009 42.386 23.9999 43.384 20.9269 40.77 19.0279 44.002 19.0279"></polygon>
                <polygon id="Fill-11" fill="#002868" points="53 33.927 53.998 37 57.23 37 54.616 38.899 55.614 41.972 53 40.073 50.386 41.972 51.384 38.899 48.77 37 52.002 37"></polygon>
                <polygon id="Fill-13" fill="#002868" points="37 33.927 36.002 37 32.77 37 35.384 38.899 34.386 41.972 37 40.073 39.614 41.972 38.616 38.899 41.23 37 37.998 37"></polygon>
                <polygon id="Fill-15" fill="#002868" points="45 50.0451 44.002 46.9721 40.77 46.9721 43.384 45.0731 42.386 42.0001 45 43.8991 47.614 42.0001 46.616 45.0731 49.23 46.9721 45.998 46.9721"></polygon>
                <g id="Group-65" transform="translate(10.000000, 8.000000)" fill="#EEEEEE">
                    <path d="M3,24.5058 C2.997,25.3338 2.323,26.0028 1.494,25.9998 C0.666,25.9968 -0.003,25.3228 1.06581427e-14,24.4938 C0.003,23.6658 0.677,22.9968 1.506,22.9998 C2.334,23.0028 3.003,23.6778 3,24.5058" id="Fill-17"></path>
                    <path d="M8.5833,20.6725 C8.5803,21.5005 7.9063,22.1695 7.0773,22.1665 C6.2493,22.1635 5.5803,21.4895 5.5833,20.6605 C5.5863,19.8325 6.2603,19.1635 7.0893,19.1665 C7.9173,19.1695 8.5863,19.8445 8.5833,20.6725" id="Fill-19"></path>
                    <path d="M14.1667,16.8392 C14.1637,17.6672 13.4897,18.3362 12.6607,18.3332 C11.8327,18.3302 11.1637,17.6562 11.1667,16.8272 C11.1697,15.9992 11.8437,15.3302 12.6727,15.3332 C13.5007,15.3362 14.1697,16.0112 14.1667,16.8392" id="Fill-21"></path>
                    <path d="M19.75,13.0058 C19.747,13.8338 19.073,14.5028 18.244,14.4998 C17.416,14.4968 16.747,13.8228 16.75,12.9938 C16.753,12.1658 17.427,11.4968 18.256,11.4998 C19.084,11.5028 19.753,12.1778 19.75,13.0058" id="Fill-23"></path>
                    <path d="M25.3333,9.1725 C25.3303,10.0005 24.6563,10.6695 23.8273,10.6665 C22.9993,10.6635 22.3303,9.9895 22.3333,9.1605 C22.3363,8.3325 23.0103,7.6635 23.8393,7.6665 C24.6673,7.6695 25.3363,8.3445 25.3333,9.1725" id="Fill-25"></path>
                    <path d="M30.9167,5.3392 C30.9137,6.1672 30.2397,6.8362 29.4107,6.8332 C28.5827,6.8302 27.9137,6.1562 27.9167,5.3272 C27.9197,4.4992 28.5937,3.8302 29.4227,3.8332 C30.2507,3.8362 30.9197,4.5112 30.9167,5.3392" id="Fill-27"></path>
                    <path d="M67,24.5058 C67.003,25.3338 67.677,26.0028 68.506,25.9998 C69.334,25.9968 70.003,25.3228 70,24.4938 C69.997,23.6658 69.323,22.9968 68.494,22.9998 C67.666,23.0028 66.997,23.6778 67,24.5058" id="Fill-29"></path>
                    <path d="M61.4167,20.6725 C61.4197,21.5005 62.0937,22.1695 62.9227,22.1665 C63.7507,22.1635 64.4197,21.4895 64.4167,20.6605 C64.4137,19.8325 63.7397,19.1635 62.9107,19.1665 C62.0827,19.1695 61.4137,19.8445 61.4167,20.6725" id="Fill-31"></path>
                    <path d="M55.8333,16.8392 C55.8363,17.6672 56.5103,18.3362 57.3393,18.3332 C58.1673,18.3302 58.8363,17.6562 58.8333,16.8272 C58.8303,15.9992 58.1563,15.3302 57.3273,15.3332 C56.4993,15.3362 55.8303,16.0112 55.8333,16.8392" id="Fill-33"></path>
                    <path d="M50.25,13.0058 C50.253,13.8338 50.927,14.5028 51.756,14.4998 C52.584,14.4968 53.253,13.8228 53.25,12.9938 C53.247,12.1658 52.573,11.4968 51.744,11.4998 C50.916,11.5028 50.247,12.1778 50.25,13.0058" id="Fill-35"></path>
                    <path d="M44.6667,9.1725 C44.6697,10.0005 45.3437,10.6695 46.1727,10.6665 C47.0007,10.6635 47.6697,9.9895 47.6667,9.1605 C47.6637,8.3325 46.9897,7.6635 46.1607,7.6665 C45.3327,7.6695 44.6637,8.3445 44.6667,9.1725" id="Fill-37"></path>
                    <path d="M39.0833,5.3392 C39.0863,6.1672 39.7603,6.8362 40.5893,6.8332 C41.4173,6.8302 42.0863,6.1562 42.0833,5.3272 C42.0803,4.4992 41.4063,3.8302 40.5773,3.8332 C39.7493,3.8362 39.0803,4.5112 39.0833,5.3392" id="Fill-39"></path>
                    <path d="M36.5,1.5058 C36.497,2.3338 35.823,3.0028 34.994,2.9998 C34.166,2.9968 33.497,2.3228 33.5,1.4938 C33.503,0.6658 34.177,-0.0032 35.006,-0.0002 C35.834,0.0028 36.503,0.6778 36.5,1.5058" id="Fill-41"></path>
                    <path d="M8.5833,28.3275 C8.5803,27.4995 7.9063,26.8305 7.0773,26.8335 C6.2493,26.8365 5.5803,27.5105 5.5833,28.3395 C5.5863,29.1675 6.2603,29.8365 7.0893,29.8335 C7.9173,29.8305 8.5863,29.1555 8.5833,28.3275" id="Fill-43"></path>
                    <path d="M14.1667,32.1608 C14.1637,31.3328 13.4897,30.6638 12.6607,30.6668 C11.8327,30.6698 11.1637,31.3438 11.1667,32.1728 C11.1697,33.0008 11.8437,33.6698 12.6727,33.6668 C13.5007,33.6638 14.1697,32.9888 14.1667,32.1608" id="Fill-45"></path>
                    <path d="M19.75,35.9942 C19.747,35.1662 19.073,34.4972 18.244,34.5002 C17.416,34.5032 16.747,35.1772 16.75,36.0062 C16.753,36.8342 17.427,37.5032 18.256,37.5002 C19.084,37.4972 19.753,36.8222 19.75,35.9942" id="Fill-47"></path>
                    <path d="M25.3333,39.8275 C25.3303,38.9995 24.6563,38.3305 23.8273,38.3335 C22.9993,38.3365 22.3303,39.0105 22.3333,39.8395 C22.3363,40.6675 23.0103,41.3365 23.8393,41.3335 C24.6673,41.3305 25.3363,40.6555 25.3333,39.8275" id="Fill-49"></path>
                    <path d="M30.9167,43.6608 C30.9137,42.8328 30.2397,42.1638 29.4107,42.1668 C28.5827,42.1698 27.9137,42.8438 27.9167,43.6728 C27.9197,44.5008 28.5937,45.1698 29.4227,45.1668 C30.2507,45.1638 30.9197,44.4888 30.9167,43.6608" id="Fill-51"></path>
                    <path d="M61.4167,28.3275 C61.4197,27.4995 62.0937,26.8305 62.9227,26.8335 C63.7507,26.8365 64.4197,27.5105 64.4167,28.3395 C64.4137,29.1675 63.7397,29.8365 62.9107,29.8335 C62.0827,29.8305 61.4137,29.1555 61.4167,28.3275" id="Fill-53"></path>
                    <path d="M55.8333,32.1608 C55.8363,31.3328 56.5103,30.6638 57.3393,30.6668 C58.1673,30.6698 58.8363,31.3438 58.8333,32.1728 C58.8303,33.0008 58.1563,33.6698 57.3273,33.6668 C56.4993,33.6638 55.8303,32.9888 55.8333,32.1608" id="Fill-55"></path>
                    <path d="M50.25,35.9942 C50.253,35.1662 50.927,34.4972 51.756,34.5002 C52.584,34.5032 53.253,35.1772 53.25,36.0062 C53.247,36.8342 52.573,37.5032 51.744,37.5002 C50.916,37.4972 50.247,36.8222 50.25,35.9942" id="Fill-57"></path>
                    <path d="M44.6667,39.8275 C44.6697,38.9995 45.3437,38.3305 46.1727,38.3335 C47.0007,38.3365 47.6697,39.0105 47.6667,39.8395 C47.6637,40.6675 46.9897,41.3365 46.1607,41.3335 C45.3327,41.3305 44.6637,40.6555 44.6667,39.8275" id="Fill-59"></path>
                    <path d="M39.0833,43.6608 C39.0863,42.8328 39.7603,42.1638 40.5893,42.1668 C41.4173,42.1698 42.0863,42.8438 42.0833,43.6728 C42.0803,44.5008 41.4063,45.1698 40.5773,45.1668 C39.7493,45.1638 39.0803,44.4888 39.0833,43.6608" id="Fill-61"></path>
                    <path d="M36.5,47.4942 C36.497,46.6662 35.823,45.9972 34.994,46.0002 C34.166,46.0032 33.497,46.6772 33.5,47.5062 C33.503,48.3342 34.177,49.0032 35.006,49.0002 C35.834,48.9972 36.503,48.3222 36.5,47.4942" id="Fill-63"></path>
                </g>
            </g>
        </g>
    </g>
</svg>