<svg width="90" height="65" viewBox="0 0 90 65" xmlns="http://www.w3.org/2000/svg"><title>Arkansas</title><g fill="none" fill-rule="evenodd"><path d="M80 65H10C4.477 65 0 60.523 0 55V10C0 4.477 4.477 0 10 0h70c5.523 0 10 4.477 10 10v45c0 5.523-4.477 10-10 10" fill="#BF0930"/><path fill="#EEE" d="M45 56L11 32.5 45 9l34 23.5z"/><path d="M16.276 32.5L45 52.354 73.723 32.5 45 12.647 16.276 32.5zM45 59.646L5.723 32.5 45 5.353 84.276 32.5 45 59.646z" fill="#002868"/><path fill-opacity=".5" fill="#002868" d="M30 32h30v-5H30z"/><path fill="#002868" d="M45 15.955l.998 3.073h3.232l-2.614 1.899.998 3.073L45 22.1 42.386 24l.998-3.073-2.614-1.9h3.232zM53 33.927L53.998 37h3.232l-2.614 1.899.998 3.073L53 40.073l-2.614 1.899.998-3.073L48.77 37h3.232zM37 33.927L36.002 37H32.77l2.614 1.899-.998 3.073L37 40.073l2.614 1.899-.998-3.073L41.23 37h-3.232zM45 50.045l-.998-3.073H40.77l2.614-1.899L42.386 42 45 43.9l2.614-1.9-.998 3.073 2.614 1.9h-3.232z"/><g fill="#EEE"><path d="M13 32.506a1.5 1.5 0 1 1-3-.012 1.5 1.5 0 0 1 3 .012M18.583 28.672a1.5 1.5 0 1 1-3-.011 1.5 1.5 0 0 1 3 .011M24.167 24.84a1.5 1.5 0 1 1-3-.013 1.5 1.5 0 0 1 3 .012M29.75 21.006a1.5 1.5 0 1 1-3-.012 1.5 1.5 0 0 1 3 .012M35.333 17.172a1.5 1.5 0 1 1-3-.011 1.5 1.5 0 0 1 3 .011M40.917 13.34a1.5 1.5 0 1 1-3-.013 1.5 1.5 0 0 1 3 .012M77 32.506a1.5 1.5 0 1 0 3-.012 1.5 1.5 0 0 0-3 .012M71.417 28.672a1.5 1.5 0 1 0 3-.011 1.5 1.5 0 0 0-3 .011M65.833 24.84a1.5 1.5 0 1 0 3-.013 1.5 1.5 0 0 0-3 .012M60.25 21.006a1.5 1.5 0 1 0 3-.012 1.5 1.5 0 0 0-3 .012M54.667 17.172a1.5 1.5 0 1 0 3-.011 1.5 1.5 0 0 0-3 .011M49.083 13.34a1.5 1.5 0 1 0 3-.013 1.5 1.5 0 0 0-3 .012M46.5 9.506a1.5 1.5 0 1 1-3-.012 1.5 1.5 0 0 1 3 .012M18.583 36.328a1.5 1.5 0 1 0-3 .011 1.5 1.5 0 0 0 3-.011M24.167 40.16a1.5 1.5 0 1 0-3 .013 1.5 1.5 0 0 0 3-.012M29.75 43.994a1.5 1.5 0 1 0-3 .012 1.5 1.5 0 0 0 3-.012M35.333 47.828a1.5 1.5 0 1 0-3 .011 1.5 1.5 0 0 0 3-.011M40.917 51.66a1.5 1.5 0 1 0-3 .013 1.5 1.5 0 0 0 3-.012M71.417 36.328a1.5 1.5 0 1 1 3 .011 1.5 1.5 0 0 1-3-.011M65.833 40.16a1.5 1.5 0 1 1 3 .013 1.5 1.5 0 0 1-3-.012M60.25 43.994a1.5 1.5 0 1 1 3 .012 1.5 1.5 0 0 1-3-.012M54.667 47.828a1.5 1.5 0 1 1 3 .011 1.5 1.5 0 0 1-3-.011M49.083 51.66a1.5 1.5 0 1 1 3 .013 1.5 1.5 0 0 1-3-.012M46.5 55.494a1.5 1.5 0 1 0-3 .012 1.5 1.5 0 0 0 3-.012"/></g></g></svg>