<svg width="90" height="65" viewBox="0 0 90 65" xmlns="http://www.w3.org/2000/svg"><title>Arizona</title><g fill="none" fill-rule="evenodd"><path fill="#FED700" d="M32.477 0L45 33 40.986 0z"/><path fill="#CF1B2B" d="M40.986 0L45 33l4-33z"/><path d="M22.214 0H10c-.694 0-1.372.071-2.026.206L45 33 22.214 0z" fill="#FED700"/><path fill="#CF1B2B" d="M32.478 0H22.214L45 33zM0 21.91V33h45z"/><path d="M.03 9.403C.018 9.601 0 9.798 0 10v11.91L45 33 .03 9.403z" fill="#FED700"/><path d="M7.973.206A9.997 9.997 0 0 0 .03 9.403L45 33 7.973.206z" fill="#CF1B2B"/><path fill="#FED700" d="M49.014 0L45 33 57.523 0zM80 0H67.786L45 33 82.027.206A10.034 10.034 0 0 0 80 0"/><path fill="#CF1B2B" d="M57.522 0L45 33 67.786 0zM45 33h45V21.911z"/><path d="M90 10c0-.201-.018-.398-.03-.597L45 33l45-11.089V10z" fill="#FED700"/><path d="M82.027.206L45 33 89.97 9.403A9.997 9.997 0 0 0 82.027.206" fill="#CF1B2B"/><path d="M0 33v22c0 5.523 4.477 10 10 10h70c5.523 0 10-4.477 10-10V33H0z" fill="#00247D"/><path fill="#FF7900" d="M45 15.03l4.236 13.037h13.708l-11.09 8.056 4.236 13.038L45 41.102 33.91 49.16l4.236-13.036-11.09-8.058h13.708z"/></g></svg>