<svg width="90" height="65" viewBox="0 0 90 65" xmlns="http://www.w3.org/2000/svg"><title>California</title><g fill="none" fill-rule="evenodd"><path d="M90 51H0V10C0 4.477 4.477 0 10 0h70c5.523 0 10 4.477 10 10v41z" fill="#F1F2F2"/><path d="M90 51H0v4c0 5.523 4.477 10 10 10h70c5.523 0 10-4.477 10-10v-4zM15.472 5.298L17 10h4.944l-4 2.907 1.528 4.702-4-2.906-4 2.906L13 12.907 9 10h4.944z" fill="#CF1B2B"/><path d="M17.087 39c0-7.01 56.59-7.01 56.59 0h-56.59z" fill="#008542"/><path d="M30.804 30.102c1.326-1.619 3.032-2.636 5.258-2.83-.405 2.426-1.618 4.852-3.64 7.28-1.348.134-2.157.538-2.427 1.212 1.561.976 3.38 1.182 5.662 0 2.05-1.56 3.971-3.379 5.663-5.662l3.64 3.64c-1.218-.053-2.06.303-2.022 1.618h3.235l2.022-2.427-1.213-3.64s1.365.405 3.64.405c0 1.365 0 2.73.405 4.044l-.405.81s-1.769-.355-2.427.808c0 1.078 5.258 1.078 5.258 0 1.254-1.96 2.914-3.388 4.854-4.449.81 1.887 2.157 2.696 4.044 2.427l.81.808c-1.349.135-2.158.54-2.428 1.214.112 1.34 4.965.934 4.854-.405v-2.022c-.883-1.86-1.574-4.116-2.023-6.876-1.6-8.13-7.253-10.792-16.582-8.493-4.662-2.275-8.683-2.383-11.729.81-1.502.153-2.898.76-4.045 2.426-.75-1.195-1.448-1.379-2.022.81-1.078-1.35-1.618-1.08-1.618.807-1.308.822-2.24 1.694-1.213 2.832l-2.022 2.426 1.618 1.214 2.022-1.214-1.213 2.023.808.404c1.618-1.079 2.697-1.079 3.236 0" fill="#594529"/><path d="M46 46h30v-5H46v5zm-32 0h30v-5H14v5z" fill-opacity=".5" fill="#594529"/></g></svg>