<svg width="90" height="65" viewBox="0 0 90 65" xmlns="http://www.w3.org/2000/svg" xmlns:xlink="http://www.w3.org/1999/xlink"><title>Colorado</title><defs><path id="a" d="M0 65h90V0H0z"/></defs><g fill="none" fill-rule="evenodd"><path d="M90 21H0V10C0 4.477 4.477 0 10 0h70c5.523 0 10 4.477 10 10v11z" fill="#00247D"/><mask id="b" fill="#fff"><use xlink:href="#a"/></mask><path fill="#F1F2F2" mask="url(#b)" d="M0 44h90V21H0z"/><path d="M80 65H10C4.477 65 0 60.523 0 55V44h90v11c0 5.523-4.477 10-10 10" fill="#00247D" mask="url(#b)"/><path d="M37 32l20.661-7.576C54.573 16.007 46.488 10 37 10c-12.15 0-22 9.85-22 22s9.85 22 22 22c9.262 0 17.182-5.726 20.426-13.83L37 32z" fill="#CF1B2B" mask="url(#b)"/><path d="M48 32c0-6.075-4.925-11-11-11s-11 4.925-11 11 4.925 11 11 11 11-4.925 11-11" fill="#FFF066" mask="url(#b)"/></g></svg>