<?xml version="1.0" encoding="UTF-8" standalone="no"?>
<svg width="90px" height="65px" viewBox="0 0 90 65" version="1.1" xmlns="http://www.w3.org/2000/svg" xmlns:xlink="http://www.w3.org/1999/xlink">
    <!-- Generator: Sketch 3.7.2 (28276) - http://www.bohemiancoding.com/sketch -->
    <title>Colorado</title>
    <desc>Created with Sketch.</desc>
    <defs>
        <polygon id="path-1" points="0 65 90 65 90 0 0 0"></polygon>
    </defs>
    <g id="Page-1" stroke="none" stroke-width="1" fill="none" fill-rule="evenodd">
        <g id="Colorado">
            <g id="Page-1">
                <path d="M90,21 L0,21 L0,10 C0,4.477 4.477,0 10,0 L80,0 C85.523,0 90,4.477 90,10 L90,21 L90,21 Z" id="Fill-1" fill="#00247D"></path>
                <mask id="mask-2" fill="white">
                    <use xlink:href="#path-1"></use>
                </mask>
                <g id="Clip-4"></g>
                <polygon id="Fill-3" fill="#F1F2F2" mask="url(#mask-2)" points="0 44 90 44 90 21 0 21"></polygon>
                <path d="M80,65 L10,65 C4.477,65 0,60.523 0,55 L0,44 L90,44 L90,55 C90,60.523 85.523,65 80,65" id="Fill-5" fill="#00247D" mask="url(#mask-2)"></path>
                <path d="M37,32 L57.661,24.424 C54.573,16.007 46.488,10 37,10 C24.85,10 15,19.85 15,32 C15,44.15 24.85,54 37,54 C46.262,54 54.182,48.274 57.426,40.17 L37,32 Z" id="Fill-6" fill="#CF1B2B" mask="url(#mask-2)"></path>
                <path d="M48,32 C48,25.925 43.075,21 37,21 C30.925,21 26,25.925 26,32 C26,38.075 30.925,43 37,43 C43.075,43 48,38.075 48,32" id="Fill-7" fill="#FFF066" mask="url(#mask-2)"></path>
            </g>
        </g>
    </g>
</svg>