<svg width="90" height="65" viewBox="0 0 90 65" xmlns="http://www.w3.org/2000/svg" xmlns:xlink="http://www.w3.org/1999/xlink"><title>Connecticut</title><defs><path id="a" d="M3.751.382h-3.5v6.999h3.5V.382z"/><path id="c" d="M0 57.618h78.5V1H0z"/></defs><g fill="none" fill-rule="evenodd"><path d="M80 65H10C4.477 65 0 60.523 0 55V10C0 4.477 4.477 0 10 0h70c5.523 0 10 4.477 10 10v45c0 5.523-4.477 10-10 10" fill="#00247D"/><g transform="translate(6 4)"><path d="M38.718 40.223c-4.394-4.391-8.093-5.685-11.065-6.724a68.3 68.3 0 0 1-1.329-.476c-1.774-.665-4.017-2.27-4.996-4.775-.816-2.091-.616-4.37.597-6.77 2.469-4.893 3.397-7.78 1.494-9.587l-.371.37c-.338.339-.75.518-1.192.518-.728 0-1.425-.49-1.694-1.192-.242-.631-.073-1.292.453-1.771l6.753-6.752c.358-.36.789-.548 1.245-.548.665 0 1.305.42 1.593 1.046.278.605.174 1.283-.279 1.812-.042.049-.161.17-.408.418.765.897 1.634 1.335 2.647 1.335 1.225 0 2.678-.657 4.318-1.951l.108-.086h4.815l.108.086c1.64 1.294 3.093 1.95 4.318 1.95 1.013 0 1.882-.437 2.647-1.334a11.731 11.731 0 0 1-.408-.418 1.657 1.657 0 0 1-.26-1.81c.292-.633.93-1.06 1.587-1.06.44 0 .856.184 1.203.53 1.371 1.372 2.518 2.498 3.439 3.403 1.956 1.92 3.034 2.979 3.53 3.699.597.867.418 1.407-.063 1.996a2.213 2.213 0 0 1-.118.13c-.354.354-.746.534-1.166.534-.714 0-1.302-.532-1.653-.897-1.891 1.808-.962 4.693 1.503 9.579 1.213 2.4 1.413 4.679.597 6.77-.979 2.506-3.222 4.11-4.996 4.775a68.3 68.3 0 0 1-1.329.476c-2.972 1.039-6.671 2.333-11.065 6.724l-.282.28-.281-.28z" fill="#F1F2F2"/><path d="M54.68 9.548c-1.375.76-2.254 1.742-2.69 3.001-.942 2.722.541 6.033 2.425 9.766.965 1.91 1.141 3.68.525 5.256-.756 1.938-2.52 3.188-3.918 3.712-.403.152-.83.301-1.282.46l-.007.002c-2.903 1.015-6.49 2.27-10.734 6.173-4.243-3.904-7.83-5.158-10.733-6.173l-.007-.003c-.453-.158-.88-.307-1.283-.459-1.398-.524-3.16-1.774-3.918-3.712-.616-1.577-.439-3.346.525-5.256 1.884-3.733 3.367-7.044 2.425-9.766-.552-1.595-1.84-2.769-3.977-3.587l-.513.514c2.092.74 3.35 1.805 3.863 3.29.857 2.476-.576 5.654-2.39 9.25-1.053 2.085-1.239 4.036-.55 5.797.835 2.14 2.77 3.517 4.302 4.091.412.155.845.307 1.304.467 2.96 1.035 6.613 2.313 10.952 6.457 4.34-4.144 7.993-5.422 10.953-6.457.458-.16.891-.312 1.304-.467 1.532-.574 3.466-1.95 4.302-4.09.688-1.762.503-3.713-.55-5.798-1.815-3.596-3.248-6.773-2.39-9.25.513-1.485 1.77-2.55 3.862-3.29l-.517-.517c-.469.18-.898.375-1.284.59" fill="#FFB200"/><path d="M26.563 4.432c.48 1.105 1.039 2.015 1.673 2.718 1.098 1.218 2.42 1.836 3.928 1.836 1.564 0 3.222-.667 5.062-2.038h3.548c1.84 1.37 3.497 2.038 5.062 2.038 1.512 0 2.837-.621 3.937-1.846.63-.702 1.186-1.61 1.664-2.708l-.506-.506c-1.2 2.914-2.92 4.396-5.095 4.396h-.001c-1.462 0-3.047-.667-4.84-2.037h-3.991c-1.792 1.37-3.377 2.037-4.84 2.037-2.175 0-3.895-1.482-5.095-4.396l-.506.506z" fill="#FFB200"/><path d="M57.783 39.041c-.675-1.696 7.259-4.853 7.933-3.157l2.462 5.319c-.675-1.696-8.608 1.461-7.934 3.157l-2.461-5.319z" fill="#F1F2F2"/><path d="M60.244 44.36c.52 1.2 3.08-1.331 3.57 0l-2.46-5.32c-.493-1.33-3.05 1.202-3.57 0l2.46 5.32zM62.985 38.183c-.375-1.253 3.212-.965 2.731-2.299l2.462 5.319c.48 1.334-3.107 1.045-2.732 2.299l-2.461-5.319z" fill="#B2B2B2"/><path d="M68.162 37.857c-3.31 1.51-4.686 1.067-5.177.326l2.462 5.319c.49.74 1.866 1.185 5.176-.326 2.206-1.007 4.673-2.045 7.877-2.713l-4.414-1.673 1.953-3.646c-3.204.668-5.672 1.706-7.877 2.713M63.814 44.36l-2.46-5.32c.1.884-.666 2.11-4.172 3.086-2.337.65-4.895 1.446-7.778 3-1.353.648-1.844 1.668-1.73 2.383l1.73 6.593s.217-2.542 2.357-3.601c2.926-1.591 5.518-2.4 7.882-3.057 3.506-.975 4.272-2.201 4.171-3.084" fill="#F1F2F2"/><path d="M47.673 47.509c.107.677.757 1.08 1.731.638 2.002-.91 4.068-.346 3.5 1.119l-2.249 6.106c.461-1.761-.969-1.356-1.25-1.27l-1.732-6.593z" fill="#B2B2B2"/><path d="M23.556 38.377c.678-1.85-2.476-1.68-2.476-1.68-2.917 0-4.859-.746-7.36-.746-2.502 0-5.103.813-11.473-.951l2.213 3.788L0 41.107c6.37 1.763 8.97.95 11.472.95 2.502 0 4.443.746 7.36.746 0 0 3.155-.17 2.476 1.68l2.248-6.106z" fill="#F1F2F2"/><path d="M23.556 38.377c-.882 2.393-5.868-.798-6.499.91l-2.247 6.107c.63-1.71 5.616 1.482 6.498-.911l2.248-6.106z" fill="#B2B2B2"/><path d="M14.81 45.394c0 1.287.874 2.961 7.16 2.961 6.286 0 7.878.666 7.292 2.35L31.51 44.6c.586-1.684-1.006-2.35-7.293-2.35-6.286 0-7.159-1.674-7.159-2.96l-2.248 6.105z" fill="#F1F2F2"/><path d="M31.51 44.6c-.817 1.683-4.791-.933-5.484.74l-2.247 6.106c.693-1.673 4.666.943 5.483-.74l2.248-6.107z" fill="#B2B2B2"/><path d="M26.026 45.34c-.23 1.327 1.557 2.427 3.986 2.427 9.942 0 12.758 1.74 16.142 2.967 3.384 1.228 4.838 1.185 6.75-1.468l-2.248 6.106c-1.912 2.653-3.366 2.696-6.75 1.47-3.384-1.229-6.2-2.969-16.142-2.969-2.428 0-4.216-1.1-3.986-2.427l2.248-6.106z" fill="#F1F2F2"/><g transform="translate(37 .618)"><mask id="b" fill="#fff"><use xlink:href="#a"/></mask><path d="M2.001 7.38c2.333-2.332 2.333-4.665 0-6.998-2.333 2.333-2.333 4.666 0 6.999" fill="#008542" mask="url(#b)"/></g><path d="M39.001 8C38.89 4.7 37.184 3.11 33.887 3.22 34 6.518 35.703 8.111 39.001 8M39.001 8c.112-3.299 1.817-4.89 5.114-4.779C44.003 6.518 42.3 8.111 39.001 8M24.619 20.248c-1.587-2.893-3.826-3.546-6.72-1.96 1.586 2.893 3.826 3.546 6.72 1.96" fill="#008542"/><path d="M24.619 20.248c-3.197-.816-5.203.375-6.02 3.572 3.198.816 5.203-.375 6.02-3.572M24.619 20.248c-3.134-1.031-4.186-3.113-3.155-6.248 3.134 1.03 4.186 3.114 3.155 6.248M30.785 32.35c-3.169.922-4.291 2.966-3.37 6.135 3.168-.922 4.291-2.967 3.37-6.135" fill="#008542"/><path d="M30.785 32.35c-1.49 2.944-.762 5.16 2.182 6.65 1.489-2.944.761-5.161-2.182-6.65M30.785 32.35c-1.686 2.836-3.948 3.41-6.784 1.725 1.686-2.836 3.947-3.411 6.784-1.725M53.384 20.248c1.586-2.893 3.826-3.546 6.719-1.96-1.586 2.893-3.826 3.546-6.719 1.96" fill="#008542"/><path d="M53.384 20.248c3.197-.816 5.203.375 6.019 3.572-3.197.816-5.203-.375-6.019-3.572M53.384 20.248c3.134-1.031 4.186-3.113 3.155-6.248-3.134 1.03-4.186 3.114-3.155 6.248M47.218 32.35c3.168.922 4.291 2.966 3.37 6.135-3.168-.922-4.292-2.967-3.37-6.135" fill="#008542"/><path d="M47.218 32.35c1.49 2.944.762 5.16-2.182 6.65-1.49-2.944-.762-5.161 2.182-6.65M47.218 32.35c1.686 2.836 3.947 3.41 6.783 1.725-1.686-2.836-3.947-3.411-6.783-1.725" fill="#008542"/><mask id="d" fill="#fff"><use xlink:href="#c"/></mask><path fill="#7C2525" mask="url(#d)" d="M36.001 32h6v-1h-6z"/><path fill="#7C2525" mask="url(#d)" d="M39.001 31.143h1V20.857h-1z"/><path d="M39.001 30.677c-1.945 0-2.963-1.275-2.963-2.534 0-1.26 1.018-2.534 2.963-2.534 1.498 0 2.181-.908 2.181-1.752s-.683-1.751-2.18-1.751v-.783c1.944 0 2.961 1.275 2.961 2.534s-1.017 2.534-2.962 2.534c-1.498 0-2.18.908-2.18 1.752s.682 1.751 2.18 1.751v.783z" fill="#7C2525" mask="url(#d)"/><path d="M36.858 21.286a1.286 1.286 0 1 0 2.573 0 1.286 1.286 0 0 0-2.573 0M36.858 29.857a1.286 1.286 0 1 0 2.573 0 1.286 1.286 0 0 0-2.573 0M38.573 25.571a1.286 1.286 0 1 0 2.572 0 1.286 1.286 0 0 0-2.572 0" fill="#008542" mask="url(#d)"/><path fill="#7C2525" mask="url(#d)" d="M28.001 24h6v-1h-6z"/><path fill="#7C2525" mask="url(#d)" d="M31.001 23.143h1V12.857h-1z"/><path d="M31.001 22.677c-1.945 0-2.963-1.275-2.963-2.534 0-1.26 1.018-2.534 2.963-2.534 1.498 0 2.181-.908 2.181-1.752s-.683-1.751-2.18-1.751v-.783c1.944 0 2.961 1.275 2.961 2.534s-1.017 2.534-2.962 2.534c-1.498 0-2.18.908-2.18 1.752s.682 1.751 2.18 1.751v.783z" fill="#7C2525" mask="url(#d)"/><path d="M28.858 13.286a1.286 1.286 0 1 0 2.573 0 1.286 1.286 0 0 0-2.573 0M28.858 21.857a1.286 1.286 0 1 0 2.573 0 1.286 1.286 0 0 0-2.573 0M30.573 17.571a1.286 1.286 0 1 0 2.572 0 1.286 1.286 0 0 0-2.572 0" fill="#38A138" mask="url(#d)"/><path fill="#7C2525" mask="url(#d)" d="M44.001 24h6v-1h-6z"/><path fill="#7C2525" mask="url(#d)" d="M47.001 23.143h1V12.857h-1z"/><path d="M47.001 22.677c-1.945 0-2.963-1.275-2.963-2.534 0-1.26 1.018-2.534 2.963-2.534 1.498 0 2.181-.908 2.181-1.752s-.683-1.751-2.18-1.751v-.783c1.944 0 2.961 1.275 2.961 2.534s-1.017 2.534-2.962 2.534c-1.498 0-2.18.908-2.18 1.752s.682 1.751 2.18 1.751v.783z" fill="#7C2525" mask="url(#d)"/><path d="M44.858 13.286a1.286 1.286 0 1 0 2.573 0 1.286 1.286 0 0 0-2.573 0M44.858 21.857a1.286 1.286 0 1 0 2.573 0 1.286 1.286 0 0 0-2.573 0M46.573 17.571a1.286 1.286 0 1 0 2.572 0 1.286 1.286 0 0 0-2.572 0" fill="#38A138" mask="url(#d)"/><path d="M60.516 45.322l-.543-1.925c-2.568.725-7.156 2.598-7.351 2.677l.758 1.852c.046-.02 4.676-1.91 7.136-2.604zm-14.035 7.8c-1.653-.903-6.821-2.82-10.397-3.118-1.114-.094-2.395-.107-3.632-.119-2.256-.022-5.064-.049-5.822-.663l-1.258 1.555c1.299 1.052 3.969 1.078 7.06 1.108 1.202.012 2.444.024 3.486.111 3.167.264 8.018 2.016 9.604 2.882l.959-1.756zm-22.777-6.348a20.155 20.155 0 0 0-3.2-.236c-.682-.004-1.221-.007-1.892-.233-.897-.302-1.701-.89-2.391-1.75l1.56-1.253c.453.565.933.927 1.468 1.108.353.118.627.124 1.267.128.356.003.78.005 1.325.034.737.04 1.467.116 2.17.226l-.307 1.976z" fill="#B2B2B2" mask="url(#d)"/></g></g></svg>