<?xml version="1.0" encoding="UTF-8" standalone="no"?>
<svg width="90px" height="65px" viewBox="0 0 90 65" version="1.1" xmlns="http://www.w3.org/2000/svg" xmlns:xlink="http://www.w3.org/1999/xlink">
    <!-- Generator: Sketch 3.7.2 (28276) - http://www.bohemiancoding.com/sketch -->
    <title>Connecticut</title>
    <desc>Created with Sketch.</desc>
    <defs>
        <polygon id="path-1" points="3.75105 0.382 0.25155 0.382 0.25155 7.3809 3.75105 7.3809 3.75105 0.382"></polygon>
        <polygon id="path-3" points="0 57.6183 78.5 57.6183 78.5 1.0003 0 1.0003"></polygon>
    </defs>
    <g id="Page-1" stroke="none" stroke-width="1" fill="none" fill-rule="evenodd">
        <g id="Connecticut">
            <path d="M80,65 L10,65 C4.477,65 0,60.523 0,55 L0,10 C0,4.477 4.477,0 10,0 L80,0 C85.523,0 90,4.477 90,10 L90,55 C90,60.523 85.523,65 80,65" id="Fill-1" fill="#00247D"></path>
            <g id="Page-1" transform="translate(6.000000, 4.000000)">
                <path d="M38.718,40.2229 C34.324,35.8319 30.625,34.5379 27.653,33.4989 C27.188,33.3359 26.749,33.1819 26.324,33.0229 C24.55,32.3579 22.307,30.7539 21.328,28.2479 C20.512,26.1569 20.712,23.8789 21.925,21.4779 C24.394,16.5849 25.322,13.6989 23.419,11.8909 L23.048,12.2619 C22.71,12.5999 22.298,12.7789 21.856,12.7789 C21.128,12.7789 20.431,12.2889 20.162,11.5869 C19.92,10.9559 20.089,10.2949 20.615,9.8159 L27.368,3.0639 C27.726,2.7049 28.157,2.5159 28.613,2.5159 C29.278,2.5159 29.918,2.9359 30.206,3.5619 C30.484,4.1669 30.38,4.8449 29.927,5.3739 C29.885,5.4229 29.766,5.5449 29.519,5.7919 C30.284,6.6889 31.153,7.1269 32.166,7.1269 C33.391,7.1269 34.844,6.4699 36.484,5.1759 L36.592,5.0899 L41.407,5.0899 L41.515,5.1759 C43.155,6.4699 44.608,7.1269 45.833,7.1269 C46.846,7.1259 47.715,6.6889 48.48,5.7919 C48.233,5.5449 48.114,5.4229 48.072,5.3739 C47.627,4.8539 47.53,4.1779 47.812,3.5649 C48.104,2.9309 48.742,2.5039 49.399,2.5039 C49.839,2.5039 50.255,2.6879 50.602,3.0349 C51.973,4.4059 53.12,5.5319 54.041,6.4369 C55.997,8.3579 57.075,9.4159 57.571,10.1359 C58.168,11.0029 57.989,11.5429 57.508,12.1319 C57.48,12.1659 57.427,12.2259 57.39,12.2629 C57.036,12.6159 56.644,12.7959 56.224,12.7959 C55.51,12.7959 54.922,12.2639 54.571,11.8989 C52.68,13.7069 53.609,16.5919 56.074,21.4779 C57.287,23.8789 57.487,26.1569 56.671,28.2479 C55.692,30.7539 53.449,32.3579 51.675,33.0229 C51.25,33.1819 50.811,33.3359 50.346,33.4989 C47.374,34.5379 43.675,35.8319 39.281,40.2229 L38.999,40.5039 L38.718,40.2229 L38.718,40.2229 Z" id="Fill-1" fill="#F1F2F2"></path>
                <path d="M54.6794,9.5482 C53.3054,10.3082 52.4264,11.2902 51.9904,12.5492 C51.0484,15.2712 52.5314,18.5822 54.4154,22.3152 C55.3804,24.2252 55.5564,25.9942 54.9404,27.5712 C54.1844,29.5092 52.4204,30.7592 51.0224,31.2832 C50.6194,31.4352 50.1924,31.5842 49.7404,31.7422 L49.7334,31.7452 C46.8304,32.7602 43.2424,34.0142 38.9994,37.9182 C34.7564,34.0142 31.1684,32.7602 28.2664,31.7452 L28.2594,31.7422 C27.8064,31.5842 27.3794,31.4352 26.9764,31.2832 C25.5784,30.7592 23.8154,29.5092 23.0584,27.5712 C22.4424,25.9942 22.6194,24.2252 23.5834,22.3152 C25.4674,18.5822 26.9504,15.2712 26.0084,12.5492 C25.4564,10.9542 24.1674,9.7802 22.0314,8.9622 L21.5184,9.4762 C23.6104,10.2162 24.8674,11.2812 25.3814,12.7662 C26.2384,15.2422 24.8054,18.4202 22.9914,22.0162 C21.9384,24.1012 21.7524,26.0522 22.4404,27.8132 C23.2764,29.9532 25.2114,31.3302 26.7434,31.9042 C27.1554,32.0592 27.5884,32.2112 28.0474,32.3712 C31.0064,33.4062 34.6604,34.6842 38.9994,38.8282 C43.3384,34.6842 46.9924,33.4062 49.9524,32.3712 C50.4104,32.2112 50.8434,32.0592 51.2564,31.9042 C52.7884,31.3302 54.7224,29.9532 55.5584,27.8132 C56.2464,26.0522 56.0614,24.1012 55.0084,22.0162 C53.1934,18.4202 51.7604,15.2432 52.6174,12.7662 C53.1314,11.2812 54.3884,10.2162 56.4804,9.4762 L55.9634,8.9592 C55.4944,9.1382 55.0654,9.3342 54.6794,9.5482" id="Fill-3" fill="#FFB200"></path>
                <path d="M26.5627,4.4318 C27.0427,5.5368 27.6017,6.4468 28.2357,7.1498 C29.3337,8.3678 30.6557,8.9858 32.1637,8.9858 C33.7277,8.9858 35.3857,8.3188 37.2257,6.9478 L40.7737,6.9478 C42.6137,8.3188 44.2707,8.9858 45.8357,8.9858 C47.3477,8.9858 48.6727,8.3648 49.7727,7.1398 C50.4027,6.4378 50.9587,5.5308 51.4367,4.4318 L50.9307,3.9258 C49.7307,6.8398 48.0107,8.3218 45.8357,8.3218 L45.8347,8.3218 C44.3727,8.3218 42.7877,7.6548 40.9957,6.2848 L37.0037,6.2848 C35.2117,7.6548 33.6267,8.3218 32.1637,8.3218 L32.1637,8.3218 C29.9887,8.3218 28.2687,6.8398 27.0687,3.9258 L26.5627,4.4318 Z" id="Fill-5" fill="#FFB200"></path>
                <path d="M57.7828,39.041 C57.1078,37.345 65.0418,34.188 65.7158,35.884 L68.1778,41.203 C67.5028,39.507 59.5698,42.664 60.2438,44.36 L57.7828,39.041 Z" id="Fill-7" fill="#F1F2F2"></path>
                <path d="M60.2442,44.3598 C60.7642,45.5598 63.3232,43.0288 63.8142,44.3598 L61.3532,39.0408 C60.8612,37.7108 58.3032,40.2418 57.7832,39.0408 L60.2442,44.3598 Z" id="Fill-9" fill="#B2B2B2"></path>
                <path d="M62.985,38.183 C62.61,36.93 66.197,37.218 65.716,35.884 L68.178,41.203 C68.658,42.537 65.071,42.248 65.446,43.502 L62.985,38.183 Z" id="Fill-11" fill="#B2B2B2"></path>
                <path d="M68.1619,37.8568 C64.8519,39.3678 63.4759,38.9238 62.9849,38.1828 L65.4469,43.5018 C65.9379,44.2428 67.3129,44.6868 70.6229,43.1758 C72.8289,42.1688 75.2959,41.1308 78.4999,40.4628 L74.0859,38.7898 L76.0389,35.1438 C72.8349,35.8118 70.3669,36.8498 68.1619,37.8568" id="Fill-13" fill="#F1F2F2"></path>
                <path d="M63.8141,44.3598 L61.3531,39.0408 C61.4541,39.9238 60.6881,41.1498 57.1821,42.1258 C54.8451,42.7758 52.2871,43.5718 49.4041,45.1258 C48.0511,45.7738 47.5601,46.7938 47.6731,47.5088 L49.4041,54.1018 C49.4041,54.1018 49.6211,51.5598 51.7611,50.5008 C54.6871,48.9098 57.2791,48.1018 59.6431,47.4438 C63.1491,46.4688 63.9151,45.2428 63.8141,44.3598" id="Fill-15" fill="#F1F2F2"></path>
                <path d="M47.6734,47.5088 C47.7804,48.1858 48.4304,48.5898 49.4044,48.1468 C51.4064,47.2368 53.4724,47.8008 52.9034,49.2658 L50.6554,55.3718 C51.1164,53.6108 49.6864,54.0158 49.4044,54.1018 L47.6734,47.5088 Z" id="Fill-17" fill="#B2B2B2"></path>
                <path d="M23.5564,38.3766 C24.2344,36.5266 21.0804,36.6966 21.0804,36.6966 C18.1634,36.6966 16.2214,35.9506 13.7194,35.9506 C11.2184,35.9506 8.6174,36.7636 2.2474,34.9996 L4.4604,38.7876 L0.0004,41.1066 C6.3694,42.8696 8.9704,42.0566 11.4724,42.0566 C13.9744,42.0566 15.9154,42.8026 18.8324,42.8026 C18.8324,42.8026 21.9874,42.6326 21.3084,44.4826 L23.5564,38.3766 Z" id="Fill-19" fill="#F1F2F2"></path>
                <path d="M23.5564,38.3766 C22.6744,40.7696 17.6884,37.5786 17.0574,39.2876 L14.8104,45.3936 C15.4404,43.6846 20.4264,46.8756 21.3084,44.4826 L23.5564,38.3766 Z" id="Fill-21" fill="#B2B2B2"></path>
                <path d="M14.81,45.3941 C14.81,46.6811 15.684,48.3551 21.97,48.3551 C28.256,48.3551 29.848,49.0211 29.262,50.7051 L31.51,44.5991 C32.096,42.9151 30.504,42.2481 24.217,42.2481 C17.931,42.2481 17.058,40.5751 17.058,39.2881 L14.81,45.3941 Z" id="Fill-23" fill="#F1F2F2"></path>
                <path d="M31.5099,44.5991 C30.6929,46.2831 26.7189,43.6671 26.0259,45.3401 L23.7789,51.4461 C24.4719,49.7731 28.4449,52.3891 29.2619,50.7051 L31.5099,44.5991 Z" id="Fill-25" fill="#B2B2B2"></path>
                <path d="M26.0263,45.3402 C25.7963,46.6672 27.5833,47.7672 30.0123,47.7672 C39.9543,47.7672 42.7703,49.5072 46.1543,50.7342 C49.5383,51.9622 50.9923,51.9192 52.9033,49.2662 L50.6563,55.3722 C48.7443,58.0252 47.2903,58.0682 43.9063,56.8412 C40.5223,55.6132 37.7063,53.8732 27.7643,53.8732 C25.3363,53.8732 23.5483,52.7732 23.7783,51.4462 L26.0263,45.3402 Z" id="Fill-27" fill="#F1F2F2"></path>
                <g id="Group-31" transform="translate(37.000000, 0.618300)">
                    <mask id="mask-2" fill="white">
                        <use xlink:href="#path-1"></use>
                    </mask>
                    <g id="Clip-30"></g>
                    <path d="M2.0013,7.3809 C4.3343,5.0479 4.3343,2.7149 2.0013,0.3819 C-0.3317,2.7149 -0.3317,5.0479 2.0013,7.3809" id="Fill-29" fill="#008542" mask="url(#mask-2)"></path>
                </g>
                <path d="M39.0013,7.9992 C38.8893,4.7012 37.1843,3.1092 33.8873,3.2212 C33.9993,6.5182 35.7033,8.1112 39.0013,7.9992" id="Fill-32" fill="#008542"></path>
                <path d="M39.0013,7.9992 C39.1133,4.7012 40.8183,3.1092 44.1153,3.2212 C44.0033,6.5182 42.2993,8.1112 39.0013,7.9992" id="Fill-34" fill="#008542"></path>
                <path d="M24.6185,20.2477 C23.0325,17.3547 20.7925,16.7017 17.8995,18.2877 C19.4855,21.1807 21.7255,21.8337 24.6185,20.2477" id="Fill-36" fill="#008542"></path>
                <path d="M24.6185,20.2477 C21.4215,19.4317 19.4155,20.6227 18.5995,23.8197 C21.7965,24.6357 23.8025,23.4447 24.6185,20.2477" id="Fill-38" fill="#008542"></path>
                <path d="M24.6185,20.2477 C21.4845,19.2167 20.4325,17.1347 21.4635,13.9997 C24.5975,15.0307 25.6495,17.1137 24.6185,20.2477" id="Fill-40" fill="#008542"></path>
                <path d="M30.7845,32.3496 C27.6165,33.2716 26.4935,35.3156 27.4145,38.4846 C30.5825,37.5626 31.7065,35.5176 30.7845,32.3496" id="Fill-42" fill="#008542"></path>
                <path d="M30.7845,32.3496 C29.2955,35.2936 30.0225,37.5106 32.9665,38.9996 C34.4555,36.0556 33.7285,33.8386 30.7845,32.3496" id="Fill-44" fill="#008542"></path>
                <path d="M30.7845,32.3496 C29.0985,35.1856 26.8375,35.7606 24.0015,34.0746 C25.6875,31.2386 27.9485,30.6636 30.7845,32.3496" id="Fill-46" fill="#008542"></path>
                <path d="M53.384,20.2477 C54.97,17.3547 57.21,16.7017 60.103,18.2877 C58.517,21.1807 56.277,21.8337 53.384,20.2477" id="Fill-48" fill="#008542"></path>
                <path d="M53.384,20.2477 C56.581,19.4317 58.587,20.6227 59.403,23.8197 C56.206,24.6357 54.2,23.4447 53.384,20.2477" id="Fill-50" fill="#008542"></path>
                <path d="M53.384,20.2477 C56.518,19.2167 57.57,17.1347 56.539,13.9997 C53.405,15.0307 52.353,17.1137 53.384,20.2477" id="Fill-52" fill="#008542"></path>
                <path d="M47.2181,32.3496 C50.3861,33.2716 51.5091,35.3156 50.5881,38.4846 C47.4201,37.5626 46.2961,35.5176 47.2181,32.3496" id="Fill-54" fill="#008542"></path>
                <path d="M47.2181,32.3496 C48.7071,35.2936 47.9801,37.5106 45.0361,38.9996 C43.5461,36.0556 44.2741,33.8386 47.2181,32.3496" id="Fill-56" fill="#008542"></path>
                <path d="M47.2181,32.3496 C48.9041,35.1856 51.1651,35.7606 54.0011,34.0746 C52.3151,31.2386 50.0541,30.6636 47.2181,32.3496" id="Fill-58" fill="#008542"></path>
                <mask id="mask-4" fill="white">
                    <use xlink:href="#path-3"></use>
                </mask>
                <g id="Clip-61"></g>
                <polygon id="Fill-60" fill="#7C2525" mask="url(#mask-4)" points="36.001 32.0003 42.001 32.0003 42.001 31.0003 36.001 31.0003"></polygon>
                <polygon id="Fill-62" fill="#7C2525" mask="url(#mask-4)" points="39.001 31.1433 40.001 31.1433 40.001 20.8573 39.001 20.8573"></polygon>
                <path d="M39.0013,30.677 C37.0563,30.677 36.0383,29.402 36.0383,28.143 C36.0383,26.883 37.0563,25.609 39.0013,25.609 C40.4993,25.609 41.1823,24.701 41.1823,23.857 C41.1823,23.013 40.4993,22.106 39.0013,22.106 L39.0013,21.323 C40.9463,21.323 41.9633,22.598 41.9633,23.857 C41.9633,25.116 40.9463,26.391 39.0013,26.391 C37.5033,26.391 36.8213,27.299 36.8213,28.143 C36.8213,28.987 37.5033,29.894 39.0013,29.894 L39.0013,30.677 Z" id="Fill-63" fill="#7C2525" mask="url(#mask-4)"></path>
                <path d="M36.8584,21.2857 C36.8584,21.9957 37.4344,22.5717 38.1444,22.5717 C38.8544,22.5717 39.4294,21.9957 39.4294,21.2857 C39.4294,20.5757 38.8544,19.9997 38.1444,19.9997 C37.4344,19.9997 36.8584,20.5757 36.8584,21.2857" id="Fill-64" fill="#008542" mask="url(#mask-4)"></path>
                <path d="M36.8584,29.8571 C36.8584,30.5671 37.4344,31.1431 38.1444,31.1431 C38.8544,31.1431 39.4294,30.5671 39.4294,29.8571 C39.4294,29.1471 38.8544,28.5711 38.1444,28.5711 C37.4344,28.5711 36.8584,29.1471 36.8584,29.8571" id="Fill-65" fill="#008542" mask="url(#mask-4)"></path>
                <path d="M38.5727,25.5714 C38.5727,26.2814 39.1487,26.8574 39.8587,26.8574 C40.5687,26.8574 41.1437,26.2814 41.1437,25.5714 C41.1437,24.8614 40.5687,24.2854 39.8587,24.2854 C39.1487,24.2854 38.5727,24.8614 38.5727,25.5714" id="Fill-66" fill="#008542" mask="url(#mask-4)"></path>
                <polygon id="Fill-67" fill="#7C2525" mask="url(#mask-4)" points="28.001 24.0003 34.001 24.0003 34.001 23.0003 28.001 23.0003"></polygon>
                <polygon id="Fill-68" fill="#7C2525" mask="url(#mask-4)" points="31.001 23.1433 32.001 23.1433 32.001 12.8573 31.001 12.8573"></polygon>
                <path d="M31.0013,22.677 C29.0563,22.677 28.0383,21.402 28.0383,20.143 C28.0383,18.883 29.0563,17.609 31.0013,17.609 C32.4993,17.609 33.1823,16.701 33.1823,15.857 C33.1823,15.013 32.4993,14.106 31.0013,14.106 L31.0013,13.323 C32.9463,13.323 33.9633,14.598 33.9633,15.857 C33.9633,17.116 32.9463,18.391 31.0013,18.391 C29.5033,18.391 28.8213,19.299 28.8213,20.143 C28.8213,20.987 29.5033,21.894 31.0013,21.894 L31.0013,22.677 Z" id="Fill-69" fill="#7C2525" mask="url(#mask-4)"></path>
                <path d="M28.8584,13.2857 C28.8584,13.9957 29.4344,14.5717 30.1444,14.5717 C30.8544,14.5717 31.4294,13.9957 31.4294,13.2857 C31.4294,12.5757 30.8544,11.9997 30.1444,11.9997 C29.4344,11.9997 28.8584,12.5757 28.8584,13.2857" id="Fill-70" fill="#38A138" mask="url(#mask-4)"></path>
                <path d="M28.8584,21.8571 C28.8584,22.5671 29.4344,23.1431 30.1444,23.1431 C30.8544,23.1431 31.4294,22.5671 31.4294,21.8571 C31.4294,21.1471 30.8544,20.5711 30.1444,20.5711 C29.4344,20.5711 28.8584,21.1471 28.8584,21.8571" id="Fill-71" fill="#38A138" mask="url(#mask-4)"></path>
                <path d="M30.5727,17.5714 C30.5727,18.2814 31.1487,18.8574 31.8587,18.8574 C32.5687,18.8574 33.1437,18.2814 33.1437,17.5714 C33.1437,16.8614 32.5687,16.2854 31.8587,16.2854 C31.1487,16.2854 30.5727,16.8614 30.5727,17.5714" id="Fill-72" fill="#38A138" mask="url(#mask-4)"></path>
                <polygon id="Fill-73" fill="#7C2525" mask="url(#mask-4)" points="44.001 24.0003 50.001 24.0003 50.001 23.0003 44.001 23.0003"></polygon>
                <polygon id="Fill-74" fill="#7C2525" mask="url(#mask-4)" points="47.001 23.1433 48.001 23.1433 48.001 12.8573 47.001 12.8573"></polygon>
                <path d="M47.0013,22.677 C45.0563,22.677 44.0383,21.402 44.0383,20.143 C44.0383,18.883 45.0563,17.609 47.0013,17.609 C48.4993,17.609 49.1823,16.701 49.1823,15.857 C49.1823,15.013 48.4993,14.106 47.0013,14.106 L47.0013,13.323 C48.9463,13.323 49.9633,14.598 49.9633,15.857 C49.9633,17.116 48.9463,18.391 47.0013,18.391 C45.5033,18.391 44.8213,19.299 44.8213,20.143 C44.8213,20.987 45.5033,21.894 47.0013,21.894 L47.0013,22.677 Z" id="Fill-75" fill="#7C2525" mask="url(#mask-4)"></path>
                <path d="M44.8584,13.2857 C44.8584,13.9957 45.4344,14.5717 46.1444,14.5717 C46.8544,14.5717 47.4294,13.9957 47.4294,13.2857 C47.4294,12.5757 46.8544,11.9997 46.1444,11.9997 C45.4344,11.9997 44.8584,12.5757 44.8584,13.2857" id="Fill-76" fill="#38A138" mask="url(#mask-4)"></path>
                <path d="M44.8584,21.8571 C44.8584,22.5671 45.4344,23.1431 46.1444,23.1431 C46.8544,23.1431 47.4294,22.5671 47.4294,21.8571 C47.4294,21.1471 46.8544,20.5711 46.1444,20.5711 C45.4344,20.5711 44.8584,21.1471 44.8584,21.8571" id="Fill-77" fill="#38A138" mask="url(#mask-4)"></path>
                <path d="M46.5727,17.5714 C46.5727,18.2814 47.1487,18.8574 47.8587,18.8574 C48.5687,18.8574 49.1437,18.2814 49.1437,17.5714 C49.1437,16.8614 48.5687,16.2854 47.8587,16.2854 C47.1487,16.2854 46.5727,16.8614 46.5727,17.5714" id="Fill-78" fill="#38A138" mask="url(#mask-4)"></path>
                <path d="M60.5159,45.3222 L59.9729,43.3972 C57.4049,44.1222 52.8169,45.9952 52.6219,46.0742 L53.3799,47.9262 C53.4259,47.9062 58.0559,46.0162 60.5159,45.3222 L60.5159,45.3222 Z M46.4809,53.1222 C44.8279,52.2192 39.6599,50.3012 36.0839,50.0042 C34.9699,49.9102 33.6889,49.8972 32.4519,49.8852 C30.1959,49.8632 27.3879,49.8362 26.6299,49.2222 L25.3719,50.7772 C26.6709,51.8292 29.3409,51.8552 32.4319,51.8852 C33.6339,51.8972 34.8759,51.9092 35.9179,51.9962 C39.0849,52.2602 43.9359,54.0122 45.5219,54.8782 L46.4809,53.1222 Z M23.7039,46.7742 C23.0659,46.6752 22.4029,46.6062 21.7329,46.5692 C21.2269,46.5432 20.8339,46.5402 20.5039,46.5382 C19.8219,46.5342 19.2829,46.5312 18.6119,46.3052 C17.7149,46.0032 16.9109,45.4142 16.2209,44.5542 L17.7819,43.3022 C18.2339,43.8672 18.7139,44.2292 19.2489,44.4102 C19.6019,44.5282 19.8759,44.5342 20.5159,44.5382 C20.8719,44.5412 21.2959,44.5432 21.8409,44.5722 C22.5779,44.6122 23.3079,44.6882 24.0119,44.7982 L23.7039,46.7742 Z" id="Fill-79" fill="#B2B2B2" mask="url(#mask-4)"></path>
            </g>
        </g>
    </g>
</svg>