<?xml version="1.0" encoding="UTF-8" standalone="no"?>
<svg width="90px" height="65px" viewBox="0 0 90 65" version="1.1" xmlns="http://www.w3.org/2000/svg" xmlns:xlink="http://www.w3.org/1999/xlink">
    <!-- Generator: Sketch 3.7.2 (28276) - http://www.bohemiancoding.com/sketch -->
    <title>Delaware</title>
    <desc>Created with Sketch.</desc>
    <defs></defs>
    <g id="Page-1" stroke="none" stroke-width="1" fill="none" fill-rule="evenodd">
        <g id="Delaware">
            <g id="Page-1">
                <path d="M80,65 L10,65 C4.477,65 0,60.523 0,55 L0,10 C0,4.477 4.477,0 10,0 L80,0 C85.523,0 90,4.477 90,10 L90,55 C90,60.523 85.523,65 80,65" id="Fill-1" fill="#76A1A0"></path>
                <polygon id="Fill-3" fill="#F0DC82" points="79.7777 32.5001 44.9997 10.5311 10.2227 32.5001 44.9997 54.4691"></polygon>
                <path d="M39.076,37.727 C40.215,39.481 41.687,39.715 42.767,39.715 C43.379,39.715 43.996,39.633 44.593,39.554 C44.72,39.537 44.847,39.52 44.973,39.504 L44.992,39.509 L45.016,39.504 C45.145,39.52 45.273,39.537 45.402,39.554 C45.998,39.633 46.616,39.715 47.228,39.715 C48.308,39.715 49.779,39.481 50.919,37.727 L39.076,37.727 Z" id="Fill-5" fill="#3F863F"></path>
                <path d="M51.5502,36.4992 L51.3552,36.4202 L51.5802,36.4372 L51.5832,36.3902 C51.5902,36.3152 51.5982,36.2402 51.6062,36.1672 C51.6772,35.5312 51.7832,34.5702 50.4082,34.0942 C50.3112,34.0622 50.2242,34.0392 50.1512,34.0222 C50.1682,33.8852 50.1962,33.7162 50.2092,33.6432 L50.2552,33.3732 L49.8702,32.9972 C49.8112,32.9242 49.5282,32.5412 49.4032,31.9242 L40.5932,31.9242 C40.4682,32.5382 40.1862,32.9202 40.1252,32.9972 L39.7402,33.3732 L39.7852,33.6432 C39.7982,33.7162 39.8272,33.8852 39.8442,34.0222 C39.7702,34.0392 39.6812,34.0632 39.5782,34.0972 C38.2112,34.5702 38.3182,35.5312 38.3882,36.1672 C38.3962,36.2392 38.4042,36.3112 38.4102,36.3842 L38.4152,36.4372 L38.6382,36.4202 L38.4442,36.4992 C38.6382,36.9752 38.8502,37.3802 39.0762,37.7272 L50.9182,37.7272 C51.1442,37.3802 51.3562,36.9752 51.5502,36.4992" id="Fill-7" fill="#FFFFFF"></path>
                <path d="M49.8714,29.4621 C50.7454,28.8441 51.1444,27.9081 50.8894,27.0461 C50.6844,26.3521 49.9734,25.6111 48.5944,25.6111 C48.3504,25.6111 48.0934,25.6341 47.8344,25.6801 C46.6114,25.8821 46.2624,25.9351 44.9974,26.0511 C43.7314,25.9351 43.3834,25.8821 42.1664,25.6811 C41.9014,25.6341 41.6434,25.6111 41.4004,25.6111 C40.0214,25.6111 39.3104,26.3521 39.1054,27.0461 C38.8504,27.9081 39.2484,28.8441 40.1234,29.4621 C40.6864,30.4671 40.7184,31.3111 40.5934,31.9241 L49.4024,31.9241 C49.2784,31.3111 49.3084,30.4661 49.8714,29.4621" id="Fill-9" fill="#FFB93C"></path>
                <path d="M46.3271,33.2952 C47.5151,33.8102 48.9301,33.9162 50.2141,33.6162 L50.2551,33.3732 L49.8701,32.9972 C49.7851,32.8902 49.2261,32.1292 49.3661,30.9452 C48.7161,31.0532 48.0051,30.9872 47.4351,30.7402 C45.9331,30.0882 44.0671,30.0882 42.5651,30.7402 C41.9941,30.9872 41.2811,31.0542 40.6301,30.9442 C40.7711,32.1262 40.2141,32.8852 40.1251,32.9972 L39.7401,33.3732 L39.7811,33.6152 C41.0661,33.9162 42.4831,33.8112 43.6731,33.2952 C44.4671,32.9512 45.5331,32.9512 46.3271,33.2952" id="Fill-11" fill="#006FFF"></path>
                <path d="M37.51,36.5157 C37.508,36.4877 37.507,36.4617 37.506,36.4347 C37.505,36.4217 37.502,36.4097 37.501,36.3957 L37.51,36.5157 Z" id="Fill-13" fill="#FFF066"></path>
                <path d="M52.4846,36.5157 L52.4936,36.3957 C52.4926,36.4097 52.4896,36.4217 52.4886,36.4347 C52.4876,36.4617 52.4866,36.4877 52.4846,36.5157" id="Fill-15" fill="#FFF066"></path>
                <path d="M51.0592,36.3962 L51.0662,36.3022 C49.6232,39.8482 47.2352,39.2502 45.0002,38.9752 L45.0002,38.9742 C44.9992,38.9752 44.9982,38.9752 44.9972,38.9752 C44.9962,38.9752 44.9962,38.9752 44.9952,38.9742 L44.9952,38.9752 C42.7592,39.2502 40.3722,39.8482 38.9282,36.3022 L38.9352,36.3962 C38.8842,35.6802 38.6252,34.9792 39.7482,34.5902 C40.3702,34.3872 40.4832,34.6312 40.3002,33.5552 L40.5102,33.3512 C40.5102,33.3512 42.0042,31.6202 40.5152,29.0972 C38.7792,27.9712 39.4452,25.7312 42.0752,26.1952 C43.3352,26.4032 43.6972,26.4572 44.9972,26.5752 C46.2982,26.4572 46.6592,26.4032 47.9192,26.1952 C50.5492,25.7312 51.2152,27.9712 49.4792,29.0972 C47.9902,31.6202 49.4852,33.3512 49.4852,33.3512 L49.6942,33.5552 C49.5112,34.6312 49.6252,34.3872 50.2462,34.5902 C51.3692,34.9792 51.1102,35.6802 51.0592,36.3962 M51.1922,32.8752 C51.1732,32.7512 51.2602,32.4962 51.2202,32.3682 C51.1702,32.1952 50.7972,32.1212 50.4372,32.3742 L50.6472,32.5782 C50.3922,32.6672 49.4472,31.3672 50.5172,30.9942 C50.9942,30.8122 51.4362,30.8732 50.6072,29.9652 C52.9522,27.6452 50.4622,24.7592 49.1492,24.9432 C48.8972,24.9672 48.6632,25.0622 48.4122,25.0862 C48.2152,25.1012 48.0562,25.0782 48.0552,25.0782 C47.3332,24.8932 46.5612,23.6042 44.9972,23.8282 C43.4332,23.6042 42.6622,24.8932 41.9392,25.0782 C41.9392,25.0782 41.7802,25.1012 41.5822,25.0862 C41.3322,25.0622 41.0972,24.9672 40.8452,24.9432 C39.5322,24.7592 37.0422,27.6452 39.3882,29.9652 C38.5592,30.8732 39.0002,30.8122 39.4772,30.9942 C40.5482,31.3672 39.6022,32.6672 39.3472,32.5782 L39.5572,32.3742 C39.1972,32.1212 38.8242,32.1952 38.7742,32.3682 C38.7342,32.4962 38.8212,32.7512 38.8032,32.8752 C38.7722,33.2722 37.3662,34.0212 37.5062,36.4352 C37.6582,38.1832 38.6682,39.2352 40.0502,39.8692 C43.1322,41.0032 43.0862,39.3372 43.7622,41.5232 C44.0792,42.5742 44.7122,42.8592 44.9972,42.6892 C45.2832,42.8592 45.9162,42.5742 46.2332,41.5232 C46.9082,39.3372 46.8622,41.0032 49.9442,39.8692 C51.3262,39.2352 52.3372,38.1832 52.4892,36.4352 C52.6282,34.0212 51.2222,33.2722 51.1922,32.8752" id="Fill-17" fill="#FFF066"></path>
                <polygon id="Fill-19" fill="#FFFFFF" points="41.8473 21.0648 40.1903 21.0648 39.8983 22.7218 41.5553 22.7218"></polygon>
                <polygon id="Fill-21" fill="#006FFF" points="43.4846 21.0648 41.8276 21.0648 41.5356 22.7218 43.1926 22.7218"></polygon>
                <polygon id="Fill-23" fill="#FFFFFF" points="45.1559 21.0648 43.4989 21.0648 43.2069 22.7218 44.8639 22.7218"></polygon>
                <polygon id="Fill-25" fill="#006FFF" points="46.7933 21.0648 45.1363 21.0648 44.8443 22.7218 46.5013 22.7218"></polygon>
                <polygon id="Fill-27" fill="#FFFFFF" points="48.4646 21.0648 46.8076 21.0648 46.5156 22.7218 48.1726 22.7218"></polygon>
                <polygon id="Fill-29" fill="#006FFF" points="50.1019 21.0648 48.4449 21.0648 48.1529 22.7218 49.8099 22.7218"></polygon>
                <path d="M58.128,36.0312 L58.271,35.1052 C58.306,34.8852 58.306,34.6612 58.272,34.4402 L57.706,30.7722 L54.877,31.2832 L56.055,34.5492 C56.155,34.8252 56.197,35.1192 56.181,35.4112 L56.139,36.1472 C56.8,36.3552 57.527,36.3802 58.128,36.0312" id="Fill-31" fill="#306D30"></path>
                <path d="M59.2459,41.0104 L57.6869,39.9574 C57.5949,39.8944 57.5469,39.7844 57.5639,39.6744 L58.1279,36.0314 C57.5269,36.3804 56.7999,36.3554 56.1389,36.1474 L55.8889,40.5584 C55.8709,40.8794 56.1049,41.1604 56.4239,41.2014 L59.0479,41.5354 C59.2039,41.5554 59.3469,41.4464 59.3699,41.2914 C59.3859,41.1814 59.3379,41.0724 59.2459,41.0104" id="Fill-33" fill="#7F620E"></path>
                <path d="M52.8228,36.0433 C52.7638,36.4553 52.7248,37.1083 52.8958,37.8253 C53.1818,39.0253 53.0238,40.3213 53.0238,40.3213 L52.4828,40.6703 L52.4618,41.0343 L53.4008,41.6183 L54.5438,41.1573 L54.3188,40.5563 L54.7198,38.1923 L54.8388,36.2023 C54.2118,36.5263 53.4408,36.4493 52.8228,36.0433" id="Fill-35" fill="#7F620E"></path>
                <path d="M55.7794,31.9117 L52.6264,31.5297 L52.9114,35.5977 C52.9114,35.5977 52.8624,35.7657 52.8224,36.0437 C53.4414,36.4497 54.2124,36.5257 54.8384,36.2017 L54.8834,35.4477 L55.7794,31.9117 Z" id="Fill-37" fill="#306D30"></path>
                <path d="M58.5497,23.8606 C59.1117,24.0996 58.9127,25.8076 58.5917,27.2176 C59.0017,27.5706 59.5727,29.3866 60.0127,30.0316 C60.3727,30.5656 59.1357,31.3996 58.7757,30.8666 L57.1697,28.0826 C57.1697,28.0826 56.7027,27.2586 57.0127,26.5076 C57.3227,25.7556 57.3387,23.3466 58.5497,23.8606" id="Fill-39" fill="#306D30"></path>
                <path d="M56.6766,25.1229 L55.6586,24.4029 L54.4316,25.0069 L52.4936,23.2759 C52.5756,23.7449 52.6846,23.9949 52.7576,24.4679 L52.9236,26.4889 C53.0866,27.5509 53.0346,28.6319 52.7696,29.6749 L52.2016,31.9059 C52.1826,32.6029 58.2546,32.7509 58.2736,32.0549 L57.9246,29.7099 C57.7896,28.8069 57.8106,27.8879 57.9876,26.9909 L58.5496,24.1359 C58.5596,24.0859 58.5596,24.0359 58.5506,23.9879 L56.6766,25.1229 Z" id="Fill-41" fill="#3F863F"></path>
                <path d="M52.4791,23.1881 C53.5661,22.8101 54.3831,25.1591 53.2961,25.5371 L52.3641,26.3301 L53.4981,27.6741 C53.9941,28.0281 53.1551,29.2041 52.6581,28.8501 C52.6581,28.8501 50.8101,28.2351 50.2571,26.5581 C50.3171,25.1501 52.5371,24.1411 52.4791,23.1881" id="Fill-43" fill="#306D30"></path>
                <path d="M59.071,31.2247 C59.071,30.7997 59.415,30.4557 59.84,30.4557 C60.265,30.4557 60.609,30.7997 60.609,31.2247 C60.609,31.6497 60.265,31.9937 59.84,31.9937 C59.415,31.9937 59.071,31.6497 59.071,31.2247" id="Fill-45" fill="#FFE1C7"></path>
                <path d="M52.8842,29.1631 C52.6502,28.8251 52.7332,28.3621 53.0712,28.1271 C53.4082,27.8931 53.8722,27.9771 54.1062,28.3141 C54.3412,28.6521 54.6982,29.3841 54.1892,29.7371 C53.8512,29.9721 53.1182,29.5011 52.8842,29.1631" id="Fill-47" fill="#FFE1C7"></path>
                <path d="M55.6585,24.4689 L56.6765,25.2299 L58.5515,24.0299 C58.5275,23.8829 58.4325,23.7539 58.2915,23.6889 L56.8845,22.8209 L55.7335,23.7519 L54.8315,22.6269 L52.4795,23.1879 C52.4835,23.2189 52.4885,23.2459 52.4935,23.2759 L54.4315,25.1069 L55.6585,24.4689 Z" id="Fill-49" fill="#306D30"></path>
                <path d="M56.8843,22.8209 L56.8423,22.3629 C58.0973,21.7359 56.7133,18.9669 55.4573,19.5939 C54.9113,19.8559 54.5273,20.1929 54.5713,20.7299 C54.5833,20.8669 54.5383,21.0029 54.4343,21.0929 L54.2093,21.2909 C54.1233,21.3659 54.1613,21.5079 54.2733,21.5299 L54.4973,21.5739 L54.5733,21.8699 L54.4483,22.3629 L54.9333,22.4019 L54.8313,22.6269 L55.7333,23.7519 L56.8843,22.8209 Z" id="Fill-51" fill="#FFE1C7"></path>
                <path d="M57.2959,21.7887 C57.2779,21.0117 56.9199,20.4947 55.6119,20.4947 C54.3029,20.4947 53.3349,20.3587 53.3349,19.8887 C53.3349,19.4187 54.2449,19.3427 54.7109,19.3427 C54.7959,18.8417 57.4669,19.2987 57.3809,19.7987 L57.3359,20.1057 C59.0889,20.9727 58.7599,21.4787 57.2959,21.7887" id="Fill-53" fill="#7F620E"></path>
                <path d="M56.2739,20.137 L58.5279,20.203 C58.7139,20.209 58.8049,19.98 58.6669,19.856 L58.2229,19.457 C57.9519,19.213 57.5459,19.194 57.2519,19.411 L56.2739,20.137 Z" id="Fill-55" fill="#FFFFFF"></path>
                <polygon id="Fill-57" fill="#7A7A7A" points="55.8031 38.7846 55.8631 37.6636 55.9671 37.4276 56.3511 37.5716 60.7251 29.3666 60.9861 29.4796 56.6841 38.1766 56.4111 38.3876"></polygon>
                <path d="M56.8688,38.3181 L56.8838,38.1561 C57.1688,38.1831 57.3218,37.9471 57.3428,37.7161 C57.3648,37.4861 57.2598,37.2251 56.9728,37.1991 L56.9878,37.0371 C57.3658,37.0721 57.5338,37.4131 57.5048,37.7311 C57.4748,38.0491 57.2468,38.3531 56.8688,38.3181" id="Fill-59" fill="#7A7A7A"></path>
                <polygon id="Fill-61" fill="#7A7A7A" points="56.6133 37.9436 57.3163 38.3366 57.0913 38.6496 56.8423 38.5856 55.6643 41.7306 54.1843 41.1646 55.5913 38.6496"></polygon>
                <path d="M59.8433,31.2524 C59.9903,30.9984 60.2483,30.8724 60.4203,30.9714 C60.5923,31.0714 60.6123,31.3574 60.4653,31.6114 C60.3183,31.8654 60.0603,31.9914 59.8883,31.8924 C59.7173,31.7934 59.6963,31.5064 59.8433,31.2524" id="Fill-63" fill="#FFE1C7"></path>
                <path d="M31.2038,41.0104 L32.7628,39.9574 C32.8548,39.8944 32.9028,39.7844 32.8858,39.6744 L32.3218,36.0314 C32.9228,36.3804 33.6498,36.3554 34.3108,36.1474 L34.5608,40.5584 C34.5788,40.8794 34.3448,41.1604 34.0258,41.2014 L31.4018,41.5354 C31.2458,41.5554 31.1028,41.4464 31.0798,41.2914 C31.0638,41.1814 31.1118,41.0724 31.2038,41.0104" id="Fill-65" fill="#9E7A1F"></path>
                <path d="M37.6269,36.0433 C37.6859,36.4553 37.7249,37.1083 37.5539,37.8253 C37.2679,39.0253 37.4259,40.3213 37.4259,40.3213 L37.9669,40.6703 L37.9879,41.0343 L37.0489,41.6183 L35.9059,41.1573 L36.1309,40.5563 L35.7299,38.1923 L35.6109,36.2023 C36.2379,36.5263 37.0089,36.4493 37.6269,36.0433" id="Fill-67" fill="#9E7A1F"></path>
                <path d="M32.2294,23.2677 C32.2294,23.2677 31.8974,25.0507 31.6564,25.5697 L31.5114,24.7137 C31.2934,23.5327 29.4254,23.8787 29.6444,25.0597 C29.6444,25.0597 30.3764,27.4137 30.5324,27.8297 C30.6884,28.2447 31.0264,28.6887 32.8494,28.1097 L32.2294,23.2677 Z" id="Fill-69" fill="#C4434A"></path>
                <path d="M37.3362,22.8876 C37.3362,22.8876 38.7462,24.9606 39.5902,27.3176 C39.6562,27.9576 39.8932,28.9046 37.6672,30.1406 L36.8252,28.2146 C36.8252,28.2146 37.4222,27.8636 37.9022,27.7246 C37.9022,27.7246 36.8912,26.5926 36.5102,24.6436 L37.3362,22.8876 Z" id="Fill-71" fill="#C4434A"></path>
                <path d="M33.0963,29.0371 C32.1363,28.6391 31.8393,26.6361 32.2293,23.2681 C32.2563,23.0391 32.4203,22.8491 32.6423,22.7861 C34.2123,22.3371 35.7763,22.4561 37.3363,22.8881 C37.1603,24.4361 37.2013,26.3491 37.4813,28.5021 C36.6663,29.0391 35.2903,29.2641 33.0963,29.0371" id="Fill-73" fill="#A8393A"></path>
                <path d="M37.4809,28.5018 C37.4809,28.5018 37.9599,29.7818 37.9319,30.9378 C37.9039,32.0938 37.3749,34.7498 37.3749,34.7498 C37.3749,34.7498 37.8249,36.7228 37.7929,37.3648 C37.7609,38.0078 37.7259,39.9878 37.7259,39.9878 C37.7339,40.4368 35.6779,40.4718 35.6709,40.0228 C35.6709,40.0228 35.7349,38.5878 35.5199,38.0898 C35.3039,37.5918 35.5499,36.4258 35.3619,35.6888 C35.1739,34.9518 35.1679,33.7258 34.8839,33.2478 C34.8839,33.2478 34.6209,34.8888 34.2179,35.3328 L34.2179,35.7508 C34.2179,35.7508 34.8469,37.7048 34.9189,40.0228 C34.0719,40.1138 33.2739,40.1088 32.7429,39.5718 C32.7429,39.5718 32.7779,38.2958 31.9689,35.8308 C31.8109,35.1808 31.8669,34.5658 32.1769,33.9258 C32.4879,33.2858 32.8679,30.8768 32.7859,29.9818 C32.7039,29.0878 33.0959,29.0368 33.0959,29.0368 L34.8479,28.5588 L37.4809,28.5018 Z" id="Fill-75" fill="#7F620E"></path>
                <path d="M33.7072,22.4416 L33.7492,21.9836 C32.4942,21.3566 33.8782,18.5876 35.1342,19.2146 C35.6802,19.4766 36.0642,19.8136 36.0192,20.3506 C36.0082,20.4876 36.0532,20.6236 36.1572,20.7136 L36.3822,20.9116 C36.4682,20.9866 36.4302,21.1286 36.3182,21.1506 L36.0942,21.1946 L36.0182,21.4906 L36.1432,21.9836 L35.6582,22.0226 L35.7602,22.2476 L34.8582,23.3726 L33.7072,22.4416 Z" id="Fill-77" fill="#FFE1C7"></path>
                <path d="M33.2956,21.4095 C33.3136,20.6325 33.6716,20.1155 34.9796,20.1155 C36.2886,20.1155 37.2566,19.9795 37.2566,19.5095 C37.2566,19.0395 36.3466,18.9635 35.8806,18.9635 C35.7956,18.4625 33.1246,18.9195 33.2106,19.4195 L33.2556,19.7265 C31.5026,20.5935 31.8316,21.0995 33.2956,21.4095" id="Fill-79" fill="#7F620E"></path>
                <path d="M31.2326,20.5 C30.9526,20.553 30.7346,20.749 30.6376,20.997 C30.4566,20.802 30.1816,20.699 29.9016,20.753 C29.4696,20.835 29.1836,21.255 29.2646,21.687 L29.4896,22.871 L32.3916,22.32 L32.1676,21.136 C32.0856,20.704 31.6646,20.418 31.2326,20.5" id="Fill-81" fill="#7A7A7A"></path>
                <polygon id="Fill-83" fill="#7A7A7A" points="34.5681 40.4062 34.0891 40.4972 30.4131 21.1242 30.8921 21.0332"></polygon>
                <path d="M30.8211,23.0532 C30.4891,23.4422 30.3631,23.9842 30.3391,24.6022 C30.5641,24.8352 30.8711,24.9342 31.3031,24.8302 C31.9231,24.2832 32.1051,23.8082 31.9041,23.3972 C31.6551,23.1492 31.2851,23.0442 30.8211,23.0532" id="Fill-85" fill="#FFE1C7"></path>
                <polygon id="Fill-87" fill="#C4434A" points="35.7598 22.2475 36.6738 22.7215 35.9128 24.7285 34.9678 23.9895 34.1818 24.5925 32.8488 22.8255 33.8128 22.2005 34.8578 23.3735"></polygon>
                <path d="M56.0636,40.0872 C49.5496,45.0552 40.4506,45.0552 33.9366,40.0872 L32.0106,40.3922 L32.8996,46.0032 L33.7106,44.8872 L34.8256,45.6982 L34.3566,42.7372 C37.6056,44.7512 41.3026,45.7622 45.0006,45.7622 C48.6976,45.7622 52.3946,44.7512 55.6436,42.7372 L55.1746,45.6982 L56.2896,44.8872 L57.1006,46.0032 L57.9896,40.3922 L56.0636,40.0872 Z" id="Fill-89" fill="#FFFFFF"></path>
                <path d="M40.2633,17.5663 C40.2633,17.5663 43.2823,18.9563 45.8673,19.0223 C48.4483,19.0843 49.0983,18.6583 49.0983,18.6583 L48.3573,20.0853 L42.0623,20.0853 L40.2633,17.5663 Z" id="Fill-91" fill="#B34B00"></path>
                <polygon id="Fill-93" fill="#FFFFFF" points="41.2588 17.3723 42.8428 18.5093 47.9628 18.5093 48.7038 18.5093 47.9058 14.6343 42.8428 14.8743"></polygon>
                <polygon id="Fill-95" fill="#FFFFFF" opacity="0.5" points="22 62 68 62 68 58 22 58"></polygon>
            </g>
        </g>
    </g>
</svg>