<svg width="90" height="65" viewBox="0 0 90 65" xmlns="http://www.w3.org/2000/svg"><title>Delaware</title><g fill="none" fill-rule="evenodd"><path d="M80 65H10C4.477 65 0 60.523 0 55V10C0 4.477 4.477 0 10 0h70c5.523 0 10 4.477 10 10v45c0 5.523-4.477 10-10 10" fill="#76A1A0"/><path fill="#F0DC82" d="M79.778 32.5L45 10.531l-34.777 21.97L45 54.468z"/><path d="M39.076 37.727c1.139 1.754 2.611 1.988 3.691 1.988.612 0 1.229-.082 1.826-.161l.38-.05.019.005.024-.005.386.05c.596.079 1.214.161 1.826.161 1.08 0 2.551-.234 3.691-1.988H39.076z" fill="#3F863F"/><path d="M51.55 36.5l-.195-.08.225.017.003-.047.023-.223c.071-.636.177-1.597-1.198-2.073a2.964 2.964 0 0 0-.257-.072c.017-.137.045-.306.058-.379l.046-.27-.385-.376a2.622 2.622 0 0 1-.467-1.073h-8.81a2.642 2.642 0 0 1-.468 1.073l-.385.376.045.27c.013.073.042.242.06.38a2.976 2.976 0 0 0-.267.074c-1.367.473-1.26 1.434-1.19 2.07.008.072.016.144.022.217l.005.053.223-.017-.194.08c.194.475.406.88.632 1.227h11.842c.226-.347.438-.752.632-1.228" fill="#FFF"/><path d="M49.871 29.462c.874-.618 1.273-1.554 1.018-2.416-.205-.694-.916-1.435-2.295-1.435-.244 0-.5.023-.76.07-1.223.201-1.572.254-2.837.37-1.266-.116-1.614-.169-2.83-.37a4.407 4.407 0 0 0-.767-.07c-1.379 0-2.09.741-2.295 1.435-.255.862.143 1.798 1.018 2.416.563 1.005.595 1.85.47 2.462h8.81c-.125-.613-.095-1.458.468-2.462" fill="#FFB93C"/><path d="M46.327 33.295c1.188.515 2.603.621 3.887.321l.041-.243-.385-.376c-.085-.107-.644-.868-.504-2.052-.65.108-1.36.042-1.93-.205-1.503-.652-3.369-.652-4.87 0-.572.247-1.285.314-1.936.204.141 1.182-.416 1.941-.505 2.053l-.385.376.041.242c1.285.301 2.702.196 3.892-.32.794-.344 1.86-.344 2.654 0" fill="#006FFF"/><path d="M37.51 36.516a2.309 2.309 0 0 1-.004-.081l-.005-.04.009.12zM52.485 36.516l.009-.12-.005.039a2.309 2.309 0 0 1-.004.08" fill="#FFF066"/><path d="M51.06 36.396l.006-.094c-1.443 3.546-3.83 2.948-6.066 2.673h-.003-.002c-2.236.275-4.623.873-6.067-2.673l.007.094c-.05-.716-.31-1.417.813-1.806.622-.203.735.041.552-1.035l.21-.204s1.494-1.73.005-4.254c-1.736-1.126-1.07-3.366 1.56-2.902 1.26.208 1.622.262 2.922.38 1.301-.118 1.662-.172 2.922-.38 2.63-.464 3.296 1.776 1.56 2.902-1.489 2.523.006 4.254.006 4.254l.21.204c-.184 1.076-.07.832.551 1.035 1.123.39.864 1.09.813 1.806m.133-3.52c-.019-.125.068-.38.028-.508-.05-.173-.423-.247-.783.006l.21.204c-.255.09-1.2-1.21-.13-1.584.477-.182.92-.12.09-1.029 2.345-2.32-.145-5.206-1.458-5.022-.252.024-.486.12-.737.143-.197.015-.356-.008-.357-.008-.722-.185-1.494-1.474-3.058-1.25-1.564-.224-2.335 1.065-3.058 1.25 0 0-.159.023-.357.008-.25-.024-.485-.119-.737-.143-1.313-.184-3.803 2.702-1.457 5.022-.829.908-.388.847.09 1.03 1.07.372.124 1.672-.13 1.583l.21-.204c-.36-.253-.734-.179-.784-.006-.04.128.047.383.03.507-.032.397-1.438 1.146-1.298 3.56.152 1.748 1.162 2.8 2.544 3.434 3.082 1.134 3.036-.532 3.712 1.654.317 1.051.95 1.336 1.235 1.166.286.17.92-.115 1.236-1.166.675-2.186.63-.52 3.711-1.654 1.382-.634 2.393-1.686 2.545-3.434.14-2.414-1.267-3.163-1.297-3.56" fill="#FFF066"/><path fill="#FFF" d="M41.847 21.065H40.19l-.292 1.657h1.657z"/><path fill="#006FFF" d="M43.485 21.065h-1.657l-.292 1.657h1.657z"/><path fill="#FFF" d="M45.156 21.065h-1.657l-.292 1.657h1.657z"/><path fill="#006FFF" d="M46.793 21.065h-1.657l-.292 1.657h1.657z"/><path fill="#FFF" d="M48.465 21.065h-1.657l-.292 1.657h1.657z"/><path fill="#006FFF" d="M50.102 21.065h-1.657l-.292 1.657h1.657z"/><path d="M58.128 36.031l.143-.926a2.15 2.15 0 0 0 .001-.665l-.566-3.668-2.829.511 1.178 3.266c.1.276.142.57.126.862l-.042.736c.661.208 1.388.233 1.989-.116" fill="#306D30"/><path d="M59.246 41.01l-1.56-1.053a.29.29 0 0 1-.122-.283l.564-3.643c-.601.35-1.328.324-1.99.116l-.25 4.411a.614.614 0 0 0 .536.643l2.624.334a.289.289 0 0 0 .198-.525M52.823 36.043a4.836 4.836 0 0 0 .073 1.782c.286 1.2.128 2.496.128 2.496l-.541.35-.021.363.939.584 1.143-.46-.225-.602.4-2.364.12-1.99c-.627.324-1.398.247-2.016-.159" fill="#7F620E"/><path d="M55.78 31.912l-3.154-.382.285 4.068s-.049.168-.089.446c.62.406 1.39.482 2.016.158l.045-.754.896-3.536zM58.55 23.86c.562.24.363 1.948.042 3.358.41.353.98 2.169 1.42 2.814.36.534-.876 1.368-1.236.835l-1.606-2.784s-.467-.824-.157-1.575c.31-.752.326-3.161 1.537-2.647" fill="#306D30"/><path d="M56.677 25.123l-1.018-.72-1.227.604-1.938-1.731c.082.469.19.719.264 1.192l.166 2.02a7.997 7.997 0 0 1-.154 3.187l-.568 2.23c-.02.698 6.053.846 6.072.15l-.35-2.345a7.96 7.96 0 0 1 .064-2.72l.562-2.854c.01-.05.01-.1 0-.148l-1.873 1.135z" fill="#3F863F"/><path d="M52.48 23.188c1.086-.378 1.903 1.971.816 2.35l-.932.792 1.134 1.344c.496.354-.343 1.53-.84 1.176 0 0-1.848-.615-2.4-2.292.06-1.408 2.28-2.417 2.221-3.37" fill="#306D30"/><path d="M59.071 31.225a.769.769 0 1 1 1.537-.001.769.769 0 0 1-1.537 0M52.884 29.163a.745.745 0 0 1 1.222-.849c.235.338.592 1.07.083 1.423-.338.235-1.07-.236-1.305-.574" fill="#FFE1C7"/><path d="M55.658 24.469l1.018.76 1.875-1.2a.456.456 0 0 0-.26-.34l-1.406-.868-1.151.93-.903-1.124-2.352.56.014.089 1.938 1.83 1.227-.637z" fill="#306D30"/><path d="M56.884 22.82l-.042-.457c1.255-.627-.129-3.396-1.385-2.77-.546.263-.93.6-.886 1.137a.424.424 0 0 1-.137.363l-.225.198a.138.138 0 0 0 .064.239l.224.044.076.296-.125.493.485.039-.102.225.902 1.125 1.151-.931z" fill="#FFE1C7"/><path d="M57.296 21.789c-.018-.777-.376-1.294-1.684-1.294-1.31 0-2.277-.136-2.277-.606s.91-.546 1.376-.546c.085-.501 2.756-.044 2.67.456l-.045.307c1.753.867 1.424 1.373-.04 1.683" fill="#7F620E"/><path d="M56.274 20.137l2.254.066a.199.199 0 0 0 .139-.347l-.444-.399a.769.769 0 0 0-.971-.046l-.978.726z" fill="#FFF"/><path fill="#7A7A7A" d="M55.803 38.785l.06-1.121.104-.236.384.144 4.374-8.205.261.113-4.302 8.697-.273.21z"/><path d="M56.869 38.318l.015-.162c.285.027.438-.209.459-.44.022-.23-.083-.49-.37-.517l.015-.162c.378.035.546.376.517.694-.03.318-.258.622-.636.587" fill="#7A7A7A"/><path fill="#7A7A7A" d="M56.613 37.944l.703.393-.225.313-.249-.064-1.178 3.145-1.48-.566 1.407-2.515z"/><path d="M59.843 31.252c.147-.254.405-.38.577-.28.172.1.192.385.045.64-.147.253-.405.38-.577.28-.17-.099-.192-.386-.045-.64" fill="#FFE1C7"/><path d="M31.204 41.01l1.559-1.053a.29.29 0 0 0 .123-.283l-.564-3.643c.6.35 1.328.324 1.989.116l.25 4.411a.614.614 0 0 1-.535.643l-2.624.334a.289.289 0 0 1-.198-.525M37.627 36.043a4.836 4.836 0 0 1-.073 1.782c-.286 1.2-.128 2.496-.128 2.496l.54.35.022.363-.94.584-1.142-.46.225-.602-.401-2.364-.12-1.99c.628.324 1.399.247 2.017-.159" fill="#9E7A1F"/><path d="M32.23 23.268s-.333 1.783-.574 2.302l-.145-.856c-.218-1.181-2.086-.835-1.867.346 0 0 .732 2.354.888 2.77.156.415.494.859 2.317.28l-.62-4.842zM37.336 22.888s1.41 2.073 2.254 4.43c.066.64.303 1.587-1.923 2.823l-.842-1.926s.597-.351 1.077-.49c0 0-1.01-1.132-1.392-3.081l.826-1.756z" fill="#C4434A"/><path d="M33.096 29.037c-.96-.398-1.257-2.4-.867-5.769a.572.572 0 0 1 .413-.482c1.57-.449 3.134-.33 4.694.102-.176 1.548-.135 3.461.145 5.614-.815.537-2.19.762-4.385.535" fill="#A8393A"/><path d="M37.48 28.502s.48 1.28.452 2.436c-.028 1.156-.557 3.812-.557 3.812s.45 1.973.418 2.615a142.4 142.4 0 0 0-.067 2.623c.008.449-2.048.484-2.055.035 0 0 .064-1.435-.151-1.933-.216-.498.03-1.664-.158-2.401-.188-.737-.194-1.963-.478-2.441 0 0-.263 1.64-.666 2.085v.418s.629 1.954.7 4.272c-.846.09-1.644.086-2.175-.451 0 0 .035-1.276-.774-3.741a2.712 2.712 0 0 1 .208-1.905c.31-.64.69-3.05.609-3.944-.082-.894.31-.945.31-.945l1.752-.478 2.633-.057z" fill="#7F620E"/><path d="M33.707 22.442l.042-.458c-1.255-.627.13-3.396 1.385-2.77.546.263.93.6.885 1.137a.428.428 0 0 0 .138.363l.225.198a.138.138 0 0 1-.064.239l-.224.044-.076.296.125.493-.485.039.102.225-.902 1.125-1.15-.931z" fill="#FFE1C7"/><path d="M33.296 21.41c.018-.777.376-1.294 1.684-1.294 1.309 0 2.277-.136 2.277-.607 0-.47-.91-.546-1.376-.546-.085-.5-2.756-.044-2.67.456l.045.308c-1.753.866-1.424 1.372.04 1.683" fill="#7F620E"/><path d="M31.233 20.5a.8.8 0 0 0-.595.497.8.8 0 0 0-1.373.69l.225 1.184 2.902-.551-.224-1.184a.802.802 0 0 0-.935-.636" fill="#7A7A7A"/><path fill="#7A7A7A" d="M34.568 40.406l-.479.091-3.676-19.373.48-.09z"/><path d="M30.821 23.053c-.332.39-.458.931-.482 1.55.225.232.532.331.964.227.62-.547.802-1.022.601-1.433-.249-.248-.619-.353-1.083-.344" fill="#FFE1C7"/><path fill="#C4434A" d="M35.76 22.247l.914.474-.761 2.008-.945-.74-.786.604-1.333-1.767.964-.625 1.045 1.172z"/><path d="M56.064 40.087c-6.514 4.968-15.613 4.968-22.127 0l-1.926.305.889 5.611.81-1.116 1.116.811-.47-2.96a20.198 20.198 0 0 0 10.645 3.024c3.697 0 7.394-1.01 10.643-3.025l-.47 2.961 1.116-.81.81 1.115.89-5.61-1.926-.306z" fill="#FFF"/><path d="M40.263 17.566s3.02 1.39 5.604 1.456c2.581.062 3.231-.364 3.231-.364l-.74 1.427h-6.296l-1.799-2.519z" fill="#B34B00"/><path fill="#FFF" d="M41.259 17.372l1.584 1.137h5.86l-.797-3.875-5.063.24z"/><path fill="#FFF" opacity=".5" d="M22 62h46v-4H22z"/></g></svg>