<svg width="90" height="65" viewBox="0 0 90 65" xmlns="http://www.w3.org/2000/svg" xmlns:xlink="http://www.w3.org/1999/xlink"><title>Florida</title><defs><path id="a" d="M89.702 0H.297v65h89.405z"/><path d="M0 11.5c0 6.075 4.925 11 11 11s11-4.925 11-11-4.925-11-11-11-11 4.925-11 11z" id="c"/></defs><g fill="none" fill-rule="evenodd"><path fill="#FFF" d="M0 65h90V0H0z"/><path d="M80 65H10C4.477 65 0 60.523 0 55V10C0 4.477 4.477 0 10 0h70c5.523 0 10 4.477 10 10v45c0 5.523-4.477 10-10 10" fill="#F1F2F2"/><mask id="b" fill="#fff"><use xlink:href="#a"/></mask><path d="M55.248 32.5L89.702 7.617C88.632 3.247 84.7 0 80 0h-.248L45 25.099 10.247-.001H10C5.3 0 1.368 3.247.298 7.617L34.752 32.5.297 57.383C1.368 61.753 5.3 65 10 65h.248L45 39.9 79.751 65h.25c4.7 0 8.631-3.247 9.701-7.617L55.248 32.5z" fill="#CF1B2B" mask="url(#b)"/><path d="M30 32.5c0-8.284 6.716-15 15-15 8.284 0 15 6.716 15 15 0 8.284-6.716 15-15 15-8.284 0-15-6.716-15-15" fill="#FF7900"/><g transform="translate(34 21)"><path d="M0 11.5C0 5.425 4.925.5 11 .5s11 4.925 11 11-4.925 11-11 11-11-4.925-11-11z" fill="#66E2FF"/><path d="M11 22.5c6.075 0 11-4.925 11-11H0c0 6.075 4.925 11 11 11" fill="#008542"/><mask id="d" fill="#fff"><use xlink:href="#c"/></mask><path fill="#7C2525" mask="url(#d)" d="M10 16h1V5h-1z"/><path d="M7 5.5a3.5 3.5 0 1 1 7 0 3.5 3.5 0 0 1-7 0M12.5 15a5.5 5.5 0 1 1 11 0 5.5 5.5 0 1 1-11 0" fill="#78AD12" mask="url(#d)"/><path d="M3.418 12.166s-1.458-.35-1.224-1.516c.234-1.166.796-2.973 2.157-3.032h.934c1.495.156 2.208 3.962.933 4.548h-2.8z" fill="#D3A240" mask="url(#d)"/><path d="M7.266 20.154c0 1.166-5.306 1.166-5.306 0 .21-3.146.498-6.155 1.458-7.988.85-.421 1.795-.357 2.8 0 .491 1.476.846 4.102 1.048 7.988" fill="#3D5BD5" mask="url(#d)"/><path d="M8 11a3.013 3.013 0 0 1-5.048 0H8z" fill="#B10021" mask="url(#d)"/><path d="M3.127 11.933a.583.583 0 1 1 1.166 0 .583.583 0 0 1-1.166 0M4.146 7.592l.052-.283c-.718-.463.277-2.112.995-1.65.314.194.524.426.466.759a.276.276 0 0 0 .061.234l.124.136c.048.052.016.138-.052.146l-.138.015-.063.18.047.315-.294-.003.048.146-.609.65-.637-.645z" fill="#FFE1C7" mask="url(#d)"/><path d="M3.418 6.277c-.525.03-.772-.192-.64-.758-.067-.535.865-.652.933-.117 1.379-.407 1.922.117 1.922.117l.176.35s-.486.04-.992.234c-.505.194-.816.816-.816.816-.35-.097-.544-.311-.583-.641" fill="#704219" mask="url(#d)"/></g></g></svg>