<?xml version="1.0" encoding="UTF-8" standalone="no"?>
<svg width="90px" height="65px" viewBox="0 0 90 65" version="1.1" xmlns="http://www.w3.org/2000/svg" xmlns:xlink="http://www.w3.org/1999/xlink">
    <!-- Generator: Sketch 3.7.2 (28276) - http://www.bohemiancoding.com/sketch -->
    <title>Florida</title>
    <desc>Created with Sketch.</desc>
    <defs>
        <polygon id="path-1" points="89.7024 0 0.2974 0 0.2974 64.9999 89.7024 64.9999"></polygon>
        <path d="M0,11.5 C0,17.575 4.925,22.5 11,22.5 L11,22.5 C17.075,22.5 22,17.575 22,11.5 L22,11.5 C22,5.425 17.075,0.5 11,0.5 L11,0.5 C4.925,0.5 0,5.425 0,11.5 L0,11.5 Z" id="path-3"></path>
    </defs>
    <g id="Page-1" stroke="none" stroke-width="1" fill="none" fill-rule="evenodd">
        <g id="Florida">
            <g id="Page-1">
                <polygon id="Fill-1" fill="#FFFFFF" points="0 65 90 65 90 0 0 0"></polygon>
                <g id="Group-9">
                    <path d="M80,65 L10,65 C4.477,65 0,60.523 0,55 L0,10 C0,4.477 4.477,0 10,0 L80,0 C85.523,0 90,4.477 90,10 L90,55 C90,60.523 85.523,65 80,65" id="Fill-2" fill="#F1F2F2"></path>
                    <g id="Group-6">
                        <mask id="mask-2" fill="white">
                            <use xlink:href="#path-1"></use>
                        </mask>
                        <g id="Clip-5"></g>
                        <path d="M55.2484,32.4999 L89.7024,7.6169 C88.6314,3.2469 84.7004,-0.0001 80.0004,-0.0001 L79.7524,-0.0001 L45.0004,25.0989 L10.2474,-0.0001 L10.0004,-0.0001 C5.3004,-0.0001 1.3684,3.2459 0.2984,7.6159 L34.7524,32.4999 L0.2974,57.3829 C1.3684,61.7529 5.3004,64.9999 10.0004,64.9999 L10.2484,64.9999 L45.0004,39.9009 L79.7514,64.9999 L80.0004,64.9999 C84.7004,64.9999 88.6324,61.7529 89.7024,57.3829 L55.2484,32.4999 Z" id="Fill-4" fill="#CF1B2B" mask="url(#mask-2)"></path>
                    </g>
                    <path d="M30,32.5 C30,24.216 36.716,17.5 45,17.5 C53.284,17.5 60,24.216 60,32.5 C60,40.784 53.284,47.5 45,47.5 C36.716,47.5 30,40.784 30,32.5" id="Fill-7" fill="#FF7900"></path>
                </g>
                <g id="Group-24" transform="translate(34.000000, 21.000000)">
                    <path d="M0,11.5 C0,5.425 4.925,0.5 11,0.5 C17.075,0.5 22,5.425 22,11.5 C22,17.575 17.075,22.5 11,22.5 C4.925,22.5 0,17.575 0,11.5 L0,11.5 Z" id="Fill-10" fill="#66E2FF"></path>
                    <path d="M11,22.5 C17.075,22.5 22,17.575 22,11.5 L0,11.5 C0,17.575 4.925,22.5 11,22.5" id="Fill-12" fill="#008542"></path>
                    <mask id="mask-4" fill="white">
                        <use xlink:href="#path-3"></use>
                    </mask>
                    <g id="Clip-15"></g>
                    <polygon id="Fill-14" fill="#7C2525" mask="url(#mask-4)" points="10 16 11 16 11 5 10 5"></polygon>
                    <path d="M7,5.5 C7,3.567 8.567,2 10.5,2 C12.433,2 14,3.567 14,5.5 C14,7.433 12.433,9 10.5,9 C8.567,9 7,7.433 7,5.5" id="Fill-16" fill="#78AD12" mask="url(#mask-4)"></path>
                    <path d="M12.5,15 C12.5,11.962 14.962,9.5 18,9.5 C21.038,9.5 23.5,11.962 23.5,15 C23.5,18.038 21.038,20.5 18,20.5 C14.962,20.5 12.5,18.038 12.5,15" id="Fill-17" fill="#78AD12" mask="url(#mask-4)"></path>
                    <path d="M3.4185,12.166 C3.4185,12.166 1.9605,11.816 2.1945,10.65 C2.4275,9.484 2.9905,7.677 4.3515,7.618 L5.2845,7.618 C6.7805,7.774 7.4935,11.58 6.2175,12.166 L3.4185,12.166 Z" id="Fill-18" fill="#D3A240" mask="url(#mask-4)"></path>
                    <path d="M7.2664,20.1535 C7.2664,21.3195 1.9604,21.3195 1.9604,20.1535 C2.1704,17.0075 2.4584,13.9985 3.4184,12.1665 C4.2674,11.7445 5.2134,11.8095 6.2174,12.1665 C6.7094,13.6415 7.0644,16.2685 7.2664,20.1535" id="Fill-19" fill="#3D5BD5" mask="url(#mask-4)"></path>
                    <path d="M8,11 C7.444,11.853 6.494,12.367 5.476,12.367 C4.458,12.367 3.509,11.853 2.952,11 L8,11 Z" id="Fill-20" fill="#B10021" mask="url(#mask-4)"></path>
                    <path d="M3.127,11.9328 C3.127,11.6108 3.388,11.3498 3.71,11.3498 C4.032,11.3498 4.293,11.6108 4.293,11.9328 C4.293,12.2548 4.032,12.5158 3.71,12.5158 C3.388,12.5158 3.127,12.2548 3.127,11.9328" id="Fill-21" fill="#FFE1C7" mask="url(#mask-4)"></path>
                    <path d="M4.1463,7.5918 L4.1983,7.3088 C3.4803,6.8458 4.4753,5.1968 5.1933,5.6588 C5.5073,5.8528 5.7173,6.0848 5.6593,6.4178 C5.6443,6.5028 5.6643,6.5898 5.7203,6.6518 L5.8443,6.7878 C5.8923,6.8398 5.8603,6.9258 5.7923,6.9338 L5.6543,6.9488 L5.5913,7.1288 L5.6383,7.4438 L5.3443,7.4408 L5.3923,7.5868 L4.7833,8.2378 L4.1463,7.5918 Z" id="Fill-22" fill="#FFE1C7" mask="url(#mask-4)"></path>
                    <path d="M3.4185,6.2775 C2.8935,6.3075 2.6465,6.0855 2.7775,5.5195 C2.7105,4.9835 3.6435,4.8675 3.7105,5.4025 C5.0895,4.9945 5.6335,5.5195 5.6335,5.5195 L5.8085,5.8695 C5.8085,5.8695 5.3235,5.9085 4.8175,6.1025 C4.3125,6.2965 4.0015,6.9185 4.0015,6.9185 C3.6515,6.8215 3.4575,6.6075 3.4185,6.2775" id="Fill-23" fill="#704219" mask="url(#mask-4)"></path>
                </g>
            </g>
        </g>
    </g>
</svg>