<svg width="90" height="65" viewBox="0 0 90 65" xmlns="http://www.w3.org/2000/svg" xmlns:xlink="http://www.w3.org/1999/xlink"><title>Georgia</title><defs><path id="a" d="M0 65h90V0H0z"/></defs><g fill="none" fill-rule="evenodd"><path d="M80 65H10C4.477 65 0 60.523 0 55V44h90v11c0 5.523-4.477 10-10 10z" fill="#B70022"/><path d="M44 44H0V10C0 4.477 4.477 0 10 0h34v44z" fill="#002C57"/><mask id="b" fill="#fff"><use xlink:href="#a"/></mask><path fill="#EEE" mask="url(#b)" d="M44 44h46V21H44z"/><path d="M80 0H44v21h46V10c0-5.523-4.477-10-10-10" fill="#B70022" mask="url(#b)"/><path d="M29.714 6L27.59 4.887l1.064 2.15-1.717 1.677 2.374-.347 1.063 2.15.404-2.364 2.375-.347-2.125-1.115.404-2.365L29.714 6zm6.69 5.452L35.04 9.478l-.058 2.399-2.3.686 2.264.796-.058 2.399 1.457-1.907 2.263.797-1.363-1.975 1.457-1.907-2.299.686zm3.388 7.936l-.29-2.382-1.166 2.097-2.355-.461 1.635 1.757-1.167 2.097 2.177-1.011 1.634 1.757-.29-2.382 2.177-1.011-2.355-.461zm-.687 8.6l.851-2.242-2.007 1.315-1.87-1.503.63 2.315-2.008 1.315 2.397.116.63 2.315.851-2.243 2.397.116-1.87-1.503zM34.5 35.287l1.796-1.591-2.388.232-.958-2.2-.518 2.343-2.388.23 2.068 1.218-.518 2.343 1.796-1.591 2.07 1.216-.96-2.2zm-7.469 4.32l2.33-.573-2.222-.905.174-2.393-1.548 1.834-2.222-.905 1.266 2.038-1.547 1.834 2.33-.574L26.856 42l.173-2.393zm-8.62.356l2.33.574-1.549-1.834 1.266-2.038-2.222.905-1.547-1.834.174 2.393-2.223.905 2.33.574.174 2.393 1.266-2.038zm-7.8-3.692l1.796 1.59-.518-2.342 2.07-1.217-2.39-.231-.518-2.343-.958 2.2-2.388-.232 1.796 1.59-.958 2.2 2.068-1.215zm-5.19-6.894l.851 2.243.631-2.315 2.396-.116-2.007-1.315.631-2.315-1.87 1.503-2.008-1.315.85 2.243-1.87 1.503 2.396-.116zM4.03 20.86l-.29 2.382 1.634-1.757 2.176 1.01L6.384 20.4l1.634-1.757-2.355.46-1.166-2.096-.289 2.382-2.355.46L4.03 20.86zm2.724-8.187l-1.363 1.975 2.264-.797 1.457 1.907-.058-2.4 2.263-.795-2.299-.686-.058-2.4-1.363 1.975-2.3-.686 1.457 1.907zm6.218-5.983l-2.125 1.115 2.375.347.404 2.365 1.063-2.151 2.375.347-1.718-1.676 1.064-2.151L14.285 6l-1.717-1.676.404 2.365zM22 2l.741 2.282h2.4L23.2 5.692l.742 2.283-1.94-1.411-1.943 1.41.742-2.281-1.94-1.411h2.398L22 2z" fill="#FFF" mask="url(#b)"/><path d="M22 11a6.12 6.12 0 0 0-6.12 6.12h1.36a4.76 4.76 0 1 1 9.52 0h1.36A6.12 6.12 0 0 0 22 11M27.44 18.48H16.56l-1.36-1.36h13.6z" fill="#FFF066" mask="url(#b)"/><path fill="#FFF066" mask="url(#b)" d="M21.32 27.32h1.36V17.8h-1.36zM16.56 27.32h1.36V17.8h-1.36zM26.08 27.32h1.36V17.8h-1.36z"/><path fill="#FFF066" mask="url(#b)" d="M14.52 28h14.96v-1.36H14.52zM22 21.198a9.786 9.786 0 0 1-3.652-.726l.504-1.264c2.119.848 4.177.848 6.296 0l.504 1.264a9.786 9.786 0 0 1-3.652.726M24.04 24.26c0-1.314.304-2.38.68-2.38.376 0 .68 1.066.68 2.38 0 1.314-.304 2.38-.68 2.38-.376 0-.68-1.066-.68-2.38M14.52 25.28v-1.36c1.312 0 2.303-.299 2.866-.863.53-.532.534-1.139.534-1.165l1.36-.033c.003.119.01 1.188-.898 2.124-.834.861-2.133 1.297-3.862 1.297"/><path d="M29.48 25.28v-1.36c-1.312 0-2.303-.299-2.866-.863-.53-.532-.534-1.139-.534-1.165l-1.36-.033c-.003.119-.01 1.188.898 2.124.834.861 2.133 1.297 3.862 1.297" fill="#FFF066" mask="url(#b)"/><path fill-opacity=".5" fill="#FFF066" mask="url(#b)" d="M14 31h16v-2H14z"/></g></svg>