<?xml version="1.0" encoding="UTF-8" standalone="no"?>
<svg width="90px" height="65px" viewBox="0 0 90 65" version="1.1" xmlns="http://www.w3.org/2000/svg" xmlns:xlink="http://www.w3.org/1999/xlink">
    <!-- Generator: Sketch 3.7.2 (28276) - http://www.bohemiancoding.com/sketch -->
    <title>Georgia</title>
    <desc>Created with Sketch.</desc>
    <defs>
        <polygon id="path-1" points="0 65 90 65 90 0 0 0"></polygon>
    </defs>
    <g id="Page-1" stroke="none" stroke-width="1" fill="none" fill-rule="evenodd">
        <g id="Georgia">
            <g id="Page-1">
                <path d="M80,65 L10,65 C4.477,65 0,60.523 0,55 L0,44 L90,44 L90,55 C90,60.523 85.523,65 80,65 L80,65 Z" id="Fill-1" fill="#B70022"></path>
                <path d="M44,44 L0,44 L0,10 C0,4.477 4.477,0 10,0 L44,0 L44,44 Z" id="Fill-3" fill="#002C57"></path>
                <mask id="mask-2" fill="white">
                    <use xlink:href="#path-1"></use>
                </mask>
                <g id="Clip-6"></g>
                <polygon id="Fill-5" fill="#EEEEEE" mask="url(#mask-2)" points="44 44 90 44 90 21 44 21"></polygon>
                <path d="M80,0 L44,0 L44,21 L90,21 L90,10 C90,4.477 85.523,0 80,0" id="Fill-7" fill="#B70022" mask="url(#mask-2)"></path>
                <path d="M29.7144,6.0008 L27.5894,4.8858 L28.6534,7.0368 L26.9364,8.7128 L29.3104,8.3658 L30.3734,10.5168 L30.7774,8.1518 L33.1524,7.8048 L31.0274,6.6898 L31.4314,4.3248 L29.7144,6.0008 Z M36.4034,11.4518 L35.0404,9.4778 L34.9824,11.8768 L32.6824,12.5628 L34.9464,13.3588 L34.8884,15.7578 L36.3454,13.8508 L38.6084,14.6478 L37.2454,12.6728 L38.7024,10.7658 L36.4034,11.4518 Z M39.7924,19.3878 L39.5024,17.0058 L38.3364,19.1028 L35.9814,18.6418 L37.6164,20.3988 L36.4494,22.4958 L38.6264,21.4848 L40.2604,23.2418 L39.9704,20.8598 L42.1474,19.8488 L39.7924,19.3878 Z M39.1054,27.9888 L39.9564,25.7458 L37.9494,27.0608 L36.0784,25.5578 L36.7084,27.8728 L34.7014,29.1878 L37.0984,29.3038 L37.7284,31.6188 L38.5794,29.3758 L40.9764,29.4918 L39.1054,27.9888 Z M34.4994,35.2858 L36.2954,33.6948 L33.9074,33.9268 L32.9494,31.7268 L32.4314,34.0698 L30.0434,34.3008 L32.1114,35.5178 L31.5934,37.8608 L33.3894,36.2698 L35.4584,37.4858 L34.4994,35.2858 Z M27.0304,39.6068 L29.3604,39.0328 L27.1384,38.1278 L27.3124,35.7348 L25.7644,37.5688 L23.5424,36.6638 L24.8084,38.7018 L23.2614,40.5358 L25.5904,39.9618 L26.8574,41.9998 L27.0304,39.6068 Z M18.4094,39.9618 L20.7394,40.5358 L19.1914,38.7018 L20.4574,36.6638 L18.2354,37.5688 L16.6884,35.7348 L16.8624,38.1278 L14.6394,39.0328 L16.9694,39.6068 L17.1434,41.9998 L18.4094,39.9618 Z M10.6104,36.2698 L12.4064,37.8608 L11.8884,35.5178 L13.9574,34.3008 L11.5684,34.0698 L11.0504,31.7268 L10.0924,33.9268 L7.7044,33.6948 L9.5004,35.2858 L8.5424,37.4858 L10.6104,36.2698 Z M5.4204,29.3758 L6.2714,31.6188 L6.9024,29.3038 L9.2984,29.1878 L7.2914,27.8728 L7.9224,25.5578 L6.0514,27.0608 L4.0444,25.7458 L4.8944,27.9888 L3.0244,29.4918 L5.4204,29.3758 Z M4.0294,20.8598 L3.7404,23.2418 L5.3744,21.4848 L7.5504,22.4958 L6.3844,20.3988 L8.0184,18.6418 L5.6634,19.1028 L4.4974,17.0058 L4.2084,19.3878 L1.8534,19.8488 L4.0294,20.8598 Z M6.7544,12.6728 L5.3914,14.6478 L7.6554,13.8508 L9.1124,15.7578 L9.0544,13.3588 L11.3174,12.5628 L9.0184,11.8768 L8.9604,9.4778 L7.5974,11.4518 L5.2974,10.7658 L6.7544,12.6728 Z M12.9724,6.6898 L10.8474,7.8048 L13.2224,8.1518 L13.6264,10.5168 L14.6894,8.3658 L17.0644,8.7128 L15.3464,7.0368 L16.4104,4.8858 L14.2854,6.0008 L12.5684,4.3248 L12.9724,6.6898 Z M22.0004,1.9998 L22.7414,4.2818 L25.1414,4.2818 L23.1994,5.6928 L23.9414,7.9748 L22.0004,6.5638 L20.0584,7.9748 L20.8004,5.6928 L18.8594,4.2818 L21.2584,4.2818 L22.0004,1.9998 Z" id="Fill-8" fill="#FFFFFF" mask="url(#mask-2)"></path>
                <path d="M22,11 C18.62,11 15.88,13.74 15.88,17.12 L17.24,17.12 C17.24,14.491 19.371,12.36 22,12.36 C24.629,12.36 26.76,14.491 26.76,17.12 L28.12,17.12 C28.12,13.74 25.38,11 22,11" id="Fill-9" fill="#FFF066" mask="url(#mask-2)"></path>
                <polygon id="Fill-10" fill="#FFF066" mask="url(#mask-2)" points="27.44 18.48 16.56 18.48 15.2 17.12 28.8 17.12"></polygon>
                <polygon id="Fill-11" fill="#FFF066" mask="url(#mask-2)" points="21.32 27.32 22.68 27.32 22.68 17.8 21.32 17.8"></polygon>
                <polygon id="Fill-12" fill="#FFF066" mask="url(#mask-2)" points="16.56 27.32 17.92 27.32 17.92 17.8 16.56 17.8"></polygon>
                <polygon id="Fill-13" fill="#FFF066" mask="url(#mask-2)" points="26.08 27.32 27.44 27.32 27.44 17.8 26.08 17.8"></polygon>
                <polygon id="Fill-14" fill="#FFF066" mask="url(#mask-2)" points="14.52 28 29.48 28 29.48 26.64 14.52 26.64"></polygon>
                <path d="M22,21.198 C20.78,21.198 19.559,20.956 18.348,20.472 L18.852,19.208 C20.971,20.056 23.029,20.056 25.148,19.208 L25.652,20.472 C24.441,20.956 23.22,21.198 22,21.198" id="Fill-15" fill="#FFF066" mask="url(#mask-2)"></path>
                <path d="M24.04,24.26 C24.04,22.946 24.344,21.88 24.72,21.88 C25.096,21.88 25.4,22.946 25.4,24.26 C25.4,25.574 25.096,26.64 24.72,26.64 C24.344,26.64 24.04,25.574 24.04,24.26" id="Fill-16" fill="#FFF066" mask="url(#mask-2)"></path>
                <path d="M14.52,25.28 L14.52,23.92 C15.832,23.92 16.823,23.621 17.386,23.057 C17.916,22.525 17.92,21.918 17.92,21.892 L19.28,21.859 C19.283,21.978 19.29,23.047 18.382,23.983 C17.548,24.844 16.249,25.28 14.52,25.28" id="Fill-17" fill="#FFF066" mask="url(#mask-2)"></path>
                <path d="M29.48,25.28 L29.48,23.92 C28.168,23.92 27.177,23.621 26.614,23.057 C26.084,22.525 26.08,21.918 26.08,21.892 L24.72,21.859 C24.717,21.978 24.71,23.047 25.618,23.983 C26.452,24.844 27.751,25.28 29.48,25.28" id="Fill-18" fill="#FFF066" mask="url(#mask-2)"></path>
                <polygon id="Fill-19" fill-opacity="0.5" fill="#FFF066" mask="url(#mask-2)" points="14 31 30 31 30 29 14 29"></polygon>
            </g>
        </g>
    </g>
</svg>