<svg width="90" height="65" viewBox="0 0 90 65" xmlns="http://www.w3.org/2000/svg" xmlns:xlink="http://www.w3.org/1999/xlink"><title>Hawai&apos;i</title><defs><path d="M89.999 55.143C89.923 60.6 85.474 65 80 65H10C4.476 65 0 60.523 0 55V10C0 4.477 4.476 0 10 0h70c5.474 0 9.923 4.4 9.999 9.857v45.286z" id="a"/><path d="M10 0C4.476 0 0 4.477 0 10v23h47.999V0H10z" id="c"/></defs><g fill="none" fill-rule="evenodd"><mask id="b" fill="#fff"><use xlink:href="#a"/></mask><path fill="#F1F2F2" mask="url(#b)" d="M0 65h90V0H0z"/><path fill="#CF1B2B" mask="url(#b)" d="M0 16.125h90V8H0z"/><path fill="#00247D" mask="url(#b)" d="M0 24.125h90V16H0z"/><path fill="#CF1B2B" mask="url(#b)" d="M0 41.125h90V33H0zM0 65.125h90V57H0z"/><path fill="#00247D" mask="url(#b)" d="M0 49.125h90V41H0z"/><mask id="d" fill="#fff"><use xlink:href="#c"/></mask><path fill="#00247D" mask="url(#d)" d="M0 33h48V0H0z"/><path fill="#F1F2F2" mask="url(#d)" d="M19.109 18.074L-5 1.735-.48-5l24.109 16.339z"/><path fill="#CF1B2B" mask="url(#d)" d="M19.109 16.864L-5 .525-3.304-2l24.108 16.339z"/><path fill="#F1F2F2" mask="url(#d)" d="M28.52 18.074L24 11.339 48.108-5l4.52 6.735z"/><path fill="#CF1B2B" mask="url(#d)" d="M26.695 14.864L25 12.339 49.109-4l1.694 2.525z"/><path fill="#F1F2F2" mask="url(#d)" d="M48.108 38.074L24 21.735 28.52 15l24.108 16.339z"/><path fill="#CF1B2B" mask="url(#d)" d="M50.11 34.865L26 18.525 27.696 16l24.107 16.34z"/><path fill="#F1F2F2" mask="url(#d)" d="M-.48 38.074L-5 31.339 19.109 15l4.52 6.735z"/><path fill="#CF1B2B" mask="url(#d)" d="M-1.305 36.864L-3 34.339 21.108 18l1.696 2.525z"/><path fill="#F1F2F2" mask="url(#d)" d="M17 33h12V0H17z"/><path fill="#F1F2F2" mask="url(#d)" d="M0 22h48V10H0z"/><path fill="#CF1B2B" mask="url(#d)" d="M20 33h6V0h-6z"/><path fill="#CF1B2B" mask="url(#d)" d="M0 19h47.999v-6H0z"/></g></svg>