<svg width="90" height="65" viewBox="0 0 90 65" xmlns="http://www.w3.org/2000/svg"><title>Iowa</title><g fill="none" fill-rule="evenodd"><path fill="#F1F2F2" d="M23 65h43.999V0H23z"/><path d="M80 65H67V0h13c5.523 0 10 4.477 10 10v45c0 5.523-4.477 10-10 10" fill="#CF1B2B"/><path d="M23 65H10C4.477 65 0 60.523 0 55V10C0 4.477 4.477 0 10 0h13v65z" fill="#00247D"/><path fill-opacity=".5" fill="#CF1B2B" d="M36 55h18v-7H36z"/><path d="M49.683 25.623h-.002c.014.001.022.002.002 0m-3.709-2.219v-.002l-.442-.045c-4.315 6.284.085 11.093-5.832 13.658l-.274-2.217-1.85-.975-4.336 2.243c-.174-.83-.493-1.524-1.23-2.106 2.987-.859 5.56-1.32 7.53-3.204l-.694-2.155-8.669-1.419 4.934-3.937-.533-.793-7.997 4.478.48 2.224 7.756 1.338c-3.198 1.062-6.53 1.433-8.509 3.62l1.45 2.018c2.884-1.158 3.197.124 2.982 1.834l1.847 1.31 4.534-2.347.25 2.008L38.996 40c4.09-1.258 5.97-3.239 5.975-7.593-.003-2.569-.523-5.243.681-8.12 1.982 6.884 10.1 1.051 14.904 1.1-.683.954-1.089 2.014-1.063 3.196-3.234-1.082-6.586-.529-9.769.73l-.36 2.143c1.765 1.592 1.787 3.082-.399 4.286l-.012 2.243c2.285 1.231 7.24 2.19 12.117-1.062.25.63.657 1.507 1.237 1.855-.42-.915.235-3.077.567-3.723l-1.983-1.023c-2.613 2.116-5.45 3.065-8.703 2.39 1.211-1.402 1.447-3.292.16-5.322 3.163-.906 6.844-.79 9.04 1.552l1.901-1.695-.063-.069h.001c-1.686-1.815-1.47-3.742.433-5.073l.03-2.089c-6.588-4.862-12.23 6.075-17.717-.322" fill="#00247D"/><path d="M43.167 19.612s-1.181-4.873-.918-9.682c.077-1.396-.374-2.75-1.205-3.328-2.24-1.554-7.52-2.15-18.044 10.716 0 0 16.339-2.437 20.167 2.294M46.833 19.612s1.181-4.873.918-9.682c-.077-1.396.374-2.75 1.205-3.328 2.24-1.554 7.52-2.15 18.044 10.716 0 0-16.339-2.437-20.167 2.294" fill="#594529"/><path d="M55 19.796c-6.875-3.625-1.75-5.625-6-8-2.354-1.316-4.552-1.172-6.047-.784a5.667 5.667 0 0 0-2.1.52l-.252.128-.146.241c-.827 1.36-2.41 4.971.727 9.154 1.388 1.852 2.875 2.797 3.878 3.263 1.027.48 1.76.562 1.84.57l.472.047.335-.335c.857-.859 1.448-2.057 1.254-3.37 3.312.315 6.039-1.434 6.039-1.434" fill="#3A2A17"/><path d="M46.07 17.005c-1.833-.669-3.665-.514-5.497.697.252.882.698 1.806 1.408 2.753C44.363 23.631 47 23.893 47 23.893c1.034-1.035 1.66-2.675-.125-4.47-.736-.74-.882-1.628-.805-2.418" fill="#F1F2F2"/></g></svg>