<?xml version="1.0" encoding="UTF-8" standalone="no"?>
<svg width="90px" height="65px" viewBox="0 0 90 65" version="1.1" xmlns="http://www.w3.org/2000/svg" xmlns:xlink="http://www.w3.org/1999/xlink">
    <!-- Generator: Sketch 3.7.2 (28276) - http://www.bohemiancoding.com/sketch -->
    <title>Idaho</title>
    <desc>Created with Sketch.</desc>
    <defs>
        <path d="M0,11 C0,17.075 4.925,22 11,22 C17.075,22 22,17.075 22,11 C22,4.925 17.075,0 11,0 C4.925,0 0,4.925 0,11 L0,11 Z" id="path-1"></path>
    </defs>
    <g id="Page-1" stroke="none" stroke-width="1" fill="none" fill-rule="evenodd">
        <g id="Idaho">
            <g id="Page-1">
                <g id="Group-5">
                    <path d="M80,65 L10,65 C4.477,65 0,60.523 0,55 L0,10 C0,4.477 4.477,0 10,0 L80,0 C85.523,0 90,4.477 90,10 L90,55 C90,60.523 85.523,65 80,65" id="Fill-1" fill="#00247D"></path>
                    <path d="M60,30 C60,21.716 53.284,15 45,15 C36.716,15 30,21.716 30,30 C30,38.284 36.716,45 45,45 C53.284,45 60,38.284 60,30" id="Fill-3" fill="#FFF066"></path>
                </g>
                <g id="Group-11" transform="translate(34.000000, 19.000000)">
                    <mask id="mask-2" fill="white">
                        <use xlink:href="#path-1"></use>
                    </mask>
                    <g id="Clip-7"></g>
                    <polygon id="Fill-6" fill="#66E2FF" mask="url(#mask-2)" points="-1 11 23 11 23 -1 -1 -1"></polygon>
                    <polygon id="Fill-8" fill="#008542" mask="url(#mask-2)" points="-1 23 23 23 23 11 -1 11"></polygon>
                    <path d="M15.7574,7.8989 L14.6094,6.4509 C13.5424,7.7439 12.7024,8.0799 11.0004,6.8649 C9.2984,8.0799 8.4574,7.7439 7.3914,6.4509 L6.2424,7.8989 C6.5404,8.2739 6.8984,8.6749 6.8984,9.3469 C6.8984,10.5359 6.1194,13.4059 7.2264,14.9319 C8.3744,16.5119 10.1594,15.6039 11.0004,16.9999 C11.8404,15.6039 13.6254,16.5119 14.7734,14.9319 C15.8804,13.4059 15.1014,10.5359 15.1014,9.3469 C15.1014,8.6749 15.4604,8.2739 15.7574,7.8989 L15.7574,7.8989 Z" id="Stroke-9" stroke="#231F1F" mask="url(#mask-2)"></path>
                    <path d="M13.5733,5.4606 C12.4653,5.4606 11.4913,4.8196 10.6383,4.2586 C9.0883,3.2376 8.1403,2.7296 6.6953,4.1736 L5.7993,3.2776 C8.0433,1.0326 9.8693,2.2346 11.3353,3.1996 C12.7523,4.1326 13.7753,4.8056 15.3053,3.2776 L16.2013,4.1736 C15.2513,5.1226 14.3773,5.4606 13.5733,5.4606" id="Fill-10" fill="#F1F2F2" mask="url(#mask-2)"></path>
                </g>
                <g id="Group-26" transform="translate(25.000000, 25.000000)">
                    <path d="M13,5 C13,2.239 12.552,0 12,0 C11.448,0 11,2.239 11,5 C11,7.761 11.448,10 12,10 C12.552,10 13,7.761 13,5" id="Fill-12" fill="#F1F2F2"></path>
                    <path d="M29,5 C29,2.239 28.552,0 28,0 C27.448,0 27,2.239 27,5 C27,7.761 27.448,10 28,10 C28.552,10 29,7.761 29,5" id="Fill-14" fill="#594529"></path>
                    <path d="M22,13 C22,11.895 21.105,11 20,11 C18.895,11 18,11.895 18,13 C18,14.105 18.895,15 20,15 C21.105,15 22,14.105 22,13" id="Fill-16" fill="#FF7900"></path>
                    <path d="M17,11 C17,9.895 16.105,9 15,9 C13.895,9 13,9.895 13,11 C13,12.105 13.895,13 15,13 C16.105,13 17,12.105 17,11" id="Fill-18" fill="#FF7900"></path>
                    <path d="M27,11 C27,9.895 26.105,9 25,9 C23.895,9 23,9.895 23,11 C23,12.105 23.895,13 25,13 C26.105,13 27,12.105 27,11" id="Fill-20" fill="#FF7900"></path>
                    <path d="M39.2393,22.6603 C39.1163,21.7693 38.6173,21.0433 37.9373,20.5923 C37.5993,20.3683 37.2183,20.2203 36.8313,20.1563 C36.6303,20.1273 36.4603,20.1153 36.2363,20.1203 C36.0863,20.1323 35.8613,20.1563 35.6773,20.2163 C34.9323,20.4303 34.3723,21.0213 34.1633,21.6663 C34.0543,21.9873 34.0253,22.3293 34.0613,22.6313 C34.1103,22.9663 34.2333,23.2473 34.4143,23.4803 C34.7733,23.9503 35.3133,24.1603 35.7683,24.1583 C36.2343,24.1703 36.6103,23.9403 36.8153,23.7003 C37.0283,23.4563 37.0993,23.2043 37.1263,23.0403 C37.1493,22.8733 37.1403,22.7843 37.1403,22.7843 C37.1403,22.7843 37.1413,22.8743 37.1043,23.0363 C37.0653,23.1943 36.9743,23.4313 36.7553,23.6423 C36.5413,23.8523 36.1883,24.0263 35.7773,23.9803 C35.3703,23.9473 34.9233,23.7193 34.6613,23.3053 C34.5273,23.1073 34.4493,22.8483 34.4343,22.6123 C34.4253,22.3403 34.4743,22.0783 34.5823,21.8263 C34.7923,21.3263 35.2713,20.9153 35.8293,20.8083 C35.9673,20.7773 36.0803,20.7743 36.2693,20.7743 C36.3853,20.7853 36.5543,20.8063 36.6913,20.8403 C36.9783,20.9143 37.2493,21.0493 37.4823,21.2333 C37.9483,21.5903 38.2483,22.1893 38.2743,22.7193 C38.3023,23.3503 38.1073,23.9253 37.7663,24.3923 C37.4183,24.8493 36.9363,25.1803 36.4263,25.3173 C36.3043,25.3513 36.1613,25.3823 36.0553,25.3903 C35.9953,25.3943 35.9553,25.4043 35.8823,25.4063 L35.6393,25.4083 C35.5173,25.3953 35.3963,25.3833 35.2763,25.3703 C35.1513,25.3393 35.0253,25.3273 34.9073,25.2863 C34.4303,25.1473 34.0213,24.9093 33.7023,24.6293 C33.0583,24.0633 32.7963,23.3803 32.7123,22.9193 C32.6823,22.7973 32.6793,22.7093 32.6713,22.6343 C32.6673,22.5953 32.6633,22.5583 32.6593,22.5253 C32.6583,22.4743 32.6583,22.4273 32.6583,22.3853 C32.6563,22.2183 32.6563,22.1293 32.6563,22.1293 L30.7243,22.2273 C30.7243,22.2273 30.7333,22.3163 30.7483,22.4823 C30.7513,22.5363 30.7663,22.6613 30.7903,22.8103 C24.1503,26.8343 15.8503,26.8343 9.2093,22.8103 C9.2333,22.6613 9.2483,22.5363 9.2513,22.4823 C9.2673,22.3163 9.2753,22.2273 9.2753,22.2273 L7.3443,22.1293 C7.3443,22.1293 7.3433,22.2183 7.3423,22.3853 C7.3423,22.4273 7.3413,22.4743 7.3413,22.5253 C7.3373,22.5583 7.3333,22.5953 7.3283,22.6343 C7.3213,22.7093 7.3183,22.7973 7.2883,22.9193 C7.2033,23.3803 6.9423,24.0633 6.2983,24.6293 C5.9793,24.9093 5.5703,25.1473 5.0933,25.2863 C4.9753,25.3273 4.8483,25.3393 4.7233,25.3703 C4.6043,25.3833 4.4833,25.3953 4.3603,25.4083 L4.1183,25.4063 C4.0443,25.4043 4.0053,25.3943 3.9453,25.3903 C3.8393,25.3823 3.6953,25.3513 3.5733,25.3173 C3.0633,25.1803 2.5813,24.8493 2.2333,24.3923 C1.8923,23.9253 1.6973,23.3503 1.7263,22.7193 C1.7523,22.1893 2.0513,21.5903 2.5183,21.2333 C2.7503,21.0493 3.0213,20.9143 3.3083,20.8403 C3.4453,20.8063 3.6153,20.7853 3.7313,20.7743 C3.9193,20.7743 4.0333,20.7773 4.1703,20.8083 C4.7293,20.9153 5.2073,21.3263 5.4173,21.8263 C5.5263,22.0783 5.5753,22.3403 5.5663,22.6123 C5.5503,22.8483 5.4723,23.1073 5.3393,23.3053 C5.0763,23.7193 4.6303,23.9473 4.2233,23.9803 C3.8113,24.0263 3.4593,23.8523 3.2453,23.6423 C3.0253,23.4313 2.9353,23.1943 2.8953,23.0363 C2.8583,22.8743 2.8593,22.7843 2.8593,22.7843 C2.8593,22.7843 2.8503,22.8733 2.8743,23.0403 C2.9013,23.2043 2.9713,23.4563 3.1843,23.7003 C3.3893,23.9403 3.7653,24.1703 4.2323,24.1583 C4.6863,24.1603 5.2273,23.9503 5.5853,23.4803 C5.7663,23.2473 5.8893,22.9663 5.9383,22.6313 C5.9743,22.3293 5.9453,21.9873 5.8373,21.6663 C5.6283,21.0213 5.0683,20.4303 4.3223,20.2163 C4.1383,20.1563 3.9133,20.1323 3.7643,20.1203 C3.5393,20.1153 3.3703,20.1273 3.1683,20.1563 C2.7813,20.2203 2.4013,20.3683 2.0623,20.5923 C1.3823,21.0433 0.8843,21.7693 0.7603,22.6603 C0.6563,23.4503 0.8443,24.3283 1.2793,25.0293 C1.7193,25.7313 2.3863,26.2863 3.1473,26.5683 C3.3413,26.6403 3.5193,26.6973 3.7363,26.7383 C3.8393,26.7563 3.9603,26.7803 4.0483,26.7893 L4.2893,26.8123 C4.7203,26.8293 5.0563,26.8043 5.4253,26.7333 C5.5253,26.7143 5.6203,26.6843 5.7173,26.6583 L5.6893,26.7013 C10.0363,29.5673 15.0183,31.0003 20.0003,31.0003 C24.9823,31.0003 29.9633,29.5673 34.3113,26.7013 L34.2833,26.6593 C34.3803,26.6843 34.4753,26.7143 34.5743,26.7333 C34.9443,26.8043 35.2793,26.8293 35.7103,26.8123 L35.9523,26.7893 C36.0393,26.7803 36.1603,26.7563 36.2633,26.7383 C36.4813,26.6973 36.6593,26.6403 36.8533,26.5683 C37.6133,26.2863 38.2813,25.7313 38.7203,25.0293 C39.1563,24.3283 39.3443,23.4503 39.2393,22.6603" id="Fill-22" fill="#FFF066"></path>
                    <path d="M20,29.7105 C15.265,29.7105 10.53,28.3485 6.399,25.6245 L7.818,23.4725 C15.219,28.3515 24.782,28.3515 32.182,23.4725 L33.601,25.6245 C29.47,28.3485 24.735,29.7105 20,29.7105" id="Fill-24" fill="#CF1B2B"></path>
                </g>
            </g>
        </g>
    </g>
</svg>