<svg width="90" height="65" viewBox="0 0 90 65" xmlns="http://www.w3.org/2000/svg" xmlns:xlink="http://www.w3.org/1999/xlink"><title>Idaho</title><defs><path d="M0 11c0 6.075 4.925 11 11 11s11-4.925 11-11S17.075 0 11 0 0 4.925 0 11z" id="a"/></defs><g fill="none" fill-rule="evenodd"><path d="M80 65H10C4.477 65 0 60.523 0 55V10C0 4.477 4.477 0 10 0h70c5.523 0 10 4.477 10 10v45c0 5.523-4.477 10-10 10" fill="#00247D"/><path d="M60 30c0-8.284-6.716-15-15-15-8.284 0-15 6.716-15 15 0 8.284 6.716 15 15 15 8.284 0 15-6.716 15-15" fill="#FFF066"/><g transform="translate(34 19)"><mask id="b" fill="#fff"><use xlink:href="#a"/></mask><path fill="#66E2FF" mask="url(#b)" d="M-1 11h24V-1H-1z"/><path fill="#008542" mask="url(#b)" d="M-1 23h24V11H-1z"/><path d="M15.757 7.899L14.61 6.45C13.542 7.744 12.702 8.08 11 6.865c-1.702 1.215-2.543.879-3.609-.414L6.242 7.899c.298.375.656.776.656 1.448 0 1.189-.779 4.059.328 5.585C8.374 16.512 10.16 15.604 11 17c.84-1.396 2.625-.488 3.773-2.068 1.107-1.526.328-4.396.328-5.585 0-.672.36-1.073.656-1.448z" stroke="#231F1F" mask="url(#b)"/><path d="M13.573 5.46c-1.108 0-2.082-.64-2.935-1.201-1.55-1.021-2.498-1.53-3.943-.085L5.8 3.278c2.244-2.245 4.07-1.043 5.536-.078 1.417.933 2.44 1.606 3.97.078l.896.896c-.95.949-1.824 1.287-2.628 1.287" fill="#F1F2F2" mask="url(#b)"/></g><g><path d="M38 30c0-2.761-.448-5-1-5s-1 2.239-1 5 .448 5 1 5 1-2.239 1-5" fill="#F1F2F2"/><path d="M54 30c0-2.761-.448-5-1-5s-1 2.239-1 5 .448 5 1 5 1-2.239 1-5" fill="#594529"/><path d="M47 38a2 2 0 1 0-3.999-.001A2 2 0 0 0 47 38M42 36a2 2 0 1 0-3.999-.001A2 2 0 0 0 42 36M52 36a2 2 0 1 0-3.999-.001A2 2 0 0 0 52 36" fill="#FF7900"/><path d="M64.24 47.66a2.951 2.951 0 0 0-1.303-2.068 2.855 2.855 0 0 0-1.106-.436 3.357 3.357 0 0 0-.595-.036 2.58 2.58 0 0 0-.559.096 2.274 2.274 0 0 0-1.514 1.45 2.232 2.232 0 0 0-.102.965c.05.335.172.616.353.85.36.47.9.68 1.354.677a1.35 1.35 0 0 0 1.047-.458c.213-.244.284-.496.311-.66.023-.167.014-.256.014-.256s.001.09-.036.252c-.039.158-.13.395-.349.606-.214.21-.567.384-.978.338a1.487 1.487 0 0 1-1.116-.675 1.442 1.442 0 0 1-.227-.693c-.009-.272.04-.534.148-.786.21-.5.69-.91 1.247-1.018.138-.03.251-.034.44-.034.116.011.285.032.422.066.287.074.558.21.791.393.466.357.766.956.792 1.486a2.617 2.617 0 0 1-.508 1.673c-.348.457-.83.788-1.34.925a2.126 2.126 0 0 1-.37.073c-.06.004-.1.014-.174.016l-.243.002-.363-.038c-.125-.03-.25-.043-.369-.084a3.181 3.181 0 0 1-1.205-.657 3.037 3.037 0 0 1-.99-1.71c-.03-.122-.033-.21-.04-.285a6.095 6.095 0 0 0-.013-.109v-.14c-.003-.167-.003-.256-.003-.256l-1.932.098s.01.09.024.255c.003.054.018.18.042.328a20.8 20.8 0 0 1-21.58 0 3.96 3.96 0 0 0 .041-.328l.024-.255-1.93-.098-.003.256v.14l-.014.11c-.007.074-.01.162-.04.284a3.043 3.043 0 0 1-.99 1.71c-.319.28-.728.518-1.205.657-.118.041-.245.053-.37.084l-.363.038-.242-.002c-.074-.002-.113-.012-.173-.016a2.136 2.136 0 0 1-.372-.073 2.552 2.552 0 0 1-1.34-.925 2.61 2.61 0 0 1-.507-1.673c.026-.53.325-1.129.792-1.486.232-.184.503-.319.79-.393.137-.034.307-.055.423-.066.188 0 .302.003.44.034a1.743 1.743 0 0 1 1.246 1.018c.11.252.158.514.15.786a1.464 1.464 0 0 1-.228.693 1.488 1.488 0 0 1-1.116.675 1.216 1.216 0 0 1-.978-.338 1.26 1.26 0 0 1-.35-.606c-.037-.162-.036-.252-.036-.252s-.009.09.015.256c.027.164.097.416.31.66.205.24.581.47 1.048.458.454.002.995-.208 1.353-.678.181-.233.304-.514.353-.849a2.247 2.247 0 0 0-.1-.965 2.273 2.273 0 0 0-1.516-1.45 2.583 2.583 0 0 0-.558-.096 3.368 3.368 0 0 0-.596.036 2.861 2.861 0 0 0-1.106.436 2.955 2.955 0 0 0-1.302 2.068c-.104.79.084 1.668.52 2.37a3.795 3.795 0 0 0 2.456 1.708c.103.018.224.042.312.051l.241.023c.431.017.767-.008 1.136-.079.1-.019.195-.049.292-.075l-.028.043a25.97 25.97 0 0 0 28.622 0l-.028-.042c.097.025.192.055.291.074.37.071.705.096 1.136.08l.242-.024c.087-.009.208-.033.311-.05a3.793 3.793 0 0 0 2.457-1.709 3.683 3.683 0 0 0 .52-2.37" fill="#FFF066"/><path d="M45 54.71c-4.735 0-9.47-1.362-13.601-4.086l1.419-2.152a22.107 22.107 0 0 0 24.364 0l1.419 2.152A24.679 24.679 0 0 1 45 54.71" fill="#CF1B2B"/></g></g></svg>