<svg width="90" height="65" viewBox="0 0 90 65" xmlns="http://www.w3.org/2000/svg" xmlns:xlink="http://www.w3.org/1999/xlink"><title>Illinois</title><defs><path id="a" d="M.307 7.157h12.99V.29H.307v6.867z"/><path id="c" d="M.505 3.157h4.593V.489H.505v2.668z"/></defs><g fill="none" fill-rule="evenodd"><path d="M80 65H10C4.477 65 0 60.523 0 55V10C0 4.477 4.477 0 10 0h70c5.523 0 10 4.477 10 10v45c0 5.523-4.477 10-10 10" fill="#F1F2F2"/><path d="M29.51 39.75c3.523 5.086 9.398 8.42 16.054 8.42 6.656 0 12.531-3.334 16.054-8.42H29.51z" fill-opacity=".25" fill="#008542"/><g transform="translate(51 28)"><mask id="b" fill="#fff"><use xlink:href="#a"/></mask><path fill="#FFB200" mask="url(#b)" d="M6.802.29l1.902 1.902h2.69v2.69l1.903 1.903-1.902 1.903v2.69H8.704L6.802 13.28 4.9 11.378H2.209v-2.69L.307 6.785l1.902-1.902V2.192h2.69z"/></g><g transform="translate(55 32)"><mask id="d" fill="#fff"><use xlink:href="#c"/></mask><path d="M5.098 2.785a2.296 2.296 0 1 0-4.592 0 2.296 2.296 0 0 0 4.592 0" fill="#FFF066" mask="url(#d)"/></g><g><path d="M29.511 39.75H61.62a19.414 19.414 0 0 0 2.351-4.593H27.16a19.45 19.45 0 0 0 2.351 4.593" fill="#0089EF"/><path d="M48.961 44.816s-.316-.147-.89-.241a10.964 10.964 0 0 0-2.447-.095c-.517.017-1.095.113-1.726.24-.63.117-1.313.276-2.02.352a9.886 9.886 0 0 1-1.064.032c-.357-.006-.703-.091-1.05-.172-.689-.174-1.345-.515-2.017-.787-.652-.344-1.313-.658-1.91-1.087-.612-.39-1.192-.83-1.728-1.273-.515-.482-1-.95-1.42-1.438-.428-.476-.749-1.013-1.069-1.458-.279-.492-.523-.937-.698-1.355a9.599 9.599 0 0 1-.395-1.096c-.163-.63-.217-.991-.217-.991l.656-.393s.31.196.784.54c.22.184.551.354.861.584.305.238.72.434 1.093.696.411.232.82.5 1.3.725.44.266.935.5 1.44.735.515.227 1.01.504 1.568.707l1.654.658c.565.214 1.13.407 1.69.629.547.244 1.06.6 1.558 1.004l1.465 1.232c.49.359.971.667 1.433.88a9.96 9.96 0 0 0 1.29.449c.39.11.744.147 1.033.176.58.052.923-.012.923-.012l-.097.759z" fill="#008542"/><path d="M40.221 40.515c0-8.165 13.78-8.165 13.78 0 0 3.062-13.78 3.062-13.78 0" fill="#939698"/><path d="M36.791 44.704a.832.832 0 0 1-.322-.34 11.179 11.179 0 0 1 .287-10.751c.24-.411.508-.812.8-1.193a.834.834 0 0 1 1.353.047 3.908 3.908 0 0 0 3.457 1.761.826.826 0 0 1 .777.452 3.934 3.934 0 0 0 1.525 1.614c.524.305 1.101.48 1.715.522a.824.824 0 0 1 .651.393.832.832 0 0 1 .058.759c-.187.442-.403.874-.642 1.285a11.178 11.178 0 0 1-9.204 5.563.828.828 0 0 1-.455-.112" fill="#FFF066"/><path d="M36.758 35.536a10.387 10.387 0 0 0 .451 8.45 10.39 10.39 0 0 0 7.57-3.784l-8.02-4.666z" fill="#CF1B2B"/><path d="M44.251 37.012a4.746 4.746 0 0 1-1.847-1.954 4.745 4.745 0 0 1-4.188-2.133 10.396 10.396 0 0 0-1.458 2.611l8.02 4.666a10.28 10.28 0 0 0 1.549-2.558 4.744 4.744 0 0 1-2.076-.632" fill="#00247D"/><path d="M42.925 13.68l.786-2.178L42.027 9c-2.217 1.493-4.805 2.455-7.69 2.86l.001.01-.002-.002.1.703.32 2.276.003-.001.001.008.06.109c-2.877.012-6.015 1.119-7.787 5.168l2.762 1.209s4.058-.721 4.193 1.435c.135 2.157-6.962-.128-6.962-.128-.587 1.449-.227 2.818 1.013 3.855.828.692 1.938 1.165 3.113 1.665 1.544.658 3.731 1.727 4.611 3.008-1.663.305-3.11-.6-3.702-.76-1.665-.451-3.736-1.012-5.59.233l1.524 5.275.157-2.771c.664-.446 1.622-.232 3.121.174.934.253 3.703.588 4.855-.768.69-.78 1.716-2.478 1.716-2.478.512-1.866-3.255-3.727-5.51-4.687a33.078 33.078 0 0 1-1.287-.573c1.71-.144 3.341-.893 3.414-2.045.078-1.247-1.533-2.406-3.94-2.737 1.267-1.792 3.173-2.387 6-1.915l.496-2.975-.504-.616c2.213-.482 4.263-1.271 6.123-2.357l.29 1.505z" fill="#CF1B2B"/><path d="M45.619 37.549l-.02-.001a.318.318 0 0 1-.3-.338c.055-.884.286-1.437.704-1.682l.222-1.441a.32.32 0 0 1 .63.098l-.247 1.609a.32.32 0 0 1-.213.254c-.253.085-.415.512-.458 1.2-.01.17-.151.3-.318.3" fill="#FFB200"/><path d="M47.64 36.91a.319.319 0 0 1-.29-.188c-.016-.031-.322-.685-1.046-.658a.327.327 0 0 1-.16-.036c-.634-.333-1.233-.181-1.403.052a.32.32 0 0 1-.447.068.32.32 0 0 1-.068-.447c.356-.483 1.244-.709 2.14-.276 1.098.009 1.547.993 1.566 1.036a.32.32 0 0 1-.292.449M41.421 35.516a.32.32 0 0 1-.194-.423c.334-.82.73-1.271 1.204-1.37l.671-1.293a.32.32 0 1 1 .567.294l-.75 1.445a.318.318 0 0 1-.283.172c-.267 0-.557.353-.818.993a.32.32 0 0 1-.397.182" fill="#FFB200"/><path d="M43.54 35.557a.321.321 0 0 1-.215-.272c-.003-.034-.085-.751-.78-.957a.309.309 0 0 1-.14-.085c-.494-.518-1.11-.565-1.346-.4a.319.319 0 0 1-.366-.522c.49-.345 1.405-.276 2.116.42 1.037.362 1.147 1.437 1.152 1.484a.319.319 0 0 1-.42.332" fill="#FFB200"/><path d="M44.233 33.662s.612-.99.534-2.09l-2.45-1.612s.21 1.774-.216 2.33c.486.77 1.108 1.35 2.132 1.372M41.601 25.323c.831-2.344.16-4.667-1.208-6.981-.57-.966.15-2.186 1.271-2.152 4.123.124 7.975 4.65 11.768 10.148.811 1.643.458 1.873-1.576.06.383 1.29-.04 1.482-1.735-.058.165 1.03-.443.91-1.583-.002-.036.715-.422.768-1.3-.107-.25.582-.87.81-1.704.837-1.862-.383-3.918-.697-3.933-1.745" fill="#3A2A17"/><path d="M37.095 25.455c1.12 2.372 3.134 4.17 5.934 5.46 1.266.817 1.857 1.8 2.115 2.861.87.868 1.657.96 2.416.81.246-.993-.421-2.16-.421-2.16 1.542 1.263 2.304 2.676 2.304 2.676.684.686.903.686.708.072.658.715 1.04.816 1.009 0 .454.611.687.663.63-.022.478.447.946.87.864-.05.549.792.68.648.51-.175-1.23-3.562-4.302-7.303-7.076-9.114-2.775-1.81-7.504-2.415-7.504-2.415-1.067.222-1.587.89-1.49 2.057" fill="#594529"/><path d="M42.751 25.734c1.512-1.501 1.538-3.168.597-4.942a2.161 2.161 0 0 1 .765-2.845l1.18-.738a7.871 7.871 0 0 1 6.055-.96c3.184.784 6.011 2.02 8.513 3.67 2.64 1.804 1.25 1.818-1.779 1.103 1.255 1.125 1.85 1.936-2.023.632.517.662.468 1.01-1.669.197.581.853.08 1.088-1.91.473.504.726.266 1.015-1.03.68.213.526-.16.643-.693.649.09.559-.186.812-.734.835.158.625.045.966-.403.955.016.504-.247.86-.687 1.123.106.62-.08 1.03-.654 1.157l-.957.805c-2.16-.835-4.968-1.572-4.57-2.794" fill="#594529"/><path d="M39.3 28.158c-.348 0-.635-.135-.846-.253a9.778 9.778 0 0 1-1.57-2.35c-.019-.059-.124-.44-1.07-.777-1.27-.453-1.28-1.439-1.28-1.48l.003-.635.408.486c.301.36.763.538 1.094.623a1.644 1.644 0 0 0-.306-.207c-.232-.135-.522-.303-.659-.662-.192-.508-.255-.546-.964-.578l-.378-.017.186-.329c.39-.69.947-.835 1.347-.835.417 0 .786.156.961.243.143-.05.3-.077.461-.077.326 0 .656.104.982.31.17.105.335.241.51.386.411.338.836.688 1.477.781l.328.048-.157.292a.749.749 0 0 1-.169.211c.486.09 1.106.216 1.787.387l.062.016.604.604-.426.084a1.352 1.352 0 0 1-.286.028c-.135 0-.266-.017-.394-.034-.055-.007-.109-.015-.163-.02.224.124.424.222.628.222a.659.659 0 0 0 .124-.012l.132.443a1.524 1.524 0 0 1-.583.096c-.094 0-.314-.01-.328-.012.256.09.512.166.764.217l1.138.228-1.138.227a1.806 1.806 0 0 1-.365.035c-.225 0-.45-.035-.675-.07-.066-.012-.133-.022-.198-.032.208.307.505.55.853.688l.77.308-.818.137c-.083.014-.163.02-.24.02-.34 0-.627-.12-.88-.236l.07.16c.104.232.203.453.346.645l.35.464-.574-.096c-.294-.049-.594-.099-.882-.208.04.045.082.09.127.135l.397.396h-.56z" fill="#F1F2F2"/><path d="M35.265 20.912c-.46 0-1.104.165-1.549.952l-.37.658.753.035c.08.003.147.006.206.01l-.003.728c0 .05.01 1.194 1.434 1.701.787.281.91.571.91.574l.01.07.02.013a10.3 10.3 0 0 0 1.541 2.353l.053.062.071.04c.235.131.557.282.958.282h1.122l-.343-.343.102.017 1.144.191-.696-.927a1.855 1.855 0 0 1-.155-.253 1.737 1.737 0 0 0 .711.032l1.638-.273-1.542-.617a1.583 1.583 0 0 1-.283-.147 2.085 2.085 0 0 0 .628-.03l2.277-.455-2.123-.425-.144-.487a1.13 1.13 0 0 0 .096-.016l.851-.17-.614-.614-.25-.25-.092-.092-.125-.03a29.378 29.378 0 0 0-1.437-.323l.282-.525-.656-.096c-.577-.084-.976-.413-1.363-.73-.179-.148-.348-.287-.534-.404-.363-.229-.735-.345-1.106-.345-.152 0-.302.02-.443.06a2.425 2.425 0 0 0-.979-.226zm0 .464c.511 0 .948.268.948.268.125-.06.286-.102.474-.102.247 0 .54.073.86.274.56.353 1.087 1.057 2.076 1.201-.187.348-.735.383-.95.383-.055 0-.089-.002-.089-.002s1.231.157 2.804.552l.252.252a1.256 1.256 0 0 1-.24.022c-.248 0-.477-.062-.714-.062-.17 0-.347.033-.536.146.475.19.865.55 1.321.55a.905.905 0 0 0 .17-.018 1.326 1.326 0 0 1-.498.08c-.18 0-.367-.019-.55-.019-.227 0-.449.028-.655.152.532.213 1.064.425 1.596.532a1.65 1.65 0 0 1-.32.03c-.425 0-.85-.137-1.276-.137.212.532.638.958 1.17 1.171-.07.011-.137.017-.203.017-.53 0-.919-.348-1.393-.443.32.426.426.958.745 1.383-.639-.106-1.17-.213-1.596-.745.106.426.32.745.638 1.064-.27 0-.504-.096-.732-.223a9.768 9.768 0 0 1-1.472-2.247s-.072-.493-1.203-.896c-1.13-.403-1.126-1.26-1.126-1.26.583.695 1.656.78 1.656.78-.075-.747-.894-.637-1.13-1.258-.236-.622-.408-.693-1.172-.728.316-.559.752-.717 1.145-.717z" fill="#594529"/><path fill-opacity=".25" fill="#00247D" d="M31 55h28v-5H31z"/></g></g></svg>