<?xml version="1.0" encoding="UTF-8" standalone="no"?>
<svg width="90px" height="65px" viewBox="0 0 90 65" version="1.1" xmlns="http://www.w3.org/2000/svg" xmlns:xlink="http://www.w3.org/1999/xlink">
    <!-- Generator: Sketch 3.7.2 (28276) - http://www.bohemiancoding.com/sketch -->
    <title>Illinois</title>
    <desc>Created with Sketch.</desc>
    <defs>
        <polygon id="path-1" points="0.3068 7.157 13.2968 7.157 13.2968 0.2899 0.3068 0.2899 0.3068 7.157"></polygon>
        <polygon id="path-3" points="0.5052 3.157 5.0982 3.157 5.0982 0.4893 0.5052 0.4893 0.5052 3.157"></polygon>
    </defs>
    <g id="Page-1" stroke="none" stroke-width="1" fill="none" fill-rule="evenodd">
        <g id="Illinois">
            <g id="Page-1">
                <g id="Group-5">
                    <path d="M80,65 L10,65 C4.477,65 0,60.523 0,55 L0,10 C0,4.477 4.477,0 10,0 L80,0 C85.523,0 90,4.477 90,10 L90,55 C90,60.523 85.523,65 80,65" id="Fill-1" fill="#F1F2F2"></path>
                    <path d="M29.5100002,39.7497 C33.0330002,44.8357 38.9080002,48.1697 45.5640002,48.1697 C52.2200002,48.1697 58.0950002,44.8357 61.6180002,39.7497 L29.5100002,39.7497 Z" id="Fill-3" fill-opacity="0.25" fill="#008542"></path>
                </g>
                <g id="Group-12" transform="translate(51.000000, 28.000000)">
                    <g id="Group-8">
                        <mask id="mask-2" fill="white">
                            <use xlink:href="#path-1"></use>
                        </mask>
                        <g id="Clip-7"></g>
                        <polygon id="Fill-6" fill="#FFB200" mask="url(#mask-2)" points="6.8018 0.2899 8.7038 2.1919 11.3948 2.1919 11.3948 4.8829 13.2968 6.7849 11.3948 8.6879 11.3948 11.3779 8.7038 11.3779 6.8018 13.2809 4.8998 11.3779 2.2088 11.3779 2.2088 8.6879 0.3068 6.7849 2.2088 4.8829 2.2088 2.1919 4.8998 2.1919"></polygon>
                    </g>
                    <g id="Group-11" transform="translate(4.000000, 4.000000)">
                        <mask id="mask-4" fill="white">
                            <use xlink:href="#path-3"></use>
                        </mask>
                        <g id="Clip-10"></g>
                        <path d="M5.0982,2.7853 C5.0982,1.5173 4.0702,0.4893 2.8022,0.4893 C1.5332,0.4893 0.5052,1.5173 0.5052,2.7853 C0.5052,4.0533 1.5332,5.0813 2.8022,5.0813 C4.0702,5.0813 5.0982,4.0533 5.0982,2.7853" id="Fill-9" fill="#FFF066" mask="url(#mask-4)"></path>
                    </g>
                </g>
                <g id="Group-49" transform="translate(26.000000, 9.000000)">
                    <path d="M3.5111,30.7497 L35.6191,30.7497 C36.5951,29.3417 37.3891,27.8007 37.9701,26.1567 L1.1601,26.1567 C1.7411,27.8007 2.5361,29.3417 3.5111,30.7497" id="Fill-13" fill="#0089EF"></path>
                    <path d="M22.9613,35.8158 C22.9613,35.8158 22.6453,35.6688 22.0703,35.5748 C21.4953,35.4858 20.6683,35.4078 19.6243,35.4798 C19.1073,35.4968 18.5293,35.5928 17.8983,35.7208 C17.2683,35.8368 16.5853,35.9958 15.8773,36.0718 C15.5283,36.0958 15.1693,36.1178 14.8143,36.1038 C14.4573,36.0978 14.1113,36.0128 13.7643,35.9318 C13.0753,35.7578 12.4193,35.4168 11.7473,35.1448 C11.0953,34.8008 10.4343,34.4868 9.8363,34.0578 C9.2253,33.6678 8.6453,33.2278 8.1093,32.7848 C7.5943,32.3028 7.1093,31.8348 6.6883,31.3468 C6.2613,30.8708 5.9403,30.3338 5.6203,29.8888 C5.3413,29.3968 5.0973,28.9518 4.9223,28.5338 C4.7493,28.1148 4.6123,27.7508 4.5273,27.4378 C4.3643,26.8078 4.3103,26.4468 4.3103,26.4468 L4.9663,26.0538 C4.9663,26.0538 5.2763,26.2498 5.7503,26.5938 C5.9703,26.7778 6.3013,26.9478 6.6113,27.1778 C6.9163,27.4158 7.3303,27.6118 7.7043,27.8738 C8.1153,28.1058 8.5243,28.3748 9.0033,28.5988 C9.4433,28.8648 9.9393,29.0988 10.4443,29.3338 C10.9593,29.5608 11.4543,29.8378 12.0123,30.0408 C12.5573,30.2578 13.1113,30.4788 13.6663,30.6988 C14.2313,30.9128 14.7963,31.1058 15.3563,31.3278 C15.9033,31.5718 16.4163,31.9288 16.9143,32.3318 C17.4223,32.7598 17.9133,33.1728 18.3793,33.5638 C18.8693,33.9228 19.3503,34.2308 19.8123,34.4438 C20.2753,34.6378 20.7103,34.7898 21.1013,34.8928 C21.4913,35.0028 21.8463,35.0398 22.1353,35.0688 C22.7153,35.1208 23.0583,35.0568 23.0583,35.0568 L22.9613,35.8158 Z" id="Fill-15" fill="#008542"></path>
                    <path d="M14.2212,31.5152 C14.2212,23.3502 28.0002,23.3502 28.0002,31.5152 C28.0002,34.5772 14.2212,34.5772 14.2212,31.5152" id="Fill-17" fill="#939698"></path>
                    <path d="M10.7914,35.704 C10.6564,35.625 10.5434,35.509 10.4694,35.364 C8.7224,31.944 8.8294,27.925 10.7564,24.613 C10.9954,24.202 11.2644,23.801 11.5564,23.42 C11.7204,23.207 11.9764,23.086 12.2454,23.095 C12.3844,23.1 12.5174,23.14 12.6344,23.207 C12.7434,23.271 12.8374,23.359 12.9094,23.467 C13.2484,23.98 13.6864,24.395 14.2094,24.7 C14.8624,25.079 15.6084,25.262 16.3664,25.228 C16.5294,25.22 16.6864,25.261 16.8214,25.34 C16.9564,25.418 17.0694,25.535 17.1434,25.68 C17.4894,26.356 18.0164,26.915 18.6684,27.294 C19.1924,27.599 19.7694,27.774 20.3834,27.816 C20.5124,27.824 20.6354,27.863 20.7444,27.927 C20.8614,27.994 20.9614,28.091 21.0344,28.209 C21.1754,28.438 21.1964,28.721 21.0924,28.968 C20.9054,29.41 20.6894,29.842 20.4504,30.253 C18.5234,33.565 15.0824,35.645 11.2464,35.816 C11.0834,35.823 10.9264,35.783 10.7914,35.704" id="Fill-19" fill="#FFF066"></path>
                    <path d="M10.7583,26.5361 C9.6793,29.3411 9.8953,32.4141 11.2093,34.9861 C14.0943,34.8571 16.8723,33.5261 18.7783,31.2021 L10.7583,26.5361 Z" id="Fill-21" fill="#CF1B2B"></path>
                    <path d="M18.251,28.0121 C17.429,27.5341 16.806,26.8461 16.404,26.0581 C15.519,26.0971 14.614,25.8961 13.792,25.4181 C13.135,25.0361 12.609,24.5191 12.216,23.9251 C11.949,24.2731 11.701,24.6421 11.475,25.0311 C11.19,25.5201 10.955,26.0241 10.758,26.5361 L18.778,31.2021 C19.126,30.7781 19.448,30.3251 19.732,29.8351 C19.959,29.4461 20.156,29.0481 20.327,28.6441 C19.617,28.5961 18.907,28.3941 18.251,28.0121" id="Fill-23" fill="#00247D"></path>
                    <path d="M16.9254,4.6797 L17.7114,2.5017 L16.0274,-0.0003 C13.8104,1.4927 11.2224,2.4547 8.3364,2.8597 L8.3384,2.8697 L8.3364,2.8677 L8.4364,3.5707 L8.7554,5.8467 C8.7564,5.8457 8.7584,5.8457 8.7594,5.8457 L8.7604,5.8537 L8.8194,5.9627 C5.9434,5.9747 2.8054,7.0817 1.0334,11.1307 L3.7954,12.3397 C3.7954,12.3397 7.8534,11.6187 7.9884,13.7747 C8.1234,15.9317 1.0264,13.6467 1.0264,13.6467 C0.4394,15.0957 0.7994,16.4647 2.0394,17.5017 C2.8674,18.1937 3.9774,18.6667 5.1524,19.1667 C6.6964,19.8247 8.8834,20.8937 9.7634,22.1747 C8.1004,22.4797 6.6524,21.5747 6.0614,21.4147 C4.3964,20.9637 2.3254,20.4027 0.4714,21.6477 L1.9954,26.9227 L2.1524,24.1517 C2.8164,23.7057 3.7744,23.9197 5.2734,24.3257 C6.2074,24.5787 8.9764,24.9137 10.1284,23.5577 C10.8184,22.7777 11.8444,21.0797 11.8444,21.0797 C12.3564,19.2137 8.5894,17.3527 6.3344,16.3927 C5.9804,16.2417 5.4984,16.0357 5.0474,15.8197 C6.7574,15.6757 8.3884,14.9267 8.4614,13.7747 C8.5394,12.5277 6.9284,11.3687 4.5204,11.0377 C5.7884,9.2457 7.6944,8.6507 10.5214,9.1227 L11.0174,6.1477 L10.5134,5.5317 C12.7264,5.0497 14.7764,4.2607 16.6364,3.1747 L16.9254,4.6797 Z" id="Fill-25" fill="#CF1B2B"></path>
                    <path d="M19.6187,28.5486 C19.6117,28.5486 19.6057,28.5486 19.5987,28.5476 C19.4227,28.5376 19.2887,28.3856 19.2997,28.2096 C19.3537,27.3256 19.5847,26.7726 20.0027,26.5276 L20.2247,25.0866 C20.2517,24.9126 20.4157,24.7926 20.5887,24.8196 C20.7637,24.8466 20.8827,25.0096 20.8557,25.1846 L20.6077,26.7936 C20.5897,26.9116 20.5067,27.0096 20.3947,27.0476 C20.1417,27.1326 19.9797,27.5596 19.9367,28.2486 C19.9267,28.4186 19.7857,28.5486 19.6187,28.5486" id="Fill-27" fill="#FFB200"></path>
                    <path d="M21.6401,27.91 C21.5181,27.91 21.4021,27.84 21.3491,27.722 C21.3341,27.691 21.0281,27.037 20.3041,27.064 C20.2481,27.066 20.1931,27.053 20.1441,27.028 C19.5101,26.695 18.9111,26.847 18.7411,27.08 C18.6361,27.222 18.4361,27.252 18.2941,27.148 C18.1521,27.043 18.1221,26.843 18.2261,26.701 C18.5821,26.218 19.4701,25.992 20.3661,26.425 C21.4641,26.434 21.9131,27.418 21.9321,27.461 C22.0031,27.623 21.9301,27.811 21.7691,27.883 C21.7271,27.901 21.6831,27.91 21.6401,27.91" id="Fill-29" fill="#FFB200"></path>
                    <path d="M15.4214,26.5157 C15.4154,26.5137 15.4094,26.5117 15.4024,26.5087 C15.2394,26.4427 15.1614,26.2557 15.2274,26.0927 C15.5614,25.2727 15.9574,24.8217 16.4314,24.7237 L17.1024,23.4297 C17.1834,23.2727 17.3774,23.2117 17.5324,23.2927 C17.6894,23.3747 17.7504,23.5667 17.6694,23.7237 L16.9194,25.1687 C16.8644,25.2747 16.7554,25.3407 16.6364,25.3407 C16.3694,25.3407 16.0794,25.6937 15.8184,26.3337 C15.7544,26.4907 15.5804,26.5687 15.4214,26.5157" id="Fill-31" fill="#FFB200"></path>
                    <path d="M17.5408,26.5569 C17.4258,26.5179 17.3378,26.4139 17.3248,26.2849 C17.3218,26.2509 17.2398,25.5339 16.5448,25.3279 C16.4918,25.3129 16.4438,25.2829 16.4058,25.2429 C15.9108,24.7249 15.2948,24.6779 15.0588,24.8429 C14.9148,24.9439 14.7158,24.9089 14.6148,24.7649 C14.5128,24.6209 14.5478,24.4219 14.6928,24.3209 C15.1838,23.9759 16.0978,24.0449 16.8088,24.7419 C17.8458,25.1029 17.9558,26.1779 17.9608,26.2249 C17.9768,26.4009 17.8478,26.5559 17.6718,26.5719 C17.6258,26.5759 17.5818,26.5709 17.5408,26.5569" id="Fill-33" fill="#FFB200"></path>
                    <path d="M18.2332,24.6616 C18.2332,24.6616 18.8452,23.6716 18.7672,22.5716 L16.3172,20.9596 C16.3172,20.9596 16.5262,22.7336 16.1012,23.2906 C16.5872,24.0596 17.2092,24.6396 18.2332,24.6616" id="Fill-35" fill="#3A2A17"></path>
                    <path d="M15.6014,16.3228 C16.4324,13.9788 15.7604,11.6558 14.3934,9.3418 C13.8224,8.3758 14.5424,7.1558 15.6644,7.1898 C19.7874,7.3138 23.6394,11.8398 27.4324,17.3378 C28.2434,18.9808 27.8904,19.2108 25.8564,17.3988 C26.2394,18.6878 25.8164,18.8798 24.1214,17.3398 C24.2864,18.3708 23.6784,18.2498 22.5384,17.3378 C22.5024,18.0528 22.1164,18.1058 21.2384,17.2308 C20.9874,17.8128 20.3674,18.0418 19.5344,18.0678 C17.6724,17.6848 15.6164,17.3708 15.6014,16.3228" id="Fill-37" fill="#3A2A17"></path>
                    <path d="M11.0948,16.4554 C12.2148,18.8274 14.2288,20.6254 17.0288,21.9144 C18.2948,22.7324 18.8858,23.7144 19.1438,24.7764 C20.0148,25.6444 20.8008,25.7354 21.5598,25.5854 C21.8058,24.5934 21.1388,23.4254 21.1388,23.4254 C22.6808,24.6894 23.4428,26.1024 23.4428,26.1024 C24.1268,26.7884 24.3458,26.7884 24.1508,26.1744 C24.8088,26.8894 25.1908,26.9904 25.1598,26.1744 C25.6138,26.7854 25.8468,26.8374 25.7898,26.1524 C26.2678,26.5994 26.7358,27.0214 26.6538,26.1024 C27.2028,26.8944 27.3348,26.7504 27.1648,25.9274 C25.9348,22.3654 22.8618,18.6244 20.0878,16.8134 C17.3128,15.0034 12.5838,14.3984 12.5838,14.3984 C11.5168,14.6204 10.9968,15.2874 11.0948,16.4554" id="Fill-39" fill="#594529"></path>
                    <path d="M16.7512,16.7339 C18.2632,15.2329 18.2892,13.5659 17.3482,11.7919 C16.8172,10.7899 17.1512,9.5479 18.1132,8.9469 L19.2932,8.2089 C21.0972,7.0809 23.2812,6.7419 25.3482,7.2499 C28.5322,8.0329 31.3592,9.2699 33.8612,10.9199 C36.5012,12.7229 35.1112,12.7369 32.0822,12.0219 C33.3372,13.1469 33.9312,13.9579 30.0592,12.6539 C30.5762,13.3159 30.5272,13.6639 28.3902,12.8509 C28.9712,13.7039 28.4702,13.9389 26.4802,13.3239 C26.9842,14.0499 26.7462,14.3389 25.4492,14.0039 C25.6632,14.5299 25.2892,14.6469 24.7572,14.6529 C24.8462,15.2119 24.5712,15.4649 24.0232,15.4879 C24.1812,16.1129 24.0682,16.4539 23.6202,16.4429 C23.6362,16.9469 23.3732,17.3029 22.9332,17.5659 C23.0392,18.1869 22.8532,18.5959 22.2792,18.7229 L21.3222,19.5279 C19.1612,18.6929 16.3542,17.9559 16.7512,16.7339" id="Fill-41" fill="#594529"></path>
                    <path d="M13.2993,19.1582 C12.9523,19.1582 12.6653,19.0232 12.4543,18.9052 C11.7793,18.1482 11.2723,17.3742 10.8843,16.5542 C10.8653,16.4962 10.7603,16.1152 9.8143,15.7782 C8.5443,15.3252 8.5343,14.3392 8.5343,14.2972 L8.5373,13.6632 L8.9453,14.1492 C9.2463,14.5092 9.7083,14.6872 10.0393,14.7722 C9.9643,14.7012 9.8633,14.6402 9.7333,14.5652 C9.5013,14.4302 9.2113,14.2622 9.0743,13.9032 C8.8823,13.3952 8.8193,13.3572 8.1103,13.3252 L7.7323,13.3082 L7.9183,12.9792 C8.3083,12.2892 8.8653,12.1442 9.2653,12.1442 C9.6823,12.1442 10.0513,12.3002 10.2263,12.3872 C10.3693,12.3372 10.5263,12.3102 10.6873,12.3102 C11.0133,12.3102 11.3433,12.4142 11.6693,12.6192 C11.8383,12.7252 12.0043,12.8612 12.1793,13.0062 C12.5903,13.3442 13.0153,13.6942 13.6563,13.7872 L13.9843,13.8352 L13.8273,14.1272 C13.7823,14.2102 13.7253,14.2802 13.6583,14.3382 C14.1443,14.4272 14.7643,14.5542 15.4453,14.7252 L15.5073,14.7412 L16.1113,15.3452 L15.6853,15.4292 C15.5873,15.4502 15.4923,15.4572 15.3993,15.4572 C15.2643,15.4572 15.1333,15.4402 15.0053,15.4232 C14.9503,15.4162 14.8963,15.4082 14.8423,15.4032 C15.0663,15.5272 15.2663,15.6252 15.4703,15.6252 C15.5113,15.6252 15.5523,15.6212 15.5943,15.6132 L15.7263,16.0562 C15.5603,16.1222 15.3803,16.1522 15.1433,16.1522 C15.0493,16.1522 14.8293,16.1412 14.8153,16.1402 C15.0713,16.2302 15.3273,16.3062 15.5793,16.3572 L16.7173,16.5852 L15.5793,16.8122 C15.4573,16.8372 15.3363,16.8472 15.2143,16.8472 C14.9893,16.8472 14.7643,16.8122 14.5393,16.7762 C14.4733,16.7652 14.4063,16.7552 14.3413,16.7452 C14.5493,17.0522 14.8463,17.2942 15.1943,17.4332 L15.9643,17.7412 L15.1463,17.8782 C15.0633,17.8922 14.9833,17.8982 14.9053,17.8982 C14.5663,17.8982 14.2793,17.7772 14.0253,17.6622 C14.0493,17.7152 14.0733,17.7682 14.0963,17.8212 C14.2003,18.0542 14.2993,18.2752 14.4423,18.4672 L14.7913,18.9312 L14.2183,18.8352 C13.9243,18.7862 13.6243,18.7362 13.3363,18.6272 C13.3763,18.6722 13.4183,18.7162 13.4633,18.7622 L13.8603,19.1582 L13.2993,19.1582 Z" id="Fill-43" fill="#F1F2F2"></path>
                    <path d="M9.2651,11.9124 L9.2651,11.9124 C8.8041,11.9124 8.1611,12.0774 7.7161,12.8644 L7.3451,13.5224 L8.0991,13.5574 C8.1781,13.5604 8.2461,13.5634 8.3051,13.5674 L8.3021,14.2954 C8.3021,14.3444 8.3121,15.4894 9.7361,15.9964 C10.5231,16.2774 10.6451,16.5674 10.6461,16.5704 L10.6561,16.6394 L10.6751,16.6534 C11.0711,17.4924 11.5901,18.2844 12.2171,19.0064 L12.2701,19.0684 L12.3411,19.1074 C12.5761,19.2394 12.8981,19.3904 13.2991,19.3904 L14.4211,19.3904 L14.0781,19.0474 C14.1121,19.0534 14.1471,19.0594 14.1801,19.0644 L15.3241,19.2554 L14.6281,18.3284 C14.5711,18.2514 14.5201,18.1664 14.4731,18.0754 C14.6061,18.1094 14.7501,18.1304 14.9051,18.1304 C14.9951,18.1304 15.0881,18.1234 15.1841,18.1074 L16.8221,17.8344 L15.2801,17.2174 C15.1811,17.1784 15.0861,17.1284 14.9971,17.0704 C15.0681,17.0764 15.1411,17.0794 15.2141,17.0794 C15.3601,17.0794 15.4941,17.0664 15.6251,17.0404 L17.9021,16.5854 L15.7791,16.1604 L15.6351,15.6734 C15.6661,15.6694 15.6991,15.6644 15.7311,15.6574 L16.5821,15.4874 L15.9681,14.8734 L15.7171,14.6224 L15.6261,14.5314 L15.5011,14.5004 C14.9721,14.3674 14.4821,14.2614 14.0641,14.1784 L14.3461,13.6534 L13.6901,13.5574 C13.1131,13.4734 12.7141,13.1444 12.3271,12.8264 C12.1481,12.6794 11.9791,12.5404 11.7931,12.4234 C11.4301,12.1944 11.0581,12.0784 10.6871,12.0784 C10.5351,12.0784 10.3851,12.0984 10.2441,12.1384 C10.0281,12.0404 9.6711,11.9124 9.2651,11.9124 L9.2651,11.9124 Z M9.2651,12.3764 C9.7761,12.3764 10.2131,12.6444 10.2131,12.6444 C10.3381,12.5844 10.4991,12.5424 10.6871,12.5424 C10.9341,12.5424 11.2271,12.6154 11.5461,12.8164 C12.1061,13.1694 12.6341,13.8734 13.6231,14.0174 C13.4361,14.3654 12.8881,14.4004 12.6731,14.4004 C12.6181,14.4004 12.5841,14.3984 12.5841,14.3984 C12.5841,14.3984 13.8151,14.5554 15.3881,14.9504 L15.6401,15.2024 C15.5571,15.2184 15.4781,15.2244 15.3991,15.2244 C15.1521,15.2244 14.9231,15.1624 14.6861,15.1624 C14.5151,15.1624 14.3391,15.1954 14.1501,15.3084 C14.6251,15.4984 15.0151,15.8574 15.4711,15.8574 C15.5261,15.8574 15.5821,15.8514 15.6401,15.8404 C15.4821,15.9034 15.3141,15.9194 15.1431,15.9194 C14.9621,15.9194 14.7761,15.9014 14.5921,15.9014 C14.3661,15.9014 14.1441,15.9294 13.9381,16.0534 C14.4701,16.2664 15.0021,16.4784 15.5341,16.5854 C15.4271,16.6064 15.3211,16.6154 15.2141,16.6154 C14.7891,16.6154 14.3631,16.4784 13.9381,16.4784 C14.1501,17.0104 14.5761,17.4364 15.1081,17.6494 C15.0381,17.6604 14.9711,17.6664 14.9051,17.6664 C14.3751,17.6664 13.9861,17.3184 13.5121,17.2234 C13.8311,17.6494 13.9381,18.1814 14.2571,18.6064 C13.6181,18.5004 13.0861,18.3934 12.6611,17.8614 C12.7671,18.2874 12.9801,18.6064 13.2991,18.9254 C13.0281,18.9254 12.7951,18.8294 12.5671,18.7024 C11.9741,18.0194 11.4801,17.2724 11.0951,16.4554 C11.0951,16.4554 11.0231,15.9624 9.8921,15.5594 C8.7621,15.1564 8.7661,14.2984 8.7661,14.2984 C9.3491,14.9944 10.4221,15.0794 10.4221,15.0794 C10.3471,14.3324 9.5281,14.4424 9.2921,13.8214 C9.0561,13.1994 8.8841,13.1284 8.1201,13.0934 C8.4361,12.5344 8.8721,12.3764 9.2651,12.3764 L9.2651,12.3764 Z" id="Fill-45" fill="#594529"></path>
                    <polygon id="Fill-47" fill-opacity="0.25" fill="#00247D" points="5 46 33 46 33 41 5 41"></polygon>
                </g>
            </g>
        </g>
    </g>
</svg>