<?xml version="1.0" encoding="UTF-8" standalone="no"?>
<svg width="90px" height="65px" viewBox="0 0 90 65" version="1.1" xmlns="http://www.w3.org/2000/svg" xmlns:xlink="http://www.w3.org/1999/xlink">
    <!-- Generator: Sketch 3.7.2 (28276) - http://www.bohemiancoding.com/sketch -->
    <title>Indiana</title>
    <desc>Created with Sketch.</desc>
    <defs></defs>
    <g id="Page-1" stroke="none" stroke-width="1" fill="none" fill-rule="evenodd">
        <g id="Indiana">
            <g id="Page-1">
                <path d="M80,65 L10,65 C4.477,65 0,60.523 0,55 L0,10 C0,4.477 4.477,0 10,0 L80,0 C85.523,0 90,4.477 90,10 L90,55 C90,60.523 85.523,65 80,65" id="Fill-1" fill="#00247D"></path>
                <polygon id="Fill-3" fill="#FFB200" points="45 3 45.898 5.764 48.804 5.764 46.453 7.472 47.351 10.236 45 8.528 42.649 10.236 43.547 7.472 41.196 5.764 44.102 5.764"></polygon>
                <polygon id="Fill-5" fill="#FFB200" points="52.5916 40.0916 55.1806 41.4106 57.2356 39.3556 56.7816 42.2266 59.3706 43.5456 56.5006 44.0006 56.0456 46.8706 54.7266 44.2816 51.8556 44.7356 53.9106 42.6806"></polygon>
                <polygon id="Fill-7" fill="#FFB200" points="55.7361 32.5 58.5001 31.602 58.5001 28.696 60.2081 31.047 62.9721 30.149 61.2641 32.5 62.9721 34.851 60.2081 33.953 58.5001 36.304 58.5001 33.398"></polygon>
                <polygon id="Fill-9" fill="#FFB200" points="34.2639 32.5 31.4999 33.398 31.4999 36.304 29.7919 33.953 27.0279 34.851 28.7359 32.5 27.0279 30.149 29.7919 31.047 31.4999 28.696 31.4999 31.602"></polygon>
                <polygon id="Fill-11" fill="#FFB200" points="37.4085 40.0916 36.0895 42.6806 38.1445 44.7356 35.2735 44.2816 33.9545 46.8706 33.4995 44.0006 30.6295 43.5456 33.2185 42.2266 32.7645 39.3556 34.8195 41.4106"></polygon>
                <polygon id="Fill-13" fill="#FFB200" points="45 12 46.146 15.528 49.856 15.528 46.855 17.708 48.001 21.236 45 19.056 41.999 21.236 43.145 17.708 40.144 15.528 43.854 15.528"></polygon>
                <polygon id="Fill-15" fill="#FFB200" points="31.2907 6.379 33.3707 8.409 35.9437 7.058 34.6557 9.664 36.7357 11.694 33.8597 11.274 32.5717 13.879 32.0827 11.014 29.2067 10.594 31.7797 9.244"></polygon>
                <polygon id="Fill-17" fill="#FFB200" points="20.722 15.7421 23.507 16.5731 25.158 14.1811 25.228 17.0871 28.013 17.9181 25.271 18.8821 25.342 21.7881 23.577 19.4781 20.836 20.4431 22.487 18.0511"></polygon>
                <polygon id="Fill-19" fill="#FFB200" points="15.7151 28.9442 18.5671 28.3862 18.9171 25.5012 20.3301 28.0412 23.1821 27.4822 21.2031 29.6102 22.6151 32.1502 19.9791 30.9262 18.0001 33.0542 18.3511 30.1692"></polygon>
                <polygon id="Fill-21" fill="#FFB200" points="17.417 42.9608 19.683 41.1408 18.652 38.4238 21.083 40.0158 23.349 38.1968 22.586 41.0008 25.017 42.5928 22.114 42.7338 21.35 45.5378 20.32 42.8208"></polygon>
                <polygon id="Fill-23" fill="#FFB200" points="25.4379 54.5811 26.5989 51.9171 24.4229 49.9891 27.3159 50.2701 28.4769 47.6061 29.1039 50.4431 31.9959 50.7241 29.4909 52.1971 30.1179 55.0351 27.9429 53.1081"></polygon>
                <polygon id="Fill-25" fill="#FFB200" points="37.9402 61.1428 37.7292 58.2438 34.9082 57.5488 37.5992 56.4528 37.3892 53.5548 39.2632 55.7758 41.9552 54.6798 40.4212 57.1488 42.2952 59.3698 39.4732 58.6738"></polygon>
                <polygon id="Fill-27" fill="#FFB200" points="52.0598 61.1428 50.5268 58.6738 47.7048 59.3698 49.5788 57.1488 48.0448 54.6798 50.7368 55.7758 52.6108 53.5548 52.4008 56.4528 55.0918 57.5488 52.2708 58.2438"></polygon>
                <polygon id="Fill-29" fill="#FFB200" points="64.5621 54.5811 62.0571 53.1081 59.8821 55.0351 60.5091 52.1971 58.0041 50.7241 60.8961 50.4431 61.5231 47.6061 62.6841 50.2701 65.5771 49.9891 63.4011 51.9171"></polygon>
                <polygon id="Fill-31" fill="#FFB200" points="72.583 42.9608 69.68 42.8208 68.65 45.5378 67.886 42.7338 64.983 42.5928 67.414 41.0008 66.651 38.1968 68.917 40.0158 71.348 38.4238 70.317 41.1408"></polygon>
                <polygon id="Fill-33" fill="#FFB200" points="74.2849 28.9442 71.6489 30.1692 71.9999 33.0542 70.0209 30.9262 67.3849 32.1502 68.7969 29.6102 66.8179 27.4822 69.6699 28.0412 71.0829 25.5012 71.4329 28.3862"></polygon>
                <polygon id="Fill-35" fill="#FFB200" points="69.278 15.7421 67.513 18.0511 69.164 20.4431 66.423 19.4781 64.658 21.7881 64.729 18.8821 61.987 17.9181 64.772 17.0871 64.842 14.1811 66.493 16.5731"></polygon>
                <polygon id="Fill-37" fill="#FFB200" points="58.7093 6.379 58.2203 9.244 60.7933 10.594 57.9173 11.014 57.4283 13.879 56.1403 11.274 53.2643 11.694 55.3443 9.664 54.0563 7.058 56.6293 8.409"></polygon>
                <path d="M50,31 C50,31 49.628,31.437 49.132,32.203 C48.909,32.586 48.614,33.051 48.346,33.584 C48.083,34.117 47.795,34.719 47.551,35.375 C47.029,36.687 46.637,38.219 46.371,39.859 C46.09,41.5 45.912,43.25 45.848,45 C45.794,46.75 45.806,48.5 45.8,50.141 C45.783,50.961 45.767,51.754 45.752,52.506 C45.71,53.258 45.67,53.969 45.633,54.625 C45.456,57.25 45,59 45,59 C45,59 44.544,57.25 44.367,54.625 C44.33,53.969 44.29,53.258 44.248,52.506 C44.233,51.754 44.217,50.961 44.2,50.141 C44.194,48.5 44.206,46.75 44.152,45 C44.088,43.25 43.91,41.5 43.629,39.859 C43.363,38.219 42.971,36.687 42.449,35.375 C42.205,34.719 41.917,34.117 41.654,33.584 C41.386,33.051 41.091,32.586 40.868,32.203 C40.372,31.437 40,31 40,31 L50,31 Z" id="Fill-39" fill="#FFB200"></path>
                <path d="M45,41 C44.567,41 44.183,41.279 44.049,41.691 L43.375,43.764 L41.196,43.764 C40.763,43.764 40.379,44.043 40.245,44.455 C40.111,44.867 40.258,45.318 40.608,45.573 L42.371,46.854 L41.698,48.927 C41.564,49.339 41.711,49.79 42.061,50.045 C42.236,50.172 42.443,50.236 42.649,50.236 C42.855,50.236 43.061,50.172 43.237,50.045 L45,48.764 L46.763,50.045 C46.939,50.172 47.145,50.236 47.351,50.236 C47.557,50.236 47.764,50.172 47.939,50.045 C48.289,49.79 48.436,49.339 48.302,48.927 L47.629,46.854 L49.365,45.592 C49.631,45.413 49.807,45.109 49.807,44.764 C49.807,44.212 49.362,43.764 48.809,43.764 L48.804,43.764 L46.625,43.764 L45.951,41.691 C45.817,41.279 45.433,41 45,41 M48.804,44.764 L48.809,44.764 M45,42 L45.898,44.764 L48.804,44.764 L46.453,46.472 L47.351,49.236 L45,47.528 L42.649,49.236 L43.547,46.472 L41.196,44.764 L44.102,44.764 L45,42" id="Fill-41" fill="#00247D"></path>
                <polygon id="Fill-43" fill="#FFB200" points="45 42 45.898 44.764 48.804 44.764 46.453 46.472 47.351 49.236 45 47.528 42.649 49.236 43.547 46.472 41.196 44.764 44.102 44.764"></polygon>
                <path d="M48.2571,30 C50.3901,28 50.1901,26.333 49.8571,24.4 L48.2571,25.2 L48.2571,22.8 L45.8571,24.4 L45.0571,22 L43.4571,25.2 L41.0571,22.8 C41.0571,22.8 39.3901,28.267 41.8571,30 L48.2571,30 Z" id="Fill-45" fill="#FFB200"></path>
                <path d="M57.4092,10.2866 L56.5912,9.7136 L49.5912,19.7136 L50.4092,20.2866 L57.4092,10.2866 Z M66.2102,18.4536 L65.7902,17.5456 L52.7902,23.5456 L53.2102,24.4536 L66.2102,18.4536 Z M70.0532,29.5026 L51.0532,27.5026 L50.9472,28.4966 L69.9472,30.4966 L70.0532,29.5026 Z M40.4092,19.7136 L33.4092,9.7136 L32.5902,10.2866 L39.5902,20.2866 L40.4092,19.7136 Z M37.2092,23.5456 L24.2092,17.5456 L23.7902,18.4536 L36.7902,24.4536 L37.2092,23.5456 Z M20.0522,30.4966 L19.9482,29.5026 L38.9482,27.5026 L39.0522,28.4966 L20.0522,30.4966 Z" id="Fill-47" fill="#FFB200"></path>
            </g>
        </g>
    </g>
</svg>