<svg width="90" height="65" viewBox="0 0 90 65" xmlns="http://www.w3.org/2000/svg"><title>Indiana</title><g fill="none" fill-rule="evenodd"><path d="M80 65H10C4.477 65 0 60.523 0 55V10C0 4.477 4.477 0 10 0h70c5.523 0 10 4.477 10 10v45c0 5.523-4.477 10-10 10" fill="#00247D"/><path fill="#FFB200" d="M45 3l.898 2.764h2.906l-2.351 1.708.898 2.764L45 8.528l-2.351 1.708.898-2.764-2.351-1.708h2.906zM52.592 40.092l2.589 1.319 2.055-2.055-.454 2.87 2.589 1.32L56.5 44l-.455 2.87-1.32-2.59-2.87.455 2.055-2.055zM55.736 32.5l2.764-.898v-2.906l1.708 2.351 2.764-.898-1.708 2.351 1.708 2.351-2.764-.898-1.708 2.351v-2.906zM34.264 32.5l-2.764.898v2.906l-1.708-2.351-2.764.898 1.708-2.351-1.708-2.351 2.764.898 1.708-2.351v2.906zM37.408 40.092L36.09 42.68l2.056 2.055-2.872-.454-1.319 2.589L33.5 44l-2.87-.455 2.59-1.32-.455-2.87 2.055 2.055zM45 12l1.146 3.528h3.71l-3.001 2.18 1.146 3.528L45 19.056l-3.001 2.18 1.146-3.528-3.001-2.18h3.71zM31.29 6.379l2.08 2.03 2.574-1.351-1.288 2.606 2.08 2.03-2.876-.42-1.288 2.605-.49-2.865-2.875-.42 2.573-1.35zM20.722 15.742l2.785.831 1.651-2.392.07 2.906 2.785.831-2.742.964.071 2.906-1.765-2.31-2.741.965 1.651-2.392zM15.715 28.944l2.852-.558.35-2.885 1.413 2.54 2.852-.559-1.979 2.128 1.412 2.54-2.636-1.224L18 33.054l.351-2.885zM17.417 42.96l2.266-1.82-1.031-2.716 2.431 1.592 2.266-1.82-.763 2.805 2.431 1.592-2.903.14-.764 2.805-1.03-2.717zM25.438 54.581l1.16-2.664-2.175-1.928 2.893.281 1.16-2.664.628 2.837 2.892.281-2.505 1.473.627 2.838-2.175-1.927zM37.94 61.143l-.21-2.9-2.822-.694 2.691-1.096-.21-2.898 1.874 2.22 2.692-1.095-1.534 2.469 1.874 2.22-2.822-.695zM52.06 61.143l-1.533-2.47-2.822.697 1.874-2.221-1.534-2.47 2.692 1.097 1.874-2.221-.21 2.898 2.69 1.096-2.82.695zM64.562 54.581l-2.505-1.473-2.175 1.927.627-2.838-2.505-1.473 2.892-.28.627-2.838 1.161 2.664 2.893-.28-2.176 1.927zM72.583 42.96l-2.903-.14-1.03 2.718-.764-2.804-2.903-.141L67.414 41l-.763-2.804 2.266 1.819 2.431-1.592-1.031 2.717zM74.285 28.944l-2.636 1.225.35 2.885-1.978-2.128-2.636 1.224 1.412-2.54-1.98-2.128 2.853.56 1.413-2.54.35 2.884zM69.278 15.742l-1.765 2.31 1.651 2.391-2.741-.965-1.765 2.31.071-2.906-2.742-.964 2.785-.83.07-2.907 1.651 2.392zM58.71 6.379l-.49 2.865 2.573 1.35-2.876.42-.489 2.865-1.288-2.605-2.876.42 2.08-2.03-1.288-2.606 2.573 1.351zM50 31s-.372.437-.868 1.203c-.223.383-.518.848-.786 1.381a19.009 19.009 0 0 0-.795 1.791c-.522 1.312-.914 2.844-1.18 4.484A39.263 39.263 0 0 0 45.848 45c-.054 1.75-.042 3.5-.048 5.141l-.048 2.365-.119 2.119C45.456 57.25 45 59 45 59s-.456-1.75-.633-4.375l-.119-2.119-.048-2.365c-.006-1.641.006-3.391-.048-5.141-.064-1.75-.242-3.5-.523-5.141-.266-1.64-.658-3.172-1.18-4.484a19.009 19.009 0 0 0-.795-1.791c-.268-.533-.563-.998-.786-1.381C40.372 31.437 40 31 40 31h10z"/><path d="M45 41a1 1 0 0 0-.951.691l-.674 2.073h-2.179a1 1 0 0 0-.588 1.809l1.763 1.281-.673 2.073a1 1 0 0 0 1.539 1.118L45 48.764l1.763 1.281a1.004 1.004 0 0 0 1.176 0 1 1 0 0 0 .363-1.118l-.673-2.073 1.736-1.262a.998.998 0 0 0-.556-1.828H46.625l-.674-2.073A1 1 0 0 0 45 41m3.804 3.764h.005M45 42l.898 2.764h2.906l-2.351 1.708.898 2.764L45 47.528l-2.351 1.708.898-2.764-2.351-1.708h2.906L45 42" fill="#00247D"/><path fill="#FFB200" d="M45 42l.898 2.764h2.906l-2.351 1.708.898 2.764L45 47.528l-2.351 1.708.898-2.764-2.351-1.708h2.906zM48.257 30c2.133-2 1.933-3.667 1.6-5.6l-1.6.8v-2.4l-2.4 1.6-.8-2.4-1.6 3.2-2.4-2.4s-1.667 5.467.8 7.2h6.4zM57.41 10.287l-.819-.573-7 10 .818.573 7-10zm8.8 8.167l-.42-.908-13 6 .42.908 13-6zm3.843 11.049l-19-2-.106.994 19 2 .106-.994zm-29.644-9.79l-7-10-.819.574 7 10 .82-.573zm-3.2 3.833l-13-6-.419.908 13 6 .42-.908zm-17.157 6.95l-.104-.993 19-2 .104.994-19 2z"/></g></svg>