<svg width="90" height="65" viewBox="0 0 90 65" xmlns="http://www.w3.org/2000/svg" xmlns:xlink="http://www.w3.org/1999/xlink"><title>Kansas</title><defs><path d="M0 12.809c0 6.627 5.372 12 12 12s12-5.373 12-12C24 6.181 18.628.808 12 .808S0 6.181 0 12.809z" id="a"/></defs><g fill="none" fill-rule="evenodd"><path d="M80 65H10C4.477 65 0 60.523 0 55V10C0 4.477 4.477 0 10 0h70c5.523 0 10 4.477 10 10v45c0 5.523-4.477 10-10 10" fill="#00247D"/><path d="M31 32.808c0-7.732 6.268-14 14-14s14 6.268 14 14-6.268 14-14 14-14-6.268-14-14" fill="#F1F2F2"/><g transform="translate(33 20)"><mask id="b" fill="#fff"><use xlink:href="#a"/></mask><path fill="#66E2FF" mask="url(#b)" d="M-3 13.808h30v-17H-3z"/><path d="M15 10.808a3 3 0 1 1 6 0 3 3 0 0 1-6 0" fill="#FFB200" mask="url(#b)"/><path fill="#008542" mask="url(#b)" d="M-3 28.808h30v-15H-3z"/><path fill="#7F50FF" mask="url(#b)" d="M-8 13.808h39l-10-5-3 2-6-4-5 4-3-2z"/><path fill="#0089EF" mask="url(#b)" d="M9 13.808l17 6h2v-6z"/><path d="M28 24.808c-10.667-8-21.333-8-32 0h32z" fill="#896A45" mask="url(#b)"/><path d="M4.014 6.808c1.825-2.425 4.718-4 7.986-4 3.269 0 6.162 1.575 7.987 4h2.395c-2.076-3.583-5.943-6-10.382-6-4.44 0-8.305 2.417-10.381 6h2.395z" fill="#FF7900" mask="url(#b)"/></g><g><path fill="#FFB200" d="M40 17.808h-3l-2-2h3z"/><path fill="#0089EF" d="M43 17.808h-3l-2-2h3z"/><path fill="#FFB200" d="M46 17.808h-3l-2-2h3z"/><path fill="#0089EF" d="M49 17.808h-3l-2-2h3z"/><path fill="#FFB200" d="M52 17.808h-3l-2-2h3z"/><path fill="#0089EF" d="M55 17.808h-3l-2-2h3z"/><path d="M54 14.808c0-2.667-.91-4-5.333-4 0 0-.584 4 5.333 4M36 14.808c0-2.667.91-4 5.333-4 0 0 .584 4-5.333 4" fill="#78AD12"/><path fill="#FFB200" d="M50 12.292l-1.146.19-.026.968-1.161-.113-.385.914-1.063-.404-.707.77-.86-.656-.96.552-.573-.844-1.119.279-.23-.95-1.168-.02.136-.961-1.104-.32.488-.88-.93-.585.792-.711-.666-.795 1.019-.474L40 7.325l1.146-.19.026-.968 1.161.113.385-.914 1.063.404.707-.77.86.656.96-.552.573.844L48 5.668l.23.95 1.168.02-.136.962 1.104.32-.488.879.93.586-.792.71.666.796-1.019.474z"/><path d="M42 9.808c0-1.105 1.343-2 3-2s3 .895 3 2-1.343 2-3 2-3-.895-3-2" fill="#7C2525"/><path fill="#FFB200" d="M29.38 60h-2.143l-2.762-3.851h-.023V60h-1.684v-8.159h1.684v3.587h.023l2.67-3.587h1.97l-3.104 3.874zM34.367 56.023a65.926 65.926 0 0 1-.928-3.186h-.023a66.897 66.897 0 0 1-.917 3.186l-.172.54h2.212l-.172-.54zm-2.498 1.982L31.227 60h-1.765l2.83-8.16h2.27l2.83 8.16h-1.764l-.631-1.995h-3.128zM42.757 60l-1.58-3.312a63.145 63.145 0 0 1-1.49-3.369h-.024c.057 1.181.092 2.361.092 3.541V60H38.14v-8.159h2.395l1.581 3.311a63.503 63.503 0 0 1 1.49 3.369h.023a73.344 73.344 0 0 1-.092-3.541v-3.139h1.616V60h-2.395zM52.639 54.339H50.93c0-.848-.493-1.341-1.421-1.341-.745 0-1.25.367-1.25.895 0 .63.494.836 1.777 1.157 1.536.378 2.865.778 2.865 2.556 0 1.546-1.284 2.578-3.186 2.578-2.028 0-3.3-1.01-3.3-2.866h1.742c0 .987.538 1.502 1.58 1.502.86 0 1.41-.402 1.41-1.043 0-.722-.527-.86-1.684-1.158-1.536-.388-2.933-.756-2.933-2.543 0-1.433 1.225-2.418 3.013-2.418 2.04 0 3.095.928 3.095 2.68M58.072 56.023a65.942 65.942 0 0 1-.929-3.186h-.022a68.09 68.09 0 0 1-.917 3.186l-.172.54h2.212l-.172-.54zm-2.498 1.982L54.931 60h-1.764l2.831-8.16h2.268L61.097 60h-1.765l-.63-1.995h-3.128zM67.494 54.339h-1.708c0-.848-.492-1.341-1.42-1.341-.745 0-1.25.367-1.25.895 0 .63.493.836 1.776 1.157 1.537.378 2.866.778 2.866 2.556 0 1.546-1.285 2.578-3.186 2.578-2.028 0-3.3-1.01-3.3-2.866h1.742c0 .987.538 1.502 1.581 1.502.86 0 1.41-.402 1.41-1.043 0-.722-.528-.86-1.686-1.158-1.535-.388-2.932-.756-2.932-2.543 0-1.433 1.225-2.418 3.013-2.418 2.04 0 3.094.928 3.094 2.68"/></g></g></svg>