<?xml version="1.0" encoding="UTF-8" standalone="no"?>
<svg width="90px" height="65px" viewBox="0 0 90 65" version="1.1" xmlns="http://www.w3.org/2000/svg" xmlns:xlink="http://www.w3.org/1999/xlink">
    <!-- Generator: Sketch 3.7.2 (28276) - http://www.bohemiancoding.com/sketch -->
    <title>Kansas</title>
    <desc>Created with Sketch.</desc>
    <defs>
        <path d="M0,12.809 C0,19.436 5.372,24.809 12,24.809 C18.628,24.809 24,19.436 24,12.809 C24,6.181 18.628,0.808 12,0.808 C5.372,0.808 0,6.181 0,12.809 L0,12.809 Z" id="path-1"></path>
    </defs>
    <g id="Page-1" stroke="none" stroke-width="1" fill="none" fill-rule="evenodd">
        <g id="Kansas">
            <g id="Page-1">
                <g id="Group-5">
                    <path d="M80,65 L10,65 C4.477,65 0,60.523 0,55 L0,10 C0,4.477 4.477,0 10,0 L80,0 C85.523,0 90,4.477 90,10 L90,55 C90,60.523 85.523,65 80,65" id="Fill-1" fill="#00247D"></path>
                    <path d="M31,32.8084 C31,25.0764 37.268,18.8084 45,18.8084 C52.732,18.8084 59,25.0764 59,32.8084 C59,40.5404 52.732,46.8084 45,46.8084 C37.268,46.8084 31,40.5404 31,32.8084" id="Fill-3" fill="#F1F2F2"></path>
                </g>
                <g id="Group-14" transform="translate(33.000000, 20.000000)">
                    <mask id="mask-2" fill="white">
                        <use xlink:href="#path-1"></use>
                    </mask>
                    <g id="Clip-7"></g>
                    <polygon id="Fill-6" fill="#66E2FF" mask="url(#mask-2)" points="-3 13.808 27 13.808 27 -3.192 -3 -3.192"></polygon>
                    <path d="M15,10.8084 C15,9.1514 16.343,7.8084 18,7.8084 C19.657,7.8084 21,9.1514 21,10.8084 C21,12.4654 19.657,13.8084 18,13.8084 C16.343,13.8084 15,12.4654 15,10.8084" id="Fill-8" fill="#FFB200" mask="url(#mask-2)"></path>
                    <polygon id="Fill-9" fill="#008542" mask="url(#mask-2)" points="-3 28.808 27 28.808 27 13.808 -3 13.808"></polygon>
                    <polygon id="Fill-10" fill="#7F50FF" mask="url(#mask-2)" points="-8 13.8084 31 13.8084 21 8.8084 18 10.8084 12 6.8084 7 10.8084 4 8.8084"></polygon>
                    <polygon id="Fill-11" fill="#0089EF" mask="url(#mask-2)" points="9 13.8084 26 19.8084 28 19.8084 28 13.8084"></polygon>
                    <path d="M28,24.8084 C17.333,16.8084 6.667,16.8084 -4,24.8084 L28,24.8084 Z" id="Fill-12" fill="#896A45" mask="url(#mask-2)"></path>
                    <path d="M4.0136,6.8084 C5.8386,4.3834 8.7316,2.8084 11.9996,2.8084 C15.2686,2.8084 18.1616,4.3834 19.9866,6.8084 L22.3816,6.8084 C20.3056,3.2254 16.4386,0.8084 11.9996,0.8084 C7.5606,0.8084 3.6946,3.2254 1.6186,6.8084 L4.0136,6.8084 Z" id="Fill-13" fill="#FF7900" mask="url(#mask-2)"></path>
                </g>
                <g id="Group-47" transform="translate(22.000000, 5.000000)">
                    <polygon id="Fill-15" fill="#FFB200" points="18 12.8084 15 12.8084 13 10.8084 16 10.8084"></polygon>
                    <polygon id="Fill-17" fill="#0089EF" points="21 12.8084 18 12.8084 16 10.8084 19 10.8084"></polygon>
                    <polygon id="Fill-19" fill="#FFB200" points="24 12.8084 21 12.8084 19 10.8084 22 10.8084"></polygon>
                    <polygon id="Fill-21" fill="#0089EF" points="27 12.8084 24 12.8084 22 10.8084 25 10.8084"></polygon>
                    <polygon id="Fill-23" fill="#FFB200" points="30 12.8084 27 12.8084 25 10.8084 28 10.8084"></polygon>
                    <polygon id="Fill-25" fill="#0089EF" points="33 12.8084 30 12.8084 28 10.8084 31 10.8084"></polygon>
                    <path d="M32,9.8084 C32,7.1414 31.09,5.8084 26.667,5.8084 C26.667,5.8084 26.083,9.8084 32,9.8084" id="Fill-27" fill="#78AD12"></path>
                    <path d="M14,9.8084 C14,7.1414 14.91,5.8084 19.333,5.8084 C19.333,5.8084 19.917,9.8084 14,9.8084" id="Fill-29" fill="#78AD12"></path>
                    <polygon id="Fill-31" fill="#FFB200" points="28 7.2919 26.854 7.4819 26.828 8.4499 25.667 8.3369 25.282 9.2509 24.219 8.8469 23.512 9.6169 22.652 8.9609 21.692 9.5129 21.119 8.6689 20 8.9479 19.77 7.9989 18.602 7.9779 18.738 7.0169 17.634 6.6969 18.122 5.8179 17.192 5.2319 17.984 4.5209 17.318 3.7259 18.337 3.2519 18 2.3249 19.146 2.1349 19.172 1.1669 20.333 1.2799 20.718 0.3659 21.781 0.7699 22.488 -0.0001 23.348 0.6559 24.308 0.1039 24.881 0.9479 26 0.6689 26.23 1.6179 27.398 1.6389 27.262 2.5999 28.366 2.9199 27.878 3.7989 28.808 4.3849 28.016 5.0959 28.682 5.8909 27.663 6.3649"></polygon>
                    <path d="M20,4.8084 C20,3.7034 21.343,2.8084 23,2.8084 C24.657,2.8084 26,3.7034 26,4.8084 C26,5.9134 24.657,6.8084 23,6.8084 C21.343,6.8084 20,5.9134 20,4.8084" id="Fill-33" fill="#7C2525"></path>
                    <polygon id="Fill-35" fill="#FFB200" points="7.3799 55 5.2369 55 2.4749 51.149 2.4519 51.149 2.4519 55 0.7679 55 0.7679 46.841 2.4519 46.841 2.4519 50.428 2.4749 50.428 5.1459 46.841 7.1159 46.841 4.0109 50.715"></polygon>
                    <path d="M12.3667,51.0234 C12.0337,49.9684 11.7137,48.8924 11.4387,47.8374 L11.4157,47.8374 C11.1407,48.8924 10.8307,49.9684 10.4987,51.0234 L10.3267,51.5624 L12.5387,51.5624 L12.3667,51.0234 Z M9.8687,53.0054 L9.2267,55.0004 L7.4617,55.0004 L10.2927,46.8404 L12.5617,46.8404 L15.3917,55.0004 L13.6277,55.0004 L12.9967,53.0054 L9.8687,53.0054 Z" id="Fill-37" fill="#FFB200"></path>
                    <path d="M20.7573,55 L19.1763,51.688 C18.6603,50.6 18.1443,49.453 17.6863,48.319 L17.6633,48.319 C17.7203,49.5 17.7553,50.68 17.7553,51.86 L17.7553,55 L16.1393,55 L16.1393,46.841 L18.5343,46.841 L20.1153,50.152 C20.6313,51.241 21.1473,52.387 21.6053,53.521 L21.6283,53.521 C21.5713,52.342 21.5363,51.161 21.5363,49.98 L21.5363,46.841 L23.1523,46.841 L23.1523,55 L20.7573,55 Z" id="Fill-39" fill="#FFB200"></path>
                    <path d="M30.6387,49.3389 L28.9307,49.3389 C28.9307,48.4909 28.4377,47.9979 27.5097,47.9979 C26.7647,47.9979 26.2607,48.3649 26.2607,48.8929 C26.2607,49.5229 26.7537,49.7289 28.0367,50.0499 C29.5727,50.4279 30.9017,50.8279 30.9017,52.6059 C30.9017,54.1519 29.6177,55.1839 27.7157,55.1839 C25.6877,55.1839 24.4157,54.1749 24.4157,52.3179 L26.1577,52.3179 C26.1577,53.3049 26.6957,53.8199 27.7387,53.8199 C28.5977,53.8199 29.1487,53.4179 29.1487,52.7769 C29.1487,52.0549 28.6207,51.9179 27.4637,51.6189 C25.9277,51.2309 24.5307,50.8629 24.5307,49.0759 C24.5307,47.6429 25.7557,46.6579 27.5437,46.6579 C29.5837,46.6579 30.6387,47.5859 30.6387,49.3389" id="Fill-41" fill="#FFB200"></path>
                    <path d="M36.0723,51.0234 C35.7393,49.9684 35.4183,48.8924 35.1433,47.8374 L35.1213,47.8374 C34.8453,48.8924 34.5363,49.9684 34.2043,51.0234 L34.0323,51.5624 L36.2443,51.5624 L36.0723,51.0234 Z M33.5743,53.0054 L32.9313,55.0004 L31.1673,55.0004 L33.9983,46.8404 L36.2663,46.8404 L39.0973,55.0004 L37.3323,55.0004 L36.7023,53.0054 L33.5743,53.0054 Z" id="Fill-43" fill="#FFB200"></path>
                    <path d="M45.4941,49.3389 L43.7861,49.3389 C43.7861,48.4909 43.2941,47.9979 42.3651,47.9979 C41.6211,47.9979 41.1161,48.3649 41.1161,48.8929 C41.1161,49.5229 41.6091,49.7289 42.8921,50.0499 C44.4291,50.4279 45.7581,50.8279 45.7581,52.6059 C45.7581,54.1519 44.4731,55.1839 42.5721,55.1839 C40.5441,55.1839 39.2711,54.1749 39.2711,52.3179 L41.0141,52.3179 C41.0141,53.3049 41.5521,53.8199 42.5951,53.8199 C43.4541,53.8199 44.0041,53.4179 44.0041,52.7769 C44.0041,52.0549 43.4771,51.9179 42.3191,51.6189 C40.7841,51.2309 39.3871,50.8629 39.3871,49.0759 C39.3871,47.6429 40.6121,46.6579 42.4001,46.6579 C44.4391,46.6579 45.4941,47.5859 45.4941,49.3389" id="Fill-45" fill="#FFB200"></path>
                </g>
            </g>
        </g>
    </g>
</svg>