<svg width="90" height="65" viewBox="0 0 90 65" xmlns="http://www.w3.org/2000/svg"><title>Kentucky</title><g fill="none" fill-rule="evenodd"><path d="M80 65H10C4.477 65 0 60.523 0 55V10C0 4.477 4.477 0 10 0h70c5.523 0 10 4.477 10 10v45c0 5.523-4.477 10-10 10" fill="#00247D"/><path d="M58 32.5c0-7.18-5.82-13-13-13s-13 5.82-13 13 5.82 13 13 13 13-5.82 13-13" fill="#F1F2F2"/><path d="M45 20c-6.893 0-12.5 5.607-12.5 12.5S38.107 45 45 45s12.5-5.607 12.5-12.5S51.893 20 45 20m0 26c-7.444 0-13.5-6.056-13.5-13.5S37.556 19 45 19s13.5 6.056 13.5 13.5S52.444 46 45 46M66.5 33c-.219-.446-.653-1.637-1.125-1.417-.214.29-.35.483-.375 1.417h-1.5c-.028-.956-.163-1.114-.375-1.415-.469-.224-.91.961-1.125 1.415-1.045-2.917 2.857-3.932 3 0h-1.5c.142-3.708 3.858-3.215 3 0" fill="#FFB200"/><path d="M67.071 36.9c-.522-2.173-1.97-2.19-2.462-.434l-1.477-.261c.126-1.835-1.277-2.261-2.462-.434-.188-3.092 4.3-3.19 3.94.694l-1.478-.26c.986-3.698 5.155-2.241 3.94.695" fill="#FFB200"/><path d="M65.972 40.665c-.138-2.24-1.567-2.484-2.349-.855l-1.41-.513c.437-1.76-.843-2.47-2.349-.855.355-3.11 4.78-2.36 3.76 1.368l-1.41-.513c1.623-3.494 5.444-1.278 3.758 1.368" fill="#FFB200"/><path d="M64.236 44.183c.257-2.262-1.126-2.698-2.165-1.25l-1.3-.75c.737-1.659-.4-2.58-2.164-1.25.887-2.991 5.119-1.499 3.464 2l-1.3-.75c2.172-3.109 5.616-.348 3.465 2" fill="#FFB200"/><path d="M61.372 46.89c.135-.52.486-1.48.047-1.824-.024-.048-.086-.047-.11-.077-.053.003-.073-.028-.125-.014-.428-.05-.89.474-1.185.764l-1.149-.964c.227-.334.676-.91.544-1.298.006-.054-.028-.068-.034-.121-.034-.018-.043-.08-.094-.095-.409-.376-1.312.137-1.789.362 1.313-2.822 4.768-1.1 2.522 2.116l-1.149-.964c2.771-2.738 5.08.263 2.522 2.116" fill="#78AD12"/><path d="M58.664 49.562c.173-.377.668-1.266.431-1.645a.453.453 0 0 0-.08-.16c-.018-.054-.082-.066-.102-.103-.056-.008-.072-.046-.129-.042a.345.345 0 0 0-.138-.018c-.309-.103-.93.381-1.174.548l-.964-1.149c.211-.217.784-.747.742-1.06a.328.328 0 0 0 .006-.139c.014-.055-.02-.077-.019-.133-.033-.027-.033-.092-.083-.117-.356-.437-1.296-.12-1.837.03 1.807-2.57 4.886-.168 2.155 2.568l-.964-1.149c3.16-2.186 5.001 1.176 2.156 2.57" fill="#008542"/><path d="M55.817 52.236c1.229-1.661.536-2.972-1.25-2.165l-.75-1.3c1.467-1.068.943-2.434-1.25-2.164 2.306-2.187 5.173 1.268 2 3.464l-.75-1.3c3.471-1.623 5.014 2.515 2 3.465" fill="#008542"/><path d="M52.226 53.814c1.789-1.698.78-2.767-.855-2.349l-.513-1.41c1.609-.787 1.37-2.233-.855-2.349 2.63-1.74 4.875 2.146 1.368 3.76l-.513-1.41c3.733-1.006 4.483 3.348 1.368 3.758" fill="#008542"/><path d="M48.244 53.775c.424-.31 1.486-.92 1.199-1.36-.302-.162-.531-.27-1.462-.132l-.26-1.477c.924-.192 1.08-.36 1.326-.623.12-.504-1.09-.732-1.59-.87 2.698-1.537 4.364 2.148.524 2.97l-.26-1.477c3.644-.5 3.855 3.255.523 2.97" fill="#008542"/><path d="M23.5 33c.219-.446.653-1.637 1.125-1.417.214.29.35.483.375 1.417h1.5c.028-.956.163-1.114.375-1.415.469-.224.91.961 1.125 1.415 1.045-2.917-2.857-3.932-3 0h1.5c-.142-3.708-3.858-3.215-3 0" fill="#FFB200"/><path d="M22.929 36.9c.522-2.173 1.97-2.19 2.462-.434l1.477-.261c-.126-1.835 1.277-2.261 2.462-.434.188-3.092-4.3-3.19-3.94.694l1.478-.26c-.986-3.698-5.155-2.241-3.94.695" fill="#FFB200"/><path d="M24.028 40.665c.138-2.24 1.567-2.484 2.349-.855l1.41-.513c-.437-1.76.843-2.47 2.349-.855-.355-3.11-4.78-2.36-3.76 1.368l1.41-.513c-1.623-3.494-5.444-1.278-3.758 1.368" fill="#FFB200"/><path d="M25.764 44.183c-.257-2.262 1.126-2.698 2.165-1.25l1.3-.75c-.737-1.659.4-2.58 2.164-1.25-.887-2.991-5.119-1.499-3.464 2l1.3-.75c-2.172-3.109-5.616-.348-3.465 2" fill="#FFB200"/><path d="M28.628 46.89c-.135-.52-.486-1.48-.047-1.824.024-.048.086-.047.11-.077.053.003.073-.028.125-.014.428-.05.89.474 1.185.764l1.149-.964c-.227-.334-.676-.91-.544-1.298-.006-.054.028-.068.034-.121.034-.018.043-.08.094-.095.409-.376 1.312.137 1.789.362-1.313-2.822-4.768-1.1-2.522 2.116l1.149-.964c-2.771-2.738-5.08.263-2.522 2.116" fill="#78AD12"/><path d="M31.336 49.562c-.173-.377-.668-1.266-.431-1.645a.453.453 0 0 1 .08-.16c.018-.054.082-.066.102-.103.056-.008.072-.046.129-.042a.345.345 0 0 1 .138-.018c.309-.103.93.381 1.174.548l.964-1.149c-.211-.217-.784-.747-.742-1.06a.328.328 0 0 1-.006-.139c-.014-.055.02-.077.019-.133.033-.027.033-.092.083-.117.356-.437 1.296-.12 1.837.03-1.807-2.57-4.886-.168-2.155 2.568l.964-1.149c-3.16-2.186-5.001 1.176-2.156 2.57" fill="#008542"/><path d="M34.183 52.236c-1.229-1.661-.536-2.972 1.25-2.165l.75-1.3c-1.467-1.068-.943-2.434 1.25-2.164-2.306-2.187-5.173 1.268-2 3.464l.75-1.3c-3.471-1.623-5.014 2.515-2 3.465" fill="#008542"/><path d="M37.774 53.814c-1.789-1.698-.78-2.767.855-2.349l.513-1.41c-1.609-.787-1.37-2.233.855-2.349-2.63-1.74-4.875 2.146-1.368 3.76l.513-1.41c-3.733-1.006-4.483 3.348-1.368 3.758" fill="#008542"/><path d="M41.756 53.775c-.424-.31-1.486-.92-1.199-1.36.302-.162.531-.27 1.462-.132l.26-1.477c-.924-.192-1.08-.36-1.326-.623-.12-.504 1.09-.732 1.59-.87-2.698-1.537-4.364 2.148-.524 2.97l.26-1.477c-3.644-.5-3.855 3.255-.523 2.97M47.72 50.806a12.698 12.698 0 0 1-5.44 0l-.26 1.477c1.967.395 3.993.395 5.96 0l-.26-1.477z" fill="#008542"/><path d="M43.277 38.962s.928.293 1.361.88c-.4.305-1.632.148-2.846 0v-.88h1.485z" fill="#49361F"/><path d="M43.364 30.943s.755 2.868 1.045 3.859c.291.99-1.278 4.87-1.278 4.87l-.958-.438 1.191-8.291z" fill="#49361F"/><path d="M46.18 27.4h2.09v2.344c0 .701-.035 1.316.122 2 .14.608.32 1.242.23 1.873-.067.466-.525 6.327-.352 6.327h-1.394c-.058 0-.606-6.979-.58-7.52.047-1.034-.278-2.056-.215-3.084.04-.64.098-1.284.098-1.94" fill="#231F1F"/><path d="M46.723 38.962s-.928.293-1.361.88c.4.305 1.632.148 2.846 0v-.88h-1.485z" fill="#231F1F"/><path d="M46.868 39.673s-.87.524-1.278 1.213c.79.358 1.696.025 2.672-.715V39.3l-1.394.373z" fill="#231F1F"/><path d="M43.82 27.4h-2.09v2.344c0 .701.035 1.316-.122 2-.14.608-.32 1.242-.23 1.873.067.466.525 6.327.352 6.327h1.394c.058 0 .606-6.979.58-7.52-.047-1.034.278-2.056.215-3.084-.04-.64-.098-1.284-.098-1.94" fill="#594529"/><path d="M43.132 39.673s.87.524 1.278 1.213c-.79.358-1.696.025-2.672-.715V39.3l1.394.373z" fill="#594529"/><path d="M41.917 26.681l.033-.353c-.969-.485.1-2.623 1.069-2.138.422.202.718.462.684.876a.334.334 0 0 0 .105.281l.175.153a.106.106 0 0 1-.05.184l-.172.034-.06.228.097.382-.375.03.08.173-.697.87-.889-.72zM48.002 26.681l-.033-.353c.969-.485-.1-2.623-1.068-2.138-.422.202-.718.462-.684.876a.334.334 0 0 1-.106.281l-.174.153a.106.106 0 0 0 .05.184l.172.034.059.228-.097.382.375.03-.08.173.698.87.888-.72z" fill="#FFE1C7"/><path d="M43.968 27.861l-.129 3-.547-.599 2.596.551a.697.697 0 1 1-.29 1.363l-2.594-.55-.4-.085-.148-.514-.837-2.883a1.2 1.2 0 0 1 2.303-.668c.036.127.05.26.046.385" fill="#594529"/><path d="M48.217 28.197l-.802 1.932-.238.574-.476-.097-3.285-.668a.604.604 0 0 1 .24-1.184l3.286.669-.713.477-.024-2.092a1.045 1.045 0 1 1 2.012.389" fill="#231F1F"/><path d="M43.447 28.747c.226.271.312.65.328 1.08-.153.162-.362.231-.656.158-.423-.38-.547-.712-.41-.998.17-.172.421-.245.738-.24M46.305 30.861c.226.271.312.65.328 1.08-.153.162-.362.231-.656.158-.423-.38-.547-.712-.411-.999.17-.172.422-.245.739-.239" fill="#FFE1C7"/><path d="M42.176 24.03c.298-.05 1.961-.106 1.651.432-.293.508-1.179-.124-1.475.532-.086.192-.148.394-.129.578.024.247.25.493-.05.66-.226.126-.459.138-.589-.051-.205-.298-.214-.724-.225-1.068-.018-.51.313-.995.817-1.082" fill="#896A45"/><path d="M46.121 24.468c.065-.472.885-.582 1.22-.442.415.174.98.402 1.045.878.046.338.131 1.233-.409.87-.379-.252-.159-.85-.57-1.053-.228-.113-1.167.217-1.199-.166-.215 0-.1.217-.146-.045-.035-.2.117-.35.32-.332" fill="#231F1F"/><path d="M50.57 24.631a10.343 10.343 0 0 0-11.14 0l-1.08-1.684a12.35 12.35 0 0 1 13.3 0l-1.08 1.684zM50.57 40.369a10.343 10.343 0 0 1-11.14 0l-1.08 1.684a12.35 12.35 0 0 0 13.3 0l-1.08-1.684z" fill="#231F1F"/><path d="M44.999 15.194c7.047 0 13.098 4.218 15.797 10.26l4.752-2.117C62.038 15.479 54.161 10 44.999 10c-9.162 0-17.039 5.479-20.549 13.337l4.752 2.118c2.699-6.043 8.75-10.261 15.797-10.261" fill-opacity=".5" fill="#FFB200"/></g></svg>