<?xml version="1.0" encoding="UTF-8" standalone="no"?>
<svg width="90px" height="65px" viewBox="0 0 90 65" version="1.1" xmlns="http://www.w3.org/2000/svg" xmlns:xlink="http://www.w3.org/1999/xlink">
    <!-- Generator: Sketch 3.7.2 (28276) - http://www.bohemiancoding.com/sketch -->
    <title>Louisiana</title>
    <desc>Created with Sketch.</desc>
    <defs></defs>
    <g id="Page-1" stroke="none" stroke-width="1" fill="none" fill-rule="evenodd">
        <g id="Louisiana">
            <g id="Page-1">
                <path d="M80,65 L10,65 C4.477,65 0,60.523 0,55 L0,10 C0,4.477 4.477,0 10,0 L80,0 C85.523,0 90,4.477 90,10 L90,55 C90,60.523 85.523,65 80,65" id="Fill-1" fill="#1A53AD"></path>
                <path d="M45,38.5848 C39.677,38.5848 35.362,37.0918 35.362,35.2508 C35.362,33.4098 39.677,31.9178 45,31.9178 C50.323,31.9178 54.638,33.4098 54.638,35.2508 C54.638,37.0918 50.323,38.5848 45,38.5848" id="Fill-3" fill="#896A45"></path>
                <path d="M60.4972,13.8016 C59.8822,11.5796 56.8612,11.2536 55.7602,13.2796 L48.8762,25.9566 C48.5992,24.5476 48.0982,22.9846 47.2902,21.2426 C47.0682,20.6826 46.9132,19.4976 46.7092,18.3936 C46.6012,17.8086 47.1632,17.3316 47.7312,17.5106 C52.8812,19.1336 51.5142,8.3196 44.8822,8.9976 C44.7262,9.0126 44.5092,9.0486 44.5222,9.0486 C37.0482,10.5646 44.0282,21.5226 41.8222,27.2416 L34.2392,13.2796 C33.1392,11.2536 30.1182,11.5796 29.5032,13.8016 C27.2192,22.0466 23.5352,29.9156 18.4502,37.4076 L22.7902,37.1326 C24.4482,37.0286 25.9962,36.2706 27.0972,35.0256 L28.8632,33.0286 L30.9552,32.8906 C32.9052,32.7606 34.6762,31.7096 35.7232,30.0606 L36.0472,29.5496 C36.6172,39.9486 53.2002,43.2716 53.9522,29.5496 L54.2772,30.0606 C55.3242,31.7096 57.0952,32.7606 59.0442,32.8906 L61.1372,33.0286 L62.9032,35.0256 C64.0032,36.2706 65.5522,37.0286 67.2102,37.1326 L71.5492,37.4076 C66.4642,29.9156 62.7802,22.0466 60.4972,13.8016" id="Fill-5" fill="#F1F2F2"></path>
                <path d="M45.8781,15.2286 L49.4701,17.4636 C49.4701,17.4636 50.3381,26.0076 50.6431,28.3636 C50.9481,30.7196 48.6841,32.1776 48.2601,32.1776 C48.2601,32.1776 48.1251,31.2666 48.9891,30.6286 L45.8781,15.2286 Z" id="Fill-7" fill="#FFB200"></path>
                <path d="M50.7339,15.9402 C51.4419,16.4592 52.3359,13.8912 51.6519,10.4292 C51.5149,9.3352 51.9219,8.6522 51.9219,8.6522 L50.8649,9.7002 L50.2399,8.9672 L49.6929,10.1102 L48.5989,9.3352 L48.5989,10.6572 L47.5519,10.5202 C47.5519,10.5202 49.4159,13.0712 49.7369,14.0282 C50.0569,14.9852 49.8609,15.3002 50.7339,15.9402" id="Fill-9" fill="#FFB200"></path>
                <path d="M47.5457,14.7118 C47.5457,14.3088 47.8717,13.9828 48.2747,13.9828 C48.6777,13.9828 49.0037,14.3088 49.0037,14.7118 C49.0037,15.1148 48.6777,15.4408 48.2747,15.4408 C47.8717,15.4408 47.5457,15.1148 47.5457,14.7118" id="Fill-11" fill="#939698"></path>
                <path d="M36.0474,29.5492 C36.0474,43.5422 53.9524,43.5422 53.9524,29.5492 L52.1074,34.0302 L52.1074,32.4812 L50.2854,35.1692 L49.7364,33.4832 L48.2744,34.7962 L46.8224,33.0732 L45.0004,35.0782 L43.9064,33.4832 L43.0404,34.7962 L40.8994,32.1772 L40.7174,34.1212 L38.7124,31.4332 L39.0774,34.7962 L36.0474,29.5492 Z" id="Fill-13" fill="#939698"></path>
                <path d="M47.3862,22.6939 C47.3862,22.6939 41.9572,17.1879 45.8782,15.2289 L47.3862,22.6939 Z" id="Fill-15" fill="#939698"></path>
                <path d="M45.9101,15.2111 C45.9101,15.2111 46.0701,15.4141 46.3081,15.7951 C46.5541,16.1711 46.8621,16.7331 47.2041,17.4211 C47.5401,18.1111 47.8811,18.9401 48.1951,19.8461 C48.4841,20.7591 48.7491,21.7461 48.9781,22.7401 C49.2231,23.7301 49.4291,24.7271 49.6091,25.6641 C49.6991,26.1331 49.7721,26.5881 49.8431,27.0191 C49.9241,27.4521 49.9651,27.8721 49.9331,28.2731 C49.8751,29.0581 49.6201,29.6691 49.4051,30.0611 C49.1901,30.4571 49.0171,30.6511 49.0171,30.6511 L48.9611,30.6051 C48.9611,30.6051 49.1141,30.4061 49.2951,30.0061 C49.4771,29.6111 49.6771,29.0031 49.6781,28.2641 C49.6831,27.9041 49.6161,27.5011 49.5061,27.0841 C49.4071,26.6611 49.3031,26.2151 49.1951,25.7541 C48.9671,24.8341 48.7111,23.8581 48.4161,22.8931 C48.1261,21.9271 47.7821,20.9791 47.4751,20.0881 C47.1781,19.1931 46.9011,18.3571 46.6641,17.6411 C46.1931,16.2051 45.8461,15.2461 45.8461,15.2461 L45.9101,15.2111 Z" id="Fill-17" fill="#E89B00"></path>
                <path d="M39.6756,37.5055 C39.4886,37.7215 39.3016,37.9255 39.1476,38.1155 C38.9096,38.4065 38.5236,38.5385 38.1606,38.4535 C38.1546,38.4515 38.1046,38.4385 38.0986,38.4365 C37.5806,38.2795 37.2856,37.7295 37.4426,37.2115 L37.6146,36.6425 L37.5276,36.7215 C37.4356,36.8025 37.3106,36.8345 37.1916,36.8065 C37.1516,36.7975 37.0786,36.7625 37.0466,36.7375 C36.9686,36.6765 36.9186,36.5885 36.9066,36.4895 C36.8936,36.3895 36.9206,36.2915 36.9816,36.2135 L38.3036,34.5175 C38.4016,34.3925 38.5476,34.3165 38.7046,34.3065 C38.7586,34.3025 38.8126,34.3075 38.8636,34.3195 C39.0996,34.3745 39.2736,34.5815 39.2886,34.8235 L39.2956,34.9345 C40.0816,34.6355 40.7186,35.3795 40.5306,36.1355 C40.4106,36.6165 40.0426,37.0825 39.6756,37.5055" id="Fill-19" fill="#939698"></path>
                <path d="M40.5934,32.9561 C40.5934,32.9561 40.7184,32.7251 40.8754,32.3711 C40.9494,32.1921 41.0454,31.9871 41.1314,31.7631 C41.2154,31.5381 41.3054,31.2991 41.3964,31.0591 C41.5574,30.5761 41.7134,30.0911 41.8054,29.7221 C41.9014,29.3531 41.9434,29.1021 41.9434,29.1021 C41.9694,28.9481 42.1154,28.8441 42.2704,28.8701 C42.4244,28.8961 42.5294,29.0421 42.5024,29.1971 C42.5014,29.2081 42.4984,29.2211 42.4944,29.2311 C42.4944,29.2311 42.4214,29.4751 42.3434,29.8471 C42.2614,30.2191 42.1864,30.7231 42.1174,31.2281 C42.0924,31.4821 42.0664,31.7371 42.0424,31.9761 C42.0194,32.2151 42.0144,32.4411 42.0024,32.6341 C41.9864,33.0211 41.9954,33.2841 41.9954,33.2841 C42.0094,33.6961 41.6874,34.0411 41.2754,34.0551 C40.8644,34.0691 40.5184,33.7471 40.5044,33.3351 C40.5004,33.1991 40.5334,33.0681 40.5934,32.9561" id="Fill-21" fill="#FFB200"></path>
                <path d="M42.1936,34.9109 C42.4466,34.6649 42.6176,34.3259 42.6496,33.9319 C42.6996,33.2989 42.3246,32.6749 41.7406,32.4249 C40.8416,32.0419 39.8596,32.5679 39.6476,33.4739 C39.5796,33.7669 39.6006,34.0599 39.6936,34.3239 C39.8236,34.6939 39.6566,35.0959 39.2956,35.2499 C38.4796,35.5979 37.8636,36.3769 37.8026,37.3779 C37.7366,38.4409 38.4056,39.4569 39.4056,39.8239 C40.8266,40.3459 42.3366,39.4999 42.6706,38.0729 C42.8556,37.2799 42.6336,36.4889 42.1406,35.9149 C41.8866,35.6179 41.9136,35.1839 42.1936,34.9109" id="Fill-23" fill="#F1F2F2"></path>
                <path d="M41.5416,32.0628 C40.5726,31.8358 39.5986,32.4408 39.3726,33.4098 C39.2936,33.7448 39.3126,34.0938 39.4256,34.4178 C39.5076,34.6498 39.4036,34.8958 39.1846,34.9888 C38.2226,35.3988 37.5846,36.3078 37.5196,37.3598 C37.4456,38.5538 38.1816,39.6758 39.3086,40.0898 C39.4176,40.1298 39.5286,40.1638 39.6406,40.1898 C41.1176,40.5348 42.6006,39.6148 42.9456,38.1378 C43.1436,37.2918 42.9236,36.3918 42.3556,35.7308 C42.2006,35.5498 42.2156,35.2848 42.3916,35.1138 C42.7046,34.8088 42.8966,34.3968 42.9316,33.9548 C42.9926,33.1978 42.5476,32.4618 41.8516,32.1648 C41.7506,32.1218 41.6466,32.0878 41.5416,32.0628" id="Fill-25" fill="#939698"></path>
                <path d="M42.1936,34.9109 C42.4466,34.6649 42.6176,34.3259 42.6496,33.9319 C42.6996,33.2989 42.3246,32.6749 41.7406,32.4249 C40.8416,32.0419 39.8596,32.5679 39.6476,33.4739 C39.5796,33.7669 39.6006,34.0599 39.6936,34.3239 C39.8236,34.6939 39.6566,35.0959 39.2956,35.2499 C38.4796,35.5979 37.8636,36.3769 37.8026,37.3779 C37.7366,38.4409 38.4056,39.4569 39.4056,39.8239 C40.8266,40.3459 42.3366,39.4999 42.6706,38.0729 C42.8556,37.2799 42.6336,36.4889 42.1406,35.9149 C41.8866,35.6179 41.9136,35.1839 42.1936,34.9109" id="Fill-27" fill="#F1F2F2"></path>
                <path d="M37.2214,36.5144 C37.2564,36.5414 37.3054,36.5394 37.3384,36.5104 L38.1794,35.7544 L37.7134,37.2934 C37.6014,37.6634 37.8104,38.0534 38.1804,38.1654 C38.4604,38.2504 38.7524,38.1514 38.9264,37.9374 L39.0064,37.8384 L40.2224,36.3414 C40.4774,36.0284 40.4294,35.5684 40.1164,35.3134 C39.8024,35.0594 39.3424,35.1074 39.0884,35.4204 L39.0444,35.4744 L39.0104,34.9164 L39.0064,34.8404 C38.9974,34.6924 38.8704,34.5804 38.7224,34.5894 C38.6424,34.5934 38.5724,34.6334 38.5264,34.6914 L37.2054,36.3874 C37.1744,36.4264 37.1814,36.4834 37.2214,36.5144" id="Fill-29" fill="#939698"></path>
                <path d="M38.3552,37.4199 C38.6362,37.5009 38.9202,37.4349 39.0822,37.2729 L39.1562,37.1979 L40.2892,36.0579 C40.3312,36.0149 40.3602,35.9679 40.3832,35.9189 C40.3942,35.6939 40.3042,35.4669 40.1162,35.3139 C39.8032,35.0589 39.3422,35.1069 39.0882,35.4199 L39.0442,35.4739 L39.0112,34.9159 L39.0062,34.8409 C38.9972,34.6929 38.8702,34.5799 38.7222,34.5889 C38.6422,34.5939 38.5722,34.6339 38.5272,34.6919 L37.4852,36.0279 L38.2412,35.4929 L38.1472,35.7839 L38.1792,35.7549 L37.8372,36.8859 C37.8632,37.1169 38.0622,37.3359 38.3552,37.4199" id="Fill-31" fill="#F1F2F2"></path>
                <path d="M50.3244,37.5055 C50.5114,37.7215 50.6984,37.9255 50.8524,38.1155 C51.0904,38.4065 51.4764,38.5385 51.8394,38.4535 C51.8454,38.4515 51.8954,38.4385 51.9014,38.4365 C52.4194,38.2795 52.7144,37.7295 52.5574,37.2115 L52.3854,36.6425 L52.4724,36.7215 C52.5644,36.8025 52.6894,36.8345 52.8084,36.8065 C52.8484,36.7975 52.9214,36.7625 52.9534,36.7375 C53.0314,36.6765 53.0814,36.5885 53.0934,36.4895 C53.1064,36.3895 53.0794,36.2915 53.0184,36.2135 L51.6964,34.5175 C51.5984,34.3925 51.4524,34.3165 51.2954,34.3065 C51.2414,34.3025 51.1874,34.3075 51.1364,34.3195 C50.9004,34.3745 50.7264,34.5815 50.7114,34.8235 L50.7044,34.9345 C49.9184,34.6355 49.2814,35.3795 49.4694,36.1355 C49.5894,36.6165 49.9574,37.0825 50.3244,37.5055" id="Fill-33" fill="#939698"></path>
                <path d="M49.4066,32.9561 C49.4066,32.9561 49.2816,32.7251 49.1246,32.3711 C49.0506,32.1921 48.9546,31.9871 48.8686,31.7631 C48.7846,31.5381 48.6946,31.2991 48.6036,31.0591 C48.4426,30.5761 48.2866,30.0911 48.1946,29.7221 C48.0986,29.3531 48.0566,29.1021 48.0566,29.1021 C48.0306,28.9481 47.8846,28.8441 47.7296,28.8701 C47.5756,28.8961 47.4706,29.0421 47.4976,29.1971 C47.4986,29.2081 47.5016,29.2211 47.5056,29.2311 C47.5056,29.2311 47.5786,29.4751 47.6566,29.8471 C47.7386,30.2191 47.8136,30.7231 47.8826,31.2281 C47.9076,31.4821 47.9336,31.7371 47.9576,31.9761 C47.9806,32.2151 47.9856,32.4411 47.9976,32.6341 C48.0136,33.0211 48.0046,33.2841 48.0046,33.2841 C47.9906,33.6961 48.3126,34.0411 48.7246,34.0551 C49.1356,34.0691 49.4816,33.7471 49.4956,33.3351 C49.4996,33.1991 49.4666,33.0681 49.4066,32.9561" id="Fill-35" fill="#FFB200"></path>
                <path d="M47.8064,34.9109 C47.5534,34.6649 47.3824,34.3259 47.3504,33.9319 C47.3004,33.2989 47.6754,32.6749 48.2594,32.4249 C49.1584,32.0419 50.1404,32.5679 50.3524,33.4739 C50.4204,33.7669 50.3994,34.0599 50.3064,34.3239 C50.1764,34.6939 50.3434,35.0959 50.7044,35.2499 C51.5204,35.5979 52.1364,36.3769 52.1974,37.3779 C52.2634,38.4409 51.5944,39.4569 50.5944,39.8239 C49.1734,40.3459 47.6634,39.4999 47.3294,38.0729 C47.1444,37.2799 47.3664,36.4889 47.8594,35.9149 C48.1134,35.6179 48.0864,35.1839 47.8064,34.9109" id="Fill-37" fill="#F1F2F2"></path>
                <path d="M48.4584,32.0628 C48.3534,32.0878 48.2494,32.1218 48.1484,32.1648 C47.4524,32.4618 47.0074,33.1978 47.0684,33.9548 C47.1034,34.3968 47.2954,34.8088 47.6084,35.1138 C47.7844,35.2848 47.7994,35.5498 47.6444,35.7308 C47.0764,36.3918 46.8564,37.2918 47.0544,38.1378 C47.3994,39.6148 48.8824,40.5348 50.3594,40.1898 C50.4714,40.1638 50.5824,40.1298 50.6914,40.0898 C51.8184,39.6758 52.5544,38.5538 52.4804,37.3598 C52.4154,36.3078 51.7774,35.3988 50.8154,34.9888 C50.5964,34.8958 50.4924,34.6498 50.5744,34.4178 C50.6874,34.0938 50.7064,33.7448 50.6274,33.4098 C50.4014,32.4408 49.4274,31.8358 48.4584,32.0628" id="Fill-39" fill="#939698"></path>
                <path d="M47.8064,34.9109 C47.5534,34.6649 47.3824,34.3259 47.3504,33.9319 C47.3004,33.2989 47.6754,32.6749 48.2594,32.4249 C49.1584,32.0419 50.1404,32.5679 50.3524,33.4739 C50.4204,33.7669 50.3994,34.0599 50.3064,34.3239 C50.1764,34.6939 50.3434,35.0959 50.7044,35.2499 C51.5204,35.5979 52.1364,36.3769 52.1974,37.3779 C52.2634,38.4409 51.5944,39.4569 50.5944,39.8239 C49.1734,40.3459 47.6634,39.4999 47.3294,38.0729 C47.1444,37.2799 47.3664,36.4889 47.8594,35.9149 C48.1134,35.6179 48.0864,35.1839 47.8064,34.9109" id="Fill-41" fill="#F1F2F2"></path>
                <path d="M52.7944,36.387 L51.4734,34.692 C51.4274,34.634 51.3574,34.594 51.2774,34.589 C51.1294,34.58 51.0024,34.693 50.9934,34.841 L50.9894,34.916 L50.9554,35.474 L50.9114,35.42 C50.6574,35.107 50.1974,35.059 49.8844,35.314 C49.5704,35.568 49.5234,36.028 49.7774,36.341 L50.9934,37.839 L51.0734,37.938 C51.2474,38.151 51.5394,38.25 51.8194,38.166 C52.1894,38.054 52.3984,37.663 52.2864,37.293 L51.8204,35.755 L52.6624,36.51 C52.6944,36.539 52.7434,36.542 52.7784,36.514 C52.8184,36.484 52.8254,36.427 52.7944,36.387" id="Fill-43" fill="#939698"></path>
                <path d="M51.6448,37.4199 C51.3638,37.5009 51.0798,37.4349 50.9178,37.2729 L50.8438,37.1979 L49.7108,36.0579 C49.6688,36.0149 49.6398,35.9679 49.6168,35.9189 C49.6058,35.6939 49.6958,35.4669 49.8838,35.3139 C50.1968,35.0589 50.6578,35.1069 50.9118,35.4199 L50.9558,35.4739 L50.9888,34.9159 L50.9938,34.8409 C51.0028,34.6929 51.1298,34.5799 51.2778,34.5889 C51.3578,34.5939 51.4278,34.6339 51.4728,34.6919 L52.5148,36.0279 L51.7588,35.4929 L51.8528,35.7839 L51.8208,35.7549 L52.1628,36.8859 C52.1368,37.1169 51.9378,37.3359 51.6448,37.4199" id="Fill-45" fill="#F1F2F2"></path>
                <path d="M46.8366,38.6403 C46.4646,38.6403 46.1176,38.4233 45.9536,38.0883 L45.0546,36.2383 C45.0336,36.1923 45.0146,36.1463 44.9996,36.0993 C44.9846,36.1463 44.9666,36.1923 44.9456,36.2373 L44.0466,38.0873 C43.8816,38.4233 43.5356,38.6403 43.1626,38.6403 C43.1566,38.6403 43.1056,38.6383 43.0996,38.6383 C42.5586,38.6033 42.1466,38.1353 42.1806,37.5943 L42.2196,37.0013 L42.1516,37.0983 C42.0816,37.1983 41.9666,37.2583 41.8446,37.2583 C41.8036,37.2583 41.7246,37.2403 41.6876,37.2233 C41.5976,37.1813 41.5286,37.1073 41.4946,37.0133 C41.4596,36.9193 41.4636,36.8183 41.5056,36.7273 L42.4056,34.7753 C42.4736,34.6313 42.5976,34.5233 42.7486,34.4783 C42.8006,34.4623 42.8536,34.4553 42.9066,34.4553 C43.1486,34.4553 43.3656,34.6173 43.4356,34.8483 L43.4666,34.9553 C43.6316,34.8443 43.8286,34.7813 44.0336,34.7813 C44.1876,34.7813 44.3366,34.8153 44.4756,34.8833 C44.7376,35.0103 44.9196,35.2353 44.9996,35.4933 C45.0806,35.2353 45.2626,35.0103 45.5236,34.8833 C45.6636,34.8153 45.8116,34.7813 45.9666,34.7813 C46.1716,34.7813 46.3676,34.8443 46.5326,34.9553 L46.5646,34.8493 C46.6346,34.6173 46.8516,34.4553 47.0936,34.4553 C47.1466,34.4553 47.1996,34.4623 47.2506,34.4783 C47.4026,34.5243 47.5276,34.6323 47.5936,34.7753 L48.4946,36.7273 C48.5806,36.9143 48.4986,37.1363 48.3116,37.2233 C48.2746,37.2403 48.1956,37.2583 48.1546,37.2583 C48.0336,37.2583 47.9186,37.1983 47.8486,37.0983 L47.7806,37.0013 L47.8186,37.5943 C47.8356,37.8563 47.7496,38.1093 47.5756,38.3063 C47.4026,38.5033 47.1626,38.6213 46.9006,38.6383 C46.8946,38.6383 46.8426,38.6403 46.8366,38.6403" id="Fill-47" fill="#939698"></path>
                <path d="M44.2801,32.7335 C44.2801,32.7335 44.3491,32.4795 44.4221,32.0995 C44.4531,31.9085 44.5001,31.6865 44.5321,31.4485 C44.5631,31.2115 44.5961,30.9575 44.6291,30.7035 C44.6771,30.1965 44.7191,29.6885 44.7231,29.3085 C44.7331,28.9275 44.7171,28.6735 44.7171,28.6735 C44.7071,28.5175 44.8261,28.3825 44.9821,28.3725 C45.1381,28.3625 45.2731,28.4815 45.2831,28.6375 C45.2841,28.6495 45.2841,28.6625 45.2831,28.6735 C45.2831,28.6735 45.2671,28.9275 45.2761,29.3085 C45.2811,29.6885 45.3231,30.1965 45.3701,30.7035 C45.4041,30.9575 45.4371,31.2115 45.4681,31.4485 C45.5001,31.6865 45.5471,31.9085 45.5781,32.0995 C45.6511,32.4795 45.7201,32.7335 45.7201,32.7335 C45.8271,33.1315 45.5921,33.5405 45.1951,33.6485 C44.7971,33.7555 44.3881,33.5205 44.2801,33.1225 C44.2441,32.9915 44.2471,32.8565 44.2801,32.7335" id="Fill-49" fill="#FFB200"></path>
                <path d="M46.2834,34.2726 C46.4734,33.9746 46.5634,33.6066 46.5044,33.2156 C46.4094,32.5876 45.9014,32.0656 45.2754,31.9556 C44.3134,31.7866 43.4774,32.5226 43.4774,33.4536 C43.4774,33.7536 43.5644,34.0346 43.7154,34.2706 C43.9264,34.6016 43.8554,35.0306 43.5384,35.2626 C42.8234,35.7876 42.4014,36.6856 42.5694,37.6746 C42.7474,38.7246 43.6304,39.5616 44.6874,39.6916 C46.1904,39.8756 47.4674,38.7086 47.4674,37.2436 C47.4674,36.4286 47.0704,35.7086 46.4604,35.2616 C46.1454,35.0306 46.0724,34.6026 46.2834,34.2726" id="Fill-51" fill="#F1F2F2"></path>
                <path d="M45,31.6478 C44.004,31.6478 43.194,32.4578 43.194,33.4538 C43.194,33.7978 43.292,34.1328 43.476,34.4228 C43.609,34.6298 43.563,34.8928 43.371,35.0338 C42.528,35.6528 42.114,36.6828 42.29,37.7218 C42.49,38.9008 43.462,39.8268 44.653,39.9728 C44.769,39.9868 44.885,39.9938 45,39.9938 C46.517,39.9938 47.751,38.7598 47.751,37.2428 C47.751,36.3748 47.331,35.5488 46.628,35.0338 C46.436,34.8928 46.39,34.6308 46.522,34.4248 C46.758,34.0568 46.851,33.6128 46.784,33.1738 C46.671,32.4228 46.071,31.8068 45.325,31.6768 C45.217,31.6578 45.108,31.6478 45,31.6478" id="Fill-53" fill="#939698"></path>
                <path d="M46.2834,34.2726 C46.4734,33.9746 46.5634,33.6066 46.5044,33.2156 C46.4094,32.5876 45.9014,32.0656 45.2754,31.9556 C44.3134,31.7866 43.4774,32.5226 43.4774,33.4536 C43.4774,33.7536 43.5644,34.0346 43.7154,34.2706 C43.9264,34.6016 43.8554,35.0306 43.5384,35.2626 C42.8234,35.7876 42.4014,36.6856 42.5694,37.6746 C42.7474,38.7246 43.6304,39.5616 44.6874,39.6916 C46.1904,39.8756 47.4674,38.7086 47.4674,37.2436 C47.4674,36.4286 47.0704,35.7086 46.4604,35.2616 C46.1454,35.0306 46.0724,34.6026 46.2834,34.2726" id="Fill-55" fill="#F1F2F2"></path>
                <path d="M41.8071,36.9662 C41.8481,36.9852 41.8951,36.9712 41.9201,36.9362 L42.5671,36.0082 L42.4641,37.6122 C42.4391,37.9982 42.7321,38.3312 43.1171,38.3552 C43.4091,38.3742 43.6711,38.2112 43.7911,37.9632 L43.8471,37.8492 L44.6901,36.1142 C44.8661,35.7512 44.7151,35.3142 44.3521,35.1382 C43.9891,34.9612 43.5521,35.1122 43.3761,35.4752 L43.3451,35.5382 L43.1851,35.0022 L43.1641,34.9302 C43.1211,34.7882 42.9721,34.7072 42.8301,34.7492 C42.7531,34.7722 42.6941,34.8272 42.6631,34.8942 L41.7631,36.8452 C41.7421,36.8912 41.7611,36.9452 41.8071,36.9662 M48.1931,36.9662 C48.1521,36.9852 48.1051,36.9712 48.0801,36.9362 L47.4331,36.0082 L47.5361,37.6122 C47.5611,37.9982 47.2681,38.3312 46.8831,38.3552 C46.5911,38.3742 46.3291,38.2112 46.2081,37.9632 L46.1531,37.8492 L45.3101,36.1142 C45.1341,35.7512 45.2851,35.3142 45.6481,35.1382 C46.0111,34.9612 46.4481,35.1122 46.6241,35.4752 L46.6541,35.5382 L46.8141,35.0022 L46.8361,34.9302 C46.8781,34.7882 47.0281,34.7072 47.1701,34.7492 C47.2461,34.7722 47.3051,34.8272 47.3371,34.8942 L48.2371,36.8452 C48.2581,36.8912 48.2381,36.9452 48.1931,36.9662" id="Fill-57" fill="#939698"></path>
                <path d="M47.17,34.7496 C47.028,34.7076 46.879,34.7876 46.836,34.9296 L46.815,35.0026 L46.655,35.5376 L46.624,35.4756 C46.448,35.1126 46.011,34.9616 45.648,35.1376 C45.43,35.2436 45.29,35.4446 45.25,35.6666 C45.261,35.7196 45.279,35.7726 45.31,35.8226 L46.153,37.1906 L46.208,37.2806 C46.329,37.4756 46.591,37.6046 46.883,37.5896 C47.187,37.5746 47.431,37.4066 47.509,37.1876 L47.433,36.0086 L47.458,36.0436 L47.433,35.7396 L48.046,36.4326 L47.337,34.8946 C47.306,34.8276 47.246,34.7726 47.17,34.7496" id="Fill-59" fill="#F1F2F2"></path>
                <path d="M43.1173,37.5897 C43.4093,37.6047 43.6713,37.4757 43.7913,37.2807 L43.8473,37.1907 L44.6903,35.8227 C44.7213,35.7717 44.7383,35.7197 44.7503,35.6667 C44.7103,35.4447 44.5703,35.2437 44.3523,35.1377 C43.9893,34.9617 43.5523,35.1127 43.3753,35.4757 L43.3453,35.5377 L43.1853,35.0027 L43.1633,34.9297 C43.1213,34.7877 42.9723,34.7067 42.8303,34.7497 C42.7533,34.7727 42.6943,34.8277 42.6633,34.8947 L41.9533,36.4327 L42.5673,35.7397 L42.5423,36.0437 L42.5673,36.0087 L42.4913,37.1877 C42.5693,37.4067 42.8133,37.5747 43.1173,37.5897" id="Fill-61" fill="#F1F2F2"></path>
                <path d="M57.3361,37.631 C57.3361,35.981 55.8171,34.499 53.4011,33.456 C53.3871,33.503 53.3721,33.549 53.3571,33.595 C54.1681,34.083 54.6381,34.648 54.6381,35.251 C54.6381,37.774 47.9501,38.585 45.0001,38.585 C42.4161,38.585 35.3611,37.821 35.3611,35.251 C35.3611,34.648 35.8321,34.083 36.6431,33.595 C36.6281,33.549 36.6121,33.503 36.5981,33.456 C34.1831,34.499 32.6641,35.981 32.6641,37.631 C32.6641,39.063 33.8101,40.369 35.6901,41.372 C37.1531,42.25 40.6991,43.344 45.0001,43.344 C49.3531,43.344 53.1071,42.153 54.1761,41.44 C56.1351,40.429 57.3361,39.096 57.3361,37.631" id="Fill-63" fill="#E89B00"></path>
                <polygon id="Fill-65" fill="#F1F2F2" points="27.0828 42.9886 18.4498 42.9886 19.4508 45.2386 18.4498 47.4886 24.5718 47.4886"></polygon>
                <polygon id="Fill-67" fill="#939698" points="22.0601 44.9299 27.0831 42.9889 24.5711 48.0719 19.4731 49.2089"></polygon>
                <polygon id="Fill-69" fill="#F1F2F2" points="62.9172 42.9886 71.5502 42.9886 70.5492 45.2386 71.5502 47.4886 65.4282 47.4886"></polygon>
                <polygon id="Fill-71" fill="#939698" points="67.9399 44.9299 62.9169 42.9889 65.4289 48.0719 70.5269 49.2089"></polygon>
                <path d="M44.9995,56.3479 C36.1715,56.3479 27.3465,53.9689 19.4735,49.2089 L22.0605,44.9299 C36.2085,53.4839 53.7895,53.4829 67.9395,44.9299 L70.5255,49.2089 C62.6545,53.9679 53.8255,56.3479 44.9995,56.3479" id="Fill-73" fill="#FFFFFF"></path>
            </g>
        </g>
    </g>
</svg>