<svg width="90" height="65" viewBox="0 0 90 65" xmlns="http://www.w3.org/2000/svg"><title>Louisiana</title><g fill="none" fill-rule="evenodd"><path d="M80 65H10C4.477 65 0 60.523 0 55V10C0 4.477 4.477 0 10 0h70c5.523 0 10 4.477 10 10v45c0 5.523-4.477 10-10 10" fill="#1A53AD"/><path d="M45 38.585c-5.323 0-9.638-1.493-9.638-3.334s4.315-3.333 9.638-3.333c5.323 0 9.638 1.492 9.638 3.333 0 1.84-4.315 3.334-9.638 3.334" fill="#896A45"/><path d="M60.497 13.802c-.615-2.222-3.636-2.548-4.737-.522l-6.884 12.677c-.277-1.41-.778-2.972-1.586-4.714-.222-.56-.377-1.745-.58-2.85-.109-.584.453-1.061 1.021-.882 5.15 1.623 3.783-9.191-2.849-8.513a4.372 4.372 0 0 0-.36.05c-7.474 1.517-.494 12.475-2.7 18.194L34.24 13.28c-1.1-2.026-4.12-1.7-4.736.522-2.284 8.245-5.968 16.114-11.053 23.606l4.34-.275a6.274 6.274 0 0 0 4.307-2.107l1.766-1.997 2.092-.138a6.13 6.13 0 0 0 4.768-2.83l.324-.511c.57 10.399 17.153 13.722 17.905 0l.325.51a6.13 6.13 0 0 0 4.767 2.83l2.093.139 1.766 1.997a6.272 6.272 0 0 0 4.307 2.107l4.34.275c-5.086-7.492-8.77-15.361-11.053-23.606" fill="#F1F2F2"/><path d="M45.878 15.229l3.592 2.235s.868 8.544 1.173 10.9c.305 2.356-1.959 3.814-2.383 3.814 0 0-.135-.911.73-1.55l-3.112-15.4zM50.734 15.94c.708.52 1.602-2.049.918-5.51-.137-1.095.27-1.778.27-1.778L50.865 9.7l-.625-.733-.547 1.143-1.094-.775v1.322l-1.047-.137s1.864 2.551 2.185 3.508c.32.957.124 1.272.997 1.912" fill="#FFB200"/><path d="M47.546 14.712a.729.729 0 1 1 1.457-.001.729.729 0 0 1-1.457 0M36.047 29.55c0 13.992 17.905 13.992 17.905 0l-1.845 4.48v-1.549l-1.822 2.688-.549-1.686-1.462 1.313-1.452-1.723L45 35.078l-1.094-1.595-.866 1.313-2.14-2.619-.183 1.944-2.005-2.688.365 3.363-3.03-5.247zM47.386 22.694s-5.429-5.506-1.508-7.465l1.508 7.465z" fill="#939698"/><path d="M45.91 15.211s.16.203.398.584c.246.376.554.938.896 1.626.336.69.677 1.52.991 2.425.29.913.554 1.9.783 2.894.245.99.451 1.987.631 2.924.09.47.163.924.234 1.355.081.433.122.853.09 1.254a4.396 4.396 0 0 1-.528 1.788c-.215.396-.388.59-.388.59l-.056-.046s.153-.199.334-.599a4.213 4.213 0 0 0 .383-1.742c.005-.36-.062-.763-.172-1.18l-.31-1.33a55.477 55.477 0 0 0-.78-2.86c-.29-.967-.634-1.915-.94-2.806l-.812-2.447a92.7 92.7 0 0 0-.818-2.395l.064-.035z" fill="#E89B00"/><path d="M39.676 37.505c-.187.216-.374.42-.528.61a.99.99 0 0 1-.987.338l-.062-.017a.984.984 0 0 1-.656-1.224l.172-.57-.087.08a.378.378 0 0 1-.336.084.484.484 0 0 1-.145-.069.37.37 0 0 1-.14-.248.368.368 0 0 1 .075-.275l1.322-1.697a.554.554 0 0 1 .56-.198c.236.055.41.262.425.505l.007.11c.786-.298 1.423.446 1.235 1.202-.12.48-.488.947-.855 1.37" fill="#939698"/><path d="M40.593 32.956s.125-.23.282-.585c.074-.179.17-.384.256-.608l.265-.704c.161-.483.317-.968.41-1.337.095-.369.137-.62.137-.62a.283.283 0 1 1 .551.13s-.073.243-.15.615a18.94 18.94 0 0 0-.227 1.381c-.025.254-.05.51-.075.748-.023.24-.028.465-.04.658-.016.387-.007.65-.007.65a.746.746 0 1 1-1.402-.328" fill="#FFB200"/><path d="M42.194 34.91c.253-.245.424-.584.456-.978a1.533 1.533 0 0 0-.91-1.507 1.525 1.525 0 0 0-2.046 1.899.732.732 0 0 1-.398.926 2.453 2.453 0 0 0-1.493 2.128 2.478 2.478 0 0 0 1.603 2.446 2.469 2.469 0 0 0 3.265-1.751 2.449 2.449 0 0 0-.53-2.158.73.73 0 0 1 .053-1.004" fill="#F1F2F2"/><path d="M41.542 32.063a1.807 1.807 0 0 0-2.116 2.355.448.448 0 0 1-.241.57 2.743 2.743 0 0 0-1.665 2.372 2.748 2.748 0 0 0 2.12 2.83 2.754 2.754 0 0 0 3.306-2.052 2.746 2.746 0 0 0-.59-2.407.447.447 0 0 1 .036-.617 1.81 1.81 0 0 0-.85-3.051" fill="#939698"/><path d="M42.194 34.91c.253-.245.424-.584.456-.978a1.533 1.533 0 0 0-.91-1.507 1.525 1.525 0 0 0-2.046 1.899.732.732 0 0 1-.398.926 2.453 2.453 0 0 0-1.493 2.128 2.478 2.478 0 0 0 1.603 2.446 2.469 2.469 0 0 0 3.265-1.751 2.449 2.449 0 0 0-.53-2.158.73.73 0 0 1 .053-1.004" fill="#F1F2F2"/><path d="M37.221 36.514a.092.092 0 0 0 .117-.004l.841-.756-.466 1.54a.7.7 0 0 0 1.213.643l.08-.099 1.216-1.497a.73.73 0 1 0-1.134-.92l-.044.053-.034-.558-.004-.076a.268.268 0 0 0-.284-.25.268.268 0 0 0-.196.101l-1.32 1.696a.09.09 0 0 0 .015.127" fill="#939698"/><path d="M38.355 37.42c.281.08.565.015.727-.147l.074-.075 1.133-1.14a.495.495 0 0 0 .094-.14.73.73 0 0 0-1.295-.498l-.044.054-.033-.558-.005-.075a.268.268 0 0 0-.479-.15l-1.042 1.337.756-.535-.094.29.032-.028-.342 1.13c.026.232.225.45.518.535" fill="#F1F2F2"/><path d="M50.324 37.505c.187.216.374.42.528.61a.99.99 0 0 0 .987.338l.062-.017a.984.984 0 0 0 .656-1.224l-.172-.57.087.08a.378.378 0 0 0 .336.084.484.484 0 0 0 .145-.069.37.37 0 0 0 .14-.248.368.368 0 0 0-.075-.275l-1.322-1.697a.554.554 0 0 0-.56-.198.555.555 0 0 0-.425.505l-.007.11c-.786-.298-1.423.446-1.235 1.202.12.48.488.947.855 1.37" fill="#939698"/><path d="M49.407 32.956s-.125-.23-.282-.585c-.074-.179-.17-.384-.256-.608l-.265-.704a19.878 19.878 0 0 1-.41-1.337c-.095-.369-.137-.62-.137-.62a.283.283 0 1 0-.551.13s.073.243.15.615c.083.372.158.876.227 1.381.025.254.05.51.075.748.023.24.028.465.04.658.016.387.007.65.007.65a.746.746 0 1 0 1.402-.328" fill="#FFB200"/><path d="M47.806 34.91a1.527 1.527 0 0 1-.456-.978 1.533 1.533 0 0 1 .91-1.507 1.525 1.525 0 0 1 2.046 1.899c-.13.37.037.772.398.926a2.453 2.453 0 0 1 1.493 2.128 2.478 2.478 0 0 1-1.603 2.446 2.469 2.469 0 0 1-3.265-1.751 2.449 2.449 0 0 1 .53-2.158.73.73 0 0 0-.053-1.004" fill="#F1F2F2"/><path d="M48.458 32.063a1.81 1.81 0 0 0-1.39 1.892c.035.442.227.854.54 1.159a.447.447 0 0 1 .036.617 2.746 2.746 0 0 0-.59 2.407 2.754 2.754 0 0 0 3.637 1.952 2.748 2.748 0 0 0 1.79-2.73 2.743 2.743 0 0 0-1.666-2.371.448.448 0 0 1-.24-.571 1.807 1.807 0 0 0-2.116-2.355" fill="#939698"/><path d="M47.806 34.91a1.527 1.527 0 0 1-.456-.978 1.533 1.533 0 0 1 .91-1.507 1.525 1.525 0 0 1 2.046 1.899c-.13.37.037.772.398.926a2.453 2.453 0 0 1 1.493 2.128 2.478 2.478 0 0 1-1.603 2.446 2.469 2.469 0 0 1-3.265-1.751 2.449 2.449 0 0 1 .53-2.158.73.73 0 0 0-.053-1.004" fill="#F1F2F2"/><path d="M52.794 36.387l-1.32-1.695a.268.268 0 0 0-.48.149l-.005.075-.034.558-.044-.054a.73.73 0 1 0-1.134.921l1.216 1.498.08.099a.7.7 0 0 0 1.213-.645l-.466-1.538.842.755a.09.09 0 0 0 .116.004.09.09 0 0 0 .016-.127" fill="#939698"/><path d="M51.645 37.42c-.281.08-.565.015-.727-.147l-.074-.075-1.133-1.14a.495.495 0 0 1-.094-.14.73.73 0 0 1 1.295-.498l.044.054.033-.558.005-.075a.268.268 0 0 1 .479-.15l1.042 1.337-.756-.535.094.29-.032-.028.342 1.13c-.026.232-.225.45-.518.535" fill="#F1F2F2"/><path d="M46.837 38.64a.99.99 0 0 1-.883-.552l-.9-1.85A1.254 1.254 0 0 1 45 36.1a1.16 1.16 0 0 1-.054.138l-.9 1.85a.991.991 0 0 1-.883.553l-.063-.002a.985.985 0 0 1-.92-1.044l.04-.593-.068.097c-.07.1-.185.16-.307.16a.37.37 0 0 1-.35-.245.369.369 0 0 1 .01-.286l.9-1.952a.555.555 0 0 1 .502-.32c.242 0 .459.162.529.393l.03.107a1.017 1.017 0 0 1 1.01-.072c.262.127.444.352.524.61a1.013 1.013 0 0 1 1.533-.538l.032-.106a.556.556 0 0 1 .686-.37.554.554 0 0 1 .343.296l.9 1.952a.375.375 0 0 1-.182.496.497.497 0 0 1-.157.035.375.375 0 0 1-.306-.16l-.068-.097.038.593a.973.973 0 0 1-.243.712.977.977 0 0 1-.675.332l-.064.002" fill="#939698"/><path d="M44.28 32.733s.07-.253.142-.633c.031-.192.078-.414.11-.652l.097-.745c.048-.506.09-1.014.094-1.395.01-.38-.006-.634-.006-.634a.284.284 0 1 1 .566 0s-.016.253-.007.634c.005.38.047.889.094 1.395l.098.745c.032.238.08.46.11.651.073.38.142.635.142.635a.747.747 0 0 1-1.44.389.744.744 0 0 1 0-.39" fill="#FFB200"/><path d="M46.283 34.273c.19-.298.28-.666.221-1.057a1.523 1.523 0 1 0-2.789 1.055.73.73 0 0 1-.177.992 2.454 2.454 0 0 0-.969 2.412 2.48 2.48 0 0 0 2.118 2.017 2.468 2.468 0 0 0 2.78-2.448c0-.815-.397-1.535-1.007-1.982a.729.729 0 0 1-.177-.99" fill="#F1F2F2"/><path d="M45 31.648a1.808 1.808 0 0 0-1.524 2.775.449.449 0 0 1-.105.61A2.745 2.745 0 0 0 45 39.994a2.754 2.754 0 0 0 2.751-2.75 2.75 2.75 0 0 0-1.123-2.21.447.447 0 0 1-.106-.608A1.809 1.809 0 0 0 45 31.648" fill="#939698"/><path d="M46.283 34.273c.19-.298.28-.666.221-1.057a1.523 1.523 0 1 0-2.789 1.055.73.73 0 0 1-.177.992 2.454 2.454 0 0 0-.969 2.412 2.48 2.48 0 0 0 2.118 2.017 2.468 2.468 0 0 0 2.78-2.448c0-.815-.397-1.535-1.007-1.982a.729.729 0 0 1-.177-.99" fill="#F1F2F2"/><path d="M41.807 36.966a.091.091 0 0 0 .113-.03l.647-.928-.103 1.604a.699.699 0 0 0 1.327.351l.056-.114.843-1.735a.73.73 0 0 0-1.314-.639l-.03.063-.16-.536-.022-.072a.27.27 0 0 0-.5-.036l-.9 1.951a.09.09 0 0 0 .043.121m6.386 0a.091.091 0 0 1-.113-.03l-.647-.928.103 1.604a.699.699 0 0 1-1.328.351l-.055-.114-.843-1.735a.73.73 0 0 1 1.314-.639l.03.063.16-.536.022-.072a.269.269 0 0 1 .501-.036l.9 1.951c.021.046.001.1-.044.121" fill="#939698"/><path d="M47.17 34.75a.269.269 0 0 0-.334.18l-.021.073-.16.535-.031-.062a.73.73 0 0 0-1.374.19.475.475 0 0 0 .06.157l.843 1.368.055.09c.121.195.383.324.675.309.304-.015.548-.183.626-.402l-.076-1.18.025.036-.025-.304.613.693-.709-1.538a.272.272 0 0 0-.167-.145M43.117 37.59c.292.015.554-.114.674-.31l.056-.09.843-1.367a.508.508 0 0 0 .06-.156.729.729 0 0 0-1.375-.191l-.03.062-.16-.535-.022-.073a.267.267 0 0 0-.333-.18.269.269 0 0 0-.167.145l-.71 1.538.614-.693-.025.304.025-.035-.076 1.179c.078.219.322.387.626.402" fill="#F1F2F2"/><path d="M57.336 37.631c0-1.65-1.519-3.132-3.935-4.175a5.645 5.645 0 0 1-.044.139c.811.488 1.281 1.053 1.281 1.656 0 2.523-6.688 3.334-9.638 3.334-2.584 0-9.639-.764-9.639-3.334 0-.603.471-1.168 1.282-1.656l-.045-.139c-2.415 1.043-3.934 2.525-3.934 4.175 0 1.432 1.146 2.738 3.026 3.741 1.463.878 5.01 1.972 9.31 1.972 4.353 0 8.107-1.191 9.176-1.904 1.96-1.011 3.16-2.344 3.16-3.809" fill="#E89B00"/><path fill="#F1F2F2" d="M27.083 42.989H18.45l1 2.25-1 2.25h6.122z"/><path fill="#939698" d="M22.06 44.93l5.023-1.941-2.512 5.083-5.098 1.137z"/><path fill="#F1F2F2" d="M62.917 42.989h8.633l-1 2.25 1 2.25h-6.122z"/><path fill="#939698" d="M67.94 44.93l-5.023-1.941 2.512 5.083 5.098 1.137z"/><path d="M45 56.348a49.274 49.274 0 0 1-25.526-7.14l2.587-4.278c14.148 8.554 31.728 8.553 45.878 0l2.587 4.279A49.284 49.284 0 0 1 45 56.348" fill="#FFF"/></g></svg>