<svg width="90" height="65" viewBox="0 0 90 65" xmlns="http://www.w3.org/2000/svg" xmlns:xlink="http://www.w3.org/1999/xlink"><title>Maryland</title><defs><path d="M10 0C4.477 0 0 4.477 0 10v45c0 5.523 4.477 10 10 10h70c5.523 0 10-4.477 10-10V10c0-5.523-4.477-10-10-10H10z" id="a"/></defs><g fill="none" fill-rule="evenodd"><mask id="b" fill="#fff"><use xlink:href="#a"/></mask><path fill="#F1F2F2" mask="url(#b)" d="M45 33h45V0H45zM0 65h45V32H0z"/><path fill="#FFB200" mask="url(#b)" d="M0 32h45V0H0z"/><path fill="#000" mask="url(#b)" d="M7.5 9.6V32H15V15.2zM15 0H7.5L15 5.6zM22.5 20.8V32H30v-5.6zM30 16.8V0h-7.5v11.2zM37.5 0v22.4L45 28V0zM7.5 0H0v4l7.5 5.6zM15 5.6v9.6l7.5 5.6v-9.6zM30 16.8v9.6l7.5 5.6v-9.6z"/><path fill="#FFB200" mask="url(#b)" d="M45 65h45V33H45z"/><path fill="#000" mask="url(#b)" d="M52.5 42.6V65H60V48.2zM60 33h-7.5l7.5 5.6zM67.5 53.8V65H75v-5.6zM75 49.8V33h-7.5v11.2zM82.5 33v22.4L90 61V33zM52.5 33H45v4l7.5 5.6zM60 38.6v9.6l7.5 5.6v-9.6zM75 49.8v9.6l7.5 5.6v-9.6z"/><path d="M67.5 0a3.49 3.49 0 0 0-3.45 3H63a2 2 0 1 0 0 4h1v6H52v-1a2 2 0 1 0-4 0v1.05a3.49 3.49 0 0 0-3 3.45h22.5V0zm0 0a3.49 3.49 0 0 1 3.45 3H72a2 2 0 1 1 0 4h-1v6h12v-1a2 2 0 1 1 4 0v1.05a3.49 3.49 0 0 1 3 3.45V0H67.5zm0 0H67v17h23v-.5H67.5V0zm0 16.5V33a3.49 3.49 0 0 0 3.45-3H72a2 2 0 1 0 0-4h-1v-6h12v1a2 2 0 1 0 4 0v-1.05a3.49 3.49 0 0 0 3-3.45H67.5zM64.05 30H63a2 2 0 1 1 0-4h1v-6H52v1a2 2 0 1 1-4 0v-1.05a3.49 3.49 0 0 1-3-3.45V33h22.5a3.49 3.49 0 0 1-3.45-3zM68 16v17h-.5V16.5H45V16h23z" fill="#CF1B2B" mask="url(#b)"/><path fill="#F1F2F2" mask="url(#b)" d="M0 65h45V32H0z"/><path d="M22.5 32a3.49 3.49 0 0 0-3.45 3H18a2 2 0 1 0 0 4h1v6H7v-1a2 2 0 1 0-4 0v1.05a3.49 3.49 0 0 0-3 3.45h22.5V32zm0 0a3.49 3.49 0 0 1 3.45 3H27a2 2 0 1 1 0 4h-1v6h12v-1a2 2 0 1 1 4 0v1.05a3.49 3.49 0 0 1 3 3.45V32H22.5zm0 0H22v17h23v-.5H22.5V32zm0 16.5V65a3.49 3.49 0 0 0 3.45-3H27a2 2 0 1 0 0-4h-1v-6h12v1a2 2 0 1 0 4 0v-1.05a3.49 3.49 0 0 0 3-3.45H22.5zM19.05 62H18a2 2 0 1 1 0-4h1v-6H7v1a2 2 0 1 1-4 0v-1.05a3.49 3.49 0 0 1-3-3.45V65h22.5a3.49 3.49 0 0 1-3.45-3zM23 48v17h-.5V48.5H0V48h23z" fill="#CF1B2B" mask="url(#b)"/></g></svg>