<?xml version="1.0" encoding="UTF-8" standalone="no"?>
<svg width="90px" height="65px" viewBox="0 0 90 65" version="1.1" xmlns="http://www.w3.org/2000/svg" xmlns:xlink="http://www.w3.org/1999/xlink">
    <!-- Generator: Sketch 3.7.2 (28276) - http://www.bohemiancoding.com/sketch -->
    <title>Mississippi</title>
    <desc>Created with Sketch.</desc>
    <defs></defs>
    <g id="Page-1" stroke="none" stroke-width="1" fill="none" fill-rule="evenodd">
        <g id="Mississippi">
            <g id="Page-1">
                <path d="M44,0 L10,0 C4.477,0 0,4.477 0,10 L0,44 L90,44 L90,22 L44,22 L44,0 Z" id="Fill-1" fill="#F1F2F2"></path>
                <path d="M80,0 L44,0 L44,22 L90,22 L90,10 C90,4.477 85.523,0 80,0" id="Fill-3" fill="#00247D"></path>
                <path d="M0,55 C0,60.523 4.477,65 10,65 L80,65 C85.523,65 90,60.523 90,55 L90,44 L0,44 L0,55 Z" id="Fill-5" fill="#CF1B2B"></path>
                <path d="M42,42 L2,42 L2,10 C2,5.582 5.582,2 10,2 L42,2 L42,42 Z" id="Fill-7" fill="#CF1B2B"></path>
                <path d="M42,2 L36.343,2 L22,16.343 L7.936,2.279 C5.179,3.014 3.014,5.179 2.279,7.936 L16.343,22 L2,36.343 L2,42 L7.657,42 L22,27.657 L36.343,42 L42,42 L42,36.343 L27.657,22 L42,7.657 L42,2 Z" id="Fill-9" fill="#00247D"></path>
                <path d="M43.5,0.5 L42,0.5 L36.343,0.5 L35.722,0.5 L35.282,0.939 L22,14.222 L8.996,1.218 L8.385,0.607 L7.549,0.83 C4.277,1.703 1.703,4.277 0.83,7.549 L0.607,8.385 L1.218,8.996 L14.222,22 L0.939,35.282 L0.5,35.722 L0.5,36.343 L0.5,42 L0.5,43.5 L2,43.5 L7.657,43.5 L8.278,43.5 L8.718,43.061 L22,29.778 L35.282,43.061 L35.722,43.5 L36.343,43.5 L42,43.5 L43.5,43.5 L43.5,42 L43.5,36.343 L43.5,35.722 L43.061,35.282 L29.778,22 L43.061,8.718 L43.5,8.278 L43.5,7.657 L43.5,2 L43.5,0.5 Z M42,2 L42,7.657 L27.657,22 L42,36.343 L42,42 L36.343,42 L22,27.657 L7.657,42 L2,42 L2,36.343 L16.343,22 L2.279,7.936 C3.014,5.179 5.179,3.014 7.936,2.279 L22,16.343 L36.343,2 L42,2 L42,2 Z" id="Fill-11" fill="#F1F2F2"></path>
                <polygon id="Fill-13" fill="#F1F2F2" points="6.8221 4.6974 7.2991 6.1654 8.8431 6.1654 7.5941 7.0724 8.0711 8.5404 6.8221 7.6334 5.5731 8.5404 6.0501 7.0724 4.8011 6.1654 6.3451 6.1654"></polygon>
                <polygon id="Fill-15" fill="#F1F2F2" points="11.8786 9.7692 12.3556 11.2372 13.8996 11.2372 12.6506 12.1442 13.1276 13.6122 11.8786 12.7052 10.6296 13.6122 11.1066 12.1442 9.8576 11.2372 11.4016 11.2372"></polygon>
                <polygon id="Fill-17" fill="#F1F2F2" points="16.9351 14.8409 17.4121 16.3089 18.9561 16.3089 17.7071 17.2159 18.1841 18.6839 16.9351 17.7769 15.6861 18.6839 16.1631 17.2159 14.9141 16.3089 16.4581 16.3089"></polygon>
                <polygon id="Fill-19" fill="#F1F2F2" points="21.9917 19.9126 22.4687 21.3806 24.0127 21.3806 22.7637 22.2876 23.2407 23.7556 21.9917 22.8486 20.7427 23.7556 21.2197 22.2876 19.9707 21.3806 21.5147 21.3806"></polygon>
                <polygon id="Fill-21" fill="#F1F2F2" points="27.0482 24.9844 27.5252 26.4524 29.0692 26.4524 27.8202 27.3594 28.2972 28.8274 27.0482 27.9204 25.7992 28.8274 26.2762 27.3594 25.0272 26.4524 26.5712 26.4524"></polygon>
                <polygon id="Fill-23" fill="#F1F2F2" points="32.1047 30.0561 32.5817 31.5241 34.1257 31.5241 32.8767 32.4311 33.3537 33.8991 32.1047 32.9921 30.8557 33.8991 31.3327 32.4311 30.0837 31.5241 31.6277 31.5241"></polygon>
                <polygon id="Fill-25" fill="#F1F2F2" points="37.1613 35.1278 37.6383 36.5958 39.1823 36.5958 37.9333 37.5028 38.4103 38.9708 37.1613 38.0638 35.9123 38.9708 36.3893 37.5028 35.1403 36.5958 36.6843 36.5958"></polygon>
                <polygon id="Fill-27" fill="#F1F2F2" points="37.1613 4.7142 37.6383 6.1822 39.1823 6.1822 37.9333 7.0892 38.4103 8.5572 37.1613 7.6502 35.9123 8.5572 36.3893 7.0892 35.1403 6.1822 36.6843 6.1822"></polygon>
                <polygon id="Fill-29" fill="#F1F2F2" points="32.1047 9.7803 32.5817 11.2483 34.1257 11.2483 32.8767 12.1553 33.3537 13.6233 32.1047 12.7163 30.8557 13.6233 31.3327 12.1553 30.0837 11.2483 31.6277 11.2483"></polygon>
                <polygon id="Fill-31" fill="#F1F2F2" points="27.0482 14.8465 27.5252 16.3145 29.0692 16.3145 27.8202 17.2215 28.2972 18.6895 27.0482 17.7825 25.7992 18.6895 26.2762 17.2215 25.0272 16.3145 26.5712 16.3145"></polygon>
                <polygon id="Fill-33" fill="#F1F2F2" points="16.9351 24.9788 17.4121 26.4468 18.9561 26.4468 17.7071 27.3538 18.1841 28.8218 16.9351 27.9148 15.6861 28.8218 16.1631 27.3538 14.9141 26.4468 16.4581 26.4468"></polygon>
                <polygon id="Fill-35" fill="#F1F2F2" points="11.8786 30.045 12.3556 31.513 13.8996 31.513 12.6506 32.42 13.1276 33.888 11.8786 32.981 10.6296 33.888 11.1066 32.42 9.8576 31.513 11.4016 31.513"></polygon>
                <polygon id="Fill-37" fill="#F1F2F2" points="6.8221 35.1111 7.2991 36.5791 8.8431 36.5791 7.5941 37.4861 8.0711 38.9541 6.8221 38.0471 5.5731 38.9541 6.0501 37.4861 4.8011 36.5791 6.3451 36.5791"></polygon>
            </g>
        </g>
    </g>
</svg>