<svg width="90" height="65" viewBox="0 0 90 65" xmlns="http://www.w3.org/2000/svg"><title>Mississippi</title><g fill="none" fill-rule="evenodd"><path d="M44 0H10C4.477 0 0 4.477 0 10v34h90V22H44V0z" fill="#F1F2F2"/><path d="M80 0H44v22h46V10c0-5.523-4.477-10-10-10" fill="#00247D"/><path d="M0 55c0 5.523 4.477 10 10 10h70c5.523 0 10-4.477 10-10V44H0v11zM42 42H2V10a8 8 0 0 1 8-8h32v40z" fill="#CF1B2B"/><path d="M42 2h-5.657L22 16.343 7.936 2.279a7.997 7.997 0 0 0-5.657 5.657L16.343 22 2 36.343V42h5.657L22 27.657 36.343 42H42v-5.657L27.657 22 42 7.657V2z" fill="#00247D"/><path d="M43.5.5H35.722l-.44.439L22 14.222 8.996 1.218 8.385.607 7.549.83A9.507 9.507 0 0 0 .83 7.549l-.223.836.611.611L14.222 22 .939 35.282l-.439.44V43.5H8.278l.44-.439L22 29.778l13.282 13.283.44.439H43.5V35.722l-.439-.44L29.778 22 43.061 8.718l.439-.44V.5zM42 2v5.657L27.657 22 42 36.343V42h-5.657L22 27.657 7.657 42H2v-5.657L16.343 22 2.279 7.936a7.997 7.997 0 0 1 5.657-5.657L22 16.343 36.343 2H42z" fill="#F1F2F2"/><path fill="#F1F2F2" d="M6.822 4.697L7.3 6.165h1.544l-1.249.907.477 1.468-1.249-.907-1.249.907.477-1.468-1.249-.907h1.544zM11.879 9.77l.477 1.467H13.9l-1.25.907.478 1.468-1.25-.907-1.248.907.477-1.468-1.25-.907h1.545zM16.935 14.84l.477 1.469h1.544l-1.249.907.477 1.468-1.249-.907-1.249.907.477-1.468-1.249-.907h1.544zM21.992 19.913l.477 1.468h1.544l-1.25.907.478 1.468-1.25-.907-1.248.907.477-1.468-1.25-.907h1.545zM27.048 24.984l.477 1.468h1.544l-1.249.907.477 1.468-1.249-.907-1.249.907.477-1.468-1.249-.907h1.544zM32.105 30.056l.477 1.468h1.544l-1.25.907.478 1.468-1.25-.907-1.248.907.477-1.468-1.25-.907h1.545zM37.161 35.128l.477 1.468h1.544l-1.249.907.477 1.468-1.249-.907-1.249.907.477-1.468-1.249-.907h1.544zM37.161 4.714l.477 1.468h1.544l-1.249.907.477 1.468-1.249-.907-1.249.907.477-1.468-1.249-.907h1.544zM32.105 9.78l.477 1.468h1.544l-1.25.907.478 1.468-1.25-.907-1.248.907.477-1.468-1.25-.907h1.545zM27.048 14.847l.477 1.467h1.544l-1.249.907.477 1.468-1.249-.907-1.249.907.477-1.468-1.249-.907h1.544zM16.935 24.979l.477 1.468h1.544l-1.249.907.477 1.468-1.249-.907-1.249.907.477-1.468-1.249-.907h1.544zM11.879 30.045l.477 1.468H13.9l-1.25.907.478 1.468-1.25-.907-1.248.907.477-1.468-1.25-.907h1.545zM6.822 35.111L7.3 36.58h1.544l-1.249.907.477 1.468-1.249-.907-1.249.907.477-1.468-1.249-.907h1.544z"/></g></svg>