<svg width="90" height="65" viewBox="0 0 90 65" xmlns="http://www.w3.org/2000/svg" xmlns:xlink="http://www.w3.org/1999/xlink"><title>North Carolina</title><defs><path d="M10 0C4.477 0 0 4.477 0 10v45c0 5.523 4.477 10 10 10h70c5.523 0 10-4.477 10-10V10c0-5.523-4.477-10-10-10H10z" id="a"/></defs><g fill="none" fill-rule="evenodd"><mask id="b" fill="#fff"><use xlink:href="#a"/></mask><path fill="#F1F2F2" mask="url(#b)" d="M0 65h90V0H0z"/><path fill="#00247D" mask="url(#b)" d="M0 65h33V0H0z"/><path fill="#CF1B2B" mask="url(#b)" d="M33 32h57V0H33z"/><path d="M31.353 17.79l-4.758-2.437-1.823 3.561 4.827 2.472-.929-2.659 2.683-.937zm-27.524.937l-.929 2.66 4.827-2.473-1.823-3.56-4.758 2.436 2.683.937z" fill="#E89B00" mask="url(#b)"/><path d="M27.009 17.764a23.168 23.168 0 0 0-21.518 0L3.634 14.22a27.165 27.165 0 0 1 25.232 0l-1.857 3.543z" fill="#FFB200" mask="url(#b)"/><path d="M1.147 47.21l4.758 2.437 1.823-3.561L2.9 43.614l.929 2.659-2.683.937zm27.524-.937l.929-2.66-4.827 2.473 1.823 3.56 4.758-2.436-2.683-.937z" fill="#E89B00" mask="url(#b)"/><path d="M5.491 47.236a23.168 23.168 0 0 0 21.518 0l1.857 3.543a27.165 27.165 0 0 1-25.232 0l1.857-3.543z" fill="#FFB200" mask="url(#b)"/><path fill="#F1F2F2" mask="url(#b)" d="M16.25 27.009l1.233 3.794h3.99l-3.228 2.345 1.233 3.794-3.228-2.345-3.228 2.346 1.233-3.794-3.228-2.346h3.99z"/><path fill="#FFB200" mask="url(#b)" d="M4.613 27.704h1.176l1.848 5.148h.024v-5.148h1.224v8.544H7.733L5.86 31.112h-.024v5.136H4.613zM27.887 34.34a1.982 1.982 0 0 1-.564 1.386c-.176.18-.382.324-.618.432a1.81 1.81 0 0 1-.762.162 2.74 2.74 0 0 1-.708-.096 1.718 1.718 0 0 1-.648-.33 1.78 1.78 0 0 1-.474-.618c-.124-.256-.186-.58-.186-.972V29.6c0-.28.048-.54.144-.78a1.836 1.836 0 0 1 1.038-1.038c.244-.1.514-.15.81-.15.28 0 .54.05.78.15a1.866 1.866 0 0 1 1.038 1.068c.1.252.15.526.15.822v.48h-1.224v-.408a.99.99 0 0 0-.204-.624.66.66 0 0 0-.552-.264c-.304 0-.506.094-.606.282-.1.188-.15.426-.15.714v4.368c0 .248.054.456.162.624.108.168.302.252.582.252.08 0 .166-.014.258-.042a.708.708 0 0 0 .252-.138.695.695 0 0 0 .186-.264 1.07 1.07 0 0 0 .072-.42v-.42h1.224v.528z"/></g></svg>