<svg width="90" height="65" viewBox="0 0 90 65" xmlns="http://www.w3.org/2000/svg"><title>New Mexico</title><g fill="none" fill-rule="evenodd"><path d="M80 65H10C4.477 65 0 60.523 0 55V10C0 4.477 4.477 0 10 0h70c5.523 0 10 4.477 10 10v45c0 5.523-4.477 10-10 10" fill="#FFB200"/><path d="M45.5 27.084a5.424 5.424 0 0 1 5.417 5.417 5.423 5.423 0 0 1-5.417 5.416c-7.157 0-7.16-10.834 0-10.834M65 33.002H53.058c.034-.52.034-.482 0-1H65a1 1 0 1 0 0-2c-.316 0-12.031-.038-12.325.064a7.556 7.556 0 0 0-.475-1.108H62a.958.958 0 0 0 0-1.915c-.29 0-10.765-.006-11.054.011.017-.284.011-10.768.011-11.053a.958.958 0 1 0-1.914 0v9.8a7.666 7.666 0 0 0-1.108-.476C48.036 25.032 48 13.316 48 13a1 1 0 1 0-2 0v11.942c-.519-.035-.481-.035-1 0V13a1 1 0 1 0-2 0c0 .314-.037 12.03.066 12.324a7.619 7.619 0 0 0-1.108.474V16a.958.958 0 0 0-1.916 0c0 .284-.005 10.77.011 11.053-.283-.017-10.769-.01-11.053-.01a.958.958 0 0 0 0 1.915h9.8a7.45 7.45 0 0 0-.475 1.108C38.031 29.963 26.315 30 26 30a1 1 0 1 0 0 2h11.942c-.034.519-.034.481 0 1H26a1 1 0 1 0 0 2c.315 0 12.031.036 12.325-.066.13.385.287.756.475 1.108H29a.958.958 0 0 0 0 1.916c.284 0 10.77.005 11.053-.011-.017.288-.011 10.764-.011 11.053a.958.958 0 0 0 1.916 0v-9.8c.353.188.724.344 1.108.474-.103.294-.066 12.01-.066 12.327a1 1 0 0 0 2 0V40.056c.519.035.481.035 1 0v11.944a1 1 0 1 0 2 0c0-.317.037-12.032-.066-12.326.384-.13.756-.287 1.109-.475V49a.958.958 0 0 0 1.914 0c0-.29.006-10.764-.011-11.053.289.017 10.764.01 11.054.01a.958.958 0 0 0 0-1.915h-9.8c.187-.352.344-.724.475-1.108.293.102 12.008.067 12.325.067a1 1 0 1 0 0-2" fill="#CF1B2B"/></g></svg>