<?xml version="1.0" encoding="UTF-8" standalone="no"?>
<svg width="90px" height="65px" viewBox="0 0 90 65" version="1.1" xmlns="http://www.w3.org/2000/svg" xmlns:xlink="http://www.w3.org/1999/xlink">
    <!-- Generator: Sketch 3.7.2 (28276) - http://www.bohemiancoding.com/sketch -->
    <title>Ohio</title>
    <desc>Created with Sketch.</desc>
    <defs>
        <path d="M0,10.097 L0,52.902 C0,58.836 5.136,63.464 11.038,62.849 L90,54 L71,31.5 L90,9 L11.038,0.151 C10.684,0.114 10.331,0.096 9.984,0.096 C4.538,0.096 0,4.52 0,10.097 L0,10.097 Z" id="path-1"></path>
    </defs>
    <g id="Page-1" stroke="none" stroke-width="1" fill="none" fill-rule="evenodd">
        <g id="Ohio">
            <g id="Page-1" transform="translate(0.000000, 1.000000)">
                <mask id="mask-2" fill="white">
                    <use xlink:href="#path-1"></use>
                </mask>
                <g id="Clip-2"></g>
                <polygon id="Fill-1" fill="#F1F2F2" mask="url(#mask-2)" points="0 64 90 64 90 -1 0 -1"></polygon>
                <path d="M0,64 L90,64 L90,44.945 L0,54.945 L0,64 Z M0,8.055 L90,18.055 L90,-1 L0,-1 L0,8.055 Z M0,36 L90,36 L90,27 L0,27 L0,36 Z" id="Fill-3" fill="#CF1B2B" mask="url(#mask-2)"></path>
                <polygon id="Fill-4" fill="#00247D" mask="url(#mask-2)" points="0 64 54 31.5 0 -1"></polygon>
                <path d="M28.8227,31.5 C28.8227,25.523 23.9777,20.678 18.0007,20.678 C12.0237,20.678 7.1787,25.523 7.1787,31.5 C7.1787,37.477 12.0237,42.322 18.0007,42.322 C23.9777,42.322 28.8227,37.477 28.8227,31.5" id="Fill-5" fill="#F1F2F2" mask="url(#mask-2)"></path>
                <path d="M25.5008,31.5 C25.5008,27.358 22.1428,24 18.0008,24 C13.8588,24 10.5008,27.358 10.5008,31.5 C10.5008,35.642 13.8588,39 18.0008,39 C22.1428,39 25.5008,35.642 25.5008,31.5" id="Fill-6" fill="#CF1B2B" mask="url(#mask-2)"></path>
                <polygon id="Fill-7" fill="#F1F2F2" mask="url(#mask-2)" points="1.1533 31.2434 2.7053 30.7394 2.7053 29.1074 3.6643 30.4274 5.2153 29.9234 4.2563 31.2434 5.2153 32.5634 3.6643 32.0594 2.7053 33.3794 2.7053 31.7474"></polygon>
                <polygon id="Fill-8" fill="#F1F2F2" mask="url(#mask-2)" points="2.2749 12.8598 3.6699 13.7058 4.9059 12.6408 4.5319 14.2288 5.9269 15.0748 4.3009 15.2108 3.9269 16.7988 3.2959 15.2938 1.6699 15.4298 2.9059 14.3638"></polygon>
                <polygon id="Fill-9" fill="#F1F2F2" mask="url(#mask-2)" points="9.5986 8.6054 10.6196 9.8774 12.1456 9.2994 11.2506 10.6644 12.2726 11.9364 10.6986 11.5074 9.8036 12.8714 9.7256 11.2424 8.1516 10.8134 9.6766 10.2354"></polygon>
                <polygon id="Fill-10" fill="#F1F2F2" mask="url(#mask-2)" points="2.2749 50.1402 3.6699 49.2942 4.9059 50.3592 4.5319 48.7712 5.9269 47.9252 4.3009 47.7892 3.9269 46.2012 3.2959 47.7062 1.6699 47.5702 2.9059 48.6362"></polygon>
                <polygon id="Fill-11" fill="#F1F2F2" mask="url(#mask-2)" points="9.5986 54.3946 10.6196 53.1226 12.1456 53.7006 11.2506 52.3356 12.2726 51.0636 10.6986 51.4926 9.8036 50.1286 9.7256 51.7576 8.1516 52.1866 9.6766 52.7646"></polygon>
                <polygon id="Fill-12" fill="#F1F2F2" mask="url(#mask-2)" points="34.8483 31.2434 33.2963 30.7394 33.2963 29.1074 32.3373 30.4274 30.7863 29.9234 31.7453 31.2434 30.7863 32.5634 32.3373 32.0594 33.2963 33.3794 33.2963 31.7474"></polygon>
                <polygon id="Fill-13" fill="#F1F2F2" mask="url(#mask-2)" points="40.7681 27.486 39.2161 26.982 39.2161 25.35 38.2571 26.67 36.7061 26.166 37.6651 27.486 36.7061 28.806 38.2571 28.302 39.2161 29.622 39.2161 27.99"></polygon>
                <polygon id="Fill-14" fill="#F1F2F2" mask="url(#mask-2)" points="40.7681 35.0007 39.2161 35.5047 39.2161 37.1367 38.2571 35.8167 36.7061 36.3207 37.6651 35.0007 36.7061 33.6807 38.2571 34.1847 39.2161 32.8647 39.2161 34.4967"></polygon>
                <polygon id="Fill-15" fill="#F1F2F2" mask="url(#mask-2)" points="46.531 31.2434 44.979 30.7394 44.979 29.1074 44.02 30.4274 42.469 29.9234 43.428 31.2434 42.469 32.5634 44.02 32.0594 44.979 33.3794 44.979 31.7474"></polygon>
                <polygon id="Fill-16" fill="#F1F2F2" mask="url(#mask-2)" points="2.9639 39.1022 4.1039 37.9352 3.3449 36.4902 4.8079 37.2132 5.9479 36.0462 5.7119 37.6602 7.1739 38.3832 5.5659 38.6582 5.3299 40.2722 4.5719 38.8272"></polygon>
                <polygon id="Fill-17" fill="#F1F2F2" mask="url(#mask-2)" points="8.2191 45.2194 8.6861 43.6564 7.3431 42.7294 8.9741 42.6894 9.4401 41.1264 9.9821 42.6654 11.6131 42.6264 10.3171 43.6164 10.8581 45.1554 9.5151 44.2284"></polygon>
                <polygon id="Fill-18" fill="#F1F2F2" mask="url(#mask-2)" points="15.7153 48.1937 15.4023 46.5927 13.7823 46.3957 15.2083 45.6027 14.8943 44.0017 16.0893 45.1127 17.5153 44.3207 16.8273 45.7997 18.0223 46.9107 16.4033 46.7137"></polygon>
                <polygon id="Fill-19" fill="#F1F2F2" mask="url(#mask-2)" points="23.735 47.3436 22.713 46.0716 21.188 46.6506 22.082 45.2856 21.06 44.0136 22.635 44.4416 23.529 43.0776 23.607 44.7066 25.182 45.1356 23.656 45.7136"></polygon>
                <polygon id="Fill-20" fill="#F1F2F2" mask="url(#mask-2)" points="24.2149 15.8383 24.1359 17.4683 25.6619 18.0463 24.0869 18.4753 24.0089 20.1043 23.1149 18.7403 21.5399 19.1683 22.5619 17.8963 21.6679 16.5313 23.1929 17.1103"></polygon>
                <polygon id="Fill-21" fill="#F1F2F2" mask="url(#mask-2)" points="16.2248 14.7444 16.9118 16.2244 18.5318 16.0274 17.3368 17.1384 18.0248 18.6174 16.5988 17.8254 15.4038 18.9364 15.7178 17.3354 14.2918 16.5424 15.9118 16.3454"></polygon>
                <polygon id="Fill-22" fill="#F1F2F2" mask="url(#mask-2)" points="8.6416 17.489 9.9376 18.48 11.2806 17.553 10.7386 19.092 12.0356 20.082 10.4046 20.043 9.8626 21.582 9.3966 20.019 7.7656 19.979 9.1086 19.052"></polygon>
                <polygon id="Fill-23" fill="#F1F2F2" mask="url(#mask-2)" points="3.2024 23.4434 4.8104 23.7184 5.5684 22.2734 5.8044 23.8874 7.4124 24.1624 5.9504 24.8854 6.1864 26.4994 5.0464 25.3324 3.5834 26.0554 4.3424 24.6104"></polygon>
            </g>
        </g>
    </g>
</svg>