<svg width="90" height="65" viewBox="0 0 90 65" xmlns="http://www.w3.org/2000/svg" xmlns:xlink="http://www.w3.org/1999/xlink"><title>Ohio</title><defs><path d="M0 10.097v42.805c0 5.934 5.136 10.562 11.038 9.947L90 54 71 31.5 90 9 11.038.151A10.156 10.156 0 0 0 9.984.096C4.538.096 0 4.52 0 10.097z" id="a"/></defs><g transform="translate(0 1)" fill="none" fill-rule="evenodd"><mask id="b" fill="#fff"><use xlink:href="#a"/></mask><path fill="#F1F2F2" mask="url(#b)" d="M0 64h90V-1H0z"/><path d="M0 64h90V44.945l-90 10V64zM0 8.055l90 10V-1H0v9.055zM0 36h90v-9H0v9z" fill="#CF1B2B" mask="url(#b)"/><path fill="#00247D" mask="url(#b)" d="M0 64l54-32.5L0-1z"/><path d="M28.823 31.5c0-5.977-4.845-10.822-10.822-10.822-5.977 0-10.822 4.845-10.822 10.822 0 5.977 4.845 10.822 10.822 10.822 5.977 0 10.822-4.845 10.822-10.822" fill="#F1F2F2" mask="url(#b)"/><path d="M25.5 31.5a7.5 7.5 0 1 0-15 0 7.5 7.5 0 0 0 15 0" fill="#CF1B2B" mask="url(#b)"/><path fill="#F1F2F2" mask="url(#b)" d="M1.153 31.243l1.552-.504v-1.632l.96 1.32 1.55-.504-.959 1.32.96 1.32-1.552-.504-.959 1.32v-1.632zM2.275 12.86l1.395.846 1.236-1.065-.374 1.588 1.395.846-1.626.136-.374 1.588-.631-1.505-1.626.136 1.236-1.066zM9.599 8.605l1.02 1.272 1.527-.578-.895 1.365 1.022 1.272-1.574-.429-.895 1.364-.078-1.629-1.574-.429 1.525-.578zM2.275 50.14l1.395-.846 1.236 1.065-.374-1.588 1.395-.846L4.3 47.79l-.374-1.588-.631 1.505-1.626-.136 1.236 1.066zM9.599 54.395l1.02-1.272 1.527.578-.895-1.365 1.022-1.272-1.574.429-.895-1.364-.078 1.629-1.574.429 1.525.578zM34.848 31.243l-1.552-.504v-1.632l-.959 1.32-1.55-.504.958 1.32-.959 1.32 1.551-.504.96 1.32v-1.632zM40.768 27.486l-1.552-.504V25.35l-.959 1.32-1.55-.504.958 1.32-.959 1.32 1.551-.504.96 1.32V27.99zM40.768 35l-1.552.505v1.632l-.959-1.32-1.55.504.958-1.32-.959-1.32 1.551.504.96-1.32v1.632zM46.531 31.243l-1.552-.504v-1.632l-.959 1.32-1.551-.504.959 1.32-.959 1.32 1.551-.504.959 1.32v-1.632zM2.964 39.102l1.14-1.167-.76-1.445 1.464.723 1.14-1.167-.236 1.614 1.462.723-1.608.275-.236 1.614-.758-1.445zM8.22 45.22l.466-1.564-1.343-.927 1.631-.04.466-1.563.542 1.54 1.631-.04-1.296.99.541 1.54-1.343-.928zM15.715 48.194l-.313-1.601-1.62-.197 1.426-.793-.314-1.601 1.195 1.11 1.426-.791-.688 1.479 1.195 1.11-1.619-.196zM23.735 47.344l-1.022-1.272-1.525.579.894-1.365-1.022-1.272 1.575.428.894-1.364.078 1.629 1.575.429-1.526.578zM24.215 15.838l-.08 1.63 1.527.578-1.575.43-.078 1.628-.894-1.364-1.575.428 1.022-1.272-.894-1.365 1.525.58zM16.225 14.744l.687 1.48 1.62-.197-1.195 1.111.688 1.48-1.426-.793-1.195 1.111.314-1.6-1.426-.794 1.62-.197zM8.642 17.489l1.296.991 1.343-.927-.542 1.539 1.297.99-1.631-.039-.542 1.539-.466-1.563-1.631-.04 1.343-.927zM3.202 23.443l1.608.275.758-1.445.236 1.614 1.608.275-1.462.723.236 1.614-1.14-1.167-1.463.723.76-1.445z"/></g></svg>