<svg width="90" height="65" viewBox="0 0 90 65" xmlns="http://www.w3.org/2000/svg" xmlns:xlink="http://www.w3.org/1999/xlink"><title>Rhode Island</title><defs><path d="M10 0C4.477 0 0 4.477 0 10v45c0 5.523 4.477 10 10 10h70c5.523 0 10-4.477 10-10V10c0-5.523-4.477-10-10-10H10zM0 0h90v65H0V0z" id="a"/><path d="M10 0C4.477 0 0 4.477 0 10v45c0 5.523 4.477 10 10 10h70c5.523 0 10-4.477 10-10V10c0-5.523-4.477-10-10-10H10z" id="c"/></defs><g fill="none" fill-rule="evenodd"><mask id="b" fill="#fff"><use xlink:href="#a"/></mask><path d="M80 65H10C4.477 65 0 60.523 0 55V10C0 4.477 4.477 0 10 0h70c5.523 0 10 4.477 10 10v45c0 5.523-4.477 10-10 10" fill="#FFB200" mask="url(#b)"/><mask id="d" fill="#fff"><use xlink:href="#c"/></mask><path fill="#E89B00" mask="url(#d)" d="M0 65h90V0H0z"/><path d="M80 63H0V2h80a8 8 0 0 1 8 8v45a8 8 0 0 1-8 8" fill="#F1F2F2" mask="url(#d)"/><path d="M55.371 10.068L51.813 8.2l1.781 3.6-2.875 2.808 3.976-.581 1.78 3.602.677-3.96 3.975-.581-3.557-1.867.676-3.96-2.875 2.806zm9.237 7.389l-2.282-3.306-.098 4.016-3.85 1.149 3.79 1.334-.097 4.016 2.44-3.192 3.79 1.333-2.283-3.306 2.44-3.193-3.85 1.149zm4.745 10.836l-.484-3.99-1.953 3.513-3.943-.772 2.736 2.942-1.952 3.51 3.643-1.692 2.736 2.942-.484-3.988 3.644-1.693-3.943-.772zm-.834 11.799l1.424-3.757-3.36 2.202-3.133-2.516 1.056 3.877-3.36 2.202 4.012.194 1.055 3.877 1.425-3.757 4.013.194-3.132-2.516zm-6.222 10.06l3.007-2.664-3.999.388-1.605-3.684-.866 3.924-3.999.387 3.463 2.037-.867 3.923 3.007-2.664 3.463 2.037-1.604-3.684zm-10.185 6.017l3.901-.962-3.72-1.515.29-4.007-2.59 3.07-3.722-1.514 2.12 3.413-2.59 3.07 3.9-.961 2.12 3.413.291-4.007zm-11.814.594l3.901.962-2.59-3.071 2.12-3.413-3.722 1.515-2.59-3.071.29 4.007-3.72 1.515 3.9.962.291 4.007 2.12-3.413zm-10.737-4.964l3.008 2.664-.867-3.923 3.463-2.037-3.999-.387-.867-3.924-1.605 3.684-3.999-.388 3.008 2.664-1.605 3.684 3.463-2.037zm-7.2-9.385l1.425 3.757 1.055-3.877 4.014-.194-3.36-2.202 1.054-3.877-3.132 2.516-3.36-2.202 1.424 3.757-3.133 2.516 4.013-.194zm-2.014-11.656l-.484 3.988 2.736-2.942 3.644 1.693-1.953-3.511 2.736-2.942-3.943.772-1.952-3.512-.484 3.989-3.943.772 3.643 1.693zM23.981 19.5L21.7 22.807l3.79-1.333 2.44 3.192-.098-4.016 3.79-1.334-3.85-1.15-.097-4.015-2.282 3.306-3.85-1.15 2.44 3.194zm8.45-8.28l-3.559 1.868 3.976.58.676 3.96 1.781-3.601 3.975.58-2.875-2.806L38.186 8.2l-3.558 1.867-2.875-2.806.677 3.96zM45 3.998l1.24 3.82h4.018l-3.25 2.362 1.241 3.82L45 11.64l-3.25 2.36 1.241-3.82-3.25-2.361h4.017L45 3.997z" fill="#E89B00"/><g><path d="M43.445 19.24c0-.858.698-1.557 1.555-1.56a1.56 1.56 0 0 1 .002 3.12 1.561 1.561 0 0 1-1.557-1.56m13.043 13.718l-3.356 1.389c-.231.244-.156.634.078 1.037-.142.077-.281.155-.437.228-.487.235-1.03.457-1.623.639-.291.103-.606.172-.917.262-.322.062-.641.15-.98.196-.334.055-.674.109-1.024.137-.346.044-.702.059-1.058.077-.387.01-.783.028-1.175.042v-11.96l.496-.005c.49-.006.976-.036 1.444-.053.468-.014.92-.05 1.35-.078a29.845 29.845 0 0 0 1.43-.123c.238.356.624.604 1.084.604a1.328 1.328 0 1 0 0-2.656c-.46 0-.846.248-1.084.604a29.845 29.845 0 0 0-1.429-.123c-.43-.03-.883-.064-1.351-.078-.468-.017-.953-.047-1.444-.053l-.496-.006v-.823a3.148 3.148 0 0 0 2.153-2.975 3.16 3.16 0 0 0-3.147-3.154h-.004a3.159 3.159 0 0 0-3.146 3.154c0 1.385.905 2.553 2.152 2.975v.823l-.495.006c-.492.006-.976.036-1.445.053-.468.014-.921.049-1.35.078a29.75 29.75 0 0 0-1.43.123c-.238-.356-.623-.604-1.083-.604a1.327 1.327 0 1 0 0 2.656c.46 0 .845-.248 1.084-.604l.218.022c.375.037.78.076 1.21.1.43.03.883.065 1.35.079.47.017.954.047 1.446.053l.495.006v11.953l-.12-.005c-.351-.027-.695-.004-1.054-.031-.357-.018-.713-.033-1.06-.077-.35-.028-.69-.082-1.024-.137-.338-.046-.657-.134-.98-.196-.31-.09-.624-.16-.915-.262a11.475 11.475 0 0 1-1.624-.64c-.156-.072-.294-.15-.437-.227.234-.403.309-.793.078-1.037l-3.356-1.39a.27.27 0 0 0-.357.339l1.21 3.425c.314.33.927.113 1.484-.308.196.156.399.319.626.469.51.345 1.09.688 1.73.986.318.158.658.28 1 .425.35.116.705.259 1.075.359.368.11.743.225 1.128.31.383.103.775.175 1.172.249.392.089.814.108 1.226.21.21.073.388.098.58.286.095.089.189.188.284.262.047.037.094.07.142.087.024.01.048.016.072.022.012.004.024.004.036.005l.018.002h.009l.053.002c.21.009.417-.198.617-.38.2-.188.402-.214.603-.287.402-.103.805-.12 1.2-.21.397-.073.789-.145 1.173-.247.385-.086.76-.2 1.128-.311.369-.1.724-.243 1.073-.36.343-.144.683-.266 1-.424a12.642 12.642 0 0 0 1.732-.986c.226-.15.429-.313.625-.47.557.422 1.17.64 1.484.309l1.21-3.425a.27.27 0 0 0-.357-.338" fill="#E89B00"/><path d="M56.304 45.504l-1.987-1.348 1.347-1.987-3.447.661V41c-4.992 2.175-9.818 2.353-14.434 0v1.83l-3.447-.661 1.348 1.987-1.988 1.348 5.837 1.119.263-1.371c3.364 1.175 6.834 1.082 10.392-.084l.279 1.455 5.837-1.119z" fill="#00247D"/></g></g></svg>