<?xml version="1.0" encoding="UTF-8" standalone="no"?>
<svg width="90px" height="65px" viewBox="0 0 90 65" version="1.1" xmlns="http://www.w3.org/2000/svg" xmlns:xlink="http://www.w3.org/1999/xlink">
    <!-- Generator: Sketch 3.7.2 (28276) - http://www.bohemiancoding.com/sketch -->
    <title>Tennessee</title>
    <desc>Created with Sketch.</desc>
    <defs>
        <path d="M10,0 C4.477,0 0,4.477 0,10 L0,55 C0,60.523 4.477,65 10,65 L80,65 C85.523,65 90,60.523 90,55 L90,10 C90,4.477 85.523,0 80,0 L10,0 L10,0 Z" id="path-1"></path>
    </defs>
    <g id="Page-1" stroke="none" stroke-width="1" fill="none" fill-rule="evenodd">
        <g id="Tennessee">
            <g id="Page-1">
                <g id="Group-5">
                    <mask id="mask-2" fill="white">
                        <use xlink:href="#path-1"></use>
                    </mask>
                    <g id="Clip-2"></g>
                    <polygon id="Fill-1" fill="#CF1B2B" mask="url(#mask-2)" points="0 65 90 65 90 0 0 0"></polygon>
                    <polygon id="Fill-3" fill="#00247D" mask="url(#mask-2)" points="82 65 90 65 90 0 82 0"></polygon>
                    <polygon id="Fill-4" fill="#F1F2F2" mask="url(#mask-2)" points="80 65 82 65 82 0 80 0"></polygon>
                </g>
                <g id="Group-12" transform="translate(22.000000, 15.000000)">
                    <path d="M36,18 C36,8.059 27.941,0 18,0 C8.059,0 0,8.059 0,18 C0,27.941 8.059,36 18,36 C27.941,36 36,27.941 36,18" id="Fill-6" fill="#F1F2F2"></path>
                    <path d="M34,18 C34,9.163 26.837,2 18,2 C9.163,2 2,9.163 2,18 C2,26.837 9.163,34 18,34 C26.837,34 34,26.837 34,18" id="Fill-8" fill="#00247D"></path>
                    <path d="M15.4742,12.8654 L19.1982,9.6074 L14.2702,10.0544 L12.3232,5.5064 L11.2252,10.3304 L6.2982,10.7774 L10.5472,13.3124 L9.4492,18.1364 L13.1732,14.8784 L17.4222,17.4134 L15.4742,12.8654 Z M23.7282,18.4754 L24.6882,23.3294 L26.7652,18.8384 L31.6772,19.4254 L28.0482,16.0634 L30.1242,11.5724 L25.8052,13.9854 L22.1762,10.6224 L23.1352,15.4764 L18.8162,17.8884 L23.7282,18.4754 Z M17.7072,18.8584 L17.6372,23.8054 L22.3202,25.4014 L17.5932,26.8624 L17.5232,31.8094 L14.6722,27.7664 L9.9452,29.2274 L12.9102,25.2674 L10.0592,21.2234 L14.7432,22.8194 L17.7072,18.8584 Z" id="Fill-10" fill="#F1F2F2"></path>
                </g>
            </g>
        </g>
    </g>
</svg>