<svg width="90" height="65" viewBox="0 0 90 65" xmlns="http://www.w3.org/2000/svg" xmlns:xlink="http://www.w3.org/1999/xlink"><title>Tennessee</title><defs><path d="M10 0C4.477 0 0 4.477 0 10v45c0 5.523 4.477 10 10 10h70c5.523 0 10-4.477 10-10V10c0-5.523-4.477-10-10-10H10z" id="a"/></defs><g fill="none" fill-rule="evenodd"><mask id="b" fill="#fff"><use xlink:href="#a"/></mask><path fill="#CF1B2B" mask="url(#b)" d="M0 65h90V0H0z"/><path fill="#00247D" mask="url(#b)" d="M82 65h8V0h-8z"/><path fill="#F1F2F2" mask="url(#b)" d="M80 65h2V0h-2z"/><g><path d="M58 33c0-9.941-8.059-18-18-18s-18 8.059-18 18 8.059 18 18 18 18-8.059 18-18" fill="#F1F2F2"/><path d="M56 33c0-8.837-7.163-16-16-16s-16 7.163-16 16 7.163 16 16 16 16-7.163 16-16" fill="#00247D"/><path d="M37.474 27.865l3.724-3.258-4.928.447-1.947-4.548-1.098 4.824-4.927.447 4.25 2.535-1.099 4.824 3.724-3.258 4.25 2.535-1.949-4.548zm8.254 5.61l.96 4.854 2.077-4.49 4.912.586-3.629-3.362 2.076-4.49-4.319 2.412-3.629-3.363.96 4.854-4.32 2.412 4.912.587zm-6.02.383l-.07 4.947 4.682 1.596-4.727 1.461-.07 4.947-2.85-4.043-4.728 1.461 2.965-3.96-2.85-4.044 4.683 1.596 2.964-3.96z" fill="#F1F2F2"/></g></g></svg>