<svg width="90" height="65" viewBox="0 0 90 65" xmlns="http://www.w3.org/2000/svg"><title>Texas</title><g fill="none" fill-rule="evenodd"><path d="M32 65H10C4.477 65 0 60.523 0 55V10C0 4.477 4.477 0 10 0h22v65z" fill="#00247D"/><path d="M90 33H32V0h48c5.523 0 10 4.477 10 10v23z" fill="#F1F2F2"/><path d="M80 65H32V33h58v22c0 5.523-4.477 10-10 10" fill="#CF1B2B"/><path fill="#F1F2F2" d="M16.064 18.602L19.118 28H29l-7.995 5.809 3.054 9.398-7.995-5.808-7.995 5.808 3.054-9.398-7.995-5.81h9.882z"/></g></svg>